<?xml version="1.0" encoding="utf-8"?>
<!-- Generator: Adobe Illustrator 27.0.0, SVG Export Plug-In . SVG Version: 6.00 Build 0)  -->
<svg version="1.1" id="Layer_1" xmlns="http://www.w3.org/2000/svg" xmlns:xlink="http://www.w3.org/1999/xlink" x="0px" y="0px"
	 viewBox="0 0 1827.56 800" style="enable-background:new 0 0 1827.56 800;" xml:space="preserve">
<style type="text/css">
	.st0{fill:#FFFFFF;}
	.st1{fill:#010202;}
</style>
<g>
	<path class="st0" d="M241.29,612.67c-98.82,2.49-181.11-74.41-183.59-171.84c-1.4-49.26,18.1-94.43,50.43-127.33l-12.8-11.55
		c-32.97,35.63-52.55,83.25-51.07,135.22c2.73,106.86,93.01,191.29,201.44,188.47c83.07-2.06,162.84-54.66,189.66-127.12
		l-18.64-6.81C393.63,560.39,318.83,610.7,241.29,612.67"/>
	<path class="st0" d="M335.06,307.34l-21.19,19.52c26.78,26.12,43.37,62.48,43.37,102.62c0,56.88-33.3,106.05-81.72,129.78
		c-5,2.43-10.22,4.63-15.55,6.53c-8.79,2.72-18.15,4.23-27.87,4.23c-12.57,0-24.43-2.43-35.39-6.95
		c-32.91-13.59-56.01-45.64-56.01-82.97c0-49.68,40.92-89.98,91.39-89.98c3.8,0,7.66,0.37,11.52,0.73
		c-8.14-2.2-16.7-3.44-25.57-3.44c-52.32,0-94.75,41.79-94.75,93.42c0,50.71,41.05,92.01,92.21,93.3c-0.67,0-1.24,0.07-1.84,0.09
		h3.43c89.07,0,161.12-71.06,161.12-158.69C378.22,373.72,361.83,335.7,335.06,307.34"/>
</g>
<path class="st0" d="M1783.37,284.36c0,0-156.36-149.34-442.39-90.81c-285.9,58.66-372.24-18.25-372.24-18.25
	s90.45,94.99,384.57,46.48C1509.72,193.55,1649.64,187.56,1783.37,284.36"/>
<g>
	<polygon class="st0" points="430.92,234.14 442.13,234.14 459.42,143.11 448.21,143.11 	"/>
	<path class="st0" d="M468.33,187.54c0,6.62,4.19,12.43,11.75,16.61c6.75,3.78,9.05,6.89,9.05,12.02c0,5.81-4.86,10.67-12.43,10.67
		c-5.27,0-10.94-2.16-14.05-4.05l-3.11,8.24c2.97,2.3,9.18,4.46,16.21,4.59c13.78,0,24.99-7.83,24.99-21.61
		c0-7.29-5-12.97-12.29-17.15c-5.81-3.24-8.91-6.21-8.91-10.94c0-5.67,4.86-9.86,11.62-9.86c4.86,0,9.05,1.62,11.35,2.97l3.11-8.51
		c-2.43-1.62-7.7-3.24-13.64-3.24C478.19,167.28,468.33,176.06,468.33,187.54z"/>
	<path class="st0" d="M518.71,187.54c0,6.62,4.19,12.43,11.75,16.61c6.75,3.78,9.05,6.89,9.05,12.02c0,5.81-4.86,10.67-12.43,10.67
		c-5.27,0-10.94-2.16-14.05-4.05l-3.11,8.24c2.97,2.3,9.18,4.46,16.21,4.59c13.78,0,24.99-7.83,24.99-21.61
		c0-7.29-5-12.97-12.29-17.15c-5.81-3.24-8.91-6.21-8.91-10.94c0-5.67,4.86-9.86,11.62-9.86c4.86,0,9.05,1.62,11.35,2.97l3.11-8.51
		c-2.43-1.62-7.7-3.24-13.64-3.24C528.57,167.28,518.71,176.06,518.71,187.54z"/>
	<path class="st0" d="M609.07,202.26c-2.7,14.45-13.1,23.91-21.21,23.91c-7.7,0-10.53-4.59-10.53-11.35c0-2.84,0.41-5.94,1.22-9.59
		l6.89-36.47h-11.21l-7.02,37.01c-0.81,4.32-1.22,7.83-1.22,10.94c0,14.86,8.78,18.91,17.15,18.91c8.64,0,17.29-5.27,23.1-13.78
		h0.27l-1.76,12.29h10.13c0.68-5.4,1.62-11.75,2.97-19.04l8.78-46.33h-11.21L609.07,202.26z"/>
	<path class="st0" d="M670.25,167.28c-21.07,0-35.66,22.29-35.66,42.01c0,14.45,7.56,26.34,24.85,26.34
		c8.78,0,16.75-2.43,21.61-5.27l-1.62-8.37c-4.05,2.16-9.86,4.59-17.56,4.59c-6.75,0-12.02-2.97-14.59-8.78
		c-1.49-3.51-1.89-9.59-1.35-12.43c24.18,0.41,43.49-4.19,43.49-21.34C689.43,174.71,682.68,167.28,670.25,167.28z M678.62,184.44
		c0,10.13-13.78,12.43-31.33,12.29c2.7-10.27,10.67-20.67,21.34-20.67c5.94,0,9.99,2.97,9.99,8.24V184.44z"/>
	<path class="st0" d="M747.64,169.58c-2.84-1.35-7.43-2.3-11.62-2.3c-23.1,0-40.39,21.34-40.39,44.57
		c0,13.37,6.89,23.77,19.58,23.77c9.32,0,17.56-5.13,23.5-14.45H739l-1.76,12.97h10.26c0.41-6.35,1.49-13.91,2.84-20.67l14.32-75.23
		h-11.21L747.64,169.58z M741.43,201.86c-2.84,14.72-13.24,24.58-21.88,24.58c-9.59,0-12.29-8.24-12.29-16.07
		c0-17.42,12.16-34.04,27.82-34.04c4.73,0,8.51,1.22,10.81,2.7L741.43,201.86z"/>
	<path class="st0" d="M834.08,167.28c-8.78,0-17.15,4.59-22.96,13.37h-0.27l8.64-42.41h-11.21l-14.18,70.37
		c-0.54,3.11-1.08,7.02-1.08,10.13c0,12.16,8.64,16.88,20.12,16.88c26.2,0,40.66-24.85,40.66-44.84
		C853.8,179.17,848.39,167.28,834.08,167.28z M815.03,226.85c-7.02,0-10.54-3.51-10.54-9.72c-0.13-3.38,0.27-6.08,0.81-8.24
		l1.49-6.89c3.24-15.4,13.24-25.39,22.96-25.39c8.91,0,12.43,7.56,12.43,15.67C842.18,206.72,831.92,226.85,815.03,226.85z"/>
	<path class="st0" d="M908.23,168.77l-16.61,36.47c-3.38,7.16-5.27,11.75-7.02,15.94h-0.27c-0.68-4.86-1.49-9.73-2.97-17.29
		l-6.48-35.12h-11.62l13.1,61.46c0.13,1.08,0.13,1.89-0.41,2.97c-3.51,6.35-8.24,11.62-12.56,14.99c-4.46,3.51-9.18,5.27-12.02,6.35
		l2.7,9.59c3.78-0.81,11.75-3.92,19.04-11.35c8.91-8.64,15.53-20.12,22.56-34.31l24.45-49.7H908.23z"/>
</g>
</svg>
