<svg width="202" height="114" viewBox="0 0 202 114" fill="none" xmlns="http://www.w3.org/2000/svg">
<path d="M184.798 17.3745L26.8701 36.3956V41.2828L169.417 25.6078L158.17 90.9572H162.62L184.798 17.3745Z" fill="white"/>
<path d="M26.8704 41.2828L23.4933 41.6628L17.1387 96.4356L157.213 96.5306L158.17 90.9572H26.8599L26.8704 41.2828Z" fill="white"/>
<path d="M39.579 58.1295V60.135L40.9257 60.4834V61.8028H35.9072V60.4834L36.9277 60.1456V52.6828L35.9072 52.3661V51.0467L39.6421 50.9728H40.8625C43.4717 50.9728 44.5974 52.5034 44.5974 54.4034C44.5974 56.4722 43.2508 58.1295 40.1576 58.1295H39.579ZM39.579 52.8623V56.2295H40.1576C41.3044 56.2295 41.8936 55.5223 41.8936 54.4561C41.8936 53.4639 41.4096 52.8623 40.4312 52.8623H39.579Z" fill="white"/>
<path d="M56.0019 52.6934V60.135L57.0119 60.4834V61.8028H52.3302V60.4834L53.3402 60.135V57.2217H49.6579V60.1139L50.6784 60.4834V61.8028H45.9756V60.4834L46.9961 60.135V52.7039L45.9756 52.3661V51.0467L50.6784 50.9728V52.2923L49.6579 52.6934V55.3322H53.3402V52.7145L52.3302 52.3767V51.0573L57.0119 50.9834V52.3028L56.0019 52.6934Z" fill="white"/>
<path d="M69.0474 60.4834V61.8028H64.4708V60.4834L65.3441 60.1667L64.9969 58.9845H61.767L61.3882 60.1456L62.3351 60.4834V61.8028H58.2109V60.4834L58.9579 60.1878L62.3772 51.0045L65.1126 50.9306L68.3425 60.2089L69.0474 60.4834ZM62.3141 57.1478H64.4919L63.5134 53.4428L62.3141 57.1478Z" fill="white"/>
<path d="M79.8531 60.4834V61.8028H77.0441L75.6658 58.8895C75.1503 57.76 75.0661 57.5595 74.1508 57.57H73.9089V60.1139L74.9925 60.4834V61.8028H70.2266V60.4834L71.2471 60.135V52.7039L70.2266 52.3661V51.0467L74.0141 50.9728H75.3607C77.8647 50.9728 79.1588 52.06 79.1588 54.0234C79.1588 55.5117 78.4223 56.6095 76.781 57.0845C77.3597 57.2639 77.6858 57.6545 77.9594 58.1822L79.0115 60.1772L79.8531 60.4834ZM76.4654 54.2134C76.4654 53.39 76.0025 52.8623 75.0346 52.8623H73.9194V55.7545H74.6664C75.8868 55.7545 76.4654 55.2372 76.4654 54.2134Z" fill="white"/>
<path d="M91.8043 52.2923L90.7943 52.6934V57.5172C90.7943 60.4306 89.3424 62.0139 86.2809 62.0139C81.9463 62.0139 81.9463 58.9317 81.9463 57.7284V52.7039L80.9258 52.3661V51.0467L85.6286 50.9728V52.2923L84.6081 52.7039V57.7284C84.6081 59.09 84.808 59.9767 86.3335 59.9767C87.9011 59.9767 88.1325 59.0267 88.1325 57.5067V52.6828L87.1225 52.3661V51.0467L91.8043 50.9728V52.2923Z" fill="white"/>
<path d="M101.61 58.5834C101.61 60.9584 99.5685 62.0139 97.1172 62.0139C95.9914 62.0139 94.8026 61.8028 93.6558 61.37L93.7505 58.2772H95.276L95.5706 59.7445C96.0861 59.9556 96.6858 60.0611 97.2539 60.0611C98.2113 60.0611 99.0214 59.7128 99.0214 58.9317C99.0214 56.9367 93.6348 58.0028 93.6348 54.0761C93.6348 51.8278 95.3917 50.7511 97.7063 50.7511C98.8005 50.7511 100.021 50.9939 101.231 51.4372L101.052 54.2872H99.4844L99.1687 52.8834C98.7584 52.7567 98.3165 52.7039 97.8747 52.7039C96.9699 52.7039 96.2124 53.01 96.2124 53.7278C96.1913 55.5539 101.61 54.7306 101.61 58.5834Z" fill="white"/>
<path d="M39.579 76.5067V78.5123L40.9257 78.8606V80.18H35.9072V78.8606L36.9277 78.5228V71.06L35.9072 70.7434V69.4239L39.6421 69.35H40.8625C43.4717 69.35 44.5974 70.8806 44.5974 72.7806C44.5974 74.8495 43.2508 76.4961 40.1576 76.4961H39.579V76.5067ZM39.579 71.2395V74.6067H40.1576C41.3044 74.6067 41.8936 73.8995 41.8936 72.8334C41.8936 71.8411 41.4096 71.2395 40.4312 71.2395H39.579Z" fill="white"/>
<path d="M55.8335 78.8711V80.1906H51.257V78.8711L52.1302 78.5545L51.783 77.3722H48.5531L48.1744 78.5334L49.1212 78.8711V80.1906H44.9971V78.8711L45.744 78.5756L49.1633 69.3922L51.8987 69.3184L55.1286 78.5967L55.8335 78.8711ZM49.1107 75.525H51.2885L50.3101 71.82L49.1107 75.525Z" fill="white"/>
<path d="M66.649 78.8711V80.1906H63.84L62.4617 77.2772C61.9462 76.1478 61.862 75.9472 60.9467 75.9578H60.7048V78.5017L61.7884 78.8711V80.1906H57.0225V78.8711L58.043 78.5228V71.0917L57.0225 70.7539V69.4345L60.81 69.3606H62.1566C64.6606 69.3606 65.9546 70.4478 65.9546 72.4111C65.9546 73.8995 65.2182 74.9972 63.5769 75.4722C64.1556 75.6517 64.4817 76.0422 64.7553 76.57L65.8074 78.565L66.649 78.8711ZM63.2613 72.5906C63.2613 71.7672 62.7984 71.2395 61.8305 71.2395H60.7048V74.1317H61.4517C62.6827 74.1317 63.2613 73.6145 63.2613 72.5906Z" fill="white"/>
<path d="M76.6855 69.3606V72.6856H75.1284L74.7918 71.2606H73.5082V78.5228L74.6866 78.8711V80.1906H69.6681V78.8711L70.857 78.5333V71.2606H69.5629L69.2473 72.6856H67.6797V69.3606H76.6855Z" fill="white"/>
<path d="M88.9846 70.6694L87.964 71.0706V80.18H84.913L81.2938 72.8861V78.5017L82.3143 78.85V80.1695H78.085V78.85L79.1055 78.5017V71.0706L78.085 70.7328V69.4133L82.2617 69.3394L85.7757 76.4117V71.0706L84.7552 70.7328V69.4133L88.9846 69.3394V70.6694Z" fill="white"/>
<path d="M98.7378 77.14L98.7062 80.1906H90.6367V78.8711L91.6572 78.5228V71.0917L90.6367 70.7539V69.4345L94.2559 69.3606H98.5589V72.2845H96.9913L96.7493 71.2606H94.319V73.7728H97.3174V75.6095H94.3085V78.2906H96.9177L97.1596 77.14H98.7378Z" fill="white"/>
<path d="M110.353 78.8711V80.1906H107.544L106.166 77.2772C105.65 76.1478 105.566 75.9472 104.651 75.9578H104.409V78.5017L105.492 78.8711V80.1906H100.727V78.8711L101.747 78.5228V71.0917L100.727 70.7539V69.4345L104.514 69.3606H105.861C108.365 69.3606 109.659 70.4478 109.659 72.4111C109.659 73.8995 108.922 74.9972 107.281 75.4722C107.86 75.6517 108.186 76.0422 108.459 76.57L109.511 78.565L110.353 78.8711ZM106.965 72.5906C106.965 71.7672 106.502 71.2395 105.535 71.2395H104.419V74.1317H105.166C106.387 74.1317 106.965 73.6145 106.965 72.5906Z" fill="white"/>
<path d="M120.137 76.9711C120.137 79.3461 118.096 80.4017 115.645 80.4017C114.519 80.4017 113.33 80.1906 112.183 79.7578L112.278 76.665H113.803L114.098 78.1322C114.613 78.3433 115.213 78.4489 115.781 78.4489C116.739 78.4489 117.549 78.1006 117.549 77.3195C117.549 75.3244 112.162 76.3906 112.162 72.4639C112.162 70.2156 113.919 69.1389 116.234 69.1389C117.328 69.1389 118.548 69.3817 119.758 69.825L119.579 72.675H118.012L117.696 71.2711C117.286 71.1444 116.844 71.0917 116.402 71.0917C115.497 71.0917 114.74 71.3978 114.74 72.1156C114.719 73.9311 120.137 73.1078 120.137 76.9711Z" fill="white"/>
<path d="M131.878 71.0706V78.5123L132.888 78.8606V80.18H128.206V78.8606L129.216 78.5123V75.5989H125.534V78.4911L126.554 78.8606V80.18H121.852V78.8606L122.872 78.5123V71.0811L121.852 70.7434V69.4239L126.554 69.35V70.6695L125.534 71.0706V73.7095H129.216V71.0917L128.206 70.7539V69.4345L132.888 69.3606V70.68L131.878 71.0706Z" fill="white"/>
<path d="M138.401 71.0917V78.5228L139.422 78.8711V80.1906H134.719V78.8711L135.739 78.5228V71.1128L134.719 70.7645V69.445L139.422 69.3711V70.6906L138.401 71.0917Z" fill="white"/>
<path d="M144.934 76.5067V78.5123L146.281 78.8606V80.18H141.263V78.8606L142.283 78.5228V71.06L141.263 70.7434V69.4239L144.998 69.35H146.218C148.827 69.35 149.953 70.8806 149.953 72.7806C149.953 74.8495 148.606 76.4961 145.513 76.4961H144.934V76.5067ZM144.934 71.2395V74.6067H145.513C146.66 74.6067 147.249 73.8995 147.249 72.8334C147.249 71.8411 146.765 71.2395 145.787 71.2395H144.934Z" fill="white"/>
</svg>
