<svg width="28" height="29" viewBox="0 0 28 29" fill="none" xmlns="http://www.w3.org/2000/svg">
<path fill-rule="evenodd" clip-rule="evenodd" d="M7.37822 1.396C11.2114 1.396 14.3189 4.50345 14.3189 8.33666C14.3189 12.1699 11.2114 15.2773 7.37822 15.2773C3.54501 15.2773 0.437553 12.1699 0.437553 8.33666C0.437553 4.50345 3.54501 1.396 7.37822 1.396ZM20.8016 20.8567C23.9444 20.8567 26.6032 22.9288 27.4865 25.7812C27.6417 26.2824 27.5574 26.781 27.2461 27.2032C26.9348 27.6255 26.4835 27.8535 25.9588 27.8535H15.6445C15.1199 27.8535 14.6686 27.6255 14.3572 27.2032C14.0459 26.781 13.9616 26.2823 14.1168 25.7812C15.0001 22.9288 17.659 20.8567 20.8016 20.8567ZM20.8017 12.8366C22.7555 12.8366 24.3393 14.4205 24.3393 16.3742C24.3393 18.328 22.7555 19.9119 20.8017 19.9119C18.8479 19.9119 17.2641 18.328 17.2641 16.3742C17.2641 14.4205 18.848 12.8366 20.8017 12.8366ZM20.1987 8.60665V9.67481C20.1987 9.72971 20.1697 9.77675 20.1208 9.80157C20.0718 9.8264 20.0168 9.82186 19.9725 9.78938L16.7919 7.45586C16.7555 7.42918 16.7354 7.39095 16.7339 7.34583C16.7325 7.30071 16.7501 7.26129 16.7847 7.2323L19.9654 4.57022C20.0087 4.53396 20.0656 4.52653 20.1167 4.55043C20.1679 4.57432 20.1987 4.62267 20.1987 4.67916V5.67146C25.1576 5.67146 26.7841 9.31715 25.3433 11.9098C24.5463 8.80654 21.9441 8.60665 20.1987 8.60665ZM8.88322 22.435V21.3862C8.88322 21.3273 8.91422 21.2769 8.96672 21.2503C9.01928 21.2237 9.07829 21.2285 9.12576 21.2634L12.2819 23.5788C12.3209 23.6074 12.3425 23.6485 12.3441 23.6968C12.3456 23.7452 12.3267 23.7875 12.2895 23.8186L9.13341 26.4601C9.08698 26.499 9.02601 26.507 8.9711 26.4813C8.91619 26.4557 8.88322 26.4038 8.88322 26.3432V25.3721C3.92087 25.3721 2.29332 21.7239 3.73499 19.1295C4.53255 22.235 7.13655 22.435 8.88322 22.435ZM7.37827 2.59923C5.79398 2.59923 4.35963 3.24143 3.32133 4.27972C2.28304 5.31802 1.64084 6.75236 1.64084 8.33666C1.64084 9.92096 2.28304 11.3553 3.32133 12.3936C4.35963 13.4319 5.79398 14.0741 7.37827 14.0741C8.96257 14.0741 10.3969 13.4319 11.4352 12.3936C12.4735 11.3553 13.1157 9.92096 13.1157 8.33666C13.1157 6.75236 12.4735 5.31802 11.4352 4.27972C10.3969 3.24143 8.96251 2.59923 7.37827 2.59923ZM10.8165 4.89835C9.93666 4.01843 8.72101 3.47423 7.37827 3.47423C6.03553 3.47423 4.81988 4.01848 3.93996 4.89835C3.06009 5.77827 2.51584 6.99386 2.51584 8.33666C2.51584 9.6794 3.06009 10.8951 3.93996 11.775C4.81988 12.6548 6.03548 13.1991 7.37827 13.1991C8.72101 13.1991 9.93666 12.6548 10.8165 11.775C11.6965 10.8951 12.2406 9.67946 12.2406 8.33666C12.2406 6.99386 11.6964 5.77827 10.8165 4.89835ZM9.34839 6.55489C9.06915 5.88983 8.53748 5.50554 7.95309 5.35745C7.90994 5.34651 7.86647 5.33694 7.82277 5.32863V4.98289C7.82277 4.73757 7.62387 4.53872 7.37855 4.53872C7.13322 4.53872 6.93437 4.73762 6.93437 4.98289V5.33525L6.9341 5.3353C6.59679 5.40322 6.28004 5.54552 6.02492 5.753C5.63308 6.07156 5.38464 6.53411 5.41264 7.11084C5.44075 7.69031 5.72988 8.07897 6.13249 8.3418C6.48353 8.57094 6.91469 8.6895 7.31226 8.7548C7.6318 8.80725 7.97294 8.89021 8.23211 9.04667C8.43959 9.1719 8.59545 9.355 8.6287 9.62931C8.63313 9.66584 8.63554 9.69236 8.63592 9.70937C8.64112 9.92757 8.53672 10.0939 8.37998 10.2128C8.18387 10.3616 7.90858 10.4493 7.63322 10.4828C7.5583 10.4918 7.4929 10.497 7.43739 10.4983C7.1114 10.5061 6.78973 10.4263 6.53844 10.2589C6.3321 10.1215 6.17444 9.92052 6.10859 9.65643C6.05013 9.41876 5.81011 9.27351 5.57244 9.33197C5.33476 9.39043 5.18951 9.63046 5.24798 9.86813C5.37217 10.3662 5.66579 10.7428 6.04915 10.9981C6.31121 11.1727 6.6156 11.288 6.93437 11.3441V11.6904C6.93437 11.9358 7.13327 12.1346 7.37855 12.1346C7.62387 12.1346 7.82277 11.9357 7.82277 11.6904V11.3526C8.21001 11.2937 8.60464 11.1524 8.91444 10.9174C9.28637 10.6352 9.53383 10.231 9.52093 9.68864C9.51945 9.62663 9.5159 9.57194 9.51026 9.52529C9.43813 8.931 9.11657 8.54415 8.69028 8.28673C8.31573 8.0606 7.86647 7.94794 7.45462 7.88035C7.15739 7.83151 6.8443 7.74893 6.61494 7.5992C6.4371 7.4831 6.30957 7.31504 6.29765 7.06922C6.28474 6.80333 6.40079 6.58885 6.58372 6.44015C6.72694 6.32372 6.90965 6.24279 7.10768 6.20292C7.31101 6.16196 7.52937 6.16518 7.73801 6.21807C8.06919 6.30201 8.37074 6.52032 8.5295 6.89843C8.62438 7.12457 8.88464 7.23104 9.11077 7.13616C9.33679 7.04128 9.44327 6.78102 9.34839 6.55489Z" fill="#282828"/>
</svg>
