<svg width="370" height="33" viewBox="0 0 370 33" fill="none" xmlns="http://www.w3.org/2000/svg">
<path d="M31.9257 8.625C28.451 8.625 25.3313 10.4509 25.3313 13.8015C25.3313 17.6603 30.8422 17.9238 30.8422 19.8438C30.8422 20.6532 29.9081 21.3874 28.3389 21.3874C26.0972 21.3874 24.4159 20.3709 24.4159 20.3709L23.7061 23.7591C23.7061 23.7591 25.6302 24.625 28.2082 24.625C32.0191 24.625 35.008 22.7238 35.008 19.2979C35.008 15.2321 29.4785 14.9685 29.4785 13.1803C29.4785 12.5403 30.2444 11.8438 31.8136 11.8438C33.5883 11.8438 35.0454 12.5779 35.0454 12.5779L35.7552 9.30265C35.7366 9.30265 34.1487 8.625 31.9257 8.625ZM0.0934045 8.86971L0 9.35912C0 9.35912 1.45711 9.62265 2.78345 10.1685C4.48342 10.7897 4.5955 11.1474 4.8944 12.2579L8.01411 24.3615H12.1986L18.6062 8.86971H14.4403L10.3119 19.4109L8.63058 10.4697C8.48113 9.45324 7.69653 8.86971 6.72512 8.86971H0.0934045ZM20.2875 8.86971L17.0183 24.3615H20.9973L24.2478 8.86971H20.2875ZM42.443 8.86971C41.4903 8.86971 40.9859 9.37794 40.6123 10.2815L34.7838 24.3615H38.9497L39.753 22.0085H44.8342L45.3199 24.3615H49L45.8056 8.86971H42.443ZM42.9848 13.0674L44.2177 18.8838H40.9112L42.9848 13.0674Z" fill="#1434CB"/>
<path d="M90 7.625H80V24.625H90V7.625Z" fill="#FF5F00"/>
<path d="M81.5032 16.6225C81.5032 13.2629 83.1651 10.056 85.9674 7.97923C80.8841 4.22264 73.5198 5.04726 69.5118 9.84226C65.5038 14.6067 66.3836 21.5091 71.4995 25.2657C75.7682 28.4114 81.7313 28.4114 86 25.2657C83.1651 23.1889 81.5032 19.982 81.5032 16.6225Z" fill="#EB001B"/>
<path d="M104 16.6263C104 22.7061 99.0206 27.625 92.866 27.625C90.3608 27.625 87.9485 26.8001 86 25.2725C90.8247 21.5146 91.6598 14.6098 87.8557 9.81317C87.299 9.14103 86.6804 8.49943 86 7.98005C90.8247 4.22215 97.8454 5.04705 101.619 9.84372C103.165 11.7685 104 14.1516 104 16.6263Z" fill="#F79E1B"/>
<path d="M103.233 23.0526V22.6861H103.4V22.625H103V22.6861H103.167V23.0526H103.233ZM104 23.0526V22.625H103.867L103.733 22.9304L103.6 22.625H103.467V23.0526H103.567V22.7166L103.7 22.9915H103.8L103.933 22.7166V23.0526H104Z" fill="#F79E1B"/>
<path d="M122 0.625H154V17.8996L152.416 20.3744L154 22.5771V32.625H122V16.3404L122.99 15.202L122 14.113V0.625Z" fill="#016FD0"/>
<path d="M128 22.625V17.625H133.363L133.939 18.3655L134.533 17.625H154V22.2802C154 22.2802 153.491 22.62 152.902 22.625H142.123L141.474 21.8368V22.625H139.348V21.2796C139.348 21.2796 139.058 21.4674 138.43 21.4674H137.706V22.625H134.488L133.913 21.8687L133.33 22.625H128Z" fill="white"/>
<path d="M122 14.4082L123.205 11.625H125.288L125.972 13.1841V11.625H128.562L128.969 12.7518L129.363 11.625H140.989V12.1915C140.989 12.1915 141.6 11.625 142.605 11.625L146.377 11.6381L147.049 13.1767V11.625H149.216L149.813 12.5088V11.625H152V16.625H149.813L149.241 15.7383V16.625H146.057L145.737 15.8368H144.88L144.565 16.625H142.406C141.542 16.625 140.989 16.0701 140.989 16.0701V16.625H137.733L137.087 15.8368V16.625H124.979L124.659 15.8368H123.806L123.488 16.625H122V14.4082Z" fill="white"/>
<path d="M123.451 11.625L122 15.625H122.945L123.212 14.824H124.768L125.035 15.625H126L124.551 11.625H123.451ZM123.988 12.5559L124.462 13.9556H123.512L123.988 12.5559Z" fill="#016FD0"/>
<path d="M127 15.625V11.625L128.592 11.6309L129.517 14.2099L130.421 11.625H132V15.625H131V12.6776L129.94 15.625H129.063L128 12.6776V15.625H127Z" fill="#016FD0"/>
<path d="M132 15.625V11.625H135V12.5197H132.929V13.2039H134.952V14.0461H132.929V14.7566H135V15.625H132Z" fill="#016FD0"/>
<path d="M136 11.625V15.625H137.041V14.2039H137.479L138.728 15.625H140L138.63 14.1513C139.192 14.1057 139.772 13.6423 139.772 12.9227C139.772 12.081 139.084 11.625 138.317 11.625H136ZM137.041 12.5197H138.231C138.517 12.5197 138.724 12.7342 138.724 12.9408C138.724 13.2065 138.455 13.3618 138.247 13.3618H137.041V12.5197Z" fill="#016FD0"/>
<path d="M140 15.625H139V11.625H140V15.625Z" fill="#016FD0"/>
<path d="M142.877 15.625H142.663C141.628 15.625 141 14.7849 141 13.6414C141 12.4698 141.621 11.625 142.928 11.625H144V12.5724H142.888C142.358 12.5724 141.983 12.999 141.983 13.6513C141.983 14.426 142.412 14.7513 143.03 14.7513H143.285L142.877 15.625Z" fill="#016FD0"/>
<path d="M144.451 11.625L143 15.625H143.945L144.212 14.824H145.768L146.035 15.625H147L145.551 11.625H144.451ZM144.988 12.5559L145.462 13.9556H144.512L144.988 12.5559Z" fill="#016FD0"/>
<path d="M148 15.625V11.625H149.306L150.973 14.1382V11.625H152V15.625H150.736L149.027 13.0461V15.625H148Z" fill="#016FD0"/>
<path d="M129 22.625V18.625H132V19.5197H129.929V20.204H131.952V21.0461H129.929V21.7566H132V22.625H129Z" fill="#016FD0"/>
<path d="M144 22.625V18.625H147V19.5197H144.929V20.204H146.942V21.0461H144.929V21.7566H147V22.625H144Z" fill="#016FD0"/>
<path d="M132.034 22.625L133.475 20.6497L132 18.625H133.142L134.021 19.8766L134.902 18.625H136L134.544 20.625L135.988 22.625H134.845L133.993 21.3931L133.16 22.625H132.034Z" fill="#016FD0"/>
<path d="M136 18.625V22.625H136.845V21.3618H137.711C138.444 21.3618 139 20.8893 139 19.9704C139 19.2092 138.564 18.625 137.818 18.625H136ZM136.845 19.5296H137.757C137.994 19.5296 138.163 19.706 138.163 19.9901C138.163 20.2571 137.995 20.4507 137.755 20.4507H136.845V19.5296Z" fill="#016FD0"/>
<path d="M140 18.625V22.625H141.041V21.2039H141.479L142.728 22.625H144L142.63 21.1513C143.192 21.1057 143.772 20.6423 143.772 19.9227C143.772 19.081 143.084 18.625 142.317 18.625H140ZM141.041 19.5197H142.231C142.517 19.5197 142.724 19.7342 142.724 19.9408C142.724 20.2065 142.455 20.3618 142.247 20.3618H141.041V19.5197Z" fill="#016FD0"/>
<path d="M147.107 22.625V21.7566H148.792C149.042 21.7566 149.15 21.5966 149.15 21.4211C149.15 21.2529 149.042 21.0829 148.792 21.0829H148.031C147.369 21.0829 147 20.6039 147 19.8849C147 19.2435 147.338 18.625 148.321 18.625H149.961L149.607 19.525H148.188C147.917 19.525 147.834 19.6939 147.834 19.8553C147.834 20.0211 147.937 20.204 148.144 20.204H148.942C149.68 20.204 150 20.701 150 21.352C150 22.0518 149.643 22.625 148.902 22.625H147.107Z" fill="#016FD0"/>
<path d="M151.107 22.625V21.7566H152.792C153.042 21.7566 153.15 21.5966 153.15 21.4211C153.15 21.2529 153.042 21.0829 152.792 21.0829H152.031C151.369 21.0829 151 20.6039 151 19.8849C151 19.2435 151.338 18.625 152.321 18.625H153.961L153.607 19.525H152.188C151.917 19.525 151.834 19.6939 151.834 19.8553C151.834 20.0211 151.937 20.204 152.144 20.204H152.942C153.68 20.204 154 20.701 154 21.352C154 22.0518 153.643 22.625 152.902 22.625H151.107Z" fill="#016FD0"/>
<path d="M200.766 12.2897C200.422 9.60593 199.459 7.163 197.773 5.37382C195.985 3.68785 193.542 2.72444 190.859 2.38037C188.279 2.03629 186.524 2.13952 186.524 2.13952C186.524 2.13952 184.77 2.0707 182.189 2.38037C179.506 2.72444 177.064 3.68785 175.275 5.37382C173.589 7.163 172.626 9.60593 172.282 12.2897C171.938 14.8703 172.007 16.6251 172.007 16.6251C172.007 16.6251 171.938 18.3798 172.247 20.9604C172.591 23.6438 173.555 26.0871 175.24 27.8763C177.029 29.5623 179.472 30.5253 182.155 30.8694C184.735 31.2135 186.49 31.1106 186.49 31.1106C186.49 31.1106 188.244 31.1791 190.824 30.8694C193.508 30.5253 195.95 29.5623 197.739 27.8763C199.425 26.0874 200.388 23.6438 200.732 20.9604C201.076 18.3798 200.973 16.6251 200.973 16.6251C200.973 16.6251 201.11 14.8703 200.766 12.2897Z" fill="#1E4BC6"/>
<path d="M177 12.125H179.65C180.068 12.125 180.417 12.1912 180.765 12.3237C181.114 12.4561 181.393 12.6548 181.637 12.8866C181.881 13.1184 182.09 13.3833 182.229 13.7144C182.369 14.0455 182.439 14.3767 182.439 14.7409C182.439 15.1051 182.369 15.4363 182.229 15.7674C182.09 16.0985 181.881 16.3637 181.637 16.5952C181.393 16.8267 181.079 17.026 180.765 17.1578C180.451 17.2902 180.068 17.3571 179.65 17.3571H178.464V19.4429H177.035V12.125H177ZM178.429 13.3836V16.0657H179.545C179.754 16.0657 179.963 16.0326 180.138 15.9664C180.312 15.9002 180.451 15.8008 180.591 15.6684C180.73 15.5359 180.8 15.4035 180.87 15.2379C180.939 15.0724 180.974 14.9068 180.974 14.7081C180.974 14.5094 180.939 14.3439 180.87 14.1783C180.8 14.0127 180.695 13.8803 180.591 13.7478C180.451 13.6154 180.312 13.5161 180.138 13.4498C179.963 13.3836 179.754 13.3505 179.545 13.3505H178.429V13.3836ZM185.75 19.4429C185.367 19.4429 185.018 19.377 184.635 19.2442C184.286 19.1118 183.938 18.9131 183.659 18.6816C183.38 18.4164 183.136 18.1184 182.961 17.7541C182.787 17.3899 182.683 16.9594 182.683 16.4959C182.683 16.0323 182.752 15.6018 182.927 15.2376C183.101 14.8733 183.345 14.5753 183.624 14.3104C183.903 14.0455 184.251 13.88 184.6 13.7475C184.983 13.6151 185.332 13.5488 185.75 13.5488C186.169 13.5488 186.552 13.6151 186.866 13.7475C187.215 13.88 187.494 14.0786 187.738 14.3104V13.5488H189.167V19.4425H187.738V18.6147C187.528 18.88 187.215 19.0783 186.866 19.2439C186.517 19.377 186.169 19.4429 185.75 19.4429ZM185.994 18.218C186.273 18.218 186.517 18.1849 186.727 18.0856C186.936 17.9863 187.145 17.8869 187.319 17.7214C187.494 17.5558 187.598 17.3902 187.703 17.1916C187.807 16.9922 187.842 16.7608 187.842 16.5293C187.842 16.2972 187.807 16.0654 187.703 15.8671C187.598 15.6684 187.494 15.4697 187.319 15.3373C187.145 15.1717 186.971 15.0724 186.727 14.973C186.483 14.8406 186.239 14.8075 185.994 14.8075C185.75 14.8075 185.506 14.8406 185.262 14.9399C185.018 15.0392 184.844 15.1386 184.67 15.3041C184.495 15.4697 184.356 15.6353 184.286 15.8339C184.182 16.0326 184.147 16.2644 184.147 16.4962C184.147 16.728 184.182 16.9594 184.286 17.1581C184.391 17.3575 184.53 17.5558 184.67 17.7214C184.844 17.8869 185.053 17.9859 185.262 18.0856C185.472 18.1515 185.716 18.218 185.994 18.218ZM191.154 13.582L192.897 17.5886L194.501 13.582H196L192.339 22.125H190.875L192.165 19.1783L189.655 13.582H191.154Z" fill="white"/>
<path d="M230.694 6.97705C229.944 7.85526 228.744 8.54793 227.544 8.44898C227.394 7.26154 227.981 5.99988 228.669 5.22062C229.419 4.31767 230.732 3.67448 231.794 3.625C231.919 4.86192 231.432 6.0741 230.694 6.97705ZM231.782 8.68399C230.044 8.58504 228.556 9.66116 227.731 9.66116C226.894 9.66116 225.631 8.73347 224.256 8.75821C222.468 8.78294 220.805 9.78485 219.893 11.3805C218.018 14.5717 219.405 19.2967 221.218 21.8943C222.106 23.1807 223.168 24.5907 224.568 24.5413C225.893 24.4918 226.419 23.6878 228.019 23.6878C229.631 23.6878 230.094 24.5413 231.494 24.5165C232.944 24.4918 233.857 23.2301 234.744 21.9437C235.757 20.4842 236.17 19.0617 236.195 18.9875C236.17 18.9628 233.394 17.9114 233.369 14.7449C233.344 12.0979 235.557 10.8362 235.657 10.762C234.407 8.93137 232.457 8.73347 231.782 8.68399ZM241.82 5.09693V24.3805H244.846V17.7877H249.034C252.859 17.7877 255.547 15.1902 255.547 11.4299C255.547 7.66972 252.909 5.09693 249.134 5.09693H241.82ZM244.846 7.62024H248.334C250.959 7.62024 252.459 9.00559 252.459 11.4423C252.459 13.879 250.959 15.2768 248.321 15.2768H244.846V7.62024ZM261.072 24.5289C262.973 24.5289 264.735 23.5765 265.535 22.0674H265.598V24.3805H268.398V14.782C268.398 11.9989 266.148 10.2054 262.685 10.2054C259.472 10.2054 257.097 12.0237 257.01 14.5222H259.735C259.96 13.3348 261.072 12.5555 262.598 12.5555C264.448 12.5555 265.485 13.409 265.485 14.9799V16.0436L261.71 16.2663C258.197 16.4766 256.297 17.899 256.297 20.3729C256.297 22.8714 258.26 24.5289 261.072 24.5289ZM261.885 22.2406C260.272 22.2406 259.247 21.4737 259.247 20.2986C259.247 19.0865 260.235 18.3814 262.123 18.2701L265.485 18.0598V19.1483C265.485 20.9542 263.935 22.2406 261.885 22.2406ZM272.136 29.625C275.087 29.625 276.474 28.5118 277.687 25.135L283 10.3909H279.925L276.362 21.7829H276.299L272.736 10.3909H269.573L274.699 24.4299L274.424 25.2834C273.961 26.7306 273.211 27.2872 271.874 27.2872C271.636 27.2872 271.174 27.2625 270.986 27.2377V29.5508C271.161 29.6003 271.911 29.625 272.136 29.625Z" fill="#0B0B0B"/>
<path d="M333.599 17.038V25.125H331V5.125H337.76C339.406 5.125 340.965 5.73254 342.18 6.86336C343.393 7.90584 344 9.47159 344 11.1243C344 12.7771 343.395 14.2545 342.18 15.3853C340.966 16.5161 339.494 17.1236 337.76 17.1236L333.599 17.038ZM333.599 7.55925V14.5168H337.933C338.887 14.5168 339.84 14.1675 340.447 13.4743C341.834 12.1709 341.834 9.99622 340.533 8.69143L340.447 8.60308C339.754 7.90719 338.887 7.47226 337.933 7.56061H333.599V7.55925Z" fill="#0B0B0B"/>
<path d="M349.914 10.125C351.801 10.125 353.257 10.6268 354.372 11.6343C355.487 12.6391 356 13.9807 356 15.6577V23.7058H353.6V21.8611H353.516C352.488 23.3704 351.029 24.125 349.315 24.125C347.859 24.125 346.571 23.7058 345.544 22.8686C344.6 22.0301 344 20.8562 344 19.5998C344 18.2583 344.515 17.1709 345.544 16.3311C346.571 15.4926 348.028 15.1572 349.744 15.1572C351.288 15.1572 352.488 15.4087 353.43 15.9957V15.41C353.43 14.5716 353.088 13.7344 352.402 13.23C351.716 12.6444 350.859 12.3077 349.916 12.3077C348.459 12.3077 347.344 12.8933 346.573 14.0685L344.343 12.7269C345.714 10.9622 347.515 10.125 349.914 10.125ZM346.657 19.6797C346.657 20.3505 346.999 20.9362 347.515 21.2715C348.113 21.6908 348.799 21.9423 349.485 21.9423C350.513 21.9423 351.544 21.5231 352.314 20.7698C353.172 20.0138 353.599 19.0941 353.599 18.0866C352.828 17.501 351.712 17.1643 350.256 17.1643C349.228 17.1643 348.369 17.4158 347.685 17.9176C346.999 18.3382 346.657 18.9251 346.657 19.6797Z" fill="#0B0B0B"/>
<path d="M370 11.125L361.174 30.125H358.496L361.797 23.5126L356 11.2074H358.854L363.044 20.6656H363.133L367.235 11.2074H370V11.125Z" fill="#0B0B0B"/>
<path d="M323 14.5211C323 13.721 322.912 12.9237 322.827 12.125H312V16.6495H318.149C317.889 18.0694 317.111 19.3992 315.896 20.1979V23.125H319.621C321.786 21.0853 323 18.068 323 14.5211Z" fill="#4285F4"/>
<path d="M312.31 25.125C315.455 25.125 318.076 24.1167 320 22.4326L316.243 19.6574C315.195 20.3305 313.883 20.7512 312.312 20.7512C309.341 20.7512 306.72 18.8174 305.847 16.125H302V18.9856C304.009 22.7705 307.942 25.125 312.31 25.125Z" fill="#34A853"/>
<path d="M306 16.2684C305.485 14.9235 305.485 13.4105 306 11.9829V9.125H302.224C300.592 12.2351 300.592 15.9322 302.224 19.125L306 16.2684Z" fill="#FBBC04"/>
<path d="M312.222 7.503C313.883 7.503 315.456 8.09045 316.679 9.18385L320 5.98906C317.902 4.14 315.107 3.0466 312.31 3.12939C307.939 3.12939 303.923 5.4831 302 9.26796L305.844 12.125C306.631 9.43749 309.252 7.503 312.222 7.503Z" fill="#EA4335"/>
</svg>
