<svg width="96" height="96" viewBox="0 0 96 96" fill="none" xmlns="http://www.w3.org/2000/svg">
<rect width="96" height="96" rx="48" fill="#3579A2"/>
<path fill-rule="evenodd" clip-rule="evenodd" d="M59.0553 19.1597C58.4792 19.4767 58.3399 19.6731 57.6117 21.1945C56.5618 23.3884 56.0188 25.2683 55.7572 27.6154C55.5551 29.4284 55.7279 32.1506 56.154 33.8672L56.2263 34.1588L55.2439 33.9351C54.4278 33.7494 53.827 33.7105 51.6973 33.7057C48.8401 33.6992 48.0581 33.8163 45.7852 34.5908C40.4275 36.4165 36.0928 40.8308 34.3 46.287C33.5395 48.6016 33.4245 49.398 33.4309 52.3077C33.4356 54.4764 33.4738 55.0883 33.6562 55.9193L33.8758 56.9199L33.5895 56.8462C31.9038 56.4123 29.2308 56.2363 27.4504 56.4421C25.1388 56.7093 23.3 57.2612 21.1257 58.3406C19.4373 59.1788 19.0877 59.5189 19.0069 60.4013C18.9532 60.9895 19.2116 61.5075 19.768 61.927C20.3784 62.3873 20.798 62.3198 22.3684 61.5089C23.1601 61.1001 23.8627 60.7655 23.9296 60.7655C23.9965 60.7655 26.5291 63.2894 29.5576 66.374L35.0641 71.9824L34.8703 72.4761C34.7638 72.7476 34.4303 73.4479 34.1292 74.0325C33.8282 74.6169 33.5818 75.2189 33.5818 75.3701C33.5818 75.8107 33.8579 76.3621 34.2441 76.6931C34.5474 76.953 34.7061 77 35.2799 77C36.2879 77 36.5344 76.7603 37.4123 74.9263C38.472 72.7125 39.0138 70.8405 39.2767 68.4854C39.4768 66.6931 39.3014 63.9328 38.8797 62.2335L38.8074 61.942L39.7898 62.1657C40.6059 62.3514 41.2067 62.3903 43.3363 62.3951C45.5878 62.4002 46.0348 62.3703 47.0035 62.1501C50.6707 61.3159 53.783 59.6012 56.3212 57.0165C58.8593 54.4317 60.5431 51.2622 61.3622 47.5276C61.5785 46.5412 61.6078 46.0859 61.6028 43.7931C61.5981 41.6244 61.5599 41.0125 61.3775 40.1814L61.1579 39.1809L61.4442 39.2546C63.1299 39.6885 65.8029 39.8645 67.5833 39.6586C69.8949 39.3915 71.7337 38.8395 73.908 37.7602C75.6811 36.88 76 36.5518 76 35.6078C76 34.712 75.4039 34.0133 74.5411 33.898C74.1724 33.8487 73.9407 33.9275 73.0458 34.407C72.4633 34.7189 71.7686 35.063 71.502 35.1716L71.0172 35.3689L65.51 29.7613C62.4809 26.6771 60.0026 24.0979 60.0026 24.0298C60.0026 23.9617 60.3311 23.2463 60.7326 22.44C61.3549 21.1901 61.4548 20.9085 61.4096 20.5298C61.2766 19.4126 59.9736 18.6544 59.0553 19.1597ZM63.119 32.2081C66.3159 35.4647 67.0319 36.2483 66.8687 36.3121C66.61 36.4131 63.7994 36.2772 63.0683 36.1283C62.7617 36.0658 61.9511 35.8573 61.2667 35.6648L60.0225 35.3151L59.679 34.048C59.49 33.351 59.2845 32.5255 59.2223 32.2133C59.0658 31.4282 58.9405 28.183 59.0667 28.183C59.1223 28.183 60.9457 29.9944 63.119 32.2081ZM53.7941 37.1583C54.8111 37.3108 57.1202 37.9359 57.2845 38.1033C57.4489 38.2706 58.0627 40.6221 58.2125 41.6579C58.3469 42.5885 58.3728 45.2122 58.2474 45.2122C58.1381 45.2122 50.3039 37.2353 50.3039 37.1239C50.3039 36.9954 52.8758 37.0207 53.7941 37.1583ZM57.2464 49.6271C56.7618 50.8105 55.3248 53.2727 55.1187 53.2727C55.023 53.2727 42.3888 40.4139 42.3888 40.3166C42.3888 40.1541 44.1378 39.0313 45.2019 38.511L46.3463 37.9513L51.8803 43.5841L57.4144 49.2169L57.2464 49.6271ZM46.3181 49.2705C49.7978 52.8137 52.6449 55.748 52.6449 55.7911C52.6449 55.9452 50.7693 57.1366 49.7381 57.6374L48.6874 58.1477L43.1534 52.5158L37.6193 46.8839L37.7873 46.4737C38.301 45.2199 39.7014 42.8281 39.9219 42.8281C39.9601 42.8281 42.8383 45.7272 46.3181 49.2705ZM40.7996 54.8899C42.9612 57.0905 44.7298 58.9297 44.7298 58.9769C44.7298 59.1054 42.1579 59.0801 41.2396 58.9425C40.2226 58.79 37.9135 58.1649 37.7492 57.9975C37.5848 57.8301 36.971 55.4786 36.8212 54.4429C36.6868 53.5123 36.6609 50.8886 36.7863 50.8886C36.8319 50.8886 38.6379 52.6891 40.7996 54.8899ZM31.9654 59.9714C32.272 60.0344 33.0826 60.2435 33.767 60.4359L35.0112 60.7857L35.3547 62.0528C35.5437 62.7498 35.7485 63.5753 35.8098 63.8875C35.956 64.632 36.0895 67.4943 35.9903 67.7577C35.9276 67.9239 35.1595 67.1961 31.9667 63.9457C29.7963 61.7361 28.0503 59.8792 28.0865 59.8194C28.1667 59.6875 31.1544 59.8045 31.9654 59.9714Z" fill="white"/>
</svg>
