<svg width="345" height="31" viewBox="0 0 345 31" fill="none" xmlns="http://www.w3.org/2000/svg">
<path d="M10.9788 11.2727C8.3838 13.487 6.65381 16.1039 7.58534 17.7814C8.58341 19.5931 13.5072 19.3918 17.4995 17.3788C13.5738 20.197 5.85535 22.3442 3.99229 17.5801C2.2623 13.0844 7.38573 8.25325 10.3799 6.03896C12.4426 4.49567 15.5034 3.01948 18.4976 1.81169H1.79653V24.8268C10.5796 26.1017 17.5661 21.539 19.7618 19.6602C22.3568 17.4459 24.0868 14.829 23.1553 13.1515C22.2237 11.3398 17.2334 11.5411 13.2411 13.5541C17.1003 10.6688 24.8852 8.58874 26.7483 13.3528C28.4783 17.8485 23.3549 22.6126 20.3607 24.8939C18.298 26.4372 15.2372 27.9805 12.243 29.1212H28.9441V6.10606C20.161 4.89827 13.1745 9.39394 10.9788 11.2727ZM0.532305 30.4632H30.2083V0.536797H0.532305V30.4632ZM30.7406 0V31H0V0H30.0752H30.7406ZM343.337 13.1515C343.137 11.3398 341.939 9.59524 340.01 9.59524C337.747 9.59524 336.483 10.9372 336.483 13.0844C336.483 17.7143 345 16.3723 345 23.0823C345 26.974 341.74 28.987 338.08 28.987C336.483 28.987 334.953 28.4502 333.555 27.7121C333.422 26.303 333.223 24.8939 333.09 23.4177L333.888 23.2836C334.221 25.632 335.618 27.7121 338.28 27.7121C340.209 27.7121 341.806 26.5043 341.806 24.5584C341.806 19.5931 333.422 21.1364 333.422 14.3593C333.422 10.7359 336.017 8.58874 339.743 8.58874C340.542 8.58874 342.937 8.92424 343.869 8.99134C343.869 10.2662 344.002 11.6753 344.135 13.0173L343.337 13.1515ZM316.256 11.4069C316.256 9.93074 317.121 9.86364 318.185 9.86364H318.917V9.05844C317.453 9.05844 316.056 9.19264 314.592 9.19264C313.062 9.19264 311.598 9.05844 310.068 9.05844V9.86364H310.467C311.465 9.86364 312.596 9.99784 312.596 11.474V25.9004C312.596 27.645 311.465 27.7792 310.467 27.7792H310.068V28.6515C312.596 28.6515 315.058 28.5173 317.586 28.5173C320.115 28.5173 322.577 28.6515 325.105 28.6515C325.438 27.0411 325.837 25.4978 326.17 23.8874H325.305C325.105 24.4913 324.905 25.2965 324.44 25.9004C323.907 26.5714 322.909 27.2424 321.712 27.3766C320.381 27.5108 319.117 27.5108 317.919 27.4437C316.987 27.3095 316.189 26.974 316.189 25.9004V11.4069H316.256ZM292.901 12.145L290.173 20.0628H295.496L292.901 12.145ZM288.775 24.5584C288.509 25.4978 288.176 26.2359 288.176 26.7056C288.176 27.5779 289.374 27.7121 290.306 27.7121H290.638V28.5844C289.507 28.5173 288.31 28.4502 287.178 28.4502C286.114 28.4502 285.116 28.5173 284.118 28.5844V27.7121H284.317C285.448 27.7121 286.38 27.0411 286.779 25.9004L291.37 13.0173C291.703 11.9437 292.235 10.6017 292.435 9.52814C293.366 9.19264 294.498 8.65584 295.03 8.32035C295.096 8.32035 295.163 8.25325 295.23 8.25325C295.296 8.25325 295.363 8.25325 295.429 8.32035C295.562 8.52164 295.629 8.79004 295.695 8.99134L300.952 23.619C301.284 24.6255 301.617 25.632 302.016 26.5043C302.349 27.3095 302.948 27.645 303.879 27.645H304.079V28.5173C302.815 28.4502 301.484 28.3831 300.153 28.3831C298.756 28.3831 297.292 28.4502 295.895 28.5173V27.645H296.228C296.893 27.645 297.958 27.5108 297.958 26.8398C297.958 26.4372 297.691 25.6991 297.425 24.8268L296.294 21.6061H289.84L288.775 24.5584ZM277.53 14.6948C277.331 13.1515 277.264 11.5411 277.331 9.99784C274.669 9.59524 273.538 8.58874 270.211 8.58874C264.356 8.58874 259.166 12.2121 259.166 18.5195C259.166 25.5649 263.957 28.987 270.344 28.987C272.939 28.987 275.202 28.4502 276.865 27.7121C276.998 26.1688 277.198 24.6926 277.597 23.2164L276.798 23.0823C276.067 25.9004 274.004 27.7792 271.01 27.7792C265.62 27.7792 263.158 23.0152 263.158 18.3853C263.158 13.487 265.62 9.86364 270.278 9.86364C274.536 9.86364 275.867 12.0779 276.665 14.829L277.53 14.6948ZM243.796 27.7121H244.195C245.193 27.7121 246.257 27.5779 246.257 26.1017V11.474C246.257 9.99784 245.193 9.86364 244.195 9.86364H243.796V9.05844C244.927 9.05844 246.59 9.19264 247.987 9.19264C249.385 9.19264 251.115 9.05844 252.446 9.05844V9.86364H252.046C251.048 9.86364 249.917 9.99784 249.917 11.474V26.1688C249.917 27.5779 250.982 27.7792 252.046 27.7792H252.446V28.6515C251.048 28.6515 249.385 28.5173 247.921 28.5173C246.524 28.5173 244.86 28.6515 243.729 28.6515V27.7121H243.796ZM226.23 10.4004V25.3636C226.23 27.5779 225.431 27.7121 223.901 27.7121H223.368V28.5844C224.5 28.5844 226.496 28.4502 228.159 28.4502C229.689 28.4502 231.686 28.5844 232.817 28.5844V27.7121H232.284C230.954 27.7121 229.956 27.4437 229.956 25.2965V10.4004H234.613C236.543 10.4004 236.676 12.0779 236.743 13.0844L237.608 12.7489C237.608 12.0108 237.608 11.2056 237.674 10.4675C237.741 9.72944 237.874 8.92424 238.007 8.18615L237.341 8.05195C237.275 8.92424 236.543 8.92424 235.811 8.92424H221.106C220.308 8.92424 219.642 8.92424 219.376 8.11905H218.711C218.711 8.92424 218.644 9.72944 218.511 10.5346C218.445 11.3398 218.311 12.145 218.178 12.8831H219.043C219.443 10.8701 219.576 10.3333 221.705 10.3333H226.23V10.4004ZM193.759 11.8766C193.759 9.86364 192.694 9.86364 191.563 9.86364H191.23V9.05844C192.428 9.05844 193.959 9.19264 195.755 9.19264C197.485 9.19264 198.882 9.05844 200.014 9.05844V9.86364H199.681C198.55 9.86364 197.419 9.86364 197.419 11.8766V21.539C197.419 25.0952 198.749 27.5779 202.808 27.5779C206.601 27.5779 208.198 25.2294 208.198 21.4719V11.8766C208.198 9.86364 207.067 9.86364 206.135 9.86364H205.603V9.05844C206.734 9.05844 207.932 9.19264 209.063 9.19264C210.127 9.19264 211.258 9.05844 212.39 9.05844V9.86364H211.791C210.992 9.86364 209.994 9.86364 209.994 11.8766V20.8009C209.994 27.1753 206.601 28.987 202.342 28.987C196.886 28.987 193.825 27.0411 193.825 22.0087V11.8766H193.759ZM168.741 28.5844C170.338 28.5844 173.731 28.4502 176.326 28.4502C178.921 28.4502 182.181 28.5844 183.978 28.5844C184.244 27.1082 184.577 25.632 184.976 24.0887L184.177 23.8874C183.312 27.1082 181.782 27.3095 178.389 27.3095C176.592 27.3095 174.929 27.3095 174.929 25.4978V18.9892H178.322C180.318 18.9892 180.385 20.0628 180.518 21.7403L181.383 21.539C181.316 20.4654 181.316 19.3918 181.316 18.3182C181.316 17.2446 181.383 16.171 181.383 15.0303H180.518C180.385 16.5065 179.986 17.513 178.322 17.513H174.929V10.2662H178.921C181.915 10.2662 182.248 11.7424 182.381 13.5541L183.246 13.3528C183.179 12.145 183.113 10.2662 183.179 9.05844C181.25 9.05844 178.256 9.19264 175.927 9.19264C173.531 9.19264 170.604 9.05844 168.874 9.05844V9.86364H169.273C170.271 9.86364 171.402 9.99784 171.402 11.474V26.1688C171.402 27.5779 170.338 27.7792 169.273 27.7792H168.874V28.5844H168.741ZM159.226 21.539V21.7403C158.56 25.3636 155.633 27.8463 152.04 27.8463C146.118 27.8463 141.26 22.3442 141.26 15.5C141.26 6.64286 147.648 4.22727 151.441 4.22727C155.832 4.22727 158.494 6.24026 159.093 9.99784V10.132H160.357L159.958 4.69697H159.824C156.764 3.62338 154.036 2.75108 151.108 2.75108C143.39 2.75108 137.068 8.52165 137.068 15.5671C137.068 23.8874 142.658 29.2554 151.241 29.2554C153.703 29.2554 157.828 28.2489 159.425 27.3095C159.492 27.2424 160.357 21.9416 160.357 21.9416V21.8074L159.226 21.539ZM58.8197 21.8074C58.8197 26.6385 54.2951 29.2554 50.0366 29.2554C48.107 29.2554 46.1109 28.7857 44.3809 27.9805H44.3144L43.5159 22.4113H44.7136V22.5455C45.3124 25.0952 47.242 27.7121 50.2363 27.7121C53.0309 27.7121 55.0935 25.7662 55.0935 23.0823C55.0935 19.9957 52.7647 18.7879 50.3028 17.513C47.5082 16.0368 44.3144 14.4264 44.3144 9.79654C44.3144 5.30087 47.3751 2.54978 52.2989 2.54978C53.4301 2.54978 54.6278 2.75108 55.7589 2.95238L56.9566 3.15368L57.5554 8.11905H56.4243L56.2912 8.05195C55.892 5.56926 54.2951 4.22727 51.7666 4.22727C49.2382 4.22727 47.5082 5.97186 47.5082 8.65584C47.5082 11.7424 49.9701 12.9502 52.6316 14.2251C55.6924 15.7684 58.8197 17.3117 58.8197 21.8074ZM125.225 23.0823L125.291 12.5476C125.291 10.2662 123.628 9.93074 122.829 9.93074H122.23V9.12554C123.561 9.12554 124.892 9.25974 126.223 9.25974C127.354 9.25974 128.552 9.12554 129.683 9.12554V9.93074H129.284C128.086 9.93074 126.755 10.132 126.755 13.487V26.2359C126.755 27.2424 126.755 28.1818 126.888 29.0541H125.757L111.119 12.9502V24.4913C111.119 26.9069 111.584 27.7792 113.78 27.7792H114.246V28.6515C112.982 28.6515 111.784 28.5173 110.52 28.5173C109.256 28.5173 107.925 28.6515 106.661 28.6515V27.7792H107.06C108.989 27.7792 109.588 26.4372 109.588 24.2229V12.3463C109.588 10.803 108.257 9.86364 106.993 9.86364H106.594V9.05844C107.725 9.05844 108.79 9.19264 109.921 9.19264C110.786 9.19264 111.584 9.05844 112.449 9.05844L125.225 23.0823ZM92.0887 28.5844C93.2199 28.5844 94.8833 28.4502 96.2806 28.4502C97.6779 28.4502 99.4079 28.5844 100.739 28.5844V27.7121H100.339C99.3414 27.7121 98.2768 27.5779 98.2768 26.1017V11.474C98.2768 9.99784 99.3414 9.86364 100.339 9.86364H100.739V9.05844C99.4079 9.05844 97.6779 9.19264 96.2806 9.19264C94.8833 9.19264 93.2199 9.05844 92.0887 9.05844V9.86364H92.4879C93.486 9.86364 94.6172 9.99784 94.6172 11.474V26.1688C94.6172 27.5779 93.5526 27.7792 92.4879 27.7792H92.0887V28.5844ZM78.1157 8.99134C79.3134 8.99134 80.5111 9.12554 81.7753 9.12554C83.0395 9.12554 84.3038 8.99134 85.568 8.99134V9.79654H85.1688C83.3057 9.79654 81.7753 11.0714 80.5776 12.2792L76.053 17.1104L83.3722 26.1688C83.9711 26.974 84.9026 27.7121 85.9672 27.7121V28.5844C85.0357 28.5844 84.0376 28.5173 83.0395 28.5173C82.108 28.5173 81.243 28.5844 80.3115 28.5844C80.0453 28.0476 79.2469 26.9069 78.8476 26.5043L72.7261 18.9221L78.7146 12.3463C79.0472 12.0108 79.9788 11.0714 79.9788 10.4675C79.9788 9.93074 78.7146 9.86364 78.3819 9.86364H78.0492V8.99134H78.1157ZM66.5381 27.7121H66.9373C67.9354 27.7121 69.0665 27.5779 69.0665 26.1017V11.474C69.0665 9.99784 68.0019 9.86364 66.9373 9.86364H66.5381V9.05844C67.6692 9.05844 69.3992 9.19264 70.8631 9.19264C72.3934 9.19264 74.2565 9.05844 75.3877 9.05844V9.86364H75.055C74.19 9.86364 72.7261 9.86364 72.7261 11.474V26.1688C72.7261 27.7121 74.19 27.7792 75.055 27.7792H75.3877V28.6515C74.19 28.6515 72.3934 28.5173 70.8631 28.5173C69.3992 28.5173 67.6692 28.6515 66.5381 28.6515V27.7121Z" fill="white"/>
</svg>
