<svg width="14" height="14" viewBox="0 0 14 14" fill="none" xmlns="http://www.w3.org/2000/svg">
<g clip-path="url(#clip0_2498_5315)">
<path d="M9.55914 8.20239C9.55914 5.8114 9.55914 3.41974 9.55914 1.02738C9.55914 0.45709 9.75061 0.263561 10.3188 0.259443L13.0344 0.259444C13.5883 0.263561 13.7941 0.479737 13.7941 1.02944L13.7941 5.8018C13.7941 6.60062 13.7941 7.40219 13.7941 8.2065C13.7941 8.7665 13.5883 8.97445 13.0344 8.97444H10.3209C9.75884 8.97444 9.55914 8.77268 9.55914 8.20239Z" fill="#909090"/>
<path d="M0.205917 5.16768C0.229569 4.95524 0.310692 4.75327 0.440562 4.5835C0.570431 4.41372 0.744132 4.28257 0.942977 4.20415L0.881211 4.14033C0.771349 4.01912 0.688039 3.87629 0.636629 3.721C0.585218 3.5657 0.566844 3.40138 0.582683 3.23856C0.613862 2.9845 0.725992 2.74722 0.902485 2.56183C1.07898 2.37644 1.31046 2.25278 1.56268 2.20915C1.45538 2.09025 1.37397 1.95032 1.32364 1.79827C1.27331 1.64622 1.25516 1.48536 1.27033 1.32591C1.30406 1.02899 1.44716 0.755261 1.67173 0.558097C1.8963 0.360934 2.18624 0.254464 2.48504 0.259444L4.08268 0.259445C4.78886 0.259445 5.52386 0.259445 6.23621 0.259445L6.30621 0.259445C7.28147 0.287535 8.2452 0.478193 9.15768 0.823562C9.14981 0.891896 9.14637 0.960667 9.14739 1.02944C9.14739 3.42317 9.14739 5.81484 9.14739 8.20444C9.14669 8.31132 9.15496 8.41807 9.17209 8.52356L8.90239 8.75827C8.81592 8.83033 8.72945 8.90444 8.64503 8.98062C8.07886 9.4768 7.51062 10.0244 7.31298 10.7842C7.24285 11.0964 7.20695 11.4153 7.20592 11.7353C7.20592 11.9 7.19356 12.0647 7.18121 12.2274C7.18121 12.3036 7.16886 12.3777 7.16268 12.4539C7.15419 12.6852 7.12106 12.9151 7.06386 13.1394C6.94856 13.5265 6.60268 13.7468 6.1168 13.7468C5.90367 13.7569 5.69276 13.6997 5.51393 13.5833C5.3351 13.4669 5.1974 13.2972 5.12033 13.0983C4.75445 12.1702 4.66786 11.1555 4.87121 10.1789C4.95974 9.76709 5.07709 9.35533 5.21298 8.96415C5.27268 8.77062 5.33445 8.57503 5.39209 8.37944H1.91268C1.61687 8.38265 1.33027 8.27669 1.10768 8.08183C0.885096 7.88698 0.742159 7.6169 0.706211 7.32327C0.690903 7.16032 0.709727 6.99597 0.761482 6.84071C0.813236 6.68545 0.896786 6.54267 1.0068 6.4215L1.02739 6.39886C0.827372 6.33666 0.647564 6.22223 0.506505 6.06739C0.396223 5.94681 0.312484 5.80442 0.260705 5.64944C0.208926 5.49446 0.19026 5.33033 0.205917 5.16768Z" fill="#909090"/>
</g>
<defs>
<clipPath id="clip0_2498_5315">
<rect width="14" height="14" fill="white" transform="translate(14 14) rotate(-180)"/>
</clipPath>
</defs>
</svg>
