<svg width="14" height="14" viewBox="0 0 14 14" fill="none" xmlns="http://www.w3.org/2000/svg">
<g clip-path="url(#clip0_2498_5347)">
<path d="M4.44074 5.79765C4.44074 8.18863 4.44074 10.5803 4.44074 12.9727C4.44074 13.5429 4.24927 13.7365 3.68104 13.7406H0.965448C0.411624 13.7365 0.205742 13.5203 0.205742 12.9706V8.19824C0.205742 7.39942 0.205742 6.59785 0.205742 5.79354C0.205742 5.23354 0.411624 5.0256 0.965448 5.0256H3.67898C4.24104 5.0256 4.44074 5.22736 4.44074 5.79765Z" fill="#909090"/>
<path d="M13.794 8.83236C13.7703 9.0448 13.6892 9.24677 13.5593 9.41654C13.4294 9.58631 13.2557 9.71747 13.0569 9.79589L13.1187 9.85971C13.2285 9.98091 13.3118 10.1237 13.3632 10.279C13.4147 10.4343 13.433 10.5987 13.4172 10.7615C13.386 11.0155 13.2739 11.2528 13.0974 11.4382C12.9209 11.6236 12.6894 11.7473 12.4372 11.7909C12.5445 11.9098 12.6259 12.0497 12.6762 12.2018C12.7266 12.3538 12.7447 12.5147 12.7295 12.6741C12.6958 12.9711 12.5527 13.2448 12.3282 13.4419C12.1036 13.6391 11.8136 13.7456 11.5148 13.7406H9.9172C9.21102 13.7406 8.47602 13.7406 7.76367 13.7406H7.69367C6.71841 13.7125 5.75468 13.5218 4.8422 13.1765C4.85007 13.1081 4.85351 13.0394 4.85249 12.9706C4.85249 10.5769 4.85249 8.1852 4.85249 5.7956C4.85319 5.68872 4.84492 5.58197 4.82778 5.47648L5.09749 5.24177C5.18396 5.16971 5.27043 5.0956 5.35484 5.01942C5.92102 4.52324 6.48925 3.9756 6.6869 3.21589C6.75703 2.90366 6.79292 2.58472 6.79396 2.26471C6.79396 2.10001 6.80631 1.9353 6.81867 1.77266C6.81867 1.69648 6.83102 1.62236 6.8372 1.54618C6.84569 1.31479 6.87882 1.08497 6.93602 0.860596C7.05131 0.473538 7.3972 0.253244 7.88308 0.253244C8.09621 0.243155 8.30712 0.300353 8.48595 0.41674C8.66478 0.533128 8.80247 0.702811 8.87955 0.901773C9.24543 1.82981 9.33202 2.84457 9.12867 3.82118C9.04014 4.23295 8.92278 4.64471 8.7869 5.03589C8.7272 5.22942 8.66543 5.42501 8.60779 5.62059H12.0872C12.383 5.61739 12.6696 5.72335 12.8922 5.91821C13.1148 6.11306 13.2577 6.38314 13.2937 6.67677C13.309 6.83972 13.2902 7.00406 13.2384 7.15933C13.1866 7.31459 13.1031 7.45737 12.9931 7.57854L12.9725 7.60118C13.1725 7.66338 13.3523 7.77781 13.4934 7.93265C13.6037 8.05323 13.6874 8.19562 13.7392 8.3506C13.791 8.50558 13.8096 8.66971 13.794 8.83236Z" fill="#909090"/>
</g>
<defs>
<clipPath id="clip0_2498_5347">
<rect width="14" height="14" fill="white"/>
</clipPath>
</defs>
</svg>
