<svg width="76" height="36" viewBox="0 0 76 36" fill="none" xmlns="http://www.w3.org/2000/svg">
<g clip-path="url(#clip0)">
<path d="M75.9997 0L4.41113 8.65075V10.8735L69.0226 3.7445L63.9292 33.4605H65.9418L75.9997 0Z" fill="#112957"/>
<path d="M4.4114 10.8735L2.87575 11.0416L0 35.9521L63.4955 36.0001L63.9295 33.4605H4.40186L4.4114 10.8735Z" fill="#B0B0B0"/>
<path d="M10.1722 18.5308V19.4429L10.7827 19.6013V20.2014H8.50781V19.6013L8.97041 19.4477V16.0537L8.50781 15.9096V15.3144L10.2008 15.2808H10.754C11.9368 15.2808 12.4471 15.9769 12.4471 16.841C12.4471 17.7819 11.8366 18.5356 10.4345 18.5356H10.1722V18.5308ZM10.1722 16.1353V17.6667H10.4345C10.9543 17.6667 11.2214 17.345 11.2214 16.8602C11.2214 16.4089 11.002 16.1353 10.5585 16.1353H10.1722Z" fill="#112957"/>
<path d="M17.6172 16.0585V19.4429L18.075 19.6013V20.2014H15.9528V19.6013L16.4106 19.4429V18.1179H14.7414V19.4333L15.204 19.6013V20.2014H13.0723V19.6013L13.5349 19.4429V16.0633L13.0723 15.9096V15.3144L15.204 15.2808V15.8808L14.7414 16.0633V17.2634H16.4106V16.0729L15.9528 15.9192V15.3144L18.075 15.2808V15.8808L17.6172 16.0585Z" fill="#112957"/>
<path d="M23.5253 19.6058V20.2059H21.4508V19.6058L21.8466 19.4618L21.6892 18.9241H20.2203L20.0487 19.4522L20.4779 19.6058V20.2059H18.6084V19.6058L18.947 19.4714L20.4969 15.2948L21.7369 15.2612L23.201 19.481L23.5253 19.6058ZM20.4731 18.0888H21.4603L21.0168 16.4038L20.4731 18.0888Z" fill="#112957"/>
<path d="M28.4233 19.6061V20.2062H27.1499L26.5252 18.8812C26.2915 18.3676 26.2533 18.2764 25.8384 18.2812H25.7287V19.4381L26.22 19.6061V20.2062H24.0596V19.6061L24.5222 19.4477V16.0681L24.0596 15.9144V15.3144L25.7764 15.2808H26.3869C27.5219 15.2808 28.1085 15.7752 28.1085 16.6681C28.1085 17.345 27.7747 17.8443 27.0307 18.0603C27.293 18.1419 27.4408 18.3196 27.5648 18.5596L28.0417 19.4669L28.4233 19.6061ZM26.8876 16.7498C26.8876 16.3753 26.6778 16.1353 26.239 16.1353H25.7335V17.4506H26.0721C26.6253 17.4554 26.8876 17.2154 26.8876 16.7498Z" fill="#112957"/>
<path d="M33.8414 15.8808L33.3835 16.0633V18.2572C33.3835 19.5821 32.7254 20.3022 31.3376 20.3022C29.3728 20.3022 29.3728 18.9004 29.3728 18.3532V16.0681L28.9102 15.9144V15.3144L31.0419 15.2808V15.8808L30.5793 16.0681V18.3532C30.5793 18.9725 30.6699 19.3757 31.3614 19.3757C32.072 19.3757 32.177 18.9437 32.177 18.2524V16.0585L31.7191 15.9144V15.3144L33.8414 15.2808V15.8808Z" fill="#112957"/>
<path d="M38.2859 18.7418C38.2859 19.8219 37.3607 20.302 36.2495 20.302C35.7392 20.302 35.2003 20.2059 34.6804 20.0091L34.7234 18.6025H35.4149L35.5484 19.2698C35.7821 19.3658 36.0539 19.4138 36.3115 19.4138C36.7454 19.4138 37.1127 19.2554 37.1127 18.9002C37.1127 17.9929 34.6709 18.4777 34.6709 16.6919C34.6709 15.6694 35.4673 15.1797 36.5165 15.1797C37.0125 15.1797 37.5657 15.2901 38.1142 15.4917L38.0331 16.7879H37.3225L37.1794 16.1494C36.9934 16.0918 36.7931 16.0678 36.5928 16.0678C36.1827 16.0678 35.8393 16.207 35.8393 16.5335C35.8298 17.364 38.2859 16.9847 38.2859 18.7418Z" fill="#112957"/>
<path d="M10.1722 26.8935V27.8056L10.7827 27.9641V28.5641H8.50781V27.9641L8.97041 27.8104V24.4164L8.50781 24.2724V23.6723L10.2008 23.6387H10.754C11.9368 23.6387 12.4471 24.3348 12.4471 25.1989C12.4471 26.1398 11.8366 26.8887 10.4345 26.8887H10.1722V26.8935ZM10.1722 24.498V26.0294H10.4345C10.9543 26.0294 11.2214 25.7078 11.2214 25.2229C11.2214 24.7716 11.002 24.498 10.5585 24.498H10.1722Z" fill="#112957"/>
<path d="M17.5401 27.9637V28.5638H15.4655V27.9637L15.8614 27.8197L15.704 27.282H14.2399L14.0682 27.8101L14.4974 27.9637V28.5638H12.6279V27.9637L12.9665 27.8293L14.5165 23.6527L15.7564 23.6191L17.2206 27.8389L17.5401 27.9637ZM14.4879 26.4467H15.4751L15.0315 24.7617L14.4879 26.4467Z" fill="#112957"/>
<path d="M22.4379 27.9641V28.5641H21.1646L20.5398 27.2392C20.3061 26.7255 20.268 26.6343 19.8531 26.6391H19.7434V27.796L20.2346 27.9641V28.5641H18.0742V27.9641L18.5368 27.8056V24.426L18.0742 24.2724V23.6723L19.7911 23.6387H20.4015C21.5366 23.6387 22.1232 24.1331 22.1232 25.0261C22.1232 25.703 21.7893 26.2022 21.0454 26.4182C21.3077 26.4999 21.4555 26.6775 21.5795 26.9175L22.0564 27.8248L22.4379 27.9641ZM20.9023 25.1077C20.9023 24.7332 20.6924 24.4932 20.2537 24.4932H19.7482V25.8086H20.0868C20.64 25.8134 20.9023 25.5733 20.9023 25.1077Z" fill="#112957"/>
<path d="M26.9925 23.6387V25.1509H26.2867L26.1341 24.5028H25.5522V27.8056L26.0864 27.9641V28.5641H23.8115V27.9641L24.3504 27.8104V24.5028H23.7638L23.6208 25.1509H22.9102V23.6387H26.9925Z" fill="#112957"/>
<path d="M32.5628 24.2388L32.1002 24.4212V28.5641H30.7172L29.0766 25.2469V27.8008L29.5392 27.9593V28.5641H27.6221V27.9641L28.0847 27.8056V24.426L27.6221 24.2724V23.6723L29.5154 23.6387L31.1082 26.8551V24.426L30.6456 24.2724V23.6723L32.5628 23.6387V24.2388Z" fill="#112957"/>
<path d="M36.9837 27.1768L36.9694 28.5641H33.3115V27.9641L33.7741 27.8056V24.426L33.3115 24.2724V23.6723L34.9521 23.6387H36.9026V24.9685H36.192L36.0824 24.5028H34.9807V25.6453H36.3399V26.4807H34.9759V27.7H36.1587L36.2683 27.1768H36.9837Z" fill="#112957"/>
<path d="M42.2495 27.9641V28.5641H40.9761L40.3514 27.2392C40.1177 26.7255 40.0795 26.6343 39.6646 26.6391H39.5549V27.796L40.0461 27.9641V28.5641H37.8857V27.9641L38.3483 27.8056V24.426L37.8857 24.2724V23.6723L39.6026 23.6387H40.2131C41.3481 23.6387 41.9347 24.1331 41.9347 25.0261C41.9347 25.703 41.6009 26.2022 40.8569 26.4182C41.1192 26.4999 41.267 26.6775 41.391 26.9175L41.8679 27.8248L42.2495 27.9641ZM40.7138 25.1077C40.7138 24.7332 40.504 24.4932 40.0652 24.4932H39.5597V25.8086H39.8983C40.4515 25.8134 40.7138 25.5733 40.7138 25.1077Z" fill="#112957"/>
<path d="M46.6891 27.0997C46.6891 28.1798 45.764 28.6599 44.6528 28.6599C44.1425 28.6599 43.6036 28.5639 43.0838 28.367L43.1267 26.9605H43.8182L43.9517 27.6277C44.1854 27.7238 44.4572 27.7718 44.7148 27.7718C45.1487 27.7718 45.516 27.6133 45.516 27.2581C45.516 26.3508 43.0742 26.8356 43.0742 25.0498C43.0742 24.0273 43.8706 23.5376 44.9198 23.5376C45.4158 23.5376 45.969 23.648 46.5175 23.8496L46.4364 25.1458H45.7258L45.5827 24.5073C45.3967 24.4497 45.1964 24.4257 44.9961 24.4257C44.586 24.4257 44.2426 24.5649 44.2426 24.8914C44.2331 25.7219 46.6891 25.3474 46.6891 27.0997Z" fill="#112957"/>
<path d="M52.0068 24.4212V27.8056L52.4647 27.9641V28.5641H50.3424V27.9641L50.8003 27.8056V26.4807H49.1311V27.796L49.5937 27.9641V28.5641H47.4619V27.9641L47.9245 27.8056V24.426L47.4619 24.2724V23.6723L49.5937 23.6387V24.2388L49.1311 24.4212V25.6213H50.8003V24.4308L50.3424 24.2772V23.6771L52.4647 23.6435V24.2436L52.0068 24.4212Z" fill="#112957"/>
<path d="M54.9631 24.4256V27.8052L55.4257 27.9636V28.5637H53.2939V27.9636L53.7565 27.8052V24.4352L53.2939 24.2768V23.6767L55.4257 23.6431V24.2431L54.9631 24.4256Z" fill="#112957"/>
<path d="M57.9251 26.8935V27.8056L58.5356 27.9641V28.5641H56.2607V27.9641L56.7233 27.8104V24.4164L56.2607 24.2724V23.6723L57.9538 23.6387H58.507C59.6897 23.6387 60.2 24.3348 60.2 25.1989C60.2 26.1398 59.5896 26.8887 58.1874 26.8887H57.9251V26.8935ZM57.9251 24.498V26.0294H58.1874C58.7073 26.0294 58.9743 25.7078 58.9743 25.2229C58.9743 24.7716 58.755 24.498 58.3114 24.498H57.9251Z" fill="#112957"/>
</g>
<defs>
<clipPath id="clip0">
<rect width="76" height="36" fill="white"/>
</clipPath>
</defs>
</svg>
