<svg width="248" height="31" viewBox="0 0 248 31" fill="none" xmlns="http://www.w3.org/2000/svg">
<g clip-path="url(#clip0_1_51)">
<path d="M9.47948 4.98218C10.7341 4.98218 11.9888 5.25896 13.104 5.67414C14.2192 6.22771 15.1951 6.78129 16.1709 7.75004L13.9404 9.96432C12.6858 8.71879 11.1523 8.02682 9.47948 8.02682C8.64306 8.02682 7.80663 8.30361 6.97021 8.58039C6.27319 8.85718 5.57617 9.41075 5.01855 9.96432C4.46093 10.5179 4.04272 11.2099 3.62451 11.9018C3.3457 12.5938 3.06689 13.4241 3.06689 14.3929C3.06689 15.2233 3.2063 16.0536 3.62451 16.884C3.90332 17.5759 4.46093 18.2679 5.01855 18.8215C5.57617 19.375 6.27319 19.7902 6.97021 20.067C7.80663 20.3438 8.50365 20.6206 9.47948 20.6206C11.1523 20.6206 12.6858 20.067 13.9404 18.8215L16.1709 21.0358C15.3345 21.8661 14.3586 22.5581 13.104 23.1116C11.9888 23.6652 10.7341 23.8036 9.47948 23.8036C8.22485 23.8036 6.97021 23.5268 5.85497 22.9733C4.73974 22.4197 3.76391 21.8661 2.78808 20.8974C1.95166 20.067 1.25464 19.0983 0.697021 17.8527C0.278808 16.884 0 15.6384 0 14.3929C0 13.1474 0.278808 11.9018 0.697021 10.7947C1.25464 9.54914 1.95166 8.58039 2.78808 7.75004C3.62451 6.91968 4.60034 6.22771 5.85497 5.67414C6.97021 5.25896 8.22485 4.98218 9.47948 4.98218Z" fill="black"/>
<path d="M39.1727 8.02682C37.4998 8.02682 35.9664 8.58039 34.7118 9.82593C33.4571 11.0715 32.8995 12.4554 32.8995 14.2545C32.8995 15.9152 33.4571 17.4375 34.7118 18.6831C35.9664 19.9286 37.4998 20.4822 39.1727 20.4822C40.8455 20.4822 42.379 19.9286 43.6336 18.6831C44.8883 17.4375 45.4459 15.9152 45.4459 14.2545C45.4459 12.5938 44.8883 11.0715 43.6336 9.82593C42.379 8.71879 40.8455 8.02682 39.1727 8.02682ZM39.1727 4.98218C41.8214 4.98218 44.0518 5.95093 45.8641 7.75004C47.6763 9.54914 48.6522 11.7634 48.6522 14.3929C48.6522 17.0224 47.6763 19.2366 45.8641 21.0358C44.0518 22.8349 41.8214 23.8036 39.1727 23.8036C36.524 23.8036 34.2935 22.8349 32.4813 21.0358C30.669 19.2366 29.6932 17.0224 29.6932 14.3929C29.6932 11.7634 30.669 9.54914 32.4813 7.75004C34.2935 5.81254 36.524 4.98218 39.1727 4.98218Z" fill="black"/>
<path d="M87.4063 4.98218V8.02682H77.9268V14.2545H87.4063V17.4375H77.9268V23.6652H74.7205V4.98218H87.4063Z" fill="black"/>
<path d="M144.841 4.98218C146.096 4.98218 147.35 5.25896 148.465 5.67414C149.581 6.22771 150.556 6.78128 151.532 7.75003L149.302 9.96432C148.047 8.71878 146.653 8.16521 144.841 8.16521C144.004 8.16521 143.168 8.30361 142.332 8.71879C141.635 8.99557 140.938 9.54914 140.38 10.1027C139.822 10.6563 139.404 11.3482 138.986 12.0402C138.707 12.7322 138.428 13.5625 138.428 14.5313C138.428 15.3616 138.568 16.192 138.986 17.0224C139.265 17.7143 139.822 18.4063 140.38 18.9599C140.938 19.5134 141.635 19.9286 142.332 20.3438C143.168 20.6206 143.865 20.8974 144.841 20.8974C146.514 20.8974 148.047 20.3438 149.302 19.0982L151.532 21.3125C150.696 22.1429 149.72 22.8349 148.465 23.3884C147.35 23.942 146.096 24.0804 144.841 24.0804C143.586 24.0804 142.332 23.8036 141.216 23.3884C140.101 22.8349 139.125 22.2813 138.15 21.3125C137.313 20.4822 136.616 19.5134 136.058 18.2679C135.501 17.1607 135.361 15.9152 135.361 14.6697C135.361 13.4241 135.64 12.1786 136.058 11.0715C136.616 9.96432 137.174 8.99557 138.15 8.02682C138.986 7.19646 139.962 6.5045 141.216 5.95093C142.332 5.25896 143.447 4.98218 144.841 4.98218Z" fill="black"/>
<path d="M167.564 4.98218H183.316V8.02682H177.043V23.6652H173.837V8.02682H167.564V4.98218Z" fill="black"/>
<path d="M206.736 8.02682C205.064 8.02682 203.53 8.58039 202.275 9.82593C201.021 11.0715 200.463 12.4554 200.463 14.2545C200.463 15.9152 201.021 17.4375 202.275 18.6831C203.53 19.9286 205.064 20.4822 206.736 20.4822C208.409 20.4822 209.943 19.9286 211.197 18.6831C212.452 17.4375 213.01 15.9152 213.01 14.2545C213.01 12.5938 212.452 11.0715 211.197 9.82593C209.943 8.71879 208.409 8.02682 206.736 8.02682ZM206.736 4.98218C209.385 4.98218 211.616 5.95093 213.428 7.75004C215.24 9.54914 216.216 11.7634 216.216 14.3929C216.216 17.0224 215.24 19.2366 213.428 21.0358C211.616 22.8349 209.385 23.8036 206.736 23.8036C204.088 23.8036 201.857 22.8349 200.045 21.0358C198.233 19.2366 197.257 17.0224 197.257 14.3929C197.257 11.7634 198.233 9.54914 200.045 7.75004C201.857 5.81254 204.088 4.98218 206.736 4.98218Z" fill="black"/>
<path d="M241.727 8.02682H235.454V14.2545H241.727C242.563 14.2545 243.26 13.9777 243.957 13.2858C244.515 12.7322 244.933 11.9018 244.933 11.0715C244.933 10.2411 244.654 9.54914 243.957 8.85718C243.26 8.442 242.563 8.02682 241.727 8.02682ZM244.375 23.6652L240.751 17.4375H235.454V23.6652H232.387V4.98218H241.866C243.539 4.98218 245.072 5.53575 246.327 6.78129C247.582 8.02682 248.139 9.41075 248.139 11.2099C248.139 12.4554 247.721 13.7009 247.024 14.8081C246.327 15.9152 245.351 16.6072 244.236 17.0224L248.139 23.8036H244.375V23.6652Z" fill="black"/>
<path d="M59.1075 22.1428C59.1075 21.3125 59.6651 20.7589 60.3621 20.7589C61.0591 20.7589 61.6167 21.3125 61.6167 22.1428C61.6167 22.8348 61.1985 23.5268 60.3621 23.5268C59.6651 23.5268 59.1075 22.8348 59.1075 22.1428Z" fill="black"/>
<path d="M110.966 10.7946L121.003 27.817H95.91L93.9583 31H126.439L112.778 7.75L110.966 10.7946Z" fill="#32BEBC"/>
<path d="M108.317 0L91.8673 27.125H119.609L117.796 23.942H97.4435L110.129 3.04464L108.317 0Z" fill="#E35482"/>
<path d="M98.6982 23.25H102.462L112.778 6.22771L125.046 27.125H128.67L112.917 0.138428L98.6982 23.25Z" fill="#7559A4"/>
</g>
<defs>
<clipPath id="clip0_1_51">
<rect width="248" height="31" fill="white"/>
</clipPath>
</defs>
</svg>
