<svg width="14" height="14" viewBox="0 0 14 14" fill="none" xmlns="http://www.w3.org/2000/svg">
<g clip-path="url(#clip0_2498_5367)">
<path d="M4.44074 5.79762C4.44074 8.1886 4.44074 10.5803 4.44074 12.9726C4.44074 13.5429 4.24927 13.7364 3.68104 13.7406H0.965448C0.411624 13.7364 0.205742 13.5203 0.205742 12.9706V8.19821C0.205742 7.39939 0.205742 6.59782 0.205742 5.79351C0.205742 5.23351 0.411624 5.02556 0.965448 5.02556H3.67898C4.24104 5.02556 4.44074 5.22733 4.44074 5.79762Z" fill="#909090"/>
<path d="M13.794 8.83233C13.7703 9.04477 13.6892 9.24674 13.5593 9.41651C13.4294 9.58628 13.2557 9.71744 13.0569 9.79586L13.1187 9.85968C13.2285 9.98088 13.3118 10.1237 13.3632 10.279C13.4147 10.4343 13.433 10.5986 13.4172 10.7614C13.386 11.0155 13.2739 11.2528 13.0974 11.4382C12.9209 11.6236 12.6894 11.7472 12.4372 11.7909C12.5445 11.9098 12.6259 12.0497 12.6762 12.2017C12.7266 12.3538 12.7447 12.5146 12.7295 12.6741C12.6958 12.971 12.5527 13.2447 12.3282 13.4419C12.1036 13.6391 11.8136 13.7455 11.5148 13.7406H9.9172C9.21102 13.7406 8.47602 13.7406 7.76367 13.7406H7.69367C6.71841 13.7125 5.75468 13.5218 4.8422 13.1764C4.85007 13.1081 4.85351 13.0393 4.85249 12.9706C4.85249 10.5768 4.85249 8.18517 4.85249 5.79556C4.85319 5.68869 4.84492 5.58194 4.82778 5.47645L5.09749 5.24174C5.18396 5.16968 5.27043 5.09556 5.35484 5.01939C5.92102 4.52321 6.48925 3.97557 6.6869 3.21586C6.75703 2.90363 6.79292 2.58469 6.79396 2.26468C6.79396 2.09998 6.80631 1.93527 6.81867 1.77262C6.81867 1.69645 6.83102 1.62233 6.8372 1.54615C6.84569 1.31476 6.87882 1.08494 6.93602 0.860566C7.05131 0.473507 7.3972 0.253213 7.88308 0.253213C8.09621 0.243125 8.30712 0.300322 8.48595 0.41671C8.66478 0.533098 8.80247 0.70278 8.87955 0.901742C9.24543 1.82978 9.33202 2.84454 9.12867 3.82115C9.04014 4.23292 8.92278 4.64468 8.7869 5.03586C8.7272 5.22939 8.66543 5.42498 8.60779 5.62056H12.0872C12.383 5.61736 12.6696 5.72332 12.8922 5.91818C13.1148 6.11303 13.2577 6.38311 13.2937 6.67674C13.309 6.83969 13.2902 7.00403 13.2384 7.1593C13.1866 7.31456 13.1031 7.45734 12.9931 7.57851L12.9725 7.60115C13.1725 7.66335 13.3523 7.77778 13.4934 7.93262C13.6037 8.0532 13.6874 8.19559 13.7392 8.35057C13.791 8.50555 13.8096 8.66968 13.794 8.83233Z" fill="#909090"/>
</g>
<defs>
<clipPath id="clip0_2498_5367">
<rect width="14" height="14" fill="white"/>
</clipPath>
</defs>
</svg>
