<svg width="12" height="12" viewBox="0 0 12 12" fill="none" xmlns="http://www.w3.org/2000/svg">
<path d="M0.219668 1.28033C-0.0732225 0.987438 -0.0732225 0.512558 0.219668 0.219668C0.512558 -0.0732225 0.987438 -0.0732225 1.28033 0.219668L5.999 4.9384L10.7176 0.219798C11.0105 -0.0730923 11.4854 -0.0730923 11.7782 0.219798C12.0711 0.512688 12.0711 0.987568 11.7782 1.28046L7.0597 5.999L11.7782 10.7176C12.0711 11.0105 12.0711 11.4854 11.7782 11.7782C11.4854 12.0711 11.0105 12.0711 10.7176 11.7782L5.999 7.0597L1.28033 11.7784C0.987438 12.0713 0.512558 12.0713 0.219668 11.7784C-0.0732225 11.4855 -0.0732225 11.0106 0.219668 10.7177L4.9384 5.999L0.219668 1.28033Z" fill="#1A1F2B" fill-opacity="0.5"/>
</svg>
