<svg width="96" height="96" viewBox="0 0 96 96" fill="none" xmlns="http://www.w3.org/2000/svg">
<rect width="96" height="96" rx="48" fill="#612794"/>
<path d="M42.6529 50.2559C42.309 51.9441 42.1027 52.9718 41.252 54.0387L27.4297 59.6881C26.7873 59.9764 26.2113 60.4009 25.7393 60.9339C25.2673 61.467 24.9099 62.0965 24.6904 62.7815C23.9836 64.994 23.0209 71.8427 22.5 77.9994" stroke="white" stroke-width="2" stroke-linejoin="round"/>
<path d="M52.25 50.2559C52.5926 51.9441 52.8001 52.9718 53.6508 54.0387L67.4732 59.6881C68.1155 59.9761 68.6915 60.4006 69.1633 60.9337C69.6352 61.4668 69.9923 62.0965 70.2112 62.7815C70.9193 64.994 71.8821 71.8427 72.4029 77.9994" stroke="white" stroke-width="2" stroke-linejoin="round"/>
<path d="M36.8047 33.6037C44.145 32.4934 49.146 31.222 52.6392 25.435C52.6811 25.3658 52.7414 25.3105 52.813 25.2755C52.8845 25.2405 52.9644 25.2275 53.0429 25.2378C53.1215 25.2482 53.1956 25.2815 53.2563 25.3339C53.317 25.3863 53.3618 25.4555 53.3854 25.5333C54.0451 27.6895 55.8458 32.9339 58.0528 34.0611C57.1804 42.4762 55.7427 47.0298 51.7656 50.6829C50.8436 51.4588 50.1164 51.8219 48.997 52.0028L48.7703 52.0408C48.5156 52.0815 48.3144 52.1116 48.1107 52.1339C47.9069 52.1562 47.7044 52.164 47.4523 52.1653C47.0102 52.1643 46.5691 52.1226 46.1342 52.0408L45.9063 52.0028C44.7882 51.8219 44.061 51.4588 43.139 50.6829C39.0893 46.9629 37.6745 42.3137 36.806 33.6037H36.8047Z" stroke="white" stroke-width="2" stroke-linejoin="round"/>
<path d="M39.1465 54.9977C39.1465 54.9977 39.0956 54.9846 39.0039 54.957" stroke="white" stroke-width="2" stroke-linejoin="round"/>
<path d="M34.1726 50.7677C34.4273 47.1146 27.9771 30.9385 39.3187 20.8824L39.306 20.8955C39.306 20.8955 43.4983 18.0053 47.4562 18C51.4142 17.9948 55.5976 20.8837 55.6065 20.8955L55.5938 20.8824C66.9354 30.9385 60.4776 47.1146 60.7386 50.7677" stroke="white" stroke-width="2" stroke-linejoin="round"/>
<path d="M36.049 66.4261C34.8672 63.2528 34.5272 59.8592 35.3842 56.4395" stroke="white" stroke-width="2" stroke-linejoin="round"/>
<path d="M40.8032 68.5696C40.8032 70.6648 39.0948 72.3638 37.0062 72.3638C34.9176 72.3638 33.207 70.6648 33.207 68.5696C33.207 66.4745 34.9155 64.7676 37.0062 64.7676C39.0969 64.7676 40.8032 66.4745 40.8032 68.5696Z" fill="white"/>
<path d="M59.4021 62.1388C59.6428 60.4099 59.6568 58.099 59.2188 56.3164" stroke="white" stroke-width="2" stroke-linejoin="round"/>
<path d="M54.2275 73.544L53.9206 74.8915C52.8012 74.6175 51.8614 73.4273 52.1861 72.2477L54.4962 65.0896C55.231 62.953 56.9834 61.5505 59.2935 62.1129C61.6023 62.6765 62.5663 64.7462 62.304 66.9981L61.2852 74.476C61.0687 75.6819 59.715 76.311 58.5956 76.0371L58.9012 74.6909" stroke="white" stroke-width="2" stroke-linecap="round" stroke-linejoin="round"/>
<path d="M40.9727 54.1512L41.3165 57.2432C41.3662 57.7033 41.6107 58.09 41.8348 58.4911C42.6919 60.0339 44.1169 61.7981 45.7622 63.6188C45.9746 63.8541 46.2319 64.0418 46.5179 64.1701C46.804 64.2985 47.1127 64.3647 47.4248 64.3647C47.7368 64.3647 48.0455 64.2985 48.3316 64.1701C48.6176 64.0418 48.8749 63.8541 49.0873 63.6188C50.7339 61.7981 52.1589 60.0339 53.0185 58.4911C53.2427 58.09 53.4846 57.7046 53.5368 57.2432L53.8807 54.1328" stroke="white" stroke-width="2" stroke-linejoin="round"/>
</svg>
