<svg viewBox="0 0 24 24" xmlns="http://www.w3.org/2000/svg" xmlns:xlink="http://www.w3.org/1999/xlink" width="24.000000" height="24.000000" fill="none" customFrame="#000000">
	<path id="icon" d="M6.0592 0.971659C6.27446 1.05263 6.41796 1.1336 6.63322 1.1336C6.99198 1.1336 7.27899 1.05263 7.63776 0.647774C7.85301 0.323887 8.28353 0 8.64229 0C9.07281 0 9.43157 0.323887 9.64683 0.647774C9.93384 0.97166 10.2926 1.1336 10.6514 1.1336C10.7949 1.1336 11.0101 1.1336 11.1536 1.05263L12.9474 0.404858L11.0101 4.61538L6.56147 4.61538L4.62415 0.404858L6.0592 0.971659ZM11.0496 5.59697L6.74553 5.59697C4.18637 7.62885 -1.57174 13.7245 0.405794 19.646C1.04558 21.5617 2.44149 22.8389 4.65167 23.5356C5.58228 23.8258 6.68737 24 7.85063 24L9.88632 24C11.0496 24 12.1547 23.8258 13.0853 23.5356C15.2955 22.8389 16.6914 21.5617 17.3312 19.646C19.3668 13.7245 13.6669 7.62885 11.0496 5.59697ZM19.9901 13.5031L19.665 13.7992C19.3398 14.1939 18.6896 14.1939 18.2561 13.8979C17.9309 13.5031 17.9309 13.0096 18.2561 12.6148L20.3152 10.6409C20.4236 10.4435 20.6403 10.3448 20.9655 10.3448C21.2906 10.3448 21.5073 10.4435 21.6157 10.6409L23.6749 12.6148C24.1084 13.0096 24.1084 13.6018 23.6749 13.8979C23.4581 13.9965 23.2414 14.0952 23.0246 14.0952C22.6995 14.0952 22.4827 13.9965 22.266 13.7992L21.9409 13.5031L21.9409 21.4097C21.9409 21.9031 21.5074 22.2979 20.9655 22.2979C20.4236 22.2979 19.9901 21.9031 19.9901 21.4097L19.9901 13.5031ZM11.0496 17.7302C10.9333 17.9624 10.7588 18.1946 10.5843 18.3688C10.4098 18.543 10.119 18.7171 9.88632 18.7752C9.59551 18.8913 9.30469 18.9493 8.95572 19.0074L8.83939 20.1685L8.83939 20.2265L8.78123 20.2846C8.72307 20.2846 8.72307 20.3426 8.6649 20.3426L8.14144 20.3426C8.08328 20.3426 8.02511 20.2846 7.96695 20.2846C7.90879 20.2846 7.90879 20.2265 7.90879 20.2265L7.90879 20.1104L8.02511 19.0074C7.85063 19.0074 7.7343 18.9493 7.61797 18.9493C7.50165 18.8913 7.38532 18.8913 7.269 18.8332C7.15267 18.7752 7.03635 18.7752 6.97818 18.7171C6.92002 18.6591 6.86186 18.6591 6.8037 18.601C6.74553 18.543 6.74553 18.4849 6.68737 18.4268C6.68737 18.3688 6.62921 18.2527 6.62921 18.0785L6.62921 17.7883C6.62921 17.7302 6.62921 17.6721 6.68737 17.6141C6.68737 17.556 6.74553 17.556 6.74553 17.498L6.86186 17.498C6.92002 17.498 6.97818 17.556 7.09451 17.556L7.44349 17.7302C7.55981 17.7883 7.7343 17.8463 7.96695 17.9044C8.14144 17.9624 8.37409 17.9624 8.6649 17.9624C9.07204 17.9624 9.36286 17.9044 9.59551 17.7302C9.82816 17.556 9.88632 17.3819 9.88632 17.0916C9.88632 16.9174 9.82816 16.8013 9.77 16.6852C9.65367 16.5691 9.53734 16.453 9.42102 16.395C9.24653 16.3369 9.13021 16.2208 8.89755 16.1628C8.72307 16.1047 8.54858 16.0466 8.31593 15.9305C8.14144 15.8725 7.90879 15.7564 7.7343 15.6403L7.21083 15.2919L6.86186 14.7695C6.74553 14.5372 6.74553 14.305 6.74553 14.0148C6.74553 13.7245 6.8037 13.4923 6.86186 13.3181C6.97818 13.0859 7.09451 12.9117 7.269 12.7376C7.44349 12.5634 7.61797 12.4473 7.90879 12.3312C8.14144 12.2151 8.43225 12.157 8.72307 12.099L8.83939 11.054L8.83939 10.996L8.89755 10.9379C8.95572 10.9379 8.95572 10.8799 9.01388 10.8799L9.53734 10.8799C9.59551 10.8799 9.65367 10.8799 9.71183 10.9379C9.77 10.9379 9.77 10.996 9.77 10.996L9.77 11.1121L9.65367 12.099C9.77 12.099 9.88632 12.157 9.94448 12.157C10.0608 12.157 10.1771 12.2151 10.2353 12.2732C10.3516 12.3312 10.4098 12.3312 10.5261 12.3893C10.5843 12.4473 10.6424 12.4473 10.7006 12.5054C10.7588 12.5634 10.7588 12.5634 10.7588 12.6215C10.7588 12.6795 10.8169 12.6795 10.8169 12.7376L10.8169 13.4342C10.8169 13.4923 10.8169 13.5503 10.7588 13.6084C10.7588 13.6664 10.7006 13.6664 10.7006 13.6664L10.6424 13.6664C10.5843 13.6664 10.5261 13.6664 10.4098 13.6084C10.2935 13.5503 10.2353 13.4923 10.0608 13.4342C9.94448 13.3762 9.77 13.3181 9.59551 13.2601C9.42102 13.202 9.24654 13.202 9.01388 13.202C8.83939 13.202 8.6649 13.202 8.54858 13.2601C8.43225 13.3181 8.31593 13.3181 8.1996 13.4342C8.14144 13.4923 8.08328 13.5503 8.02511 13.6664C7.96695 13.7825 7.96695 13.8406 7.96695 13.9567C7.96695 14.1309 8.02511 14.247 8.08327 14.3631C8.1996 14.4792 8.31593 14.5953 8.43225 14.6534C8.54858 14.7114 8.72307 14.8275 8.95572 14.8856C9.1302 14.9436 9.36286 15.0017 9.53734 15.1178C9.71183 15.1758 9.94448 15.2919 10.119 15.4081L10.6424 15.7564C10.7588 15.8725 10.9333 16.0466 10.9914 16.2789C11.1077 16.5111 11.1077 16.7433 11.1077 17.0336C11.2241 17.2077 11.1659 17.4399 11.0496 17.7302Z" fill="rgb(34,34,34)" fill-rule="evenodd" />
</svg>
