<svg viewBox="0 0 24 24" xmlns="http://www.w3.org/2000/svg" xmlns:xlink="http://www.w3.org/1999/xlink" width="24.000000" height="24.000000" fill="none" customFrame="#000000">
	<path id="icon" d="M23.1153 4.41591L12.5246 0.101184L12.5244 0.101103C12.1888 -0.0326693 11.8158 -0.0353888 11.4707 0.103073L0.884706 4.41591C0.347153 4.63141 0 5.14334 0 5.72086L0 7.54224C0 8.31786 0.633318 8.94889 1.41176 8.94889L22.5882 8.94889C23.3667 8.94889 24 8.31786 24 7.54224L24 5.72086C24 5.14334 23.6528 4.63141 23.1153 4.41591ZM12.7059 5.24466C12.7059 5.63308 12.3898 5.94799 12 5.94799C11.6102 5.94799 11.2941 5.63308 11.2941 5.24466L11.2941 3.74423C11.2941 3.35581 11.6102 3.04091 12 3.04091C12.3898 3.04091 12.7059 3.35581 12.7059 3.74423L12.7059 5.24466ZM6.68235 10.3555L2.25882 10.3555L2.25882 18.139L6.68235 18.139L6.68235 10.3555ZM9.78823 10.3555L14.2118 10.3555L14.2118 18.139L9.78823 18.139L9.78823 10.3555ZM17.3176 10.3555L21.7412 10.3555L21.7412 18.139L17.3176 18.139L17.3176 10.3555ZM1.41176 19.5456L22.5882 19.5456C23.3667 19.5456 24 20.1766 24 20.9523L24 22.5933C24 23.369 23.3667 24 22.5882 24L1.41176 24C0.633318 24 0 23.369 0 22.5933L0 20.9523C0 20.1766 0.633318 19.5456 1.41176 19.5456Z" fill="rgb(34,34,34)" fill-rule="evenodd" />
</svg>
