<svg viewBox="0 0 24 24" xmlns="http://www.w3.org/2000/svg" xmlns:xlink="http://www.w3.org/1999/xlink" width="24.000000" height="24.000000" fill="none" customFrame="#000000">
	<path id="icon" d="M24 10.1539L24 21.2308C24 21.9652 23.7082 22.6696 23.1889 23.1889C22.6696 23.7082 21.9652 24 21.2308 24L20 24C19.2656 24 18.5612 23.7082 18.0419 23.1889C17.5225 22.6696 17.2308 21.9652 17.2308 21.2308L17.2308 10.1539C17.2308 9.41945 17.5225 8.71509 18.0419 8.19576C18.5612 7.67643 19.2656 7.38467 20 7.38467L21.2308 7.38467C21.9652 7.38467 22.6696 7.67643 23.1889 8.19576C23.7082 8.71509 24 9.41945 24 10.1539ZM12.6154 11.077L11.3846 11.077C10.6502 11.077 9.94581 11.3687 9.42647 11.8881C8.90714 12.4074 8.61539 13.1117 8.61539 13.8462L8.61539 21.2308C8.61539 21.9652 8.90714 22.6696 9.42647 23.1889C9.94581 23.7082 10.6502 24 11.3846 24L12.6154 24C13.3498 24 14.0542 23.7082 14.5735 23.1889C15.0929 22.6696 15.3846 21.9652 15.3846 21.2308L15.3846 13.8462C15.3846 13.1117 15.0929 12.4074 14.5735 11.8881C14.0542 11.3687 13.3498 11.077 12.6154 11.077ZM4 14.7693L2.76923 14.7693C2.03479 14.7693 1.33042 15.061 0.811089 15.5803C0.291757 16.0997 1.09314e-15 16.804 0 17.5385L0 21.2308C5.46571e-16 21.9652 0.291757 22.6696 0.811089 23.1889C1.33042 23.7082 2.03479 24 2.76923 24L4 24C4.73445 24 5.43881 23.7082 5.95814 23.1889C6.47747 22.6696 6.76923 21.9652 6.76923 21.2308L6.76923 17.5385C6.76923 16.804 6.47747 16.0997 5.95814 15.5803C5.43881 15.061 4.73445 14.7693 4 14.7693ZM3.38462 11.6924L3.59385 11.6924L4.94769 11.3724C10.8698 9.95914 16.3604 7.1294 20.9477 3.12623L20.9477 4.61545C20.9477 4.86027 21.0449 5.09505 21.2181 5.26816C21.3912 5.44127 21.626 5.53852 21.8708 5.53852C22.1156 5.53852 22.3504 5.44127 22.5235 5.26816C22.6966 5.09505 22.7938 4.86027 22.7938 4.61545L22.7938 0.923156C22.7922 0.800317 22.7665 0.678997 22.718 0.566125C22.6695 0.453253 22.5992 0.351039 22.5112 0.265322C22.4232 0.179605 22.3192 0.112062 22.2051 0.066552C22.091 0.0210418 21.969 -0.0015449 21.8462 8.20356e-05L18.1538 8.20356e-05C17.909 8.20356e-05 17.6742 0.0973341 17.5011 0.270444C17.328 0.443554 17.2308 0.678341 17.2308 0.923156C17.2308 1.16797 17.328 1.40276 17.5011 1.57587C17.6742 1.74898 17.909 1.84623 18.1538 1.84623L19.5446 1.84623C15.2226 5.57513 10.0692 8.213 4.51692 9.53851L3.17538 9.85851C2.93613 9.89093 2.71909 10.0158 2.57082 10.2064C2.42255 10.3969 2.35484 10.638 2.38221 10.8779C2.40958 11.1178 2.52985 11.3374 2.71723 11.4896C2.90462 11.6419 3.1442 11.7147 3.38462 11.6924Z" fill="rgb(34,34,34)" fill-rule="evenodd" />
</svg>
