<svg xmlns="http://www.w3.org/2000/svg" version="1.1">
	

     <symbol  viewBox="0 0 14 14" fill="none" xmlns="http://www.w3.org/2000/svg" id="i-arrow-top">
            <path d="M12.2781 9.48999L12.2789 1.8925C12.28 1.77365 12.2327 1.66646 12.1555 1.58925M4.4999 1.71182L11.8523 1.46584C11.9711 1.4648 12.0783 1.51204 12.1555 1.58925M12.1555 1.58925L0.841797 12.903" stroke-width="1.5" stroke-linecap="round"/>
    </symbol>
    <symbol  viewBox="0 0 24 24" xmlns="http://www.w3.org/2000/svg" xmlns:xlink="http://www.w3.org/1999/xlink" width="24.000000" height="24.000000" fill="none" customFrame="#000000" id="i-chart">
                <path id="icon" d="M24 10.1539L24 21.2308C24 21.9652 23.7082 22.6696 23.1889 23.1889C22.6696 23.7082 21.9652 24 21.2308 24L20 24C19.2656 24 18.5612 23.7082 18.0419 23.1889C17.5225 22.6696 17.2308 21.9652 17.2308 21.2308L17.2308 10.1539C17.2308 9.41945 17.5225 8.71509 18.0419 8.19576C18.5612 7.67643 19.2656 7.38467 20 7.38467L21.2308 7.38467C21.9652 7.38467 22.6696 7.67643 23.1889 8.19576C23.7082 8.71509 24 9.41945 24 10.1539ZM12.6154 11.077L11.3846 11.077C10.6502 11.077 9.94581 11.3687 9.42647 11.8881C8.90714 12.4074 8.61539 13.1117 8.61539 13.8462L8.61539 21.2308C8.61539 21.9652 8.90714 22.6696 9.42647 23.1889C9.94581 23.7082 10.6502 24 11.3846 24L12.6154 24C13.3498 24 14.0542 23.7082 14.5735 23.1889C15.0929 22.6696 15.3846 21.9652 15.3846 21.2308L15.3846 13.8462C15.3846 13.1117 15.0929 12.4074 14.5735 11.8881C14.0542 11.3687 13.3498 11.077 12.6154 11.077ZM4 14.7693L2.76923 14.7693C2.03479 14.7693 1.33042 15.061 0.811089 15.5803C0.291757 16.0997 1.09314e-15 16.804 0 17.5385L0 21.2308C5.46571e-16 21.9652 0.291757 22.6696 0.811089 23.1889C1.33042 23.7082 2.03479 24 2.76923 24L4 24C4.73445 24 5.43881 23.7082 5.95814 23.1889C6.47747 22.6696 6.76923 21.9652 6.76923 21.2308L6.76923 17.5385C6.76923 16.804 6.47747 16.0997 5.95814 15.5803C5.43881 15.061 4.73445 14.7693 4 14.7693ZM3.38462 11.6924L3.59385 11.6924L4.94769 11.3724C10.8698 9.95914 16.3604 7.1294 20.9477 3.12623L20.9477 4.61545C20.9477 4.86027 21.0449 5.09505 21.2181 5.26816C21.3912 5.44127 21.626 5.53852 21.8708 5.53852C22.1156 5.53852 22.3504 5.44127 22.5235 5.26816C22.6966 5.09505 22.7938 4.86027 22.7938 4.61545L22.7938 0.923156C22.7922 0.800317 22.7665 0.678997 22.718 0.566125C22.6695 0.453253 22.5992 0.351039 22.5112 0.265322C22.4232 0.179605 22.3192 0.112062 22.2051 0.066552C22.091 0.0210418 21.969 -0.0015449 21.8462 8.20356e-05L18.1538 8.20356e-05C17.909 8.20356e-05 17.6742 0.0973341 17.5011 0.270444C17.328 0.443554 17.2308 0.678341 17.2308 0.923156C17.2308 1.16797 17.328 1.40276 17.5011 1.57587C17.6742 1.74898 17.909 1.84623 18.1538 1.84623L19.5446 1.84623C15.2226 5.57513 10.0692 8.213 4.51692 9.53851L3.17538 9.85851C2.93613 9.89093 2.71909 10.0158 2.57082 10.2064C2.42255 10.3969 2.35484 10.638 2.38221 10.8779C2.40958 11.1178 2.52985 11.3374 2.71723 11.4896C2.90462 11.6419 3.1442 11.7147 3.38462 11.6924Z" fill="rgb(34,34,34)" fill-rule="evenodd" />
    </symbol>
     <symbol  viewBox="0 0 24 24" fill="none" xmlns="http://www.w3.org/2000/svg" id="i-money">
                <path d="M6.63322 1.13366C6.41796 1.13366 6.27446 1.05269 6.0592 0.971721L4.62415 0.404919L6.56147 4.61544H11.0101L12.9474 0.404919L11.1536 1.05269C11.0101 1.13366 10.7949 1.13366 10.6514 1.13366C10.2926 1.13366 9.93384 0.971721 9.64683 0.647835C9.43157 0.323948 9.07281 6.10352e-05 8.64229 6.10352e-05C8.28353 6.10352e-05 7.85301 0.323948 7.63776 0.647835C7.27899 1.05269 6.99198 1.13366 6.63322 1.13366Z" fill="#222222"/>
                <path d="M11.0496 5.59704H6.74553C4.18637 7.62892 -1.57174 13.7246 0.405794 19.646C1.04558 21.5618 2.44149 22.839 4.65167 23.5356C5.58228 23.8259 6.68737 24.0001 7.85063 24.0001H9.88632C11.0496 24.0001 12.1547 23.8259 13.0853 23.5356C15.2955 22.839 16.6914 21.5618 17.3312 19.646C19.3668 13.7246 13.6669 7.62892 11.0496 5.59704ZM11.0496 17.7303C10.9333 17.9625 10.7588 18.1947 10.5843 18.3689C10.4098 18.543 10.119 18.7172 9.88632 18.7752C9.59551 18.8913 9.30469 18.9494 8.95572 19.0074L8.83939 20.1685V20.2266L8.78123 20.2846C8.72307 20.2846 8.72307 20.3427 8.6649 20.3427C8.60674 20.3427 8.54858 20.3427 8.43225 20.3427C8.31593 20.3427 8.1996 20.3427 8.14144 20.3427C8.08328 20.3427 8.02511 20.2846 7.96695 20.2846C7.90879 20.2846 7.90879 20.2266 7.90879 20.2266C7.90879 20.1685 7.90879 20.1685 7.90879 20.1105L8.02511 19.0074C7.85063 19.0074 7.7343 18.9494 7.61797 18.9494C7.50165 18.8913 7.38532 18.8913 7.269 18.8333C7.15267 18.7752 7.03635 18.7752 6.97818 18.7172C6.92002 18.6591 6.86186 18.6591 6.8037 18.6011C6.74553 18.543 6.74553 18.485 6.68737 18.4269C6.68737 18.3689 6.62921 18.2527 6.62921 18.0786C6.62921 17.9625 6.62921 17.8464 6.62921 17.7883C6.62921 17.7303 6.62921 17.6722 6.68737 17.6142C6.68737 17.5561 6.74553 17.5561 6.74553 17.498H6.86186C6.92002 17.498 6.97818 17.5561 7.09451 17.5561L7.44349 17.7303C7.55981 17.7883 7.7343 17.8464 7.96695 17.9044C8.14144 17.9625 8.37409 17.9625 8.6649 17.9625C9.07204 17.9625 9.36286 17.9044 9.59551 17.7303C9.82816 17.5561 9.88632 17.3819 9.88632 17.0917C9.88632 16.9175 9.82816 16.8014 9.77 16.6853C9.65367 16.5692 9.53734 16.4531 9.42102 16.395C9.24653 16.337 9.13021 16.2209 8.89755 16.1628C8.72307 16.1048 8.54858 16.0467 8.31593 15.9306C8.14144 15.8725 7.90879 15.7564 7.7343 15.6403C7.55981 15.5242 7.38532 15.4081 7.21083 15.292C7.09451 15.1178 6.97818 14.9437 6.86186 14.7695C6.74553 14.5373 6.74553 14.3051 6.74553 14.0148C6.74553 13.7246 6.8037 13.4923 6.86186 13.3182C6.97818 13.086 7.09451 12.9118 7.269 12.7376C7.44349 12.5635 7.61797 12.4474 7.90879 12.3313C8.14144 12.2152 8.43225 12.1571 8.72307 12.0991L8.83939 11.0541C8.83939 10.996 8.83939 10.996 8.83939 10.996L8.89755 10.938C8.95572 10.938 8.95572 10.8799 9.01388 10.8799H9.53734C9.59551 10.8799 9.65367 10.8799 9.71183 10.938C9.77 10.938 9.77 10.996 9.77 10.996V11.1121L9.65367 12.0991C9.77 12.0991 9.88632 12.1571 9.94448 12.1571C10.0608 12.1571 10.1771 12.2152 10.2353 12.2732C10.3516 12.3313 10.4098 12.3313 10.5261 12.3893C10.5843 12.4474 10.6424 12.4474 10.7006 12.5054C10.7588 12.5635 10.7588 12.5635 10.7588 12.6215C10.7588 12.6796 10.8169 12.6796 10.8169 12.7376V13.4343C10.8169 13.4923 10.8169 13.5504 10.7588 13.6084C10.7588 13.6665 10.7006 13.6665 10.7006 13.6665H10.6424C10.5843 13.6665 10.5261 13.6665 10.4098 13.6084C10.2935 13.5504 10.2353 13.4923 10.0608 13.4343C9.94448 13.3762 9.77 13.3182 9.59551 13.2601C9.42102 13.2021 9.24653 13.2021 9.01388 13.2021C8.83939 13.2021 8.6649 13.2021 8.54858 13.2601C8.43225 13.3182 8.31593 13.3182 8.1996 13.4343C8.14144 13.4923 8.08328 13.5504 8.02511 13.6665C7.96695 13.7826 7.96695 13.8407 7.96695 13.9568C7.96695 14.1309 8.02511 14.247 8.08327 14.3631C8.1996 14.4793 8.31593 14.5954 8.43225 14.6534C8.54858 14.7115 8.72307 14.8276 8.95572 14.8856C9.1302 14.9437 9.36286 15.0017 9.53734 15.1178C9.71183 15.1759 9.94448 15.292 10.119 15.4081C10.2935 15.5242 10.4679 15.6403 10.6424 15.7564C10.7588 15.8725 10.9333 16.0467 10.9914 16.2789C11.1077 16.5111 11.1077 16.7433 11.1077 17.0336C11.2241 17.2078 11.1659 17.44 11.0496 17.7303Z" fill="#222222"/>
                <path d="M19.665 13.7992L19.9901 13.5031V21.4097C19.9901 21.9032 20.4236 22.298 20.9655 22.298C21.5073 22.298 21.9409 21.9032 21.9409 21.4097V13.5031L22.266 13.7992C22.4827 13.9966 22.6995 14.0953 23.0246 14.0953C23.2414 14.0953 23.4581 13.9966 23.6749 13.8979C24.1084 13.6018 24.1084 13.0097 23.6749 12.6149L21.6157 10.641C21.5073 10.4436 21.2906 10.3449 20.9655 10.3449C20.6403 10.3449 20.4236 10.4436 20.3152 10.641L18.2561 12.6149C17.9309 13.0097 17.9309 13.5031 18.2561 13.8979C18.6896 14.194 19.3398 14.194 19.665 13.7992Z" fill="#222222"/>
    </symbol>
    <symbol  viewBox="0 0 24 24" fill="none" xmlns="http://www.w3.org/2000/svg">
            <path d="M17.3176 10.3556H21.7412V18.139H17.3176V10.3556Z" fill="#222222"/>
            <path d="M9.78823 10.3556H14.2118V18.139H9.78823V10.3556Z" fill="#222222"/>
            <path d="M22.5882 19.5457C21.8776 19.5457 2.27181 19.5457 1.41176 19.5457C0.633318 19.5457 0 20.1767 0 20.9523V22.5934C0 23.369 0.633318 24.0001 1.41176 24.0001H22.5882C23.3667 24.0001 24 23.369 24 22.5934V20.9523C24 20.1767 23.3667 19.5457 22.5882 19.5457Z" fill="#222222"/>
            <path d="M23.1153 4.41597C12.2412 -0.0141815 12.5322 0.104306 12.5244 0.101164C12.1888 -0.0326082 11.8158 -0.0353278 11.4707 0.103134L0.884706 4.41597C0.347153 4.63147 8.01178e-10 5.1434 8.01178e-10 5.72092V7.5423C8.01178e-10 8.31793 0.633318 8.94895 1.41176 8.94895H22.5882C23.3667 8.94895 24 8.31793 24 7.5423V5.72092C24 5.1434 23.6528 4.63147 23.1153 4.41597ZM12.7059 5.24472C12.7059 5.63315 12.3898 5.94805 12 5.94805C11.6102 5.94805 11.2941 5.63315 11.2941 5.24472V3.74429C11.2941 3.35587 11.6102 3.04097 12 3.04097C12.3898 3.04097 12.7059 3.35587 12.7059 3.74429V5.24472Z" fill="#222222"/>
            <path d="M2.25882 10.3556H6.68235V18.139H2.25882V10.3556Z" fill="#222222"/>
    </symbol>
<script xmlns=""/>
</svg>