<svg width="80" height="80" viewBox="0 0 80 80" fill="none" xmlns="http://www.w3.org/2000/svg">
<g clip-path="url(#clip0_205_2533)">
<rect width="80" height="80" rx="40" fill="#69229A"/>
<g clip-path="url(#clip1_205_2533)">
<rect width="80" height="80" rx="40" fill="#B93B95"/>
<path fill-rule="evenodd" clip-rule="evenodd" d="M38.249 13H40.868V13.1403H41.5695V13.2806H42.0138V13.4209H42.4113V13.5612H42.8322V13.7015H43.1128V13.8184H43.3934V13.9821H43.6506V14.1224H43.9312V14.2627H44.0949V14.403H44.3521V14.5199H44.5158V14.6836H44.7964V14.8006H44.9133V14.9642H45.077V15.0812H45.1939V15.2215H45.3343V15.3851H45.4979V15.5021H45.6149V15.6657H45.7552V15.7827H45.8955V15.923H46.0358V16.0633H46.1761V16.3439H46.3164V16.4842H46.4567V16.6245H46.597V16.9051H46.7373V17.0454H46.8776V17.3026H47.0179V17.5832H47.1348V17.8872H47.2985V18.1678H47.4154V18.5653H47.5791V18.9862H47.696V19.5475H47.8597V20.3893H48V22.6107H47.8597V23.3122H47.696V23.8501H47.5791V24.2944H47.4154V24.7153H47.2985V24.9959H47.1348V25.2531H47.0179V25.5337H46.8776V25.8143H46.7373V25.9546H46.597V26.2352H46.4567V26.3755H46.3164V26.6561H46.1761V26.7964H46.0358V26.9367H45.8955V27.077H45.7552V27.2173H45.6149V27.3343H45.4979V27.4979H45.3343V27.6149H45.1939V27.7785H45.077V27.9188H44.9133V28.0358H44.7964V28.1995H44.5158V28.3164H44.3521V28.4801H44.2352V28.597H43.9312V28.7373H43.6506V28.901H43.5337V29.0179H43.2531V29.1816H42.8322V29.2985H42.5516V29.4622H42.1307V29.5791H41.7332V29.7194H41.0316V29.8597H39.6286V30H39.348V29.8597H37.945V29.7194H37.3838V29.5791H36.9862V29.4622H36.5653V29.2985H36.1444V29.1816H35.8638V29.0179H35.5832V28.901H35.3026V28.7373H35.022V28.597H34.8817V28.4801H34.6011V28.3164H34.4842V28.1995H34.3205V28.0358H34.0633V27.9188H33.8996V27.7785H33.7827V27.6149H33.619V27.4979H33.5021V27.3343H33.3618V27.2173H33.2215V27.077H33.0812V26.9367H32.9409V26.6561H32.8006V26.5158H32.6602V26.3755H32.5199V26.0949H32.3796V25.9546H32.2627V25.6974H32.099V25.4168H31.9821V25.1128H31.8184V24.8322H31.6781V24.5516H31.5612V24.1541H31.3975V23.7332H31.2806V23.0316H31.1169V22.0495H31V20.9505H31.1169V19.8281H31.2806V19.1499H31.3975V18.7056H31.5612V18.2847H31.6781V18.0275H31.8184V17.7469H31.9821V17.4663H32.099V17.1857H32.2627V16.9051H32.3796V16.7648H32.5199V16.4842H32.6602V16.3439H32.8006V16.2036H32.9409V16.0633H33.0812V15.7827H33.2215V15.6657H33.3618V15.5021H33.5021V15.3851H33.619V15.2215H33.7827V15.0812H33.8996V14.9642H34.1802V14.8006H34.3205V14.6836H34.4842V14.5199H34.7648V14.403H34.8817V14.2627H35.1623V14.1224H35.3026V13.9821H35.5832V13.8184H35.8638V13.7015H36.2847V13.5612H36.5653V13.4209H36.9862V13.2806H37.5475V13.1403H38.249V13Z" fill="white" fill-opacity="0.6"/>
<path fill-rule="evenodd" clip-rule="evenodd" d="M29.5299 31H49.2022V31.1136H50.2963V31.2727H50.9662V31.3863H51.3458V31.5453H51.7477V31.6589H52.1497V31.7952H52.4176V31.9543H52.6856V32.0679H52.9535V32.2269H53.1992V32.3405H53.4671V32.4769H53.6234V32.6132H53.869V32.7495H54.003V32.8631H54.137V33.0222H54.2933V33.1812H54.5613V33.2948H54.6729V33.4312H54.8069V33.5675H54.9409V33.7038H55.0748V33.8174H55.2088V33.9765H55.3428V34.0901H55.4768V34.3854H55.6107V34.499H55.7447V34.6581H55.8564V34.9307H56.0127V35.0443H56.1243V35.317H56.2806V35.4533H56.4146V35.726H56.5263V35.9986H56.6826V36.2486H56.7942V36.5212H56.9505V36.8166H57.0622V37.2028H57.1961V37.6345H57.3301V38.0435H57.4641V38.4298H57.6204V38.9751H57.732V39.793H57.8884V41.02H58V67.6718H57.8884V68.3534H57.732V68.7624H57.6204V69.035H57.4641V69.3077H57.3301V69.444H57.1961V69.7167H57.0622V69.8303H56.9505V69.9893H56.7942V70.1029H56.5263V70.262H56.4146V70.3983H56.1243V70.5119H55.8564V70.671H55.3428V70.7846H54.2933V70.671H53.7351V70.5119H53.4671V70.3983H53.1992V70.262H53.0875V70.1029H52.7972V69.9893H52.6856V69.8303H52.5293V69.7167H52.4176V69.444H52.2836V69.3077H52.1497V69.035H52.0157V68.7624H51.8817V68.3534H51.7477V67.6718H51.6138V42.3605H49.6041V109.91H49.4925V110.615H49.3585V111.024H49.2022V111.296H49.0905V111.546H48.9565V111.819H48.8226V111.955H48.6886V112.228H48.5546V112.364H48.4206V112.5H48.2867V112.614H48.1527V112.773H48.0187V112.887H47.7508V113.046H47.6391V113.159H47.3712V113.318H47.2148V113.455H46.9692V113.568H46.545V113.727H46.1654V113.841H45.2275V114H44.8256V113.841H44.0441V113.727H43.5081V113.568H43.2179V113.455H42.9499V113.318H42.7043V113.159H42.5703V113.046H42.3024V112.887H42.1684V112.773H42.0344V112.614H41.9004V112.5H41.7664V112.364H41.6325V112.228H41.4985V112.091H41.3868V111.819H41.2305V111.682H41.1189V111.41H40.9626V111.137H40.8286V110.728H40.717V110.342H40.5607V70.5119H38.4393V110.456H38.3054V110.865H38.1714V111.137H38.0374V111.41H37.9034V111.682H37.7918V111.955H37.6355V112.091H37.5015V112.228H37.3675V112.364H37.2336V112.5H37.1219V112.614H36.9656V112.773H36.854V112.887H36.72V113.046H36.586V113.159H36.2957V113.318H36.0501V113.455H35.7821V113.568H35.5142V113.727H34.9783V113.841H34.1967V114H33.7948V113.841H32.857V113.727H32.455V113.568H32.1871V113.455H31.8075V113.318H31.6512V113.159H31.3832V113.046H31.2492V112.887H30.9813V112.773H30.8696V112.614H30.7133V112.5H30.6017V112.364H30.4677V112.091H30.3114V111.955H30.1998V111.682H30.0435V111.546H29.9318V111.296H29.7978V110.865H29.6639V110.456H29.5299V109.91H29.3959V42.3605H27.3862V67.6718H27.2746V68.3534H27.1406V68.7624H27.0066V69.035H26.8727V69.3077H26.7164V69.444H26.6047V69.7167H26.4484V69.8303H26.3368V69.9893H26.0688V70.1029H25.9348V70.262H25.6669V70.3983H25.3989V70.5119H25.131V70.671H24.3271V70.7846H23.9475V70.671H23.2776V70.5119H22.8757V70.3983H22.6077V70.262H22.4961V70.1029H22.2058V69.9893H22.0718V69.8303H21.9378V69.7167H21.8039V69.444H21.6699V69.3077H21.5582V69.1714H21.4019V68.7624H21.2903V68.4897H21.1563V67.9672H21V40.1793H21.1563V39.3841H21.2903V38.7024H21.4019V38.1571H21.5582V37.7482H21.6699V37.3619H21.8039V36.9529H21.9378V36.6803H22.0718V36.2486H22.2058V35.9986H22.3398V35.8623H22.4961V35.6124H22.6077V35.317H22.7417V35.1807H22.8757V34.9307H23.0097V34.7717H23.1213V34.499H23.2776V34.3854H23.3893V34.2491H23.5456V34.0901H23.6795V33.8174H23.7912V33.7038H23.9475V33.5675H24.0591V33.4312H24.2154V33.2948H24.4611V33.1812H24.6174V33.0222H24.729V32.8631H24.8853V32.7495H25.131V32.6132H25.2649V32.4769H25.5329V32.3405H25.6669V32.2269H25.9348V32.0679H26.2028V31.9543H26.4484V31.7952H26.7164V31.6589H27.1406V31.5453H27.5425V31.3863H27.9221V31.2727H28.4804V31.1136H29.5299V31Z" fill="white" fill-opacity="0.6"/>
<circle cx="39.5" cy="49.5" r="6.5" fill="white"/>
<circle cx="39.5" cy="49.5" r="9.5" fill="white" fill-opacity="0.5"/>
</g>
</g>
<defs>
<clipPath id="clip0_205_2533">
<rect width="80" height="80" rx="40" fill="white"/>
</clipPath>
<clipPath id="clip1_205_2533">
<rect width="80" height="80" rx="40" fill="white"/>
</clipPath>
</defs>
</svg>
