<svg width="80" height="80" viewBox="0 0 80 80" fill="none" xmlns="http://www.w3.org/2000/svg">
<rect width="80" height="80" rx="40" fill="#3579A2"/>
<g clip-path="url(#clip0_205_2562)">
<path fill-rule="evenodd" clip-rule="evenodd" d="M31.5691 15H32.8591V15.07H33.1991V15.14H33.3991V15.21H33.5991V15.27H33.8091V15.34H33.9391V15.4H34.0791V15.48H34.2091V15.55H34.3491V15.61H34.4191V15.69H34.5491V15.75H34.6291V15.82H34.7591V15.88H34.8191V15.95H34.8991V16.01H34.9591V16.09H35.0291V16.16H35.1091V16.22H35.1691V16.3H35.2391V16.36H35.2991V16.43H35.3691V16.49H35.4391V16.63H35.5091V16.7H35.5691V16.77H35.6391V16.91H35.7191V16.97H35.7791V17.1H35.8491V17.24H35.9091V17.38H35.9791V17.52H36.0491V17.71H36.1191V17.92H36.1791V18.19H36.2491V18.61H36.3291V19.68H36.2491V20.03H36.1791V20.29H36.1191V20.5H36.0491V20.71H35.9791V20.84H35.9091V20.98H35.8491V21.11H35.7791V21.25H35.7191V21.32H35.6391V21.46H35.5691V21.52H35.5091V21.66H35.4391V21.72H35.3691V21.8H35.2991V21.86H35.2391V21.93H35.1691V21.99H35.1091V22.07H35.0291V22.13H34.9591V22.2H34.8991V22.27H34.8191V22.34H34.7591V22.41H34.6291V22.47H34.5491V22.54H34.4891V22.6H34.3491V22.68H34.2091V22.75H34.1491V22.81H34.0191V22.89H33.8091V22.95H33.6791V23.02H33.4691V23.08H33.2691V23.15H32.9291V23.22H32.2391V23.29H32.1091V23.22H31.4291V23.15H31.1591V23.08H30.9591V23.02H30.7491V22.95H30.5391V22.89H30.4091V22.81H30.2791V22.75H30.1391V22.68H30.0091V22.6H29.9291V22.54H29.7991V22.47H29.7391V22.41H29.6591V22.34H29.5291V22.27H29.4591V22.2H29.3891V22.13H29.3191V22.07H29.2591V21.99H29.1891V21.93H29.1291V21.86H29.0491V21.8H28.9791V21.66H28.9191V21.59H28.8391V21.52H28.7791V21.38H28.7091V21.32H28.6491V21.19H28.5791V21.05H28.5091V20.91H28.4391V20.77H28.3691V20.64H28.3091V20.44H28.2291V20.23H28.1691V19.89H28.0991V19.41H28.0391V18.88H28.0991V18.33H28.1691V18H28.2291V17.79H28.3091V17.58H28.3691V17.44H28.4391V17.31H28.5091V17.18H28.5791V17.04H28.6491V16.91H28.7091V16.83H28.7791V16.7H28.8391V16.63H28.9191V16.56H28.9791V16.49H29.0491V16.36H29.1291V16.3H29.1891V16.22H29.2591V16.16H29.3191V16.09H29.3891V16.01H29.4591V15.95H29.5891V15.88H29.6591V15.82H29.7391V15.75H29.8691V15.69H29.9291V15.61H30.0691V15.55H30.1391V15.48H30.2791V15.4H30.4091V15.34H30.6191V15.27H30.7491V15.21H30.9591V15.14H31.2291V15.07H31.5691V15Z" fill="white"/>
<path fill-rule="evenodd" clip-rule="evenodd" d="M27.35 24.1094H37.4V24.1694H37.95V24.2394H38.29V24.2994H38.49V24.3794H38.7V24.4394H38.91V24.5094H39.04V24.5894H39.18V24.6494H39.31V24.7194H39.45V24.7794H39.58V24.8494H39.65V24.9194H39.79V24.9894H39.85V25.0494H39.92V25.1194H40V25.1994H40.13V25.2594H40.19V25.3294H40.26V25.3894H40.33V25.4594H40.4V25.5294H40.47V25.5994H40.53V25.6594H40.61V25.8094H40.67V25.8694H40.74V25.9394H40.8V26.0794H40.88V26.1394H40.94V26.2694H41.01V26.3494H41.08V26.4794H41.14V26.6194H41.22V26.7494H41.28V26.8794H41.35V27.0294H41.41V27.2294H41.49V27.4294H41.55V27.6394H41.62V27.8394H41.7V28.1094H41.75V28.5194H41.83V29.1294H41.89V42.5094H41.83V42.8494H41.75V43.0594H41.7V43.1894H41.62V43.3294H41.55V43.3994H41.49V43.5394H41.41V43.5994H41.35V43.6694H41.28V43.7294H41.14V43.7994H41.08V43.8794H40.94V43.9394H40.8V44.0094H40.53V44.0694H40V44.0094H39.71V43.9394H39.58V43.8794H39.45V43.7994H39.38V43.7294H39.24V43.6694H39.18V43.5994H39.1V43.5394H39.04V43.3994H38.97V43.3294H38.91V43.1894H38.83V43.0594H38.77V42.8494H38.7V42.5094H38.63V29.8094H37.61V63.7094H37.55V64.0494H37.48V64.2594H37.4V64.3994H37.34V64.5294H37.27V64.6594H37.21V64.7294H37.13V64.8694H37.07V64.9294H37V65.0094H36.94V65.0694H36.87V65.1394H36.79V65.1994H36.66V65.2694H36.6V65.3394H36.46V65.4094H36.39V65.4794H36.25V65.5494H36.05V65.6194H35.85V65.6794H35.37V65.7494H35.16V65.6794H34.76V65.6194H34.49V65.5494H34.35V65.4794H34.21V65.4094H34.08V65.3394H34.02V65.2694H33.88V65.1994H33.81V65.1394H33.73V65.0694H33.67V65.0094H33.6V64.9294H33.54V64.8694H33.47V64.7994H33.4V64.6594H33.33V64.5894H33.27V64.4594H33.2V64.3194H33.12V64.1094H33.06V63.9194H32.99V43.9394H31.9V63.9794H31.84V64.1894H31.77V64.3194H31.71V64.4594H31.63V64.5894H31.57V64.7294H31.5V64.7994H31.42V64.8694H31.36V64.9294H31.29V65.0094H31.23V65.0694H31.16V65.1394H31.09V65.1994H31.02V65.2694H30.96V65.3394H30.81V65.4094H30.68V65.4794H30.54V65.5494H30.41V65.6194H30.14V65.6794H29.74V65.7494H29.53V65.6794H29.05V65.6194H28.84V65.5494H28.71V65.4794H28.51V65.4094H28.44V65.3394H28.31V65.2694H28.23V65.1994H28.1V65.1394H28.04V65.0694H27.96V65.0094H27.9V64.9294H27.83V64.7994H27.76V64.7294H27.7V64.5894H27.62V64.5294H27.56V64.3994H27.49V64.1894H27.43V63.9794H27.35V63.7094H27.29V29.8094H26.27V42.5094H26.2V42.8494H26.13V43.0594H26.07V43.1894H26V43.3294H25.92V43.3994H25.86V43.5394H25.79V43.5994H25.73V43.6694H25.59V43.7294H25.52V43.7994H25.38V43.8794H25.25V43.9394H25.12V44.0094H24.7V44.0694H24.5V44.0094H24.16V43.9394H23.95V43.8794H23.82V43.7994H23.76V43.7294H23.61V43.6694H23.55V43.5994H23.48V43.5394H23.41V43.3994H23.34V43.3294H23.28V43.2694H23.21V43.0594H23.15V42.9294H23.07V42.6594H23V28.7194H23.07V28.3094H23.15V27.9694H23.21V27.6994H23.28V27.4894H23.34V27.2994H23.41V27.0894H23.48V26.9594H23.55V26.7494H23.61V26.6194H23.69V26.5494H23.76V26.4194H23.82V26.2694H23.89V26.2094H23.95V26.0794H24.03V25.9994H24.09V25.8694H24.16V25.8094H24.22V25.7294H24.3V25.6594H24.37V25.5294H24.43V25.4594H24.5V25.3894H24.56V25.3294H24.64V25.2594H24.77V25.1994H24.85V25.1194H24.91V25.0494H24.98V24.9894H25.12V24.9194H25.18V24.8494H25.31V24.7794H25.38V24.7194H25.52V24.6494H25.65V24.5894H25.79V24.5094H25.92V24.4394H26.13V24.3794H26.34V24.2994H26.53V24.2394H26.81V24.1694H27.35V24.1094Z" fill="white"/>
<path fill-rule="evenodd" clip-rule="evenodd" d="M45.1295 46.2507C46.2603 45.1943 47.0532 43.8268 47.4083 42.3206C47.7634 40.8143 47.6648 39.2367 47.1249 37.7864C46.585 36.3361 45.6279 35.078 44.3743 34.1706C43.1207 33.2633 41.6266 32.7472 40.0802 32.6875C38.5338 32.6277 37.0043 33.027 35.6844 33.8349C34.3645 34.6428 33.3133 35.8233 32.6631 37.2276C32.0129 38.632 31.7928 40.1973 32.0306 41.7264C32.2684 43.2556 32.9535 44.6802 33.9995 45.8207C34.6989 46.578 35.5407 47.19 36.4769 47.6215C37.4131 48.0531 38.4252 48.2958 39.4553 48.3357C40.4854 48.3756 41.5132 48.212 42.48 47.8543C43.4468 47.4965 44.3335 46.9516 45.0895 46.2507" fill="#007BA6"/>
<g opacity="0.4">
<path fill-rule="evenodd" clip-rule="evenodd" d="M44.1702 45.2196C45.1038 44.3564 45.7605 43.2358 46.0573 41.9994C46.3542 40.7631 46.2778 39.4664 45.8378 38.2735C45.3979 37.0805 44.6141 36.0448 43.5856 35.2972C42.557 34.5496 41.33 34.1237 40.0595 34.0734C38.7889 34.0231 37.532 34.3506 36.4476 35.0145C35.3632 35.6784 34.5 36.6489 33.967 37.8034C33.4341 38.9578 33.2554 40.2443 33.4535 41.5003C33.6517 42.7563 34.2177 43.9253 35.0802 44.8596C35.6532 45.4804 36.3429 45.9822 37.11 46.3363C37.877 46.6904 38.7064 46.8899 39.5505 46.9233C40.3947 46.9568 41.2372 46.8235 42.0299 46.5312C42.8225 46.2388 43.5498 45.7932 44.1702 45.2196Z" fill="white"/>
</g>
<path d="M39.8106 47.42H39.5306C37.6123 47.3831 35.7862 46.5904 34.4492 45.2143C33.1122 43.8382 32.3725 41.9899 32.391 40.0713C32.4094 38.1528 33.1845 36.3191 34.5477 34.9689C35.9109 33.6187 37.752 32.8613 39.6706 32.8613C41.5893 32.8613 43.4304 33.6187 44.7936 34.9689C46.1567 36.3191 46.9318 38.1528 46.9503 40.0713C46.9687 41.9899 46.2291 43.8382 44.8921 45.2143C43.5551 46.5904 41.7289 47.3831 39.8106 47.42ZM39.8106 34.56C38.8448 34.5568 37.8928 34.7896 37.0375 35.2381C36.1821 35.6867 35.4493 36.3373 34.9026 37.1335C34.3559 37.9298 34.012 38.8475 33.9008 39.8068C33.7895 40.7662 33.9143 41.7383 34.2642 42.6385C34.6141 43.5387 35.1786 44.3398 35.9087 44.9721C36.6387 45.6045 37.5121 46.049 38.453 46.267C39.3939 46.4849 40.3738 46.4698 41.3075 46.2228C42.2412 45.9759 43.1005 45.5046 43.8106 44.85C44.3831 44.3223 44.8457 43.6866 45.1717 42.9796C45.4978 42.2725 45.6809 41.508 45.7106 40.73C45.7471 39.951 45.627 39.1726 45.3573 38.4409C45.0877 37.7091 44.6739 37.039 44.1406 36.47C43.5891 35.8683 42.9184 35.3878 42.1713 35.059C41.4242 34.7302 40.6169 34.5602 39.8006 34.56H39.8106Z" fill="white"/>
<path fill-rule="evenodd" clip-rule="evenodd" d="M55.3782 59.4102L45.5782 48.8102C45.3263 48.537 45.1932 48.175 45.2082 47.8036C45.2232 47.4323 45.3851 47.0822 45.6582 46.8302C45.9314 46.5782 46.2935 46.4451 46.6648 46.4601C47.0361 46.4751 47.3863 46.637 47.6382 46.9102L57.4382 57.5102C57.563 57.6455 57.6599 57.804 57.7234 57.9767C57.7869 58.1494 57.8157 58.3329 57.8083 58.5168C57.8009 58.7006 57.7573 58.8812 57.6801 59.0482C57.6029 59.2153 57.4935 59.3654 57.3582 59.4902C57.223 59.615 57.0645 59.7118 56.8918 59.7753C56.7191 59.8388 56.5355 59.8677 56.3517 59.8603C55.9804 59.8453 55.6302 59.6834 55.3782 59.4102Z" fill="white"/>
<path d="M44.5697 44.8395L43.7617 45.5859L46.3809 48.4213L47.1889 47.6749L44.5697 44.8395Z" fill="white"/>
</g>
<defs>
<clipPath id="clip0_205_2562">
<rect width="34.81" height="50.75" fill="white" transform="translate(23 15)"/>
</clipPath>
</defs>
</svg>
