<svg width="80" height="80" viewBox="0 0 80 80" fill="none" xmlns="http://www.w3.org/2000/svg">
<g clip-path="url(#clip0_220_3966)">
<path d="M39.9868 74.2716C33.2057 74.2716 26.5769 72.2608 20.9387 68.4934C15.3004 64.7261 10.9059 59.3714 8.3109 53.1065C5.7159 46.8416 5.03693 39.9479 6.35985 33.2971C7.68277 26.6463 10.9482 20.5372 15.7431 15.7422C20.5381 10.9473 26.6472 7.68189 33.298 6.35897C39.9487 5.03604 46.8424 5.71502 53.1073 8.31002C59.3722 10.905 64.7269 15.2995 68.4943 20.9378C72.2617 26.576 74.2725 33.2048 74.2725 39.9859C74.2762 44.4894 73.3919 48.9494 71.6702 53.1109C69.9485 57.2723 67.4232 61.0534 64.2387 64.2378C61.0542 67.4223 57.2731 69.9476 53.1117 71.6693C48.9503 73.391 44.4903 74.2753 39.9868 74.2716ZM39.9868 0C32.0715 1.96826e-06 24.3341 2.3475 17.7532 6.74556C11.1723 11.1436 6.04361 17.3946 3.01586 24.7079C-0.0118774 32.0212 -0.802641 40.0681 0.743601 47.8309C2.28984 55.5936 6.10362 62.7234 11.7025 68.3183C17.3014 73.9133 24.4339 77.722 32.1977 79.2628C39.9616 80.8036 48.0079 80.0071 55.3191 76.9742C62.6302 73.9413 68.8776 68.8082 73.271 62.2242C77.6644 55.6402 80.0065 47.9011 80.0009 39.9859C79.9934 29.3784 75.7743 19.2079 68.271 11.7099C60.7678 4.21188 50.5943 -2.63773e-06 39.9868 0" fill="#077CA8"/>
<path d="M62.0794 23.7034C61.5507 23.1778 60.8355 22.8828 60.09 22.8828C59.3445 22.8828 58.6293 23.1778 58.1006 23.7034L31.575 50.229L22.0089 40.8321C21.4813 40.2895 20.7597 39.9788 20.0029 39.9682C19.2462 39.9576 18.5162 40.2481 17.9736 40.7757C17.431 41.3033 17.1202 42.0249 17.1097 42.7817C17.0991 43.5384 17.3895 44.2684 17.9172 44.811L29.3457 56.0984C29.6085 56.3672 29.9224 56.5808 30.2689 56.7266C30.6154 56.8724 30.9875 56.9475 31.3634 56.9475C31.7393 56.9475 32.1114 56.8724 32.4579 56.7266C32.8044 56.5808 33.1182 56.3672 33.381 56.0984L62.0794 27.7387C62.3482 27.4759 62.5618 27.162 62.7076 26.8155C62.8534 26.469 62.9285 26.0969 62.9285 25.721C62.9285 25.3451 62.8534 24.973 62.7076 24.6265C62.5618 24.2801 62.3482 23.9662 62.0794 23.7034Z" fill="#077CA8"/>
</g>
<defs>
<clipPath id="clip0_220_3966">
<rect width="80" height="80" fill="white"/>
</clipPath>
</defs>
</svg>
