<svg width="80" height="80" viewBox="0 0 80 80" fill="none" xmlns="http://www.w3.org/2000/svg">
<rect width="80" height="80" rx="40" fill="#B93B95"/>
<g clip-path="url(#clip0_205_2591)">
<path d="M70.9988 38.6403C66.1346 33.8345 60.4214 29.9725 54.1488 27.2503C49.2826 25.0881 44.0137 23.9805 38.6888 24.0003C35.4246 24.0377 32.1835 24.5532 29.0688 25.5303C23.2031 27.341 17.7191 30.2118 12.8888 34.0003C10.9988 35.3803 9.30881 37.0003 7.55881 38.5103C6.79881 39.1803 6.82881 39.2303 7.55881 39.9503C12.5267 44.7834 18.3487 48.6523 24.7288 51.3603C33.293 55.1685 43.0143 55.4417 51.7788 52.1203C59.0062 49.4128 65.5774 45.2035 71.0588 39.7703C71.6188 39.2203 71.6188 39.2103 71.0588 38.6403M9.65881 39.2103C15.6281 33.6286 22.8194 29.5193 30.6588 27.2103C28.7795 28.5484 27.2361 30.3041 26.1499 32.3394C25.0638 34.3747 24.4643 36.6342 24.3988 38.9403C24.3048 41.2263 24.7385 43.5033 25.6662 45.5947C26.594 47.6861 27.991 49.5357 29.7488 51.0003C22.25 48.6128 15.377 44.5853 9.62881 39.2103M39.4788 52.3803C36.8965 52.4359 34.3561 51.721 32.1817 50.3268C30.0074 48.9326 28.2976 46.9222 27.2706 44.5522C26.2436 42.1822 25.9459 39.56 26.4154 37.0201C26.8849 34.4802 28.1005 32.1377 29.9069 30.2915C31.7133 28.4453 34.0288 27.1791 36.5579 26.6544C39.087 26.1296 41.7151 26.3702 44.1068 27.3454C46.4986 28.3205 48.5457 29.9861 49.987 32.1296C51.4282 34.2731 52.1982 36.7973 52.1988 39.3803C52.1996 42.7801 50.8685 46.045 48.4907 48.4751C46.113 50.9051 42.8779 52.307 39.4788 52.3803ZM48.6488 51.0003C50.4516 49.5494 51.8873 47.6942 52.8394 45.585C53.7914 43.4759 54.2332 41.172 54.1288 38.8603C54.056 36.5637 53.4542 34.315 52.3701 32.2891C51.2861 30.2633 49.7491 28.5149 47.8788 27.1803C55.6902 29.4996 62.8531 33.6084 68.7988 39.1803C64.7988 43.5703 53.9388 50.0003 48.6488 51.0003ZM39.2488 33.6003C37.7109 33.608 36.2375 34.2189 35.1454 35.3017C34.0533 36.3844 33.4297 37.8525 33.4088 39.3903C33.4029 40.5418 33.7387 41.6691 34.3737 42.6297C35.0087 43.5903 35.9144 44.3409 36.9761 44.7866C38.0379 45.2323 39.208 45.353 40.3384 45.1335C41.4688 44.9139 42.5086 44.364 43.3264 43.5532C44.1441 42.7425 44.7029 41.7074 44.9322 40.579C45.1615 39.4505 45.0508 38.2794 44.6143 37.2139C44.1778 36.1483 43.4349 35.2362 42.4798 34.5929C41.5248 33.9497 40.4003 33.6042 39.2488 33.6003ZM39.2488 43.2503C38.4889 43.2463 37.7473 43.0169 37.1178 42.5912C36.4883 42.1656 35.9993 41.5627 35.7126 40.8589C35.426 40.1552 35.3546 39.3822 35.5074 38.6378C35.6603 37.8935 36.0306 37.2112 36.5714 36.6774C37.1122 36.1436 37.7993 35.7822 38.5455 35.6391C39.2918 35.4959 40.0638 35.5774 40.7638 35.8732C41.4637 36.169 42.0602 36.6659 42.4776 37.3009C42.8951 37.9358 43.1147 38.6804 43.1088 39.4403C43.1102 39.9452 43.0109 40.4454 42.8168 40.9115C42.6227 41.3777 42.3376 41.8005 41.9783 42.1552C41.6189 42.5099 41.1924 42.7895 40.7238 42.9775C40.2551 43.1655 39.7537 43.2582 39.2488 43.2503Z" fill="white"/>
<path d="M22.791 46.1006C22.6824 46.1023 22.5763 46.0678 22.4894 46.0027C22.4025 45.9375 22.3398 45.8453 22.311 45.7406C21.1984 41.5804 21.1984 37.2009 22.311 33.0406C22.3523 32.9144 22.4413 32.8093 22.5589 32.7477C22.6766 32.6861 22.8136 32.6728 22.941 32.7106C23.0664 32.7498 23.1714 32.8369 23.2331 32.9529C23.2949 33.0689 23.3085 33.2046 23.271 33.3306C22.2306 37.3104 22.2306 41.4908 23.271 45.4706C23.3054 45.5979 23.2892 45.7335 23.2258 45.8491C23.1625 45.9647 23.0568 46.0512 22.931 46.0906L22.791 46.1006Z" fill="white"/>
<path d="M19.7694 44.8093C19.6616 44.8078 19.5571 44.7721 19.4709 44.7074C19.3846 44.6427 19.3211 44.5524 19.2894 44.4493C18.3931 41.1355 18.3931 37.6431 19.2894 34.3293C19.3286 34.2039 19.4157 34.0989 19.5317 34.0371C19.6478 33.9754 19.7834 33.9618 19.9094 33.9993C20.0356 34.0407 20.1407 34.1297 20.2023 34.2473C20.264 34.365 20.2773 34.502 20.2394 34.6293C19.4245 37.7571 19.4245 41.0415 20.2394 44.1693C20.2592 44.2323 20.2661 44.2987 20.2596 44.3644C20.2531 44.4302 20.2333 44.4939 20.2016 44.5518C20.1698 44.6097 20.1267 44.6606 20.0748 44.7014C20.0228 44.7423 19.9632 44.7722 19.8994 44.7893C19.8579 44.8049 19.8137 44.8117 19.7694 44.8093Z" fill="white"/>
<path d="M16.439 43.1608C16.3382 43.1513 16.2426 43.1119 16.1642 43.0478C16.0859 42.9837 16.0284 42.8977 15.999 42.8008C15.4066 40.5729 15.4066 38.2288 15.999 36.0008C16.0482 35.8885 16.1368 35.7981 16.2482 35.7469C16.3596 35.6957 16.4859 35.6872 16.6031 35.723C16.7204 35.7587 16.8204 35.8364 16.8841 35.9411C16.9479 36.0457 16.971 36.1702 16.949 36.2908C16.411 38.3428 16.411 40.4988 16.949 42.5508C16.9828 42.6781 16.9649 42.8135 16.8994 42.9278C16.8339 43.042 16.7259 43.1257 16.599 43.1608C16.5466 43.1744 16.4915 43.1744 16.439 43.1608Z" fill="white"/>
<path d="M55.9383 46.1004C55.8888 46.1101 55.8378 46.1101 55.7883 46.1004C55.6629 46.0612 55.5579 45.9741 55.4961 45.8581C55.4344 45.7421 55.4208 45.6064 55.4583 45.4804C56.4987 41.5006 56.4987 37.3202 55.4583 33.3404C55.4225 33.2078 55.4409 33.0664 55.5093 32.9473C55.5778 32.8282 55.6907 32.7412 55.8233 32.7054C55.9559 32.6696 56.0973 32.6879 56.2164 32.7564C56.3355 32.8248 56.4225 32.9378 56.4583 33.0704C57.5708 37.2306 57.5708 41.6102 56.4583 45.7704C56.4209 45.8756 56.3494 45.9652 56.2552 46.025C56.1609 46.0848 56.0494 46.1113 55.9383 46.1004Z" fill="white"/>
<path d="M58.9986 44.81C58.9491 44.8197 58.8981 44.8197 58.8486 44.81C58.7232 44.7708 58.6182 44.6837 58.5564 44.5677C58.4947 44.4517 58.4811 44.316 58.5186 44.19C59.3317 41.0586 59.3317 37.7714 58.5186 34.64C58.4988 34.577 58.492 34.5106 58.4985 34.4449C58.505 34.3792 58.5247 34.3154 58.5565 34.2575C58.5882 34.1996 58.6314 34.1487 58.6833 34.1079C58.7352 34.0671 58.7948 34.0372 58.8586 34.02C58.9859 33.9829 59.1228 33.9978 59.239 34.0616C59.3553 34.1254 59.4415 34.2327 59.4786 34.36C60.3664 37.6749 60.3664 41.1651 59.4786 44.48C59.4419 44.5774 59.3762 44.6613 59.2904 44.7203C59.2046 44.7793 59.1028 44.8106 58.9986 44.81Z" fill="white"/>
<path d="M62.2916 43.1604C62.2421 43.1701 62.1911 43.1701 62.1416 43.1604C62.0161 43.1212 61.9112 43.0341 61.8494 42.9181C61.7876 42.8021 61.7741 42.6664 61.8116 42.5404C62.3466 40.4914 62.3466 38.3394 61.8116 36.2904C61.7918 36.2274 61.7849 36.161 61.7914 36.0953C61.7979 36.0296 61.8177 35.9658 61.8494 35.9079C61.8812 35.85 61.9243 35.7991 61.9762 35.7583C62.0282 35.7175 62.0878 35.6876 62.1516 35.6704C62.2789 35.6333 62.4157 35.6482 62.532 35.712C62.6483 35.7757 62.7345 35.8831 62.7716 36.0104C63.3733 38.2439 63.3733 40.5969 62.7716 42.8304C62.7374 42.9295 62.6723 43.0151 62.5859 43.0745C62.4995 43.1339 62.3964 43.164 62.2916 43.1604Z" fill="white"/>
</g>
<defs>
<clipPath id="clip0_205_2591">
<rect width="64.47" height="30.43" fill="white" transform="translate(7 24)"/>
</clipPath>
</defs>
</svg>
