<svg width="80" height="80" viewBox="0 0 80 80" fill="none" xmlns="http://www.w3.org/2000/svg">
<rect width="80" height="80" rx="40" fill="#FFBE3D"/>
<g clip-path="url(#clip0_205_2543)">
<path d="M40.23 46.5107C31.9064 46.5638 23.706 44.4991 16.4 40.5107C16.2776 40.4321 16.1769 40.3242 16.107 40.1966C16.0372 40.0691 16.0004 39.9261 16 39.7807C16.0003 39.6343 16.0393 39.4906 16.1131 39.3641C16.1868 39.2377 16.2927 39.133 16.42 39.0607C16.63 38.9307 38.15 26.5707 64 39.0007C64.1411 39.0713 64.2597 39.1798 64.3426 39.3141C64.4254 39.4483 64.4693 39.6029 64.4693 39.7607C64.4693 39.9184 64.4254 40.0731 64.3426 40.2073C64.2597 40.3415 64.1411 40.45 64 40.5207C56.6815 44.4201 48.5225 46.4762 40.23 46.5107ZM18.67 39.8107C25.3612 43.0954 32.7161 44.8033 40.17 44.8033C47.6239 44.8033 54.9788 43.0954 61.67 39.8107C54.9171 36.7443 47.5865 35.1578 40.17 35.1578C32.7535 35.1578 25.4229 36.7443 18.67 39.8107Z" fill="white"/>
<path d="M40.9189 28.3407C34.5073 28.3733 28.1193 27.5631 21.9189 25.9307C21.8532 25.911 21.7921 25.8786 21.739 25.8353C21.6858 25.7919 21.6418 25.7386 21.6093 25.6782C21.5768 25.6179 21.5565 25.5517 21.5495 25.4835C21.5426 25.4153 21.5492 25.3464 21.5689 25.2807C21.5886 25.2151 21.621 25.1539 21.6644 25.1008C21.7077 25.0477 21.761 25.0036 21.8214 24.9711C21.9433 24.9055 22.0863 24.891 22.2189 24.9307C22.3889 24.9307 40.0889 30.2507 58.6189 24.9307C58.6819 24.9109 58.7483 24.9041 58.814 24.9106C58.8797 24.9171 58.9435 24.9368 59.0014 24.9686C59.0593 25.0003 59.1102 25.0435 59.151 25.0954C59.1918 25.1473 59.2217 25.207 59.2389 25.2707C59.2729 25.3993 59.2554 25.5361 59.19 25.6519C59.1246 25.7677 59.0166 25.8534 58.8889 25.8907C53.0419 27.5388 46.9937 28.3634 40.9189 28.3407Z" fill="white"/>
<path d="M40.8109 24.2506C35.7282 24.2779 30.6642 23.6323 25.7509 22.3306C25.6183 22.2908 25.5069 22.2 25.4413 22.0781C25.3757 21.9562 25.3611 21.8132 25.4009 21.6806C25.4407 21.548 25.5315 21.4366 25.6534 21.371C25.7753 21.3054 25.9183 21.2908 26.0509 21.3306C26.1909 21.3306 40.1709 25.5306 54.8109 21.3306C54.9435 21.2948 55.0849 21.3131 55.204 21.3816C55.3231 21.45 55.4101 21.563 55.4459 21.6956C55.4817 21.8282 55.4634 21.9696 55.3949 22.0887C55.3265 22.2078 55.2135 22.2948 55.0809 22.3306C50.4371 23.633 45.6339 24.2792 40.8109 24.2506Z" fill="white"/>
<path d="M40.6917 20.1307C37.2933 20.1493 33.9074 19.7189 30.6217 18.8507C30.4891 18.8122 30.3772 18.7227 30.3106 18.6017C30.244 18.4807 30.2282 18.3383 30.2667 18.2057C30.3052 18.0731 30.3947 17.9612 30.5157 17.8946C30.6366 17.828 30.7791 17.8122 30.9117 17.8507C37.1402 19.4804 43.6832 19.4804 49.9117 17.8507C49.9774 17.833 50.0459 17.8283 50.1133 17.8371C50.1808 17.8458 50.2458 17.8678 50.3048 17.9017C50.3638 17.9356 50.4155 17.9807 50.457 18.0346C50.4985 18.0885 50.529 18.15 50.5467 18.2157C50.5644 18.2813 50.569 18.3499 50.5603 18.4173C50.5515 18.4847 50.5296 18.5498 50.4957 18.6088C50.4618 18.6677 50.4166 18.7195 50.3628 18.761C50.3089 18.8025 50.2474 18.833 50.1817 18.8507C47.0932 19.7164 43.8991 20.1472 40.6917 20.1307Z" fill="white"/>
<path d="M40.5415 15.7905C38.4486 15.8105 36.3626 15.5447 34.3415 15.0005C34.2751 14.9824 34.2131 14.9508 34.1594 14.9077C34.1057 14.8645 34.0615 14.8107 34.0296 14.7497C33.9977 14.6887 33.9787 14.6217 33.9739 14.553C33.9691 14.4843 33.9785 14.4154 34.0015 14.3505C34.0388 14.2206 34.126 14.1108 34.2441 14.0451C34.3623 13.9795 34.5016 13.9634 34.6315 14.0005C38.4308 14.9952 42.4222 14.9952 46.2215 14.0005C46.2846 13.9821 46.3506 13.9763 46.4159 13.9834C46.4812 13.9906 46.5444 14.0105 46.602 14.0421C46.6595 14.0736 46.7103 14.1162 46.7514 14.1674C46.7925 14.2186 46.8232 14.2774 46.8415 14.3405C46.8679 14.4058 46.8799 14.4761 46.8767 14.5465C46.8735 14.6169 46.8551 14.6857 46.8228 14.7484C46.7905 14.811 46.7451 14.866 46.6897 14.9095C46.6342 14.953 46.5701 14.984 46.5015 15.0005C44.5608 15.5375 42.5551 15.8034 40.5415 15.7905Z" fill="white"/>
<path d="M22.0798 55.2193C21.9712 55.2209 21.8651 55.1865 21.7782 55.1213C21.6913 55.0562 21.6286 54.964 21.5998 54.8593C21.5653 54.732 21.5815 54.5964 21.6449 54.4808C21.7082 54.3652 21.8139 54.2786 21.9398 54.2393C40.7598 48.8393 58.7298 54.1893 58.9398 54.2393C59.003 54.2586 59.0618 54.2904 59.1127 54.3326C59.1636 54.3748 59.2056 54.4268 59.2363 54.4854C59.267 54.544 59.2858 54.6081 59.2915 54.674C59.2972 54.7399 59.2898 54.8062 59.2698 54.8693C59.2305 54.9947 59.1435 55.0997 59.0275 55.1615C58.9114 55.2232 58.7757 55.2368 58.6498 55.1993C58.4698 55.1493 40.7698 49.8793 22.2498 55.1993C22.1957 55.2203 22.1372 55.2272 22.0798 55.2193Z" fill="white"/>
<path d="M25.8984 58.8203C25.7898 58.8219 25.6838 58.7875 25.5969 58.7223C25.51 58.6572 25.4472 58.565 25.4184 58.4603C25.3813 58.333 25.3963 58.1961 25.46 58.0798C25.5238 57.9636 25.6311 57.8774 25.7584 57.8403C40.6884 53.5503 54.9484 57.8403 55.0884 57.8403C55.2146 57.8816 55.3197 57.9706 55.3814 58.0883C55.443 58.2059 55.4563 58.343 55.4184 58.4703C55.3792 58.5957 55.2922 58.7007 55.1761 58.7625C55.0601 58.8242 54.9244 58.8378 54.7984 58.8003C54.6584 58.8003 40.6684 54.6003 26.0384 58.8003C25.9937 58.8167 25.946 58.8235 25.8984 58.8203Z" fill="white"/>
<path d="M30.7702 62.2994C30.7045 62.3086 30.6377 62.3047 30.5735 62.2881C30.5093 62.2715 30.4491 62.2423 30.3961 62.2024C30.2892 62.1218 30.2188 62.002 30.2002 61.8694C30.1816 61.7368 30.2165 61.6022 30.2971 61.4953C30.3778 61.3884 30.4976 61.3179 30.6302 61.2994C37.0511 59.6111 43.7993 59.6111 50.2202 61.2994C50.2838 61.3164 50.3433 61.3463 50.3949 61.3873C50.4465 61.4283 50.4891 61.4794 50.5201 61.5376C50.551 61.5957 50.5697 61.6597 50.5748 61.7253C50.58 61.791 50.5716 61.8571 50.5502 61.9194C50.5131 62.0467 50.4269 62.154 50.3106 62.2178C50.1943 62.2815 50.0575 62.2965 49.9302 62.2594C43.7019 60.6279 37.1585 60.6279 30.9302 62.2594L30.7702 62.2994Z" fill="white"/>
<path d="M34.4794 66.1709C34.3468 66.1881 34.2127 66.152 34.1068 66.0704C34.0008 65.9888 33.9316 65.8685 33.9144 65.7359C33.8971 65.6033 33.9333 65.4693 34.0148 65.3633C34.0964 65.2573 34.2168 65.1881 34.3494 65.1709C38.3326 64.1045 42.5262 64.1045 46.5094 65.1709C46.6356 65.2122 46.7407 65.3012 46.8023 65.4189C46.8639 65.5365 46.8772 65.6736 46.8394 65.8009C46.8001 65.9263 46.7131 66.0313 46.5971 66.0931C46.481 66.1548 46.3453 66.1684 46.2194 66.1309C42.4167 65.1362 38.4221 65.1362 34.6194 66.1309C34.5764 66.1548 34.5285 66.1685 34.4794 66.1709Z" fill="white"/>
<path d="M39.9202 42.3598C41.0302 42.3598 41.9302 41.4599 41.9302 40.3498C41.9302 39.2398 41.0302 38.3398 39.9202 38.3398C38.8101 38.3398 37.9102 39.2398 37.9102 40.3498C37.9102 41.4599 38.8101 42.3598 39.9202 42.3598Z" fill="white"/>
<path d="M43.739 46.0602C40.677 46.1035 37.615 45.9666 34.569 45.6502H34.389L34.259 45.5302C32.8513 44.0556 32.0733 42.0906 32.0901 40.052C32.1069 38.0134 32.9172 36.0615 34.349 34.6102L34.489 34.4702H34.679C38.039 34.3302 41.479 34.2502 44.889 34.2402H45.089L45.229 34.3702C46.0326 35.1101 46.672 36.0104 47.1059 37.0127C47.5399 38.0151 47.7587 39.0974 47.7484 40.1897C47.738 41.2819 47.4986 42.3598 47.0457 43.3538C46.5928 44.3478 45.9365 45.2357 45.119 45.9602L44.979 46.0902H43.739V46.0602ZM34.869 44.6702C38.0983 44.9943 41.3441 45.1245 44.589 45.0602C45.2608 44.4311 45.7982 43.6725 46.169 42.8301C46.5398 41.9877 46.7362 41.079 46.7465 40.1587C46.7568 39.2384 46.5807 38.3255 46.2288 37.4751C45.8769 36.6247 45.3566 35.8542 44.699 35.2102C41.429 35.2102 38.139 35.3002 34.929 35.4302C33.757 36.6796 33.0996 38.3254 33.0885 40.0385C33.0774 41.7516 33.7133 43.4057 34.869 44.6702Z" fill="white"/>
</g>
<defs>
<clipPath id="clip0_205_2543">
<rect width="48.46" height="52.17" fill="white" transform="translate(16 14)"/>
</clipPath>
</defs>
</svg>
