<svg width="80" height="80" viewBox="0 0 80 80" fill="none" xmlns="http://www.w3.org/2000/svg">
<rect width="80" height="80" rx="40" fill="#B93B95"/>
<g clip-path="url(#clip0_205_2581)">
<path d="M61.678 38.6243C58.3513 35.4596 54.4416 32.9184 50.1486 31.1308C46.8231 29.7188 43.2271 28.9929 39.5924 29.0001C37.3632 29.0348 35.1511 29.3816 33.0256 30.0294C29.0208 31.2047 25.273 33.0745 21.9667 35.5466C20.7047 36.4833 19.5282 37.523 18.3304 38.5317C17.8063 38.9846 17.8277 39.0052 18.3304 39.4787C21.7359 42.6589 25.725 45.2032 30.0951 46.9826C35.9183 49.4826 42.5295 49.6786 48.5015 47.5281C53.4377 45.748 57.9252 42.9798 61.6673 39.4066C62.0523 39.0464 62.0523 39.0361 61.6673 38.6655M19.7421 38.9949C23.8063 35.3095 28.711 32.5915 34.063 31.0587C32.778 31.937 31.7227 33.0906 30.9803 34.4285C30.2378 35.7665 29.8286 37.2522 29.7849 38.7685C29.7187 40.2871 30.0227 41.7995 30.6727 43.1848C31.3228 44.57 32.3007 45.7895 33.5282 46.7458C28.3905 45.1824 23.6805 42.5343 19.7421 38.9949ZM40.1272 47.6516C38.3692 47.6823 36.6416 47.2086 35.1643 46.2909C33.6871 45.3732 32.5271 44.0531 31.8322 42.4987C31.1372 40.9443 30.9388 39.226 31.2622 37.5627C31.5855 35.8993 32.4161 34.3663 33.6479 33.1589C34.8798 31.9514 36.4572 31.1242 38.1792 30.7826C39.9013 30.4411 41.69 30.6006 43.3175 31.2409C44.9451 31.8812 46.3377 32.9733 47.3181 34.378C48.2984 35.7827 48.8221 37.4365 48.8224 39.1287C48.8173 41.361 47.9045 43.5028 46.2795 45.0956C44.6544 46.6885 42.4461 47.6059 40.1272 47.6516ZM46.3625 46.7561C47.5922 45.7993 48.5715 44.5782 49.2216 43.1909C49.8717 41.8036 50.1746 40.2889 50.1058 38.7685C50.0531 37.2583 49.6398 35.7801 48.8979 34.4485C48.156 33.1169 47.1055 31.9675 45.8277 31.0896C51.1768 32.6028 56.082 35.3035 60.1486 38.9743C57.4213 41.8565 49.9988 46.0562 46.3946 46.7561M39.9454 35.3099C38.8992 35.3259 37.9007 35.7337 37.1618 36.4467C36.4229 37.1597 36.0019 38.1218 35.9881 39.1287C36.041 40.1086 36.4826 41.0316 37.222 41.7071C37.9613 42.3827 38.9419 42.7594 39.9614 42.7594C40.9809 42.7594 41.9615 42.3827 42.7008 41.7071C43.4402 41.0316 43.8818 40.1086 43.9347 39.1287C43.9234 38.1157 43.4989 37.1475 42.7525 36.4331C42.0062 35.7186 40.998 35.3152 39.9454 35.3099ZM39.9454 41.6609C39.4241 41.6609 38.9146 41.5118 38.4814 41.2327C38.0483 40.9535 37.7111 40.5568 37.5126 40.0929C37.3141 39.629 37.2633 39.1188 37.3666 38.6271C37.4698 38.1354 37.7225 37.6842 38.0926 37.3309C38.4627 36.9776 38.9335 36.7381 39.4453 36.6427C39.9571 36.5474 40.4867 36.6004 40.9671 36.7953C41.4475 36.9901 41.8569 37.3178 42.1434 37.7369C42.4299 38.1561 42.5806 38.6476 42.5764 39.1493C42.5793 39.4816 42.513 39.8112 42.3816 40.1185C42.2501 40.4259 42.0561 40.7048 41.8109 40.9388C41.5657 41.1729 41.2744 41.3573 40.954 41.4813C40.6336 41.6053 40.2906 41.6664 39.9454 41.6609Z" fill="white"/>
<path d="M11.6772 48.1665C11.5611 48.1683 11.4477 48.1328 11.3547 48.0657C11.2618 47.9986 11.1947 47.9038 11.1639 47.796C9.62246 42.2772 9.62246 36.4645 11.1639 30.9457C11.1834 30.881 11.2162 30.8207 11.2604 30.7684C11.3045 30.7161 11.3591 30.6728 11.4209 30.6412C11.4827 30.6095 11.5505 30.5901 11.6203 30.5841C11.69 30.578 11.7603 30.5855 11.827 30.6061C11.9631 30.6443 12.0779 30.733 12.1461 30.8527C12.2143 30.9724 12.2303 31.1132 12.1906 31.2442C10.7327 36.5816 10.7327 42.191 12.1906 47.5283C12.2267 47.6594 12.2076 47.7988 12.1375 47.9163C12.0674 48.0339 11.952 48.1201 11.8163 48.1562C11.7713 48.1694 11.7238 48.173 11.6772 48.1665Z" fill="white"/>
<path d="M15.0476 46.4978C14.9323 46.4962 14.8205 46.4594 14.7283 46.3929C14.6361 46.3263 14.5681 46.2333 14.5342 46.1272C13.3167 41.7437 13.3167 37.1294 14.5342 32.7459C14.5762 32.6167 14.6693 32.5087 14.7934 32.4451C14.9175 32.3815 15.0626 32.3676 15.1973 32.4062C15.3323 32.4488 15.4447 32.5404 15.5106 32.6615C15.5765 32.7826 15.5908 32.9236 15.5503 33.0547C14.4052 37.2553 14.4052 41.6692 15.5503 45.8699C15.5714 45.9348 15.5788 46.0031 15.5718 46.0707C15.5649 46.1384 15.5438 46.204 15.5098 46.2636C15.4758 46.3232 15.4297 46.3756 15.3742 46.4176C15.3186 46.4596 15.2548 46.4904 15.1866 46.5081L15.0476 46.4978Z" fill="white"/>
<path d="M68.3325 48.166C68.2795 48.1759 68.2251 48.1759 68.1721 48.166C68.0379 48.1256 67.9256 48.036 67.8596 47.9165C67.7935 47.7971 67.779 47.6574 67.8191 47.5278C69.269 42.1929 69.269 36.5888 67.8191 31.254C67.7995 31.1891 67.7933 31.1211 67.8009 31.0539C67.8085 30.9867 67.8299 30.9216 67.8636 30.8624C67.8974 30.8031 67.943 30.7508 67.9977 30.7085C68.0525 30.6662 68.1154 30.6347 68.1828 30.6158C68.3145 30.5857 68.4531 30.6038 68.5717 30.6665C68.6903 30.7293 68.7804 30.8323 68.8245 30.9555C70.3629 36.4746 70.3629 42.2865 68.8245 47.8057C68.7943 47.909 68.7299 48.0001 68.6412 48.0651C68.5524 48.1301 68.444 48.1655 68.3325 48.166Z" fill="white"/>
<path d="M64.9501 46.4978H64.7896C64.6546 46.4552 64.5422 46.3636 64.4763 46.2425C64.4104 46.1214 64.3962 45.9803 64.4367 45.8493C65.5818 41.6486 65.5818 37.2347 64.4367 33.034C64.397 32.8975 64.4152 32.7515 64.4874 32.6279C64.5596 32.5044 64.6799 32.4135 64.8217 32.3753C64.9635 32.337 65.1153 32.3546 65.2437 32.4241C65.3721 32.4936 65.4665 32.6093 65.5062 32.7458C66.7237 37.1293 66.7237 41.7437 65.5062 46.1272C65.4704 46.2402 65.3959 46.3382 65.295 46.4055C65.1941 46.4727 65.0726 46.5052 64.9501 46.4978Z" fill="white"/>
</g>
<defs>
<clipPath id="clip0_205_2581">
<rect width="60" height="20" fill="white" transform="translate(10 29)"/>
</clipPath>
</defs>
</svg>
