<svg width="80" height="80" viewBox="0 0 80 80" fill="none" xmlns="http://www.w3.org/2000/svg">
<rect width="80" height="80" rx="40" fill="#3579A2"/>
<g clip-path="url(#clip0_205_2519)">
<g opacity="0.51">
<path fill-rule="evenodd" clip-rule="evenodd" d="M39.487 18H40.567V18.06H40.927V18.12H41.097V18.18H41.287V18.24H41.467V18.3H41.587V18.35H41.697V18.42H41.817V18.48H41.937V18.54H41.997V18.6H42.117V18.65H42.177V18.72H42.287V18.77H42.357V18.84H42.407V18.89H42.477V18.95H42.537V19.02H42.587V19.07H42.657V19.14H42.707V19.19H42.777V19.25H42.827V19.31H42.887V19.37H42.947V19.49H43.007V19.55H43.077V19.67H43.127V19.73H43.187V19.84H43.247V19.96H43.307V20.09H43.367V20.21H43.427V20.38H43.477V20.5H43.547V20.75H43.607V21.04H43.667V22.17H43.607V22.47H43.547V22.71H43.477V22.89H43.427V23.01H43.367V23.18H43.307V23.31H43.247V23.36H43.187V23.48H43.127V23.6H43.077V23.66H43.007V23.78H42.947V23.84H42.887V23.9H42.827V23.96H42.777V24.08H42.707V24.13H42.657V24.2H42.587V24.25H42.477V24.32H42.407V24.38H42.357V24.43H42.287V24.5H42.237V24.55H42.117V24.62H42.057V24.67H41.937V24.73H41.877V24.8H41.757V24.85H41.637V24.92H41.467V24.97H41.337V25.04H41.167V25.09H40.977V25.15H40.677V25.21H39.377V25.15H39.137V25.09H38.897V25.04H38.787V24.97H38.597V24.92H38.487V24.85H38.367V24.8H38.247V24.73H38.187V24.67H38.067V24.62H37.997V24.55H37.887V24.5H37.827V24.43H37.767V24.38H37.647V24.32H37.587V24.25H37.527V24.2H37.467V24.13H37.407V24.08H37.347V24.02H37.297V23.9H37.227V23.84H37.177V23.78H37.107V23.66H37.047V23.6H36.997V23.48H36.927V23.43H36.877V23.31H36.807V23.18H36.757V23.06H36.697V22.89H36.627V22.71H36.577V22.53H36.507V22.24H36.457V20.98H36.507V20.68H36.577V20.5H36.627V20.33H36.697V20.21H36.757V20.03H36.807V19.91H36.877V19.84H36.927V19.73H36.997V19.61H37.047V19.55H37.107V19.43H37.177V19.37H37.227V19.31H37.297V19.25H37.347V19.19H37.407V19.07H37.467V19.02H37.527V18.95H37.647V18.89H37.707V18.84H37.767V18.77H37.827V18.72H37.887V18.65H37.997V18.6H38.067V18.54H38.187V18.48H38.297V18.42H38.417V18.35H38.537V18.3H38.657V18.24H38.787V18.18H38.957V18.12H39.187V18.06H39.487V18Z" fill="white"/>
<path fill-rule="evenodd" clip-rule="evenodd" d="M35.8583 25.9902H44.5683V26.0402H45.0983V26.1102H45.3883V26.1602H45.6383V26.2302H45.7583V26.2802H45.9283V26.3402H46.0483V26.4102H46.1783V26.4602H46.2883V26.5302H46.4083V26.5802H46.5283V26.6402H46.5783V26.7002H46.7083V26.7602H46.7683V26.8102H46.8783V26.8802H46.9483V26.9502H46.9983V27.0002H47.0683V27.0602H47.1183V27.1202H47.1783V27.1802H47.2483V27.2302H47.2983V27.3002H47.3683V27.3502H47.4183V27.4202H47.4783V27.5302H47.5383V27.6002H47.5983V27.6502H47.6583V27.7702H47.7183V27.8302H47.7783V27.9502H47.8383V28.0702H47.8983V28.1902H47.9583V28.3002H48.0183V28.4202H48.0683V28.5502H48.1383V28.6702H48.1883V28.8402H48.2583V29.0202H48.3183V29.2102H48.3683V29.5002H48.4383V29.8002H48.4883V30.2802H48.5583V42.1902H48.4883V42.4302H48.4383V42.6102H48.3683V42.7302H48.3183V42.8502H48.2583V42.9702H48.1883V43.0302H48.1383V43.0802H48.0683V43.1502H48.0183V43.2002H47.8983V43.2702H47.8383V43.3302H47.7183V43.3802H47.5983V43.4502H47.3683V43.5002H46.9483V43.4502H46.7083V43.3802H46.5283V43.3302H46.4083V43.2702H46.3483V43.2002H46.2883V43.1502H46.1783V43.0802H46.1083V42.9702H46.0483V42.9102H45.9883V42.8502H45.9283V42.7302H45.8783V42.6102H45.8083V42.3802H45.7583V42.0102H45.6883V30.9902H44.7983V60.8402H44.7383V61.0802H44.6783V61.2602H44.6183V61.3802H44.5683V61.4402H44.4983V61.5602H44.4383V61.6202H44.3783V61.7402H44.3183V61.8002H44.2683V61.8602H44.1983V61.9102H44.1483V61.9802H44.0783V62.0302H44.0283V62.1002H43.8983V62.1502H43.8483V62.2202H43.7283V62.2802H43.6083V62.3302H43.4783V62.4002H43.2483V62.4502H42.8283V62.5202H42.7783V62.4502H42.2883V62.4002H42.0583V62.3302H41.9383V62.2802H41.8183V62.2202H41.6983V62.1502H41.6383V62.1002H41.5183V62.0302H41.4683V61.9802H41.3983V61.9102H41.3383V61.8602H41.2883V61.8002H41.2183V61.7402H41.1683V61.6202H41.0983V61.5602H41.0483V61.4402H40.9783V61.3802H40.9283V61.2102H40.8683V61.0802H40.7983V60.8402H40.7483V43.3802H39.8583V60.6702H39.7983V60.9602H39.7283V61.1402H39.6783V61.3302H39.6083V61.4402H39.5583V61.5002H39.4883V61.6202H39.4383V61.6802H39.3783V61.7402H39.3183V61.8602H39.2583V61.9102H39.1883V61.9802H39.0783V62.0302H39.0183V62.1002H38.9583V62.1502H38.8383V62.2202H38.7883V62.2802H38.6583V62.3302H38.4883V62.4002H38.2983V62.4502H37.8883V62.5202H37.7683V62.4502H37.2983V62.4002H37.1083V62.3302H36.9983V62.2802H36.8083V62.2202H36.7583V62.1502H36.6283V62.1002H36.5783V62.0302H36.5083V61.9802H36.4583V61.9102H36.3383V61.8002H36.2783V61.7402H36.2183V61.6802H36.1583V61.6202H36.0883V61.5002H36.0383V61.4402H35.9783V61.3302H35.9183V61.1402H35.8583V60.9602H35.7983V60.5402H35.7383V51.7902H35.7983V51.6102H35.7383V51.5502H35.7983V51.4302H35.7383V51.3702H35.7983V51.2602H35.7383V51.1902H35.7983V51.0702H35.7383V51.0102H35.7983V50.8902H35.7383V50.0002H35.7983V49.8202H35.7383V49.7602H35.7983V49.6502H35.7383V49.5802H35.7983V49.4602H35.7383V49.4002H35.7983V49.2802H35.7383V49.2302H35.7983V49.1102H35.7383V48.2102H35.7983V48.0402H35.7383V47.9702H35.7983V47.8602H35.7383V47.7902H35.7983V47.6702H35.7383V47.6202H35.7983V47.5002H35.7383V47.4402H35.7983V47.3202H35.7383V46.4302H35.7983V46.2502H35.7383V46.1802H35.7983V46.0702H35.7383V46.0102H35.7983V45.8902H35.7383V45.8302H35.7983V45.7102H35.7383V45.6502H35.7983V45.5302H35.7383V44.6402H35.7983V44.4602H35.7383V44.4002H35.7983V44.2702H35.7383V44.2202H35.7983V44.1002H35.7383V44.0402H35.7983V43.9202H35.7383V43.8702H35.7983V43.7402H35.7383V42.8502H35.7983V42.6602H35.7383V42.6102H35.7983V42.4902H35.7383V42.4302H35.7983V42.3102H35.7383V42.2602H35.7983V42.1302H35.7383V42.0802H35.7983V41.9602H35.7383V41.0602H35.7983V40.8902H35.7383V40.8202H35.7983V40.7002H35.7383V40.6502H35.7983V40.5202H35.7383V40.4702H35.7983V40.3502H35.7383V40.2902H35.7983V40.1702H35.7383V39.2802H35.7983V39.0902H35.7383V39.0402H35.7983V38.9102H35.7383V38.8602H35.7983V38.7402H35.7383V38.6802H35.7983V38.5602H35.7383V38.5002H35.7983V38.3802H35.7383V37.4902H35.7983V37.3002H35.7383V37.2502H35.7983V37.1302H35.7383V37.0702H35.7983V36.9502H35.7383V36.8902H35.7983V36.7702H35.7383V36.7102H35.7983V36.6002H35.7383V35.7002H35.7983V35.5202H35.7383V35.4602H35.7983V35.3402H35.7383V35.2802H35.7983V35.1602H35.7383V35.1102H35.7983V34.9902H35.7383V34.9202H35.7983V34.8002H35.7383V33.9102H35.7983V33.7302H35.7383V33.6702H35.7983V33.5502H35.7383V33.5002H35.7983V33.3802H35.7383V33.3102H35.7983V33.2002H35.7383V33.1302H35.7983V33.0102H35.7383V32.1202H35.7983V31.9402H35.7383V31.8902H35.7983V31.7702H35.7383V31.7102H35.7983V31.5902H35.7383V31.5202H35.7983V31.4102H35.7383V31.3502H35.7983V31.2302H35.7383V31.1002H35.7983V31.0502H35.7383V30.9902H34.8483V42.2602H34.7883V42.4902H34.7283V42.6102H34.6683V42.7902H34.6083V42.8502H34.5483V42.9702H34.4883V43.0302H34.4283V43.0802H34.3683V43.1502H34.3183V43.2002H34.1983V43.2702H34.1283V43.3302H34.0083V43.3802H33.8283V43.4502H33.5383V43.5002H33.3583V43.4502H33.0083V43.3802H32.8783V43.3302H32.7583V43.2702H32.6383V43.2002H32.5883V43.1502H32.4683V43.0802H32.4083V43.0302H32.3383V42.9102H32.2883V42.8502H32.2183V42.7302H32.1683V42.6102H32.1083V42.4302H32.0483V42.1302H31.9883V30.2802H32.0483V29.7402H32.1083V29.4402H32.1683V29.2102H32.2183V28.9602H32.2883V28.7902H32.3383V28.6702H32.4083V28.4902H32.4683V28.3702H32.5183V28.2502H32.5883V28.1302H32.6383V28.0202H32.7083V27.8902H32.7583V27.8302H32.8183V27.7202H32.8783V27.6502H32.9383V27.6002H33.0083V27.4802H33.0583V27.4202H33.1183V27.3502H33.1783V27.3002H33.2383V27.2302H33.2983V27.1802H33.3583V27.1202H33.4083V27.0602H33.4783V27.0002H33.5383V26.9502H33.5983V26.8802H33.6583V26.8102H33.7083V26.7602H33.8283V26.7002H33.8983V26.6402H34.0083V26.5802H34.0783V26.5302H34.1983V26.4602H34.3183V26.4102H34.4283V26.3402H34.5483V26.2802H34.7283V26.2302H34.8983V26.1602H35.0883V26.1102H35.3883V26.0402H35.8583V25.9902Z" fill="white"/>
</g>
<path fill-rule="evenodd" clip-rule="evenodd" d="M22.5219 18H23.6419V18.06H23.9419V18.12H24.1319V18.18H24.3019V18.24H24.4819V18.3H24.6019V18.35H24.7219V18.42H24.8319V18.48H24.9519V18.54H25.0219V18.6H25.1319V18.65H25.2019V18.72H25.3219V18.77H25.3719V18.84H25.4419V18.89H25.4919V18.95H25.5519V19.02H25.6219V19.07H25.6719V19.14H25.7319V19.19H25.7919V19.25H25.8519V19.31H25.9119V19.43H25.9719V19.49H26.0319V19.55H26.0919V19.67H26.1519V19.73H26.2119V19.84H26.2719V19.96H26.3219V20.09H26.3919V20.21H26.4419V20.38H26.5119V20.56H26.5619V20.8H26.6319V21.16H26.6919V22.11H26.6319V22.41H26.5619V22.64H26.5119V22.83H26.4419V23.01H26.3919V23.13H26.3219V23.24H26.2719V23.36H26.2119V23.48H26.1519V23.54H26.0919V23.66H26.0319V23.72H25.9719V23.84H25.9119V23.9H25.8519V23.96H25.7919V24.02H25.7319V24.08H25.6719V24.13H25.6219V24.2H25.5519V24.25H25.4919V24.32H25.4419V24.38H25.3719V24.43H25.3219V24.5H25.2019V24.55H25.1319V24.62H25.0819V24.67H24.9519V24.73H24.8319V24.8H24.7819V24.85H24.6619V24.92H24.4819V24.97H24.3619V25.04H24.1819V25.09H24.0119V25.15H23.7119V25.21H23.1119V25.27H22.9919V25.21H22.3919V25.15H22.1519V25.09H21.9819V25.04H21.8019V24.97H21.6219V24.92H21.5019V24.85H21.3819V24.8H21.2619V24.73H21.1419V24.67H21.0819V24.62H20.9619V24.55H20.9119V24.5H20.8419V24.43H20.7319V24.38H20.6619V24.32H20.6119V24.25H20.5419V24.2H20.4919V24.13H20.4319V24.08H20.3719V24.02H20.3119V23.96H20.2519V23.84H20.1919V23.78H20.1319V23.72H20.0719V23.6H20.0119V23.54H19.9619V23.43H19.8919V23.31H19.8419V23.18H19.7719V23.06H19.7119V22.94H19.6619V22.77H19.5919V22.59H19.5419V22.29H19.4719V21.87H19.4219V21.4H19.4719V20.92H19.5419V20.63H19.5919V20.44H19.6619V20.26H19.7119V20.15H19.7719V20.03H19.8419V19.91H19.8919V19.79H19.9619V19.67H20.0119V19.61H20.0719V19.49H20.1319V19.43H20.1919V19.37H20.2519V19.31H20.3119V19.19H20.3719V19.14H20.4319V19.07H20.4919V19.02H20.5419V18.95H20.6119V18.89H20.6619V18.84H20.7819V18.77H20.8419V18.72H20.9119V18.65H21.0319V18.6H21.0819V18.54H21.2019V18.48H21.2619V18.42H21.3819V18.35H21.5019V18.3H21.6819V18.24H21.8019V18.18H21.9819V18.12H22.2219V18.06H22.5219V18Z" fill="white"/>
<path fill-rule="evenodd" clip-rule="evenodd" d="M18.82 25.9902H27.63V26.0402H28.12V26.1102H28.42V26.1602H28.59V26.2302H28.77V26.2802H28.95V26.3402H29.07V26.4102H29.19V26.4602H29.31V26.5302H29.42V26.5802H29.54V26.6402H29.61V26.7002H29.72V26.7602H29.78V26.8102H29.84V26.8802H29.91V26.9502H30.03V27.0002H30.08V27.0602H30.14V27.1202H30.2V27.1802H30.26V27.2302H30.32V27.3002H30.38V27.3502H30.44V27.4802H30.5V27.5302H30.56V27.6002H30.61V27.7202H30.68V27.7702H30.73V27.8902H30.8V27.9502H30.86V28.0702H30.91V28.1902H30.98V28.3002H31.03V28.4202H31.1V28.5502H31.15V28.7202H31.21V28.9102H31.27V29.0902H31.33V29.2602H31.4V29.5002H31.45V29.8602H31.52V30.4002H31.57V42.1302H31.52V42.4302H31.45V42.6102H31.4V42.7302H31.33V42.8502H31.27V42.9102H31.21V43.0302H31.15V43.0802H31.1V43.1502H31.03V43.2002H30.91V43.2702H30.86V43.3302H30.73V43.3802H30.61V43.4502H30.38V43.5002H29.91V43.4502H29.66V43.3802H29.54V43.3302H29.42V43.2702H29.37V43.2002H29.24V43.1502H29.19V43.0802H29.12V43.0302H29.07V42.9102H29.01V42.8502H28.95V42.7302H28.89V42.6102H28.83V42.4302H28.77V42.1302H28.71V30.9902H27.81V60.7202H27.76V61.0302H27.7V61.2102H27.63V61.3302H27.58V61.4402H27.52V61.5602H27.46V61.6202H27.4V61.7402H27.34V61.8002H27.28V61.8602H27.22V61.9102H27.16V61.9802H27.1V62.0302H26.98V62.1002H26.93V62.1502H26.81V62.2202H26.74V62.2802H26.63V62.3302H26.44V62.4002H26.27V62.4502H25.85V62.5202H25.67V62.4502H25.32V62.4002H25.08V62.3302H24.95V62.2802H24.83V62.2202H24.72V62.1502H24.66V62.1002H24.54V62.0302H24.48V61.9802H24.42V61.9102H24.36V61.8602H24.3V61.8002H24.24V61.7402H24.18V61.6802H24.13V61.5602H24.06V61.5002H24.01V61.3802H23.94V61.2602H23.88V61.0802H23.83V60.9102H23.76V43.3802H22.81V60.9602H22.75V61.1402H22.69V61.2602H22.63V61.3802H22.57V61.5002H22.52V61.6202H22.45V61.6802H22.39V61.7402H22.33V61.8002H22.27V61.8602H22.22V61.9102H22.15V61.9802H22.1V62.0302H22.04V62.1002H21.98V62.1502H21.85V62.2202H21.74V62.2802H21.62V62.3302H21.5V62.4002H21.26V62.4502H20.91V62.5202H20.73V62.4502H20.31V62.4002H20.13V62.3302H20.01V62.2802H19.84V62.2202H19.77V62.1502H19.65V62.1002H19.59V62.0302H19.47V61.9802H19.42V61.9102H19.35V61.8602H19.3V61.8002H19.24V61.6802H19.17V61.6202H19.12V61.5002H19.05V61.4402H19V61.3302H18.94V61.1402H18.88V60.9602H18.82V60.7202H18.76V30.9902H17.86V42.1302H17.81V42.4302H17.75V42.6102H17.69V42.7302H17.63V42.8502H17.56V42.9102H17.51V43.0302H17.44V43.0802H17.39V43.1502H17.27V43.2002H17.21V43.2702H17.09V43.3302H16.97V43.3802H16.85V43.4502H16.49V43.5002H16.32V43.4502H16.02V43.3802H15.84V43.3302H15.72V43.2702H15.67V43.2002H15.54V43.1502H15.48V43.0802H15.42V43.0302H15.36V42.9102H15.3V42.8502H15.25V42.7902H15.18V42.6102H15.13V42.4902H15.07V42.2602H15V30.0302H15.07V29.6802H15.13V29.3802H15.18V29.1402H15.25V28.9602H15.3V28.7902H15.36V28.6102H15.42V28.4902H15.48V28.3002H15.54V28.1902H15.6V28.1302H15.67V28.0202H15.72V27.8902H15.78V27.8302H15.84V27.7202H15.9V27.6502H15.95V27.5302H16.02V27.4802H16.07V27.4202H16.14V27.3502H16.2V27.2302H16.25V27.1802H16.32V27.1202H16.37V27.0602H16.44V27.0002H16.55V26.9502H16.62V26.8802H16.67V26.8102H16.74V26.7602H16.85V26.7002H16.91V26.6402H17.03V26.5802H17.09V26.5302H17.21V26.4602H17.33V26.4102H17.44V26.3402H17.56V26.2802H17.75V26.2302H17.93V26.1602H18.1V26.1102H18.35V26.0402H18.82V25.9902Z" fill="white"/>
<g opacity="0.14">
<path fill-rule="evenodd" clip-rule="evenodd" d="M53.5 22.47H53.56V22.71H53.62V22.89H53.68V23H53.74V23.12H53.8V23.3H53.85V23.35H53.92V23.47V23.6H54V23.66H54.06V23.78V23.85H54.13V23.9H54.18V24H54.25V24.12H54.31V24.2H54.43V24.32H54.55V24.38H54.61H54.67V24.5H54.73H55V24.57H55.13V24.64H55.25V24.8H55.3H55.42V24.87H55.6V25H55.72H55.9H56.08V25.06H56.38V25.12H57V25.18H57.12V25.21H57.72V25.15H58V25.09H58.17V25H58.36H58.54H58.66V24.85H58.77H58.89V24.74H58.96V24.67H59H59.06V24.55H59.18H59.24V24.43H59.3H59.42V24.32H59.48V24.25H59.54H59.59V24.14H59.66V24.08V24H59.73V23.9H59.79V23.85V23.78H60V23.66V23.6H60.07V23.48H60.12V23.43H60.18V23.31H60.24V23.18H60.3V23.06H60.37V22.89V22.71H60.43V22.53H60.49V22.29H60.55V21.64H60.61V21.57H60.55V21H60.49V20.7H60.43V20.5H60.37V20.33V20.15H60.3V20H60.24V19.91H60.18V19.79H60.12V19.73H60.07V19.61H60V19.56V19.43H59.93V19.37V19.31H59.87V19.26H59.8V19.19V19.07H59.73V19H59.68H59.56V18.89H59.4V18.84H59.34V18.77H59.28V18.72H59.22V18.65H59.1V18.6H59V18.54H58.89V18.48H58.77V18.42H58.64V18.35H58.45V18.24H58.34V18.18H58.15V18.12H57.92V18.06H57.62V18H56.48V18.06H56.18V18.12H56V18.18H55.83V18.24H55.64V18.3H55.53H55.41V18.42H55.29V18.48H55.17V18.54H55V18.6V18.65H54.94V18.72H54.82V18.77H54.76V18.84H54.7V18.89V19H54.63H54.57V19.05H54.51V19.12H54.45V19.17V19.24H54.38V19.29H54.33V19.35H54.26V19.47V19.54H54V19.65V19.71V19.83H53.93V20H53.8V20.13H53.74V20.25H53.68V20.37H53.62V20.5H53.56V20.75H53.5V21H53.44V22.17H53.5V22.47ZM65.5 30.1V29.68H65.43V29.44V29.21H65.3V29H65.24V28.83H65.18V28.71H65.12V28.53H65.06V28.41H65V28.29H64.94V28.18H64.88V28H64.82H64.76V27.83V27.77H64.69V27.65V27.6H64.62V27.48H64.56V27.42H64.51V27.35H64.44H64.39V27.23H64.32V27.18V27.12H64.26V27.06H64V27V26.94H63.93V26.88H63.88V26.82H63.76V26.76H63.7V26.7H63.64V26.64H63.52V26.58H63.4V26.53H63.34V26.46H63.23V26.41H63.1V26.34H62.92V26.28H62.8H62.62V26.16H62.38V26.11H62.08V26H61.61H52.85H52.36V26.07H52.13V26.12H51.89V26.19H51.71H51.59V26.25H51.42V26.32H51.29V26.37H51.17V26.44H51.05V26.49V26.55H50.93V26.7H50.87V26.76H50.8V26.82H50.69V26.88H50.63V26.94H50.57V27H50.51V27.06H50.4V27.12H50.34V27.18H50.28V27.23H50.22V27.3H50.16H50.1V27.37H50.05V27.48H50V27.6V27.65H49.93V27.77H49.8V27.83V28H49.73V28.12H49.66V28.23H49.61V28.35H49.55V28.53H49.49V28.65H49.43V28.82H49.36V29V29.23H49.3V29.47H49.24V29.77H49V30.42V42.08V42.38H49.06V42.61H49.12V42.73H49.18V42.79V42.91H49.25V43H49.31H49.37H49.43V43.07H49.48V43.12H49.55V43.19H49.67V43.25H49.78V43.3H50V43.37H50.3V43.42H50.54V43.37H50.84V43.3H51V43.25H51.12V43.19H51.17V43.2H51.29V43.15H51.35V43.08H51.42V43H51.49V42.88H51.54V42.82H51.61V42.7H51.66V42.52H51.72V42.34H51.78V31H52.78V60.91H52.85V61.08V61.26H53V61.38V61.5V61.56H53.07V61.68H53.12V61.74H53.18V61.8H53.24V61.86H53.3V61.92H53.36V62H53.42H53.48V62.07H53.54H53.66V62.14H53.77V62.2H54H54.13V62.27H54.3V62.32H54.72V62.39H54.9V62.32H55.32V62.4H55.49V62.33H55.67H55.79V62.27H55.91V62.2H55.97H56V62H56.12H56.18V61.94H56.25V61.88V61.8H56.31V61.74H56.37V61.62H56.43V61.56H56.48V61.44H56.55V61.33V61.21H56.62V61H56.68V60.7V43.38H57.59V60.73V61H57.65V61.18H57.71V61.3H58V61.41V61.53H58.06V61.59V61.71H58.13V61.77H58.19V61.83H58.25V61.89H58.31V62H58.43V62.07H58.5H58.61V62.14H58.68V62.2H58.8H58.97V62.27H59.15V62.32H59.57V62.39H59.75V62.32H60.16V62.4H60.34V62.33H60.46H60.58V62.27H60.69V62.2H60.76H61V62H61.06V61.94H61.13V61.88H61.18V61.8H61.25V61.74V61.68H61.31V61.56H61.38V61.5V61.38H61.45V61.26V61.08H61.52V60.91H61.57V31.05H61.63V31H62.47V31.06V42.31H62.54V42.55H62.59V42.67H62.66V42.79V42.91H63V43H63.07H63.14V43.07H63.19V43.12H63.25V43.19H63.37V43.25H63.49V43.3H63.61V43.37H63.84V43.42H64.26V43.37H64.51V43.3H64.63V43.25H64.74V43.19H64.86V43.2H65V43.15H65.06V43.08H65.12H65.18V43H65.24V42.88H65.3V42.82H65.36V42.7V42.52H65.43V42.29H65.48V30.1H65.5Z" fill="white"/>
</g>
</g>
<defs>
<clipPath id="clip0_205_2519">
<rect width="50.53" height="44.52" fill="white" transform="translate(15 18)"/>
</clipPath>
</defs>
</svg>
