<svg width="24" height="24" viewBox="0 0 24 24" fill="none" xmlns="http://www.w3.org/2000/svg">
<path fill-rule="evenodd" clip-rule="evenodd" d="M21.531 17.0309C21.4613 17.1008 21.3786 17.1562 21.2875 17.194C21.1963 17.2318 21.0987 17.2513 21 17.2513C20.9014 17.2513 20.8037 17.2318 20.7126 17.194C20.6214 17.1562 20.5387 17.1008 20.469 17.0309L12 8.56044L3.531 17.0309C3.46127 17.1007 3.37849 17.156 3.28738 17.1937C3.19627 17.2315 3.09862 17.2509 3 17.2509C2.90139 17.2509 2.80374 17.2315 2.71263 17.1937C2.62152 17.156 2.53873 17.1007 2.469 17.0309C2.39927 16.9612 2.34396 16.8784 2.30622 16.7873C2.26848 16.6962 2.24906 16.5986 2.24906 16.4999C2.24906 16.4013 2.26848 16.3037 2.30622 16.2126C2.34396 16.1215 2.39927 16.0387 2.469 15.9689L11.469 6.96894C11.5387 6.8991 11.6214 6.84368 11.7126 6.80587C11.8037 6.76807 11.9014 6.7486 12 6.7486C12.0987 6.7486 12.1963 6.76807 12.2875 6.80587C12.3786 6.84368 12.4613 6.8991 12.531 6.96894L21.531 15.9689C21.6008 16.0386 21.6563 16.1214 21.6941 16.2125C21.7319 16.3036 21.7513 16.4013 21.7513 16.4999C21.7513 16.5986 21.7319 16.6963 21.6941 16.7874C21.6563 16.8785 21.6008 16.9613 21.531 17.0309Z" fill="black"/>
</svg>
