<svg width="40" height="54" viewBox="0 0 40 54" fill="none" xmlns="http://www.w3.org/2000/svg">
<path d="M20 43.3102C30.4934 43.3102 39 34.0666 39 22.664C39 11.2614 30.4934 2.01782 20 2.01782C9.50659 2.01782 1 11.2614 1 22.664C1 34.0666 9.50659 43.3102 20 43.3102Z" fill="white"/>
<path fill-rule="evenodd" clip-rule="evenodd" d="M28.9841 19.9148C28.9461 19.7892 28.8453 19.6976 28.7238 19.6785L22.8953 18.7662L20.2888 13.0779C20.2346 12.9592 20.1225 12.8843 20.0001 12.8843C19.8777 12.8843 19.7652 12.9592 19.7114 13.0779L17.1045 18.7666L11.276 19.6789C11.1546 19.698 11.0541 19.7892 11.0157 19.9152C10.978 20.0405 11.0093 20.1786 11.0972 20.2705L15.3151 24.6985L14.3192 30.951C14.2985 31.0812 14.3482 31.2127 14.4471 31.2904C14.5466 31.3689 14.6784 31.3789 14.7863 31.3168L20.0001 28.3651L25.2132 31.3168C25.2602 31.3435 25.3121 31.3567 25.3633 31.3567C25.43 31.3567 25.4964 31.3345 25.5528 31.2904C25.652 31.2127 25.7016 31.0812 25.6807 30.951L24.6851 24.6988L28.9029 20.2705C28.9906 20.1779 29.0222 20.0401 28.9841 19.9148Z" fill="#C92C99"/>
<path fill-rule="evenodd" clip-rule="evenodd" d="M0 22.2622C0 10.483 8.956 0.931396 20 0.931396C31.044 0.931396 40 10.483 40 22.2622C40 34.0954 31.4402 42.225 20.3678 52.7409C20.2455 52.857 20.1229 52.9735 20 53.0902C19.8771 52.9735 19.7545 52.857 19.6322 52.7409C8.55984 42.225 0 34.0954 0 22.2622ZM4 22.664C4 32.2656 11.162 40.0503 20 40.0503C28.838 40.0503 36 32.2656 36 22.664C36 13.0624 28.838 5.27773 20 5.27773C11.162 5.27773 4 13.0624 4 22.664Z" fill="#C92C99"/>
</svg>
