<svg width="40" height="53" viewBox="0 0 40 53" fill="none" xmlns="http://www.w3.org/2000/svg">
<path d="M20 43.1772C30.4934 43.1772 39 33.9336 39 22.531C39 11.1284 30.4934 1.88477 20 1.88477C9.50659 1.88477 1 11.1284 1 22.531C1 33.9336 9.50659 43.1772 20 43.1772Z" fill="white"/>
<path fill-rule="evenodd" clip-rule="evenodd" d="M28.9841 19.7806C28.9461 19.655 28.8453 19.5633 28.7238 19.5443L22.8953 18.6319L20.2888 12.9436C20.2346 12.825 20.1225 12.75 20.0001 12.75C19.8777 12.75 19.7652 12.825 19.7114 12.9436L17.1045 18.6323L11.276 19.5446C11.1546 19.5637 11.0541 19.655 11.0157 19.7809C10.978 19.9062 11.0093 20.0443 11.0972 20.1363L15.3151 24.5642L14.3192 30.8168C14.2985 30.9469 14.3482 31.0784 14.4471 31.1561C14.5466 31.2346 14.6784 31.2446 14.7863 31.1825L20.0001 28.2308L25.2132 31.1825C25.2602 31.2092 25.3121 31.2224 25.3633 31.2224C25.43 31.2224 25.4964 31.2002 25.5528 31.1561C25.652 31.0784 25.7016 30.9469 25.6807 30.8168L24.6851 24.5646L28.9029 20.1363C28.9906 20.0436 29.0222 19.9058 28.9841 19.7806Z" fill="#612794"/>
<path fill-rule="evenodd" clip-rule="evenodd" d="M0 22.1296C0 10.3504 8.956 0.798828 20 0.798828C31.044 0.798828 40 10.3504 40 22.1296C40 33.9628 31.4402 42.0925 20.3678 52.6083C20.2455 52.7245 20.1229 52.8409 20 52.9577C19.8771 52.8409 19.7545 52.7245 19.6322 52.6083C8.55985 42.0925 0 33.9628 0 22.1296ZM4 22.5317C4 32.1333 11.162 39.918 20 39.918C28.838 39.918 36 32.1333 36 22.5317C36 12.9301 28.838 5.1454 20 5.1454C11.162 5.1454 4 12.9301 4 22.5317Z" fill="#612794"/>
</svg>
