<svg width="93" height="44" viewBox="0 0 93 44" fill="none" xmlns="http://www.w3.org/2000/svg">
<path d="M92.9995 0L5.40918 10.5721V13.2906L84.4842 4.56445L78.2397 40.8787H80.7108L92.9995 0Z" fill="#112957"/>
<path d="M5.40969 13.2905L3.50628 13.4919L0 43.9328L77.7059 43.9999L78.2402 40.8786H5.3763L5.40969 13.2905Z" fill="#B0B0B0"/>
<path d="M15.9616 23.0907V23.7955H13.4571V23.0907L13.9246 22.9229L13.7242 22.2852H11.9544L11.754 22.9229L12.2549 23.0907V23.7955H10.0176V23.0907L10.4183 22.9229L12.2883 17.8885L13.791 17.855L15.5608 22.9229L15.9616 23.0907ZM12.2883 21.2448H13.4905L12.9562 19.231L12.2883 21.2448Z" fill="#1A374D"/>
<path d="M21.104 22.0501C21.104 23.359 20.002 23.9296 18.6663 23.9296C18.0652 23.9296 17.3974 23.8289 16.7629 23.594L16.7963 21.9159H17.6311L17.7981 22.7214C18.0652 22.8556 18.3992 22.8892 18.6997 22.8892C19.234 22.8892 19.6681 22.6878 19.6681 22.2851C19.6681 21.2111 16.7295 21.7816 16.7295 19.6336C16.7295 18.3918 17.6979 17.8213 18.9668 17.8213C19.5679 17.8213 20.2358 17.9555 20.9036 18.1905L20.8035 19.7343H19.9352L19.7683 18.9624C19.5345 18.8953 19.3008 18.8617 19.067 18.8617C18.5661 18.8617 18.1654 19.0295 18.1654 19.4323C18.132 20.372 21.104 19.9357 21.104 22.0501Z" fill="#1A374D"/>
<path d="M26.7478 17.8887V19.701H25.913L25.7127 18.9291H25.0114V22.8894L25.6459 23.0908V23.7956H22.9076V23.0908L23.5421 22.923V18.9291H22.8409L22.6739 19.701H21.8057V17.8887H26.7478Z" fill="#1A374D"/>
<path d="M27.5156 20.9092C27.5156 18.8284 28.6176 17.7544 30.354 17.7544C32.0571 17.7544 33.0589 18.8284 33.0589 20.7079C33.0589 22.688 31.9569 23.8963 30.1537 23.8963C28.484 23.9298 27.5156 22.8558 27.5156 20.9092ZM31.4894 20.775C31.4894 19.3318 31.0553 18.8619 30.2873 18.8619C29.5526 18.8619 29.0851 19.2983 29.0851 20.8421C29.0851 22.2517 29.4858 22.7887 30.2539 22.7887C30.9885 22.7887 31.4894 22.3524 31.4894 20.775Z" fill="#1A374D"/>
<path d="M40.0045 18.5936L39.4369 18.795V23.7957H37.7672L35.797 19.8018V22.8896L36.3647 23.0909V23.7957H34.0605V23.0909L34.6282 22.8896V18.8285L34.0605 18.6607V17.9559L36.3313 17.9224L38.2347 21.782V18.8621L37.667 18.6943V17.9895L39.9711 17.9559V18.5936H40.0045Z" fill="#1A374D"/>
<path d="M12.2546 31.8507V32.9583L12.9892 33.1597V33.8645H10.251V33.1597L10.8187 32.9918V28.8637L10.251 28.6959V27.9911L12.288 27.9575H12.9558C14.3917 27.9575 14.9928 28.7966 14.9928 29.837C14.9928 30.9781 14.2582 31.8843 12.5551 31.8843H12.2546V31.8507ZM12.2546 28.9644V30.8103H12.5551C13.1896 30.8103 13.4901 30.4076 13.4901 29.837C13.4901 29.3 13.223 28.9644 12.6887 28.9644H12.2546Z" fill="#1A374D"/>
<path d="M21.1715 33.1595V33.8643H18.667V33.1595L19.1345 32.9917L18.9342 32.354H17.1643L16.964 32.9917L17.4649 33.1595V33.8643H15.2275V33.1595L15.6283 32.9917L17.4983 27.9574L19.001 27.9238L20.7708 32.9917L21.1715 33.1595ZM17.4649 31.3136H18.667L18.1327 29.2999L17.4649 31.3136Z" fill="#1A374D"/>
<path d="M27.0816 33.1593V33.8641H25.5455L24.8109 32.2867C24.5437 31.6826 24.4769 31.5483 23.976 31.5819H23.8425V32.9579L24.4435 33.1593V33.8641H21.8389V33.1593L22.4066 32.9579V28.8969L21.8389 28.7291V28.0243L23.9092 27.9907H24.6439C26.013 27.9907 26.7143 28.5948 26.7143 29.6688C26.7143 30.4743 26.3136 31.0784 25.4119 31.3469C25.7125 31.4476 25.9128 31.649 26.0464 31.9511L26.6141 33.025L27.0816 33.1593ZM25.2116 29.7024C25.2116 29.2661 24.9444 28.964 24.4435 28.964H23.8425V30.5414H24.2432C24.911 30.5414 25.2116 30.2729 25.2116 29.7024Z" fill="#1A374D"/>
<path d="M32.5574 27.9575V29.7699H31.7226L31.5556 28.9979H30.8544V32.9583L31.4888 33.1597V33.8645H28.7172V33.1597L29.3517 32.9918V28.9979H28.6504L28.4835 29.7699H27.6152V27.9575H32.5574Z" fill="#1A374D"/>
<path d="M39.2701 28.662L38.7359 28.8633V33.8641H37.0662L35.0626 29.8702V32.9579L35.6303 33.1593V33.8641H33.3262V33.1593L33.8939 32.9579V28.8969L33.3262 28.7291V28.0243L35.5969 27.9907L37.5003 31.8504V28.9305L36.9326 28.7627V28.0578L39.2368 28.0243V28.662H39.2701Z" fill="#1A374D"/>
<path d="M44.613 32.186V33.8641H40.2051V33.1593L40.7728 32.9579V28.8969L40.2051 28.7291V28.0243L42.1753 27.9907H44.5128V29.5346H43.6446L43.511 28.964H42.1753V30.3401H43.8115V31.3469H42.1753V32.8237H43.6112L43.7448 32.186H44.613Z" fill="#1A374D"/>
<path d="M50.9576 33.1593V33.8641H49.4215L48.6868 32.2867C48.4197 31.6826 48.3529 31.5483 47.852 31.5819H47.7184V32.9579L48.3195 33.1593V33.8641H45.7148V33.1593L46.2825 32.9579V28.8969L45.7148 28.7291V28.0243L47.7852 27.9907H48.5199C49.889 27.9907 50.5902 28.5948 50.5902 29.6688C50.5902 30.4743 50.1895 31.0784 49.2879 31.3469C49.5884 31.4476 49.7888 31.649 49.9224 31.9511L50.4901 33.025L50.9576 33.1593ZM49.1209 29.7024C49.1209 29.2661 48.8538 28.964 48.3529 28.964H47.7518V30.5414H48.1525C48.787 30.5414 49.1209 30.2729 49.1209 29.7024Z" fill="#1A374D"/>
<path d="M56.3343 32.119C56.3343 33.4279 55.2323 33.9985 53.8966 33.9985C53.2955 33.9985 52.6276 33.8978 51.9932 33.6628L52.0599 31.9847H52.8948L53.0617 32.7902C53.3289 32.9245 53.6628 32.958 53.9634 32.958C54.4977 32.958 54.9318 32.7567 54.9318 32.3539C54.9318 31.2799 51.9932 31.8505 51.9932 29.7025C51.9932 28.4607 52.9616 27.8901 54.2305 27.8901C54.8316 27.8901 55.4994 28.0244 56.1673 28.2593L56.0671 29.8032H55.1989L55.0319 29.0313C54.7982 28.9641 54.5644 28.9306 54.3307 28.9306C53.8298 28.9306 53.4291 29.0984 53.4291 29.5011C53.3623 30.4409 56.3343 30.0046 56.3343 32.119Z" fill="#1A374D"/>
<path d="M62.7452 28.8633V32.9244L63.2795 33.1257V33.8305H60.7082V33.1257L61.2425 32.9244V31.3469H59.2389V32.9244L59.8066 33.1257V33.8305H57.2354V33.1257L57.803 32.9244V28.8969L57.2354 28.7291V28.0243L59.8066 27.9907V28.6955L59.2389 28.8969V30.3401H61.2425V28.8969L60.7082 28.7291V28.0243L63.2795 27.9907V28.6955L62.7452 28.8633Z" fill="#1A374D"/>
<path d="M66.319 28.8973V32.9583L66.8867 33.1597V33.8645H64.3154V33.1597L64.8831 32.9583V28.8973L64.3154 28.6959V27.9911L66.8867 27.9575V28.6623L66.319 28.8973Z" fill="#1A374D"/>
<path d="M69.8913 31.8507V32.9583L70.6259 33.1597V33.8645H67.8877V33.1597L68.4554 32.9918V28.8637L67.8877 28.6959V27.9911L69.9247 27.9575H70.5925C72.0284 27.9575 72.6295 28.7966 72.6295 29.837C72.6295 30.9781 71.8949 31.8843 70.1918 31.8843H69.8913V31.8507ZM69.8913 28.9644V30.8103H70.1918C70.8263 30.8103 71.1268 30.4076 71.1268 29.837C71.1268 29.3 70.8597 28.9644 70.3254 28.9644H69.8913Z" fill="#1A374D"/>
</svg>
