<svg width="91" height="32" viewBox="0 0 91 32" fill="none" xmlns="http://www.w3.org/2000/svg">
<path d="M90.201 0H51.416L65.08 32H90.201V0Z" fill="white"/>
<path d="M2.39515 31.7416C2.2308 31.9059 2.0195 31.9763 1.76125 31.9763H0.892578V29.5347H1.73777C1.99603 29.5347 2.20732 29.6051 2.37167 29.7694C2.62992 30.0277 2.62992 30.3799 2.62992 30.732C2.62992 31.0842 2.6534 31.4833 2.39515 31.7416ZM2.13689 30.0277C2.04298 29.9103 1.90212 29.8634 1.71429 29.8634H1.26822V31.6242H1.71429C1.87864 31.6242 2.0195 31.5772 2.13689 31.4598C2.25428 31.319 2.25428 31.0607 2.25428 30.7085C2.25428 30.4033 2.25428 30.1686 2.13689 30.0277Z" fill="white"/>
<path d="M3.19336 31.9763V29.5347H4.74288V29.8634H3.54552V30.5677H4.55506V30.8964H3.54552V31.6242H4.74288V31.9529H3.19336V31.9763Z" fill="white"/>
<path d="M6.03407 31.9763H5.75234L4.9541 29.5347H5.32974L5.89321 31.319L6.45667 29.5347H6.85579L6.03407 31.9763Z" fill="white"/>
<path d="M7.18457 31.9763V29.5347H8.73409V29.8634H7.53673V30.5677H8.54627V30.8964H7.53673V31.6242H8.73409V31.9529H7.18457V31.9763Z" fill="white"/>
<path d="M9.25098 31.9763V29.5347H9.62662V31.6477H10.8005V31.9763H9.25098Z" fill="white"/>
<path d="M12.5846 31.7421C12.4203 31.9064 12.209 32.0003 11.9507 32.0003C11.6924 32.0003 11.4812 31.9064 11.3168 31.7421C11.082 31.5073 11.082 31.2256 11.082 30.756C11.082 30.2865 11.082 30.0048 11.3168 29.77C11.4812 29.6056 11.6924 29.5117 11.9507 29.5117C12.209 29.5117 12.4203 29.6056 12.5846 29.77C12.8194 30.0048 12.8194 30.2865 12.8194 30.756C12.7959 31.2256 12.8194 31.4838 12.5846 31.7421ZM12.3029 30.0048C12.209 29.9108 12.0916 29.8639 11.9507 29.8639C11.8098 29.8639 11.669 29.9108 11.5751 30.0048C11.4577 30.1456 11.4342 30.263 11.4342 30.756C11.4342 31.2491 11.4577 31.3899 11.5751 31.5073C11.669 31.6012 11.7864 31.6482 11.9507 31.6482C12.0916 31.6482 12.2324 31.5777 12.3029 31.5073C12.4203 31.3665 12.4437 31.2491 12.4437 30.756C12.4437 30.263 12.4203 30.1221 12.3029 30.0048Z" fill="white"/>
<path d="M14.275 31.0138H13.7116V31.9763H13.3359V29.5347H14.2516C14.7211 29.5347 15.0263 29.8399 15.0263 30.286C15.0733 30.7085 14.7681 31.0138 14.275 31.0138ZM14.275 29.8634H13.7351V30.6851H14.275C14.5333 30.6851 14.6976 30.5442 14.6976 30.286C14.6976 30.0277 14.5098 29.8634 14.275 29.8634Z" fill="white"/>
<path d="M15.5195 31.9763V29.5347H17.0691V29.8634H15.8717V30.5677H16.9047V30.8964H15.8952V31.6242H17.0925V31.9529H15.5195V31.9763Z" fill="white"/>
<path d="M19.064 31.7416C18.8997 31.9059 18.6884 31.9763 18.4302 31.9763H17.585V29.5347H18.4302C18.6884 29.5347 18.8997 29.6051 19.064 29.7694C19.3223 30.0277 19.2988 30.3799 19.2988 30.732C19.3223 31.0842 19.3458 31.4833 19.064 31.7416ZM18.8293 30.0277C18.7354 29.9103 18.5945 29.8634 18.4067 29.8634H17.9606V31.6242H18.4067C18.5945 31.6242 18.7119 31.5772 18.8293 31.4598C18.9467 31.319 18.9701 31.0607 18.9701 30.7085C18.9467 30.4033 18.9467 30.1686 18.8293 30.0277Z" fill="white"/>
<path d="M22.6796 31.9763H22.3509L21.8579 30.2625L21.3649 31.9763H21.0362L20.4258 29.5347H20.8249L21.2475 31.272L21.7405 29.5347H22.0457L22.5388 31.272L22.9614 29.5347H23.3605L22.6796 31.9763Z" fill="white"/>
<path d="M23.6895 31.9763V29.5347H24.0651V31.9763H23.6895Z" fill="white"/>
<path d="M25.5204 29.8634V31.9763H25.1447V29.8634H24.4639V29.5347H26.1777V29.8634H25.5204Z" fill="white"/>
<path d="M27.9857 31.9763V30.9198H26.9997V31.9763H26.624V29.5347H26.9997V30.5677H27.9857V29.5347H28.3614V31.9763H27.9857Z" fill="white"/>
<path d="M31.2955 31.7416C31.1312 31.9059 30.9199 31.9763 30.6616 31.9763H29.8164V29.5347H30.6616C30.9199 29.5347 31.1312 29.6051 31.2955 29.7694C31.5538 30.0277 31.5303 30.3799 31.5303 30.732C31.5538 31.0842 31.5538 31.4833 31.2955 31.7416ZM31.0372 30.0277C30.9433 29.9103 30.8025 29.8634 30.6146 29.8634H30.1686V31.6242H30.6146C30.8025 31.6242 30.9199 31.5772 31.0372 31.4598C31.1546 31.319 31.1781 31.0607 31.1781 30.7085C31.1781 30.4033 31.1781 30.1686 31.0372 30.0277Z" fill="white"/>
<path d="M32.0938 31.9763V29.5347H33.6433V29.8634H32.4459V30.5677H33.4555V30.8964H32.4459V31.6242H33.6433V31.9529H32.0938V31.9763Z" fill="white"/>
<path d="M35.5219 31.9763L35.0054 30.9433H34.5358V31.9763H34.1602V29.5347H35.0993C35.5688 29.5347 35.8505 29.8399 35.8505 30.239C35.8505 30.5912 35.6392 30.8025 35.3575 30.8964L35.921 31.9763H35.5219ZM35.0993 29.8634H34.5593V30.6381H35.0993C35.334 30.6381 35.5219 30.4972 35.5219 30.2625C35.4984 30.0042 35.334 29.8634 35.0993 29.8634Z" fill="white"/>
<path d="M38.1984 31.9763V30.3564L37.6349 31.5537H37.3532L36.7897 30.3564V31.9763H36.4141V29.5347H36.7897L37.494 31.0607L38.1984 29.5347H38.574V31.9763H38.1984Z" fill="white"/>
<path d="M40.6162 31.9763L40.4518 31.4833H39.4892L39.3249 31.9763H38.9258L39.8179 29.5347H40.1231L41.0153 31.9763H40.6162ZM39.9588 30.0981L39.5832 31.1781H40.3344L39.9588 30.0981Z" fill="white"/>
<path d="M41.9784 29.8634V31.9763H41.6027V29.8634H40.9219V29.5347H42.6357V29.8634H41.9784Z" fill="white"/>
<path d="M44.444 31.7421C44.2796 31.9064 44.0683 32.0003 43.8101 32.0003C43.5518 32.0003 43.3405 31.9064 43.1762 31.7421C42.9414 31.5073 42.9414 31.2256 42.9414 30.756C42.9414 30.2865 42.9414 30.0048 43.1762 29.77C43.3405 29.6056 43.5518 29.5117 43.8101 29.5117C44.0683 29.5117 44.2796 29.6056 44.444 29.77C44.6788 30.0048 44.6788 30.2865 44.6788 30.756C44.6788 31.2256 44.6788 31.4838 44.444 31.7421ZM44.1622 30.0048C44.0683 29.9108 43.9509 29.8639 43.8101 29.8639C43.6692 29.8639 43.5283 29.9108 43.4579 30.0048C43.3405 30.1456 43.317 30.263 43.317 30.756C43.317 31.2491 43.3405 31.3899 43.4579 31.5073C43.5518 31.6012 43.6692 31.6482 43.8101 31.6482C43.9509 31.6482 44.0918 31.5777 44.1622 31.5073C44.2796 31.3665 44.3031 31.2491 44.3031 30.756C44.3031 30.263 44.2796 30.1221 44.1622 30.0048Z" fill="white"/>
<path d="M45.2188 31.9763V29.5347H45.5944V31.6477H46.7683V31.9763H45.2188Z" fill="white"/>
<path d="M48.5289 31.7421C48.3646 31.9064 48.1533 32.0003 47.895 32.0003C47.6368 32.0003 47.4255 31.9064 47.2611 31.7421C47.0264 31.5073 47.0264 31.2256 47.0264 30.756C47.0264 30.2865 47.0264 30.0048 47.2611 29.77C47.4255 29.6056 47.6368 29.5117 47.895 29.5117C48.1533 29.5117 48.3646 29.6056 48.5289 29.77C48.7637 30.0048 48.7637 30.2865 48.7637 30.756C48.7637 31.2256 48.7637 31.4838 48.5289 31.7421ZM48.2472 30.0048C48.1533 29.9108 48.0359 29.8639 47.895 29.8639C47.7542 29.8639 47.6133 29.9108 47.5429 30.0048C47.4255 30.1456 47.402 30.263 47.402 30.756C47.402 31.2491 47.4255 31.3899 47.5429 31.5073C47.6368 31.6012 47.7542 31.6482 47.895 31.6482C48.0359 31.6482 48.1768 31.5777 48.2472 31.5073C48.3646 31.3665 48.3881 31.2491 48.3881 30.756C48.3881 30.263 48.3646 30.1221 48.2472 30.0048Z" fill="white"/>
<path d="M50.7829 31.7186C50.5951 31.9064 50.3603 32.0003 50.1021 32.0003C49.8438 32.0003 49.6325 31.9064 49.4682 31.7421C49.2334 31.5073 49.2334 31.2256 49.2334 30.756C49.2334 30.2865 49.2334 30.0048 49.4682 29.77C49.6325 29.6056 49.8438 29.5117 50.1021 29.5117C50.6186 29.5117 50.9238 29.8404 50.9942 30.263H50.6186C50.5481 30.0047 50.3838 29.8404 50.1021 29.8404C49.9612 29.8404 49.8203 29.8874 49.7499 29.9813C49.6325 30.1221 49.609 30.2395 49.609 30.7326C49.609 31.2256 49.6325 31.3665 49.7499 31.4838C49.8438 31.5778 49.9612 31.6247 50.1021 31.6247C50.2664 31.6247 50.4073 31.5543 50.5012 31.4604C50.5951 31.3665 50.6186 31.2256 50.6186 31.0847V30.9439H50.1021V30.6386H50.9942V31.0143C50.9942 31.343 50.9473 31.5543 50.7829 31.7186Z" fill="white"/>
<path d="M51.5566 31.9763V29.5347H51.9323V31.9763H51.5566Z" fill="white"/>
<path d="M53.2007 31.9998C52.8251 31.9998 52.5668 31.9059 52.332 31.6711L52.5668 31.4364C52.7546 31.6242 52.9425 31.6711 53.2007 31.6711C53.5294 31.6711 53.6937 31.5303 53.6937 31.2955C53.6937 31.1781 53.6703 31.1077 53.5998 31.0372C53.5294 30.9903 53.4824 30.9668 53.3416 30.9433L53.0598 30.8964C52.872 30.8729 52.7077 30.8025 52.5903 30.7085C52.4729 30.5912 52.4025 30.4503 52.4025 30.239C52.4025 29.8164 52.7077 29.5347 53.2242 29.5347C53.5529 29.5347 53.7642 29.6051 53.9755 29.8164L53.7407 30.0512C53.5763 29.9103 53.412 29.8634 53.2007 29.8634C52.919 29.8634 52.7546 30.0277 52.7546 30.239C52.7546 30.3329 52.7781 30.4033 52.8485 30.4738C52.919 30.5207 53.0129 30.5677 53.1303 30.5912L53.412 30.6381C53.6468 30.6616 53.7642 30.732 53.8581 30.8259C53.9989 30.9433 54.0459 31.1077 54.0459 31.319C54.0694 31.7181 53.7172 31.9998 53.2007 31.9998Z" fill="white"/>
<path d="M55.4081 29.8634V31.9763H55.0324V29.8634H54.3516V29.5347H56.0654V29.8634H55.4081Z" fill="white"/>
<path d="M57.145 31.9998C56.7694 31.9998 56.5111 31.9059 56.2764 31.6711L56.5346 31.4364C56.7224 31.6242 56.9103 31.6711 57.1685 31.6711C57.4972 31.6711 57.6615 31.5303 57.6615 31.2955C57.6615 31.1781 57.6381 31.1077 57.5676 31.0372C57.4972 30.9903 57.4503 30.9668 57.3094 30.9433L57.0277 30.8964C56.8398 30.8729 56.6755 30.8025 56.5581 30.7085C56.4407 30.5912 56.3703 30.4503 56.3703 30.239C56.3703 29.8164 56.6755 29.5347 57.192 29.5347C57.5207 29.5347 57.732 29.6051 57.9433 29.8164L57.7085 30.0512C57.5676 29.9103 57.3798 29.8634 57.1685 29.8634C56.8868 29.8634 56.7224 30.0277 56.7224 30.239C56.7224 30.3329 56.7459 30.4033 56.8164 30.4738C56.8633 30.5207 56.9807 30.5677 57.0981 30.5912L57.3798 30.6381C57.6146 30.6616 57.732 30.732 57.8259 30.8259C57.9668 30.9433 58.0137 31.1077 58.0137 31.319C58.0372 31.7181 57.6615 31.9998 57.145 31.9998Z" fill="white"/>
<path d="M16.9743 21.5291C15.1665 23.2665 13.3588 24.4169 10.4945 24.4169C6.0807 24.4169 2.74688 20.8483 2.74688 16.1293C2.74688 11.4337 6.0807 7.88862 10.4945 7.88862C12.8892 7.88862 14.7674 8.71033 16.81 10.6355L16.9508 10.7529L18.7821 8.78077L18.6412 8.68686C16.8335 6.97299 14.5796 5.39999 10.5415 5.39999C4.53118 5.37651 0 10.0251 0 16.1762C0 22.3039 4.48423 26.9055 10.4475 26.9055C14.6031 26.9055 16.9743 25.0508 18.7586 23.2665L18.8995 23.1256L17.1152 21.3882L16.9743 21.5291Z" fill="white"/>
<path d="M26.4355 10.7759C22.2096 10.7759 19.0166 14.2271 19.0166 18.8522C19.0166 23.4538 22.3269 26.9285 26.7407 26.9285C29.3468 26.9285 31.3189 26.0363 33.1032 24.0407L33.2206 23.8999L31.5536 22.3973L31.4363 22.5147C30.0746 23.9233 28.6189 24.6042 26.8112 24.6042C24.0878 24.6042 22.0687 22.7025 21.6931 19.8617H33.6432L33.6666 19.6974C33.6901 19.4156 33.6901 19.1809 33.6901 18.9696C33.6666 14.0627 30.7789 10.7759 26.4355 10.7759ZM21.6696 17.8192C22.0217 15.0019 23.9469 13.0297 26.3651 13.0297C29.3937 13.0297 30.7319 15.4714 30.9902 17.8192H21.6696Z" fill="white"/>
<path d="M43.598 13.6168V10.823H43.4102C40.9216 10.7291 38.7147 12.0673 37.4234 14.4385V11.0812H34.8174V26.5765H37.4234V20.3549C37.4234 16.2463 39.7007 13.6168 43.2458 13.6168H43.598Z" fill="white"/>
<path d="M73.5081 5.72803L66.324 23.078L59.1633 5.72803H56.1816L65.1501 26.717H67.4274L76.3959 5.72803H73.5081Z" fill="#0072BF"/>
<path d="M80.0352 10.7759C75.7857 10.7759 72.5928 14.2506 72.5928 18.8522C72.5928 23.4538 75.9266 26.9285 80.3169 26.9285C82.9229 26.9285 84.895 26.0363 86.6793 24.0407L86.7967 23.8999L85.1298 22.3973L85.0124 22.5147C83.6507 23.9233 82.1951 24.6042 80.3873 24.6042C77.6639 24.6042 75.6214 22.7025 75.2692 19.8617H87.2193L87.2428 19.6974C87.2663 19.4156 87.2663 19.1809 87.2663 18.9696C87.2663 14.0627 84.3551 10.7759 80.0352 10.7759ZM84.5898 17.8192H75.2692C75.6214 15.0019 77.5465 13.0297 79.9647 13.0297C82.9934 13.0297 84.3316 15.4714 84.5898 17.8192Z" fill="#0072BF"/>
<path d="M49.3499 10.8936H44.6544V13.2413H49.209C51.9324 13.2648 53.435 14.6734 53.435 17.1856V17.4673C52.2846 17.1621 50.9464 16.8803 48.9742 16.8803C44.8187 16.8803 42.3301 18.782 42.3301 21.975C42.3301 25.3558 45.3587 26.9053 48.1525 26.9053C50.782 26.9053 52.4489 25.7549 53.435 24.628V26.5766H55.9706V17.1386C55.9706 13.1004 53.6228 10.8936 49.3499 10.8936ZM48.5986 24.7453C46.8613 24.7453 44.983 23.8532 44.983 21.8811C44.983 20.0263 46.556 18.8994 49.209 18.8994C50.6412 18.8994 52.0498 19.0872 53.4585 19.4864V20.8011C53.4585 23.055 51.369 24.7453 48.5986 24.7453Z" fill="white"/>
</svg>
