<svg width="91" height="32" viewBox="0 0 91 32" fill="none" xmlns="http://www.w3.org/2000/svg">
<path d="M90.1991 0H51.4141L65.078 32H90.1991V0Z" fill="#0072BB"/>
<path d="M2.39319 31.7421C2.22885 31.9064 2.01755 31.9768 1.7593 31.9768H0.890625V29.5352H1.73582C1.99407 29.5352 2.20537 29.6056 2.36971 29.7699C2.62797 30.0282 2.62797 30.3803 2.62797 30.7325C2.62797 31.0847 2.65145 31.4838 2.39319 31.7421ZM2.13494 30.0282C2.04103 29.9108 1.90016 29.8638 1.71234 29.8638H1.26627V31.6247H1.71234C1.87669 31.6247 2.01755 31.5777 2.13494 31.4603C2.25233 31.3195 2.25233 31.0612 2.25233 30.709C2.25233 30.4038 2.25233 30.1691 2.13494 30.0282Z" fill="#083355"/>
<path d="M3.19141 31.9768V29.5352H4.74093V29.8638H3.54357V30.5682H4.55311V30.8969H3.54357V31.6247H4.74093V31.9534H3.19141V31.9768Z" fill="#083355"/>
<path d="M6.0331 31.9768H5.75136L4.95312 29.5352H5.32877L5.89223 31.3195L6.45569 29.5352H6.85481L6.0331 31.9768Z" fill="#083355"/>
<path d="M7.18359 31.9768V29.5352H8.73312V29.8638H7.53576V30.5682H8.5453V30.8969H7.53576V31.6247H8.73312V31.9534H7.18359V31.9768Z" fill="#083355"/>
<path d="M9.25 31.9768V29.5352H9.62564V31.6481H10.7995V31.9768H9.25Z" fill="#083355"/>
<path d="M12.5807 31.7421C12.4163 31.9064 12.2051 32.0003 11.9468 32.0003C11.6885 32.0003 11.4772 31.9064 11.3129 31.7421C11.0781 31.5073 11.0781 31.2256 11.0781 30.756C11.0781 30.2865 11.0781 30.0048 11.3129 29.77C11.4772 29.6056 11.6885 29.5117 11.9468 29.5117C12.2051 29.5117 12.4163 29.6056 12.5807 29.77C12.8155 30.0048 12.8155 30.2865 12.8155 30.756C12.792 31.2256 12.8155 31.4838 12.5807 31.7421ZM12.299 30.0048C12.2051 29.9108 12.0877 29.8639 11.9468 29.8639C11.8059 29.8639 11.6651 29.9108 11.5712 30.0048C11.4538 30.1456 11.4303 30.263 11.4303 30.756C11.4303 31.2491 11.4538 31.3899 11.5712 31.5073C11.6651 31.6012 11.7825 31.6482 11.9468 31.6482C12.0877 31.6482 12.2285 31.5777 12.299 31.5073C12.4163 31.3665 12.4398 31.2491 12.4398 30.756C12.4398 30.263 12.4163 30.1221 12.299 30.0048Z" fill="#083355"/>
<path d="M14.2711 31.0142H13.7077V31.9768H13.332V29.5352H14.2477C14.7172 29.5352 15.0224 29.8404 15.0224 30.2864C15.0694 30.709 14.7642 31.0142 14.2711 31.0142ZM14.2711 29.8638H13.7312V30.6856H14.2711C14.5294 30.6856 14.6937 30.5447 14.6937 30.2864C14.6937 30.0282 14.5059 29.8638 14.2711 29.8638Z" fill="#083355"/>
<path d="M15.5156 31.9768V29.5352H17.0651V29.8638H15.8678V30.5682H16.9008V30.8969H15.8913V31.6247H17.0886V31.9534H15.5156V31.9768Z" fill="#083355"/>
<path d="M19.0611 31.7421C18.8968 31.9064 18.6855 31.9768 18.4272 31.9768H17.582V29.5352H18.4272C18.6855 29.5352 18.8968 29.6056 19.0611 29.7699C19.3194 30.0282 19.2959 30.3803 19.2959 30.7325C19.3194 31.0847 19.3429 31.4838 19.0611 31.7421ZM18.8263 30.0282C18.7324 29.9108 18.5916 29.8638 18.4037 29.8638H17.9577V31.6247H18.4037C18.5916 31.6247 18.709 31.5777 18.8263 31.4603C18.9437 31.3195 18.9672 31.0612 18.9672 30.709C18.9437 30.4038 18.9437 30.1691 18.8263 30.0282Z" fill="#083355"/>
<path d="M22.6796 31.9768H22.3509L21.8579 30.263L21.3649 31.9768H21.0362L20.4258 29.5352H20.8249L21.2475 31.2725L21.7405 29.5352H22.0457L22.5388 31.2725L22.9614 29.5352H23.3605L22.6796 31.9768Z" fill="#083355"/>
<path d="M23.6875 31.9768V29.5352H24.0631V31.9768H23.6875Z" fill="#083355"/>
<path d="M25.5174 29.8638V31.9768H25.1418V29.8638H24.4609V29.5352H26.1748V29.8638H25.5174Z" fill="#083355"/>
<path d="M27.9828 31.9768V30.9203H26.9967V31.9768H26.6211V29.5352H26.9967V30.5682H27.9828V29.5352H28.3584V31.9768H27.9828Z" fill="#083355"/>
<path d="M31.2955 31.7421C31.1312 31.9064 30.9199 31.9768 30.6616 31.9768H29.8164V29.5352H30.6616C30.9199 29.5352 31.1312 29.6056 31.2955 29.7699C31.5538 30.0282 31.5303 30.3803 31.5303 30.7325C31.5538 31.0847 31.5538 31.4838 31.2955 31.7421ZM31.0372 30.0282C30.9433 29.9108 30.8025 29.8638 30.6146 29.8638H30.1686V31.6247H30.6146C30.8025 31.6247 30.9199 31.5777 31.0372 31.4603C31.1546 31.3195 31.1781 31.0612 31.1781 30.709C31.1781 30.4038 31.1781 30.1691 31.0372 30.0282Z" fill="#083355"/>
<path d="M32.0938 31.9768V29.5352H33.6433V29.8638H32.4459V30.5682H33.4555V30.8969H32.4459V31.6247H33.6433V31.9534H32.0938V31.9768Z" fill="#083355"/>
<path d="M35.518 31.9768L35.0014 30.9438H34.5319V31.9768H34.1562V29.5352H35.0954C35.5649 29.5352 35.8466 29.8404 35.8466 30.2395C35.8466 30.5916 35.6353 30.8029 35.3536 30.8969L35.9171 31.9768H35.518ZM35.0954 29.8638H34.5554V30.6386H35.0954C35.3301 30.6386 35.518 30.4977 35.518 30.263C35.4945 30.0047 35.3301 29.8638 35.0954 29.8638Z" fill="#083355"/>
<path d="M38.1984 31.9768V30.3569L37.6349 31.5542H37.3532L36.7897 30.3569V31.9768H36.4141V29.5352H36.7897L37.494 31.0612L38.1984 29.5352H38.574V31.9768H38.1984Z" fill="#083355"/>
<path d="M40.6162 31.9768L40.4518 31.4838H39.4892L39.3249 31.9768H38.9258L39.8179 29.5352H40.1231L41.0153 31.9768H40.6162ZM39.9588 30.0986L39.5832 31.1786H40.3344L39.9588 30.0986Z" fill="#083355"/>
<path d="M41.9784 29.8638V31.9768H41.6027V29.8638H40.9219V29.5352H42.6357V29.8638H41.9784Z" fill="#083355"/>
<path d="M44.4401 31.7421C44.2757 31.9064 44.0644 32.0003 43.8062 32.0003C43.5479 32.0003 43.3366 31.9064 43.1723 31.7421C42.9375 31.5073 42.9375 31.2256 42.9375 30.756C42.9375 30.2865 42.9375 30.0048 43.1723 29.77C43.3366 29.6056 43.5479 29.5117 43.8062 29.5117C44.0644 29.5117 44.2757 29.6056 44.4401 29.77C44.6748 30.0048 44.6748 30.2865 44.6748 30.756C44.6748 31.2256 44.6748 31.4838 44.4401 31.7421ZM44.1583 30.0048C44.0644 29.9108 43.947 29.8639 43.8062 29.8639C43.6653 29.8639 43.5244 29.9108 43.454 30.0048C43.3366 30.1456 43.3131 30.263 43.3131 30.756C43.3131 31.2491 43.3366 31.3899 43.454 31.5073C43.5479 31.6012 43.6653 31.6482 43.8062 31.6482C43.947 31.6482 44.0879 31.5777 44.1583 31.5073C44.2757 31.3665 44.2992 31.2491 44.2992 30.756C44.2992 30.263 44.2757 30.1221 44.1583 30.0048Z" fill="#083355"/>
<path d="M45.2148 31.9768V29.5352H45.5905V31.6481H46.7644V31.9768H45.2148Z" fill="#083355"/>
<path d="M48.526 31.7421C48.3617 31.9064 48.1504 32.0003 47.8921 32.0003C47.6339 32.0003 47.4226 31.9064 47.2582 31.7421C47.0234 31.5073 47.0234 31.2256 47.0234 30.756C47.0234 30.2865 47.0234 30.0048 47.2582 29.77C47.4226 29.6056 47.6339 29.5117 47.8921 29.5117C48.1504 29.5117 48.3617 29.6056 48.526 29.77C48.7608 30.0048 48.7608 30.2865 48.7608 30.756C48.7608 31.2256 48.7608 31.4838 48.526 31.7421ZM48.2443 30.0048C48.1504 29.9108 48.033 29.8639 47.8921 29.8639C47.7512 29.8639 47.6104 29.9108 47.5399 30.0048C47.4226 30.1456 47.3991 30.263 47.3991 30.756C47.3991 31.2491 47.4226 31.3899 47.5399 31.5073C47.6339 31.6012 47.7512 31.6482 47.8921 31.6482C48.033 31.6482 48.1738 31.5777 48.2443 31.5073C48.3617 31.3665 48.3851 31.2491 48.3851 30.756C48.3851 30.263 48.3617 30.1221 48.2443 30.0048Z" fill="#083355"/>
<path d="M50.78 31.7186C50.5922 31.9064 50.3574 32.0003 50.0991 32.0003C49.8409 32.0003 49.6296 31.9064 49.4652 31.7421C49.2305 31.5073 49.2305 31.2256 49.2305 30.756C49.2305 30.2865 49.2305 30.0048 49.4652 29.77C49.6296 29.6056 49.8409 29.5117 50.0991 29.5117C50.6156 29.5117 50.9209 29.8404 50.9913 30.263H50.6157C50.5452 30.0047 50.3809 29.8404 50.0991 29.8404C49.9583 29.8404 49.8174 29.8874 49.747 29.9813C49.6296 30.1221 49.6061 30.2395 49.6061 30.7326C49.6061 31.2256 49.6296 31.3665 49.747 31.4838C49.8409 31.5778 49.9583 31.6247 50.0991 31.6247C50.2635 31.6247 50.4044 31.5543 50.4983 31.4604C50.5922 31.3665 50.6157 31.2256 50.6157 31.0847V30.9439H50.0991V30.6386H50.9913V31.0143C50.9913 31.343 50.9443 31.5543 50.78 31.7186Z" fill="#083355"/>
<path d="M51.5547 31.9768V29.5352H51.9303V31.9768H51.5547Z" fill="#083355"/>
<path d="M53.1968 32.0003C52.8212 32.0003 52.5629 31.9064 52.3281 31.6716L52.5629 31.4368C52.7507 31.6247 52.9385 31.6716 53.1968 31.6716C53.5255 31.6716 53.6898 31.5308 53.6898 31.296C53.6898 31.1786 53.6664 31.1082 53.5959 31.0377C53.5255 30.9908 53.4785 30.9673 53.3377 30.9438L53.0559 30.8969C52.8681 30.8734 52.7038 30.8029 52.5864 30.709C52.469 30.5916 52.3986 30.4508 52.3986 30.2395C52.3986 29.8169 52.7038 29.5352 53.2203 29.5352C53.549 29.5352 53.7603 29.6056 53.9716 29.8169L53.7368 30.0517C53.5724 29.9108 53.4081 29.8638 53.1968 29.8638C52.9151 29.8638 52.7507 30.0282 52.7507 30.2395C52.7507 30.3334 52.7742 30.4038 52.8446 30.4743C52.9151 30.5212 53.009 30.5682 53.1264 30.5916L53.4081 30.6386C53.6429 30.6621 53.7603 30.7325 53.8542 30.8264C53.995 30.9438 54.042 31.1082 54.042 31.3195C54.0655 31.7186 53.7133 32.0003 53.1968 32.0003Z" fill="#083355"/>
<path d="M55.4041 29.8638V31.9768H55.0285V29.8638H54.3477V29.5352H56.0615V29.8638H55.4041Z" fill="#083355"/>
<path d="M57.1421 32.0003C56.7665 32.0003 56.5082 31.9064 56.2734 31.6716L56.5317 31.4368C56.7195 31.6247 56.9073 31.6716 57.1656 31.6716C57.4943 31.6716 57.6586 31.5308 57.6586 31.296C57.6586 31.1786 57.6351 31.1082 57.5647 31.0377C57.4943 30.9908 57.4473 30.9673 57.3065 30.9438L57.0247 30.8969C56.8369 30.8734 56.6726 30.8029 56.5552 30.709C56.4378 30.5916 56.3674 30.4508 56.3674 30.2395C56.3674 29.8169 56.6726 29.5352 57.1891 29.5352C57.5178 29.5352 57.7291 29.6056 57.9403 29.8169L57.7056 30.0517C57.5647 29.9108 57.3769 29.8638 57.1656 29.8638C56.8839 29.8638 56.7195 30.0282 56.7195 30.2395C56.7195 30.3334 56.743 30.4038 56.8134 30.4743C56.8604 30.5212 56.9778 30.5682 57.0952 30.5916L57.3769 30.6386C57.6117 30.6621 57.7291 30.7325 57.823 30.8264C57.9638 30.9438 58.0108 31.1082 58.0108 31.3195C58.0343 31.7186 57.6586 32.0003 57.1421 32.0003Z" fill="white"/>
<path d="M16.9743 21.5296C15.1665 23.2669 13.3588 24.4173 10.4945 24.4173C6.0807 24.4173 2.74688 20.8487 2.74688 16.1297C2.74688 11.4342 6.0807 7.88911 10.4945 7.88911C12.8892 7.88911 14.7674 8.71082 16.81 10.636L16.9508 10.7534L18.7821 8.78126L18.6412 8.68734C16.8335 6.97348 14.5796 5.40048 10.5415 5.40048C4.53118 5.377 0 10.0256 0 16.1767C0 22.3044 4.48423 26.906 10.4475 26.906C14.6031 26.906 16.9743 25.0512 18.7586 23.2669L18.8995 23.1261L17.1152 21.3887L16.9743 21.5296Z" fill="#083355"/>
<path d="M26.4346 10.7754C22.2086 10.7754 19.0156 14.2266 19.0156 18.8517C19.0156 23.4533 22.326 26.928 26.7398 26.928C29.3458 26.928 31.3179 26.0358 33.1022 24.0402L33.2196 23.8994L31.5527 22.3968L31.4353 22.5142C30.0736 23.9229 28.618 24.6037 26.8102 24.6037C24.0868 24.6037 22.0677 22.702 21.6921 19.8612H33.6422L33.6657 19.6969C33.6891 19.4152 33.6891 19.1804 33.6891 18.9691C33.6657 14.0623 30.7779 10.7754 26.4346 10.7754ZM21.6686 17.8187C22.0208 15.0014 23.9459 13.0292 26.3641 13.0292C29.3927 13.0292 30.731 15.4709 30.9892 17.8187H21.6686Z" fill="#083355"/>
<path d="M43.597 13.6168V10.823H43.4092C40.9206 10.7291 38.7137 12.0673 37.4224 14.4385V11.0812H34.8164V26.5765H37.4224V20.3549C37.4224 16.2463 39.6997 13.6168 43.2449 13.6168H43.597Z" fill="#083355"/>
<path d="M73.5101 5.72852L66.3259 23.0785L59.1653 5.72852H56.1836L65.152 26.7175H67.4294L76.3978 5.72852H73.5101Z" fill="white"/>
<path d="M80.0362 10.7754C75.7867 10.7754 72.5938 14.2501 72.5938 18.8517C72.5938 23.4533 75.9276 26.928 80.3179 26.928C82.9239 26.928 84.896 26.0358 86.6803 24.0402L86.7977 23.8994L85.1308 22.3968L85.0134 22.5142C83.6517 23.9229 82.1961 24.6037 80.3883 24.6037C77.6649 24.6037 75.6224 22.702 75.2702 19.8612H87.2203L87.2438 19.6969C87.2673 19.4152 87.2673 19.1804 87.2673 18.9691C87.2673 14.0623 84.356 10.7754 80.0362 10.7754ZM84.5908 17.8187H75.2702C75.6224 15.0014 77.5475 13.0292 79.9657 13.0292C82.9943 13.0292 84.3326 15.4709 84.5908 17.8187Z" fill="white"/>
<path d="M49.3479 10.8945H44.6524V13.2423H49.2071C51.9305 13.2658 53.433 14.6744 53.433 17.1865V17.4683C52.2826 17.1631 50.9444 16.8813 48.9723 16.8813C44.8168 16.8813 42.3281 18.783 42.3281 21.976C42.3281 25.3567 45.3567 26.9063 48.1506 26.9063C50.7801 26.9063 52.447 25.7559 53.433 24.6289V26.5776H55.9686V17.1396C55.9686 13.1014 53.6209 10.8945 49.3479 10.8945ZM48.5966 24.7463C46.8593 24.7463 44.9811 23.8542 44.9811 21.8821C44.9811 20.0273 46.5541 18.9004 49.2071 18.9004C50.6392 18.9004 52.0479 19.0882 53.4565 19.4873V20.8021C53.4565 23.0559 51.367 24.7463 48.5966 24.7463Z" fill="#083355"/>
</svg>
