<svg width="91" height="26" viewBox="0 0 91 26" fill="none" xmlns="http://www.w3.org/2000/svg">
<g clip-path="url(#clip0)">
<path fill-rule="evenodd" clip-rule="evenodd" d="M65.0933 19.1113V10.5608H54.0407V19.1113H50.8906V0H54.0407V8.20206H65.0933V0H68.2434V19.1113H65.0933Z" fill="white"/>
<path fill-rule="evenodd" clip-rule="evenodd" d="M17.8686 26.0002H18.3575L16.6466 22.0064L14.9358 26.0002H15.4246L15.8591 24.9013H17.4341L17.8686 26.0002ZM16.022 24.5528L16.6466 22.9714L17.2712 24.5528H16.022Z" fill="white"/>
<path fill-rule="evenodd" clip-rule="evenodd" d="M45.6766 26.0002H46.1654L44.4545 22.0064L42.7166 26.0002H43.2054L43.6399 24.9013H45.2149L45.6766 26.0002ZM43.8028 24.5528L44.4274 22.9714L45.052 24.5528H43.8028Z" fill="white"/>
<path d="M63.3008 22.2475V26.0001H63.7896V22.2475H63.3008Z" fill="white"/>
<path d="M23.3813 0V19.1113H26.5315V0H23.3813Z" fill="white"/>
<path d="M15.7234 0L9.53178 12.9464C9.55894 12.9196 3.25873 0 3.25873 0H0L9.50463 19.1113L18.9821 0H15.7234Z" fill="white"/>
<path d="M41.223 16.5381C36.6065 16.5381 33.212 13.6165 33.212 9.54227C33.212 5.46804 36.5793 2.54639 41.223 2.54639C43.2597 2.54639 45.1335 3.18969 46.5728 4.23505V1.23299C44.9977 0.45567 43.1783 0 41.223 0C35.2215 0 30.3606 4.28866 30.3606 9.54227C30.3606 14.8227 35.2215 19.0845 41.223 19.0845C43.1783 19.0845 44.9977 18.6289 46.5728 17.8515V14.8495C45.1335 15.9217 43.2597 16.5381 41.223 16.5381Z" fill="white"/>
<path d="M23.0283 24.1774V25.6248H23.5171C24.1689 25.6248 24.4404 25.3568 24.4404 24.9011C24.4404 24.4455 24.1417 24.1506 23.4628 24.1506H23.0283V24.1774ZM23.0283 22.596V23.8022H23.2456C23.5443 23.8022 23.7344 23.7754 23.8702 23.695C24.0331 23.5877 24.1417 23.5073 24.1417 23.2393C24.1417 22.9712 24.0603 22.7836 23.8973 22.7032C23.7887 22.6496 23.5714 22.596 23.2727 22.596H23.0283ZM22.6753 26.0001V22.2475H23.2999C24.1417 22.2475 24.5762 22.596 24.5762 23.2661C24.5762 23.5877 24.4404 23.829 24.196 23.9898C24.4133 24.0434 24.6034 24.1506 24.712 24.3383C24.8478 24.5259 24.8749 24.7135 24.8749 24.9547C24.8749 25.3032 24.7392 25.5712 24.4676 25.7589C24.2232 25.9197 23.9516 26.0001 23.5443 26.0001H22.6753Z" fill="white"/>
<path d="M31.0667 22.5153C30.6322 22.5153 30.252 22.6761 29.9262 22.9709C29.6275 23.2658 29.4645 23.641 29.4645 24.0699C29.4645 24.4988 29.6275 24.8472 29.9262 25.1689C30.2249 25.4637 30.6051 25.6245 31.0667 25.6245C31.5012 25.6245 31.8814 25.4637 32.2073 25.1689C32.506 24.874 32.6689 24.4988 32.6689 24.0699C32.6689 23.641 32.506 23.2658 32.2073 22.9709C31.8814 22.6493 31.5284 22.5153 31.0667 22.5153ZM31.0667 22.1132C31.637 22.1132 32.0987 22.3008 32.506 22.6761C32.9133 23.0513 33.1034 23.507 33.1034 24.0431C33.1034 24.5792 32.9133 25.0348 32.506 25.4101C32.0987 25.7854 31.637 25.973 31.0667 25.973C30.4965 25.973 30.0348 25.7854 29.6275 25.4101C29.2201 25.0348 29.03 24.5792 29.03 24.0431C29.03 23.507 29.2201 23.0513 29.6275 22.6761C30.0348 22.3008 30.5236 22.1132 31.0667 22.1132Z" fill="white"/>
<path d="M57.055 22.5153C56.6205 22.5153 56.2403 22.6761 55.9145 22.9709C55.6157 23.2658 55.4528 23.641 55.4528 24.0699C55.4528 24.4988 55.6157 24.8472 55.9145 25.1689C56.2132 25.4637 56.5934 25.6245 57.055 25.6245C57.4895 25.6245 57.8697 25.4637 58.1956 25.1689C58.4943 24.874 58.6572 24.4988 58.6572 24.0699C58.6572 23.641 58.4943 23.2658 58.1956 22.9709C57.8697 22.6493 57.4895 22.5153 57.055 22.5153ZM57.055 22.1132C57.6253 22.1132 58.0869 22.3008 58.4943 22.6761C58.9016 23.0513 59.0917 23.507 59.0917 24.0431C59.0917 24.5792 58.9016 25.0348 58.4943 25.4101C58.0869 25.7854 57.6253 25.973 57.055 25.973C56.4847 25.973 56.0231 25.7854 55.6157 25.4101C55.2084 25.0348 55.0183 24.5792 55.0183 24.0431C55.0183 23.507 55.2084 23.0513 55.6157 22.6761C55.9959 22.3008 56.4847 22.1132 57.055 22.1132Z" fill="white"/>
<path d="M82.8533 22.703L82.5274 22.9174C82.3644 22.6494 82.1472 22.5154 81.8756 22.5154C81.7127 22.5154 81.5498 22.569 81.4411 22.6762C81.3054 22.7834 81.2511 22.9174 81.2511 23.1051C81.2511 23.2391 81.3054 23.3731 81.4411 23.4803C81.5226 23.5339 81.6584 23.6144 81.8213 23.6948L82.0657 23.802C82.3645 23.936 82.5817 24.07 82.7175 24.1772C82.9076 24.3649 82.989 24.5793 82.989 24.8473C82.989 25.169 82.8804 25.437 82.636 25.6783C82.3916 25.8927 82.12 26.0267 81.7942 26.0267C81.4955 26.0267 81.2239 25.9463 81.0338 25.7587C80.8166 25.5711 80.6808 25.3566 80.6265 25.0618L81.0338 24.9546C81.061 25.1422 81.1424 25.303 81.2782 25.437C81.414 25.5711 81.5769 25.6515 81.7942 25.6515C82.0114 25.6515 82.1744 25.5711 82.3373 25.437C82.5002 25.303 82.5817 25.1154 82.5817 24.9278C82.5817 24.7401 82.5002 24.5793 82.3644 24.4453C82.283 24.3649 82.12 24.2845 81.8756 24.1772L81.6584 24.07C81.3868 23.9628 81.1967 23.8556 81.0881 23.7216C80.9252 23.5607 80.8437 23.3463 80.8437 23.1051C80.8437 22.837 80.9523 22.5958 81.1696 22.4082C81.3597 22.2473 81.6041 22.1401 81.9028 22.1401C82.3101 22.1133 82.636 22.3278 82.8533 22.703Z" fill="white"/>
<path d="M74.8423 26.0001V22.2475H76.9333V22.6228H75.2768V23.7486H76.7975V24.1506H75.2768V25.598H76.9333V26.0001H74.8423Z" fill="white"/>
<path d="M9.96624 22.2475V25.598H10.9982V26.0001H9.53174V22.2475H9.96624Z" fill="white"/>
<path d="M50.7545 22.6228V26.0001H50.32V22.6228H49.3967V22.2475H51.6778V22.6228H50.7545Z" fill="white"/>
<path d="M37.3395 22.6228V23.963H37.4753C37.774 23.963 37.9913 23.9362 38.1271 23.8558C38.3171 23.7486 38.4258 23.5609 38.4258 23.2929C38.4258 23.0248 38.3171 22.8104 38.1271 22.73C37.9913 22.6496 37.774 22.6228 37.4482 22.6228H37.3395ZM37.3395 24.3383V26.0001H36.905V22.2475H37.4482C38.3715 22.2475 38.8331 22.596 38.8331 23.2929C38.8331 23.5877 38.7516 23.829 38.5616 24.0166C38.3986 24.2042 38.1542 24.3114 37.8555 24.3383L39.1047 26.0001H38.5887L37.4482 24.3383H37.3395Z" fill="white"/>
<path d="M68.8949 22.6228V23.963H69.0307C69.3294 23.963 69.5467 23.9362 69.6825 23.8558C69.8726 23.7486 69.9812 23.5609 69.9812 23.2929C69.9812 23.0248 69.8726 22.8104 69.6825 22.73C69.5467 22.6496 69.3294 22.6228 69.0036 22.6228H68.8949ZM68.8949 24.3383V26.0001H68.4604V22.2475H69.0036C69.9269 22.2475 70.3885 22.596 70.3885 23.2929C70.3885 23.5877 70.3071 23.829 70.1441 24.0166C69.9812 24.2042 69.7368 24.3114 69.4381 24.3383L70.6601 26.0269H70.1441L69.0036 24.3651H68.8949V24.3383Z" fill="white"/>
<path d="M90.9999 0L82.4458 10.9093V19.1113H79.5401V10.9093L70.9587 0H74.3261L80.9793 8.52371L87.6326 0H90.9999Z" fill="white"/>
</g>
<defs>
<clipPath id="clip0">
<rect width="91" height="26" fill="white"/>
</clipPath>
</defs>
</svg>
