<svg width="91" height="26" viewBox="0 0 91 26" fill="none" xmlns="http://www.w3.org/2000/svg">
<g clip-path="url(#clip0)">
<path fill-rule="evenodd" clip-rule="evenodd" d="M65.0933 19.1113V10.5608H54.0407V19.1113H50.8906V0H54.0407V8.20206H65.0933V0H68.2434V19.1113H65.0933Z" fill="#4D565D"/>
<path fill-rule="evenodd" clip-rule="evenodd" d="M17.8704 25.9997H18.3592L16.6483 22.0059L14.9375 25.9997H15.4263L15.8608 24.9007H17.4359L17.8704 25.9997ZM16.0237 24.5523L16.6483 22.9708L17.2729 24.5523H16.0237Z" fill="#4D565D"/>
<path fill-rule="evenodd" clip-rule="evenodd" d="M45.6749 25.9997H46.1637L44.4528 22.0059L42.7148 25.9997H43.2037L43.6381 24.9007H45.2132L45.6749 25.9997ZM43.8011 24.5523L44.4257 22.9708L45.0503 24.5523H43.8011Z" fill="#4D565D"/>
<path d="M63.3008 22.248V26.0006H63.7896V22.248H63.3008Z" fill="#4D565D"/>
<path d="M23.3828 0V19.1113H26.5329V0H23.3828Z" fill="#4D565D"/>
<path d="M15.7234 0L9.53178 12.9464C9.55894 12.9196 3.25873 0 3.25873 0H0L9.50463 19.1113L18.9821 0H15.7234Z" fill="#4D565D"/>
<path d="M41.2218 16.5381C36.6053 16.5381 33.2108 13.6165 33.2108 9.54227C33.2108 5.46804 36.5781 2.54639 41.2218 2.54639C43.2585 2.54639 45.1323 3.18969 46.5715 4.23505V1.23299C44.9965 0.45567 43.177 0 41.2218 0C35.2203 0 30.3594 4.28866 30.3594 9.54227C30.3594 14.8227 35.2203 19.0845 41.2218 19.0845C43.177 19.0845 44.9965 18.6289 46.5715 17.8515V14.8495C45.1323 15.9217 43.2585 16.5381 41.2218 16.5381Z" fill="#4D565D"/>
<path d="M23.0288 24.1779V25.6254H23.5176C24.1694 25.6254 24.4409 25.3573 24.4409 24.9017C24.4409 24.446 24.1422 24.1511 23.4633 24.1511H23.0288V24.1779ZM23.0288 22.5965V23.8027H23.2461C23.5448 23.8027 23.7349 23.7759 23.8706 23.6955C24.0336 23.5883 24.1422 23.5078 24.1422 23.2398C24.1422 22.9718 24.0607 22.7841 23.8978 22.7037C23.7892 22.6501 23.5719 22.5965 23.2732 22.5965H23.0288ZM22.6758 26.0006V22.248H23.3004C24.1422 22.248 24.5767 22.5965 24.5767 23.2666C24.5767 23.5883 24.4409 23.8295 24.1965 23.9903C24.4138 24.0439 24.6039 24.1511 24.7125 24.3388C24.8483 24.5264 24.8754 24.714 24.8754 24.9553C24.8754 25.3037 24.7396 25.5718 24.4681 25.7594C24.2237 25.9202 23.9521 26.0006 23.5448 26.0006H22.6758Z" fill="#4D565D"/>
<path d="M31.068 22.5153C30.6335 22.5153 30.2533 22.6762 29.9274 22.971C29.6287 23.2659 29.4657 23.6411 29.4657 24.07C29.4657 24.4988 29.6287 24.8473 29.9274 25.169C30.2261 25.4638 30.6063 25.6246 31.068 25.6246C31.5024 25.6246 31.8826 25.4638 32.2085 25.169C32.5072 24.8741 32.6702 24.4988 32.6702 24.07C32.6702 23.6411 32.5072 23.2659 32.2085 22.971C31.8826 22.6494 31.5296 22.5153 31.068 22.5153ZM31.068 22.1133C31.6382 22.1133 32.0999 22.3009 32.5072 22.6762C32.9146 23.0514 33.1047 23.5071 33.1047 24.0432C33.1047 24.5793 32.9146 25.0349 32.5072 25.4102C32.0999 25.7854 31.6382 25.9731 31.068 25.9731C30.4977 25.9731 30.036 25.7854 29.6287 25.4102C29.2213 25.0349 29.0312 24.5793 29.0312 24.0432C29.0312 23.5071 29.2213 23.0514 29.6287 22.6762C30.036 22.3009 30.5248 22.1133 31.068 22.1133Z" fill="#4D565D"/>
<path d="M57.0562 22.5153C56.6217 22.5153 56.2415 22.6762 55.9157 22.971C55.617 23.2659 55.454 23.6411 55.454 24.07C55.454 24.4988 55.617 24.8473 55.9157 25.169C56.2144 25.4638 56.5946 25.6246 57.0562 25.6246C57.4907 25.6246 57.8709 25.4638 58.1968 25.169C58.4955 24.8741 58.6584 24.4988 58.6584 24.07C58.6584 23.6411 58.4955 23.2659 58.1968 22.971C57.8709 22.6494 57.4907 22.5153 57.0562 22.5153ZM57.0562 22.1133C57.6265 22.1133 58.0882 22.3009 58.4955 22.6762C58.9028 23.0514 59.0929 23.5071 59.0929 24.0432C59.0929 24.5793 58.9028 25.0349 58.4955 25.4102C58.0882 25.7854 57.6265 25.9731 57.0562 25.9731C56.486 25.9731 56.0243 25.7854 55.617 25.4102C55.2096 25.0349 55.0195 24.5793 55.0195 24.0432C55.0195 23.5071 55.2096 23.0514 55.617 22.6762C55.9971 22.3009 56.486 22.1133 57.0562 22.1133Z" fill="#4D565D"/>
<path d="M82.8518 22.7038L82.5259 22.9182C82.363 22.6502 82.1457 22.5162 81.8742 22.5162C81.7112 22.5162 81.5483 22.5698 81.4397 22.677C81.3039 22.7842 81.2496 22.9182 81.2496 23.1059C81.2496 23.2399 81.3039 23.3739 81.4397 23.4811C81.5211 23.5347 81.6569 23.6151 81.8199 23.6956L82.0643 23.8028C82.363 23.9368 82.5802 24.0708 82.716 24.178C82.9061 24.3657 82.9876 24.5801 82.9876 24.8481C82.9876 25.1698 82.8789 25.4378 82.6345 25.6791C82.3901 25.8935 82.1186 26.0275 81.7927 26.0275C81.494 26.0275 81.2224 25.9471 81.0323 25.7595C80.8151 25.5718 80.6793 25.3574 80.625 25.0626L81.0323 24.9554C81.0595 25.143 81.141 25.3038 81.2767 25.4378C81.4125 25.5718 81.5755 25.6523 81.7927 25.6523C82.01 25.6523 82.1729 25.5718 82.3358 25.4378C82.4988 25.3038 82.5802 25.1162 82.5802 24.9285C82.5802 24.7409 82.4988 24.5801 82.363 24.4461C82.2815 24.3657 82.1186 24.2852 81.8742 24.178L81.6569 24.0708C81.3854 23.9636 81.1953 23.8564 81.0867 23.7224C80.9237 23.5615 80.8423 23.3471 80.8423 23.1059C80.8423 22.8378 80.9509 22.5966 81.1681 22.409C81.3582 22.2481 81.6026 22.1409 81.9013 22.1409C82.3087 22.1141 82.6345 22.3285 82.8518 22.7038Z" fill="#4D565D"/>
<path d="M74.8438 26.0006V22.248H76.9348V22.6233H75.2782V23.7491H76.799V24.1511H75.2782V25.5986H76.9348V26.0006H74.8438Z" fill="#4D565D"/>
<path d="M9.96575 22.248V25.5986H10.9977V26.0006H9.53125V22.248H9.96575Z" fill="#4D565D"/>
<path d="M50.7562 22.6233V26.0006H50.3217V22.6233H49.3984V22.248H51.6795V22.6233H50.7562Z" fill="#4D565D"/>
<path d="M37.3407 22.6233V23.9635H37.4765C37.7752 23.9635 37.9925 23.9367 38.1283 23.8563C38.3184 23.7491 38.427 23.5614 38.427 23.2934C38.427 23.0254 38.3184 22.8109 38.1283 22.7305C37.9925 22.6501 37.7752 22.6233 37.4494 22.6233H37.3407ZM37.3407 24.3388V26.0006H36.9062V22.248H37.4494C38.3727 22.248 38.8343 22.5965 38.8343 23.2934C38.8343 23.5883 38.7529 23.8295 38.5628 24.0171C38.3998 24.2047 38.1554 24.312 37.8567 24.3388L39.1059 26.0006H38.5899L37.4494 24.3388H37.3407Z" fill="#4D565D"/>
<path d="M68.8954 22.6233V23.9635H69.0312C69.3299 23.9635 69.5472 23.9367 69.683 23.8563C69.873 23.7491 69.9817 23.5614 69.9817 23.2934C69.9817 23.0254 69.873 22.8109 69.683 22.7305C69.5472 22.6501 69.3299 22.6233 69.0041 22.6233H68.8954ZM68.8954 24.3388V26.0006H68.4609V22.248H69.0041C69.9274 22.248 70.389 22.5965 70.389 23.2934C70.389 23.5883 70.3075 23.8295 70.1446 24.0171C69.9817 24.2047 69.7373 24.312 69.4386 24.3388L70.6606 26.0274H70.1446L69.0041 24.3656H68.8954V24.3388Z" fill="#4D565D"/>
<path d="M90.9982 0L82.4441 10.9093V19.1113H79.5384V10.9093L70.957 0H74.3244L80.9776 8.52371L87.6309 0H90.9982Z" fill="#4D565D"/>
</g>
<defs>
<clipPath id="clip0">
<rect width="91" height="26" fill="white"/>
</clipPath>
</defs>
</svg>
