<svg width="158" height="42" viewBox="0 0 158 42" fill="none" xmlns="http://www.w3.org/2000/svg">
<g clip-path="url(#clip0)">
<path d="M103.705 24.0475H98.6111V29.9266H96.5469V14.9824H103.705C106.644 14.9824 108.417 17.1589 108.417 19.515C108.417 21.8711 106.644 24.0475 103.705 24.0475ZM103.525 16.6877H98.6111V22.3647H103.525C105.23 22.3647 106.329 21.1753 106.329 19.515C106.329 17.8546 105.05 16.6877 103.525 16.6877Z" fill="#181818"/>
<path d="M115.236 30.1714C111.018 30.1714 107.988 26.6932 107.988 22.4748C107.988 18.2563 111.018 14.7559 115.236 14.7559C119.455 14.7559 122.483 18.2563 122.483 22.4748C122.483 26.6932 119.455 30.1714 115.236 30.1714ZM115.236 16.551C112.095 16.551 110.03 19.0866 110.03 22.4748C110.03 25.8632 112.095 28.3763 115.236 28.3763C118.377 28.3763 120.419 25.8632 120.419 22.4748C120.419 19.0866 118.377 16.551 115.236 16.551Z" fill="#181818"/>
<path d="M128.34 30.1714C126.365 30.1714 124.278 29.7673 122.281 28.9596L122.73 27.3666C124.548 27.9947 126.567 28.421 128.295 28.421C130.718 28.421 132.109 27.4785 132.109 26.1546C132.109 24.9655 131.391 24.3597 127.981 23.1032C124.054 21.6447 122.798 20.6348 122.798 18.3237C122.798 15.8779 124.794 14.7559 128.474 14.7559C130.023 14.7559 132.266 15.0476 133.725 15.5188L133.344 17.1568C131.84 16.7754 130.067 16.5286 128.519 16.5286C125.871 16.5286 124.84 16.9549 124.84 18.3237C124.84 19.7598 125.804 20.231 129.349 21.6223C133.209 23.1479 134.151 24.0006 134.151 26.1098C134.151 28.4884 131.885 30.1714 128.34 30.1714Z" fill="#181818"/>
<path d="M144.964 29.9246L143.482 26.1324H136.796L135.292 29.9246H133.25L139.263 14.9805H140.991L147.005 29.9246H144.964ZM140.139 17.2244L137.356 24.5394H142.899L140.139 17.2244Z" fill="#181818"/>
<path d="M151.314 23.911V29.9246H149.25V23.911L143.527 14.9805H145.659L150.281 22.0711L154.882 14.9805H157.013L151.314 23.911Z" fill="#181818"/>
<path d="M96.4983 -0.00976562H75.0391V29.9585H96.4983V-0.00976562Z" fill="#009FE3"/>
<path d="M0.851562 29.9246V14.9805H2.91591V28.1518H10.545V29.9246H0.851562Z" fill="#181818"/>
<path d="M21.7832 29.9246L20.3022 26.1324H13.6156L12.1122 29.9246H10.0703L16.0838 14.9805H17.8116L23.8252 29.9246H21.7832ZM16.9588 17.2244L14.1765 24.5394H19.7189L16.9588 17.2244Z" fill="#181818"/>
<path d="M38.2126 29.9246L33.7474 23.8436H29.2596V29.9246H27.1953V14.9805H34.4429C37.3151 14.9805 39.1102 17.0897 39.1102 19.4233C39.1102 21.2857 37.9882 22.9911 35.9913 23.5746L40.6584 29.9246H38.2126ZM34.1961 16.6858H29.2596V22.1832H34.1961C35.9015 22.1832 37.0234 21.0839 37.0234 19.4233C37.0234 17.7628 35.722 16.6858 34.1961 16.6858Z" fill="#181818"/>
<path d="M46.8024 30.1714C42.5839 30.1714 39.5547 26.6932 39.5547 22.4748C39.5547 18.2563 42.5839 14.7559 46.8024 14.7559C51.0208 14.7559 54.0501 18.2563 54.0501 22.4748C54.0501 26.6932 51.0208 30.1714 46.8024 30.1714ZM46.8024 16.551C43.6609 16.551 41.5966 19.0866 41.5966 22.4748C41.5966 25.8632 43.6609 28.3763 46.8024 28.3763C49.9438 28.3763 51.9857 25.8632 51.9857 22.4748C51.9857 19.0866 49.9438 16.551 46.8024 16.551Z" fill="#181818"/>
<path d="M65.6739 16.9774C64.7092 16.7081 63.4525 16.551 62.3755 16.551C58.4936 16.551 56.0253 18.952 56.0253 22.4524C56.0253 25.9527 58.4936 28.3763 62.3755 28.3763C63.3629 28.3763 64.4399 28.2191 65.6739 27.9274L66.0778 29.5877C64.8885 29.9468 63.5648 30.1714 62.2408 30.1714C57.4165 30.1714 53.9609 26.738 53.9609 22.4524C53.9609 18.1665 57.4165 14.7559 62.2408 14.7559C63.6545 14.7559 64.8662 14.913 66.1004 15.3169L65.6739 16.9774Z" fill="#181818"/>
<path d="M77.2294 29.9246V23.1708H69.4433V29.9246H67.3789V14.9805H69.4433V21.3529H77.2294V14.9805H79.3163V29.9246H77.2294Z" fill="#181818"/>
<path d="M81.1562 29.9246V14.9805H91.4777V16.7532H83.2431V21.3082H90.9623V23.0807H83.2431V28.1518H91.4777V29.9246H81.1562Z" fill="#181818"/>
<path d="M27.0195 38.4058V32.5605H27.5461V37.9494H30.618V38.4058H27.0195Z" fill="#181818"/>
<path d="M35.2708 38.4058L34.6213 36.7733H31.7513L31.1019 38.4058H30.5664L32.9888 32.5605H33.375L35.8062 38.4058H35.2708ZM33.1819 33.2011L31.9268 36.3433H34.4457L33.1819 33.2011Z" fill="#181818"/>
<path d="M38.6496 38.4058H36.0078V32.5605H38.3599C39.6238 32.5605 40.247 33.1573 40.247 34.0526C40.247 34.579 39.931 35.1146 39.3255 35.3339C40.0715 35.5708 40.4225 36.1063 40.4225 36.7821C40.4225 37.6248 39.7819 38.4058 38.6496 38.4058ZM38.3775 33.0167H36.5344V35.1672H38.3424C39.0796 35.1672 39.7116 34.8424 39.7116 34.0964C39.7116 33.3504 39.1675 33.0167 38.3775 33.0167ZM38.597 35.606H36.5344V37.9494H38.6145C39.3781 37.9494 39.8959 37.5281 39.8959 36.7821C39.8959 36.1063 39.4747 35.606 38.597 35.606Z" fill="#181818"/>
<path d="M43.2598 38.5022C41.6185 38.5022 40.5039 37.133 40.5039 35.492C40.5039 33.8506 41.6185 32.4727 43.2598 32.4727C44.9011 32.4727 46.0157 33.8506 46.0157 35.492C46.0157 37.133 44.9011 38.5022 43.2598 38.5022ZM43.2598 32.9292C41.9432 32.9292 41.0305 34.0261 41.0305 35.492C41.0305 36.9576 41.9432 38.046 43.2598 38.046C44.5763 38.046 45.4891 36.9576 45.4891 35.492C45.4891 34.0261 44.5763 32.9292 43.2598 32.9292Z" fill="#181818"/>
<path d="M51.0103 38.4058L49.1409 35.8694H47.1047V38.4058H46.5781V32.5605H49.2199C50.3521 32.5605 50.9928 33.3592 50.9928 34.2193C50.9928 34.9477 50.5276 35.6322 49.6938 35.8165L51.6072 38.4058H51.0103ZM49.2199 33.0167H47.1047V35.4306H49.2199C50.001 35.4306 50.4662 34.9477 50.4662 34.2193C50.4662 33.4909 49.8869 33.0167 49.2199 33.0167Z" fill="#181818"/>
<path d="M56.1262 38.4058L55.4767 36.7733H52.6067L51.9573 38.4058H51.4219L53.8442 32.5605H54.2304L56.6616 38.4058H56.1262ZM54.0373 33.2011L52.7823 36.3433H55.3011L54.0373 33.2011Z" fill="#181818"/>
<path d="M58.3061 33.0167V38.4058H57.7793V33.0167H55.7695V32.5605H60.3158V33.0167H58.3061Z" fill="#181818"/>
<path d="M62.709 38.5022C61.0677 38.5022 59.9531 37.133 59.9531 35.492C59.9531 33.8506 61.0677 32.4727 62.709 32.4727C64.3503 32.4727 65.465 33.8506 65.465 35.492C65.465 37.133 64.3503 38.5022 62.709 38.5022ZM62.709 32.9292C61.3924 32.9292 60.4797 34.0261 60.4797 35.492C60.4797 36.9576 61.3924 38.046 62.709 38.046C64.0256 38.046 64.9384 36.9576 64.9384 35.492C64.9384 34.0261 64.0256 32.9292 62.709 32.9292Z" fill="#181818"/>
<path d="M66.0742 38.4058V32.5605H66.6009V38.4058H66.0742Z" fill="#181818"/>
<path d="M72.0339 38.4058L70.1645 35.8694H68.1282V38.4058H67.6016V32.5605H70.2434C71.3756 32.5605 72.0163 33.3592 72.0163 34.2193C72.0163 34.9477 71.5511 35.6322 70.7173 35.8165L72.6307 38.4058H72.0339ZM70.2434 33.0167H68.1282V35.4306H70.2434C71.0245 35.4306 71.4897 34.9477 71.4897 34.2193C71.4897 33.4909 70.9104 33.0167 70.2434 33.0167Z" fill="#181818"/>
<path d="M72.9297 38.4058V32.5605H76.8266V33.0167H73.4652V35.1496H76.6072V35.606H73.4652V37.9494H76.8266V38.4058H72.9297Z" fill="#181818"/>
<path d="M79.7337 38.4077H78.5664V32.5625H79.7337C81.726 32.5625 83.1742 33.7999 83.1742 35.4851C83.1742 37.1702 81.726 38.4077 79.7337 38.4077ZM79.8127 33.0187H79.0929V37.9513H79.8127C81.2257 37.9513 82.6389 37.0561 82.6389 35.4851C82.6389 33.914 81.2257 33.0187 79.8127 33.0187Z" fill="#181818"/>
<path d="M83.5938 38.4058V32.5605H87.491V33.0167H84.129V35.1496H87.2709V35.606H84.129V37.9494H87.491V38.4058H83.5938Z" fill="#181818"/>
<path d="M92.6158 38.4058L90.7462 35.8694H88.7101V38.4058H88.1836V32.5605H90.8255C91.957 32.5605 92.5979 33.3592 92.5979 34.2193C92.5979 34.9477 92.1328 35.6322 91.2991 35.8165L93.2123 38.4058H92.6158ZM90.8255 33.0167H88.7101V35.4306H90.8255C91.6063 35.4306 92.0714 34.9477 92.0714 34.2193C92.0714 33.4909 91.492 33.0167 90.8255 33.0167Z" fill="#181818"/>
<path d="M98.4012 38.4058V33.5258L96.3737 37.6334H96.0409L94.0133 33.5258V38.4058H93.5039V32.5605H94.0133L96.2073 36.9399L98.4012 32.5605H98.9106V38.4058H98.4012Z" fill="#181818"/>
<path d="M103.825 38.4058L103.176 36.7733H100.306L99.6561 38.4058H99.1211L101.544 32.5605H101.929L104.361 38.4058H103.825ZM101.737 33.2011L100.481 36.3433H103L101.737 33.2011Z" fill="#181818"/>
<path d="M106.005 33.0167V38.4058H105.478V33.0167H103.469V32.5605H108.015V33.0167H106.005Z" fill="#181818"/>
<path d="M110.413 38.5022C108.771 38.5022 107.656 37.133 107.656 35.492C107.656 33.8506 108.771 32.4727 110.413 32.4727C112.053 32.4727 113.168 33.8506 113.168 35.492C113.168 37.133 112.053 38.5022 110.413 38.5022ZM110.413 32.9292C109.096 32.9292 108.183 34.0261 108.183 35.492C108.183 36.9576 109.096 38.046 110.413 38.046C111.729 38.046 112.641 36.9576 112.641 35.492C112.641 34.0261 111.729 32.9292 110.413 32.9292Z" fill="#181818"/>
<path d="M113.727 38.4058V32.5605H114.254V37.9494H117.325V38.4058H113.727Z" fill="#181818"/>
<path d="M119.803 38.5022C118.161 38.5022 117.047 37.133 117.047 35.492C117.047 33.8506 118.161 32.4727 119.803 32.4727C121.444 32.4727 122.559 33.8506 122.559 35.492C122.559 37.133 121.444 38.5022 119.803 38.5022ZM119.803 32.9292C118.486 32.9292 117.573 34.0261 117.573 35.492C117.573 36.9576 118.486 38.046 119.803 38.046C121.119 38.046 122.032 36.9576 122.032 35.492C122.032 34.0261 121.119 32.9292 119.803 32.9292Z" fill="#181818"/>
<path d="M125.815 38.5022C123.954 38.5022 122.594 37.1683 122.594 35.4832C122.594 33.7366 123.823 32.4727 125.807 32.4727C126.28 32.4727 126.877 32.5341 127.325 32.657L127.245 33.0871C126.727 32.973 126.245 32.9292 125.789 32.9292C124.235 32.9292 123.12 33.8857 123.12 35.4832C123.12 37.019 124.279 38.046 125.789 38.046C126.149 38.046 126.614 38.002 127.052 37.9144V35.8253H127.526V38.2479C126.973 38.4235 126.289 38.5022 125.815 38.5022Z" fill="#181818"/>
<path d="M128.352 38.4058V32.5605H128.878V38.4058H128.352Z" fill="#181818"/>
<path d="M132.453 38.4937V40.0471H131.918V38.4937C130.417 38.3531 129.426 37.0366 129.426 35.4832C129.426 33.8418 130.549 32.4727 132.191 32.4727C133.832 32.4727 134.946 33.8418 134.946 35.4832C134.946 37.0366 133.954 38.3531 132.453 38.4937ZM132.191 32.9292C130.874 32.9292 129.961 34.0174 129.961 35.4832C129.961 36.9488 130.874 38.046 132.191 38.046C133.507 38.046 134.419 36.9488 134.419 35.4832C134.419 34.0174 133.507 32.9292 132.191 32.9292Z" fill="#181818"/>
<path d="M137.718 38.5022C136.234 38.5022 135.41 37.4667 135.41 36.3609V32.5605H135.945V36.3959C135.945 37.449 136.691 38.046 137.718 38.046C138.745 38.046 139.491 37.3788 139.491 36.3959V32.5605H140.018V36.3609C140.018 37.4755 139.202 38.5022 137.718 38.5022Z" fill="#181818"/>
<path d="M140.879 38.4058V32.5605H144.776V33.0167H141.414V35.1496H144.556V35.606H141.414V37.9494H144.776V38.4058H140.879Z" fill="#181818"/>
</g>
<defs>
<clipPath id="clip0">
<rect width="158" height="42" fill="white"/>
</clipPath>
</defs>
</svg>
