<svg width="80" height="80" viewBox="0 0 80 80" fill="none" xmlns="http://www.w3.org/2000/svg">
<rect width="80" height="80" rx="40" fill="#69229A"/>
<path d="M69.428 39.102C68.8933 38.5548 56.0912 25.6035 40 25.6035C23.9088 25.6035 11.1067 38.5548 10.572 39.102L10 39.7237L10.572 40.3082C11.1067 40.8616 23.9088 53.8067 40 53.8067C56.0912 53.8067 68.8933 40.8305 69.428 40.2709L70 39.6864L69.428 39.102ZM27.8881 39.8854C27.8881 37.4899 28.5984 35.1482 29.9293 33.1564C31.2602 31.1646 33.1518 29.6122 35.365 28.6954C37.5781 27.7787 40.0134 27.5389 42.3629 28.0062C44.7124 28.4735 46.8705 29.6271 48.5644 31.321C50.2583 33.0148 51.4119 35.173 51.8792 37.5225C52.3465 39.872 52.1067 42.3073 51.19 44.5204C50.2732 46.7336 48.7208 48.6252 46.729 49.9561C44.7372 51.287 42.3955 51.9973 40 51.9973C36.7892 51.9924 33.7114 50.7147 31.441 48.4444C29.1707 46.174 27.893 43.0962 27.8881 39.8854ZM32.6259 28.2274C30.7383 29.4193 29.1684 31.0519 28.0513 32.9848C26.9342 34.9177 26.3032 37.093 26.2127 39.3236C26.1222 41.5542 26.5748 43.7735 27.5316 45.7905C28.4885 47.8075 29.9209 49.562 31.7057 50.903C22.0497 48.2046 14.5202 41.6823 12.3876 39.7113C14.5886 37.6533 22.5161 30.7704 32.6259 28.246M48.2881 50.9279C50.0758 49.586 51.5104 47.8294 52.4682 45.8096C53.4259 43.7898 53.878 41.5673 53.7856 39.3339C53.6932 37.1004 53.0591 34.9229 51.9378 32.9891C50.8165 31.0553 49.2417 29.4233 47.3492 28.2336C57.4529 30.7579 65.3803 37.6346 67.5876 39.6927C65.4549 41.6885 57.9316 48.2108 48.2632 50.8844M39.9751 28.961C38.5831 28.961 37.2223 29.3738 36.0648 30.1472C34.9074 30.9206 34.0053 32.0198 33.4725 33.3059C32.9398 34.592 32.8005 36.0072 33.072 37.3725C33.3436 38.7378 34.014 39.9919 34.9983 40.9763C35.9826 41.9606 37.2367 42.6309 38.602 42.9025C39.9673 43.1741 41.3825 43.0347 42.6686 42.502C43.9547 41.9693 45.0539 41.0671 45.8273 39.9097C46.6007 38.7522 47.0135 37.3914 47.0135 35.9994C47.0102 34.1337 46.2676 32.3454 44.9484 31.0262C43.6291 29.7069 41.8408 28.9643 39.9751 28.961ZM39.9751 40.818C39.0221 40.818 38.0905 40.5354 37.298 40.006C36.5056 39.4765 35.888 38.7239 35.5233 37.8434C35.1586 36.9629 35.0631 35.994 35.2491 35.0593C35.435 34.1246 35.8939 33.266 36.5678 32.5921C37.2417 31.9182 38.1003 31.4593 39.0351 31.2733C39.9698 31.0874 40.9387 31.1828 41.8192 31.5475C42.6997 31.9122 43.4522 32.5299 43.9817 33.3223C44.5112 34.1147 44.7938 35.0464 44.7938 35.9994C44.7922 37.2769 44.2839 38.5016 43.3806 39.4049C42.4773 40.3082 41.2526 40.8164 39.9751 40.818Z" fill="white"/>
<path d="M21.0106 28.0912C20.9043 28.0783 20.8011 28.0468 20.7059 27.998C20.6084 27.9453 20.5223 27.8738 20.4525 27.7876C20.3828 27.7014 20.3308 27.6023 20.2996 27.4959C20.2684 27.3895 20.2585 27.2781 20.2706 27.1679C20.2828 27.0577 20.3166 26.951 20.3701 26.8539C21.0335 25.6592 21.9597 24.6309 23.0789 23.8467C24.198 23.0625 25.4808 22.5431 26.8302 22.3275C28.1509 22.0673 29.5043 22.0169 30.8406 22.1783C31.0612 22.2121 31.2595 22.3317 31.3923 22.511C31.525 22.6904 31.5815 22.915 31.5494 23.1358C31.5142 23.3569 31.3933 23.5552 31.2129 23.6879C31.0326 23.8205 30.8072 23.8768 30.5857 23.8446C29.4243 23.7156 28.2499 23.7659 27.1038 23.9938C26.0077 24.1634 24.9649 24.5816 24.0553 25.2163C23.1457 25.8511 22.3934 26.6857 21.8561 27.656C21.7775 27.8057 21.6549 27.9276 21.5048 28.0054C21.3547 28.0832 21.1844 28.1132 21.0168 28.0912" fill="white"/>
<path d="M15.7465 26.9166C15.6413 26.9044 15.5397 26.8705 15.4481 26.8171C15.3506 26.7644 15.2644 26.6929 15.1947 26.6068C15.125 26.5206 15.073 26.4215 15.0418 26.3151C15.0106 26.2087 15.0007 26.0972 15.0128 25.987C15.0249 25.8769 15.0588 25.7702 15.1123 25.6731C17.1952 21.8431 20.789 19.3249 25.5082 18.3985C27.6512 17.9706 29.8486 17.8866 32.018 18.1498C32.1345 18.1581 32.248 18.1905 32.3514 18.2448C32.4547 18.2992 32.5457 18.3743 32.6186 18.4656C32.6915 18.5569 32.7446 18.6622 32.7748 18.775C32.8049 18.8878 32.8113 19.0057 32.7937 19.1211C32.776 19.2366 32.7346 19.3471 32.6722 19.4458C32.6097 19.5444 32.5274 19.629 32.4306 19.6943C32.3338 19.7596 32.2245 19.8041 32.1096 19.8251C31.9947 19.8461 31.8767 19.843 31.7631 19.8161C31.6263 19.8161 21.0315 18.3115 16.5921 26.4814C16.5098 26.6293 16.3856 26.7495 16.2351 26.8269C16.0847 26.9043 15.9147 26.9356 15.7465 26.9166Z" fill="white"/>
<path d="M51.3711 57.2398H51.2467C51.023 57.2317 50.8114 57.1358 50.6578 56.9729C50.5042 56.81 50.4209 56.5932 50.426 56.3693C50.4284 56.2583 50.4529 56.1488 50.4982 56.0474C50.5435 55.946 50.6086 55.8547 50.6897 55.7788C50.7708 55.7029 50.8663 55.644 50.9705 55.6055C51.0747 55.5671 51.1855 55.5498 51.2965 55.5548C52.4651 55.541 53.6247 55.348 54.7348 54.9828C55.803 54.6821 56.7882 54.1408 57.6149 53.4004C58.4415 52.66 59.0876 51.7401 59.5037 50.7113C59.5379 50.5996 59.5949 50.4962 59.671 50.4077C59.7471 50.3191 59.8407 50.2473 59.946 50.1967C60.0513 50.1461 60.1659 50.1179 60.2826 50.1138C60.3993 50.1097 60.5156 50.1298 60.6241 50.1729C60.7327 50.216 60.8311 50.2811 60.9133 50.3641C60.9954 50.4471 61.0595 50.5462 61.1014 50.6552C61.1434 50.7642 61.1623 50.8807 61.157 50.9974C61.1516 51.114 61.1222 51.2283 61.0706 51.333C60.5558 52.5982 59.7606 53.73 58.745 54.6433C57.7294 55.5566 56.5198 56.2275 55.2073 56.6056C53.9664 57.0014 52.6735 57.211 51.3711 57.2274" fill="white"/>
<path d="M50.7573 61.4116H50.5583C50.3474 61.3935 50.1509 61.2969 50.0077 61.1409C49.8646 60.9849 49.7852 60.7809 49.7852 60.5691C49.7852 60.3574 49.8646 60.1534 50.0077 59.9974C50.1509 59.8414 50.3474 59.7448 50.5583 59.7266H50.6827C51.7832 59.7266 61.5884 59.4904 64.8464 51.2769C64.8862 51.174 64.946 51.08 65.0225 51.0003C65.0989 50.9207 65.1904 50.8571 65.2916 50.8131C65.3929 50.7691 65.5018 50.7457 65.6122 50.7442C65.7225 50.7427 65.8321 50.7632 65.9345 50.8044C66.1429 50.8862 66.3104 51.0474 66.4001 51.2525C66.4899 51.4577 66.4946 51.6901 66.4132 51.8987C64.8029 55.9526 61.5386 58.8873 56.9687 60.3795C54.9591 61.0314 52.8634 61.3793 50.7511 61.4116" fill="white"/>
</svg>
