<svg width="80" height="80" viewBox="0 0 80 80" fill="none" xmlns="http://www.w3.org/2000/svg">
<rect width="80" height="80" rx="40" fill="#FFBE3D"/>
<path d="M58.6696 39.5989C58.6696 32.6907 51.2625 29.021 43.2635 25.7995C51.2625 22.5779 58.6696 18.9167 58.6696 12H56.1329C56.1314 13.0309 55.8727 14.0452 55.3804 14.951H24.2892C23.7969 14.0452 23.5382 13.0309 23.5367 12H21C21 18.9167 28.4071 22.5779 36.3976 25.7995C28.4071 29.021 21 32.6907 21 39.5989C21 46.5071 28.4071 50.1769 36.3976 53.3985C28.4071 56.62 21 60.2812 21 67.1895H23.5367C23.5521 66.1136 23.8433 65.0597 24.3822 64.1285H55.3296C55.8686 65.0597 56.1597 66.1136 56.1752 67.1895H58.7119C58.7119 60.2812 51.3048 56.62 43.3058 53.3985C51.3048 50.1769 58.7119 46.5071 58.7119 39.5989M26.3524 17.4792H53.4102C50.324 20.2949 45.0899 22.4003 39.8813 24.4466C34.6811 22.4003 29.4387 20.2949 26.3524 17.4792ZM39.8813 27.1608C45.2168 29.2578 50.5945 31.3886 53.647 34.348H26.0733C29.1258 31.4224 34.5289 29.2747 39.839 27.1608M53.2157 61.6003H26.4454C29.5486 58.8438 34.7149 56.7722 39.839 54.7513C44.9631 56.7722 50.1295 58.8438 53.2327 61.6003M39.839 52.0371C34.5966 49.974 29.3034 47.8093 26.2255 45.002H53.4525C50.3747 47.8516 45.0815 49.974 39.839 52.0371ZM24.2469 42.4738C23.7934 41.613 23.55 40.6571 23.5368 39.6842C23.5236 38.7113 23.7408 37.7491 24.1708 36.8762H55.5072C55.9223 37.724 56.1392 38.655 56.1414 39.5989C56.1358 40.5999 55.8923 41.5853 55.4311 42.4738H24.2469Z" fill="white"/>
</svg>
