<svg width="366" height="449" viewBox="0 0 366 449" fill="none" xmlns="http://www.w3.org/2000/svg">
<path d="M366 181.5C366 281.741 284.069 363 183 363C81.9308 363 0 281.741 0 181.5C0 81.2592 81.9308 0 183 0C284.069 0 366 81.2592 366 181.5Z" fill="#3579A2"/>
<g opacity="0.29">
<path d="M327.407 220.31C327.407 299.67 262.755 364 182.995 364C103.236 364 38.583 299.67 38.583 220.31C38.583 140.949 103.242 76.6198 182.995 76.6198C262.748 76.6198 327.407 140.949 327.407 220.31Z" fill="white"/>
</g>
<g opacity="0.89">
<path d="M291.018 256.396C291.018 277.678 284.676 298.482 272.793 316.177C260.91 333.872 244.021 347.663 224.26 355.808C204.5 363.952 182.756 366.083 161.778 361.931C140.8 357.779 121.531 347.531 106.407 332.483C91.2832 317.434 80.9836 298.261 76.8109 277.388C72.6382 256.516 74.7798 234.881 82.9648 215.219C91.1499 195.557 105.011 178.752 122.795 166.929C140.579 155.105 161.487 148.794 182.876 148.794C211.557 148.794 239.063 160.131 259.344 180.31C279.625 200.489 291.018 227.859 291.018 256.396Z" fill="white"/>
</g>
<path d="M97.3314 42V32.32L97.9234 32.912H93.7634V30.8H103.475V32.912H99.3154L99.8914 32.32V42H97.3314ZM109.625 42V40.32L109.465 39.952V36.944C109.465 36.4107 109.3 35.9947 108.969 35.696C108.649 35.3973 108.153 35.248 107.481 35.248C107.023 35.248 106.569 35.3227 106.121 35.472C105.684 35.6107 105.311 35.8027 105.001 36.048L104.105 34.304C104.575 33.9733 105.14 33.7173 105.801 33.536C106.463 33.3547 107.135 33.264 107.817 33.264C109.129 33.264 110.148 33.5733 110.873 34.192C111.599 34.8107 111.961 35.776 111.961 37.088V42H109.625ZM107.001 42.128C106.329 42.128 105.753 42.016 105.273 41.792C104.793 41.5573 104.425 41.2427 104.169 40.848C103.913 40.4533 103.785 40.0107 103.785 39.52C103.785 39.008 103.908 38.56 104.153 38.176C104.409 37.792 104.809 37.4933 105.353 37.28C105.897 37.056 106.607 36.944 107.481 36.944H109.769V38.4H107.753C107.167 38.4 106.761 38.496 106.537 38.688C106.324 38.88 106.217 39.12 106.217 39.408C106.217 39.728 106.34 39.984 106.585 40.176C106.841 40.3573 107.188 40.448 107.625 40.448C108.041 40.448 108.415 40.352 108.745 40.16C109.076 39.9573 109.316 39.664 109.465 39.28L109.849 40.432C109.668 40.9867 109.337 41.408 108.857 41.696C108.377 41.984 107.759 42.128 107.001 42.128ZM114.13 42V33.392H122.69V42H120.194V34.88L120.754 35.44H116.05L116.61 34.88V42H114.13ZM129.291 42.128C128.309 42.128 127.445 41.936 126.699 41.552C125.963 41.168 125.392 40.6453 124.987 39.984C124.581 39.312 124.379 38.5493 124.379 37.696C124.379 36.832 124.576 36.0693 124.971 35.408C125.376 34.736 125.925 34.2133 126.619 33.84C127.312 33.456 128.096 33.264 128.971 33.264C129.813 33.264 130.571 33.4453 131.243 33.808C131.925 34.16 132.464 34.672 132.859 35.344C133.253 36.0053 133.451 36.8 133.451 37.728C133.451 37.824 133.445 37.936 133.435 38.064C133.424 38.1813 133.413 38.2933 133.403 38.4H126.411V36.944H132.091L131.131 37.376C131.131 36.928 131.04 36.5387 130.859 36.208C130.677 35.8773 130.427 35.6213 130.107 35.44C129.787 35.248 129.413 35.152 128.987 35.152C128.56 35.152 128.181 35.248 127.851 35.44C127.531 35.6213 127.28 35.8827 127.099 36.224C126.917 36.5547 126.827 36.9493 126.827 37.408V37.792C126.827 38.2613 126.928 38.6773 127.131 39.04C127.344 39.392 127.637 39.664 128.011 39.856C128.395 40.0373 128.843 40.128 129.355 40.128C129.813 40.128 130.213 40.0587 130.555 39.92C130.907 39.7813 131.227 39.5733 131.515 39.296L132.843 40.736C132.448 41.184 131.952 41.5307 131.355 41.776C130.757 42.0107 130.069 42.128 129.291 42.128ZM136.907 42V34.864L137.467 35.44H133.995V33.392H142.299V35.44H138.827L139.387 34.864V42H136.907ZM147.302 42.128C146.385 42.128 145.569 41.936 144.854 41.552C144.15 41.168 143.59 40.6453 143.174 39.984C142.769 39.312 142.566 38.5493 142.566 37.696C142.566 36.832 142.769 36.0693 143.174 35.408C143.59 34.736 144.15 34.2133 144.854 33.84C145.569 33.456 146.385 33.264 147.302 33.264C148.209 33.264 149.02 33.456 149.734 33.84C150.449 34.2133 151.009 34.7307 151.414 35.392C151.82 36.0533 152.022 36.8213 152.022 37.696C152.022 38.5493 151.82 39.312 151.414 39.984C151.009 40.6453 150.449 41.168 149.734 41.552C149.02 41.936 148.209 42.128 147.302 42.128ZM147.302 40.08C147.718 40.08 148.092 39.984 148.422 39.792C148.753 39.6 149.014 39.328 149.206 38.976C149.398 38.6133 149.494 38.1867 149.494 37.696C149.494 37.1947 149.398 36.768 149.206 36.416C149.014 36.064 148.753 35.792 148.422 35.6C148.092 35.408 147.718 35.312 147.302 35.312C146.886 35.312 146.513 35.408 146.182 35.6C145.852 35.792 145.585 36.064 145.382 36.416C145.19 36.768 145.094 37.1947 145.094 37.696C145.094 38.1867 145.19 38.6133 145.382 38.976C145.585 39.328 145.852 39.6 146.182 39.792C146.513 39.984 146.886 40.08 147.302 40.08ZM158.811 42.128C158.086 42.128 157.451 41.968 156.907 41.648C156.363 41.328 155.936 40.8427 155.627 40.192C155.328 39.5307 155.179 38.6987 155.179 37.696C155.179 36.6827 155.323 35.8507 155.611 35.2C155.899 34.5493 156.315 34.064 156.859 33.744C157.403 33.424 158.054 33.264 158.811 33.264C159.622 33.264 160.347 33.4507 160.987 33.824C161.638 34.1867 162.15 34.6987 162.523 35.36C162.907 36.0213 163.099 36.8 163.099 37.696C163.099 38.6027 162.907 39.3867 162.523 40.048C162.15 40.7093 161.638 41.2213 160.987 41.584C160.347 41.9467 159.622 42.128 158.811 42.128ZM153.723 45.104V33.392H156.107V35.152L156.059 37.712L156.219 40.256V45.104H153.723ZM158.379 40.08C158.795 40.08 159.163 39.984 159.483 39.792C159.814 39.6 160.075 39.328 160.267 38.976C160.47 38.6133 160.571 38.1867 160.571 37.696C160.571 37.1947 160.47 36.768 160.267 36.416C160.075 36.064 159.814 35.792 159.483 35.6C159.163 35.408 158.795 35.312 158.379 35.312C157.963 35.312 157.59 35.408 157.259 35.6C156.928 35.792 156.667 36.064 156.475 36.416C156.283 36.768 156.187 37.1947 156.187 37.696C156.187 38.1867 156.283 38.6133 156.475 38.976C156.667 39.328 156.928 39.6 157.259 39.792C157.59 39.984 157.963 40.08 158.379 40.08ZM169.056 42.128C168.075 42.128 167.211 41.936 166.464 41.552C165.728 41.168 165.158 40.6453 164.752 39.984C164.347 39.312 164.144 38.5493 164.144 37.696C164.144 36.832 164.342 36.0693 164.736 35.408C165.142 34.736 165.691 34.2133 166.384 33.84C167.078 33.456 167.862 33.264 168.736 33.264C169.579 33.264 170.336 33.4453 171.008 33.808C171.691 34.16 172.23 34.672 172.624 35.344C173.019 36.0053 173.216 36.8 173.216 37.728C173.216 37.824 173.211 37.936 173.2 38.064C173.19 38.1813 173.179 38.2933 173.168 38.4H166.176V36.944H171.856L170.896 37.376C170.896 36.928 170.806 36.5387 170.624 36.208C170.443 35.8773 170.192 35.6213 169.872 35.44C169.552 35.248 169.179 35.152 168.752 35.152C168.326 35.152 167.947 35.248 167.616 35.44C167.296 35.6213 167.046 35.8827 166.864 36.224C166.683 36.5547 166.592 36.9493 166.592 37.408V37.792C166.592 38.2613 166.694 38.6773 166.896 39.04C167.11 39.392 167.403 39.664 167.776 39.856C168.16 40.0373 168.608 40.128 169.12 40.128C169.579 40.128 169.979 40.0587 170.32 39.92C170.672 39.7813 170.992 39.5733 171.28 39.296L172.608 40.736C172.214 41.184 171.718 41.5307 171.12 41.776C170.523 42.0107 169.835 42.128 169.056 42.128ZM176.673 42V34.864L177.233 35.44H173.761V33.392H182.065V35.44H178.593L179.153 34.864V42H176.673ZM183.395 42V33.392H185.875V38.512L190.067 33.392H192.355V42H189.875V36.88L185.699 42H183.395ZM194.755 42V33.392H197.235V36.752H200.979V33.392H203.475V42H200.979V38.784H197.235V42H194.755ZM211.016 42V40.32L210.856 39.952V36.944C210.856 36.4107 210.691 35.9947 210.36 35.696C210.04 35.3973 209.544 35.248 208.872 35.248C208.413 35.248 207.96 35.3227 207.512 35.472C207.075 35.6107 206.701 35.8027 206.392 36.048L205.496 34.304C205.965 33.9733 206.531 33.7173 207.192 33.536C207.853 33.3547 208.525 33.264 209.208 33.264C210.52 33.264 211.539 33.5733 212.264 34.192C212.989 34.8107 213.352 35.776 213.352 37.088V42H211.016ZM208.392 42.128C207.72 42.128 207.144 42.016 206.664 41.792C206.184 41.5573 205.816 41.2427 205.56 40.848C205.304 40.4533 205.176 40.0107 205.176 39.52C205.176 39.008 205.299 38.56 205.544 38.176C205.8 37.792 206.2 37.4933 206.744 37.28C207.288 37.056 207.997 36.944 208.872 36.944H211.16V38.4H209.144C208.557 38.4 208.152 38.496 207.928 38.688C207.715 38.88 207.608 39.12 207.608 39.408C207.608 39.728 207.731 39.984 207.976 40.176C208.232 40.3573 208.579 40.448 209.016 40.448C209.432 40.448 209.805 40.352 210.136 40.16C210.467 39.9573 210.707 39.664 210.856 39.28L211.24 40.432C211.059 40.9867 210.728 41.408 210.248 41.696C209.768 41.984 209.149 42.128 208.392 42.128ZM214.432 41.984L214.56 39.936C214.624 39.9467 214.688 39.9573 214.752 39.968C214.816 39.968 214.875 39.968 214.928 39.968C215.227 39.968 215.462 39.8827 215.632 39.712C215.803 39.5413 215.931 39.312 216.016 39.024C216.102 38.7253 216.16 38.3893 216.192 38.016C216.235 37.6427 216.267 37.2533 216.288 36.848L216.416 33.392H223.776V42H221.28V34.832L221.84 35.44H218.064L218.592 34.8L218.48 36.96C218.448 37.728 218.384 38.432 218.288 39.072C218.203 39.712 218.059 40.2667 217.856 40.736C217.654 41.1947 217.382 41.552 217.04 41.808C216.699 42.0533 216.262 42.176 215.728 42.176C215.536 42.176 215.334 42.16 215.12 42.128C214.907 42.096 214.678 42.048 214.432 41.984ZM230.833 36.144C231.963 36.1547 232.822 36.4107 233.409 36.912C234.006 37.4027 234.305 38.1013 234.305 39.008C234.305 39.9573 233.969 40.6987 233.297 41.232C232.625 41.7547 231.691 42.016 230.497 42.016L226.177 42V33.392H228.657V36.144H230.833ZM230.273 40.24C230.753 40.2507 231.121 40.1493 231.377 39.936C231.633 39.7227 231.761 39.4027 231.761 38.976C231.761 38.5493 231.633 38.2453 231.377 38.064C231.121 37.872 230.753 37.7707 230.273 37.76L228.657 37.744V40.24H230.273ZM235.864 42V33.392H238.344V36.752H242.088V33.392H244.584V42H242.088V38.784H238.344V42H235.864ZM252.125 42V40.32L251.965 39.952V36.944C251.965 36.4107 251.8 35.9947 251.469 35.696C251.149 35.3973 250.653 35.248 249.981 35.248C249.523 35.248 249.069 35.3227 248.621 35.472C248.184 35.6107 247.811 35.8027 247.501 36.048L246.605 34.304C247.075 33.9733 247.64 33.7173 248.301 33.536C248.963 33.3547 249.635 33.264 250.317 33.264C251.629 33.264 252.648 33.5733 253.373 34.192C254.099 34.8107 254.461 35.776 254.461 37.088V42H252.125ZM249.501 42.128C248.829 42.128 248.253 42.016 247.773 41.792C247.293 41.5573 246.925 41.2427 246.669 40.848C246.413 40.4533 246.285 40.0107 246.285 39.52C246.285 39.008 246.408 38.56 246.653 38.176C246.909 37.792 247.309 37.4933 247.853 37.28C248.397 37.056 249.107 36.944 249.981 36.944H252.269V38.4H250.253C249.667 38.4 249.261 38.496 249.037 38.688C248.824 38.88 248.717 39.12 248.717 39.408C248.717 39.728 248.84 39.984 249.085 40.176C249.341 40.3573 249.688 40.448 250.125 40.448C250.541 40.448 250.915 40.352 251.245 40.16C251.576 39.9573 251.816 39.664 251.965 39.28L252.349 40.432C252.168 40.9867 251.837 41.408 251.357 41.696C250.877 41.984 250.259 42.128 249.501 42.128ZM262.054 42V39.136L262.406 39.536H260.022C258.784 39.536 257.814 39.28 257.11 38.768C256.406 38.256 256.054 37.52 256.054 36.56C256.054 35.536 256.422 34.752 257.158 34.208C257.904 33.664 258.907 33.392 260.166 33.392H264.278V42H262.054ZM255.926 42L258.214 38.72H260.758L258.582 42H255.926ZM262.054 38.368V34.784L262.406 35.424H260.214C259.702 35.424 259.302 35.52 259.014 35.712C258.736 35.904 258.598 36.2133 258.598 36.64C258.598 37.4613 259.126 37.872 260.182 37.872H262.406L262.054 38.368ZM96.1489 60V58.32L95.9889 57.952V54.944C95.9889 54.4107 95.8235 53.9947 95.4929 53.696C95.1729 53.3973 94.6769 53.248 94.0049 53.248C93.5462 53.248 93.0929 53.3227 92.6449 53.472C92.2075 53.6107 91.8342 53.8027 91.5249 54.048L90.6289 52.304C91.0982 51.9733 91.6635 51.7173 92.3249 51.536C92.9862 51.3547 93.6582 51.264 94.3409 51.264C95.6529 51.264 96.6715 51.5733 97.3969 52.192C98.1222 52.8107 98.4849 53.776 98.4849 55.088V60H96.1489ZM93.5249 60.128C92.8529 60.128 92.2769 60.016 91.7969 59.792C91.3169 59.5573 90.9489 59.2427 90.6929 58.848C90.4369 58.4533 90.3089 58.0107 90.3089 57.52C90.3089 57.008 90.4315 56.56 90.6769 56.176C90.9329 55.792 91.3329 55.4933 91.8769 55.28C92.4209 55.056 93.1302 54.944 94.0049 54.944H96.2929V56.4H94.2769C93.6902 56.4 93.2849 56.496 93.0609 56.688C92.8475 56.88 92.7409 57.12 92.7409 57.408C92.7409 57.728 92.8635 57.984 93.1089 58.176C93.3649 58.3573 93.7115 58.448 94.1489 58.448C94.5649 58.448 94.9382 58.352 95.2689 58.16C95.5995 57.9573 95.8395 57.664 95.9889 57.28L96.3729 58.432C96.1915 58.9867 95.8609 59.408 95.3809 59.696C94.9009 59.984 94.2822 60.128 93.5249 60.128ZM104.925 60.192C104.221 60.192 103.581 60.0907 103.005 59.888C102.429 59.6747 101.928 59.3493 101.501 58.912C101.085 58.464 100.76 57.8933 100.525 57.2C100.301 56.5067 100.189 55.68 100.189 54.72C100.189 54.0373 100.248 53.4133 100.365 52.848C100.482 52.2827 100.658 51.7707 100.893 51.312C101.128 50.8427 101.426 50.432 101.789 50.08C102.162 49.7173 102.594 49.4187 103.085 49.184C103.586 48.9387 104.152 48.752 104.781 48.624L108.877 47.808L109.213 49.952L105.597 50.672C105.384 50.7147 105.138 50.7733 104.861 50.848C104.594 50.912 104.322 51.0133 104.045 51.152C103.778 51.2907 103.528 51.488 103.293 51.744C103.069 51.9893 102.888 52.3147 102.749 52.72C102.61 53.1147 102.541 53.6053 102.541 54.192C102.541 54.3733 102.546 54.512 102.557 54.608C102.578 54.704 102.594 54.8053 102.605 54.912C102.626 55.0187 102.637 55.184 102.637 55.408L101.837 54.624C102.072 54.1227 102.37 53.696 102.733 53.344C103.106 52.992 103.533 52.7253 104.013 52.544C104.504 52.352 105.048 52.256 105.645 52.256C106.456 52.256 107.165 52.4213 107.773 52.752C108.392 53.072 108.872 53.5253 109.213 54.112C109.554 54.6987 109.725 55.3653 109.725 56.112C109.725 56.9227 109.522 57.6373 109.117 58.256C108.712 58.864 108.146 59.3387 107.421 59.68C106.706 60.0213 105.874 60.192 104.925 60.192ZM105.053 58.256C105.469 58.256 105.837 58.1653 106.157 57.984C106.477 57.792 106.722 57.5413 106.893 57.232C107.074 56.912 107.165 56.5547 107.165 56.16C107.165 55.776 107.074 55.4347 106.893 55.136C106.722 54.8373 106.477 54.6027 106.157 54.432C105.837 54.2613 105.464 54.176 105.037 54.176C104.621 54.176 104.248 54.2613 103.917 54.432C103.586 54.592 103.33 54.816 103.149 55.104C102.968 55.392 102.877 55.728 102.877 56.112C102.877 56.5067 102.968 56.8693 103.149 57.2C103.341 57.52 103.597 57.776 103.917 57.968C104.248 58.16 104.626 58.256 105.053 58.256ZM111.419 60V51.392H113.899V56.512L118.091 51.392H120.379V60H117.899V54.88L113.723 60H111.419ZM126.81 60.128C125.893 60.128 125.077 59.936 124.362 59.552C123.658 59.168 123.098 58.6453 122.682 57.984C122.277 57.312 122.074 56.5493 122.074 55.696C122.074 54.832 122.277 54.0693 122.682 53.408C123.098 52.736 123.658 52.2133 124.362 51.84C125.077 51.456 125.893 51.264 126.81 51.264C127.717 51.264 128.527 51.456 129.242 51.84C129.957 52.2133 130.517 52.7307 130.922 53.392C131.327 54.0533 131.53 54.8213 131.53 55.696C131.53 56.5493 131.327 57.312 130.922 57.984C130.517 58.6453 129.957 59.168 129.242 59.552C128.527 59.936 127.717 60.128 126.81 60.128ZM126.81 58.08C127.226 58.08 127.599 57.984 127.93 57.792C128.261 57.6 128.522 57.328 128.714 56.976C128.906 56.6133 129.002 56.1867 129.002 55.696C129.002 55.1947 128.906 54.768 128.714 54.416C128.522 54.064 128.261 53.792 127.93 53.6C127.599 53.408 127.226 53.312 126.81 53.312C126.394 53.312 126.021 53.408 125.69 53.6C125.359 53.792 125.093 54.064 124.89 54.416C124.698 54.768 124.602 55.1947 124.602 55.696C124.602 56.1867 124.698 56.6133 124.89 56.976C125.093 57.328 125.359 57.6 125.69 57.792C126.021 57.984 126.394 58.08 126.81 58.08ZM134.774 60V52.864L135.334 53.44H131.862V51.392H140.166V53.44H136.694L137.254 52.864V60H134.774ZM146.569 60.128C145.844 60.128 145.209 59.968 144.665 59.648C144.121 59.328 143.694 58.8427 143.385 58.192C143.086 57.5307 142.937 56.6987 142.937 55.696C142.937 54.6827 143.081 53.8507 143.369 53.2C143.657 52.5493 144.073 52.064 144.617 51.744C145.161 51.424 145.812 51.264 146.569 51.264C147.38 51.264 148.105 51.4507 148.745 51.824C149.396 52.1867 149.908 52.6987 150.281 53.36C150.665 54.0213 150.857 54.8 150.857 55.696C150.857 56.6027 150.665 57.3867 150.281 58.048C149.908 58.7093 149.396 59.2213 148.745 59.584C148.105 59.9467 147.38 60.128 146.569 60.128ZM141.481 63.104V51.392H143.865V53.152L143.817 55.712L143.977 58.256V63.104H141.481ZM146.137 58.08C146.553 58.08 146.921 57.984 147.241 57.792C147.572 57.6 147.833 57.328 148.025 56.976C148.228 56.6133 148.329 56.1867 148.329 55.696C148.329 55.1947 148.228 54.768 148.025 54.416C147.833 54.064 147.572 53.792 147.241 53.6C146.921 53.408 146.553 53.312 146.137 53.312C145.721 53.312 145.348 53.408 145.017 53.6C144.686 53.792 144.425 54.064 144.233 54.416C144.041 54.768 143.945 55.1947 143.945 55.696C143.945 56.1867 144.041 56.6133 144.233 56.976C144.425 57.328 144.686 57.6 145.017 57.792C145.348 57.984 145.721 58.08 146.137 58.08ZM156.638 60.128C155.721 60.128 154.905 59.936 154.19 59.552C153.486 59.168 152.926 58.6453 152.51 57.984C152.105 57.312 151.902 56.5493 151.902 55.696C151.902 54.832 152.105 54.0693 152.51 53.408C152.926 52.736 153.486 52.2133 154.19 51.84C154.905 51.456 155.721 51.264 156.638 51.264C157.545 51.264 158.356 51.456 159.07 51.84C159.785 52.2133 160.345 52.7307 160.75 53.392C161.156 54.0533 161.358 54.8213 161.358 55.696C161.358 56.5493 161.156 57.312 160.75 57.984C160.345 58.6453 159.785 59.168 159.07 59.552C158.356 59.936 157.545 60.128 156.638 60.128ZM156.638 58.08C157.054 58.08 157.428 57.984 157.758 57.792C158.089 57.6 158.35 57.328 158.542 56.976C158.734 56.6133 158.83 56.1867 158.83 55.696C158.83 55.1947 158.734 54.768 158.542 54.416C158.35 54.064 158.089 53.792 157.758 53.6C157.428 53.408 157.054 53.312 156.638 53.312C156.222 53.312 155.849 53.408 155.518 53.6C155.188 53.792 154.921 54.064 154.718 54.416C154.526 54.768 154.43 55.1947 154.43 55.696C154.43 56.1867 154.526 56.6133 154.718 56.976C154.921 57.328 155.188 57.6 155.518 57.792C155.849 57.984 156.222 58.08 156.638 58.08ZM168.867 60.192C168.846 60.192 168.787 60.192 168.691 60.192C168.595 60.192 168.504 60.192 168.419 60.192C168.334 60.192 168.275 60.192 168.243 60.192C166.376 60.16 164.931 59.76 163.907 58.992C162.883 58.224 162.371 57.1147 162.371 55.664C162.371 54.2347 162.878 53.1467 163.891 52.4C164.915 51.6427 166.382 51.2587 168.291 51.248C168.312 51.248 168.366 51.248 168.451 51.248C168.547 51.248 168.638 51.248 168.723 51.248C168.808 51.248 168.862 51.248 168.883 51.248C170.814 51.248 172.307 51.6213 173.363 52.368C174.43 53.1147 174.963 54.2133 174.963 55.664C174.963 57.136 174.43 58.2613 173.363 59.04C172.307 59.808 170.808 60.192 168.867 60.192ZM168.787 58.272C169.672 58.272 170.392 58.1813 170.947 58C171.502 57.808 171.907 57.52 172.163 57.136C172.43 56.7413 172.563 56.2507 172.563 55.664C172.563 55.0987 172.435 54.6347 172.179 54.272C171.923 53.8987 171.512 53.6213 170.947 53.44C170.392 53.2587 169.672 53.168 168.787 53.168C168.755 53.168 168.691 53.168 168.595 53.168C168.499 53.168 168.435 53.168 168.403 53.168C167.55 53.168 166.856 53.264 166.323 53.456C165.79 53.648 165.4 53.9253 165.155 54.288C164.91 54.6507 164.787 55.1093 164.787 55.664C164.787 56.24 164.91 56.72 165.155 57.104C165.4 57.488 165.79 57.776 166.323 57.968C166.856 58.16 167.55 58.2613 168.403 58.272C168.435 58.272 168.499 58.272 168.595 58.272C168.691 58.272 168.755 58.272 168.787 58.272ZM167.523 63.104V48.128H169.811V63.104H167.523ZM176.653 60V51.392H179.133V56.512L183.325 51.392H185.613V60H183.133V54.88L178.957 60H176.653ZM193.437 60V57.136L193.789 57.536H191.405C190.167 57.536 189.197 57.28 188.493 56.768C187.789 56.256 187.437 55.52 187.437 54.56C187.437 53.536 187.805 52.752 188.541 52.208C189.287 51.664 190.29 51.392 191.549 51.392H195.661V60H193.437ZM187.309 60L189.597 56.72H192.141L189.965 60H187.309ZM193.437 56.368V52.784L193.789 53.424H191.597C191.085 53.424 190.685 53.52 190.397 53.712C190.119 53.904 189.981 54.2133 189.981 54.64C189.981 55.4613 190.509 55.872 191.565 55.872H193.789L193.437 56.368ZM203.743 60V49.76L204.863 50.88H201.503V48.8H206.335V60H203.743ZM209.752 54.384C209.326 54.384 208.958 54.24 208.648 53.952C208.35 53.6533 208.2 53.2747 208.2 52.816C208.2 52.3573 208.35 51.9893 208.648 51.712C208.958 51.424 209.326 51.28 209.752 51.28C210.19 51.28 210.558 51.424 210.856 51.712C211.155 51.9893 211.304 52.3573 211.304 52.816C211.304 53.2747 211.155 53.6533 210.856 53.952C210.558 54.24 210.19 54.384 209.752 54.384ZM209.752 60.128C209.326 60.128 208.958 59.984 208.648 59.696C208.35 59.3973 208.2 59.0187 208.2 58.56C208.2 58.1013 208.35 57.7333 208.648 57.456C208.958 57.168 209.326 57.024 209.752 57.024C210.19 57.024 210.558 57.168 210.856 57.456C211.155 57.7333 211.304 58.1013 211.304 58.56C211.304 59.0187 211.155 59.3973 210.856 59.696C210.558 59.984 210.19 60.128 209.752 60.128ZM212.34 57.648V55.904L217.62 48.8H220.34L215.172 55.904L213.908 55.536H222.724V57.648H212.34ZM218.372 60V57.648L218.452 55.536V53.44H220.9V60H218.372ZM228.299 60.192C227.382 60.192 226.56 59.968 225.835 59.52C225.11 59.0613 224.539 58.4 224.123 57.536C223.707 56.672 223.499 55.6267 223.499 54.4C223.499 53.1733 223.707 52.128 224.123 51.264C224.539 50.4 225.11 49.744 225.835 49.296C226.56 48.8373 227.382 48.608 228.299 48.608C229.227 48.608 230.048 48.8373 230.763 49.296C231.488 49.744 232.059 50.4 232.475 51.264C232.891 52.128 233.099 53.1733 233.099 54.4C233.099 55.6267 232.891 56.672 232.475 57.536C232.059 58.4 231.488 59.0613 230.763 59.52C230.048 59.968 229.227 60.192 228.299 60.192ZM228.299 58C228.736 58 229.115 57.8773 229.435 57.632C229.766 57.3867 230.022 56.9973 230.203 56.464C230.395 55.9307 230.491 55.2427 230.491 54.4C230.491 53.5573 230.395 52.8693 230.203 52.336C230.022 51.8027 229.766 51.4133 229.435 51.168C229.115 50.9227 228.736 50.8 228.299 50.8C227.872 50.8 227.494 50.9227 227.163 51.168C226.843 51.4133 226.587 51.8027 226.395 52.336C226.214 52.8693 226.123 53.5573 226.123 54.4C226.123 55.2427 226.214 55.9307 226.395 56.464C226.587 56.9973 226.843 57.3867 227.163 57.632C227.494 57.8773 227.872 58 228.299 58ZM239.158 60.192C238.241 60.192 237.42 59.968 236.694 59.52C235.969 59.0613 235.398 58.4 234.982 57.536C234.566 56.672 234.358 55.6267 234.358 54.4C234.358 53.1733 234.566 52.128 234.982 51.264C235.398 50.4 235.969 49.744 236.694 49.296C237.42 48.8373 238.241 48.608 239.158 48.608C240.086 48.608 240.908 48.8373 241.622 49.296C242.348 49.744 242.918 50.4 243.334 51.264C243.75 52.128 243.958 53.1733 243.958 54.4C243.958 55.6267 243.75 56.672 243.334 57.536C242.918 58.4 242.348 59.0613 241.622 59.52C240.908 59.968 240.086 60.192 239.158 60.192ZM239.158 58C239.596 58 239.974 57.8773 240.294 57.632C240.625 57.3867 240.881 56.9973 241.062 56.464C241.254 55.9307 241.35 55.2427 241.35 54.4C241.35 53.5573 241.254 52.8693 241.062 52.336C240.881 51.8027 240.625 51.4133 240.294 51.168C239.974 50.9227 239.596 50.8 239.158 50.8C238.732 50.8 238.353 50.9227 238.022 51.168C237.702 51.4133 237.446 51.8027 237.254 52.336C237.073 52.8693 236.982 53.5573 236.982 54.4C236.982 55.2427 237.073 55.9307 237.254 56.464C237.446 56.9973 237.702 57.3867 238.022 57.632C238.353 57.8773 238.732 58 239.158 58ZM250.018 60.192C249.1 60.192 248.279 59.968 247.554 59.52C246.828 59.0613 246.258 58.4 245.842 57.536C245.426 56.672 245.218 55.6267 245.218 54.4C245.218 53.1733 245.426 52.128 245.842 51.264C246.258 50.4 246.828 49.744 247.554 49.296C248.279 48.8373 249.1 48.608 250.018 48.608C250.946 48.608 251.767 48.8373 252.482 49.296C253.207 49.744 253.778 50.4 254.194 51.264C254.61 52.128 254.818 53.1733 254.818 54.4C254.818 55.6267 254.61 56.672 254.194 57.536C253.778 58.4 253.207 59.0613 252.482 59.52C251.767 59.968 250.946 60.192 250.018 60.192ZM250.018 58C250.455 58 250.834 57.8773 251.154 57.632C251.484 57.3867 251.74 56.9973 251.922 56.464C252.114 55.9307 252.21 55.2427 252.21 54.4C252.21 53.5573 252.114 52.8693 251.922 52.336C251.74 51.8027 251.484 51.4133 251.154 51.168C250.834 50.9227 250.455 50.8 250.018 50.8C249.591 50.8 249.212 50.9227 248.882 51.168C248.562 51.4133 248.306 51.8027 248.114 52.336C247.932 52.8693 247.842 53.5573 247.842 54.4C247.842 55.2427 247.932 55.9307 248.114 56.464C248.306 56.9973 248.562 57.3867 248.882 57.632C249.212 57.8773 249.591 58 250.018 58ZM260.061 54.24L259.405 53.44H261.501V54.768H256.621V53.44H258.925L258.269 54.24V48.736L259.037 49.456H256.765V48.128H260.061V54.24ZM265.56 54.896C264.984 54.896 264.429 54.8267 263.896 54.688C263.363 54.5493 262.936 54.368 262.616 54.144L263.256 52.864C263.555 53.0667 263.907 53.2267 264.312 53.344C264.717 53.4507 265.123 53.504 265.528 53.504C265.997 53.504 266.344 53.4347 266.568 53.296C266.792 53.1467 266.904 52.9547 266.904 52.72C266.904 52.4853 266.803 52.304 266.6 52.176C266.408 52.0373 266.088 51.968 265.64 51.968H264.696V50.88L266.76 48.864L266.984 49.456H262.904V48.128H268.312V49.2L266.248 51.216L265.48 50.736H265.992C266.867 50.736 267.533 50.9227 267.992 51.296C268.451 51.6587 268.68 52.1333 268.68 52.72C268.68 53.0933 268.568 53.4453 268.344 53.776C268.12 54.1067 267.773 54.3787 267.304 54.592C266.845 54.7947 266.264 54.896 265.56 54.896Z" fill="white"/>
<path d="M134.3 118L139.292 106.8H141.852L146.86 118H144.14L140.044 108.112H141.068L136.956 118H134.3ZM136.796 115.6L137.484 113.632H143.244L143.948 115.6H136.796ZM148.868 121.232C148.42 121.232 147.977 121.163 147.54 121.024C147.103 120.885 146.745 120.693 146.468 120.448L147.38 118.672C147.572 118.843 147.791 118.976 148.036 119.072C148.292 119.168 148.543 119.216 148.788 119.216C149.14 119.216 149.417 119.131 149.62 118.96C149.833 118.8 150.025 118.528 150.196 118.144L150.644 117.088L150.836 116.816L153.924 109.392H156.324L152.436 118.528C152.159 119.221 151.839 119.765 151.476 120.16C151.124 120.555 150.729 120.832 150.292 120.992C149.865 121.152 149.391 121.232 148.868 121.232ZM150.34 118.336L146.5 109.392H149.076L152.052 116.592L150.34 118.336ZM159.415 118V110.864L159.975 111.44H156.503V109.392H164.807V111.44H161.335L161.895 110.864V118H159.415ZM169.81 118.128C168.893 118.128 168.077 117.936 167.362 117.552C166.658 117.168 166.098 116.645 165.682 115.984C165.277 115.312 165.074 114.549 165.074 113.696C165.074 112.832 165.277 112.069 165.682 111.408C166.098 110.736 166.658 110.213 167.362 109.84C168.077 109.456 168.893 109.264 169.81 109.264C170.717 109.264 171.527 109.456 172.242 109.84C172.957 110.213 173.517 110.731 173.922 111.392C174.327 112.053 174.53 112.821 174.53 113.696C174.53 114.549 174.327 115.312 173.922 115.984C173.517 116.645 172.957 117.168 172.242 117.552C171.527 117.936 170.717 118.128 169.81 118.128ZM169.81 116.08C170.226 116.08 170.599 115.984 170.93 115.792C171.261 115.6 171.522 115.328 171.714 114.976C171.906 114.613 172.002 114.187 172.002 113.696C172.002 113.195 171.906 112.768 171.714 112.416C171.522 112.064 171.261 111.792 170.93 111.6C170.599 111.408 170.226 111.312 169.81 111.312C169.394 111.312 169.021 111.408 168.69 111.6C168.359 111.792 168.093 112.064 167.89 112.416C167.698 112.768 167.602 113.195 167.602 113.696C167.602 114.187 167.698 114.613 167.89 114.976C168.093 115.328 168.359 115.6 168.69 115.792C169.021 115.984 169.394 116.08 169.81 116.08ZM180.343 118.128C179.415 118.128 178.588 117.941 177.863 117.568C177.138 117.184 176.567 116.656 176.151 115.984C175.746 115.312 175.543 114.549 175.543 113.696C175.543 112.832 175.746 112.069 176.151 111.408C176.567 110.736 177.138 110.213 177.863 109.84C178.588 109.456 179.415 109.264 180.343 109.264C181.25 109.264 182.039 109.456 182.711 109.84C183.383 110.213 183.879 110.752 184.199 111.456L182.263 112.496C182.039 112.091 181.756 111.792 181.415 111.6C181.084 111.408 180.722 111.312 180.327 111.312C179.9 111.312 179.516 111.408 179.175 111.6C178.834 111.792 178.562 112.064 178.359 112.416C178.167 112.768 178.071 113.195 178.071 113.696C178.071 114.197 178.167 114.624 178.359 114.976C178.562 115.328 178.834 115.6 179.175 115.792C179.516 115.984 179.9 116.08 180.327 116.08C180.722 116.08 181.084 115.989 181.415 115.808C181.756 115.616 182.039 115.312 182.263 114.896L184.199 115.952C183.879 116.645 183.383 117.184 182.711 117.568C182.039 117.941 181.25 118.128 180.343 118.128ZM189.638 118.128C188.721 118.128 187.905 117.936 187.19 117.552C186.486 117.168 185.926 116.645 185.51 115.984C185.105 115.312 184.902 114.549 184.902 113.696C184.902 112.832 185.105 112.069 185.51 111.408C185.926 110.736 186.486 110.213 187.19 109.84C187.905 109.456 188.721 109.264 189.638 109.264C190.545 109.264 191.356 109.456 192.07 109.84C192.785 110.213 193.345 110.731 193.75 111.392C194.156 112.053 194.358 112.821 194.358 113.696C194.358 114.549 194.156 115.312 193.75 115.984C193.345 116.645 192.785 117.168 192.07 117.552C191.356 117.936 190.545 118.128 189.638 118.128ZM189.638 116.08C190.054 116.08 190.428 115.984 190.758 115.792C191.089 115.6 191.35 115.328 191.542 114.976C191.734 114.613 191.83 114.187 191.83 113.696C191.83 113.195 191.734 112.768 191.542 112.416C191.35 112.064 191.089 111.792 190.758 111.6C190.428 111.408 190.054 111.312 189.638 111.312C189.222 111.312 188.849 111.408 188.518 111.6C188.188 111.792 187.921 112.064 187.718 112.416C187.526 112.768 187.43 113.195 187.43 113.696C187.43 114.187 187.526 114.613 187.718 114.976C187.921 115.328 188.188 115.6 188.518 115.792C188.849 115.984 189.222 116.08 189.638 116.08ZM196.075 118V109.392H198.683L201.931 115.28H200.891L204.363 109.392H206.699L206.731 118H204.475V111.952L204.859 112.208L201.899 117.168H200.843L197.867 112.032L198.331 111.92V118H196.075ZM209.122 118V109.392H211.602V112.752H215.346V109.392H217.842V118H215.346V114.784H211.602V118H209.122ZM224.263 118.128C223.346 118.128 222.53 117.936 221.815 117.552C221.111 117.168 220.551 116.645 220.135 115.984C219.73 115.312 219.527 114.549 219.527 113.696C219.527 112.832 219.73 112.069 220.135 111.408C220.551 110.736 221.111 110.213 221.815 109.84C222.53 109.456 223.346 109.264 224.263 109.264C225.17 109.264 225.981 109.456 226.695 109.84C227.41 110.213 227.97 110.731 228.375 111.392C228.781 112.053 228.983 112.821 228.983 113.696C228.983 114.549 228.781 115.312 228.375 115.984C227.97 116.645 227.41 117.168 226.695 117.552C225.981 117.936 225.17 118.128 224.263 118.128ZM224.263 116.08C224.679 116.08 225.053 115.984 225.383 115.792C225.714 115.6 225.975 115.328 226.167 114.976C226.359 114.613 226.455 114.187 226.455 113.696C226.455 113.195 226.359 112.768 226.167 112.416C225.975 112.064 225.714 111.792 225.383 111.6C225.053 111.408 224.679 111.312 224.263 111.312C223.847 111.312 223.474 111.408 223.143 111.6C222.813 111.792 222.546 112.064 222.343 112.416C222.151 112.768 222.055 113.195 222.055 113.696C222.055 114.187 222.151 114.613 222.343 114.976C222.546 115.328 222.813 115.6 223.143 115.792C223.474 115.984 223.847 116.08 224.263 116.08ZM230.488 114.496V112.496H235.016V114.496H230.488ZM94.5298 136.128C93.8045 136.128 93.1698 135.968 92.6258 135.648C92.0818 135.328 91.6551 134.843 91.3458 134.192C91.0471 133.531 90.8978 132.699 90.8978 131.696C90.8978 130.683 91.0418 129.851 91.3298 129.2C91.6178 128.549 92.0338 128.064 92.5778 127.744C93.1218 127.424 93.7725 127.264 94.5298 127.264C95.3405 127.264 96.0658 127.451 96.7058 127.824C97.3565 128.187 97.8685 128.699 98.2418 129.36C98.6258 130.021 98.8178 130.8 98.8178 131.696C98.8178 132.603 98.6258 133.387 98.2418 134.048C97.8685 134.709 97.3565 135.221 96.7058 135.584C96.0658 135.947 95.3405 136.128 94.5298 136.128ZM89.4418 139.104V127.392H91.8258V129.152L91.7778 131.712L91.9378 134.256V139.104H89.4418ZM94.0978 134.08C94.5138 134.08 94.8818 133.984 95.2018 133.792C95.5325 133.6 95.7938 133.328 95.9858 132.976C96.1885 132.613 96.2898 132.187 96.2898 131.696C96.2898 131.195 96.1885 130.768 95.9858 130.416C95.7938 130.064 95.5325 129.792 95.2018 129.6C94.8818 129.408 94.5138 129.312 94.0978 129.312C93.6818 129.312 93.3085 129.408 92.9778 129.6C92.6471 129.792 92.3858 130.064 92.1938 130.416C92.0018 130.768 91.9058 131.195 91.9058 131.696C91.9058 132.187 92.0018 132.613 92.1938 132.976C92.3858 133.328 92.6471 133.6 92.9778 133.792C93.3085 133.984 93.6818 134.08 94.0978 134.08ZM104.775 136.128C103.794 136.128 102.93 135.936 102.183 135.552C101.447 135.168 100.877 134.645 100.471 133.984C100.066 133.312 99.8632 132.549 99.8632 131.696C99.8632 130.832 100.061 130.069 100.455 129.408C100.861 128.736 101.41 128.213 102.103 127.84C102.797 127.456 103.581 127.264 104.455 127.264C105.298 127.264 106.055 127.445 106.727 127.808C107.41 128.16 107.949 128.672 108.343 129.344C108.738 130.005 108.935 130.8 108.935 131.728C108.935 131.824 108.93 131.936 108.919 132.064C108.909 132.181 108.898 132.293 108.887 132.4H101.895V130.944H107.575L106.615 131.376C106.615 130.928 106.525 130.539 106.343 130.208C106.162 129.877 105.911 129.621 105.591 129.44C105.271 129.248 104.898 129.152 104.471 129.152C104.045 129.152 103.666 129.248 103.335 129.44C103.015 129.621 102.765 129.883 102.583 130.224C102.402 130.555 102.311 130.949 102.311 131.408V131.792C102.311 132.261 102.413 132.677 102.615 133.04C102.829 133.392 103.122 133.664 103.495 133.856C103.879 134.037 104.327 134.128 104.839 134.128C105.298 134.128 105.698 134.059 106.039 133.92C106.391 133.781 106.711 133.573 106.999 133.296L108.327 134.736C107.933 135.184 107.437 135.531 106.839 135.776C106.242 136.011 105.554 136.128 104.775 136.128ZM110.848 136V127.392H113.328V133.952H116.8V127.392H119.296V136H110.848ZM118.224 137.856V135.968L118.8 136H116.8V133.952H120.544V137.856H118.224ZM126.322 136.128C125.341 136.128 124.477 135.936 123.73 135.552C122.994 135.168 122.423 134.645 122.018 133.984C121.613 133.312 121.41 132.549 121.41 131.696C121.41 130.832 121.607 130.069 122.002 129.408C122.407 128.736 122.957 128.213 123.65 127.84C124.343 127.456 125.127 127.264 126.002 127.264C126.845 127.264 127.602 127.445 128.274 127.808C128.957 128.16 129.495 128.672 129.89 129.344C130.285 130.005 130.482 130.8 130.482 131.728C130.482 131.824 130.477 131.936 130.466 132.064C130.455 132.181 130.445 132.293 130.434 132.4H123.442V130.944H129.122L128.162 131.376C128.162 130.928 128.071 130.539 127.89 130.208C127.709 129.877 127.458 129.621 127.138 129.44C126.818 129.248 126.445 129.152 126.018 129.152C125.591 129.152 125.213 129.248 124.882 129.44C124.562 129.621 124.311 129.883 124.13 130.224C123.949 130.555 123.858 130.949 123.858 131.408V131.792C123.858 132.261 123.959 132.677 124.162 133.04C124.375 133.392 124.669 133.664 125.042 133.856C125.426 134.037 125.874 134.128 126.386 134.128C126.845 134.128 127.245 134.059 127.586 133.92C127.938 133.781 128.258 133.573 128.546 133.296L129.874 134.736C129.479 135.184 128.983 135.531 128.386 135.776C127.789 136.011 127.101 136.128 126.322 136.128ZM136.491 136.128C135.563 136.128 134.737 135.941 134.011 135.568C133.286 135.184 132.715 134.656 132.299 133.984C131.894 133.312 131.691 132.549 131.691 131.696C131.691 130.832 131.894 130.069 132.299 129.408C132.715 128.736 133.286 128.213 134.011 127.84C134.737 127.456 135.563 127.264 136.491 127.264C137.398 127.264 138.187 127.456 138.859 127.84C139.531 128.213 140.027 128.752 140.347 129.456L138.411 130.496C138.187 130.091 137.905 129.792 137.563 129.6C137.233 129.408 136.87 129.312 136.475 129.312C136.049 129.312 135.665 129.408 135.323 129.6C134.982 129.792 134.71 130.064 134.507 130.416C134.315 130.768 134.219 131.195 134.219 131.696C134.219 132.197 134.315 132.624 134.507 132.976C134.71 133.328 134.982 133.6 135.323 133.792C135.665 133.984 136.049 134.08 136.475 134.08C136.87 134.08 137.233 133.989 137.563 133.808C137.905 133.616 138.187 133.312 138.411 132.896L140.347 133.952C140.027 134.645 139.531 135.184 138.859 135.568C138.187 135.941 137.398 136.128 136.491 136.128ZM145.851 136.128C144.923 136.128 144.096 135.941 143.371 135.568C142.645 135.184 142.075 134.656 141.659 133.984C141.253 133.312 141.051 132.549 141.051 131.696C141.051 130.832 141.253 130.069 141.659 129.408C142.075 128.736 142.645 128.213 143.371 127.84C144.096 127.456 144.923 127.264 145.851 127.264C146.757 127.264 147.547 127.456 148.219 127.84C148.891 128.213 149.387 128.752 149.707 129.456L147.771 130.496C147.547 130.091 147.264 129.792 146.923 129.6C146.592 129.408 146.229 129.312 145.835 129.312C145.408 129.312 145.024 129.408 144.683 129.6C144.341 129.792 144.069 130.064 143.867 130.416C143.675 130.768 143.579 131.195 143.579 131.696C143.579 132.197 143.675 132.624 143.867 132.976C144.069 133.328 144.341 133.6 144.683 133.792C145.024 133.984 145.408 134.08 145.835 134.08C146.229 134.08 146.592 133.989 146.923 133.808C147.264 133.616 147.547 133.312 147.771 132.896L149.707 133.952C149.387 134.645 148.891 135.184 148.219 135.568C147.547 135.941 146.757 136.128 145.851 136.128ZM151.223 136V127.392H153.703V132.512L157.895 127.392H160.183V136H157.703V130.88L153.527 136H151.223ZM162.583 136V127.392H166.983C168.06 127.392 168.903 127.589 169.511 127.984C170.119 128.368 170.423 128.912 170.423 129.616C170.423 130.32 170.135 130.875 169.559 131.28C168.993 131.675 168.241 131.872 167.303 131.872L167.559 131.296C168.604 131.296 169.383 131.488 169.895 131.872C170.417 132.256 170.679 132.816 170.679 133.552C170.679 134.309 170.391 134.907 169.815 135.344C169.239 135.781 168.359 136 167.175 136H162.583ZM164.871 134.304H166.967C167.425 134.304 167.767 134.229 167.991 134.08C168.225 133.92 168.343 133.68 168.343 133.36C168.343 133.029 168.236 132.789 168.023 132.64C167.809 132.48 167.473 132.4 167.015 132.4H164.871V134.304ZM164.871 130.928H166.759C167.196 130.928 167.521 130.848 167.735 130.688C167.959 130.528 168.071 130.299 168.071 130C168.071 129.691 167.959 129.461 167.735 129.312C167.521 129.163 167.196 129.088 166.759 129.088H164.871V130.928ZM172.536 136V127.392H175.016V130.752H178.76V127.392H181.256V136H178.76V132.784H175.016V136H172.536ZM188.797 136V134.32L188.637 133.952V130.944C188.637 130.411 188.472 129.995 188.141 129.696C187.821 129.397 187.325 129.248 186.653 129.248C186.195 129.248 185.741 129.323 185.293 129.472C184.856 129.611 184.483 129.803 184.173 130.048L183.277 128.304C183.747 127.973 184.312 127.717 184.973 127.536C185.635 127.355 186.307 127.264 186.989 127.264C188.301 127.264 189.32 127.573 190.045 128.192C190.771 128.811 191.133 129.776 191.133 131.088V136H188.797ZM186.173 136.128C185.501 136.128 184.925 136.016 184.445 135.792C183.965 135.557 183.597 135.243 183.341 134.848C183.085 134.453 182.957 134.011 182.957 133.52C182.957 133.008 183.08 132.56 183.325 132.176C183.581 131.792 183.981 131.493 184.525 131.28C185.069 131.056 185.779 130.944 186.653 130.944H188.941V132.4H186.925C186.339 132.4 185.933 132.496 185.709 132.688C185.496 132.88 185.389 133.12 185.389 133.408C185.389 133.728 185.512 133.984 185.757 134.176C186.013 134.357 186.36 134.448 186.797 134.448C187.213 134.448 187.587 134.352 187.917 134.16C188.248 133.957 188.488 133.664 188.637 133.28L189.021 134.432C188.84 134.987 188.509 135.408 188.029 135.696C187.549 135.984 186.931 136.128 186.173 136.128ZM198.726 136V133.136L199.078 133.536H196.694C195.456 133.536 194.486 133.28 193.782 132.768C193.078 132.256 192.726 131.52 192.726 130.56C192.726 129.536 193.094 128.752 193.83 128.208C194.576 127.664 195.579 127.392 196.838 127.392H200.95V136H198.726ZM192.598 136L194.886 132.72H197.43L195.254 136H192.598ZM198.726 132.368V128.784L199.078 129.424H196.886C196.374 129.424 195.974 129.52 195.686 129.712C195.408 129.904 195.27 130.213 195.27 130.64C195.27 131.461 195.798 131.872 196.854 131.872H199.078L198.726 132.368ZM207.208 136V134.32L211.528 130.24C211.869 129.931 212.12 129.653 212.28 129.408C212.44 129.163 212.546 128.939 212.6 128.736C212.664 128.533 212.696 128.347 212.696 128.176C212.696 127.728 212.541 127.387 212.232 127.152C211.933 126.907 211.49 126.784 210.904 126.784C210.434 126.784 209.997 126.875 209.592 127.056C209.197 127.237 208.861 127.52 208.584 127.904L206.696 126.688C207.122 126.048 207.72 125.541 208.488 125.168C209.256 124.795 210.141 124.608 211.144 124.608C211.976 124.608 212.701 124.747 213.32 125.024C213.949 125.291 214.434 125.669 214.776 126.16C215.128 126.651 215.304 127.237 215.304 127.92C215.304 128.283 215.256 128.645 215.16 129.008C215.074 129.36 214.893 129.733 214.616 130.128C214.349 130.523 213.954 130.965 213.432 131.456L209.848 134.832L209.352 133.888H215.672V136H207.208ZM220.549 136.192C219.771 136.192 218.997 136.091 218.229 135.888C217.472 135.675 216.821 135.376 216.277 134.992L217.301 133.008C217.728 133.317 218.219 133.563 218.773 133.744C219.339 133.925 219.909 134.016 220.485 134.016C221.136 134.016 221.648 133.888 222.021 133.632C222.395 133.376 222.581 133.019 222.581 132.56C222.581 132.272 222.507 132.016 222.357 131.792C222.208 131.568 221.941 131.397 221.557 131.28C221.184 131.163 220.656 131.104 219.973 131.104H217.109L217.685 124.8H224.517V126.88H218.613L219.957 125.696L219.557 130.192L218.213 129.008H220.581C221.691 129.008 222.581 129.163 223.253 129.472C223.936 129.771 224.432 130.181 224.741 130.704C225.051 131.227 225.205 131.819 225.205 132.48C225.205 133.141 225.04 133.755 224.709 134.32C224.379 134.875 223.867 135.328 223.173 135.68C222.491 136.021 221.616 136.192 220.549 136.192ZM225.633 132.272V130.72H233.633V132.272H225.633ZM237.889 136.192C237.11 136.192 236.337 136.091 235.569 135.888C234.801 135.675 234.15 135.376 233.617 134.992L234.625 133.008C235.051 133.317 235.547 133.563 236.113 133.744C236.678 133.925 237.249 134.016 237.825 134.016C238.475 134.016 238.987 133.888 239.361 133.632C239.734 133.376 239.921 133.024 239.921 132.576C239.921 132.149 239.755 131.813 239.425 131.568C239.094 131.323 238.561 131.2 237.825 131.2H236.641V129.488L239.761 125.952L240.049 126.88H234.177V124.8H242.017V126.48L238.913 130.016L237.601 129.264H238.353C239.729 129.264 240.769 129.573 241.473 130.192C242.177 130.811 242.529 131.605 242.529 132.576C242.529 133.205 242.363 133.797 242.033 134.352C241.702 134.896 241.195 135.339 240.513 135.68C239.83 136.021 238.955 136.192 237.889 136.192ZM248.526 136.192C247.608 136.192 246.787 135.968 246.062 135.52C245.336 135.061 244.766 134.4 244.35 133.536C243.934 132.672 243.726 131.627 243.726 130.4C243.726 129.173 243.934 128.128 244.35 127.264C244.766 126.4 245.336 125.744 246.062 125.296C246.787 124.837 247.608 124.608 248.526 124.608C249.454 124.608 250.275 124.837 250.99 125.296C251.715 125.744 252.286 126.4 252.702 127.264C253.118 128.128 253.326 129.173 253.326 130.4C253.326 131.627 253.118 132.672 252.702 133.536C252.286 134.4 251.715 135.061 250.99 135.52C250.275 135.968 249.454 136.192 248.526 136.192ZM248.526 134C248.963 134 249.342 133.877 249.662 133.632C249.992 133.387 250.248 132.997 250.43 132.464C250.622 131.931 250.718 131.243 250.718 130.4C250.718 129.557 250.622 128.869 250.43 128.336C250.248 127.803 249.992 127.413 249.662 127.168C249.342 126.923 248.963 126.8 248.526 126.8C248.099 126.8 247.72 126.923 247.39 127.168C247.07 127.413 246.814 127.803 246.622 128.336C246.44 128.869 246.35 129.557 246.35 130.4C246.35 131.243 246.44 131.931 246.622 132.464C246.814 132.997 247.07 133.387 247.39 133.632C247.72 133.877 248.099 134 248.526 134ZM256.201 136L263.849 124.8H265.753L258.105 136H256.201ZM257.177 130.848C256.633 130.848 256.153 130.725 255.737 130.48C255.321 130.224 254.99 129.867 254.745 129.408C254.51 128.939 254.393 128.389 254.393 127.76C254.393 127.131 254.51 126.587 254.745 126.128C254.99 125.669 255.321 125.312 255.737 125.056C256.153 124.8 256.633 124.672 257.177 124.672C257.721 124.672 258.201 124.8 258.617 125.056C259.033 125.312 259.358 125.669 259.593 126.128C259.828 126.587 259.945 127.131 259.945 127.76C259.945 128.389 259.828 128.939 259.593 129.408C259.358 129.867 259.033 130.224 258.617 130.48C258.201 130.725 257.721 130.848 257.177 130.848ZM257.177 129.536C257.529 129.536 257.812 129.392 258.025 129.104C258.238 128.805 258.345 128.357 258.345 127.76C258.345 127.163 258.238 126.72 258.025 126.432C257.812 126.133 257.529 125.984 257.177 125.984C256.836 125.984 256.553 126.133 256.329 126.432C256.116 126.72 256.009 127.163 256.009 127.76C256.009 128.347 256.116 128.789 256.329 129.088C256.553 129.387 256.836 129.536 257.177 129.536ZM264.777 136.128C264.244 136.128 263.764 136.005 263.337 135.76C262.921 135.504 262.596 135.147 262.361 134.688C262.126 134.219 262.009 133.669 262.009 133.04C262.009 132.411 262.126 131.867 262.361 131.408C262.596 130.949 262.921 130.592 263.337 130.336C263.764 130.08 264.244 129.952 264.777 129.952C265.332 129.952 265.817 130.08 266.233 130.336C266.649 130.592 266.974 130.949 267.209 131.408C267.444 131.867 267.561 132.411 267.561 133.04C267.561 133.669 267.444 134.219 267.209 134.688C266.974 135.147 266.649 135.504 266.233 135.76C265.817 136.005 265.332 136.128 264.777 136.128ZM264.777 134.816C265.129 134.816 265.412 134.672 265.625 134.384C265.838 134.085 265.945 133.637 265.945 133.04C265.945 132.453 265.838 132.011 265.625 131.712C265.412 131.413 265.129 131.264 264.777 131.264C264.436 131.264 264.153 131.413 263.929 131.712C263.716 132 263.609 132.443 263.609 133.04C263.609 133.637 263.716 134.085 263.929 134.384C264.153 134.672 264.436 134.816 264.777 134.816ZM272.6 130.24L271.944 129.44H274.04V130.768H269.16V129.44H271.464L270.808 130.24V124.736L271.576 125.456H269.304V124.128H272.6V130.24ZM275.059 129.424V128.304L278.083 124.128H279.987L276.947 128.304L276.131 128.064H281.443V129.424H275.059ZM278.659 130.768V129.424L278.835 128.064V126.944H280.371V130.768H278.659Z" fill="white"/>
<path d="M104.048 208V195.4H106.46L111.824 204.292H110.546L115.82 195.4H118.232L118.25 208H115.514L115.496 199.594H116.018L111.788 206.668H110.492L106.172 199.594H106.784V208H104.048ZM122.478 211.636C121.974 211.636 121.476 211.558 120.984 211.402C120.492 211.246 120.09 211.03 119.778 210.754L120.804 208.756C121.02 208.948 121.266 209.098 121.542 209.206C121.83 209.314 122.112 209.368 122.388 209.368C122.784 209.368 123.096 209.272 123.324 209.08C123.564 208.9 123.78 208.594 123.972 208.162L124.476 206.974L124.692 206.668L128.166 198.316H130.866L126.492 208.594C126.18 209.374 125.82 209.986 125.412 210.43C125.016 210.874 124.572 211.186 124.08 211.366C123.6 211.546 123.066 211.636 122.478 211.636ZM124.134 208.378L119.814 198.316H122.712L126.06 206.416L124.134 208.378ZM134.344 208V199.972L134.974 200.62H131.068V198.316H140.41V200.62H136.504L137.134 199.972V208H134.344ZM147.703 208V206.11L147.523 205.696V202.312C147.523 201.712 147.337 201.244 146.965 200.908C146.605 200.572 146.047 200.404 145.291 200.404C144.775 200.404 144.265 200.488 143.761 200.656C143.269 200.812 142.849 201.028 142.501 201.304L141.493 199.342C142.021 198.97 142.657 198.682 143.401 198.478C144.145 198.274 144.901 198.172 145.669 198.172C147.145 198.172 148.291 198.52 149.107 199.216C149.923 199.912 150.331 200.998 150.331 202.474V208H147.703ZM144.751 208.144C143.995 208.144 143.347 208.018 142.807 207.766C142.267 207.502 141.853 207.148 141.565 206.704C141.277 206.26 141.133 205.762 141.133 205.21C141.133 204.634 141.271 204.13 141.547 203.698C141.835 203.266 142.285 202.93 142.897 202.69C143.509 202.438 144.307 202.312 145.291 202.312H147.865V203.95H145.597C144.937 203.95 144.481 204.058 144.229 204.274C143.989 204.49 143.869 204.76 143.869 205.084C143.869 205.444 144.007 205.732 144.283 205.948C144.571 206.152 144.961 206.254 145.453 206.254C145.921 206.254 146.341 206.146 146.713 205.93C147.085 205.702 147.355 205.372 147.523 204.94L147.955 206.236C147.751 206.86 147.379 207.334 146.839 207.658C146.299 207.982 145.603 208.144 144.751 208.144ZM152.77 208V198.316H155.56V205.696H159.466V198.316H162.274V208H152.77ZM161.068 210.088V207.964L161.716 208H159.466V205.696H163.678V210.088H161.068ZM165.444 208V198.316H168.234V204.076L172.95 198.316H175.524V208H172.734V202.24L168.036 208H165.444ZM178.223 208V198.316H181.013V204.076L185.729 198.316H188.303V208H185.513V202.24L180.815 208H178.223ZM196.1 208V198.316H201.05C202.262 198.316 203.21 198.538 203.894 198.982C204.578 199.414 204.92 200.026 204.92 200.818C204.92 201.61 204.596 202.234 203.948 202.69C203.312 203.134 202.466 203.356 201.41 203.356L201.698 202.708C202.874 202.708 203.75 202.924 204.326 203.356C204.914 203.788 205.208 204.418 205.208 205.246C205.208 206.098 204.884 206.77 204.236 207.262C203.588 207.754 202.598 208 201.266 208H196.1ZM198.674 206.092H201.032C201.548 206.092 201.932 206.008 202.184 205.84C202.448 205.66 202.58 205.39 202.58 205.03C202.58 204.658 202.46 204.388 202.22 204.22C201.98 204.04 201.602 203.95 201.086 203.95H198.674V206.092ZM198.674 202.294H200.798C201.29 202.294 201.656 202.204 201.896 202.024C202.148 201.844 202.274 201.586 202.274 201.25C202.274 200.902 202.148 200.644 201.896 200.476C201.656 200.308 201.29 200.224 200.798 200.224H198.674V202.294ZM212.395 208V198.316H220.153V200.62H214.555L215.185 200.008V208H212.395ZM225.971 208.144C224.867 208.144 223.895 207.928 223.055 207.496C222.227 207.064 221.585 206.476 221.129 205.732C220.673 204.976 220.445 204.118 220.445 203.158C220.445 202.186 220.667 201.328 221.111 200.584C221.567 199.828 222.185 199.24 222.965 198.82C223.745 198.388 224.627 198.172 225.611 198.172C226.559 198.172 227.411 198.376 228.167 198.784C228.935 199.18 229.541 199.756 229.985 200.512C230.429 201.256 230.651 202.15 230.651 203.194C230.651 203.302 230.645 203.428 230.633 203.572C230.621 203.704 230.609 203.83 230.597 203.95H222.731V202.312H229.121L228.041 202.798C228.041 202.294 227.939 201.856 227.735 201.484C227.531 201.112 227.249 200.824 226.889 200.62C226.529 200.404 226.109 200.296 225.629 200.296C225.149 200.296 224.723 200.404 224.351 200.62C223.991 200.824 223.709 201.118 223.505 201.502C223.301 201.874 223.199 202.318 223.199 202.834V203.266C223.199 203.794 223.313 204.262 223.541 204.67C223.781 205.066 224.111 205.372 224.531 205.588C224.963 205.792 225.467 205.894 226.043 205.894C226.559 205.894 227.009 205.816 227.393 205.66C227.789 205.504 228.149 205.27 228.473 204.958L229.967 206.578C229.523 207.082 228.965 207.472 228.293 207.748C227.621 208.012 226.847 208.144 225.971 208.144ZM232.803 208V198.316H235.593V202.096H239.805V198.316H242.613V208H239.805V204.382H235.593V208H232.803ZM250.035 208.144C248.931 208.144 247.959 207.928 247.119 207.496C246.291 207.064 245.649 206.476 245.193 205.732C244.737 204.976 244.509 204.118 244.509 203.158C244.509 202.186 244.731 201.328 245.175 200.584C245.631 199.828 246.249 199.24 247.029 198.82C247.809 198.388 248.691 198.172 249.675 198.172C250.623 198.172 251.475 198.376 252.231 198.784C252.999 199.18 253.605 199.756 254.049 200.512C254.493 201.256 254.715 202.15 254.715 203.194C254.715 203.302 254.709 203.428 254.697 203.572C254.685 203.704 254.673 203.83 254.661 203.95H246.795V202.312H253.185L252.105 202.798C252.105 202.294 252.003 201.856 251.799 201.484C251.595 201.112 251.313 200.824 250.953 200.62C250.593 200.404 250.173 200.296 249.693 200.296C249.213 200.296 248.787 200.404 248.415 200.62C248.055 200.824 247.773 201.118 247.569 201.502C247.365 201.874 247.263 202.318 247.263 202.834V203.266C247.263 203.794 247.377 204.262 247.605 204.67C247.845 205.066 248.175 205.372 248.595 205.588C249.027 205.792 249.531 205.894 250.107 205.894C250.623 205.894 251.073 205.816 251.457 205.66C251.853 205.504 252.213 205.27 252.537 204.958L254.031 206.578C253.587 207.082 253.029 207.472 252.357 207.748C251.685 208.012 250.911 208.144 250.035 208.144ZM146.818 232L149.338 219.4H154.468C156.04 219.4 157.252 219.742 158.104 220.426C158.968 221.11 159.4 222.07 159.4 223.306C159.4 224.362 159.148 225.28 158.644 226.06C158.152 226.828 157.444 227.422 156.52 227.842C155.608 228.262 154.528 228.472 153.28 228.472H149.176L150.706 227.194L149.752 232H146.818ZM154.918 232L152.344 227.428H155.404L157.996 232H154.918ZM150.634 227.536L149.626 226.15H153.388C154.36 226.15 155.11 225.934 155.638 225.502C156.178 225.058 156.448 224.416 156.448 223.576C156.448 222.964 156.238 222.514 155.818 222.226C155.41 221.926 154.834 221.776 154.09 221.776H150.544L152.074 220.354L150.634 227.536ZM160.054 232L162.574 219.4H167.668C169.24 219.4 170.452 219.748 171.304 220.444C172.168 221.128 172.6 222.088 172.6 223.324C172.6 224.38 172.354 225.304 171.862 226.096C171.37 226.876 170.662 227.476 169.738 227.896C168.826 228.316 167.74 228.526 166.48 228.526H162.394L163.942 227.194L162.988 232H160.054ZM163.87 227.536L162.844 226.15H166.606C167.566 226.15 168.31 225.934 168.838 225.502C169.378 225.058 169.648 224.416 169.648 223.576C169.648 222.964 169.444 222.514 169.036 222.226C168.628 221.926 168.052 221.776 167.308 221.776H163.762L165.31 220.354L163.87 227.536ZM177.256 224.476H183.322L182.872 226.744H176.806L177.256 224.476ZM176.428 229.66H183.304L182.818 232H173.062L175.582 219.4H185.104L184.618 221.74H178.012L176.428 229.66ZM190.362 232.216C189.378 232.216 188.496 232.024 187.716 231.64C186.948 231.244 186.348 230.662 185.916 229.894C185.484 229.126 185.268 228.178 185.268 227.05C185.268 226.342 185.358 225.622 185.538 224.89C185.718 224.146 186 223.432 186.384 222.748C186.768 222.064 187.254 221.458 187.842 220.93C188.442 220.39 189.156 219.964 189.984 219.652C190.812 219.34 191.766 219.184 192.846 219.184C193.53 219.184 194.184 219.256 194.808 219.4C195.444 219.544 195.96 219.754 196.356 220.03L195.042 222.172C194.706 221.944 194.334 221.788 193.926 221.704C193.53 221.608 193.11 221.56 192.666 221.56C192.114 221.56 191.616 221.638 191.172 221.794C190.74 221.938 190.356 222.148 190.02 222.424C189.684 222.688 189.396 223 189.156 223.36C188.928 223.72 188.748 224.11 188.616 224.53C188.484 224.938 188.4 225.364 188.364 225.808C188.34 226.108 188.322 226.348 188.31 226.528C188.298 226.696 188.286 226.852 188.274 226.996L187.428 226.6C187.692 226 188.016 225.52 188.4 225.16C188.784 224.788 189.228 224.518 189.732 224.35C190.236 224.182 190.782 224.098 191.37 224.098C192.078 224.098 192.738 224.242 193.35 224.53C193.962 224.806 194.454 225.214 194.826 225.754C195.21 226.294 195.402 226.954 195.402 227.734C195.402 228.646 195.18 229.438 194.736 230.11C194.304 230.782 193.71 231.304 192.954 231.676C192.198 232.036 191.334 232.216 190.362 232.216ZM190.326 230.038C190.95 230.038 191.472 229.858 191.892 229.498C192.312 229.138 192.522 228.634 192.522 227.986C192.522 227.446 192.336 227.026 191.964 226.726C191.604 226.426 191.124 226.276 190.524 226.276C190.068 226.276 189.672 226.36 189.336 226.528C189 226.696 188.736 226.93 188.544 227.23C188.352 227.53 188.256 227.872 188.256 228.256C188.256 228.568 188.334 228.862 188.49 229.138C188.646 229.402 188.88 229.618 189.192 229.786C189.504 229.954 189.882 230.038 190.326 230.038ZM200.149 232.216C199.213 232.216 198.343 232.09 197.539 231.838C196.747 231.586 196.075 231.226 195.523 230.758L196.927 228.616C197.335 228.976 197.833 229.258 198.421 229.462C199.021 229.666 199.657 229.768 200.329 229.768C201.193 229.768 201.859 229.606 202.327 229.282C202.795 228.958 203.029 228.508 203.029 227.932C203.029 227.488 202.843 227.14 202.471 226.888C202.099 226.624 201.469 226.492 200.581 226.492H197.161L199.213 219.4H206.917L206.431 221.74H199.789L201.589 220.408L200.113 225.466L198.853 224.134H201.265C202.837 224.134 204.013 224.44 204.793 225.052C205.585 225.664 205.981 226.51 205.981 227.59C205.981 228.526 205.729 229.342 205.225 230.038C204.733 230.734 204.049 231.274 203.173 231.658C202.297 232.03 201.289 232.216 200.149 232.216ZM113.382 272.18C112.422 272.18 111.587 271.98 110.877 271.58C110.177 271.18 109.637 270.595 109.257 269.825C108.877 269.055 108.687 268.105 108.687 266.975C108.687 265.765 108.912 264.74 109.362 263.9C109.822 263.06 110.452 262.42 111.252 261.98C112.062 261.54 112.992 261.32 114.042 261.32C114.602 261.32 115.137 261.38 115.647 261.5C116.157 261.62 116.597 261.8 116.967 262.04L116.067 263.825C115.777 263.625 115.467 263.49 115.137 263.42C114.807 263.34 114.462 263.3 114.102 263.3C113.192 263.3 112.472 263.575 111.942 264.125C111.412 264.675 111.147 265.49 111.147 266.57C111.147 266.75 111.147 266.95 111.147 267.17C111.157 267.39 111.187 267.61 111.237 267.83L110.562 267.2C110.752 266.81 110.997 266.485 111.297 266.225C111.597 265.955 111.952 265.755 112.362 265.625C112.782 265.485 113.242 265.415 113.742 265.415C114.422 265.415 115.032 265.55 115.572 265.82C116.112 266.09 116.542 266.47 116.862 266.96C117.192 267.45 117.357 268.025 117.357 268.685C117.357 269.395 117.177 270.015 116.817 270.545C116.467 271.065 115.992 271.47 115.392 271.76C114.802 272.04 114.132 272.18 113.382 272.18ZM113.247 270.365C113.587 270.365 113.887 270.305 114.147 270.185C114.417 270.055 114.627 269.87 114.777 269.63C114.927 269.39 115.002 269.115 115.002 268.805C115.002 268.325 114.837 267.945 114.507 267.665C114.187 267.375 113.757 267.23 113.217 267.23C112.857 267.23 112.542 267.3 112.272 267.44C112.002 267.57 111.787 267.755 111.627 267.995C111.477 268.225 111.402 268.495 111.402 268.805C111.402 269.105 111.477 269.375 111.627 269.615C111.777 269.845 111.987 270.03 112.257 270.17C112.527 270.3 112.857 270.365 113.247 270.365ZM117.652 268.505V267.05H125.152V268.505H117.652ZM127.357 272V262.4L128.407 263.45H125.257V261.5H129.787V272H127.357ZM131.521 272V270.425L135.571 266.6C135.891 266.31 136.126 266.05 136.276 265.82C136.426 265.59 136.526 265.38 136.576 265.19C136.636 265 136.666 264.825 136.666 264.665C136.666 264.245 136.521 263.925 136.231 263.705C135.951 263.475 135.536 263.36 134.986 263.36C134.546 263.36 134.136 263.445 133.756 263.615C133.386 263.785 133.071 264.05 132.811 264.41L131.041 263.27C131.441 262.67 132.001 262.195 132.721 261.845C133.441 261.495 134.271 261.32 135.211 261.32C135.991 261.32 136.671 261.45 137.251 261.71C137.841 261.96 138.296 262.315 138.616 262.775C138.946 263.235 139.111 263.785 139.111 264.425C139.111 264.765 139.066 265.105 138.976 265.445C138.896 265.775 138.726 266.125 138.466 266.495C138.216 266.865 137.846 267.28 137.356 267.74L133.996 270.905L133.531 270.02H139.456V272H131.521ZM142.121 272L149.291 261.5H151.076L143.906 272H142.121ZM143.036 267.17C142.526 267.17 142.076 267.055 141.686 266.825C141.296 266.585 140.986 266.25 140.756 265.82C140.536 265.38 140.426 264.865 140.426 264.275C140.426 263.685 140.536 263.175 140.756 262.745C140.986 262.315 141.296 261.98 141.686 261.74C142.076 261.5 142.526 261.38 143.036 261.38C143.546 261.38 143.996 261.5 144.386 261.74C144.776 261.98 145.081 262.315 145.301 262.745C145.521 263.175 145.631 263.685 145.631 264.275C145.631 264.865 145.521 265.38 145.301 265.82C145.081 266.25 144.776 266.585 144.386 266.825C143.996 267.055 143.546 267.17 143.036 267.17ZM143.036 265.94C143.366 265.94 143.631 265.805 143.831 265.535C144.031 265.255 144.131 264.835 144.131 264.275C144.131 263.715 144.031 263.3 143.831 263.03C143.631 262.75 143.366 262.61 143.036 262.61C142.716 262.61 142.451 262.75 142.241 263.03C142.041 263.3 141.941 263.715 141.941 264.275C141.941 264.825 142.041 265.24 142.241 265.52C142.451 265.8 142.716 265.94 143.036 265.94ZM150.161 272.12C149.661 272.12 149.211 272.005 148.811 271.775C148.421 271.535 148.116 271.2 147.896 270.77C147.676 270.33 147.566 269.815 147.566 269.225C147.566 268.635 147.676 268.125 147.896 267.695C148.116 267.265 148.421 266.93 148.811 266.69C149.211 266.45 149.661 266.33 150.161 266.33C150.681 266.33 151.136 266.45 151.526 266.69C151.916 266.93 152.221 267.265 152.441 267.695C152.661 268.125 152.771 268.635 152.771 269.225C152.771 269.815 152.661 270.33 152.441 270.77C152.221 271.2 151.916 271.535 151.526 271.775C151.136 272.005 150.681 272.12 150.161 272.12ZM150.161 270.89C150.491 270.89 150.756 270.755 150.956 270.485C151.156 270.205 151.256 269.785 151.256 269.225C151.256 268.675 151.156 268.26 150.956 267.98C150.756 267.7 150.491 267.56 150.161 267.56C149.841 267.56 149.576 267.7 149.366 267.98C149.166 268.25 149.066 268.665 149.066 269.225C149.066 269.785 149.166 270.205 149.366 270.485C149.576 270.755 149.841 270.89 150.161 270.89ZM162.328 272.12C161.468 272.12 160.703 271.94 160.033 271.58C159.373 271.22 158.848 270.73 158.458 270.11C158.078 269.48 157.888 268.765 157.888 267.965C157.888 267.155 158.078 266.44 158.458 265.82C158.848 265.19 159.373 264.7 160.033 264.35C160.703 263.99 161.468 263.81 162.328 263.81C163.178 263.81 163.938 263.99 164.608 264.35C165.278 264.7 165.803 265.185 166.183 265.805C166.563 266.425 166.753 267.145 166.753 267.965C166.753 268.765 166.563 269.48 166.183 270.11C165.803 270.73 165.278 271.22 164.608 271.58C163.938 271.94 163.178 272.12 162.328 272.12ZM162.328 270.2C162.718 270.2 163.068 270.11 163.378 269.93C163.688 269.75 163.933 269.495 164.113 269.165C164.293 268.825 164.383 268.425 164.383 267.965C164.383 267.495 164.293 267.095 164.113 266.765C163.933 266.435 163.688 266.18 163.378 266C163.068 265.82 162.718 265.73 162.328 265.73C161.938 265.73 161.588 265.82 161.278 266C160.968 266.18 160.718 266.435 160.528 266.765C160.348 267.095 160.258 267.495 160.258 267.965C160.258 268.425 160.348 268.825 160.528 269.165C160.718 269.495 160.968 269.75 161.278 269.93C161.588 270.11 161.938 270.2 162.328 270.2ZM169.794 272V265.31L170.319 265.85H167.064V263.93H174.849V265.85H171.594L172.119 265.31V272H169.794ZM179.085 272L183.765 261.5H186.165L190.86 272H188.31L184.47 262.73H185.43L181.575 272H179.085ZM181.425 269.75L182.07 267.905H187.47L188.13 269.75H181.425ZM191.949 272V261.5H196.494C197.434 261.5 198.244 261.655 198.924 261.965C199.604 262.265 200.129 262.7 200.499 263.27C200.869 263.84 201.054 264.52 201.054 265.31C201.054 266.09 200.869 266.765 200.499 267.335C200.129 267.905 199.604 268.345 198.924 268.655C198.244 268.955 197.434 269.105 196.494 269.105H193.299L194.379 268.01V272H191.949ZM194.379 268.28L193.299 267.125H196.359C197.109 267.125 197.669 266.965 198.039 266.645C198.409 266.325 198.594 265.88 198.594 265.31C198.594 264.73 198.409 264.28 198.039 263.96C197.669 263.64 197.109 263.48 196.359 263.48H193.299L194.379 262.325V268.28ZM209.358 272V263.48H205.998V261.5H215.148V263.48H211.788V272H209.358ZM216.456 272V261.5H221.001C221.941 261.5 222.751 261.655 223.431 261.965C224.111 262.265 224.636 262.7 225.006 263.27C225.376 263.84 225.561 264.52 225.561 265.31C225.561 266.09 225.376 266.765 225.006 267.335C224.636 267.905 224.111 268.345 223.431 268.655C222.751 268.955 221.941 269.105 221.001 269.105H217.806L218.886 268.01V272H216.456ZM218.886 268.28L217.806 267.125H220.866C221.616 267.125 222.176 266.965 222.546 266.645C222.916 266.325 223.101 265.88 223.101 265.31C223.101 264.73 222.916 264.28 222.546 263.96C222.176 263.64 221.616 263.48 220.866 263.48H217.806L218.886 262.325V268.28ZM225.388 272L230.068 261.5H232.468L237.163 272H234.613L230.773 262.73H231.733L227.878 272H225.388ZM227.728 269.75L228.373 267.905H233.773L234.433 269.75H227.728ZM241.328 266.6L240.713 265.85H242.678V267.095H238.103V265.85H240.263L239.648 266.6V261.44L240.368 262.115H238.238V260.87H241.328V266.6ZM243.633 265.835V264.785L246.468 260.87H248.253L245.403 264.785L244.638 264.56H249.618V265.835H243.633ZM247.008 267.095V265.835L247.173 264.56V263.51H248.613V267.095H247.008ZM133.096 312V310.425L137.146 306.6C137.466 306.31 137.701 306.05 137.851 305.82C138.001 305.59 138.101 305.38 138.151 305.19C138.211 305 138.241 304.825 138.241 304.665C138.241 304.245 138.096 303.925 137.806 303.705C137.526 303.475 137.111 303.36 136.561 303.36C136.121 303.36 135.711 303.445 135.331 303.615C134.961 303.785 134.646 304.05 134.386 304.41L132.616 303.27C133.016 302.67 133.576 302.195 134.296 301.845C135.016 301.495 135.846 301.32 136.786 301.32C137.566 301.32 138.246 301.45 138.826 301.71C139.416 301.96 139.871 302.315 140.191 302.775C140.521 303.235 140.686 303.785 140.686 304.425C140.686 304.765 140.641 305.105 140.551 305.445C140.471 305.775 140.301 306.125 140.041 306.495C139.791 306.865 139.421 307.28 138.931 307.74L135.571 310.905L135.106 310.02H141.031V312H133.096ZM143.695 312L150.865 301.5H152.65L145.48 312H143.695ZM144.61 307.17C144.1 307.17 143.65 307.055 143.26 306.825C142.87 306.585 142.56 306.25 142.33 305.82C142.11 305.38 142 304.865 142 304.275C142 303.685 142.11 303.175 142.33 302.745C142.56 302.315 142.87 301.98 143.26 301.74C143.65 301.5 144.1 301.38 144.61 301.38C145.12 301.38 145.57 301.5 145.96 301.74C146.35 301.98 146.655 302.315 146.875 302.745C147.095 303.175 147.205 303.685 147.205 304.275C147.205 304.865 147.095 305.38 146.875 305.82C146.655 306.25 146.35 306.585 145.96 306.825C145.57 307.055 145.12 307.17 144.61 307.17ZM144.61 305.94C144.94 305.94 145.205 305.805 145.405 305.535C145.605 305.255 145.705 304.835 145.705 304.275C145.705 303.715 145.605 303.3 145.405 303.03C145.205 302.75 144.94 302.61 144.61 302.61C144.29 302.61 144.025 302.75 143.815 303.03C143.615 303.3 143.515 303.715 143.515 304.275C143.515 304.825 143.615 305.24 143.815 305.52C144.025 305.8 144.29 305.94 144.61 305.94ZM151.735 312.12C151.235 312.12 150.785 312.005 150.385 311.775C149.995 311.535 149.69 311.2 149.47 310.77C149.25 310.33 149.14 309.815 149.14 309.225C149.14 308.635 149.25 308.125 149.47 307.695C149.69 307.265 149.995 306.93 150.385 306.69C150.785 306.45 151.235 306.33 151.735 306.33C152.255 306.33 152.71 306.45 153.1 306.69C153.49 306.93 153.795 307.265 154.015 307.695C154.235 308.125 154.345 308.635 154.345 309.225C154.345 309.815 154.235 310.33 154.015 310.77C153.795 311.2 153.49 311.535 153.1 311.775C152.71 312.005 152.255 312.12 151.735 312.12ZM151.735 310.89C152.065 310.89 152.33 310.755 152.53 310.485C152.73 310.205 152.83 309.785 152.83 309.225C152.83 308.675 152.73 308.26 152.53 307.98C152.33 307.7 152.065 307.56 151.735 307.56C151.415 307.56 151.15 307.7 150.94 307.98C150.74 308.25 150.64 308.665 150.64 309.225C150.64 309.785 150.74 310.205 150.94 310.485C151.15 310.755 151.415 310.89 151.735 310.89ZM163.903 312.12C163.043 312.12 162.278 311.94 161.608 311.58C160.948 311.22 160.423 310.73 160.033 310.11C159.653 309.48 159.463 308.765 159.463 307.965C159.463 307.155 159.653 306.44 160.033 305.82C160.423 305.19 160.948 304.7 161.608 304.35C162.278 303.99 163.043 303.81 163.903 303.81C164.753 303.81 165.513 303.99 166.183 304.35C166.853 304.7 167.378 305.185 167.758 305.805C168.138 306.425 168.328 307.145 168.328 307.965C168.328 308.765 168.138 309.48 167.758 310.11C167.378 310.73 166.853 311.22 166.183 311.58C165.513 311.94 164.753 312.12 163.903 312.12ZM163.903 310.2C164.293 310.2 164.643 310.11 164.953 309.93C165.263 309.75 165.508 309.495 165.688 309.165C165.868 308.825 165.958 308.425 165.958 307.965C165.958 307.495 165.868 307.095 165.688 306.765C165.508 306.435 165.263 306.18 164.953 306C164.643 305.82 164.293 305.73 163.903 305.73C163.513 305.73 163.163 305.82 162.853 306C162.543 306.18 162.293 306.435 162.103 306.765C161.923 307.095 161.833 307.495 161.833 307.965C161.833 308.425 161.923 308.825 162.103 309.165C162.293 309.495 162.543 309.75 162.853 309.93C163.163 310.11 163.513 310.2 163.903 310.2ZM171.369 312V305.31L171.894 305.85H168.639V303.93H176.424V305.85H173.169L173.694 305.31V312H171.369ZM184.364 312V302.925L184.919 303.48H181.019V301.5H190.124V303.48H186.224L186.764 302.925V312H184.364ZM191.65 312V301.5H196.195C197.135 301.5 197.945 301.655 198.625 301.965C199.305 302.265 199.83 302.7 200.2 303.27C200.57 303.84 200.755 304.52 200.755 305.31C200.755 306.09 200.57 306.765 200.2 307.335C199.83 307.905 199.305 308.345 198.625 308.655C197.945 308.955 197.135 309.105 196.195 309.105H193L194.08 308.01V312H191.65ZM194.08 308.28L193 307.125H196.06C196.81 307.125 197.37 306.965 197.74 306.645C198.11 306.325 198.295 305.88 198.295 305.31C198.295 304.73 198.11 304.28 197.74 303.96C197.37 303.64 196.81 303.48 196.06 303.48H193L194.08 302.325V308.28ZM200.646 312L205.326 301.5H207.726L212.421 312H209.871L206.031 302.73H206.991L203.136 312H200.646ZM202.986 309.75L203.631 307.905H209.031L209.691 309.75H202.986ZM216.828 306.6L216.213 305.85H218.178V307.095H213.603V305.85H215.763L215.148 306.6V301.44L215.868 302.115H213.738V300.87H216.828V306.6ZM219.134 305.835V304.785L221.969 300.87H223.754L220.904 304.785L220.139 304.56H225.119V305.835H219.134ZM222.509 307.095V305.835L222.674 304.56V303.51H224.114V307.095H222.509Z" fill="#3579A2"/>
<path d="M39.4361 416.729C38.9461 416.729 38.5121 416.638 38.1341 416.456C37.7561 416.274 37.4131 416.064 37.1051 415.826C36.7971 415.588 36.5101 415.378 36.2441 415.196C35.9781 415 35.7051 414.902 35.4251 414.902C35.0471 414.902 34.7391 415.049 34.5011 415.343C34.2771 415.637 34.1511 416.036 34.1231 416.54H32.0861C32.1141 415.21 32.4151 414.209 32.9891 413.537C33.5771 412.865 34.3261 412.529 35.2361 412.529C35.7261 412.529 36.1601 412.627 36.5381 412.823C36.9161 413.005 37.2521 413.215 37.5461 413.453C37.8541 413.677 38.1411 413.887 38.4071 414.083C38.6731 414.265 38.9461 414.356 39.2261 414.356C39.6181 414.356 39.9261 414.209 40.1501 413.915C40.3881 413.621 40.5141 413.222 40.5281 412.718H42.5861C42.5581 414.034 42.2501 415.035 41.6621 415.721C41.0881 416.393 40.3461 416.729 39.4361 416.729ZM55.3717 422.252C54.3497 422.252 53.3347 422.119 52.3267 421.853C51.3327 421.573 50.4787 421.181 49.7647 420.677L51.1087 418.073C51.6687 418.479 52.3127 418.801 53.0407 419.039C53.7827 419.277 54.5317 419.396 55.2877 419.396C56.1417 419.396 56.8137 419.228 57.3037 418.892C57.7937 418.556 58.0387 418.087 58.0387 417.485C58.0387 417.107 57.9407 416.771 57.7447 416.477C57.5487 416.183 57.1987 415.959 56.6947 415.805C56.2047 415.651 55.5117 415.574 54.6157 415.574H50.8567L51.6127 407.3H60.5797V410.03H52.8307L54.5947 408.476L54.0697 414.377L52.3057 412.823H55.4137C56.8697 412.823 58.0387 413.026 58.9207 413.432C59.8167 413.824 60.4677 414.363 60.8737 415.049C61.2797 415.735 61.4827 416.512 61.4827 417.38C61.4827 418.248 61.2657 419.053 60.8317 419.795C60.3977 420.523 59.7257 421.118 58.8157 421.58C57.9197 422.028 56.7717 422.252 55.3717 422.252ZM67.7584 422.252C66.7364 422.252 65.7214 422.119 64.7134 421.853C63.7194 421.573 62.8654 421.181 62.1514 420.677L63.4954 418.073C64.0554 418.479 64.6994 418.801 65.4274 419.039C66.1694 419.277 66.9184 419.396 67.6744 419.396C68.5284 419.396 69.2004 419.228 69.6904 418.892C70.1804 418.556 70.4254 418.087 70.4254 417.485C70.4254 417.107 70.3274 416.771 70.1314 416.477C69.9354 416.183 69.5854 415.959 69.0814 415.805C68.5914 415.651 67.8984 415.574 67.0024 415.574H63.2434L63.9994 407.3H72.9664V410.03H65.2174L66.9814 408.476L66.4564 414.377L64.6924 412.823H67.8004C69.2564 412.823 70.4254 413.026 71.3074 413.432C72.2034 413.824 72.8544 414.363 73.2604 415.049C73.6664 415.735 73.8694 416.512 73.8694 417.38C73.8694 418.248 73.6524 419.053 73.2184 419.795C72.7844 420.523 72.1124 421.118 71.2024 421.58C70.3064 422.028 69.1584 422.252 67.7584 422.252ZM77.5177 422V408.56L78.9877 410.03H74.5777V407.3H80.9197V422H77.5177ZM82.6543 417.107V415.07H93.1543V417.107H82.6543ZM96.2413 422V408.56L97.7113 410.03H93.3013V407.3H99.6433V422H96.2413ZM106.964 422.252C105.942 422.252 104.927 422.119 103.919 421.853C102.911 421.573 102.057 421.181 101.357 420.677L102.68 418.073C103.24 418.479 103.891 418.801 104.633 419.039C105.375 419.277 106.124 419.396 106.88 419.396C107.734 419.396 108.406 419.228 108.896 418.892C109.386 418.556 109.631 418.094 109.631 417.506C109.631 416.946 109.414 416.505 108.98 416.183C108.546 415.861 107.846 415.7 106.88 415.7H105.326V413.453L109.421 408.812L109.799 410.03H102.092V407.3H112.382V409.505L108.308 414.146L106.586 413.159H107.573C109.379 413.159 110.744 413.565 111.668 414.377C112.592 415.189 113.054 416.232 113.054 417.506C113.054 418.332 112.837 419.109 112.403 419.837C111.969 420.551 111.304 421.132 110.408 421.58C109.512 422.028 108.364 422.252 106.964 422.252ZM114.396 422V419.795L120.066 414.44C120.514 414.034 120.843 413.67 121.053 413.348C121.263 413.026 121.403 412.732 121.473 412.466C121.557 412.2 121.599 411.955 121.599 411.731C121.599 411.143 121.396 410.695 120.99 410.387C120.598 410.065 120.017 409.904 119.247 409.904C118.631 409.904 118.057 410.023 117.525 410.261C117.007 410.499 116.566 410.87 116.202 411.374L113.724 409.778C114.284 408.938 115.068 408.273 116.076 407.783C117.084 407.293 118.246 407.048 119.562 407.048C120.654 407.048 121.606 407.23 122.418 407.594C123.244 407.944 123.881 408.441 124.329 409.085C124.791 409.729 125.022 410.499 125.022 411.395C125.022 411.871 124.959 412.347 124.833 412.823C124.721 413.285 124.483 413.775 124.119 414.293C123.769 414.811 123.251 415.392 122.565 416.036L117.861 420.467L117.21 419.228H125.505V422H114.396ZM131.676 422.252C130.654 422.252 129.639 422.119 128.631 421.853C127.623 421.573 126.769 421.181 126.069 420.677L127.392 418.073C127.952 418.479 128.603 418.801 129.345 419.039C130.087 419.277 130.836 419.396 131.592 419.396C132.446 419.396 133.118 419.228 133.608 418.892C134.098 418.556 134.343 418.094 134.343 417.506C134.343 416.946 134.126 416.505 133.692 416.183C133.258 415.861 132.558 415.7 131.592 415.7H130.038V413.453L134.133 408.812L134.511 410.03H126.804V407.3H137.094V409.505L133.02 414.146L131.298 413.159H132.285C134.091 413.159 135.456 413.565 136.38 414.377C137.304 415.189 137.766 416.232 137.766 417.506C137.766 418.332 137.549 419.109 137.115 419.837C136.681 420.551 136.016 421.132 135.12 421.58C134.224 422.028 133.076 422.252 131.676 422.252ZM146.04 422V410.702H157.275V422H153.999V412.655L154.734 413.39H148.56L149.295 412.655V422H146.04ZM167.178 422V419.795L166.968 419.312V415.364C166.968 414.664 166.751 414.118 166.317 413.726C165.897 413.334 165.246 413.138 164.364 413.138C163.762 413.138 163.167 413.236 162.579 413.432C162.005 413.614 161.515 413.866 161.109 414.188L159.933 411.899C160.549 411.465 161.291 411.129 162.159 410.891C163.027 410.653 163.909 410.534 164.805 410.534C166.527 410.534 167.864 410.94 168.816 411.752C169.768 412.564 170.244 413.831 170.244 415.553V422H167.178ZM163.734 422.168C162.852 422.168 162.096 422.021 161.466 421.727C160.836 421.419 160.353 421.006 160.017 420.488C159.681 419.97 159.513 419.389 159.513 418.745C159.513 418.073 159.674 417.485 159.996 416.981C160.332 416.477 160.857 416.085 161.571 415.805C162.285 415.511 163.216 415.364 164.364 415.364H167.367V417.275H164.721C163.951 417.275 163.419 417.401 163.125 417.653C162.845 417.905 162.705 418.22 162.705 418.598C162.705 419.018 162.866 419.354 163.188 419.606C163.524 419.844 163.979 419.963 164.553 419.963C165.099 419.963 165.589 419.837 166.023 419.585C166.457 419.319 166.772 418.934 166.968 418.43L167.472 419.942C167.234 420.67 166.8 421.223 166.17 421.601C165.54 421.979 164.728 422.168 163.734 422.168ZM173.09 422V410.702H176.345V419.312H180.902V410.702H184.178V422H173.09ZM182.771 424.436V421.958L183.527 422H180.902V419.312H185.816V424.436H182.771ZM187.876 422V410.702H191.131V417.422L196.633 410.702H199.636V422H196.381V415.28L190.9 422H187.876ZM208.308 422.168C207.02 422.168 205.886 421.916 204.906 421.412C203.94 420.908 203.191 420.222 202.659 419.354C202.127 418.472 201.861 417.471 201.861 416.351C201.861 415.217 202.12 414.216 202.638 413.348C203.17 412.466 203.891 411.78 204.801 411.29C205.711 410.786 206.74 410.534 207.888 410.534C208.994 410.534 209.988 410.772 210.87 411.248C211.766 411.71 212.473 412.382 212.991 413.264C213.509 414.132 213.768 415.175 213.768 416.393C213.768 416.519 213.761 416.666 213.747 416.834C213.733 416.988 213.719 417.135 213.705 417.275H204.528V415.364H211.983L210.723 415.931C210.723 415.343 210.604 414.832 210.366 414.398C210.128 413.964 209.799 413.628 209.379 413.39C208.959 413.138 208.469 413.012 207.909 413.012C207.349 413.012 206.852 413.138 206.418 413.39C205.998 413.628 205.669 413.971 205.431 414.419C205.193 414.853 205.074 415.371 205.074 415.973V416.477C205.074 417.093 205.207 417.639 205.473 418.115C205.753 418.577 206.138 418.934 206.628 419.186C207.132 419.424 207.72 419.543 208.392 419.543C208.994 419.543 209.519 419.452 209.967 419.27C210.429 419.088 210.849 418.815 211.227 418.451L212.97 420.341C212.452 420.929 211.801 421.384 211.017 421.706C210.233 422.014 209.33 422.168 208.308 422.168ZM216.279 422V410.702H219.534V415.112H224.448V410.702H227.724V422H224.448V417.779H219.534V422H216.279ZM233.275 422V412.634L234.01 413.39H229.453V410.702H240.352V413.39H235.795L236.53 412.634V422H233.275ZM246.919 422.168C245.715 422.168 244.644 421.916 243.706 421.412C242.782 420.908 242.047 420.222 241.501 419.354C240.969 418.472 240.703 417.471 240.703 416.351C240.703 415.217 240.969 414.216 241.501 413.348C242.047 412.466 242.782 411.78 243.706 411.29C244.644 410.786 245.715 410.534 246.919 410.534C248.109 410.534 249.173 410.786 250.111 411.29C251.049 411.78 251.784 412.459 252.316 413.327C252.848 414.195 253.114 415.203 253.114 416.351C253.114 417.471 252.848 418.472 252.316 419.354C251.784 420.222 251.049 420.908 250.111 421.412C249.173 421.916 248.109 422.168 246.919 422.168ZM246.919 419.48C247.465 419.48 247.955 419.354 248.389 419.102C248.823 418.85 249.166 418.493 249.418 418.031C249.67 417.555 249.796 416.995 249.796 416.351C249.796 415.693 249.67 415.133 249.418 414.671C249.166 414.209 248.823 413.852 248.389 413.6C247.955 413.348 247.465 413.222 246.919 413.222C246.373 413.222 245.883 413.348 245.449 413.6C245.015 413.852 244.665 414.209 244.399 414.671C244.147 415.133 244.021 415.693 244.021 416.351C244.021 416.995 244.147 417.555 244.399 418.031C244.665 418.493 245.015 418.85 245.449 419.102C245.883 419.354 246.373 419.48 246.919 419.48ZM255.367 422V410.702H261.142C262.556 410.702 263.662 410.961 264.46 411.479C265.258 411.983 265.657 412.697 265.657 413.621C265.657 414.545 265.279 415.273 264.523 415.805C263.781 416.323 262.794 416.582 261.562 416.582L261.898 415.826C263.27 415.826 264.292 416.078 264.964 416.582C265.65 417.086 265.993 417.821 265.993 418.787C265.993 419.781 265.615 420.565 264.859 421.139C264.103 421.713 262.948 422 261.394 422H255.367ZM258.37 419.774H261.121C261.723 419.774 262.171 419.676 262.465 419.48C262.773 419.27 262.927 418.955 262.927 418.535C262.927 418.101 262.787 417.786 262.507 417.59C262.227 417.38 261.786 417.275 261.184 417.275H258.37V419.774ZM258.37 415.343H260.848C261.422 415.343 261.849 415.238 262.129 415.028C262.423 414.818 262.57 414.517 262.57 414.125C262.57 413.719 262.423 413.418 262.129 413.222C261.849 413.026 261.422 412.928 260.848 412.928H258.37V415.343ZM274.378 422V410.702H280.153C281.567 410.702 282.673 410.961 283.471 411.479C284.269 411.983 284.668 412.697 284.668 413.621C284.668 414.545 284.29 415.273 283.534 415.805C282.792 416.323 281.805 416.582 280.573 416.582L280.909 415.826C282.281 415.826 283.303 416.078 283.975 416.582C284.661 417.086 285.004 417.821 285.004 418.787C285.004 419.781 284.626 420.565 283.87 421.139C283.114 421.713 281.959 422 280.405 422H274.378ZM277.381 419.774H280.132C280.734 419.774 281.182 419.676 281.476 419.48C281.784 419.27 281.938 418.955 281.938 418.535C281.938 418.101 281.798 417.786 281.518 417.59C281.238 417.38 280.797 417.275 280.195 417.275H277.381V419.774ZM277.381 415.343H279.859C280.433 415.343 280.86 415.238 281.14 415.028C281.434 414.818 281.581 414.517 281.581 414.125C281.581 413.719 281.434 413.418 281.14 413.222C280.86 413.026 280.433 412.928 279.859 412.928H277.381V415.343ZM293.64 422V407.3H300.003C301.319 407.3 302.453 407.517 303.405 407.951C304.357 408.371 305.092 408.98 305.61 409.778C306.128 410.576 306.387 411.528 306.387 412.634C306.387 413.726 306.128 414.671 305.61 415.469C305.092 416.267 304.357 416.883 303.405 417.317C302.453 417.737 301.319 417.947 300.003 417.947H295.53L297.042 416.414V422H293.64ZM297.042 416.792L295.53 415.175H299.814C300.864 415.175 301.648 414.951 302.166 414.503C302.684 414.055 302.943 413.432 302.943 412.634C302.943 411.822 302.684 411.192 302.166 410.744C301.648 410.296 300.864 410.072 299.814 410.072H295.53L297.042 408.455V416.792ZM316.607 421.076C314.703 421.076 313.086 420.824 311.756 420.32C310.44 419.816 309.439 419.088 308.753 418.136C308.067 417.17 307.724 415.994 307.724 414.608C307.724 413.222 308.067 412.053 308.753 411.101C309.439 410.135 310.44 409.4 311.756 408.896C313.086 408.392 314.703 408.14 316.607 408.14C316.635 408.14 316.712 408.14 316.838 408.14C316.978 408.14 317.111 408.14 317.237 408.14C317.377 408.14 317.454 408.14 317.468 408.14C319.358 408.14 320.954 408.392 322.256 408.896C323.572 409.4 324.566 410.135 325.238 411.101C325.91 412.067 326.246 413.236 326.246 414.608C326.246 415.966 325.91 417.135 325.238 418.115C324.58 419.081 323.607 419.816 322.319 420.32C321.045 420.824 319.484 421.076 317.636 421.076C317.594 421.076 317.496 421.076 317.342 421.076C317.188 421.076 317.034 421.076 316.88 421.076C316.74 421.076 316.649 421.076 316.607 421.076ZM316.922 418.451C316.964 418.451 317.02 418.451 317.09 418.451C317.16 418.451 317.209 418.451 317.237 418.451C318.525 418.451 319.589 418.311 320.429 418.031C321.283 417.737 321.92 417.31 322.34 416.75C322.76 416.176 322.97 415.455 322.97 414.587C322.97 413.719 322.753 413.005 322.319 412.445C321.885 411.885 321.248 411.472 320.408 411.206C319.582 410.926 318.539 410.786 317.279 410.786C317.251 410.786 317.195 410.786 317.111 410.786C317.041 410.786 316.978 410.786 316.922 410.786C315.592 410.786 314.493 410.919 313.625 411.185C312.757 411.451 312.106 411.871 311.672 412.445C311.238 413.005 311.021 413.726 311.021 414.608C311.021 415.49 311.252 416.218 311.714 416.792C312.176 417.352 312.841 417.772 313.709 418.052C314.591 418.318 315.662 418.451 316.922 418.451ZM315.431 422.651V406.67H318.56V422.651H315.431Z" fill="#3579A2"/>
</svg>
