<svg width="366" height="449" viewBox="0 0 366 449" fill="none" xmlns="http://www.w3.org/2000/svg">
<path d="M366 182C366 282.517 284.069 364 183 364C81.9308 364 0 282.517 0 182C0 81.4831 81.9308 0 183 0C284.069 0 366 81.4831 366 182Z" fill="#3579A2"/>
<g opacity="0.29">
<path d="M307.501 239.624C307.501 308.158 251.486 363.716 182.388 363.716C113.29 363.716 57.2749 308.158 57.2749 239.624C57.2749 171.09 113.29 115.533 182.388 115.533C251.486 115.533 307.501 171.09 307.501 239.624Z" fill="white"/>
</g>
<path d="M109.073 77L114.065 65.8H116.625L121.633 77H118.913L114.817 67.112H115.841L111.729 77H109.073ZM111.569 74.6L112.257 72.632H118.017L118.721 74.6H111.569ZM122.927 77V68.392H125.535L128.783 74.28H127.743L131.215 68.392H133.551L133.583 77H131.327V70.952L131.711 71.208L128.751 76.168H127.695L124.719 71.032L125.183 70.92V77H122.927ZM141.125 77V75.32L140.965 74.952V71.944C140.965 71.4107 140.8 70.9947 140.469 70.696C140.149 70.3973 139.653 70.248 138.981 70.248C138.523 70.248 138.069 70.3227 137.621 70.472C137.184 70.6107 136.811 70.8027 136.501 71.048L135.605 69.304C136.075 68.9733 136.64 68.7173 137.301 68.536C137.963 68.3547 138.635 68.264 139.317 68.264C140.629 68.264 141.648 68.5733 142.373 69.192C143.099 69.8107 143.461 70.776 143.461 72.088V77H141.125ZM138.501 77.128C137.829 77.128 137.253 77.016 136.773 76.792C136.293 76.5573 135.925 76.2427 135.669 75.848C135.413 75.4533 135.285 75.0107 135.285 74.52C135.285 74.008 135.408 73.56 135.653 73.176C135.909 72.792 136.309 72.4933 136.853 72.28C137.397 72.056 138.107 71.944 138.981 71.944H141.269V73.4H139.253C138.667 73.4 138.261 73.496 138.037 73.688C137.824 73.88 137.717 74.12 137.717 74.408C137.717 74.728 137.84 74.984 138.085 75.176C138.341 75.3573 138.688 75.448 139.125 75.448C139.541 75.448 139.915 75.352 140.245 75.16C140.576 74.9573 140.816 74.664 140.965 74.28L141.349 75.432C141.168 75.9867 140.837 76.408 140.357 76.696C139.877 76.984 139.259 77.128 138.501 77.128ZM145.63 77V68.392H150.03C151.107 68.392 151.95 68.5893 152.558 68.984C153.166 69.368 153.47 69.912 153.47 70.616C153.47 71.32 153.182 71.8747 152.606 72.28C152.04 72.6747 151.288 72.872 150.35 72.872L150.606 72.296C151.651 72.296 152.43 72.488 152.942 72.872C153.464 73.256 153.726 73.816 153.726 74.552C153.726 75.3093 153.438 75.9067 152.862 76.344C152.286 76.7813 151.406 77 150.222 77H145.63ZM147.918 75.304H150.014C150.472 75.304 150.814 75.2293 151.038 75.08C151.272 74.92 151.39 74.68 151.39 74.36C151.39 74.0293 151.283 73.7893 151.07 73.64C150.856 73.48 150.52 73.4 150.062 73.4H147.918V75.304ZM147.918 71.928H149.806C150.243 71.928 150.568 71.848 150.782 71.688C151.006 71.528 151.118 71.2987 151.118 71C151.118 70.6907 151.006 70.4613 150.782 70.312C150.568 70.1627 150.243 70.088 149.806 70.088H147.918V71.928ZM160.655 77.128C159.929 77.128 159.295 76.968 158.751 76.648C158.207 76.328 157.78 75.8427 157.471 75.192C157.172 74.5307 157.023 73.6987 157.023 72.696C157.023 71.6827 157.167 70.8507 157.455 70.2C157.743 69.5493 158.159 69.064 158.703 68.744C159.247 68.424 159.897 68.264 160.655 68.264C161.465 68.264 162.191 68.4507 162.831 68.824C163.481 69.1867 163.993 69.6987 164.367 70.36C164.751 71.0213 164.943 71.8 164.943 72.696C164.943 73.6027 164.751 74.3867 164.367 75.048C163.993 75.7093 163.481 76.2213 162.831 76.584C162.191 76.9467 161.465 77.128 160.655 77.128ZM155.567 80.104V68.392H157.951V70.152L157.903 72.712L158.063 75.256V80.104H155.567ZM160.223 75.08C160.639 75.08 161.007 74.984 161.327 74.792C161.657 74.6 161.919 74.328 162.111 73.976C162.313 73.6133 162.415 73.1867 162.415 72.696C162.415 72.1947 162.313 71.768 162.111 71.416C161.919 71.064 161.657 70.792 161.327 70.6C161.007 70.408 160.639 70.312 160.223 70.312C159.807 70.312 159.433 70.408 159.103 70.6C158.772 70.792 158.511 71.064 158.319 71.416C158.127 71.768 158.031 72.1947 158.031 72.696C158.031 73.1867 158.127 73.6133 158.319 73.976C158.511 74.328 158.772 74.6 159.103 74.792C159.433 74.984 159.807 75.08 160.223 75.08ZM170.724 77.128C169.807 77.128 168.991 76.936 168.276 76.552C167.572 76.168 167.012 75.6453 166.596 74.984C166.191 74.312 165.988 73.5493 165.988 72.696C165.988 71.832 166.191 71.0693 166.596 70.408C167.012 69.736 167.572 69.2133 168.276 68.84C168.991 68.456 169.807 68.264 170.724 68.264C171.631 68.264 172.442 68.456 173.156 68.84C173.871 69.2133 174.431 69.7307 174.836 70.392C175.242 71.0533 175.444 71.8213 175.444 72.696C175.444 73.5493 175.242 74.312 174.836 74.984C174.431 75.6453 173.871 76.168 173.156 76.552C172.442 76.936 171.631 77.128 170.724 77.128ZM170.724 75.08C171.14 75.08 171.514 74.984 171.844 74.792C172.175 74.6 172.436 74.328 172.628 73.976C172.82 73.6133 172.916 73.1867 172.916 72.696C172.916 72.1947 172.82 71.768 172.628 71.416C172.436 71.064 172.175 70.792 171.844 70.6C171.514 70.408 171.14 70.312 170.724 70.312C170.308 70.312 169.935 70.408 169.604 70.6C169.274 70.792 169.007 71.064 168.804 71.416C168.612 71.768 168.516 72.1947 168.516 72.696C168.516 73.1867 168.612 73.6133 168.804 73.976C169.007 74.328 169.274 74.6 169.604 74.792C169.935 74.984 170.308 75.08 170.724 75.08ZM179.917 77.16C180.727 77.16 181.453 77.0533 182.093 76.84C182.743 76.616 183.255 76.3013 183.629 75.896C184.013 75.48 184.205 74.9947 184.205 74.44C184.205 73.7893 183.933 73.2773 183.389 72.904C182.845 72.52 182.098 72.328 181.149 72.328L181.085 72.824C181.629 72.824 182.119 72.7333 182.557 72.552C182.994 72.36 183.335 72.0987 183.581 71.768C183.837 71.4373 183.965 71.064 183.965 70.648C183.965 70.1253 183.778 69.6827 183.405 69.32C183.042 68.9573 182.541 68.68 181.901 68.488C181.261 68.296 180.541 68.2107 179.741 68.232C179.197 68.2427 178.647 68.3173 178.093 68.456C177.538 68.5947 176.978 68.7813 176.413 69.016L177.021 70.744C177.501 70.552 177.97 70.408 178.429 70.312C178.887 70.2053 179.33 70.152 179.757 70.152C180.13 70.152 180.439 70.1893 180.685 70.264C180.93 70.328 181.117 70.424 181.245 70.552C181.373 70.68 181.437 70.8347 181.437 71.016C181.437 71.1867 181.383 71.336 181.277 71.464C181.181 71.5813 181.031 71.672 180.829 71.736C180.626 71.8 180.381 71.832 180.093 71.832H178.541V73.384H180.301C180.749 73.384 181.09 73.4587 181.325 73.608C181.559 73.7467 181.677 73.9547 181.677 74.232C181.677 74.4453 181.602 74.6267 181.453 74.776C181.303 74.9253 181.085 75.0427 180.797 75.128C180.519 75.2027 180.189 75.24 179.805 75.24C179.271 75.24 178.743 75.1867 178.221 75.08C177.709 74.9627 177.234 74.7973 176.797 74.584L176.125 76.328C176.679 76.6053 177.282 76.8133 177.933 76.952C178.594 77.0907 179.255 77.16 179.917 77.16ZM190.824 77.176C190.632 77.176 190.43 77.16 190.216 77.128C190.014 77.096 189.79 77.0533 189.544 77L189.704 74.808C189.854 74.8507 190.008 74.872 190.168 74.872C190.606 74.872 190.947 74.696 191.192 74.344C191.438 73.9813 191.614 73.464 191.72 72.792C191.827 72.12 191.896 71.304 191.928 70.344L192.088 65.8H200.696V77H198.136V67.32L198.728 67.912H193.784L194.312 67.288L194.216 70.248C194.184 71.3467 194.11 72.3227 193.992 73.176C193.875 74.0293 193.694 74.7547 193.448 75.352C193.203 75.9493 192.867 76.4027 192.44 76.712C192.014 77.0213 191.475 77.176 190.824 77.176ZM207.51 77.128C206.528 77.128 205.664 76.936 204.918 76.552C204.182 76.168 203.611 75.6453 203.206 74.984C202.8 74.312 202.598 73.5493 202.598 72.696C202.598 71.832 202.795 71.0693 203.19 70.408C203.595 69.736 204.144 69.2133 204.838 68.84C205.531 68.456 206.315 68.264 207.19 68.264C208.032 68.264 208.79 68.4453 209.462 68.808C210.144 69.16 210.683 69.672 211.078 70.344C211.472 71.0053 211.67 71.8 211.67 72.728C211.67 72.824 211.664 72.936 211.654 73.064C211.643 73.1813 211.632 73.2933 211.622 73.4H204.63V71.944H210.31L209.35 72.376C209.35 71.928 209.259 71.5387 209.078 71.208C208.896 70.8773 208.646 70.6213 208.326 70.44C208.006 70.248 207.632 70.152 207.206 70.152C206.779 70.152 206.4 70.248 206.07 70.44C205.75 70.6213 205.499 70.8827 205.318 71.224C205.136 71.5547 205.046 71.9493 205.046 72.408V72.792C205.046 73.2613 205.147 73.6773 205.35 74.04C205.563 74.392 205.856 74.664 206.23 74.856C206.614 75.0373 207.062 75.128 207.574 75.128C208.032 75.128 208.432 75.0587 208.774 74.92C209.126 74.7813 209.446 74.5733 209.734 74.296L211.062 75.736C210.667 76.184 210.171 76.5307 209.574 76.776C208.976 77.0107 208.288 77.128 207.51 77.128ZM217.855 77.192C217.151 77.192 216.511 77.0907 215.935 76.888C215.359 76.6747 214.857 76.3493 214.431 75.912C214.015 75.464 213.689 74.8933 213.455 74.2C213.231 73.5067 213.119 72.68 213.119 71.72C213.119 71.0373 213.177 70.4133 213.295 69.848C213.412 69.2827 213.588 68.7707 213.823 68.312C214.057 67.8427 214.356 67.432 214.719 67.08C215.092 66.7173 215.524 66.4187 216.015 66.184C216.516 65.9387 217.081 65.752 217.711 65.624L221.807 64.808L222.143 66.952L218.527 67.672C218.313 67.7147 218.068 67.7733 217.791 67.848C217.524 67.912 217.252 68.0133 216.975 68.152C216.708 68.2907 216.457 68.488 216.223 68.744C215.999 68.9893 215.817 69.3147 215.679 69.72C215.54 70.1147 215.471 70.6053 215.471 71.192C215.471 71.3733 215.476 71.512 215.487 71.608C215.508 71.704 215.524 71.8053 215.535 71.912C215.556 72.0187 215.567 72.184 215.567 72.408L214.767 71.624C215.001 71.1227 215.3 70.696 215.663 70.344C216.036 69.992 216.463 69.7253 216.943 69.544C217.433 69.352 217.977 69.256 218.575 69.256C219.385 69.256 220.095 69.4213 220.703 69.752C221.321 70.072 221.801 70.5253 222.143 71.112C222.484 71.6987 222.655 72.3653 222.655 73.112C222.655 73.9227 222.452 74.6373 222.047 75.256C221.641 75.864 221.076 76.3387 220.351 76.68C219.636 77.0213 218.804 77.192 217.855 77.192ZM217.983 75.256C218.399 75.256 218.767 75.1653 219.087 74.984C219.407 74.792 219.652 74.5413 219.823 74.232C220.004 73.912 220.095 73.5547 220.095 73.16C220.095 72.776 220.004 72.4347 219.823 72.136C219.652 71.8373 219.407 71.6027 219.087 71.432C218.767 71.2613 218.393 71.176 217.967 71.176C217.551 71.176 217.177 71.2613 216.847 71.432C216.516 71.592 216.26 71.816 216.079 72.104C215.897 72.392 215.807 72.728 215.807 73.112C215.807 73.5067 215.897 73.8693 216.079 74.2C216.271 74.52 216.527 74.776 216.847 74.968C217.177 75.16 217.556 75.256 217.983 75.256ZM228.556 77.128C227.575 77.128 226.711 76.936 225.964 76.552C225.228 76.168 224.658 75.6453 224.252 74.984C223.847 74.312 223.644 73.5493 223.644 72.696C223.644 71.832 223.842 71.0693 224.236 70.408C224.642 69.736 225.191 69.2133 225.884 68.84C226.578 68.456 227.362 68.264 228.236 68.264C229.079 68.264 229.836 68.4453 230.508 68.808C231.191 69.16 231.73 69.672 232.124 70.344C232.519 71.0053 232.716 71.8 232.716 72.728C232.716 72.824 232.711 72.936 232.7 73.064C232.69 73.1813 232.679 73.2933 232.668 73.4H225.676V71.944H231.356L230.396 72.376C230.396 71.928 230.306 71.5387 230.124 71.208C229.943 70.8773 229.692 70.6213 229.372 70.44C229.052 70.248 228.679 70.152 228.252 70.152C227.826 70.152 227.447 70.248 227.116 70.44C226.796 70.6213 226.546 70.8827 226.364 71.224C226.183 71.5547 226.092 71.9493 226.092 72.408V72.792C226.092 73.2613 226.194 73.6773 226.396 74.04C226.61 74.392 226.903 74.664 227.276 74.856C227.66 75.0373 228.108 75.128 228.62 75.128C229.079 75.128 229.479 75.0587 229.82 74.92C230.172 74.7813 230.492 74.5733 230.78 74.296L232.108 75.736C231.714 76.184 231.218 76.5307 230.62 76.776C230.023 77.0107 229.335 77.128 228.556 77.128ZM239.702 77.128C238.976 77.128 238.342 76.968 237.798 76.648C237.254 76.328 236.827 75.8427 236.518 75.192C236.219 74.5307 236.07 73.6987 236.07 72.696C236.07 71.6827 236.214 70.8507 236.502 70.2C236.79 69.5493 237.206 69.064 237.75 68.744C238.294 68.424 238.944 68.264 239.702 68.264C240.512 68.264 241.238 68.4507 241.878 68.824C242.528 69.1867 243.04 69.6987 243.414 70.36C243.798 71.0213 243.99 71.8 243.99 72.696C243.99 73.6027 243.798 74.3867 243.414 75.048C243.04 75.7093 242.528 76.2213 241.878 76.584C241.238 76.9467 240.512 77.128 239.702 77.128ZM234.614 80.104V68.392H236.998V70.152L236.95 72.712L237.11 75.256V80.104H234.614ZM239.27 75.08C239.686 75.08 240.054 74.984 240.374 74.792C240.704 74.6 240.966 74.328 241.158 73.976C241.36 73.6133 241.462 73.1867 241.462 72.696C241.462 72.1947 241.36 71.768 241.158 71.416C240.966 71.064 240.704 70.792 240.374 70.6C240.054 70.408 239.686 70.312 239.27 70.312C238.854 70.312 238.48 70.408 238.15 70.6C237.819 70.792 237.558 71.064 237.366 71.416C237.174 71.768 237.078 72.1947 237.078 72.696C237.078 73.1867 237.174 73.6133 237.366 73.976C237.558 74.328 237.819 74.6 238.15 74.792C238.48 74.984 238.854 75.08 239.27 75.08ZM250.75 77V75.32L250.59 74.952V71.944C250.59 71.4107 250.425 70.9947 250.094 70.696C249.774 70.3973 249.278 70.248 248.606 70.248C248.148 70.248 247.694 70.3227 247.246 70.472C246.809 70.6107 246.436 70.8027 246.126 71.048L245.23 69.304C245.7 68.9733 246.265 68.7173 246.926 68.536C247.588 68.3547 248.26 68.264 248.942 68.264C250.254 68.264 251.273 68.5733 251.998 69.192C252.724 69.8107 253.086 70.776 253.086 72.088V77H250.75ZM248.126 77.128C247.454 77.128 246.878 77.016 246.398 76.792C245.918 76.5573 245.55 76.2427 245.294 75.848C245.038 75.4533 244.91 75.0107 244.91 74.52C244.91 74.008 245.033 73.56 245.278 73.176C245.534 72.792 245.934 72.4933 246.478 72.28C247.022 72.056 247.732 71.944 248.606 71.944H250.894V73.4H248.878C248.292 73.4 247.886 73.496 247.662 73.688C247.449 73.88 247.342 74.12 247.342 74.408C247.342 74.728 247.465 74.984 247.71 75.176C247.966 75.3573 248.313 75.448 248.75 75.448C249.166 75.448 249.54 75.352 249.87 75.16C250.201 74.9573 250.441 74.664 250.59 74.28L250.974 75.432C250.793 75.9867 250.462 76.408 249.982 76.696C249.502 76.984 248.884 77.128 248.126 77.128ZM144.336 95V84.76L145.456 85.88H142.096V83.8H146.928V95H144.336ZM150.346 89.384C149.919 89.384 149.551 89.24 149.242 88.952C148.943 88.6533 148.794 88.2747 148.794 87.816C148.794 87.3573 148.943 86.9893 149.242 86.712C149.551 86.424 149.919 86.28 150.346 86.28C150.783 86.28 151.151 86.424 151.45 86.712C151.749 86.9893 151.898 87.3573 151.898 87.816C151.898 88.2747 151.749 88.6533 151.45 88.952C151.151 89.24 150.783 89.384 150.346 89.384ZM150.346 95.128C149.919 95.128 149.551 94.984 149.242 94.696C148.943 94.3973 148.794 94.0187 148.794 93.56C148.794 93.1013 148.943 92.7333 149.242 92.456C149.551 92.168 149.919 92.024 150.346 92.024C150.783 92.024 151.151 92.168 151.45 92.456C151.749 92.7333 151.898 93.1013 151.898 93.56C151.898 94.0187 151.749 94.3973 151.45 94.696C151.151 94.984 150.783 95.128 150.346 95.128ZM154.789 95V84.76L155.91 85.88H152.55V83.8H157.382V95H154.789ZM159.231 95V93.32L163.551 89.24C163.892 88.9307 164.143 88.6533 164.303 88.408C164.463 88.1627 164.57 87.9387 164.623 87.736C164.687 87.5333 164.719 87.3467 164.719 87.176C164.719 86.728 164.564 86.3867 164.255 86.152C163.956 85.9067 163.514 85.784 162.927 85.784C162.458 85.784 162.02 85.8747 161.615 86.056C161.22 86.2373 160.884 86.52 160.607 86.904L158.719 85.688C159.146 85.048 159.743 84.5413 160.511 84.168C161.279 83.7947 162.164 83.608 163.167 83.608C163.999 83.608 164.724 83.7467 165.343 84.024C165.972 84.2907 166.458 84.6693 166.799 85.16C167.151 85.6507 167.327 86.2373 167.327 86.92C167.327 87.2827 167.279 87.6453 167.183 88.008C167.098 88.36 166.916 88.7333 166.639 89.128C166.372 89.5227 165.978 89.9653 165.455 90.456L161.871 93.832L161.375 92.888H167.695V95H159.231ZM172.397 95.192C171.618 95.192 170.845 95.0907 170.077 94.888C169.309 94.6747 168.658 94.376 168.125 93.992L169.133 92.008C169.559 92.3173 170.055 92.5627 170.621 92.744C171.186 92.9253 171.757 93.016 172.333 93.016C172.983 93.016 173.495 92.888 173.869 92.632C174.242 92.376 174.429 92.024 174.429 91.576C174.429 91.1493 174.263 90.8133 173.933 90.568C173.602 90.3227 173.069 90.2 172.333 90.2H171.149V88.488L174.269 84.952L174.557 85.88H168.685V83.8H176.525V85.48L173.421 89.016L172.109 88.264H172.861C174.237 88.264 175.277 88.5733 175.981 89.192C176.685 89.8107 177.037 90.6053 177.037 91.576C177.037 92.2053 176.871 92.7973 176.541 93.352C176.21 93.896 175.703 94.3387 175.021 94.68C174.338 95.0213 173.463 95.192 172.397 95.192ZM179.9 95L184.412 84.792L185.084 85.912H179.052L180.204 84.696V87.736H177.9V83.8H186.876V85.48L182.716 95H179.9ZM192.518 95.192C191.6 95.192 190.779 94.968 190.054 94.52C189.328 94.0613 188.758 93.4 188.342 92.536C187.926 91.672 187.718 90.6267 187.718 89.4C187.718 88.1733 187.926 87.128 188.342 86.264C188.758 85.4 189.328 84.744 190.054 84.296C190.779 83.8373 191.6 83.608 192.518 83.608C193.446 83.608 194.267 83.8373 194.982 84.296C195.707 84.744 196.278 85.4 196.694 86.264C197.11 87.128 197.318 88.1733 197.318 89.4C197.318 90.6267 197.11 91.672 196.694 92.536C196.278 93.4 195.707 94.0613 194.982 94.52C194.267 94.968 193.446 95.192 192.518 95.192ZM192.518 93C192.955 93 193.334 92.8773 193.654 92.632C193.984 92.3867 194.24 91.9973 194.422 91.464C194.614 90.9307 194.71 90.2427 194.71 89.4C194.71 88.5573 194.614 87.8693 194.422 87.336C194.24 86.8027 193.984 86.4133 193.654 86.168C193.334 85.9227 192.955 85.8 192.518 85.8C192.091 85.8 191.712 85.9227 191.382 86.168C191.062 86.4133 190.806 86.8027 190.614 87.336C190.432 87.8693 190.342 88.5573 190.342 89.4C190.342 90.2427 190.432 90.9307 190.614 91.464C190.806 91.9973 191.062 92.3867 191.382 92.632C191.712 92.8773 192.091 93 192.518 93ZM202.053 95.192C201.274 95.192 200.501 95.0907 199.733 94.888C198.965 94.6747 198.314 94.376 197.781 93.992L198.789 92.008C199.216 92.3173 199.712 92.5627 200.277 92.744C200.842 92.9253 201.413 93.016 201.989 93.016C202.64 93.016 203.152 92.888 203.525 92.632C203.898 92.376 204.085 92.024 204.085 91.576C204.085 91.1493 203.92 90.8133 203.589 90.568C203.258 90.3227 202.725 90.2 201.989 90.2H200.805V88.488L203.925 84.952L204.213 85.88H198.341V83.8H206.181V85.48L203.077 89.016L201.765 88.264H202.517C203.893 88.264 204.933 88.5733 205.637 89.192C206.341 89.8107 206.693 90.6053 206.693 91.576C206.693 92.2053 206.528 92.7973 206.197 93.352C205.866 93.896 205.36 94.3387 204.677 94.68C203.994 95.0213 203.12 95.192 202.053 95.192ZM211.874 89.24L211.218 88.44H213.314V89.768H208.434V88.44H210.738L210.082 89.24V83.736L210.85 84.456H208.578V83.128H211.874V89.24ZM217.373 89.896C216.797 89.896 216.242 89.8267 215.709 89.688C215.175 89.5493 214.749 89.368 214.429 89.144L215.069 87.864C215.367 88.0667 215.719 88.2267 216.125 88.344C216.53 88.4507 216.935 88.504 217.341 88.504C217.81 88.504 218.157 88.4347 218.381 88.296C218.605 88.1467 218.717 87.9547 218.717 87.72C218.717 87.4853 218.615 87.304 218.413 87.176C218.221 87.0373 217.901 86.968 217.453 86.968H216.509V85.88L218.573 83.864L218.797 84.456H214.717V83.128H220.125V84.2L218.061 86.216L217.293 85.736H217.805C218.679 85.736 219.346 85.9227 219.805 86.296C220.263 86.6587 220.493 87.1333 220.493 87.72C220.493 88.0933 220.381 88.4453 220.157 88.776C219.933 89.1067 219.586 89.3787 219.117 89.592C218.658 89.7947 218.077 89.896 217.373 89.896Z" fill="white"/>
<path d="M106.048 255V242.4H108.46L113.824 251.292H112.546L117.82 242.4H120.232L120.25 255H117.514L117.496 246.594H118.018L113.788 253.668H112.492L108.172 246.594H108.784V255H106.048ZM124.478 258.636C123.974 258.636 123.476 258.558 122.984 258.402C122.492 258.246 122.09 258.03 121.778 257.754L122.804 255.756C123.02 255.948 123.266 256.098 123.542 256.206C123.83 256.314 124.112 256.368 124.388 256.368C124.784 256.368 125.096 256.272 125.324 256.08C125.564 255.9 125.78 255.594 125.972 255.162L126.476 253.974L126.692 253.668L130.166 245.316H132.866L128.492 255.594C128.18 256.374 127.82 256.986 127.412 257.43C127.016 257.874 126.572 258.186 126.08 258.366C125.6 258.546 125.066 258.636 124.478 258.636ZM126.134 255.378L121.814 245.316H124.712L128.06 253.416L126.134 255.378ZM136.344 255V246.972L136.974 247.62H133.068V245.316H142.41V247.62H138.504L139.134 246.972V255H136.344ZM149.703 255V253.11L149.523 252.696V249.312C149.523 248.712 149.337 248.244 148.965 247.908C148.605 247.572 148.047 247.404 147.291 247.404C146.775 247.404 146.265 247.488 145.761 247.656C145.269 247.812 144.849 248.028 144.501 248.304L143.493 246.342C144.021 245.97 144.657 245.682 145.401 245.478C146.145 245.274 146.901 245.172 147.669 245.172C149.145 245.172 150.291 245.52 151.107 246.216C151.923 246.912 152.331 247.998 152.331 249.474V255H149.703ZM146.751 255.144C145.995 255.144 145.347 255.018 144.807 254.766C144.267 254.502 143.853 254.148 143.565 253.704C143.277 253.26 143.133 252.762 143.133 252.21C143.133 251.634 143.271 251.13 143.547 250.698C143.835 250.266 144.285 249.93 144.897 249.69C145.509 249.438 146.307 249.312 147.291 249.312H149.865V250.95H147.597C146.937 250.95 146.481 251.058 146.229 251.274C145.989 251.49 145.869 251.76 145.869 252.084C145.869 252.444 146.007 252.732 146.283 252.948C146.571 253.152 146.961 253.254 147.453 253.254C147.921 253.254 148.341 253.146 148.713 252.93C149.085 252.702 149.355 252.372 149.523 251.94L149.955 253.236C149.751 253.86 149.379 254.334 148.839 254.658C148.299 254.982 147.603 255.144 146.751 255.144ZM154.77 255V245.316H157.56V252.696H161.466V245.316H164.274V255H154.77ZM163.068 257.088V254.964L163.716 255H161.466V252.696H165.678V257.088H163.068ZM167.444 255V245.316H170.234V251.076L174.95 245.316H177.524V255H174.734V249.24L170.036 255H167.444ZM180.223 255V245.316H183.013V251.076L187.729 245.316H190.303V255H187.513V249.24L182.815 255H180.223ZM198.1 255V245.316H203.05C204.262 245.316 205.21 245.538 205.894 245.982C206.578 246.414 206.92 247.026 206.92 247.818C206.92 248.61 206.596 249.234 205.948 249.69C205.312 250.134 204.466 250.356 203.41 250.356L203.698 249.708C204.874 249.708 205.75 249.924 206.326 250.356C206.914 250.788 207.208 251.418 207.208 252.246C207.208 253.098 206.884 253.77 206.236 254.262C205.588 254.754 204.598 255 203.266 255H198.1ZM200.674 253.092H203.032C203.548 253.092 203.932 253.008 204.184 252.84C204.448 252.66 204.58 252.39 204.58 252.03C204.58 251.658 204.46 251.388 204.22 251.22C203.98 251.04 203.602 250.95 203.086 250.95H200.674V253.092ZM200.674 249.294H202.798C203.29 249.294 203.656 249.204 203.896 249.024C204.148 248.844 204.274 248.586 204.274 248.25C204.274 247.902 204.148 247.644 203.896 247.476C203.656 247.308 203.29 247.224 202.798 247.224H200.674V249.294ZM214.395 255V245.316H222.153V247.62H216.555L217.185 247.008V255H214.395ZM227.971 255.144C226.867 255.144 225.895 254.928 225.055 254.496C224.227 254.064 223.585 253.476 223.129 252.732C222.673 251.976 222.445 251.118 222.445 250.158C222.445 249.186 222.667 248.328 223.111 247.584C223.567 246.828 224.185 246.24 224.965 245.82C225.745 245.388 226.627 245.172 227.611 245.172C228.559 245.172 229.411 245.376 230.167 245.784C230.935 246.18 231.541 246.756 231.985 247.512C232.429 248.256 232.651 249.15 232.651 250.194C232.651 250.302 232.645 250.428 232.633 250.572C232.621 250.704 232.609 250.83 232.597 250.95H224.731V249.312H231.121L230.041 249.798C230.041 249.294 229.939 248.856 229.735 248.484C229.531 248.112 229.249 247.824 228.889 247.62C228.529 247.404 228.109 247.296 227.629 247.296C227.149 247.296 226.723 247.404 226.351 247.62C225.991 247.824 225.709 248.118 225.505 248.502C225.301 248.874 225.199 249.318 225.199 249.834V250.266C225.199 250.794 225.313 251.262 225.541 251.67C225.781 252.066 226.111 252.372 226.531 252.588C226.963 252.792 227.467 252.894 228.043 252.894C228.559 252.894 229.009 252.816 229.393 252.66C229.789 252.504 230.149 252.27 230.473 251.958L231.967 253.578C231.523 254.082 230.965 254.472 230.293 254.748C229.621 255.012 228.847 255.144 227.971 255.144ZM234.803 255V245.316H237.593V249.096H241.805V245.316H244.613V255H241.805V251.382H237.593V255H234.803ZM252.035 255.144C250.931 255.144 249.959 254.928 249.119 254.496C248.291 254.064 247.649 253.476 247.193 252.732C246.737 251.976 246.509 251.118 246.509 250.158C246.509 249.186 246.731 248.328 247.175 247.584C247.631 246.828 248.249 246.24 249.029 245.82C249.809 245.388 250.691 245.172 251.675 245.172C252.623 245.172 253.475 245.376 254.231 245.784C254.999 246.18 255.605 246.756 256.049 247.512C256.493 248.256 256.715 249.15 256.715 250.194C256.715 250.302 256.709 250.428 256.697 250.572C256.685 250.704 256.673 250.83 256.661 250.95H248.795V249.312H255.185L254.105 249.798C254.105 249.294 254.003 248.856 253.799 248.484C253.595 248.112 253.313 247.824 252.953 247.62C252.593 247.404 252.173 247.296 251.693 247.296C251.213 247.296 250.787 247.404 250.415 247.62C250.055 247.824 249.773 248.118 249.569 248.502C249.365 248.874 249.263 249.318 249.263 249.834V250.266C249.263 250.794 249.377 251.262 249.605 251.67C249.845 252.066 250.175 252.372 250.595 252.588C251.027 252.792 251.531 252.894 252.107 252.894C252.623 252.894 253.073 252.816 253.457 252.66C253.853 252.504 254.213 252.27 254.537 251.958L256.031 253.578C255.587 254.082 255.029 254.472 254.357 254.748C253.685 255.012 252.911 255.144 252.035 255.144ZM124.112 279L126.632 266.4H131.762C133.334 266.4 134.546 266.742 135.398 267.426C136.262 268.11 136.694 269.07 136.694 270.306C136.694 271.362 136.442 272.28 135.938 273.06C135.446 273.828 134.738 274.422 133.814 274.842C132.902 275.262 131.822 275.472 130.574 275.472H126.47L128 274.194L127.046 279H124.112ZM132.212 279L129.638 274.428H132.698L135.29 279H132.212ZM127.928 274.536L126.92 273.15H130.682C131.654 273.15 132.404 272.934 132.932 272.502C133.472 272.058 133.742 271.416 133.742 270.576C133.742 269.964 133.532 269.514 133.112 269.226C132.704 268.926 132.128 268.776 131.384 268.776H127.838L129.368 267.354L127.928 274.536ZM137.348 279L139.868 266.4H144.962C146.534 266.4 147.746 266.748 148.598 267.444C149.462 268.128 149.894 269.088 149.894 270.324C149.894 271.38 149.648 272.304 149.156 273.096C148.664 273.876 147.956 274.476 147.032 274.896C146.12 275.316 145.034 275.526 143.774 275.526H139.688L141.236 274.194L140.282 279H137.348ZM141.164 274.536L140.138 273.15H143.9C144.86 273.15 145.604 272.934 146.132 272.502C146.672 272.058 146.942 271.416 146.942 270.576C146.942 269.964 146.738 269.514 146.33 269.226C145.922 268.926 145.346 268.776 144.602 268.776H141.056L142.604 267.354L141.164 274.536ZM154.55 271.476H160.616L160.166 273.744H154.1L154.55 271.476ZM153.722 276.66H160.598L160.112 279H150.356L152.876 266.4H162.398L161.912 268.74H155.306L153.722 276.66ZM167.656 279.216C166.672 279.216 165.79 279.024 165.01 278.64C164.242 278.244 163.642 277.662 163.21 276.894C162.778 276.126 162.562 275.178 162.562 274.05C162.562 273.342 162.652 272.622 162.832 271.89C163.012 271.146 163.294 270.432 163.678 269.748C164.062 269.064 164.548 268.458 165.136 267.93C165.736 267.39 166.45 266.964 167.278 266.652C168.106 266.34 169.06 266.184 170.14 266.184C170.824 266.184 171.478 266.256 172.102 266.4C172.738 266.544 173.254 266.754 173.65 267.03L172.336 269.172C172 268.944 171.628 268.788 171.22 268.704C170.824 268.608 170.404 268.56 169.96 268.56C169.408 268.56 168.91 268.638 168.466 268.794C168.034 268.938 167.65 269.148 167.314 269.424C166.978 269.688 166.69 270 166.45 270.36C166.222 270.72 166.042 271.11 165.91 271.53C165.778 271.938 165.694 272.364 165.658 272.808C165.634 273.108 165.616 273.348 165.604 273.528C165.592 273.696 165.58 273.852 165.568 273.996L164.722 273.6C164.986 273 165.31 272.52 165.694 272.16C166.078 271.788 166.522 271.518 167.026 271.35C167.53 271.182 168.076 271.098 168.664 271.098C169.372 271.098 170.032 271.242 170.644 271.53C171.256 271.806 171.748 272.214 172.12 272.754C172.504 273.294 172.696 273.954 172.696 274.734C172.696 275.646 172.474 276.438 172.03 277.11C171.598 277.782 171.004 278.304 170.248 278.676C169.492 279.036 168.628 279.216 167.656 279.216ZM167.62 277.038C168.244 277.038 168.766 276.858 169.186 276.498C169.606 276.138 169.816 275.634 169.816 274.986C169.816 274.446 169.63 274.026 169.258 273.726C168.898 273.426 168.418 273.276 167.818 273.276C167.362 273.276 166.966 273.36 166.63 273.528C166.294 273.696 166.03 273.93 165.838 274.23C165.646 274.53 165.55 274.872 165.55 275.256C165.55 275.568 165.628 275.862 165.784 276.138C165.94 276.402 166.174 276.618 166.486 276.786C166.798 276.954 167.176 277.038 167.62 277.038ZM177.443 279.216C176.507 279.216 175.637 279.09 174.833 278.838C174.041 278.586 173.369 278.226 172.817 277.758L174.221 275.616C174.629 275.976 175.127 276.258 175.715 276.462C176.315 276.666 176.951 276.768 177.623 276.768C178.487 276.768 179.153 276.606 179.621 276.282C180.089 275.958 180.323 275.508 180.323 274.932C180.323 274.488 180.137 274.14 179.765 273.888C179.393 273.624 178.763 273.492 177.875 273.492H174.455L176.507 266.4H184.211L183.725 268.74H177.083L178.883 267.408L177.407 272.466L176.147 271.134H178.559C180.131 271.134 181.307 271.44 182.087 272.052C182.879 272.664 183.275 273.51 183.275 274.59C183.275 275.526 183.023 276.342 182.519 277.038C182.027 277.734 181.343 278.274 180.467 278.658C179.591 279.03 178.583 279.216 177.443 279.216ZM191.644 279V267.48L192.904 268.74H189.124V266.4H194.56V279H191.644ZM202.383 279.216C201.231 279.216 200.229 278.976 199.377 278.496C198.537 278.016 197.889 277.314 197.433 276.39C196.977 275.466 196.749 274.326 196.749 272.97C196.749 271.518 197.019 270.288 197.559 269.28C198.111 268.272 198.867 267.504 199.827 266.976C200.799 266.448 201.915 266.184 203.175 266.184C203.847 266.184 204.489 266.256 205.101 266.4C205.713 266.544 206.241 266.76 206.685 267.048L205.605 269.19C205.257 268.95 204.885 268.788 204.489 268.704C204.093 268.608 203.679 268.56 203.247 268.56C202.155 268.56 201.291 268.89 200.655 269.55C200.019 270.21 199.701 271.188 199.701 272.484C199.701 272.7 199.701 272.94 199.701 273.204C199.713 273.468 199.749 273.732 199.809 273.996L198.999 273.24C199.227 272.772 199.521 272.382 199.881 272.07C200.241 271.746 200.667 271.506 201.159 271.35C201.663 271.182 202.215 271.098 202.815 271.098C203.631 271.098 204.363 271.26 205.011 271.584C205.659 271.908 206.175 272.364 206.559 272.952C206.955 273.54 207.153 274.23 207.153 275.022C207.153 275.874 206.937 276.618 206.505 277.254C206.085 277.878 205.515 278.364 204.795 278.712C204.087 279.048 203.283 279.216 202.383 279.216ZM202.221 277.038C202.629 277.038 202.989 276.966 203.301 276.822C203.625 276.666 203.877 276.444 204.057 276.156C204.237 275.868 204.327 275.538 204.327 275.166C204.327 274.59 204.129 274.134 203.733 273.798C203.349 273.45 202.833 273.276 202.185 273.276C201.753 273.276 201.375 273.36 201.051 273.528C200.727 273.684 200.469 273.906 200.277 274.194C200.097 274.47 200.007 274.794 200.007 275.166C200.007 275.526 200.097 275.85 200.277 276.138C200.457 276.414 200.709 276.636 201.033 276.804C201.357 276.96 201.753 277.038 202.221 277.038ZM209.676 279L218.28 266.4H220.422L211.818 279H209.676ZM210.774 273.204C210.162 273.204 209.622 273.066 209.154 272.79C208.686 272.502 208.314 272.1 208.038 271.584C207.774 271.056 207.642 270.438 207.642 269.73C207.642 269.022 207.774 268.41 208.038 267.894C208.314 267.378 208.686 266.976 209.154 266.688C209.622 266.4 210.162 266.256 210.774 266.256C211.386 266.256 211.926 266.4 212.394 266.688C212.862 266.976 213.228 267.378 213.492 267.894C213.756 268.41 213.888 269.022 213.888 269.73C213.888 270.438 213.756 271.056 213.492 271.584C213.228 272.1 212.862 272.502 212.394 272.79C211.926 273.066 211.386 273.204 210.774 273.204ZM210.774 271.728C211.17 271.728 211.488 271.566 211.728 271.242C211.968 270.906 212.088 270.402 212.088 269.73C212.088 269.058 211.968 268.56 211.728 268.236C211.488 267.9 211.17 267.732 210.774 267.732C210.39 267.732 210.072 267.9 209.82 268.236C209.58 268.56 209.46 269.058 209.46 269.73C209.46 270.39 209.58 270.888 209.82 271.224C210.072 271.56 210.39 271.728 210.774 271.728ZM219.324 279.144C218.724 279.144 218.184 279.006 217.704 278.73C217.236 278.442 216.87 278.04 216.606 277.524C216.342 276.996 216.21 276.378 216.21 275.67C216.21 274.962 216.342 274.35 216.606 273.834C216.87 273.318 217.236 272.916 217.704 272.628C218.184 272.34 218.724 272.196 219.324 272.196C219.948 272.196 220.494 272.34 220.962 272.628C221.43 272.916 221.796 273.318 222.06 273.834C222.324 274.35 222.456 274.962 222.456 275.67C222.456 276.378 222.324 276.996 222.06 277.524C221.796 278.04 221.43 278.442 220.962 278.73C220.494 279.006 219.948 279.144 219.324 279.144ZM219.324 277.668C219.72 277.668 220.038 277.506 220.278 277.182C220.518 276.846 220.638 276.342 220.638 275.67C220.638 275.01 220.518 274.512 220.278 274.176C220.038 273.84 219.72 273.672 219.324 273.672C218.94 273.672 218.622 273.84 218.37 274.176C218.13 274.5 218.01 274.998 218.01 275.67C218.01 276.342 218.13 276.846 218.37 277.182C218.622 277.506 218.94 277.668 219.324 277.668ZM228.125 272.52L227.387 271.62H229.745V273.114H224.255V271.62H226.847L226.109 272.52V266.328L226.973 267.138H224.417V265.644H228.125V272.52ZM230.892 271.602V270.342L234.294 265.644H236.436L233.016 270.342L232.098 270.072H238.074V271.602H230.892ZM234.942 273.114V271.602L235.14 270.072V268.812H236.868V273.114H234.942Z" fill="white"/>
<path d="M68.4938 416.729C68.0038 416.729 67.5698 416.638 67.1918 416.456C66.8138 416.274 66.4708 416.064 66.1628 415.826C65.8548 415.588 65.5678 415.378 65.3018 415.196C65.0358 415 64.7628 414.902 64.4828 414.902C64.1048 414.902 63.7968 415.049 63.5588 415.343C63.3348 415.637 63.2088 416.036 63.1807 416.54H61.1438C61.1718 415.21 61.4728 414.209 62.0468 413.537C62.6348 412.865 63.3838 412.529 64.2938 412.529C64.7838 412.529 65.2178 412.627 65.5958 412.823C65.9738 413.005 66.3098 413.215 66.6038 413.453C66.9118 413.677 67.1988 413.887 67.4648 414.083C67.7308 414.265 68.0038 414.356 68.2838 414.356C68.6758 414.356 68.9838 414.209 69.2078 413.915C69.4458 413.621 69.5718 413.222 69.5858 412.718H71.6438C71.6158 414.034 71.3078 415.035 70.7198 415.721C70.1458 416.393 69.4038 416.729 68.4938 416.729ZM81.6993 422V408.56L83.1693 410.03H78.7593V407.3H85.1013V422H81.6993ZM92.8209 407.048C94.1789 407.048 95.3479 407.328 96.3279 407.888C97.3079 408.448 98.0639 409.267 98.5959 410.345C99.1279 411.409 99.3939 412.739 99.3939 414.335C99.3939 416.029 99.0719 417.464 98.4279 418.64C97.7979 419.816 96.9229 420.712 95.8029 421.328C94.6829 421.944 93.3809 422.252 91.8969 422.252C91.1269 422.252 90.3849 422.168 89.6709 422C88.9569 421.832 88.3409 421.58 87.8229 421.244L89.0829 418.745C89.4889 419.025 89.9229 419.221 90.3849 419.333C90.8469 419.431 91.3299 419.48 91.8339 419.48C93.0939 419.48 94.0949 419.095 94.8369 418.325C95.5929 417.555 95.9709 416.414 95.9709 414.902C95.9709 414.65 95.9639 414.37 95.9499 414.062C95.9359 413.754 95.9009 413.446 95.8449 413.138L96.7689 414.02C96.5309 414.566 96.1949 415.028 95.7609 415.406C95.3269 415.77 94.8229 416.05 94.2489 416.246C93.6749 416.428 93.0309 416.519 92.3169 416.519C91.3789 416.519 90.5249 416.33 89.7549 415.952C88.9989 415.574 88.3899 415.042 87.9279 414.356C87.4799 413.67 87.2559 412.865 87.2559 411.941C87.2559 410.933 87.5009 410.065 87.9909 409.337C88.4949 408.609 89.1669 408.049 90.0069 407.657C90.8609 407.251 91.7989 407.048 92.8209 407.048ZM93.0309 409.589C92.5409 409.589 92.1139 409.68 91.7499 409.862C91.3859 410.03 91.0989 410.282 90.8889 410.618C90.6789 410.94 90.5739 411.325 90.5739 411.773C90.5739 412.445 90.7979 412.984 91.2459 413.39C91.7079 413.782 92.3169 413.978 93.0729 413.978C93.5629 413.978 93.9969 413.887 94.3749 413.705C94.7669 413.509 95.0679 413.243 95.2779 412.907C95.4879 412.571 95.5929 412.193 95.5929 411.773C95.5929 411.353 95.4879 410.982 95.2779 410.66C95.0819 410.324 94.7949 410.065 94.4169 409.883C94.0389 409.687 93.5769 409.589 93.0309 409.589ZM107.326 422.252C106.122 422.252 105.044 421.958 104.092 421.37C103.14 420.768 102.391 419.9 101.845 418.766C101.299 417.632 101.026 416.26 101.026 414.65C101.026 413.04 101.299 411.668 101.845 410.534C102.391 409.4 103.14 408.539 104.092 407.951C105.044 407.349 106.122 407.048 107.326 407.048C108.544 407.048 109.622 407.349 110.56 407.951C111.512 408.539 112.261 409.4 112.807 410.534C113.353 411.668 113.626 413.04 113.626 414.65C113.626 416.26 113.353 417.632 112.807 418.766C112.261 419.9 111.512 420.768 110.56 421.37C109.622 421.958 108.544 422.252 107.326 422.252ZM107.326 419.375C107.9 419.375 108.397 419.214 108.817 418.892C109.251 418.57 109.587 418.059 109.825 417.359C110.077 416.659 110.203 415.756 110.203 414.65C110.203 413.544 110.077 412.641 109.825 411.941C109.587 411.241 109.251 410.73 108.817 410.408C108.397 410.086 107.9 409.925 107.326 409.925C106.766 409.925 106.269 410.086 105.835 410.408C105.415 410.73 105.079 411.241 104.827 411.941C104.589 412.641 104.47 413.544 104.47 414.65C104.47 415.756 104.589 416.659 104.827 417.359C105.079 418.059 105.415 418.57 105.835 418.892C106.269 419.214 106.766 419.375 107.326 419.375ZM121.982 422V410.702H133.217V422H129.941V412.655L130.676 413.39H124.502L125.237 412.655V422H121.982ZM143.12 422V419.795L142.91 419.312V415.364C142.91 414.664 142.693 414.118 142.259 413.726C141.839 413.334 141.188 413.138 140.306 413.138C139.704 413.138 139.109 413.236 138.521 413.432C137.947 413.614 137.457 413.866 137.051 414.188L135.875 411.899C136.491 411.465 137.233 411.129 138.101 410.891C138.969 410.653 139.851 410.534 140.747 410.534C142.469 410.534 143.806 410.94 144.758 411.752C145.71 412.564 146.186 413.831 146.186 415.553V422H143.12ZM139.676 422.168C138.794 422.168 138.038 422.021 137.408 421.727C136.778 421.419 136.295 421.006 135.959 420.488C135.623 419.97 135.455 419.389 135.455 418.745C135.455 418.073 135.616 417.485 135.938 416.981C136.274 416.477 136.799 416.085 137.513 415.805C138.227 415.511 139.158 415.364 140.306 415.364H143.309V417.275H140.663C139.893 417.275 139.361 417.401 139.067 417.653C138.787 417.905 138.647 418.22 138.647 418.598C138.647 419.018 138.808 419.354 139.13 419.606C139.466 419.844 139.921 419.963 140.495 419.963C141.041 419.963 141.531 419.837 141.965 419.585C142.399 419.319 142.714 418.934 142.91 418.43L143.414 419.942C143.176 420.67 142.742 421.223 142.112 421.601C141.482 421.979 140.67 422.168 139.676 422.168ZM149.032 422V410.702H152.287V419.312H156.844V410.702H160.12V422H149.032ZM158.713 424.436V421.958L159.469 422H156.844V419.312H161.758V424.436H158.713ZM163.818 422V410.702H167.073V417.422L172.575 410.702H175.578V422H172.323V415.28L166.842 422H163.818ZM184.25 422.168C182.962 422.168 181.828 421.916 180.848 421.412C179.882 420.908 179.133 420.222 178.601 419.354C178.069 418.472 177.803 417.471 177.803 416.351C177.803 415.217 178.062 414.216 178.58 413.348C179.112 412.466 179.833 411.78 180.743 411.29C181.653 410.786 182.682 410.534 183.83 410.534C184.936 410.534 185.93 410.772 186.812 411.248C187.708 411.71 188.415 412.382 188.933 413.264C189.451 414.132 189.71 415.175 189.71 416.393C189.71 416.519 189.703 416.666 189.689 416.834C189.675 416.988 189.661 417.135 189.647 417.275H180.47V415.364H187.925L186.665 415.931C186.665 415.343 186.546 414.832 186.308 414.398C186.07 413.964 185.741 413.628 185.321 413.39C184.901 413.138 184.411 413.012 183.851 413.012C183.291 413.012 182.794 413.138 182.36 413.39C181.94 413.628 181.611 413.971 181.373 414.419C181.135 414.853 181.016 415.371 181.016 415.973V416.477C181.016 417.093 181.149 417.639 181.415 418.115C181.695 418.577 182.08 418.934 182.57 419.186C183.074 419.424 183.662 419.543 184.334 419.543C184.936 419.543 185.461 419.452 185.909 419.27C186.371 419.088 186.791 418.815 187.169 418.451L188.912 420.341C188.394 420.929 187.743 421.384 186.959 421.706C186.175 422.014 185.272 422.168 184.25 422.168ZM192.221 422V410.702H195.476V415.112H200.39V410.702H203.666V422H200.39V417.779H195.476V422H192.221ZM209.218 422V412.634L209.953 413.39H205.396V410.702H216.295V413.39H211.738L212.473 412.634V422H209.218ZM222.861 422.168C221.657 422.168 220.586 421.916 219.648 421.412C218.724 420.908 217.989 420.222 217.443 419.354C216.911 418.472 216.645 417.471 216.645 416.351C216.645 415.217 216.911 414.216 217.443 413.348C217.989 412.466 218.724 411.78 219.648 411.29C220.586 410.786 221.657 410.534 222.861 410.534C224.051 410.534 225.115 410.786 226.053 411.29C226.991 411.78 227.726 412.459 228.258 413.327C228.79 414.195 229.056 415.203 229.056 416.351C229.056 417.471 228.79 418.472 228.258 419.354C227.726 420.222 226.991 420.908 226.053 421.412C225.115 421.916 224.051 422.168 222.861 422.168ZM222.861 419.48C223.407 419.48 223.897 419.354 224.331 419.102C224.765 418.85 225.108 418.493 225.36 418.031C225.612 417.555 225.738 416.995 225.738 416.351C225.738 415.693 225.612 415.133 225.36 414.671C225.108 414.209 224.765 413.852 224.331 413.6C223.897 413.348 223.407 413.222 222.861 413.222C222.315 413.222 221.825 413.348 221.391 413.6C220.957 413.852 220.607 414.209 220.341 414.671C220.089 415.133 219.963 415.693 219.963 416.351C219.963 416.995 220.089 417.555 220.341 418.031C220.607 418.493 220.957 418.85 221.391 419.102C221.825 419.354 222.315 419.48 222.861 419.48ZM231.309 422V410.702H237.084C238.498 410.702 239.604 410.961 240.402 411.479C241.2 411.983 241.599 412.697 241.599 413.621C241.599 414.545 241.221 415.273 240.465 415.805C239.723 416.323 238.736 416.582 237.504 416.582L237.84 415.826C239.212 415.826 240.234 416.078 240.906 416.582C241.592 417.086 241.935 417.821 241.935 418.787C241.935 419.781 241.557 420.565 240.801 421.139C240.045 421.713 238.89 422 237.336 422H231.309ZM234.312 419.774H237.063C237.665 419.774 238.113 419.676 238.407 419.48C238.715 419.27 238.869 418.955 238.869 418.535C238.869 418.101 238.729 417.786 238.449 417.59C238.169 417.38 237.728 417.275 237.126 417.275H234.312V419.774ZM234.312 415.343H236.79C237.364 415.343 237.791 415.238 238.071 415.028C238.365 414.818 238.512 414.517 238.512 414.125C238.512 413.719 238.365 413.418 238.071 413.222C237.791 413.026 237.364 412.928 236.79 412.928H234.312V415.343ZM250.32 422V410.702H256.095C257.509 410.702 258.615 410.961 259.413 411.479C260.211 411.983 260.61 412.697 260.61 413.621C260.61 414.545 260.232 415.273 259.476 415.805C258.734 416.323 257.747 416.582 256.515 416.582L256.851 415.826C258.223 415.826 259.245 416.078 259.917 416.582C260.603 417.086 260.946 417.821 260.946 418.787C260.946 419.781 260.568 420.565 259.812 421.139C259.056 421.713 257.901 422 256.347 422H250.32ZM253.323 419.774H256.074C256.676 419.774 257.124 419.676 257.418 419.48C257.726 419.27 257.88 418.955 257.88 418.535C257.88 418.101 257.74 417.786 257.46 417.59C257.18 417.38 256.739 417.275 256.137 417.275H253.323V419.774ZM253.323 415.343H255.801C256.375 415.343 256.802 415.238 257.082 415.028C257.376 414.818 257.523 414.517 257.523 414.125C257.523 413.719 257.376 413.418 257.082 413.222C256.802 413.026 256.375 412.928 255.801 412.928H253.323V415.343ZM269.583 422V407.3H275.946C277.262 407.3 278.396 407.517 279.348 407.951C280.3 408.371 281.035 408.98 281.553 409.778C282.071 410.576 282.33 411.528 282.33 412.634C282.33 413.726 282.071 414.671 281.553 415.469C281.035 416.267 280.3 416.883 279.348 417.317C278.396 417.737 277.262 417.947 275.946 417.947H271.473L272.985 416.414V422H269.583ZM272.985 416.792L271.473 415.175H275.757C276.807 415.175 277.591 414.951 278.109 414.503C278.627 414.055 278.886 413.432 278.886 412.634C278.886 411.822 278.627 411.192 278.109 410.744C277.591 410.296 276.807 410.072 275.757 410.072H271.473L272.985 408.455V416.792ZM292.549 421.076C290.645 421.076 289.028 420.824 287.698 420.32C286.382 419.816 285.381 419.088 284.695 418.136C284.009 417.17 283.666 415.994 283.666 414.608C283.666 413.222 284.009 412.053 284.695 411.101C285.381 410.135 286.382 409.4 287.698 408.896C289.028 408.392 290.645 408.14 292.549 408.14C292.577 408.14 292.654 408.14 292.78 408.14C292.92 408.14 293.053 408.14 293.179 408.14C293.319 408.14 293.396 408.14 293.41 408.14C295.3 408.14 296.896 408.392 298.198 408.896C299.514 409.4 300.508 410.135 301.18 411.101C301.852 412.067 302.188 413.236 302.188 414.608C302.188 415.966 301.852 417.135 301.18 418.115C300.522 419.081 299.549 419.816 298.261 420.32C296.987 420.824 295.426 421.076 293.578 421.076C293.536 421.076 293.438 421.076 293.284 421.076C293.13 421.076 292.976 421.076 292.822 421.076C292.682 421.076 292.591 421.076 292.549 421.076ZM292.864 418.451C292.906 418.451 292.962 418.451 293.032 418.451C293.102 418.451 293.151 418.451 293.179 418.451C294.467 418.451 295.531 418.311 296.371 418.031C297.225 417.737 297.862 417.31 298.282 416.75C298.702 416.176 298.912 415.455 298.912 414.587C298.912 413.719 298.695 413.005 298.261 412.445C297.827 411.885 297.19 411.472 296.35 411.206C295.524 410.926 294.481 410.786 293.221 410.786C293.193 410.786 293.137 410.786 293.053 410.786C292.983 410.786 292.92 410.786 292.864 410.786C291.534 410.786 290.435 410.919 289.567 411.185C288.699 411.451 288.048 411.871 287.614 412.445C287.18 413.005 286.963 413.726 286.963 414.608C286.963 415.49 287.194 416.218 287.656 416.792C288.118 417.352 288.783 417.772 289.651 418.052C290.533 418.318 291.604 418.451 292.864 418.451ZM291.373 422.651V406.67H294.502V422.651H291.373Z" fill="#3579A2"/>
</svg>
