<svg width="165" height="78" viewBox="0 0 165 78" fill="none" xmlns="http://www.w3.org/2000/svg">
<path d="M165 0L9.59766 18.7414V23.5606L149.892 8.09153L138.813 72.4668H143.197L165 0Z" fill="#FEFEFF"/>
<path d="M9.59785 23.5605L6.22083 23.9175L0 77.8809L137.865 77.9999L138.813 72.4667H9.5386L9.59785 23.5605Z" fill="white"/>
<path d="M28.3192 40.9337V42.1831H23.8758V40.9337L24.7052 40.6362L24.3497 39.5058H21.2097L20.8542 40.6362L21.7429 40.9337V42.1831H17.7734V40.9337L18.4844 40.6362L21.8022 31.7117L24.4682 31.6523L27.6083 40.6362L28.3192 40.9337ZM21.8022 37.6614H23.935L22.9871 34.0916L21.8022 37.6614Z" fill="white"/>
<path d="M37.4429 39.0894C37.4429 41.4098 35.4877 42.4212 33.1179 42.4212C32.0515 42.4212 30.8666 42.2427 29.7409 41.8262L29.8001 38.8514H31.2813L31.5775 40.2793C32.0515 40.5173 32.6439 40.5768 33.1772 40.5768C34.1251 40.5768 34.8953 40.2198 34.8953 39.5059C34.8953 37.602 29.6816 38.6134 29.6816 34.8056C29.6816 32.6043 31.3998 31.5928 33.6511 31.5928C34.7176 31.5928 35.9025 31.8308 37.0874 32.2473L36.9097 34.9841H35.3693L35.073 33.6157C34.6583 33.4967 34.2436 33.4372 33.8289 33.4372C32.9402 33.4372 32.2292 33.7347 32.2292 34.4487C32.17 36.1146 37.4429 35.3411 37.4429 39.0894Z" fill="white"/>
<path d="M47.4559 31.7119V34.9247H45.9747L45.6193 33.5562H44.3751V40.5768L45.5008 40.9338V42.1832H40.6426V40.9338L41.7683 40.6363V33.5562H40.5241L40.2279 34.9247H38.6875V31.7119H47.4559Z" fill="white"/>
<path d="M48.8184 37.0665C48.8184 33.3777 50.7735 31.4738 53.8543 31.4738C56.8758 31.4738 58.6532 33.3777 58.6532 36.7095C58.6532 40.2198 56.6981 42.3617 53.4988 42.3617C50.5365 42.4212 48.8184 40.5173 48.8184 37.0665ZM55.8686 36.8285C55.8686 34.2702 55.0984 33.4372 53.7358 33.4372C52.4324 33.4372 51.6029 34.2107 51.6029 36.9475C51.6029 39.4464 52.3139 40.3983 53.6765 40.3983C54.9799 40.3983 55.8686 39.6249 55.8686 36.8285Z" fill="white"/>
<path d="M70.9764 32.9612L69.9693 33.3182V42.1831H67.007L63.5115 35.103V40.5767L64.5186 40.9337V42.1831H60.4307V40.9337L61.4378 40.5767V33.3776L60.4307 33.0802V31.8307L64.4594 31.7712L67.8364 38.6133V33.4371L66.8292 33.1397V31.8902L70.9172 31.8307V32.9612H70.9764Z" fill="white"/>
<path d="M21.7423 56.4624V58.4258L23.0457 58.7828V60.0322H18.1875V58.7828L19.1947 58.4853V51.1672L18.1875 50.8697V49.6203L21.8015 49.5608H22.9864C25.534 49.5608 26.6004 51.0482 26.6004 52.8926C26.6004 54.9155 25.297 56.5219 22.2755 56.5219H21.7423V56.4624ZM21.7423 51.3457V54.618H22.2755C23.4011 54.618 23.9344 53.904 23.9344 52.8926C23.9344 51.9407 23.4604 51.3457 22.5125 51.3457H21.7423Z" fill="white"/>
<path d="M37.5624 58.7828V60.0322H33.1189V58.7828L33.9484 58.4853L33.5929 57.3548H30.4529L30.0974 58.4853L30.9861 58.7828V60.0322H27.0166V58.7828L27.7276 58.4853L31.0453 49.5608L33.7114 49.5013L36.8514 58.4853L37.5624 58.7828ZM30.9861 55.5104H33.1189L32.171 51.9406L30.9861 55.5104Z" fill="white"/>
<path d="M48.0477 58.7828V60.0322H45.3224L44.019 57.2359C43.545 56.1649 43.4265 55.9269 42.5378 55.9864H42.3008V58.4258L43.3673 58.7828V60.0322H38.7461V58.7828L39.7533 58.4258V51.2267L38.7461 50.9292V49.6798L42.4193 49.6203H43.7228C46.1518 49.6203 47.396 50.6912 47.396 52.5951C47.396 54.023 46.685 55.094 45.0854 55.57C45.6186 55.7484 45.9741 56.1054 46.2111 56.6409L47.2183 58.5448L48.0477 58.7828ZM44.7299 52.6546C44.7299 51.8812 44.256 51.3457 43.3673 51.3457H42.3008V54.142H43.0118C44.1967 54.142 44.7299 53.6661 44.7299 52.6546Z" fill="white"/>
<path d="M57.7635 49.5608V52.7736H56.2824L55.9861 51.4052H54.742V58.4258L55.8677 58.7828V60.0322H50.9502V58.7828L52.0759 58.4853V51.4052H50.8317L50.5355 52.7736H48.9951V49.5608H57.7635Z" fill="white"/>
<path d="M69.6727 50.8102L68.7248 51.1672V60.0322H65.7625L62.2077 52.9521V58.4258L63.2149 58.7828V60.0322H59.127V58.7828L60.1341 58.4258V51.2267L59.127 50.9292V49.6798L63.1557 49.6203L66.5327 56.4624V51.2862L65.5255 50.9887V49.7393L69.6135 49.6798V50.8102H69.6727Z" fill="white"/>
<path d="M79.1525 57.0574V60.0322H71.332V58.7828L72.3392 58.4258V51.2267L71.332 50.9292V49.6798L74.8275 49.6203H78.9748V52.3571H77.4344L77.1974 51.3457H74.8275V53.7851H77.7306V55.57H74.8275V58.1878H77.3751L77.6121 57.0574H79.1525Z" fill="white"/>
<path d="M90.409 58.7828V60.0322H87.6837L86.3803 57.2359C85.9063 56.1649 85.7878 55.9269 84.8992 55.9864H84.6622V58.4258L85.7286 58.7828V60.0322H81.1074V58.7828L82.1146 58.4258V51.2267L81.1074 50.9292V49.6798L84.7807 49.6203H86.0841C88.5132 49.6203 89.7573 50.6912 89.7573 52.5951C89.7573 54.023 89.0464 55.094 87.4467 55.57C87.9799 55.7484 88.3354 56.1054 88.5724 56.6409L89.5796 58.5448L90.409 58.7828ZM87.1505 52.6546C87.1505 51.8812 86.6765 51.3457 85.7878 51.3457H84.7214V54.142H85.4324C86.558 54.142 87.1505 53.6661 87.1505 52.6546Z" fill="white"/>
<path d="M99.9481 56.9383C99.9481 59.2587 97.9929 60.2702 95.6231 60.2702C94.5567 60.2702 93.3718 60.0917 92.2461 59.6752L92.3646 56.7004H93.8457L94.142 58.1283C94.6159 58.3663 95.2084 58.4258 95.7416 58.4258C96.6895 58.4258 97.4597 58.0688 97.4597 57.3548C97.4597 55.4509 92.2461 56.4624 92.2461 52.6546C92.2461 50.4532 93.9642 49.4418 96.2156 49.4418C97.282 49.4418 98.4669 49.6798 99.6518 50.0962L99.4741 52.8331H97.9337L97.6375 51.4647C97.2227 51.3457 96.808 51.2862 96.3933 51.2862C95.5046 51.2862 94.7937 51.5837 94.7937 52.2976C94.6752 53.9635 99.9481 53.1901 99.9481 56.9383Z" fill="white"/>
<path d="M111.322 51.1672V58.3663L112.27 58.7233V59.9727H107.708V58.7233L108.656 58.3663V55.57H105.102V58.3663L106.109 58.7233V59.9727H101.547V58.7233L102.554 58.3663V51.2267L101.547 50.9292V49.6798L106.109 49.6203V50.8697L105.102 51.2267V53.7851H108.656V51.2267L107.708 50.9292V49.6798L112.27 49.6203V50.8697L111.322 51.1672Z" fill="white"/>
<path d="M117.663 51.2267V58.4258L118.67 58.7828V60.0322H114.108V58.7828L115.116 58.4258V51.2267L114.108 50.8697V49.6203L118.67 49.5608V50.8102L117.663 51.2267Z" fill="white"/>
<path d="M124.001 56.4624V58.4258L125.304 58.7828V60.0322H120.446V58.7828L121.453 58.4853V51.1672L120.446 50.8697V49.6203L124.06 49.5608H125.245C127.793 49.5608 128.859 51.0482 128.859 52.8926C128.859 54.9155 127.556 56.5219 124.534 56.5219H124.001V56.4624ZM124.001 51.3457V54.618H124.534C125.66 54.618 126.193 53.904 126.193 52.8926C126.193 51.9407 125.719 51.3457 124.771 51.3457H124.001Z" fill="white"/>
</svg>
