<svg width="28" height="29" viewBox="0 0 28 29" fill="none" xmlns="http://www.w3.org/2000/svg">
<path fill-rule="evenodd" clip-rule="evenodd" d="M17.2278 3.54686L16.5484 3.93913H12.1224C11.8807 3.93913 11.6849 4.13502 11.6849 4.37663C11.6849 4.61824 11.8807 4.81413 12.1224 4.81413H15.0328L14.198 5.29609L24.0207 10.9672V15.1695C24.0207 15.3375 23.9374 15.4816 23.792 15.5656L21.515 16.8802C21.4424 16.9222 21.3591 16.9222 21.2864 16.8802C21.2137 16.8382 21.172 16.7661 21.172 16.6821V12.6119L11.3495 6.94065L8.56849 8.54628C8.51916 8.52697 8.46552 8.51642 8.40935 8.51642H0.929742C0.688133 8.51642 0.492242 8.71231 0.492242 8.95392C0.492242 9.19553 0.688133 9.39142 0.929742 9.39142H7.86658C7.86384 9.42117 7.86242 9.45141 7.86242 9.48204V14.1876H3.53385C3.29224 14.1876 3.09635 14.3835 3.09635 14.6251C3.09635 14.8667 3.29224 15.0626 3.53385 15.0626H7.86242V19.3118H0.929688C0.688078 19.3118 0.492188 19.5077 0.492188 19.7493C0.492188 19.9909 0.688078 20.1868 0.929688 20.1868H7.96009C8.0378 20.3395 8.16003 20.468 8.31977 20.5603L17.2278 25.7033C17.5186 25.8713 17.8516 25.8713 18.1425 25.7033L27.0505 20.5603C27.3413 20.3924 27.5078 20.104 27.5078 19.7682V9.48204C27.5078 9.1462 27.3413 8.85783 27.0505 8.68989L18.1424 3.54686C17.8516 3.37891 17.5186 3.37891 17.2278 3.54686ZM8.83537 3.93908C9.07698 3.93908 9.27287 4.13497 9.27287 4.37658C9.27287 4.61819 9.07698 4.81408 8.83537 4.81408H2.98703C2.74542 4.81408 2.54953 4.61819 2.54953 4.37658C2.54953 4.13497 2.74542 3.93908 2.98703 3.93908H8.83537Z" fill="#282828"/>
</svg>
