<svg width="75" height="15" viewBox="0 0 75 15" fill="none" xmlns="http://www.w3.org/2000/svg">
<g clip-path="url(#clip0_2084_636)">
<path d="M18.5069 2.6255H26.0583V3.9358H23.0896V11.3031H21.456V3.9358H18.5V2.625H18.5064L18.5069 2.6255ZM25.736 5.01955H27.1319V6.23247H27.158C27.2044 6.06092 27.2896 5.89543 27.4148 5.736C27.6826 5.39428 28.0449 5.12938 28.4618 4.97061C28.6735 4.89115 28.899 4.84958 29.1267 4.84801C29.2972 4.84801 29.423 4.85406 29.489 4.86062C29.5546 4.86667 29.6201 4.87878 29.6926 4.88484V6.21985C29.5856 6.20214 29.4781 6.18784 29.3702 6.17697C29.2631 6.16496 29.1552 6.1589 29.0473 6.1588C28.7969 6.1588 28.5604 6.20774 28.3366 6.30008C28.1128 6.3914 27.9215 6.53216 27.7574 6.71027C27.5823 6.90941 27.4482 7.13788 27.3621 7.38383C27.2635 7.65325 27.2172 7.95901 27.2172 8.30865V11.297H25.7296V5.01955H25.736ZM36.5332 11.3036H35.0717V10.4277H35.0451C34.8607 10.7466 34.5911 10.9979 34.2288 11.1876C33.8665 11.3773 33.4978 11.4752 33.1227 11.4752C32.234 11.4752 31.5883 11.2733 31.194 10.8626C30.7987 10.4524 30.601 9.83388 30.601 9.00694V5.02006H32.0891V8.87222C32.0891 9.42369 32.201 9.81572 32.4317 10.0423C32.6555 10.2688 32.9778 10.3853 33.3859 10.3853C33.7019 10.3853 33.9587 10.3425 34.1692 10.2501C34.3801 10.1583 34.5512 10.0423 34.6764 9.88887C34.808 9.74205 34.9002 9.5584 34.9598 9.35003C35.0184 9.14165 35.0451 8.91511 35.0451 8.67041V5.02611H36.5332V11.3036ZM39.0677 9.28898C39.1141 9.69261 39.2782 9.97515 39.5616 10.1401C39.8509 10.2996 40.1935 10.3853 40.5953 10.3853C40.7338 10.3853 40.8915 10.3727 41.0695 10.3546C41.2469 10.3359 41.4179 10.293 41.5698 10.2385C41.7275 10.183 41.8521 10.0973 41.9576 9.98726C42.0567 9.87626 42.1026 9.736 42.0962 9.5584C42.0953 9.47598 42.0761 9.39465 42.0399 9.31971C42.0036 9.24478 41.9511 9.17792 41.8857 9.12349C41.7536 9.00744 41.5895 8.92167 41.3849 8.84801C41.157 8.77323 40.9237 8.71388 40.6869 8.67041C40.4237 8.62147 40.1605 8.56597 39.8909 8.51097C39.6193 8.45533 39.3511 8.38577 39.0874 8.3026C38.8402 8.22755 38.6069 8.11602 38.3964 7.97212C38.1912 7.83654 38.0239 7.65577 37.9089 7.44538C37.7842 7.23095 37.7245 6.96758 37.7245 6.64922C37.7245 6.30613 37.8167 6.0246 37.9947 5.7915C38.1742 5.56035 38.4059 5.37005 38.6729 5.23449C38.9599 5.09082 39.2684 4.98958 39.5877 4.93428C39.9234 4.87929 40.2463 4.84851 40.5489 4.84851C40.8979 4.84851 41.2336 4.88534 41.55 4.95295C41.8565 5.01507 42.1485 5.12908 42.4121 5.28948C42.6689 5.44286 42.8794 5.64468 43.0509 5.88988C43.222 6.13459 43.3275 6.43479 43.3733 6.78393H41.8196C41.7472 6.45346 41.5889 6.22692 41.3327 6.11642C41.0759 6.00038 40.7796 5.94488 40.4503 5.94488C40.3449 5.94488 40.2196 5.95093 40.0753 5.9696C39.9361 5.98712 39.7992 6.01789 39.6666 6.06143C39.5454 6.1037 39.4354 6.1705 39.3442 6.25719C39.3 6.30242 39.2656 6.35547 39.243 6.4133C39.2204 6.47113 39.2101 6.53261 39.2126 6.59422C39.2126 6.76577 39.2782 6.90048 39.4034 7.00442C39.5286 7.10835 39.6932 7.19412 39.8973 7.26778C40.1014 7.33539 40.3321 7.39644 40.5953 7.44538C40.8585 7.49432 41.1281 7.54932 41.4051 7.60482C41.6747 7.65981 41.9379 7.73348 42.2017 7.81269C42.4649 7.89241 42.695 8.0029 42.8996 8.14367C43.1037 8.28443 43.2683 8.45598 43.393 8.66435C43.5182 8.87222 43.5843 9.1356 43.5843 9.44185C43.5843 9.81521 43.4921 10.128 43.3072 10.3914C43.1234 10.6487 42.8863 10.8626 42.5965 11.0221C42.293 11.1876 41.9643 11.3074 41.622 11.3773C41.2737 11.4498 40.9183 11.4867 40.5617 11.4873C40.1624 11.4915 39.7642 11.4462 39.3773 11.3525C39.015 11.2607 38.699 11.126 38.4358 10.9489C38.1757 10.7699 37.9618 10.5374 37.8103 10.2688C37.659 9.99937 37.5796 9.67445 37.5668 9.30108H39.0677V9.28898ZM43.9791 5.02056H45.1049V3.13358H46.593V5.02056H47.9357V6.05487H46.5935V9.41158C46.5935 9.5579 46.5999 9.681 46.6133 9.79099C46.626 9.89543 46.6591 9.98726 46.7054 10.0604C46.7558 10.1373 46.8323 10.1956 46.9223 10.2259C47.0214 10.2627 47.1461 10.2814 47.3176 10.2814C47.4226 10.2814 47.5281 10.2814 47.6336 10.2748C47.7391 10.2688 47.844 10.2567 47.9495 10.232V11.3036C47.7849 11.3223 47.6202 11.3344 47.4689 11.3525C47.3094 11.3701 47.1489 11.3784 46.9883 11.3773C46.5935 11.3773 46.2776 11.3404 46.04 11.2733C45.8034 11.2057 45.6121 11.1018 45.4805 10.9671C45.342 10.8324 45.2567 10.6669 45.204 10.4646C45.1527 10.237 45.1242 10.0054 45.1187 9.77283V6.06647H43.9929V5.01905H43.9796L43.9791 5.02056ZM48.989 5.02056H50.3983V5.87122H50.4249C50.6348 5.50391 50.9247 5.24659 51.2998 5.08766C51.6832 4.92624 52.0987 4.84468 52.5183 4.84851C53.0511 4.84851 53.512 4.93428 53.9073 5.11188C54.3021 5.28343 54.6314 5.52258 54.8946 5.82833C55.1578 6.13459 55.3491 6.48978 55.4807 6.89442C55.6148 7.31535 55.6814 7.75295 55.6783 8.19261C55.6783 8.61491 55.6192 9.0251 55.5004 9.41763C55.3913 9.79626 55.2106 10.153 54.967 10.4706C54.7277 10.7768 54.4168 11.0263 54.0586 11.1997C53.6899 11.3833 53.2621 11.4752 52.7618 11.4752C52.5431 11.4749 52.3249 11.4564 52.1096 11.4197C51.8949 11.383 51.6853 11.3236 51.4847 11.2426C51.2853 11.1638 51.0989 11.0585 50.9311 10.9297C50.7654 10.8046 50.6211 10.656 50.5032 10.4893H50.4766V13.625H48.989V5.01955V5.02056ZM54.1902 8.16789C54.1905 7.8886 54.1507 7.61058 54.0719 7.34145C53.999 7.08645 53.8784 6.84586 53.716 6.63105C53.5619 6.42669 53.3619 6.25715 53.1305 6.13459C52.8819 6.00738 52.6032 5.9421 52.3206 5.94488C51.6951 5.94488 51.2209 6.14669 50.905 6.55134C50.589 6.95547 50.4308 7.49483 50.4308 8.16789C50.4308 8.48625 50.4707 8.7804 50.556 9.04982C50.6412 9.31925 50.76 9.55235 50.9311 9.74811C51.0962 9.94437 51.2934 10.0972 51.5241 10.2072C51.7543 10.3238 52.0244 10.3788 52.327 10.3788C52.6696 10.3788 52.9525 10.3117 53.1896 10.183C53.4192 10.0579 53.617 9.88655 53.7688 9.681C53.9201 9.47263 54.0325 9.23953 54.098 8.97667C54.1586 8.71088 54.1895 8.43979 54.1902 8.16789ZM56.8169 2.6255H58.305V3.9363H56.8169V2.6255ZM56.8169 5.02006H58.305V11.3036H56.8169V5.02006ZM59.6349 2.6255H61.123V11.3036H59.6349V2.6255ZM65.6854 11.4752C65.1451 11.4752 64.6646 11.3894 64.2436 11.2244C63.8401 11.0677 63.4749 10.8341 63.1706 10.5382C62.8747 10.2364 62.6481 9.87972 62.5051 9.49079C62.3485 9.06148 62.2707 8.60996 62.2749 8.15578C62.2749 7.67798 62.3538 7.23751 62.5051 6.83287C62.6482 6.44414 62.8748 6.08768 63.1706 5.78595C63.4599 5.4918 63.8222 5.26526 64.2436 5.09977C64.6646 4.93428 65.1451 4.84851 65.6854 4.84851C66.2251 4.84851 66.7057 4.93428 67.1272 5.09977C67.5486 5.26526 67.904 5.49836 68.2002 5.78595C68.496 6.08757 68.7224 6.44407 68.8652 6.83287C69.0165 7.23701 69.0953 7.67798 69.0953 8.15578C69.0953 8.64014 69.0165 9.08665 68.8652 9.49079C68.7225 9.87978 68.4961 10.2365 68.2002 10.5382C67.9104 10.8324 67.5486 11.0589 67.1272 11.2244C66.7057 11.3894 66.2251 11.4752 65.6854 11.4752ZM65.6854 10.3788C66.0147 10.3788 66.304 10.3117 66.5475 10.183C66.7848 10.0579 66.9896 9.88416 67.1469 9.67445C67.3046 9.46657 67.4165 9.22742 67.4959 8.96405C67.5683 8.70068 67.6077 8.43126 67.6077 8.15578C67.6077 7.88635 67.5683 7.62298 67.4959 7.35356C67.428 7.09799 67.3096 6.85694 67.1469 6.64316C66.9893 6.43544 66.7844 6.26388 66.5475 6.14115C66.304 6.01249 66.0147 5.94488 65.6854 5.94488C65.3561 5.94488 65.0663 6.01249 64.8228 6.14115C64.5874 6.26576 64.3831 6.43699 64.2239 6.64316C64.0635 6.85821 63.9453 7.09884 63.8749 7.35356C63.802 7.61543 63.7643 7.88496 63.7625 8.15578C63.7625 8.43126 63.8025 8.70068 63.8749 8.96405C63.9474 9.22742 64.0657 9.46657 64.2239 9.67445C64.3816 9.88282 64.5793 10.0544 64.8228 10.183C65.0663 10.3177 65.3561 10.3788 65.6854 10.3788ZM69.5301 5.02056H70.6559V3.13358H72.144V5.02056H73.4867V6.05487H72.144V9.41158C72.144 9.5579 72.1504 9.681 72.1632 9.79099C72.1765 9.89543 72.2096 9.98726 72.2559 10.0604C72.3062 10.1374 72.3827 10.1958 72.4728 10.2259C72.5719 10.2627 72.6965 10.2814 72.8681 10.2814C72.9731 10.2814 73.0786 10.2814 73.184 10.2748C73.2895 10.2688 73.3945 10.2567 73.5 10.232V11.3036C73.3354 11.3223 73.1707 11.3344 73.0194 11.3525C72.8599 11.3701 72.6994 11.3784 72.5388 11.3773C72.144 11.3773 71.8275 11.3404 71.5904 11.2733C71.3539 11.2057 71.1626 11.1018 71.031 10.9671C70.893 10.8324 70.8072 10.6669 70.7545 10.4646C70.7033 10.237 70.6747 10.0054 70.6692 9.77283V6.06647H69.5434V5.01905H69.5301V5.02056Z" fill="#282828"/>
<path d="M14.5 5.59345H9.154L7.50272 0.625L5.84558 5.59387L0.5 5.58847L4.8295 8.66195L3.17321 13.625L7.50272 10.5565L11.8272 13.625L10.1759 8.66195L14.5 5.59345Z" fill="#04DA8D"/>
<path d="M10.5472 9.78606L10.1759 8.66195L7.50272 10.5565L10.5472 9.78606Z" fill="#126849"/>
</g>
<defs>
<clipPath id="clip0_2084_636">
<rect width="74" height="14" fill="white" transform="translate(0.5 0.625)"/>
</clipPath>
</defs>
</svg>
