<svg width="60" height="40" viewBox="0 0 60 40" fill="none" xmlns="http://www.w3.org/2000/svg">
<path fill-rule="evenodd" clip-rule="evenodd" d="M12.2511 10.8806C11.4287 10.8806 10.7623 11.5406 10.7623 12.3544C10.7623 13.1682 11.4287 13.8282 12.2511 13.8282C13.0726 13.8282 13.739 13.1682 13.739 12.3544C13.739 11.5406 13.0726 10.8806 12.2511 10.8806Z" fill="url(#paint0_linear_1668_12837)"/>
<path fill-rule="evenodd" clip-rule="evenodd" d="M43.7736 10.8806C42.9521 10.8806 42.2857 11.5406 42.2857 12.3544C42.2857 13.1682 42.9521 13.8282 43.7736 13.8282C44.5951 13.8282 45.2624 13.1682 45.2624 12.3544C45.2624 11.5406 44.5951 10.8806 43.7736 10.8806Z" fill="url(#paint1_linear_1668_12837)"/>
<path fill-rule="evenodd" clip-rule="evenodd" d="M11.0648 29.2376H13.4374V16.0742H11.0648V29.2376Z" fill="url(#paint2_linear_1668_12837)"/>
<path fill-rule="evenodd" clip-rule="evenodd" d="M42.5873 29.2376H44.959V16.0742H42.5873V29.2376Z" fill="url(#paint3_linear_1668_12837)"/>
<path fill-rule="evenodd" clip-rule="evenodd" d="M55.5162 18.4233V16.0741H52.0257V10.9796H49.6532V16.0741H47.7436V18.4233H49.6532V25.4649C49.6532 27.544 51.3612 29.2358 53.461 29.2358H55.5162V26.8866H53.6478C52.693 26.8866 52.0257 26.2057 52.0257 25.2321V18.4233H55.5162Z" fill="url(#paint4_linear_1668_12837)"/>
<path fill-rule="evenodd" clip-rule="evenodd" d="M24.2295 18.4233V16.0741H20.7382V10.9796H18.3666V16.0741H16.4561V18.4233H18.3666V25.4649C18.3666 27.544 20.0745 29.2358 22.1744 29.2358H24.2295V26.8866H22.3603C21.4055 26.8866 20.7382 26.2057 20.7382 25.2321V18.4233H24.2295Z" fill="url(#paint5_linear_1668_12837)"/>
<path fill-rule="evenodd" clip-rule="evenodd" d="M1.91048 13.3602V16.0741H0V18.4234H1.91048V29.2367H4.28214V18.4234H8.10223V16.0741H4.28214V13.361C4.28214 12.3701 4.98005 11.6232 5.90417 11.6232H8.10223V9.27311H6.03656C3.76134 9.27311 1.91048 11.1065 1.91048 13.3602Z" fill="url(#paint6_linear_1668_12837)"/>
<path fill-rule="evenodd" clip-rule="evenodd" d="M33.7162 27.055C31.3384 27.055 29.4103 25.0845 29.4086 22.6527C29.4103 20.221 31.3384 18.2504 33.7162 18.2504C36.094 18.2504 38.0229 20.221 38.0237 22.6527C38.0229 25.0845 36.094 27.055 33.7162 27.055ZM33.9432 15.8491C31.7925 15.8482 30.2906 16.8287 29.3946 17.9447V9.29473H26.9712V29.2366H29.3946V27.3607C30.2906 28.4759 31.7925 29.4564 33.9432 29.4555C37.6949 29.4538 40.448 26.5392 40.448 22.6527C40.448 18.7672 37.6949 15.8508 33.9432 15.8491Z" fill="url(#paint7_linear_1668_12837)"/>
<path fill-rule="evenodd" clip-rule="evenodd" d="M58.5358 28.0608H58.8321C58.9996 28.0608 59.0882 27.9861 59.0882 27.8558C59.0882 27.7256 58.9996 27.65 58.8321 27.65H58.5358V28.0608ZM59.2162 28.8042L58.8348 28.2145H58.5358V28.8042H58.3736V27.4972H58.8374C59.0882 27.4972 59.2556 27.6405 59.2556 27.8558C59.2556 28.0156 59.1644 28.139 59.0057 28.1876L59.4012 28.8042H59.2162ZM59.8352 28.178C59.8352 27.5979 59.4012 27.1645 58.8181 27.1645C58.2359 27.1645 57.8046 27.5979 57.8046 28.178C57.8046 28.7591 58.2359 29.1924 58.8181 29.1924C59.4012 29.1924 59.8352 28.7591 59.8352 28.178ZM57.6397 28.178C57.6397 27.5067 58.1404 27.0108 58.8181 27.0108C59.4959 27.0108 60 27.5067 60 28.178C60 28.8502 59.4959 29.3453 58.8181 29.3453C58.1404 29.3453 57.6397 28.8502 57.6397 28.178Z" fill="url(#paint8_linear_1668_12837)"/>
<path d="M36.4441 37.8626L30.9071 37.8626L27.0424 37.8626C25.3738 37.8625 23.8031 36.934 22.609 35.5044L20.9465 36.8669C22.4078 38.6163 24.5362 39.9999 27.0424 39.9999L30.907 40L36.4441 39.9999C38.9738 39.9999 41.0671 38.595 42.4862 36.8331C43.8998 35.0781 44.7669 32.8259 44.7669 30.8392H42.6092C42.6092 32.2696 41.9567 34.0634 40.7995 35.5001C39.6478 36.9299 38.1191 37.8625 36.4441 37.8626Z" fill="url(#paint9_linear_1668_12837)"/>
<path d="M26.8883 2.13744L32.4253 2.13736L36.2899 2.13744C37.9585 2.13747 39.5292 3.06605 40.7233 4.49562L42.3858 3.13313C40.9246 1.38367 38.7962 0.000133314 36.29 8.68689e-05L32.4253 2.93285e-06L26.8882 8.68689e-05C24.3586 0.00013841 22.2653 1.40501 20.8462 3.16689C19.4326 4.92189 18.5654 7.17407 18.5654 9.16076H20.7232C20.7232 7.73036 21.3757 5.93659 22.5329 4.49988C23.6846 3.07006 25.2132 2.13748 26.8883 2.13744Z" fill="url(#paint10_linear_1668_12837)"/>
<defs>
<linearGradient id="paint0_linear_1668_12837" x1="2.22222" y1="-0.540542" x2="59.0805" y2="36.5449" gradientUnits="userSpaceOnUse">
<stop stop-color="#282828"/>
<stop offset="0.47" stop-color="#282828" stop-opacity="0.76"/>
<stop offset="1" stop-color="#282828"/>
</linearGradient>
<linearGradient id="paint1_linear_1668_12837" x1="2.22222" y1="-0.540542" x2="59.0805" y2="36.5449" gradientUnits="userSpaceOnUse">
<stop stop-color="#282828"/>
<stop offset="0.47" stop-color="#282828" stop-opacity="0.76"/>
<stop offset="1" stop-color="#282828"/>
</linearGradient>
<linearGradient id="paint2_linear_1668_12837" x1="2.22222" y1="-0.540542" x2="59.0805" y2="36.5449" gradientUnits="userSpaceOnUse">
<stop stop-color="#282828"/>
<stop offset="0.47" stop-color="#282828" stop-opacity="0.76"/>
<stop offset="1" stop-color="#282828"/>
</linearGradient>
<linearGradient id="paint3_linear_1668_12837" x1="2.22222" y1="-0.540542" x2="59.0805" y2="36.5449" gradientUnits="userSpaceOnUse">
<stop stop-color="#282828"/>
<stop offset="0.47" stop-color="#282828" stop-opacity="0.76"/>
<stop offset="1" stop-color="#282828"/>
</linearGradient>
<linearGradient id="paint4_linear_1668_12837" x1="2.22222" y1="-0.540542" x2="59.0805" y2="36.5449" gradientUnits="userSpaceOnUse">
<stop stop-color="#282828"/>
<stop offset="0.47" stop-color="#282828" stop-opacity="0.76"/>
<stop offset="1" stop-color="#282828"/>
</linearGradient>
<linearGradient id="paint5_linear_1668_12837" x1="2.22222" y1="-0.540542" x2="59.0805" y2="36.5449" gradientUnits="userSpaceOnUse">
<stop stop-color="#282828"/>
<stop offset="0.47" stop-color="#282828" stop-opacity="0.76"/>
<stop offset="1" stop-color="#282828"/>
</linearGradient>
<linearGradient id="paint6_linear_1668_12837" x1="2.22222" y1="-0.540542" x2="59.0805" y2="36.5449" gradientUnits="userSpaceOnUse">
<stop stop-color="#282828"/>
<stop offset="0.47" stop-color="#282828" stop-opacity="0.76"/>
<stop offset="1" stop-color="#282828"/>
</linearGradient>
<linearGradient id="paint7_linear_1668_12837" x1="2.22222" y1="-0.540542" x2="59.0805" y2="36.5449" gradientUnits="userSpaceOnUse">
<stop stop-color="#282828"/>
<stop offset="0.47" stop-color="#282828" stop-opacity="0.76"/>
<stop offset="1" stop-color="#282828"/>
</linearGradient>
<linearGradient id="paint8_linear_1668_12837" x1="2.22222" y1="-0.540542" x2="59.0805" y2="36.5449" gradientUnits="userSpaceOnUse">
<stop stop-color="#282828"/>
<stop offset="0.47" stop-color="#282828" stop-opacity="0.76"/>
<stop offset="1" stop-color="#282828"/>
</linearGradient>
<linearGradient id="paint9_linear_1668_12837" x1="2.22222" y1="-0.540542" x2="59.0805" y2="36.5449" gradientUnits="userSpaceOnUse">
<stop stop-color="#282828"/>
<stop offset="0.47" stop-color="#282828" stop-opacity="0.76"/>
<stop offset="1" stop-color="#282828"/>
</linearGradient>
<linearGradient id="paint10_linear_1668_12837" x1="2.22222" y1="-0.540542" x2="59.0805" y2="36.5449" gradientUnits="userSpaceOnUse">
<stop stop-color="#282828"/>
<stop offset="0.47" stop-color="#282828" stop-opacity="0.76"/>
<stop offset="1" stop-color="#282828"/>
</linearGradient>
</defs>
</svg>
