<svg width="199" height="44" viewBox="0 0 199 44" fill="none" xmlns="http://www.w3.org/2000/svg">
<path d="M1.4375 40V28.625H4.61719C5.54948 28.625 6.38542 28.8385 7.125 29.2656C7.86458 29.6875 8.4401 30.2943 8.85156 31.0859C9.26823 31.8776 9.47656 32.7786 9.47656 33.7891V34.8359C9.47656 35.8516 9.27083 36.7526 8.85938 37.5391C8.44792 38.3255 7.86719 38.9323 7.11719 39.3594C6.3724 39.7865 5.51562 40 4.54688 40H1.4375ZM2.39844 29.4453V39.1875H4.55469C5.7526 39.1875 6.71354 38.7917 7.4375 38C8.16146 37.2031 8.52344 36.1276 8.52344 34.7734V33.7734C8.52344 32.4661 8.16667 31.4193 7.45312 30.6328C6.73958 29.8464 5.79948 29.4505 4.63281 29.4453H2.39844ZM18.2031 34.5469H12.8828V39.1875H19V40H11.9219V28.625H18.9609V29.4453H12.8828V33.7344H18.2031V34.5469ZM25.2812 35.2656H21.9766V40H21.0078V28.625H24.7031C25.9167 28.625 26.8646 28.9193 27.5469 29.5078C28.2292 30.0964 28.5703 30.9193 28.5703 31.9766C28.5703 32.7057 28.3568 33.349 27.9297 33.9062C27.5026 34.4635 26.9297 34.849 26.2109 35.0625L29.0547 39.8984V40H28.0312L25.2812 35.2656ZM21.9766 34.4453H24.9219C25.7292 34.4453 26.3776 34.2161 26.8672 33.7578C27.3568 33.2995 27.6016 32.7057 27.6016 31.9766C27.6016 31.1745 27.3464 30.5521 26.8359 30.1094C26.3255 29.6667 25.6094 29.4453 24.6875 29.4453H21.9766V34.4453ZM32.4609 28.625L36.6562 38.6641L40.8672 28.625H42.1484V40H41.1875V35.0469L41.2656 29.9688L37.0312 40H36.2891L32.0703 30.0078L32.1484 35.0156V40H31.1875V28.625H32.4609ZM51.3125 36.8125H46.1484L44.9766 40H43.9688L48.2734 28.625H49.1875L53.4922 40H52.4922L51.3125 36.8125ZM46.4453 35.9922H51.0078L48.7266 29.7969L46.4453 35.9922ZM61.875 29.4453H57.9766V40H57.0156V29.4453H53.125V28.625H61.875V29.4453ZM71.9062 34.9297C71.9062 35.9766 71.724 36.8958 71.3594 37.6875C71 38.4792 70.4844 39.0885 69.8125 39.5156C69.1406 39.9427 68.3646 40.1562 67.4844 40.1562C66.1562 40.1562 65.0833 39.6823 64.2656 38.7344C63.4479 37.7812 63.0391 36.4974 63.0391 34.8828V33.7109C63.0391 32.6745 63.2214 31.7578 63.5859 30.9609C63.9557 30.1589 64.4766 29.5443 65.1484 29.1172C65.8203 28.6849 66.5938 28.4688 67.4688 28.4688C68.3438 28.4688 69.1146 28.6797 69.7812 29.1016C70.4531 29.5234 70.9714 30.1198 71.3359 30.8906C71.7005 31.6615 71.8906 32.5547 71.9062 33.5703V34.9297ZM70.9453 33.6953C70.9453 32.3255 70.6354 31.2526 70.0156 30.4766C69.3958 29.7005 68.5469 29.3125 67.4688 29.3125C66.4115 29.3125 65.5677 29.7031 64.9375 30.4844C64.3125 31.2604 64 32.3464 64 33.7422V34.9297C64 36.2786 64.3125 37.349 64.9375 38.1406C65.5625 38.9271 66.4115 39.3203 67.4844 39.3203C68.5729 39.3203 69.4219 38.9323 70.0312 38.1562C70.6406 37.375 70.9453 36.2891 70.9453 34.8984V33.6953ZM75.2969 39.1875H80.9141V40H74.3281V28.625H75.2969V39.1875ZM90.6562 34.9297C90.6562 35.9766 90.474 36.8958 90.1094 37.6875C89.75 38.4792 89.2344 39.0885 88.5625 39.5156C87.8906 39.9427 87.1146 40.1562 86.2344 40.1562C84.9062 40.1562 83.8333 39.6823 83.0156 38.7344C82.1979 37.7812 81.7891 36.4974 81.7891 34.8828V33.7109C81.7891 32.6745 81.9714 31.7578 82.3359 30.9609C82.7057 30.1589 83.2266 29.5443 83.8984 29.1172C84.5703 28.6849 85.3438 28.4688 86.2188 28.4688C87.0938 28.4688 87.8646 28.6797 88.5312 29.1016C89.2031 29.5234 89.7214 30.1198 90.0859 30.8906C90.4505 31.6615 90.6406 32.5547 90.6562 33.5703V34.9297ZM89.6953 33.6953C89.6953 32.3255 89.3854 31.2526 88.7656 30.4766C88.1458 29.7005 87.2969 29.3125 86.2188 29.3125C85.1615 29.3125 84.3177 29.7031 83.6875 30.4844C83.0625 31.2604 82.75 32.3464 82.75 33.7422V34.9297C82.75 36.2786 83.0625 37.349 83.6875 38.1406C84.3125 38.9271 85.1615 39.3203 86.2344 39.3203C87.3229 39.3203 88.1719 38.9323 88.7812 38.1562C89.3906 37.375 89.6953 36.2891 89.6953 34.8984V33.6953ZM101.289 38.6484C100.956 39.1224 100.432 39.4922 99.7188 39.7578C99.0104 40.0234 98.2161 40.1562 97.3359 40.1562C96.4453 40.1562 95.6536 39.9427 94.9609 39.5156C94.2682 39.0885 93.7318 38.4844 93.3516 37.7031C92.9714 36.9219 92.7786 36.026 92.7734 35.0156V33.5781C92.7734 32 93.1719 30.7552 93.9688 29.8438C94.7656 28.9271 95.8359 28.4688 97.1797 28.4688C98.3516 28.4688 99.2943 28.7682 100.008 29.3672C100.721 29.9609 101.146 30.7812 101.281 31.8281H100.32C100.18 30.9948 99.8385 30.3646 99.2969 29.9375C98.7604 29.5052 98.0573 29.2891 97.1875 29.2891C96.125 29.2891 95.2839 29.6667 94.6641 30.4219C94.0443 31.1771 93.7344 32.2422 93.7344 33.6172V34.9609C93.7344 35.8255 93.8802 36.5911 94.1719 37.2578C94.4688 37.9193 94.8906 38.4323 95.4375 38.7969C95.9896 39.1615 96.6224 39.3438 97.3359 39.3438C98.1641 39.3438 98.875 39.2135 99.4688 38.9531C99.8542 38.7812 100.141 38.5807 100.328 38.3516V35.4141H97.2734V34.6016H101.289V38.6484ZM105.188 40H104.227V28.625H105.188V40ZM116.336 36.4531C116.206 37.651 115.776 38.5677 115.047 39.2031C114.323 39.8385 113.357 40.1562 112.148 40.1562C111.305 40.1562 110.557 39.9453 109.906 39.5234C109.26 39.1016 108.76 38.5052 108.406 37.7344C108.052 36.9583 107.872 36.0729 107.867 35.0781V33.6016C107.867 32.5911 108.044 31.6953 108.398 30.9141C108.753 30.1328 109.26 29.5312 109.922 29.1094C110.589 28.6823 111.354 28.4688 112.219 28.4688C113.438 28.4688 114.398 28.7995 115.102 29.4609C115.81 30.1172 116.221 31.026 116.336 32.1875H115.367C115.128 30.2552 114.078 29.2891 112.219 29.2891C111.188 29.2891 110.365 29.6745 109.75 30.4453C109.141 31.2161 108.836 32.2812 108.836 33.6406V35.0312C108.836 36.3438 109.133 37.3906 109.727 38.1719C110.326 38.9531 111.133 39.3438 112.148 39.3438C113.154 39.3438 113.911 39.1042 114.422 38.625C114.932 38.1406 115.247 37.4167 115.367 36.4531H116.336ZM124.812 36.8125H119.648L118.477 40H117.469L121.773 28.625H122.688L126.992 40H125.992L124.812 36.8125ZM119.945 35.9922H124.508L122.227 29.7969L119.945 35.9922ZM129.641 39.1875H135.258V40H128.672V28.625H129.641V39.1875ZM141 40V28.625H144.359C145.578 28.625 146.503 28.8776 147.133 29.3828C147.763 29.8828 148.078 30.6224 148.078 31.6016C148.078 32.1901 147.917 32.7031 147.594 33.1406C147.276 33.5729 146.839 33.8828 146.281 34.0703C146.943 34.2161 147.474 34.5417 147.875 35.0469C148.281 35.5521 148.484 36.1354 148.484 36.7969C148.484 37.8021 148.159 38.5885 147.508 39.1562C146.862 39.7188 145.961 40 144.805 40H141ZM141.961 34.5312V39.1875H144.844C145.667 39.1875 146.318 38.9792 146.797 38.5625C147.281 38.1406 147.523 37.5573 147.523 36.8125C147.523 36.1094 147.292 35.5547 146.828 35.1484C146.37 34.737 145.734 34.5312 144.922 34.5312H141.961ZM141.961 33.7266H144.586C145.388 33.7109 146.008 33.5234 146.445 33.1641C146.888 32.7995 147.109 32.2708 147.109 31.5781C147.109 30.849 146.88 30.3125 146.422 29.9688C145.969 29.6198 145.281 29.4453 144.359 29.4453H141.961V33.7266ZM157.094 34.5469H151.773V39.1875H157.891V40H150.812V28.625H157.852V29.4453H151.773V33.7344H157.094V34.5469ZM166.062 36.8125H160.898L159.727 40H158.719L163.023 28.625H163.938L168.242 40H167.242L166.062 36.8125ZM161.195 35.9922H165.758L163.477 29.7969L161.195 35.9922ZM177.617 28.625V36.3906C177.612 37.1562 177.443 37.8229 177.109 38.3906C176.776 38.9583 176.305 39.3958 175.695 39.7031C175.091 40.0052 174.396 40.1562 173.609 40.1562C172.411 40.1562 171.451 39.8307 170.727 39.1797C170.008 38.5234 169.635 37.6172 169.609 36.4609V28.625H170.562V36.3203C170.562 37.2786 170.836 38.0234 171.383 38.5547C171.93 39.0807 172.672 39.3438 173.609 39.3438C174.547 39.3438 175.286 39.0781 175.828 38.5469C176.375 38.0156 176.648 37.276 176.648 36.3281V28.625H177.617ZM188.016 29.4453H184.117V40H183.156V29.4453H179.266V28.625H188.016V29.4453ZM193.32 34.8281L196.797 28.625H197.906L193.797 35.7188V40H192.836V35.7188L188.734 28.625H189.875L193.32 34.8281Z" fill="black"/>
<path d="M103.185 1.89308H113.654V3.10377H104.988V6.69182H111.505V7.92453H104.988V11.8208H113.677V13.0314H103.208V1.89308H103.185ZM108.639 0.0880503L107.229 1.60692L111.69 0.0880503H108.639ZM129.622 1.89308V13.0535H140.207V11.8428H131.24V1.89308H129.622ZM124.446 8.76101L121.603 3.43396L118.784 8.76101H124.446ZM122.759 1.89308L128.721 13.0535H126.711L125.162 10.1698H118.021L116.496 13.0535H114.486L120.448 1.89308H122.759ZM96.0906 7.04403C96.9919 7.04403 97.8932 6.88994 98.3554 6.14151C98.6327 5.67925 98.7482 5.01887 98.5865 4.51258C98.3323 3.78616 97.5928 3.19182 96.2755 3.19182H90.6137V7.04403H96.0906ZM97.5003 8.38679C98.5402 9.90566 101.082 13.0535 101.082 13.0535H98.9562L95.4205 8.36478H90.6137V13.0535H88.9267V1.89308H96.3217C98.8638 1.89308 100.273 3.12579 100.435 5.12893C100.435 5.81132 100.181 7.7044 97.5003 8.38679ZM86.8007 7.06604C86.8007 11.1824 83.2187 14 78.8048 14C74.3909 14 70.8089 11.1384 70.8089 7.06604C70.832 3.19182 74.0674 0 78.8048 0C83.5191 0 86.8007 3.19182 86.8007 7.06604ZM84.8826 7.06604C84.8826 4.0283 82.3405 1.40881 78.8741 1.40881C75.3384 1.40881 72.7501 4.05031 72.7501 7.06604C72.7501 10.1038 75.4539 12.6132 78.7586 12.6132C82.0401 12.6132 84.8826 10.1038 84.8826 7.06604ZM66.5799 5.83333H67.8047L70.0001 1.89308H68.2207L66.5799 5.83333ZM59 1.89308V13.0535H69.5841V11.8428H60.6408V1.89308H59Z" fill="black"/>
</svg>
