<svg width="23" height="22" viewBox="0 0 23 22" fill="none" xmlns="http://www.w3.org/2000/svg">
<path d="M3.21231 4.37131C3.21231 3.999 3.51412 3.69719 3.88643 3.69719H15.0529C15.8019 3.69719 16.4091 3.09002 16.4091 2.34103C16.4091 1.59204 15.8019 0.984863 15.0529 0.984863H3.88643C2.01615 0.984863 0.5 2.50103 0.5 4.37131V18.5833C0.5 20.4536 2.01615 21.9697 3.88643 21.9697H18.0983C19.9686 21.9697 21.4847 20.4536 21.4847 18.5833V11.4773C21.4847 10.7283 20.8776 10.1211 20.1286 10.1211C19.3796 10.1211 18.7724 10.7283 18.7724 11.4773V18.5833C18.7724 18.9556 18.4706 19.2574 18.0983 19.2574H3.88643C3.51412 19.2574 3.21231 18.9556 3.21231 18.5833V4.37131Z" fill="#6F92F2"/>
<path d="M22.1028 4.31504C22.6324 3.78543 22.6324 2.92675 22.1028 2.39714C21.5732 1.86752 20.7145 1.86752 20.1849 2.39714L10.9925 11.5896L8.90604 9.50312C8.37643 8.97351 7.51775 8.97351 6.98814 9.50312C6.45853 10.0327 6.45853 10.8914 6.98814 11.421L10.0335 14.4665C10.5632 14.9961 11.4218 14.9961 11.9514 14.4665L22.1028 4.31504Z" fill="#6F92F2"/>
</svg>
