<svg viewBox="0 0 60 60" xmlns="http://www.w3.org/2000/svg" xmlns:xlink="http://www.w3.org/1999/xlink" width="60.000000" height="60.000000" fill="none" customFrame="url(#clipPath_14)">
	<defs>
		<linearGradient id="paint_linear_7" x1="11.5384636" x2="50.192318" y1="7.5" y2="54.8076973" gradientUnits="userSpaceOnUse">
			<stop stop-color="rgb(66,57,100)" offset="0" stop-opacity="1" />
			<stop stop-color="rgb(20,11,40)" offset="0.771709144" stop-opacity="1" />
		</linearGradient>
		<clipPath id="clipPath_14">
			<rect width="60.000000" height="60.000000" x="0.000000" y="0.000000" rx="30.000000" fill="rgb(255,255,255)" />
		</clipPath>
		<clipPath id="clipPath_15">
			<rect width="28.000000" height="28.000000" x="16.000000" y="16.000000" fill="rgb(255,255,255)" />
		</clipPath>
	</defs>
	<rect id="icon" width="60.000000" height="60.000000" x="0.000000" y="0.000000" rx="30.000000" fill="url(#paint_linear_7)" />
	<g id="invoice" clip-path="url(#clipPath_15)" customFrame="url(#clipPath_15)">
		<rect id="invoice" width="28.000000" height="28.000000" x="16.000000" y="16.000000" fill="rgb(255,255,255)" fill-opacity="0" />
		<path id="Vector" d="M41.4711 17.2088C41.3747 17.1493 41.2637 17.1177 41.1506 17.1177L22.8738 17.1177C21.3025 17.1177 20.0241 18.3835 20.0241 19.9349L19.9167 35.674L16.6138 35.674C16.2747 35.674 16 35.9488 16 36.2878L16 39.1232C16.0022 41.2054 17.6895 42.8928 19.7717 42.8952C19.8139 42.8952 19.8563 42.8908 19.8978 42.8822L35.1468 42.8822C35.2377 42.8887 35.3293 42.893 35.4216 42.893C37.5361 42.8892 39.2484 41.1745 39.2491 39.0599L39.2491 29.8595L43.3862 29.8595C43.7252 29.8595 43.9999 29.5847 43.9999 29.2457L43.9999 20.1349C43.9925 18.6698 42.9196 17.4281 41.4711 17.2088ZM17.2275 39.1235L17.2275 36.9018L31.594 36.9018L31.594 39.0602C31.5933 40.0218 31.9551 40.9482 32.6074 41.6547L19.6878 41.6547C19.6588 41.655 19.63 41.6571 19.6015 41.6614C18.2663 41.5706 17.2292 40.4617 17.2275 39.1235ZM38.0216 20.1349L38.0216 39.0599C38.0204 39.7461 37.7478 40.4035 37.2633 40.889C36.7994 41.3649 36.1691 41.6427 35.505 41.6638C35.4719 41.6581 35.4384 41.6552 35.4046 41.655L35.1888 41.655C33.852 41.5233 32.8304 40.4037 32.8215 39.0604L32.8215 36.2878C32.8215 35.949 32.5468 35.674 32.2078 35.674L21.1442 35.674L21.2516 19.9392C21.2605 19.0517 21.986 18.3385 22.8738 18.3452L38.6313 18.3452C38.236 18.858 38.0214 19.4873 38.0216 20.1349ZM42.7724 28.632L39.2491 28.632L39.2491 20.1349C39.2652 19.1733 40.0492 18.4025 41.0108 18.4025C41.9724 18.4025 42.7564 19.1733 42.7724 20.1349L42.7724 28.632Z" fill="rgb(255,255,255)" fill-rule="nonzero" />
		<path id="Vector" d="M23.8799 23.767L29.6927 23.767C30.0317 23.767 30.3065 23.4923 30.3065 23.1533C30.3065 22.8143 30.0317 22.5396 29.6927 22.5396L23.8799 22.5396C23.5409 22.5396 23.2661 22.8143 23.2661 23.1533C23.2661 23.4923 23.5409 23.767 23.8799 23.767Z" fill="rgb(255,255,255)" fill-rule="nonzero" />
		<path id="Vector" d="M34.7231 26.9277L23.8799 26.9277C23.5409 26.9277 23.2661 27.2025 23.2661 27.5415C23.2661 27.8802 23.5409 28.1552 23.8799 28.1552L34.7231 28.1552C35.0621 28.1552 35.3368 27.8802 35.3368 27.5415C35.3368 27.2025 35.0621 26.9277 34.7231 26.9277Z" fill="rgb(255,255,255)" fill-rule="nonzero" />
		<path id="Vector" d="M34.7231 31.3159L23.8799 31.3159C23.5409 31.3159 23.2661 31.5909 23.2661 31.9297C23.2661 32.2687 23.5409 32.5434 23.8799 32.5434L34.7231 32.5434C35.0621 32.5434 35.3368 32.2687 35.3368 31.9297C35.3368 31.5909 35.0621 31.3159 34.7231 31.3159Z" fill="rgb(255,255,255)" fill-rule="nonzero" />
	</g>
</svg>
