<svg viewBox="0 0 60 60" xmlns="http://www.w3.org/2000/svg" xmlns:xlink="http://www.w3.org/1999/xlink" width="60.000000" height="60.000000" fill="none" customFrame="url(#clipPath_4)">
	<defs>
		<linearGradient id="paint_linear_2" x1="11.5384636" x2="50.192318" y1="7.5" y2="54.8076973" gradientUnits="userSpaceOnUse">
			<stop stop-color="rgb(66,57,100)" offset="0" stop-opacity="1" />
			<stop stop-color="rgb(20,11,40)" offset="0.771709144" stop-opacity="1" />
		</linearGradient>
		<clipPath id="clipPath_4">
			<rect width="60.000000" height="60.000000" x="0.000000" y="0.000000" rx="30.000000" fill="rgb(255,255,255)" />
		</clipPath>
		<clipPath id="clipPath_5">
			<rect width="28.000000" height="28.000000" x="16.000000" y="16.000000" fill="rgb(255,255,255)" />
		</clipPath>
	</defs>
	<rect id="icon" width="60.000000" height="60.000000" x="0.000000" y="0.000000" rx="30.000000" fill="url(#paint_linear_2)" />
	<g id="security 1" clip-path="url(#clipPath_5)" customFrame="url(#clipPath_5)">
		<rect id="security 1" width="28.000000" height="28.000000" x="16.000000" y="16.000000" fill="rgb(255,255,255)" fill-opacity="0" />
		<path id="Vector" d="M17.5 21.2201L17.5 27.5413C17.4991 34.2438 21.7022 40.3649 27.9601 42.7718C28.4651 42.9662 28.9965 43.0625 29.5279 43.0625C30.0593 43.0625 30.5907 42.9653 31.0966 42.7718L32.0348 42.4103C37.8189 40.1855 41.5567 34.5902 41.5558 28.1567L41.5558 21.2201C41.5558 20.701 41.1452 20.2744 40.627 20.2545C37.1526 20.1196 33.6102 18.75 30.098 16.1855C29.7582 15.9382 29.2976 15.9382 28.9578 16.1855C25.4447 18.75 21.9023 20.1196 18.4288 20.2545C17.9106 20.2744 17.5 20.701 17.5 21.2201ZM19.4331 22.1244C22.8008 21.8063 26.1894 20.4735 29.5279 18.1525C32.8654 20.4735 36.2549 21.8063 39.6227 22.1244L39.6227 28.1567C39.6236 33.7841 36.3729 38.6706 31.3401 40.6056L30.4029 40.9671C29.8384 41.1842 29.2164 41.1842 28.6538 40.9671C23.1378 38.8452 19.4321 33.45 19.4331 27.5413L19.4331 22.1244ZM28.2322 33.8068C27.9755 33.8068 27.7301 33.7049 27.5489 33.5237L24.1292 30.1031C23.7516 29.7255 23.7516 29.1139 24.1292 28.7363C24.5067 28.3588 25.1184 28.3588 25.4959 28.7363L28.2322 31.4736L33.5604 26.1454C33.938 25.7678 34.5496 25.7678 34.9272 26.1454C35.3047 26.5229 35.3047 27.1345 34.9272 27.5121L28.9156 33.5237C28.7344 33.7049 28.489 33.8068 28.2322 33.8068Z" fill="rgb(255,255,255)" fill-rule="evenodd" />
	</g>
</svg>
