<svg viewBox="0 0 60 60" xmlns="http://www.w3.org/2000/svg" xmlns:xlink="http://www.w3.org/1999/xlink" width="60.000000" height="60.000000" fill="none" customFrame="url(#clipPath_12)">
	<defs>
		<linearGradient id="paint_linear_6" x1="11.5384636" x2="50.192318" y1="7.5" y2="54.8076973" gradientUnits="userSpaceOnUse">
			<stop stop-color="rgb(66,57,100)" offset="0" stop-opacity="1" />
			<stop stop-color="rgb(20,11,40)" offset="0.771709144" stop-opacity="1" />
		</linearGradient>
		<clipPath id="clipPath_12">
			<rect width="60.000000" height="60.000000" x="0.000000" y="0.000000" rx="30.000000" fill="rgb(255,255,255)" />
		</clipPath>
		<clipPath id="clipPath_13">
			<rect width="28.000000" height="28.000000" x="16.000000" y="16.000000" fill="rgb(255,255,255)" />
		</clipPath>
	</defs>
	<rect id="icon" width="60.000000" height="60.000000" x="0.000000" y="0.000000" rx="30.000000" fill="url(#paint_linear_6)" />
	<g id="wallet 1" clip-path="url(#clipPath_13)" customFrame="url(#clipPath_13)">
		<rect id="wallet 1" width="28.000000" height="28.000000" x="16.000000" y="16.000000" />
		<path id="Vector" d="M42.3594 29.4119L42.3594 26.1108C42.3594 24.489 41.0689 23.1636 39.4609 23.1058L39.4609 21.0796C39.4609 20.0241 38.6023 19.1655 37.5469 19.1655L32.2773 19.1655L31.5968 17.274C31.4233 16.7917 31.0721 16.4062 30.6079 16.1887C30.1437 15.9712 29.6228 15.948 29.1411 16.1233L19.5788 19.6037C19.0976 19.7788 18.7138 20.1309 18.4979 20.5952C18.2819 21.0595 18.26 21.58 18.4362 22.0608L18.8203 23.1094C17.2489 23.2066 16 24.5153 16 26.1108L16 40.9858C16 42.6443 17.3493 43.9936 19.0078 43.9936L39.3516 43.9936C41.0101 43.9936 42.3594 42.6443 42.3594 40.9858L42.3594 37.5753C43.2857 37.4422 44 36.6437 44 35.6811L44 31.3061C44 30.3436 43.2857 29.545 42.3594 29.4119ZM42.3594 35.6811C42.3594 35.8319 42.2367 35.9546 42.0859 35.9546L37.7109 35.9546C36.354 35.9546 35.25 34.8506 35.25 33.4936C35.25 32.1367 36.354 31.0327 37.7109 31.0327L42.0859 31.0327C42.2367 31.0327 42.3594 31.1553 42.3594 31.3061L42.3594 35.6811ZM19.9767 21.4964C19.9427 21.4037 19.9676 21.3255 19.9855 21.287C20.0033 21.2486 20.0471 21.1791 20.1399 21.1454L29.7022 17.665C29.7951 17.6313 29.8733 17.6564 29.9118 17.6744C29.9502 17.6924 30.0196 17.7365 30.053 17.8294L30.5338 19.1655L30.1641 19.1655C29.1086 19.1655 28.25 20.0242 28.25 21.0796L28.25 23.103L20.5653 23.103L19.9767 21.4964ZM37.8203 21.0796L37.8203 23.103L29.8906 23.103L29.8906 21.0796C29.8906 20.9288 30.0133 20.8061 30.1641 20.8061L37.5469 20.8061C37.6976 20.8061 37.8203 20.9288 37.8203 21.0796ZM39.3516 42.353L19.0078 42.353C18.2539 42.353 17.6406 41.7397 17.6406 40.9858L17.6406 26.1108C17.6406 25.3569 18.2539 24.7436 19.0078 24.7436L39.3516 24.7436C40.1054 24.7436 40.7188 25.3569 40.7188 26.1108L40.7188 29.3921L37.7109 29.3921C35.4493 29.3921 33.6094 31.232 33.6094 33.4936C33.6094 35.7552 35.4493 37.5952 37.7109 37.5952L40.7188 37.5952L40.7188 40.9858C40.7188 41.7397 40.1054 42.353 39.3516 42.353Z" fill="rgb(255,255,255)" fill-rule="nonzero" />
		<path id="Vector" d="M37.7109 34.3135C38.164 34.3135 38.5312 33.9462 38.5312 33.4932C38.5312 33.0401 38.164 32.6729 37.7109 32.6729C37.2579 32.6729 36.8906 33.0401 36.8906 33.4932C36.8906 33.9462 37.2579 34.3135 37.7109 34.3135Z" fill="rgb(255,255,255)" fill-rule="evenodd" />
	</g>
</svg>
