<svg width="96" height="96" viewBox="0 0 96 96" fill="none" xmlns="http://www.w3.org/2000/svg">
<g clip-path="url(#clip0_205_1831)">
<rect width="96" height="96" rx="48" fill="#3579A2"/>
<path fill-rule="evenodd" clip-rule="evenodd" d="M29.74 23.0273C29.6259 23.0506 29.278 23.1214 28.967 23.1846C26.7125 23.642 24.5179 25.506 23.5537 27.7822C22.9855 29.1235 23.0002 28.8336 23.0002 38.6616C23.0002 48.6125 22.9704 48.0605 23.589 49.5411C24.3936 51.4671 26.2556 53.1721 28.2486 53.8079L29.1647 54.1001L29.1672 56.6318C29.1696 59.0057 29.1836 59.1922 29.392 59.6225C29.6229 60.099 30.1888 60.4651 30.7024 60.4701C31.2792 60.4757 31.7562 60.0845 34.6775 57.2105L37.6811 54.2555H41.2471H44.813L44.8535 58.8404C44.8968 63.73 44.8955 63.7178 45.4526 65.0314C46.3712 67.1974 48.3278 68.8912 50.685 69.5608C50.9701 69.6418 51.8683 69.7346 52.681 69.7672L54.1585 69.8262V72.2659C54.1585 74.5485 54.1728 74.7352 54.3808 75.1646C54.7371 75.9 55.6431 76.2115 56.3671 75.8476C56.5496 75.7558 58.0287 74.36 59.654 72.7456L62.6091 69.8106L66.1345 69.7684C68.8835 69.7356 69.774 69.6918 70.1783 69.5699C73.0474 68.7045 75.1296 66.578 75.8398 63.788C76.0534 62.9489 76.0534 48.6705 75.8398 47.8315C75.233 45.4479 73.481 43.385 71.267 42.4475C69.9089 41.8723 70.1195 41.8886 63.4697 41.8486L57.2796 41.8114L57.2424 35.5738C57.2025 28.8721 57.2191 29.0885 56.6431 27.7303C55.8863 25.9458 54.2737 24.3337 52.4995 23.588C51.0812 22.9918 51.7741 23.0252 40.4198 23.0042C34.66 22.9935 29.854 23.0039 29.74 23.0273ZM50.3334 26.1783C52.1956 26.5312 53.6995 28.034 54.0526 29.8949C54.1166 30.2316 54.1585 32.6994 54.1585 36.123V41.7932L52.681 41.8523C51.8683 41.8848 50.9701 41.9777 50.685 42.0587C47.9258 42.8424 45.8479 44.9189 45.0636 47.676C44.9825 47.961 44.8896 48.8585 44.8571 49.6706L44.798 51.1471H40.7632C37.2737 51.1471 36.6837 51.1695 36.3967 51.3128C36.2142 51.4039 35.2133 52.3243 34.1726 53.3581L32.2803 55.2378V53.81C32.2803 52.5783 32.2513 52.3254 32.0692 51.9688C31.8058 51.4529 31.2885 51.2047 30.1884 51.0666C28.1459 50.8103 26.5436 49.3201 26.1649 47.3247C26.0212 46.5676 26.0212 30.6521 26.1649 29.8949C26.5099 28.077 28.023 26.5339 29.803 26.1846C30.4701 26.0537 49.6448 26.0478 50.3334 26.1783ZM39.2386 29.2931C37.3449 29.6647 35.8521 31.285 35.5642 33.2816C35.4624 33.9882 35.4716 34.0885 35.6782 34.5133C36.0698 35.3187 36.9615 35.6056 37.7785 35.1892C38.2385 34.9546 38.6053 34.3577 38.6053 33.8436C38.6053 33.0552 39.3717 32.2894 40.1606 32.2894C41.0352 32.2894 41.8253 33.1765 41.673 33.9877C41.5767 34.5011 41.096 35.0183 40.3423 35.4199C39.5895 35.8207 38.9873 36.5333 38.7628 37.2884C38.6562 37.647 38.6053 38.2661 38.6053 39.2026C38.6053 40.8438 38.7499 41.2654 39.4321 41.6133C39.9603 41.8826 40.3966 41.8773 40.8983 41.5956C41.5371 41.2367 41.7159 40.7486 41.7159 39.3641V38.2151L42.2769 37.8988C43.4469 37.239 44.3688 36.0252 44.6911 34.7204C44.8334 34.1438 44.8446 33.8893 44.7548 33.2668C44.3657 30.5673 41.8778 28.7751 39.2386 29.2931ZM39.41 45.1439C38.9722 45.3749 38.6053 45.9862 38.6053 46.4845C38.6053 46.66 38.6992 46.9876 38.814 47.2125C39.0488 47.6722 39.6461 48.0387 40.1606 48.0387C40.9496 48.0387 41.7159 47.2729 41.7159 46.4845C41.7159 45.9703 41.3492 45.3734 40.8891 45.1388C40.3783 44.8785 39.9103 44.88 39.41 45.1439ZM69.1009 45.0361C70.9631 45.389 72.467 46.8918 72.8202 48.7527C72.9629 49.5042 72.9629 62.1153 72.8202 62.8668C72.467 64.7277 70.9631 66.2305 69.1009 66.5834C68.7912 66.6422 67.0012 66.6892 65.0783 66.6892C62.0913 66.6892 61.5681 66.7123 61.2819 66.8569C61.0994 66.9493 60.1218 67.8451 59.1096 68.8478L57.2692 70.6708V69.2976C57.2692 67.6683 57.1233 67.245 56.4423 66.8978C56.0774 66.7117 55.8327 66.6892 54.1768 66.6892C53.1557 66.6892 52.0693 66.6416 51.7624 66.5834C49.9001 66.2305 48.3962 64.7277 48.0431 62.8668C47.9004 62.1153 47.9004 49.5042 48.0431 48.7527C48.3881 46.9348 49.9012 45.3917 51.6812 45.0424C52.347 44.9117 68.4141 44.9058 69.1009 45.0361ZM67.5861 51.3172C67.415 51.4061 65.5953 53.142 63.5423 55.1746C61.4893 57.2072 59.5883 59.0768 59.3179 59.3293L58.8264 59.7883L57.7626 58.7455C56.6265 57.6317 56.228 57.3639 55.7072 57.3639C54.9614 57.3639 54.1585 58.1662 54.1585 58.9115C54.1585 59.0918 54.2343 59.3885 54.3269 59.5709C54.5511 60.0126 57.4052 62.9053 57.9894 63.2828C58.5163 63.6235 58.9854 63.6635 59.4777 63.4097C59.9025 63.1908 69.3938 53.8223 69.6296 53.3892C70.3149 52.1306 68.8595 50.6548 67.5861 51.3172Z" fill="white"/>
<rect width="96" height="96" rx="48" fill="#B93B95"/>
<path fill-rule="evenodd" clip-rule="evenodd" d="M34.5199 22.1123C34.2666 22.2593 34.0466 22.8163 34.0466 23.3107V23.7165L29.1924 23.7457C24.3402 23.7749 24.338 23.775 23.8081 24.0144C23.1479 24.3126 22.451 25.0442 22.1949 25.7078C22.0049 26.2001 22 26.7828 22 48.9673V71.7218L22.2395 72.1789C22.5658 72.8017 23.119 73.3617 23.7282 73.686L24.2365 73.9566H43.1959H62.1553L62.6746 73.6828C63.3797 73.3111 64.0629 72.5311 64.2752 71.8556C64.432 71.3568 64.4429 69.5834 64.4183 48.6625L64.3918 26.0097L64.121 25.5018C63.7729 24.8489 63.2031 24.3031 62.5619 24.0084C62.0596 23.7776 62.0009 23.7745 57.6061 23.7454L53.1585 23.716V23.1696C53.1585 22.4759 53.099 22.3289 52.7445 22.1458C52.4984 22.0186 51.1766 21.9976 43.5822 22.0002C37.4594 22.0023 34.6492 22.0371 34.5199 22.1123ZM51.4303 26.3144V28.9048H43.6534H35.8765V26.3144V23.7241H43.6534H51.4303V26.3144ZM68.4073 23.8828C67.9521 24.084 67.5234 24.4912 67.2902 24.944C67.1152 25.2837 67.105 26.2916 67.0726 46.336L67.0385 67.3716L68.3329 69.0998L69.6272 70.8281V72.1208V73.4135L69.9244 73.7104C70.2416 74.0274 70.5212 74.0797 70.8793 73.8892C71.3043 73.663 71.3488 73.5011 71.3522 72.1707L71.3554 70.8928L72.6777 69.1305L74 67.3681L73.9739 46.2752L73.9478 25.1822L73.6673 24.7587C73.5131 24.5259 73.1964 24.2092 72.9635 24.0551C72.5437 23.7772 72.5245 23.7746 70.6517 23.7503C69.1284 23.7304 68.6943 23.7561 68.4073 23.8828ZM34.0466 26.3111V27.1712L29.9714 27.1999L25.8961 27.2287L25.6509 27.5137L25.4056 27.7987V48.8792V69.9597L25.7027 70.2566L25.9999 70.5536H43.1959H60.3919L60.6891 70.2566L60.9862 69.9597V48.8657V27.7717L60.6891 27.4748L60.3919 27.1779H56.7752H53.1585V26.3144V25.451L57.3519 25.4512C62.0276 25.4513 62.0142 25.4494 62.4837 26.1517L62.7144 26.4969V48.8657V71.2346L62.4837 71.5797C62.3568 71.7696 62.0937 72.0049 61.8991 72.1025C61.5662 72.2697 60.4627 72.2802 43.1959 72.2802C25.9271 72.2802 24.8259 72.2697 24.4979 72.1025C24.3061 72.0049 24.0545 71.7959 23.9387 71.6381L23.7282 71.3513V48.8657V26.3801L23.9387 26.0933C24.4132 25.4471 24.377 25.4513 29.4465 25.4512L34.0466 25.451V26.3111ZM72.0844 25.6191C72.2492 25.768 72.2704 25.9649 72.2704 27.346V28.9048H70.5422H68.814V27.3375C68.814 26.0482 68.8423 25.7419 68.9737 25.6105C69.2145 25.37 71.8169 25.377 72.0844 25.6191ZM34.0466 29.4178C34.0466 30.1187 34.2594 30.4952 34.7334 30.6327C34.998 30.7095 37.7829 30.7339 43.874 30.7128L52.6338 30.6825L52.8916 30.4404C53.104 30.2411 53.1547 30.0886 53.1794 29.5769L53.2093 28.9556L56.2337 28.9286L59.258 28.9017V48.8642V68.8267H43.1959H27.1338V48.8657V28.9048H30.5902H34.0466V29.4178ZM72.2704 35.406V40.1804H70.5422H68.814V35.406V30.6317H70.5422H72.2704V35.406ZM42.3318 33.3456C42.1641 33.369 41.6651 33.4792 41.2229 33.5907C37.7054 34.4771 34.9027 37.5046 34.2432 41.13C34.0842 42.004 34.1091 43.8524 34.2915 44.7125C34.7487 46.87 35.9584 48.8457 37.6499 50.1981C41.5554 53.3205 47.0849 52.9684 50.4959 49.3802C51.3596 48.4716 51.7331 47.9341 52.2467 46.8604C52.9341 45.4236 53.0955 44.6445 53.0935 42.7708C53.092 41.2971 53.0661 41.0601 52.8156 40.2312C51.7277 36.6309 48.9657 34.1202 45.3357 33.4322C44.5634 33.2858 43.0716 33.2428 42.3318 33.3456ZM45.5849 35.2494C46.3093 35.443 47.4949 35.9877 48.1051 36.4072C50.2804 37.9028 51.5473 40.5246 51.4 43.2261C51.1213 48.3362 46.1404 51.7611 41.2474 50.2069C38.9013 49.4616 37.089 47.6759 36.2535 45.286C35.9904 44.5337 35.9353 44.2049 35.8974 43.1598C35.8412 41.6136 36.0243 40.6903 36.6392 39.4185C37.7417 37.1387 39.831 35.5485 42.3052 35.1059C43.0437 34.9738 44.8491 35.0528 45.5849 35.2494ZM41.5185 36.8439C41.0966 37.0745 41.0611 37.2208 41.0611 38.7269V40.1804H39.6836C38.2547 40.1804 37.8056 40.2832 37.6678 40.6421C37.6331 40.7325 37.6047 41.7319 37.6047 42.8629C37.6047 45.5061 37.4802 45.3439 39.5396 45.3836L41.0102 45.4119L41.0611 46.9078C41.1306 48.9529 41.0197 48.8548 43.3136 48.8998C45.3116 48.9392 45.6674 48.8941 46.0029 48.5588C46.2365 48.3253 46.2457 48.2609 46.2457 46.8386V45.3611H47.7243C49.1587 45.3611 49.2105 45.3537 49.4525 45.1117C49.701 44.8636 49.7021 44.8532 49.7021 42.8184V40.7743L49.4049 40.4773L49.1078 40.1804H47.6767H46.2457V38.7504V37.3205L45.9485 37.0235L45.6514 36.7266L43.6866 36.7297C42.4619 36.7316 41.6453 36.7747 41.5185 36.8439ZM44.5175 39.931C44.5175 41.3644 44.5249 41.4161 44.767 41.6579C45.0091 41.8999 45.0608 41.9073 46.4952 41.9073H47.9739V42.7632V43.6192L46.4908 43.6521C45.009 43.685 45.0075 43.6852 44.7626 43.97C44.5289 44.2418 44.5175 44.3211 44.5175 45.6716V47.088H43.6609H42.8043L42.7714 45.6176C42.7269 43.6326 42.7909 43.6965 40.8044 43.6521L39.3329 43.6192V42.7632V41.9073L40.7815 41.9041C42.7779 41.8996 42.7893 41.8879 42.7893 39.8316V38.4535H43.6534H44.5175V39.931ZM72.2704 44.4977V47.088H70.5422H68.814V44.4977V41.9073H70.5422H72.2704V44.4977ZM72.2704 54.9607V61.0048H70.5422H68.814V54.9607V48.9165H70.5422H72.2704V54.9607ZM29.1161 56.1473C28.7858 56.5396 28.8254 56.9725 29.2234 57.3224C29.4576 57.5285 29.5885 57.551 30.55 57.551C31.6572 57.551 32.1268 57.4238 32.2553 57.0893C32.391 56.7359 32.3144 56.3188 32.0688 56.0735C31.8317 55.8365 31.7589 55.8241 30.6038 55.8241H29.3884L29.1161 56.1473ZM34.4284 56.0249C34.2878 56.1355 34.1515 56.3373 34.1255 56.4735C34.0562 56.8355 34.3025 57.3342 34.6077 57.4502C34.7712 57.5123 36.9431 57.551 40.2622 57.551H45.6514L45.9485 57.2541C46.2657 56.9371 46.3181 56.6577 46.1274 56.2999C45.8723 55.8214 45.9902 55.8307 40.1853 55.8274C34.8562 55.8242 34.676 55.8304 34.4284 56.0249ZM48.4038 55.8921C48.2319 55.9612 47.9739 56.4708 47.9739 56.7411C47.9739 56.8599 48.1076 57.0907 48.271 57.2541L48.5682 57.551H52.7518H56.9355L57.2327 57.2541C57.5498 56.9371 57.6022 56.6577 57.4116 56.2999C57.1592 55.8263 57.1988 55.8303 52.7518 55.8354C50.4315 55.838 48.4748 55.8635 48.4038 55.8921ZM29.4131 60.2324C28.6709 60.5608 28.7555 61.5867 29.544 61.8186C29.8075 61.8961 31.1944 61.9219 33.9285 61.9001L37.9274 61.8683L38.1727 61.5832C38.4861 61.2189 38.4861 60.7907 38.1726 60.4264L37.9274 60.1414L33.8267 60.1177C30.5453 60.0987 29.6636 60.1215 29.4131 60.2324ZM40.6972 60.2347C40.2675 60.4217 40.075 60.8928 40.253 61.322C40.4989 61.9153 40.5365 61.9192 46.1662 61.9184C49.434 61.9181 51.417 61.8793 51.6635 61.8109C51.9524 61.7307 52.0912 61.616 52.2161 61.3544C52.3707 61.0303 52.3707 60.9793 52.2161 60.6553C52.0912 60.3936 51.9524 60.2789 51.6635 60.1988C51.0476 60.0278 41.0977 60.0605 40.6972 60.2347ZM54.7108 60.162C54.4045 60.2211 54.0734 60.6631 54.0734 61.0128C54.0734 61.1698 54.1822 61.4246 54.3153 61.5792C54.5435 61.8443 54.6136 61.8624 55.5631 61.9005C56.318 61.9307 56.6639 61.9013 56.9485 61.7825C57.6586 61.486 57.6995 60.6103 57.0193 60.2685C56.7568 60.1367 56.443 60.0944 55.8016 60.1046C55.3264 60.1121 54.8354 60.1379 54.7108 60.162ZM72.2704 64.7291V66.7265L71.3966 67.8888C70.9161 68.5282 70.4883 69.0121 70.446 68.9643C70.4036 68.9166 70.0191 68.4111 69.5915 67.8411L68.814 66.8049V64.7682V62.7317H70.5422H72.2704V64.7291ZM29.2234 64.6872C28.8254 65.0371 28.7858 65.4701 29.1161 65.8623L29.3884 66.1855H30.6038C31.7589 66.1855 31.8317 66.1731 32.0688 65.9361C32.3144 65.6908 32.391 65.2737 32.2553 64.9203C32.1268 64.5858 31.6572 64.4586 30.55 64.4586C29.5885 64.4586 29.4576 64.4812 29.2234 64.6872ZM34.5761 64.5649C34.298 64.6764 34.0594 65.1907 34.1255 65.5361C34.1515 65.6723 34.2878 65.8742 34.4284 65.9847C34.676 66.1792 34.8562 66.1854 40.1853 66.1823C45.9902 66.1789 45.8723 66.1883 46.1274 65.7097C46.3181 65.3519 46.2657 65.0725 45.9485 64.7555L45.6514 64.4586L40.2302 64.465C37.1857 64.4687 34.707 64.5124 34.5761 64.5649ZM48.271 64.7555C48.1076 64.9189 47.9739 65.1497 47.9739 65.2685C47.9739 65.5629 48.2349 66.0453 48.4359 66.1224C48.5264 66.1571 50.4837 66.1841 52.7856 66.1823C57.1937 66.1789 57.1596 66.1824 57.4116 65.7097C57.6022 65.3519 57.5498 65.0725 57.2327 64.7555L56.9355 64.4586H52.7518H48.5682L48.271 64.7555Z" fill="white"/>
</g>
<defs>
<clipPath id="clip0_205_1831">
<rect width="96" height="96" rx="48" fill="white"/>
</clipPath>
</defs>
</svg>
