<svg width="96" height="96" viewBox="0 0 96 96" fill="none" xmlns="http://www.w3.org/2000/svg">
<rect width="96" height="96" rx="48" fill="#FFBE3D"/>
<path d="M61.8536 23.5996H34.1562" stroke="white" stroke-width="2" stroke-miterlimit="10" stroke-linecap="round"/>
<path d="M61.8536 72.1523H34.1562" stroke="white" stroke-width="2" stroke-miterlimit="10" stroke-linecap="round"/>
<path d="M62.069 43.7617H34.0312" stroke="white" stroke-width="2" stroke-miterlimit="10" stroke-linecap="round"/>
<path d="M62.1648 52H34.0703" stroke="white" stroke-width="2" stroke-miterlimit="10" stroke-linecap="round"/>
<path d="M43.1584 59.5827C37.0591 56.2252 32 52.7438 32 47.9955C32 36.0452 64 32.546 64 18" stroke="white" stroke-width="2" stroke-miterlimit="10" stroke-linecap="round"/>
<path d="M63.9999 78.0001C63.9999 72.366 58.9408 68.353 52.832 64.8184" stroke="white" stroke-width="2" stroke-miterlimit="10" stroke-linecap="round"/>
<path d="M43.1584 31.3323C37.0591 27.7888 32 23.7847 32 18" stroke="white" stroke-width="2" stroke-miterlimit="10" stroke-linecap="round"/>
<path d="M32 78.0006C32 63.8267 64 59.9377 64 47.9873C64 43.2568 58.9692 39.8462 52.8983 36.5508" stroke="white" stroke-width="2" stroke-miterlimit="10" stroke-linecap="round"/>
</svg>
