<svg width="96" height="96" viewBox="0 0 96 96" fill="none" xmlns="http://www.w3.org/2000/svg">
<rect width="96" height="96" rx="48" fill="#3579A2"/>
<path fill-rule="evenodd" clip-rule="evenodd" d="M19.4558 22.2367C18.8429 22.5195 18.4572 22.9202 18.196 23.5458C18.0218 23.9624 18 26.2871 18 44.4034C18 62.5198 18.0218 64.8444 18.196 65.261C18.4572 65.8866 18.8429 66.2874 19.4558 66.5702C19.9359 66.7919 20.5466 66.804 31.2601 66.8067L42.558 66.8095V71.24V75.6706L40.7542 75.6734C38.7001 75.6766 38.1491 75.8333 37.5843 76.5746C37.0939 77.2183 36.9623 77.966 37.0094 79.8412C37.0492 81.4242 37.0679 81.53 37.3503 81.7583C37.639 81.9918 38.0016 82 48.0013 82C58.001 82 58.3636 81.9918 58.6523 81.7583C58.9347 81.53 58.9534 81.4242 58.9932 79.8412C59.0403 77.966 58.9087 77.2183 58.4183 76.5746C57.8535 75.8333 57.3025 75.6766 55.2485 75.6734L53.4446 75.6706V71.24V66.8095L64.7425 66.8067C75.456 66.804 76.0667 66.7919 76.5468 66.5702C77.1597 66.2874 77.5454 65.8866 77.8066 65.261C77.9808 64.8443 78.0023 62.5213 77.9998 44.3758C77.9972 24.7973 77.9874 23.9388 77.7633 23.4532C77.4805 22.8404 77.0798 22.4546 76.4542 22.1934C76.0357 22.0184 72.9747 21.9977 47.9737 22.0002C21.0109 22.0028 19.9431 22.0117 19.4558 22.2367ZM76.0315 23.9685C76.2106 24.1478 76.2304 26.1759 76.2304 44.4034C76.2304 62.6309 76.2106 64.6591 76.0315 64.8384C75.8519 65.018 73.1337 65.0372 48.0013 65.0372C22.8689 65.0372 20.1507 65.018 19.9711 64.8384C19.792 64.6591 19.7722 62.6309 19.7722 44.4034C19.7722 26.1759 19.792 24.1478 19.9711 23.9685C20.1507 23.7889 22.8689 23.7696 48.0013 23.7696C73.1337 23.7696 75.8519 23.7889 76.0315 23.9685ZM21.3133 25.3284L21.0381 25.6215V41.3831V57.1446L21.331 57.4199L21.6241 57.6951H48.019H74.414L74.6893 57.4022L74.9645 57.1092V41.3476V25.586L74.6716 25.3107L74.3785 25.0355H47.9836H21.5886L21.3133 25.3284ZM73.1923 41.3653V55.9229H48.0013H22.8103V41.3653V26.8077H48.0013H73.1923V41.3653ZM43.3341 30.3205C43.174 30.4546 42.7192 31.4868 42.1818 32.9357C41.6937 34.2522 41.2711 35.3524 41.2429 35.3805C41.2148 35.4087 41.0364 34.9654 40.8466 34.3954C40.456 33.2226 40.1892 32.884 39.6557 32.884C39.1315 32.884 38.8981 33.2416 38.2468 35.0415L37.6855 36.5926L37.5365 36.0357C37.4546 35.7295 37.2007 34.6842 36.9723 33.7127C36.5293 31.8285 36.3431 31.4915 35.7443 31.4915C35.2697 31.4915 35.0349 31.7704 34.0125 33.5485L33.1571 35.0359H30.3396C27.79 35.0359 27.4947 35.0581 27.2338 35.2694C26.8419 35.5867 26.8419 36.2574 27.2338 36.5747C27.4967 36.7877 27.7997 36.8082 30.6812 36.8082C32.5799 36.8082 33.936 36.7568 34.0806 36.6794C34.2129 36.6087 34.561 36.1402 34.854 35.6384C35.1471 35.1366 35.404 34.7815 35.4251 34.8494C35.4461 34.9172 35.7252 36.0835 36.0455 37.4411C36.3657 38.7988 36.7102 40.0377 36.8109 40.1944C37.0078 40.5006 37.5771 40.5795 37.9914 40.3577C38.1311 40.2829 38.4763 39.5288 38.8894 38.3956C39.2585 37.3833 39.5966 36.555 39.6407 36.555C39.6849 36.555 39.8783 37.0382 40.0706 37.6288C40.4288 38.7288 40.7148 39.0868 41.2349 39.0868C41.7075 39.0868 42.0061 38.5612 42.8789 36.1933C43.3738 34.8511 43.7715 33.9422 43.8209 34.0413C43.8678 34.1359 44.2111 35.2385 44.5838 36.4917C45.2828 38.8429 45.5422 39.3399 46.0696 39.3399C46.6525 39.3399 46.8244 39.1138 47.367 37.6347L47.9023 36.1752H50.7171C53.2833 36.1752 53.5504 36.1547 53.7414 35.9437C53.9564 35.7062 54.0198 35.0815 53.8541 34.8334C53.6027 34.4568 53.1496 34.403 50.2332 34.403C48.5689 34.403 47.1125 34.4584 46.9275 34.5288C46.7287 34.6044 46.5202 34.8372 46.4054 35.1121C46.3002 35.3638 46.1946 35.5493 46.1707 35.5243C46.1467 35.4994 45.8027 34.3967 45.4061 33.0738C44.8619 31.2583 44.6089 30.5988 44.3741 30.3838C44.0004 30.0417 43.6898 30.0228 43.3341 30.3205ZM26.8175 44.002C26.5605 44.2858 26.5456 44.9027 26.7876 45.2337C26.9632 45.4737 27.2617 45.4802 39.6402 45.5129L52.3131 45.5463L52.6257 45.2339C53.0071 44.8524 53.0208 44.5426 52.6758 44.1041L52.4135 43.7705H39.7202C27.584 43.7705 27.0177 43.7806 26.8175 44.002ZM26.8175 47.5465C26.5605 47.8303 26.5456 48.4472 26.7876 48.7782C26.9643 49.0197 27.3261 49.0239 48.0013 49.0239C68.6765 49.0239 69.0383 49.0197 69.215 48.7782C69.3137 48.643 69.3946 48.3471 69.3946 48.1208C69.3946 47.2514 71.0886 47.315 47.9294 47.315C27.8402 47.315 27.0189 47.3239 26.8175 47.5465ZM26.8175 51.0909C26.6025 51.3284 26.5391 51.9531 26.7048 52.2012C26.9903 52.6286 27.1375 52.6316 48.0013 52.6316C68.8651 52.6316 69.0123 52.6286 69.2978 52.2012C69.474 51.9374 69.3958 51.2794 69.1631 51.0689C68.9497 50.8757 67.2981 50.8594 47.9793 50.8594C27.8418 50.8594 27.0189 50.8684 26.8175 51.0909ZM27.1296 59.2356C25.8869 59.8507 25.4563 61.4577 26.2139 62.6523C26.8709 63.6884 28.1209 64.042 29.2297 63.5053C29.9109 63.1755 30.3521 62.6132 30.5209 61.8596C30.9575 59.9116 28.9314 58.3438 27.1296 59.2356ZM34.7249 59.2356C33.4822 59.8507 33.0515 61.4577 33.8092 62.6523C34.4662 63.6884 35.7162 64.042 36.825 63.5053C37.5062 63.1755 37.9473 62.6132 38.1162 61.8596C38.5528 59.9116 36.5266 58.3438 34.7249 59.2356ZM59.1896 59.2032C58.1947 59.6551 57.6067 60.8695 57.882 61.9042C58.4334 63.9772 61.0639 64.4335 62.1934 62.6523C63.4715 60.6372 61.363 58.2162 59.1896 59.2032ZM66.7849 59.2032C65.7899 59.6551 65.2019 60.8695 65.4772 61.9042C66.0287 63.9772 68.6592 64.4335 69.7887 62.6523C71.0667 60.6372 68.9583 58.2162 66.7849 59.2032ZM44.3523 60.773C43.9953 61.1531 44.0023 61.6315 44.37 61.9771C44.6557 62.2453 44.7476 62.2523 48.019 62.2523C51.3633 62.2523 51.376 62.2513 51.6503 61.9594C52.0073 61.5792 52.0003 61.1009 51.6326 60.7553C51.3469 60.487 51.255 60.4801 47.9836 60.4801C44.6393 60.4801 44.6266 60.4811 44.3523 60.773ZM28.7083 61.0497C28.9003 61.3429 28.9003 61.3895 28.7083 61.6827C28.3629 62.2099 27.6207 62.0082 27.6207 61.3871C27.6207 60.7007 28.3345 60.4793 28.7083 61.0497ZM36.3036 61.0497C36.4956 61.3429 36.4956 61.3895 36.3036 61.6827C35.9581 62.2099 35.2159 62.0082 35.2159 61.3871C35.2159 60.7007 35.9298 60.4793 36.3036 61.0497ZM60.5418 60.8643C60.6983 60.9481 60.7867 61.1291 60.7867 61.3662C60.7867 62.0071 60.0517 62.221 59.699 61.6827C59.507 61.3895 59.507 61.3429 59.699 61.0497C59.9226 60.7087 60.1552 60.6574 60.5418 60.8643ZM68.1371 60.8643C68.2936 60.9481 68.3819 61.1291 68.3819 61.3662C68.3819 62.0071 67.647 62.221 67.2943 61.6827C67.1023 61.3895 67.1023 61.3429 67.2943 61.0497C67.5178 60.7087 67.7505 60.6574 68.1371 60.8643ZM51.6723 71.24V75.6706H48.0013H44.3303V71.24V66.8095H48.0013H51.6723V71.24ZM48.945 69.1456C48.6435 69.447 48.6342 69.5115 48.6342 71.2976C48.6342 72.9701 48.6574 73.162 48.8874 73.392C49.0281 73.5327 49.3093 73.6452 49.5204 73.6452C49.7314 73.6452 50.0127 73.5327 50.1533 73.392C50.3833 73.162 50.4065 72.9701 50.4065 71.2976C50.4065 69.5115 50.3972 69.447 50.0957 69.1456C49.7015 68.7513 49.3392 68.7513 48.945 69.1456ZM57.0451 77.7242C57.1871 77.9269 57.2422 78.3159 57.2422 79.1167V80.2278H48.0013H38.7604V79.1167C38.7604 78.3159 38.8155 77.9269 38.9575 77.7242L39.1545 77.4428H48.0013H56.8481L57.0451 77.7242Z" fill="white"/>
</svg>
