<svg width="96" height="96" viewBox="0 0 96 96" fill="none" xmlns="http://www.w3.org/2000/svg">
<rect width="96" height="96" rx="48" fill="#612794"/>
<path fill-rule="evenodd" clip-rule="evenodd" d="M47.177 21.0973C44.492 21.2934 41.7336 22.0753 39.2033 23.3573C33.4578 26.2683 29.3454 31.5107 27.964 37.6849C27.5673 39.458 27.4106 41.0676 27.4106 43.3686V45.2363L25.3749 48.3465C24.2552 50.0573 23.2639 51.6361 23.172 51.8551C22.8964 52.5115 22.9577 53.5428 23.3147 54.256C23.7108 55.0469 24.0369 55.2866 25.9203 56.1714C26.7689 56.57 27.4766 56.9097 27.4934 56.9262C27.5101 56.943 27.7962 58.4971 28.1292 60.3802C28.9179 64.8407 29.1448 65.4654 30.4846 66.8667C31.2657 67.6836 32.0377 68.1938 33.1049 68.5983C33.8761 68.8907 34.0101 68.9017 37.5319 68.9657C41.5064 69.038 41.6013 69.0553 41.9296 69.7723C42.0108 69.9498 42.2859 71.0798 42.541 72.2837C42.8851 73.908 43.0675 74.535 43.2485 74.715C43.4897 74.9552 43.5955 74.9581 53.6402 74.9921C59.2215 75.0111 63.9652 74.9947 64.1817 74.9558C64.6919 74.8643 65.0383 74.5119 65.0383 74.0844C65.0383 73.8973 64.7139 72.204 64.3175 70.3213C63.7213 67.4896 63.5959 66.6936 63.5917 65.7131C63.58 63.0905 63.9085 62.2673 66.9497 57.2969C69.6248 52.9246 70.3145 51.6033 70.9895 49.5571C71.8368 46.9891 72.0048 45.8421 71.9999 42.6609C71.995 39.5387 71.8625 38.6317 71.0305 36.0308C70.4888 34.3374 69.0943 31.5608 68.0805 30.157C65.4058 26.4532 61.5114 23.5849 57.2327 22.167C54.1421 21.1429 51.0521 20.8141 47.177 21.0973ZM51.7399 22.9878C55.3371 23.2844 58.4511 24.3563 61.4222 26.3208C63.2066 27.5006 65.6227 29.9051 66.8072 31.6798C68.2638 33.8627 69.259 36.2208 69.8184 38.815C70.064 39.9541 70.0983 40.4314 70.0986 42.7201C70.099 44.9858 70.0635 45.4926 69.8281 46.5859C69.1573 49.7022 68.4877 51.1483 65.3344 56.2907C62.3608 61.1402 61.9721 62.0255 61.7169 64.5316C61.5713 65.9613 61.7113 67.2163 62.3572 70.2732C62.653 71.673 62.8949 72.8865 62.8949 72.9695C62.8949 73.0907 61.0898 73.1207 53.788 73.1207H44.681L44.6167 72.854C44.5813 72.7073 44.3966 71.8595 44.2063 70.9699C44.0161 70.0804 43.754 69.147 43.6239 68.8958C43.3263 68.3209 42.7474 67.7744 42.0568 67.4166C41.5372 67.1473 41.409 67.137 37.8267 67.0779L34.1325 67.0168L33.3057 66.6115C32.8511 66.3887 32.2198 65.9482 31.9028 65.6326C30.9133 64.6477 30.7186 64.0609 29.9633 59.7871C29.5948 57.7011 29.2238 55.8854 29.1391 55.7521C29.0538 55.6179 28.1949 55.1444 27.2154 54.6915C25.1271 53.726 24.91 53.5644 24.91 52.9758C24.91 52.6193 25.278 51.9856 27.0831 49.2334L29.2562 45.9202L29.3285 43.0757C29.3753 41.2344 29.4709 39.8452 29.5998 39.1366C30.7241 32.9532 34.5671 27.7903 40.113 25.0126C43.5386 23.2969 47.3787 22.6281 51.7399 22.9878ZM47.7523 25.8257C45.309 26.2709 43.1886 27.408 41.5306 29.1623C39.8888 30.8994 39.0959 33.0606 39.2323 35.4267C39.3582 37.6097 40.1533 39.3441 41.7618 40.9447C43.4085 42.5834 45.3548 43.3788 47.7227 43.3808C49.519 43.3824 50.8544 43.0039 52.3342 42.0737C54.7966 40.5257 55.9469 37.9331 55.3289 35.3236C54.4594 31.652 50.4053 29.7205 46.9667 31.3397C45.2298 32.1577 44.2861 33.4314 44.2848 34.9598C44.2833 36.8877 45.7537 38.333 47.7086 38.3248C49.3863 38.3178 50.8494 37.2329 50.3755 36.3472C50.0357 35.7123 49.4117 35.6148 48.7759 36.0977C47.3671 37.1671 45.5782 35.715 46.387 34.1583C46.6113 33.7264 47.4211 33.1353 48.1581 32.8653C48.9046 32.5917 50.1913 32.6216 51.0049 32.9312C53.4099 33.8465 54.3363 36.8394 52.8882 39.0154C52.2314 40.0023 50.6841 40.9992 49.2717 41.3453C48.4393 41.5493 46.7663 41.5202 45.9863 41.2883C44.1615 40.7455 42.5583 39.4148 41.786 37.8015C40.1021 34.2844 41.6177 30.4752 45.459 28.5702C46.6947 27.9575 47.5701 27.7308 49.0227 27.648C52.8426 27.43 56.2036 29.4643 57.8369 32.9826C58.4086 34.2142 58.6193 35.2228 58.6171 36.717C58.6138 38.9505 57.8852 40.9577 56.4729 42.6244C55.9282 43.2671 55.7504 43.5674 55.7504 43.8447C55.7504 44.2971 56.2129 44.7942 56.634 44.7942C57.5651 44.7942 59.4949 42.0065 60.1616 39.6979C60.4826 38.5866 60.6145 35.9186 60.4034 34.8079C59.5993 30.5769 56.4563 27.1627 52.3568 26.0671C51.2963 25.7837 48.7237 25.6488 47.7523 25.8257ZM32.0403 44.6766C31.7274 44.8585 31.5491 45.4139 31.6874 45.776C31.9903 46.5687 33.6839 47.2832 35.2605 47.2832C37.7038 47.2832 39.6896 45.8644 38.6685 44.8482C38.2806 44.4619 37.9519 44.4811 37.0524 44.9424C36.3754 45.2897 36.2 45.3276 35.2715 45.3276C34.3403 45.3276 34.1708 45.2906 33.5035 44.9424C32.746 44.547 32.3779 44.4802 32.0403 44.6766Z" fill="white"/>
</svg>
