<svg width="96" height="96" viewBox="0 0 96 96" fill="none" xmlns="http://www.w3.org/2000/svg">
<rect width="96" height="96" rx="48" fill="#C92C99"/>
<path fill-rule="evenodd" clip-rule="evenodd" d="M46.9042 20.1899C46.7676 20.2942 46.5958 20.5913 46.5221 20.8497C46.3323 21.5168 46.3682 25.277 46.5699 25.87C46.8902 26.8104 48.1098 26.8104 48.4301 25.87C48.6318 25.277 48.6677 21.5168 48.4779 20.8497C48.3199 20.2948 47.9806 20 47.5 20C47.309 20 47.0409 20.0854 46.9042 20.1899ZM38.0837 22.3254C37.9866 22.3649 37.8108 22.5847 37.6931 22.8141C37.489 23.2121 37.5086 23.3209 38.1269 25.2171C38.5109 26.3954 38.888 27.3031 39.0538 27.4484C39.6568 27.9774 40.6918 27.5316 40.6918 26.743C40.6918 26.04 39.5793 22.8851 39.2122 22.5469C38.8876 22.248 38.4745 22.1669 38.0837 22.3254ZM55.7878 22.5469C55.4207 22.8851 54.3082 26.04 54.3082 26.743C54.3082 27.5316 55.3432 27.9774 55.9462 27.4484C56.112 27.3031 56.4891 26.3954 56.8731 25.2171C57.489 23.3282 57.5103 23.2107 57.309 22.8183C56.9651 22.1479 56.3418 22.0367 55.7878 22.5469ZM30.3037 26.8584C29.9398 27.0057 29.6666 27.619 29.7735 28.0485C29.8141 28.2112 30.2194 28.7021 30.6741 29.1393C31.6131 30.0421 32.0966 30.1597 32.6089 29.6102C33.1411 29.0391 33.0114 28.5884 32.031 27.6001C31.1542 26.7163 30.9117 26.6122 30.3037 26.8584ZM62.9972 27.5592C61.9651 28.558 61.82 29.0704 62.4106 29.6298C62.9799 30.1688 63.4235 30.0365 64.4232 29.0288C65.254 28.1914 65.3146 28.089 65.2305 27.6652C65.1163 27.09 64.9131 26.8833 64.3501 26.7699C63.9449 26.6881 63.8246 26.7584 62.9972 27.5592ZM44.999 30.157C40.9452 30.5123 38.9433 30.8175 36.3151 31.4807C27.9612 33.5888 20.5675 37.77 14.1878 43.9937C12.3949 45.7428 12 46.4659 12 48C12 49.573 12.3931 50.2718 14.3301 52.1425C22.3709 59.9087 31.9336 64.4448 42.8454 65.669C44.8142 65.89 50.1858 65.89 52.1546 65.669C63.14 64.4366 72.8002 59.8314 80.8122 52.0077C82.6051 50.2568 83 49.5335 83 48C83 46.4665 82.6051 45.7432 80.8122 43.9923C72.9883 36.3522 63.3134 31.6474 52.9188 30.4282C51.0878 30.2133 46.2469 30.0477 44.999 30.157ZM49.3757 32.3302C58.8797 33.5041 65.2103 43.093 62.5621 52.3037C60.1558 60.6732 51.4375 65.5788 43.2301 63.1816C34.9197 60.7542 30.0575 51.9756 32.4379 43.6963C34.5879 36.218 41.7798 31.3919 49.3757 32.3302ZM36.593 33.8819C35.535 34.7142 33.533 36.8828 32.7983 37.9927C30.7455 41.093 29.7989 44.2513 29.7989 48C29.7989 51.7421 30.708 54.7946 32.7498 57.9066C33.5721 59.1602 35.456 61.2226 36.593 62.1141L37.1487 62.5498L36.3151 62.3374C28.843 60.4322 21.3862 56.1608 15.6366 50.4921C14.0608 48.9384 13.8778 48.584 14.079 47.4748C14.1565 47.0474 14.4465 46.6812 15.6366 45.5079C20.8865 40.3318 27.7464 36.1994 34.3699 34.2228C36.0113 33.7331 36.9427 33.4682 37.0793 33.4527C37.1175 33.4484 36.8986 33.6415 36.593 33.8819ZM61.3943 34.4382C67.8589 36.5544 74.4342 40.6189 79.4797 45.6178C80.9288 47.0534 81.1191 47.4377 80.9202 48.5252C80.8429 48.947 80.5596 49.3119 79.4799 50.3808C74.0873 55.7181 67.3009 59.7911 60.3346 61.8709C57.7058 62.6557 57.7672 62.6474 58.407 62.1288C59.6049 61.1578 61.4414 59.1392 62.2347 57.9215C64.3114 54.7336 65.1969 51.7682 65.1969 48C65.1969 44.2465 64.2927 41.2064 62.2502 38.0934C61.4299 36.8428 59.5515 34.7855 58.407 33.8839L57.8513 33.446L59.1712 33.7943C59.8972 33.9859 60.8976 34.2756 61.3943 34.4382ZM46.1768 38.0469C42.8953 38.5716 40.1874 40.5002 38.6845 43.3827C37.2303 46.1721 37.201 49.6728 38.6085 52.4831C39.187 53.6383 39.7407 53.8854 40.4646 53.3115C40.9451 52.9306 40.9369 52.4482 40.4321 51.4105C39.8748 50.2649 39.6571 49.2453 39.674 47.86C39.7258 43.6124 43.1469 40.1642 47.3611 40.112C48.7355 40.0949 49.7471 40.3143 50.8837 40.8761C51.9133 41.3848 52.3918 41.3931 52.7697 40.9088C53.3385 40.18 53.0939 39.6211 51.9519 39.0401C50.3135 38.2064 47.8399 37.7811 46.1768 38.0469ZM54.4713 42.7223C54.1219 43.0973 54.0776 43.7443 54.3723 44.1685C54.484 44.3293 54.7438 44.9578 54.9496 45.5652C55.8791 48.3087 55.1228 51.494 53.0447 53.5886C50.9665 55.6833 47.8062 56.4455 45.0843 55.5086C44.4817 55.3012 43.8582 55.0394 43.6987 54.9268C42.7452 54.2537 41.5517 55.2655 42.0941 56.287C42.2775 56.6322 43.8948 57.406 45.138 57.7431C46.4624 58.1021 48.6492 58.0729 50.0642 57.6772C53.5407 56.705 56.1377 54.0817 57.1072 50.5627C57.4904 49.1719 57.5156 46.9561 57.1634 45.6192C56.835 44.3735 56.0661 42.737 55.7218 42.5513C55.2701 42.3076 54.7977 42.3723 54.4713 42.7223ZM30.5769 66.9712C29.746 67.8086 29.6854 67.911 29.7695 68.3348C29.8841 68.9122 30.0869 69.1167 30.6598 69.2322C31.0802 69.3169 31.1818 69.2559 32.0127 68.4184C33.0275 67.3954 33.1633 66.9136 32.5894 66.3702C32.0201 65.8312 31.5765 65.9635 30.5769 66.9712ZM62.3911 66.3898C61.8563 66.9637 61.9876 67.4108 62.9873 68.4184C63.8182 69.2559 63.9198 69.3169 64.3402 69.2322C64.9131 69.1167 65.1159 68.9122 65.2305 68.3348C65.3146 67.911 65.254 67.8086 64.4232 66.9712C63.4082 65.9483 62.9302 65.8115 62.3911 66.3898ZM39.0538 68.5516C38.888 68.6969 38.5109 69.6046 38.1269 70.7829C37.511 72.6718 37.4897 72.7893 37.691 73.1817C38.0349 73.8521 38.6582 73.9633 39.2122 73.4531C39.5793 73.1149 40.6918 69.96 40.6918 69.257C40.6918 68.4684 39.6568 68.0226 39.0538 68.5516ZM54.6124 68.592C54.444 68.75 54.3082 69.0471 54.3082 69.257C54.3082 69.96 55.4207 73.1149 55.7878 73.4531C56.3421 73.9636 56.968 73.8203 57.3512 73.0953C57.4982 72.8172 57.4322 72.4976 56.8738 70.7846C56.4892 69.605 56.112 68.6969 55.9462 68.5516C55.5727 68.2239 54.9854 68.2417 54.6124 68.592ZM46.9149 69.575C46.5295 69.8016 46.3901 70.635 46.3893 72.7189C46.3882 75.3712 46.601 76 47.5 76C48.399 76 48.6118 75.3712 48.6107 72.7189C48.6099 70.5952 48.4689 69.7897 48.0588 69.5686C47.7286 69.3903 47.2243 69.3932 46.9149 69.575Z" fill="white"/>
</svg>
