<svg width="96" height="96" viewBox="0 0 96 96" fill="none" xmlns="http://www.w3.org/2000/svg">
<rect width="96" height="96" rx="48" fill="#FFBE3D"/>
<path fill-rule="evenodd" clip-rule="evenodd" d="M29.74 23.0273C29.6259 23.0506 29.278 23.1214 28.967 23.1846C26.7125 23.642 24.5179 25.506 23.5537 27.7822C22.9855 29.1235 23.0002 28.8336 23.0002 38.6616C23.0002 48.6125 22.9704 48.0605 23.589 49.5411C24.3936 51.4671 26.2556 53.1721 28.2486 53.8079L29.1647 54.1001L29.1672 56.6318C29.1696 59.0057 29.1836 59.1922 29.392 59.6225C29.6229 60.099 30.1888 60.4651 30.7024 60.4701C31.2792 60.4757 31.7562 60.0845 34.6775 57.2105L37.6811 54.2555H41.2471H44.813L44.8535 58.8404C44.8968 63.73 44.8955 63.7178 45.4526 65.0314C46.3712 67.1974 48.3278 68.8912 50.685 69.5608C50.9701 69.6418 51.8683 69.7346 52.681 69.7672L54.1585 69.8262V72.2659C54.1585 74.5485 54.1728 74.7352 54.3808 75.1646C54.7371 75.9 55.6431 76.2115 56.3671 75.8476C56.5496 75.7558 58.0287 74.36 59.654 72.7456L62.6091 69.8106L66.1345 69.7684C68.8835 69.7356 69.774 69.6918 70.1783 69.5699C73.0474 68.7045 75.1296 66.578 75.8398 63.788C76.0534 62.9489 76.0534 48.6705 75.8398 47.8315C75.233 45.4479 73.481 43.385 71.267 42.4475C69.9089 41.8723 70.1195 41.8886 63.4697 41.8486L57.2796 41.8114L57.2424 35.5738C57.2025 28.8721 57.2191 29.0885 56.6431 27.7303C55.8863 25.9458 54.2737 24.3337 52.4995 23.588C51.0812 22.9918 51.7741 23.0252 40.4198 23.0042C34.66 22.9935 29.854 23.0039 29.74 23.0273ZM50.3334 26.1783C52.1956 26.5312 53.6995 28.034 54.0526 29.8949C54.1166 30.2316 54.1585 32.6994 54.1585 36.123V41.7932L52.681 41.8523C51.8683 41.8848 50.9701 41.9777 50.685 42.0587C47.9258 42.8424 45.8479 44.9189 45.0636 47.676C44.9825 47.961 44.8896 48.8585 44.8571 49.6706L44.798 51.1471H40.7632C37.2737 51.1471 36.6837 51.1695 36.3967 51.3128C36.2142 51.4039 35.2133 52.3243 34.1726 53.3581L32.2803 55.2378V53.81C32.2803 52.5783 32.2513 52.3254 32.0692 51.9688C31.8058 51.4529 31.2885 51.2047 30.1884 51.0666C28.1459 50.8103 26.5436 49.3201 26.1649 47.3247C26.0212 46.5676 26.0212 30.6521 26.1649 29.8949C26.5099 28.077 28.023 26.5339 29.803 26.1846C30.4701 26.0537 49.6448 26.0478 50.3334 26.1783ZM39.2386 29.2931C37.3449 29.6647 35.8521 31.285 35.5642 33.2816C35.4624 33.9882 35.4716 34.0885 35.6782 34.5133C36.0698 35.3187 36.9615 35.6056 37.7785 35.1892C38.2385 34.9546 38.6053 34.3577 38.6053 33.8436C38.6053 33.0552 39.3717 32.2894 40.1606 32.2894C41.0352 32.2894 41.8253 33.1765 41.673 33.9877C41.5767 34.5011 41.096 35.0183 40.3423 35.4199C39.5895 35.8207 38.9873 36.5333 38.7628 37.2884C38.6562 37.647 38.6053 38.2661 38.6053 39.2026C38.6053 40.8438 38.7499 41.2654 39.4321 41.6133C39.9603 41.8826 40.3966 41.8773 40.8983 41.5956C41.5371 41.2367 41.7159 40.7486 41.7159 39.3641V38.2151L42.2769 37.8988C43.4469 37.239 44.3688 36.0252 44.6911 34.7204C44.8334 34.1438 44.8446 33.8893 44.7548 33.2668C44.3657 30.5673 41.8778 28.7751 39.2386 29.2931ZM39.41 45.1439C38.9722 45.3749 38.6053 45.9862 38.6053 46.4845C38.6053 46.66 38.6992 46.9876 38.814 47.2125C39.0488 47.6722 39.6461 48.0387 40.1606 48.0387C40.9496 48.0387 41.7159 47.2729 41.7159 46.4845C41.7159 45.9703 41.3492 45.3734 40.8891 45.1388C40.3783 44.8785 39.9103 44.88 39.41 45.1439ZM69.1009 45.0361C70.9631 45.389 72.467 46.8918 72.8202 48.7527C72.9629 49.5042 72.9629 62.1153 72.8202 62.8668C72.467 64.7277 70.9631 66.2305 69.1009 66.5834C68.7912 66.6422 67.0012 66.6892 65.0783 66.6892C62.0913 66.6892 61.5681 66.7123 61.2819 66.8569C61.0994 66.9493 60.1218 67.8451 59.1096 68.8478L57.2692 70.6708V69.2976C57.2692 67.6683 57.1233 67.245 56.4423 66.8978C56.0774 66.7117 55.8327 66.6892 54.1768 66.6892C53.1557 66.6892 52.0693 66.6416 51.7624 66.5834C49.9001 66.2305 48.3962 64.7277 48.0431 62.8668C47.9004 62.1153 47.9004 49.5042 48.0431 48.7527C48.3881 46.9348 49.9012 45.3917 51.6812 45.0424C52.347 44.9117 68.4141 44.9058 69.1009 45.0361ZM67.5861 51.3172C67.415 51.4061 65.5953 53.142 63.5423 55.1746C61.4893 57.2072 59.5883 59.0768 59.3179 59.3293L58.8264 59.7883L57.7626 58.7455C56.6265 57.6317 56.228 57.3639 55.7072 57.3639C54.9614 57.3639 54.1585 58.1662 54.1585 58.9115C54.1585 59.0918 54.2343 59.3885 54.3269 59.5709C54.5511 60.0126 57.4052 62.9053 57.9894 63.2828C58.5163 63.6235 58.9854 63.6635 59.4777 63.4097C59.9025 63.1908 69.3938 53.8223 69.6296 53.3892C70.3149 52.1306 68.8595 50.6548 67.5861 51.3172Z" fill="white"/>
</svg>
