<svg width="382" height="141" viewBox="0 0 382 141" fill="none" xmlns="http://www.w3.org/2000/svg">
<path d="M133.04 75.0923L122.692 107.697L115.797 107.952L111.453 86.3399L111.361 86.3433L104.121 108.384L97.2257 108.639L91.2088 76.6396L97.4606 76.4083L101.403 98.3576L101.494 98.3542L108.861 75.9867L115.388 75.7452L119.787 97.5856L119.879 97.5822L126.788 75.3236L133.04 75.0923ZM156.712 74.2168L163.148 73.9787L161.153 103.421L155.612 106.71L141.224 107.242L136.1 104.347L138.095 74.9054L144.531 74.6673L142.75 101.201L154.932 100.751L156.712 74.2168ZM168.79 105.992L170.955 73.6899L177.391 73.4519L175.573 100.217L186.559 99.811L186.212 105.348L168.79 105.992ZM198.631 91.0789L197.716 104.922L191.28 105.16L193.446 72.8581L213.166 72.1287L212.773 77.667L199.488 78.1584L199.024 85.5405L209.551 85.1512L209.158 90.6895L198.631 91.0789ZM225.852 103.881L219.094 104.131L233.235 77.0022L233.232 76.9103L222.889 77.2928L222.628 81.4453L216.192 81.6833L216.847 71.9925L240.98 71.0999L240.719 75.2524L225.852 103.881ZM254.582 102.819L247.824 103.069L261.965 75.9395L261.962 75.8476L251.619 76.2302L251.358 80.3826L244.923 80.6207L245.577 70.9299L269.711 70.0372L269.45 74.1897L254.582 102.819ZM283.312 101.756L276.555 102.006L290.696 74.8769L290.692 74.7849L280.349 75.1675L280.089 79.32L273.653 79.558L274.307 69.8672L298.441 68.9746L298.18 73.127L283.312 101.756Z" fill="white"/>
<path d="M123.34 45.3234L124.282 31.279L131.257 31.021L133.485 32.2795L133.085 38.2384L130.676 39.6684L125.7 39.8525L125.339 45.2495L123.34 45.3234ZM126.167 33.0105L125.813 38.0471L131.109 37.8512L131.463 32.8146L126.167 33.0105ZM141.222 39.0782L138.204 39.1899L137.83 44.7875L135.832 44.8614L136.773 30.817L143.948 30.5516L146.176 31.8101L145.789 37.5684L143.38 38.9984L146.225 44.477L144.006 44.5591L141.222 39.0782ZM138.658 32.5485L138.317 37.3844L143.813 37.1811L144.155 32.3452L138.658 32.5485ZM159.495 42.7453L157.086 44.1753L151.23 44.3919L149.002 43.1334L149.796 31.5762L152.204 30.1462L158.06 29.9296L160.288 31.1881L159.495 42.7453ZM151.751 31.9642L151.024 42.5983L157.519 42.3581L158.247 31.7239L151.751 31.9642ZM175.212 43.4048L175.97 31.969L175.93 31.9705L171.055 43.5586L169.056 43.6325L165.717 32.3482L165.677 32.3497L164.919 43.7855L163.02 43.8558L163.962 29.8114L166.78 29.7071L170.189 41.269L170.229 41.2675L175.234 29.3944L178.052 29.2902L177.11 43.3346L175.212 43.4048ZM191.27 41.57L188.861 43L183.005 43.2166L180.777 41.9581L181.571 30.4009L183.98 28.9709L189.836 28.7543L192.064 30.0128L191.27 41.57ZM183.526 30.7889L182.799 41.423L189.295 41.1828L190.022 30.5486L183.526 30.7889ZM204.711 42.5139C203.659 42.5528 202.744 42.3664 201.969 41.9548C201.193 41.5432 200.583 40.9387 200.14 40.1412C199.71 39.3299 199.474 38.3646 199.433 37.2454C199.401 36.3926 199.469 35.5228 199.637 34.636C199.804 33.7492 200.073 32.9054 200.443 32.1045C200.827 31.3031 201.315 30.5846 201.905 29.949C202.508 29.2996 203.216 28.7797 204.029 28.3894C204.841 27.9991 205.767 27.7847 206.807 27.7463C207.486 27.7212 208.115 27.7646 208.693 27.8767C209.271 27.9887 209.811 28.1689 210.314 28.4171L209.649 29.9227C209.282 29.7495 208.87 29.6046 208.412 29.4882C207.967 29.3578 207.451 29.3035 206.865 29.3252C206.066 29.3548 205.358 29.5277 204.743 29.844C204.127 30.1603 203.596 30.5803 203.148 31.1038C202.714 31.6269 202.356 32.2205 202.073 32.8848C201.791 33.5357 201.59 34.2302 201.47 34.9685C201.35 35.6934 201.303 36.4156 201.33 37.1352C201.375 38.3477 201.717 39.2957 202.356 39.9792C203.008 40.6489 203.88 40.9635 204.973 40.9231C205.519 40.9029 206.05 40.8299 206.566 40.7041C207.095 40.5778 207.609 40.4186 208.109 40.2267L208.167 41.7856C207.654 41.9914 207.133 42.1574 206.604 42.2837C206.088 42.4095 205.457 42.4863 204.711 42.5139ZM222.284 40.4229L219.875 41.8529L214.019 42.0695L211.791 40.811L212.585 29.2538L214.993 27.8238L220.849 27.6072L223.078 28.8657L222.284 40.4229ZM214.54 29.6417L213.813 40.2759L220.308 40.0356L221.036 29.4015L214.54 29.6417ZM236.392 39.801L233.984 41.231L225.809 41.5334L226.751 27.489L234.925 27.1866L237.153 28.4451L236.392 39.801ZM228.636 29.2205L227.921 39.654L234.417 39.4137L235.132 28.9802L228.636 29.2205ZM242.326 34.6181L242.013 39.1328L247.989 38.9117L247.876 40.7172L239.901 41.0121L240.843 26.9677L248.817 26.6728L248.704 28.4782L242.728 28.6992L242.44 32.8127L247.216 32.636L247.103 34.4414L242.326 34.6181ZM250.875 40.6062L251.064 37.5972L254.062 37.4863L253.873 40.4953L250.875 40.6062ZM251.336 33.5844L251.545 30.5746L254.542 30.4637L254.334 33.4735L251.336 33.5844Z" fill="white"/>
<rect x="35.9834" y="60.6666" width="300" height="59.8665" rx="29.9332" transform="rotate(-1.47445 35.9834 60.6666)" stroke="url(#paint0_linear_1_248)" stroke-width="3"/>
<defs>
<linearGradient id="paint0_linear_1_248" x1="49.4453" y1="122.072" x2="347.843" y2="26.2045" gradientUnits="userSpaceOnUse">
<stop stop-color="#ED2620"/>
<stop offset="1" stop-color="white" stop-opacity="0"/>
</linearGradient>
</defs>
</svg>
