<svg width="55" height="75" viewBox="0 0 55 75" fill="none" xmlns="http://www.w3.org/2000/svg">
<path fill-rule="evenodd" clip-rule="evenodd" d="M54.8976 1.93901C54.7285 1.25331 54.4851 0.884808 53.9122 0.447412C53.1641 -0.123812 51.9649 -0.134512 51.1412 0.422786C50.8247 0.63694 45.403 5.46852 39.0929 11.1598C32.783 16.8511 27.5692 21.5075 27.5068 21.5075C27.4445 21.5075 22.2307 16.8511 15.9207 11.1598C9.61064 5.46852 4.20213 0.64544 3.90155 0.441693C3.12312 -0.0859962 2.26722 -0.142283 1.44779 0.280454C0.621185 0.707003 0.174065 1.37204 0.0566482 2.34944C0.00643146 2.76866 -0.0143588 6.50865 0.0105319 10.6605C0.0531341 17.7798 0.0715782 18.2357 0.33467 18.6709C0.70127 19.2773 25.5848 41.7107 26.3656 42.1387C27.056 42.5171 27.7417 42.5579 28.4475 42.2627C29.0385 42.0154 53.89 19.6984 54.5187 18.8503L54.9579 18.2578L54.9819 10.3183C54.9951 5.9515 54.9571 2.18087 54.8976 1.93901ZM54.8157 34.1867C54.5724 33.5032 53.7273 32.7061 53.0997 32.5681C52.8587 32.5151 52.3751 32.5148 52.0252 32.5673C51.2601 32.6822 52.3275 31.7614 38.2795 44.4249C32.4077 49.7178 27.5591 54.0483 27.5046 54.0483C27.4502 54.0483 22.2402 49.3898 15.9267 43.6962C9.61342 38.0026 4.22394 33.1721 3.95016 32.9617C3.53861 32.6455 3.29573 32.5788 2.54832 32.5768C1.78174 32.5747 1.56257 32.6367 1.10608 32.985C0.00511022 33.8251 0.0557694 33.3632 0.055769 42.5598L0.0557687 50.7865L0.421781 51.2952C0.966993 52.0531 26.0221 74.5759 26.5793 74.8089C27.1882 75.0637 27.8254 75.0637 28.4343 74.8089C28.9914 74.576 54.0465 52.0534 54.5919 51.2954L54.9579 50.7866L54.9911 42.7798C55.0186 36.1582 54.9882 34.6716 54.8157 34.1867Z" fill="#C5C9FE"/>
</svg>
