<svg width="14" height="14" viewBox="0 0 14 14" fill="none" xmlns="http://www.w3.org/2000/svg">
<g clip-path="url(#clip0_2498_5391)">
<path d="M9.55914 8.20234C9.55914 5.81136 9.55914 3.41969 9.55914 1.02734C9.55914 0.457045 9.75061 0.263515 10.3188 0.259398L13.0344 0.259398C13.5883 0.263516 13.7941 0.479692 13.7941 1.0294L13.7941 5.80175C13.7941 6.60058 13.7941 7.40214 13.7941 8.20646C13.7941 8.76646 13.5883 8.9744 13.0344 8.9744H10.3209C9.75884 8.9744 9.55914 8.77263 9.55914 8.20234Z" fill="#909090"/>
<path d="M0.205917 5.16763C0.229569 4.95519 0.310692 4.75323 0.440562 4.58345C0.570431 4.41368 0.744132 4.28253 0.942977 4.2041L0.881211 4.14028C0.771349 4.01908 0.688039 3.87625 0.636629 3.72095C0.585218 3.56566 0.566844 3.40133 0.582683 3.23852C0.613862 2.98445 0.725992 2.74717 0.902485 2.56178C1.07898 2.37639 1.31046 2.25273 1.56268 2.2091C1.45538 2.0902 1.37397 1.95028 1.32364 1.79822C1.27331 1.64617 1.25516 1.48531 1.27033 1.32587C1.30406 1.02894 1.44716 0.755215 1.67173 0.558051C1.8963 0.360888 2.18624 0.254419 2.48504 0.259399L4.08268 0.259399C4.78886 0.259399 5.52386 0.259399 6.23621 0.259399L6.30621 0.259399C7.28147 0.28749 8.2452 0.478148 9.15768 0.823516C9.14981 0.89185 9.14637 0.960621 9.14739 1.0294C9.14739 3.42312 9.14739 5.81479 9.14739 8.2044C9.14669 8.31127 9.15496 8.41802 9.17209 8.52352L8.90239 8.75822C8.81592 8.83028 8.72945 8.9044 8.64503 8.98057C8.07886 9.47675 7.51062 10.0244 7.31298 10.7841C7.24285 11.0963 7.20695 11.4153 7.20592 11.7353C7.20592 11.9 7.19356 12.0647 7.18121 12.2273C7.18121 12.3035 7.16886 12.3776 7.16268 12.4538C7.15419 12.6852 7.12106 12.915 7.06386 13.1394C6.94856 13.5265 6.60268 13.7468 6.1168 13.7468C5.90367 13.7568 5.69276 13.6996 5.51393 13.5833C5.3351 13.4669 5.1974 13.2972 5.12033 13.0982C4.75445 12.1702 4.66786 11.1554 4.87121 10.1788C4.95974 9.76705 5.07709 9.35528 5.21298 8.9641C5.27268 8.77057 5.33445 8.57499 5.39209 8.3794H1.91268C1.61687 8.3826 1.33027 8.27664 1.10768 8.08179C0.885096 7.88693 0.742159 7.61686 0.706211 7.32322C0.690903 7.16028 0.709727 6.99593 0.761482 6.84066C0.813236 6.6854 0.896786 6.54263 1.0068 6.42146L1.02739 6.39881C0.827372 6.33661 0.647564 6.22219 0.506505 6.06734C0.396223 5.94676 0.312484 5.80438 0.260705 5.64939C0.208926 5.49441 0.19026 5.33028 0.205917 5.16763Z" fill="#909090"/>
</g>
<defs>
<clipPath id="clip0_2498_5391">
<rect width="14" height="14" fill="white" transform="translate(14 14) rotate(-180)"/>
</clipPath>
</defs>
</svg>
