<svg width="28" height="29" viewBox="0 0 28 29" fill="none" xmlns="http://www.w3.org/2000/svg">
<path fill-rule="evenodd" clip-rule="evenodd" d="M17.1246 1.70288L22.7829 4.12784C22.9679 4.20708 23.0812 4.37902 23.0812 4.58021V9.22892C23.0812 12.8793 20.4676 15.6971 16.9308 16.3136C13.394 15.697 10.7804 12.8793 10.7804 9.22892V4.58021C10.7804 4.37902 10.8937 4.20708 11.0787 4.12784L16.737 1.70288C16.8653 1.64787 16.9962 1.64787 17.1246 1.70288ZM2.50069 19.4445C2.22993 19.4841 2.04257 19.7356 2.08211 20.0064C2.12171 20.2772 2.37327 20.4645 2.64403 20.4249C2.91479 20.3853 3.10214 20.1338 3.06255 19.863C3.02301 19.5923 2.77145 19.405 2.50069 19.4445ZM3.51771 18.5081L7.59735 25.7164C7.79461 26.065 7.67079 26.5115 7.32227 26.7088L5.93463 27.4942C5.58611 27.6914 5.13953 27.5677 4.94227 27.2191L0.862637 20.0107C0.665379 19.6621 0.789192 19.2156 1.13772 19.0184L2.52536 18.2331C2.87388 18.0357 3.32046 18.1595 3.51771 18.5081ZM12.0705 20.4709C11.8373 20.4086 11.6989 20.1692 11.7611 19.936C11.8234 19.7029 12.0629 19.5644 12.296 19.6267C13.4195 19.9277 14.5272 20.2818 15.6687 20.5125C16.2529 20.5839 16.7408 20.4053 16.9036 19.7978C17.052 19.2437 16.7029 18.7208 16.1791 18.54C14.27 18.1908 12.6387 17.4819 10.8299 16.8954C9.83357 16.5722 8.88442 17.004 8.03064 17.4986L4.959 19.2782L7.54632 23.8497L7.76343 23.7244C7.86493 23.6549 7.99503 23.6284 8.12317 23.6627L14.943 25.4901C15.8054 25.7212 16.631 25.6169 17.394 25.1472L26.7956 19.3581C27.2828 19.0581 27.3476 18.2427 27.0587 17.7773C26.427 16.7594 24.6933 17.5942 23.9634 18.0193L18.7823 21.037C17.6927 21.6715 16.7578 21.6171 15.5584 21.3801L12.0705 20.4709ZM14.5211 9.37871L15.8611 10.7187C16.0947 10.9523 16.4737 10.9523 16.7074 10.7187C17.8555 9.57055 18.1994 9.2112 19.3421 8.05708C19.5746 7.8234 19.5735 7.44551 19.3398 7.21309C19.1061 6.98066 18.7282 6.9817 18.4958 7.21544L16.2833 9.44822L15.3673 8.53237C15.1337 8.29869 14.7547 8.29869 14.521 8.53237C14.2873 8.76605 14.2873 9.14498 14.5211 9.37871ZM16.9308 4.63298C14.5374 4.63298 12.5971 6.5733 12.5971 8.9667C12.5971 11.36 14.5374 13.3004 16.9308 13.3004C19.3241 13.3004 21.2645 11.3601 21.2645 8.9667C21.2645 6.57335 19.3242 4.63298 16.9308 4.63298Z" fill="#282828"/>
</svg>
