<svg width="16" height="16" viewBox="0 0 16 16" fill="none" xmlns="http://www.w3.org/2000/svg">
<path fill-rule="evenodd" clip-rule="evenodd" d="M10.5416 6.18448C10.5416 8.59085 8.59085 10.5416 6.18448 10.5416C3.77812 10.5416 1.82737 8.59085 1.82737 6.18448C1.82737 3.77812 3.77812 1.82737 6.18448 1.82737C8.59085 1.82737 10.5416 3.77812 10.5416 6.18448ZM9.74689 10.7739C8.76314 11.5386 7.52699 11.994 6.18448 11.994C2.976 11.994 0.375 9.39297 0.375 6.18448C0.375 2.976 2.976 0.375 6.18448 0.375C9.39297 0.375 11.994 2.976 11.994 6.18448C11.994 7.52699 11.5386 8.76314 10.7739 9.74689L15.4122 14.3853C15.6958 14.6688 15.6958 15.1286 15.4122 15.4122C15.1286 15.6958 14.6688 15.6958 14.3853 15.4122L9.74689 10.7739Z" fill="#0B0B0B"/>
</svg>
