<svg width="663" height="109" viewBox="0 0 663 109" fill="none" xmlns="http://www.w3.org/2000/svg">
<path d="M18.928 88.184V105.176H16.6V90.248H8.464V105.176H6.136V88.184H18.928ZM25.4551 103.136H34.2631V105.176H23.1751V88.184H33.9271V90.224H25.4551V95.384H33.3991V97.352H25.4551V103.136ZM37.4719 88.184H42.6319C43.5119 88.184 44.3199 88.28 45.0559 88.472C45.7919 88.648 46.4239 88.928 46.9519 89.312C47.4799 89.696 47.8879 90.184 48.1759 90.776C48.4639 91.368 48.6079 92.072 48.6079 92.888C48.6079 93.704 48.4559 94.416 48.1519 95.024C47.8479 95.616 47.4239 96.112 46.8799 96.512C46.3519 96.896 45.7119 97.184 44.9599 97.376C44.2239 97.568 43.4239 97.664 42.5599 97.664H39.7999V105.176H37.4719V88.184ZM39.7999 95.744H42.4159C43.6159 95.744 44.5519 95.512 45.2239 95.048C45.9119 94.584 46.2559 93.872 46.2559 92.912C46.2559 91.92 45.9119 91.208 45.2239 90.776C44.5359 90.344 43.6079 90.128 42.4399 90.128H39.7999V95.744ZM54.0254 103.136H62.8334V105.176H51.7454V88.184H62.4974V90.224H54.0254V95.384H61.9694V97.352H54.0254V103.136ZM66.0183 105.176V108.512H63.8822V103.112H66.1863L71.8263 88.184H74.0823L79.6503 103.112H82.0023V108.512H79.8423V105.176H66.0183ZM68.5623 103.112H77.2263L72.8823 90.8L68.5623 103.112ZM101.129 96.656C101.129 97.968 100.905 99.176 100.457 100.28C100.009 101.368 99.3846 102.312 98.5846 103.112C97.7846 103.896 96.8326 104.512 95.7286 104.96C94.6406 105.392 93.4566 105.608 92.1766 105.608C90.8966 105.608 89.7046 105.392 88.6006 104.96C87.5126 104.512 86.5686 103.896 85.7686 103.112C84.9686 102.312 84.3446 101.368 83.8966 100.28C83.4486 99.176 83.2246 97.968 83.2246 96.656C83.2246 95.344 83.4486 94.144 83.8966 93.056C84.3446 91.968 84.9686 91.032 85.7686 90.248C86.5686 89.464 87.5126 88.856 88.6006 88.424C89.7046 87.976 90.8966 87.752 92.1766 87.752C93.4566 87.752 94.6406 87.976 95.7286 88.424C96.8326 88.856 97.7846 89.464 98.5846 90.248C99.3846 91.032 100.009 91.968 100.457 93.056C100.905 94.144 101.129 95.344 101.129 96.656ZM98.6566 96.656C98.6566 95.728 98.5046 94.856 98.2006 94.04C97.8966 93.208 97.4646 92.48 96.9046 91.856C96.3446 91.232 95.6646 90.736 94.8646 90.368C94.0646 90 93.1686 89.816 92.1766 89.816C91.1846 89.816 90.2886 90 89.4886 90.368C88.6886 90.736 88.0086 91.232 87.4486 91.856C86.8886 92.48 86.4566 93.208 86.1526 94.04C85.8486 94.856 85.6966 95.728 85.6966 96.656C85.6966 97.6 85.8486 98.488 86.1526 99.32C86.4566 100.152 86.8886 100.88 87.4486 101.504C88.0086 102.128 88.6886 102.624 89.4886 102.992C90.2886 103.344 91.1846 103.52 92.1766 103.52C93.1686 103.52 94.0646 103.344 94.8646 102.992C95.6646 102.624 96.3446 102.128 96.9046 101.504C97.4646 100.88 97.8966 100.152 98.2006 99.32C98.5046 98.488 98.6566 97.6 98.6566 96.656ZM104.503 88.184H109.999C110.639 88.184 111.287 88.256 111.943 88.4C112.615 88.528 113.215 88.76 113.743 89.096C114.271 89.416 114.703 89.856 115.039 90.416C115.375 90.976 115.543 91.68 115.543 92.528C115.543 93.44 115.271 94.224 114.727 94.88C114.199 95.536 113.487 95.976 112.591 96.2V96.248C113.135 96.312 113.631 96.456 114.079 96.68C114.543 96.888 114.943 97.168 115.279 97.52C115.615 97.872 115.879 98.296 116.071 98.792C116.263 99.272 116.359 99.808 116.359 100.4C116.359 101.168 116.199 101.848 115.879 102.44C115.575 103.032 115.135 103.536 114.559 103.952C113.999 104.352 113.327 104.656 112.543 104.864C111.759 105.072 110.903 105.176 109.975 105.176H104.503V88.184ZM106.783 95.456H109.951C110.351 95.456 110.751 95.408 111.151 95.312C111.551 95.216 111.903 95.064 112.207 94.856C112.511 94.648 112.759 94.376 112.951 94.04C113.143 93.688 113.239 93.264 113.239 92.768C113.239 92.288 113.143 91.888 112.951 91.568C112.775 91.232 112.519 90.96 112.183 90.752C111.847 90.528 111.455 90.368 111.007 90.272C110.559 90.176 110.071 90.128 109.543 90.128H106.783V95.456ZM106.783 103.232H109.783C110.327 103.232 110.855 103.184 111.367 103.088C111.879 102.976 112.327 102.8 112.711 102.56C113.111 102.32 113.423 102.016 113.647 101.648C113.887 101.264 114.007 100.792 114.007 100.232C114.007 99.224 113.647 98.48 112.927 98C112.223 97.52 111.247 97.28 109.999 97.28H106.783V103.232ZM136.941 96.656C136.941 97.968 136.717 99.176 136.269 100.28C135.821 101.368 135.197 102.312 134.397 103.112C133.597 103.896 132.645 104.512 131.541 104.96C130.453 105.392 129.269 105.608 127.989 105.608C126.709 105.608 125.517 105.392 124.413 104.96C123.325 104.512 122.381 103.896 121.581 103.112C120.781 102.312 120.157 101.368 119.709 100.28C119.261 99.176 119.037 97.968 119.037 96.656C119.037 95.344 119.261 94.144 119.709 93.056C120.157 91.968 120.781 91.032 121.581 90.248C122.381 89.464 123.325 88.856 124.413 88.424C125.517 87.976 126.709 87.752 127.989 87.752C129.269 87.752 130.453 87.976 131.541 88.424C132.645 88.856 133.597 89.464 134.397 90.248C135.197 91.032 135.821 91.968 136.269 93.056C136.717 94.144 136.941 95.344 136.941 96.656ZM134.469 96.656C134.469 95.728 134.317 94.856 134.013 94.04C133.709 93.208 133.277 92.48 132.717 91.856C132.157 91.232 131.477 90.736 130.677 90.368C129.877 90 128.981 89.816 127.989 89.816C126.997 89.816 126.101 90 125.301 90.368C124.501 90.736 123.821 91.232 123.261 91.856C122.701 92.48 122.269 93.208 121.965 94.04C121.661 94.856 121.509 95.728 121.509 96.656C121.509 97.6 121.661 98.488 121.965 99.32C122.269 100.152 122.701 100.88 123.261 101.504C123.821 102.128 124.501 102.624 125.301 102.992C126.101 103.344 126.997 103.52 127.989 103.52C128.981 103.52 129.877 103.344 130.677 102.992C131.477 102.624 132.157 102.128 132.717 101.504C133.277 100.88 133.709 100.152 134.013 99.32C134.317 98.488 134.469 97.6 134.469 96.656ZM144.54 83.336C144.764 83.896 145.132 84.36 145.644 84.728C146.172 85.096 146.78 85.28 147.468 85.28C148.188 85.28 148.796 85.096 149.292 84.728C149.804 84.36 150.172 83.896 150.396 83.336L151.836 84.056C151.708 84.424 151.508 84.776 151.236 85.112C150.98 85.448 150.668 85.744 150.3 86C149.932 86.24 149.508 86.432 149.028 86.576C148.548 86.72 148.028 86.792 147.468 86.792C146.908 86.792 146.388 86.72 145.908 86.576C145.444 86.432 145.02 86.24 144.636 86C144.268 85.744 143.956 85.448 143.7 85.112C143.444 84.776 143.244 84.424 143.1 84.056L144.54 83.336ZM151.788 88.184H154.644V105.176H152.316V91.448H152.268L143.148 105.176H140.316V88.184H142.644C142.644 90.472 142.636 92.744 142.62 95C142.62 97.24 142.62 99.504 142.62 101.792H142.692L151.788 88.184ZM177.694 88.184V105.176H175.366V90.248H167.23V105.176H164.902V88.184H177.694ZM181.941 88.184H187.101C187.981 88.184 188.789 88.28 189.525 88.472C190.261 88.648 190.893 88.928 191.421 89.312C191.949 89.696 192.357 90.184 192.645 90.776C192.933 91.368 193.077 92.072 193.077 92.888C193.077 93.704 192.925 94.416 192.621 95.024C192.317 95.616 191.893 96.112 191.349 96.512C190.821 96.896 190.181 97.184 189.429 97.376C188.693 97.568 187.893 97.664 187.029 97.664H184.269V105.176H181.941V88.184ZM184.269 95.744H186.885C188.085 95.744 189.021 95.512 189.693 95.048C190.381 94.584 190.725 93.872 190.725 92.912C190.725 91.92 190.381 91.208 189.693 90.776C189.005 90.344 188.077 90.128 186.909 90.128H184.269V95.744ZM213.23 96.656C213.23 97.968 213.006 99.176 212.558 100.28C212.11 101.368 211.486 102.312 210.686 103.112C209.886 103.896 208.934 104.512 207.83 104.96C206.742 105.392 205.558 105.608 204.278 105.608C202.998 105.608 201.806 105.392 200.702 104.96C199.614 104.512 198.67 103.896 197.87 103.112C197.07 102.312 196.446 101.368 195.998 100.28C195.55 99.176 195.326 97.968 195.326 96.656C195.326 95.344 195.55 94.144 195.998 93.056C196.446 91.968 197.07 91.032 197.87 90.248C198.67 89.464 199.614 88.856 200.702 88.424C201.806 87.976 202.998 87.752 204.278 87.752C205.558 87.752 206.742 87.976 207.83 88.424C208.934 88.856 209.886 89.464 210.686 90.248C211.486 91.032 212.11 91.968 212.558 93.056C213.006 94.144 213.23 95.344 213.23 96.656ZM210.758 96.656C210.758 95.728 210.606 94.856 210.302 94.04C209.998 93.208 209.566 92.48 209.006 91.856C208.446 91.232 207.766 90.736 206.966 90.368C206.166 90 205.27 89.816 204.278 89.816C203.286 89.816 202.39 90 201.59 90.368C200.79 90.736 200.11 91.232 199.55 91.856C198.99 92.48 198.558 93.208 198.254 94.04C197.95 94.856 197.798 95.728 197.798 96.656C197.798 97.6 197.95 98.488 198.254 99.32C198.558 100.152 198.99 100.88 199.55 101.504C200.11 102.128 200.79 102.624 201.59 102.992C202.39 103.344 203.286 103.52 204.278 103.52C205.27 103.52 206.166 103.344 206.966 102.992C207.766 102.624 208.446 102.128 209.006 101.504C209.566 100.88 209.998 100.152 210.302 99.32C210.606 98.488 210.758 97.6 210.758 96.656ZM226.037 88.784C227.205 88.88 228.285 89.136 229.277 89.552C230.269 89.968 231.125 90.52 231.845 91.208C232.565 91.896 233.125 92.704 233.525 93.632C233.925 94.544 234.125 95.56 234.125 96.68C234.125 97.8 233.925 98.824 233.525 99.752C233.125 100.68 232.565 101.488 231.845 102.176C231.125 102.864 230.269 103.416 229.277 103.832C228.285 104.248 227.205 104.504 226.037 104.6V106.52H223.757V104.6C222.573 104.504 221.477 104.248 220.469 103.832C219.477 103.416 218.621 102.864 217.901 102.176C217.181 101.488 216.613 100.68 216.197 99.752C215.797 98.824 215.597 97.8 215.597 96.68C215.597 95.56 215.797 94.536 216.197 93.608C216.613 92.68 217.181 91.88 217.901 91.208C218.621 90.52 219.477 89.968 220.469 89.552C221.477 89.136 222.573 88.88 223.757 88.784V87.008H226.037V88.784ZM218.093 96.68C218.093 97.448 218.221 98.168 218.477 98.84C218.733 99.496 219.101 100.08 219.581 100.592C220.061 101.104 220.653 101.528 221.357 101.864C222.061 102.2 222.861 102.416 223.757 102.512V90.872C222.861 90.968 222.061 91.184 221.357 91.52C220.653 91.84 220.061 92.264 219.581 92.792C219.101 93.304 218.733 93.896 218.477 94.568C218.221 95.224 218.093 95.928 218.093 96.68ZM231.653 96.68C231.653 95.928 231.525 95.224 231.269 94.568C231.013 93.896 230.645 93.304 230.165 92.792C229.685 92.28 229.093 91.856 228.389 91.52C227.701 91.184 226.917 90.968 226.037 90.872V102.488C226.917 102.392 227.701 102.176 228.389 101.84C229.093 101.504 229.685 101.08 230.165 100.568C230.645 100.056 231.013 99.472 231.269 98.816C231.525 98.144 231.653 97.432 231.653 96.68ZM239.697 103.136H248.505V105.176H237.417V88.184H248.169V90.224H239.697V95.384H247.641V97.352H239.697V103.136ZM266.186 102.536C265.882 102.968 265.514 103.368 265.082 103.736C264.65 104.104 264.162 104.432 263.618 104.72C263.09 104.992 262.498 105.208 261.842 105.368C261.202 105.528 260.506 105.608 259.754 105.608C258.458 105.608 257.266 105.392 256.178 104.96C255.09 104.512 254.146 103.896 253.346 103.112C252.562 102.312 251.946 101.368 251.498 100.28C251.05 99.176 250.826 97.976 250.826 96.68C250.826 95.368 251.05 94.168 251.498 93.08C251.962 91.992 252.594 91.056 253.394 90.272C254.194 89.472 255.138 88.856 256.226 88.424C257.314 87.976 258.498 87.752 259.778 87.752C260.386 87.752 260.986 87.816 261.578 87.944C262.186 88.056 262.754 88.224 263.282 88.448C263.826 88.672 264.322 88.952 264.77 89.288C265.218 89.608 265.594 89.976 265.898 90.392L264.122 91.88C263.754 91.336 263.186 90.856 262.418 90.44C261.666 90.024 260.802 89.816 259.826 89.816C258.818 89.816 257.914 90 257.114 90.368C256.314 90.736 255.634 91.232 255.074 91.856C254.514 92.48 254.082 93.208 253.778 94.04C253.474 94.872 253.322 95.752 253.322 96.68C253.322 97.624 253.474 98.512 253.778 99.344C254.082 100.16 254.514 100.88 255.074 101.504C255.634 102.128 256.314 102.624 257.114 102.992C257.914 103.344 258.81 103.52 259.802 103.52C260.746 103.52 261.618 103.336 262.418 102.968C263.234 102.584 263.906 102 264.434 101.216L266.186 102.536ZM283.319 102.536C283.015 102.968 282.647 103.368 282.215 103.736C281.783 104.104 281.295 104.432 280.751 104.72C280.223 104.992 279.631 105.208 278.975 105.368C278.335 105.528 277.639 105.608 276.887 105.608C275.591 105.608 274.399 105.392 273.311 104.96C272.223 104.512 271.279 103.896 270.479 103.112C269.695 102.312 269.079 101.368 268.631 100.28C268.183 99.176 267.959 97.976 267.959 96.68C267.959 95.368 268.183 94.168 268.631 93.08C269.095 91.992 269.727 91.056 270.527 90.272C271.327 89.472 272.271 88.856 273.359 88.424C274.447 87.976 275.631 87.752 276.911 87.752C277.519 87.752 278.119 87.816 278.711 87.944C279.319 88.056 279.887 88.224 280.415 88.448C280.959 88.672 281.455 88.952 281.903 89.288C282.351 89.608 282.727 89.976 283.031 90.392L281.255 91.88C280.887 91.336 280.319 90.856 279.551 90.44C278.799 90.024 277.935 89.816 276.959 89.816C275.951 89.816 275.047 90 274.247 90.368C273.447 90.736 272.767 91.232 272.207 91.856C271.647 92.48 271.215 93.208 270.911 94.04C270.607 94.872 270.455 95.752 270.455 96.68C270.455 97.624 270.607 98.512 270.911 99.344C271.215 100.16 271.647 100.88 272.207 101.504C272.767 102.128 273.447 102.624 274.247 102.992C275.047 103.344 275.943 103.52 276.935 103.52C277.879 103.52 278.751 103.336 279.551 102.968C280.367 102.584 281.039 102 281.567 101.216L283.319 102.536ZM288.356 101.84L297.524 88.184H300.308V105.176H297.98V91.448H297.932L288.764 105.176H285.98V88.184H288.308V101.84H288.356ZM321.605 96.656C321.605 97.968 321.381 99.176 320.933 100.28C320.485 101.368 319.861 102.312 319.061 103.112C318.261 103.896 317.309 104.512 316.205 104.96C315.117 105.392 313.933 105.608 312.653 105.608C311.373 105.608 310.181 105.392 309.077 104.96C307.989 104.512 307.045 103.896 306.245 103.112C305.445 102.312 304.821 101.368 304.373 100.28C303.925 99.176 303.701 97.968 303.701 96.656C303.701 95.344 303.925 94.144 304.373 93.056C304.821 91.968 305.445 91.032 306.245 90.248C307.045 89.464 307.989 88.856 309.077 88.424C310.181 87.976 311.373 87.752 312.653 87.752C313.933 87.752 315.117 87.976 316.205 88.424C317.309 88.856 318.261 89.464 319.061 90.248C319.861 91.032 320.485 91.968 320.933 93.056C321.381 94.144 321.605 95.344 321.605 96.656ZM319.133 96.656C319.133 95.728 318.981 94.856 318.677 94.04C318.373 93.208 317.941 92.48 317.381 91.856C316.821 91.232 316.141 90.736 315.341 90.368C314.541 90 313.645 89.816 312.653 89.816C311.661 89.816 310.765 90 309.965 90.368C309.165 90.736 308.485 91.232 307.925 91.856C307.365 92.48 306.933 93.208 306.629 94.04C306.325 94.856 306.173 95.728 306.173 96.656C306.173 97.6 306.325 98.488 306.629 99.32C306.933 100.152 307.365 100.88 307.925 101.504C308.485 102.128 309.165 102.624 309.965 102.992C310.765 103.344 311.661 103.52 312.653 103.52C313.645 103.52 314.541 103.344 315.341 102.992C316.141 102.624 316.821 102.128 317.381 101.504C317.941 100.88 318.373 100.152 318.677 99.32C318.981 98.488 319.133 97.6 319.133 96.656ZM324.98 88.184H327.308V95.312H335.9V88.184H338.228V105.176H335.9V97.376H327.308V105.176H324.98V88.184ZM343.015 105.176H340.471L347.767 88.184H350.023L357.271 105.176H354.655L352.927 101H344.719L343.015 105.176ZM345.487 98.984H352.159L348.847 90.776L345.487 98.984ZM359.96 105.176H357.44L364.592 88.184H366.92L374.072 105.176H371.504L365.72 91.232L359.96 105.176ZM375.933 88.184H378.261V94.928H380.877C381.773 94.928 382.589 95.04 383.325 95.264C384.077 95.488 384.725 95.816 385.269 96.248C385.813 96.664 386.229 97.184 386.517 97.808C386.821 98.432 386.973 99.152 386.973 99.968C386.973 100.784 386.821 101.52 386.517 102.176C386.213 102.816 385.789 103.36 385.245 103.808C384.701 104.24 384.053 104.576 383.301 104.816C382.549 105.056 381.725 105.176 380.829 105.176H375.933V88.184ZM378.261 96.944V103.16H380.853C382.117 103.16 383.061 102.864 383.685 102.272C384.309 101.68 384.621 100.928 384.621 100.016C384.621 99.072 384.301 98.328 383.661 97.784C383.037 97.224 382.101 96.944 380.853 96.944H378.261ZM390.23 88.184H392.558V95.312H401.15V88.184H403.478V105.176H401.15V97.376H392.558V105.176H390.23V88.184ZM410.089 88.184V94.928H412.561C413.457 94.928 414.273 95.048 415.009 95.288C415.761 95.512 416.409 95.848 416.953 96.296C417.497 96.744 417.913 97.296 418.201 97.952C418.505 98.592 418.657 99.32 418.657 100.136C418.657 100.952 418.505 101.672 418.201 102.296C417.897 102.92 417.473 103.448 416.929 103.88C416.385 104.312 415.737 104.64 414.985 104.864C414.233 105.072 413.409 105.176 412.513 105.176H407.761V88.184H410.089ZM410.089 103.16H412.537C413.801 103.16 414.745 102.912 415.369 102.416C415.993 101.904 416.305 101.104 416.305 100.016C416.305 99.088 415.985 98.344 415.345 97.784C414.721 97.224 413.785 96.944 412.537 96.944H410.089V103.16ZM422.569 88.184V105.176H420.241V88.184H422.569ZM431.04 83.336C431.264 83.896 431.632 84.36 432.144 84.728C432.672 85.096 433.28 85.28 433.968 85.28C434.688 85.28 435.296 85.096 435.792 84.728C436.304 84.36 436.672 83.896 436.896 83.336L438.336 84.056C438.208 84.424 438.008 84.776 437.736 85.112C437.48 85.448 437.168 85.744 436.8 86C436.432 86.24 436.008 86.432 435.528 86.576C435.048 86.72 434.528 86.792 433.968 86.792C433.408 86.792 432.888 86.72 432.408 86.576C431.944 86.432 431.52 86.24 431.136 86C430.768 85.744 430.456 85.448 430.2 85.112C429.944 84.776 429.744 84.424 429.6 84.056L431.04 83.336ZM438.288 88.184H441.144V105.176H438.816V91.448H438.768L429.648 105.176H426.816V88.184H429.144C429.144 90.472 429.136 92.744 429.12 95C429.12 97.24 429.12 99.504 429.12 101.792H429.192L438.288 88.184ZM452.314 88.184L457.33 98.648L462.154 88.184H464.746L458.434 101.48C458.146 102.072 457.842 102.616 457.522 103.112C457.202 103.592 456.842 104.016 456.442 104.384C456.042 104.736 455.586 105.008 455.074 105.2C454.578 105.408 454.002 105.512 453.346 105.512C452.61 105.512 452.034 105.424 451.618 105.248C451.218 105.088 450.89 104.92 450.634 104.744L451.858 102.92C452.034 103.048 452.266 103.176 452.554 103.304C452.842 103.432 453.194 103.496 453.61 103.496C454.122 103.496 454.57 103.312 454.954 102.944C455.338 102.56 455.714 102.016 456.082 101.312L449.722 88.184H452.314ZM472.82 94.64L477.068 88.184H479.828L474.26 96.248L480.476 105.176H477.572L472.748 97.952L467.996 105.176H465.14L471.308 96.224L465.668 88.184H468.548L472.82 94.64ZM499.918 96.656C499.918 97.968 499.694 99.176 499.246 100.28C498.798 101.368 498.174 102.312 497.374 103.112C496.574 103.896 495.622 104.512 494.518 104.96C493.43 105.392 492.246 105.608 490.966 105.608C489.686 105.608 488.494 105.392 487.39 104.96C486.302 104.512 485.358 103.896 484.558 103.112C483.758 102.312 483.134 101.368 482.686 100.28C482.238 99.176 482.014 97.968 482.014 96.656C482.014 95.344 482.238 94.144 482.686 93.056C483.134 91.968 483.758 91.032 484.558 90.248C485.358 89.464 486.302 88.856 487.39 88.424C488.494 87.976 489.686 87.752 490.966 87.752C492.246 87.752 493.43 87.976 494.518 88.424C495.622 88.856 496.574 89.464 497.374 90.248C498.174 91.032 498.798 91.968 499.246 93.056C499.694 94.144 499.918 95.344 499.918 96.656ZM497.446 96.656C497.446 95.728 497.294 94.856 496.99 94.04C496.686 93.208 496.254 92.48 495.694 91.856C495.134 91.232 494.454 90.736 493.654 90.368C492.854 90 491.958 89.816 490.966 89.816C489.974 89.816 489.078 90 488.278 90.368C487.478 90.736 486.798 91.232 486.238 91.856C485.678 92.48 485.246 93.208 484.942 94.04C484.638 94.856 484.486 95.728 484.486 96.656C484.486 97.6 484.638 98.488 484.942 99.32C485.246 100.152 485.678 100.88 486.238 101.504C486.798 102.128 487.478 102.624 488.278 102.992C489.078 103.344 489.974 103.52 490.966 103.52C491.958 103.52 492.854 103.344 493.654 102.992C494.454 102.624 495.134 102.128 495.694 101.504C496.254 100.88 496.686 100.152 496.99 99.32C497.294 98.488 497.446 97.6 497.446 96.656ZM503.268 105.176V108.512H501.132V103.112H503.436L509.076 88.184H511.332L516.9 103.112H519.252V108.512H517.092V105.176H503.268ZM505.812 103.112H514.476L510.132 90.8L505.812 103.112ZM530.243 95.408H531.467C532.011 95.408 532.523 95.352 533.003 95.24C533.499 95.128 533.923 94.96 534.275 94.736C534.643 94.496 534.931 94.2 535.139 93.848C535.347 93.48 535.451 93.048 535.451 92.552C535.451 91.64 535.147 90.944 534.539 90.464C533.947 89.968 533.163 89.72 532.187 89.72C531.419 89.72 530.755 89.92 530.195 90.32C529.651 90.704 529.235 91.232 528.947 91.904L527.027 90.848C527.523 89.84 528.227 89.072 529.139 88.544C530.051 88.016 531.131 87.752 532.379 87.752C533.163 87.752 533.891 87.856 534.563 88.064C535.235 88.256 535.819 88.544 536.315 88.928C536.811 89.312 537.195 89.792 537.467 90.368C537.739 90.944 537.875 91.608 537.875 92.36C537.875 92.872 537.771 93.344 537.563 93.776C537.355 94.208 537.091 94.584 536.771 94.904C536.451 95.224 536.083 95.496 535.667 95.72C535.267 95.944 534.867 96.104 534.467 96.2V96.248C534.931 96.296 535.411 96.408 535.907 96.584C536.403 96.744 536.859 96.992 537.275 97.328C537.691 97.648 538.035 98.064 538.307 98.576C538.579 99.072 538.715 99.688 538.715 100.424C538.715 101.224 538.547 101.944 538.211 102.584C537.891 103.224 537.443 103.768 536.867 104.216C536.291 104.664 535.611 105.008 534.827 105.248C534.059 105.488 533.235 105.608 532.355 105.608C531.555 105.608 530.835 105.512 530.195 105.32C529.571 105.144 529.019 104.888 528.539 104.552C528.059 104.216 527.643 103.816 527.291 103.352C526.955 102.888 526.667 102.376 526.427 101.816L528.467 100.856C528.819 101.72 529.299 102.4 529.907 102.896C530.531 103.392 531.395 103.64 532.499 103.64C533.731 103.64 534.683 103.344 535.355 102.752C536.027 102.16 536.363 101.384 536.363 100.424C536.363 99.832 536.243 99.336 536.003 98.936C535.763 98.536 535.419 98.208 534.971 97.952C534.539 97.696 534.019 97.512 533.411 97.4C532.803 97.288 532.131 97.232 531.395 97.232H530.243V95.408ZM542.796 105.176H540.252L547.548 88.184H549.804L557.052 105.176H554.436L552.708 101H544.5L542.796 105.176ZM545.268 98.984H551.94L548.628 90.776L545.268 98.984ZM565.261 105.176V88.184H567.589V95.144C567.973 95.144 568.341 95.16 568.693 95.192C569.061 95.208 569.421 95.232 569.773 95.264L575.917 88.184H578.461L572.149 95.816C574.021 96.456 575.485 97.544 576.541 99.08C577.597 100.616 578.333 102.648 578.749 105.176H576.181C575.941 103.768 575.597 102.552 575.149 101.528C574.717 100.504 574.157 99.672 573.469 99.032C572.781 98.376 571.949 97.904 570.973 97.616C570.013 97.312 568.885 97.176 567.589 97.208V105.176H565.261ZM599.011 96.656C599.011 97.968 598.787 99.176 598.339 100.28C597.891 101.368 597.267 102.312 596.467 103.112C595.667 103.896 594.715 104.512 593.611 104.96C592.523 105.392 591.339 105.608 590.059 105.608C588.779 105.608 587.587 105.392 586.483 104.96C585.395 104.512 584.451 103.896 583.651 103.112C582.851 102.312 582.227 101.368 581.779 100.28C581.331 99.176 581.107 97.968 581.107 96.656C581.107 95.344 581.331 94.144 581.779 93.056C582.227 91.968 582.851 91.032 583.651 90.248C584.451 89.464 585.395 88.856 586.483 88.424C587.587 87.976 588.779 87.752 590.059 87.752C591.339 87.752 592.523 87.976 593.611 88.424C594.715 88.856 595.667 89.464 596.467 90.248C597.267 91.032 597.891 91.968 598.339 93.056C598.787 94.144 599.011 95.344 599.011 96.656ZM596.539 96.656C596.539 95.728 596.387 94.856 596.083 94.04C595.779 93.208 595.347 92.48 594.787 91.856C594.227 91.232 593.547 90.736 592.747 90.368C591.947 90 591.051 89.816 590.059 89.816C589.067 89.816 588.171 90 587.371 90.368C586.571 90.736 585.891 91.232 585.331 91.856C584.771 92.48 584.339 93.208 584.035 94.04C583.731 94.856 583.579 95.728 583.579 96.656C583.579 97.6 583.731 98.488 584.035 99.32C584.339 100.152 584.771 100.88 585.331 101.504C585.891 102.128 586.571 102.624 587.371 102.992C588.171 103.344 589.067 103.52 590.059 103.52C591.051 103.52 591.947 103.344 592.747 102.992C593.547 102.624 594.227 102.128 594.787 101.504C595.347 100.88 595.779 100.152 596.083 99.32C596.387 98.488 596.539 97.6 596.539 96.656ZM610.93 97.232C608.914 97.184 607.322 97.824 606.154 99.152C604.986 100.48 604.242 102.488 603.922 105.176H601.354C601.882 100.44 603.65 97.4 606.658 96.056L601.378 88.184H603.946L608.818 95.36C609.506 95.232 610.21 95.168 610.93 95.168V88.184H613.258V95.168C613.642 95.168 614.01 95.184 614.362 95.216C614.714 95.248 615.058 95.296 615.394 95.36L620.266 88.184H622.81L617.506 96.056C620.53 97.416 622.306 100.456 622.834 105.176H620.29C619.634 99.784 617.29 97.136 613.258 97.232V105.176H610.93V97.232ZM628.385 103.136H637.193V105.176H626.105V88.184H636.857V90.224H628.385V95.384H636.329V97.352H628.385V103.136ZM644.626 83.336C644.85 83.896 645.218 84.36 645.73 84.728C646.258 85.096 646.866 85.28 647.554 85.28C648.274 85.28 648.882 85.096 649.378 84.728C649.89 84.36 650.258 83.896 650.482 83.336L651.922 84.056C651.794 84.424 651.594 84.776 651.322 85.112C651.066 85.448 650.754 85.744 650.386 86C650.018 86.24 649.594 86.432 649.114 86.576C648.634 86.72 648.114 86.792 647.554 86.792C646.994 86.792 646.474 86.72 645.994 86.576C645.53 86.432 645.106 86.24 644.722 86C644.354 85.744 644.042 85.448 643.786 85.112C643.53 84.776 643.33 84.424 643.186 84.056L644.626 83.336ZM651.874 88.184H654.73V105.176H652.402V91.448H652.354L643.234 105.176H640.402V88.184H642.73C642.73 90.472 642.722 92.744 642.706 95C642.706 97.24 642.706 99.504 642.706 101.792H642.778L651.874 88.184Z" fill="white"/>
<g filter="url(#filter0_d)">
<path d="M24.8438 21.4545C19.9171 25.6688 16.6326 30.6493 18.4012 33.842C20.296 37.29 29.6442 36.9069 37.2237 33.0758C29.7705 38.4394 15.1167 42.526 11.5796 33.4589C8.29508 24.9026 18.0222 15.7078 23.7068 11.4935C27.623 8.55628 33.4339 5.74675 39.1186 3.44805H7.4108V47.2511C24.0858 49.6775 37.35 40.9935 41.5188 37.4177C46.4455 33.2035 49.73 28.2229 47.9614 25.0303C46.1929 21.5823 36.7184 21.9654 29.1389 25.7965C36.4658 20.3052 51.2459 16.3463 54.783 25.4134C58.0675 33.9697 48.3404 43.0368 42.6557 47.3788C38.7396 50.316 32.9286 53.2532 27.244 55.4242H58.9518V11.6212C42.2768 9.32251 29.0125 17.8788 24.8438 21.4545ZM5.01061 57.9784H61.352V1.02164H5.01061V57.9784ZM62.3626 0V59H4V0H61.0993H62.3626ZM655.842 25.0303C655.463 21.5823 653.189 18.2619 649.526 18.2619C645.23 18.2619 642.83 20.816 642.83 24.9026C642.83 33.7143 659 31.1602 659 43.9307C659 51.3377 652.81 55.1688 645.862 55.1688C642.83 55.1688 639.925 54.1472 637.272 52.7424C637.019 50.0606 636.64 47.3788 636.388 44.5693L637.904 44.3139C638.535 48.7836 641.188 52.7424 646.241 52.7424C649.905 52.7424 652.936 50.4437 652.936 46.7403C652.936 37.29 637.019 40.2273 637.019 27.329C637.019 20.4329 641.946 16.3463 649.02 16.3463C650.536 16.3463 655.084 16.9848 656.852 17.1126C656.852 19.539 657.105 22.2208 657.358 24.7749L655.842 25.0303ZM604.427 21.71C604.427 18.9004 606.069 18.7727 608.091 18.7727H609.48V17.2403C606.701 17.2403 604.048 17.4957 601.269 17.4957C598.364 17.4957 595.584 17.2403 592.679 17.2403V18.7727H593.437C595.332 18.7727 597.479 19.0281 597.479 21.8377V49.2944C597.479 52.6147 595.332 52.8701 593.437 52.8701H592.679V54.5303C597.479 54.5303 602.153 54.2749 606.954 54.2749C611.754 54.2749 616.428 54.5303 621.229 54.5303C621.86 51.4654 622.618 48.5281 623.25 45.4632H621.608C621.229 46.6125 620.85 48.145 619.965 49.2944C618.955 50.5714 617.06 51.8485 614.786 52.1039C612.259 52.3593 609.859 52.3593 607.585 52.2316C605.817 51.9762 604.301 51.3377 604.301 49.2944V21.71H604.427ZM560.087 23.1147L554.907 38.184H565.013L560.087 23.1147ZM552.255 46.7403C551.749 48.5281 551.118 49.9329 551.118 50.8268C551.118 52.487 553.391 52.7424 555.16 52.7424H555.792V54.4026C553.644 54.2749 551.37 54.1472 549.223 54.1472C547.202 54.1472 545.307 54.2749 543.412 54.4026V52.7424H543.791C545.938 52.7424 547.707 51.4654 548.465 49.2944L557.181 24.7749C557.813 22.7316 558.824 20.1775 559.203 18.1342C560.971 17.4957 563.119 16.474 564.129 15.8355C564.256 15.8355 564.382 15.7078 564.508 15.7078C564.635 15.7078 564.761 15.7078 564.887 15.8355C565.14 16.2186 565.266 16.7294 565.392 17.1126L575.372 44.9524C576.004 46.868 576.635 48.7835 577.393 50.4437C578.025 51.9762 579.162 52.6147 580.931 52.6147H581.31V54.2749C578.909 54.1472 576.383 54.0195 573.856 54.0195C571.203 54.0195 568.424 54.1472 565.771 54.2749V52.6147H566.403C567.666 52.6147 569.688 52.3593 569.688 51.0822C569.688 50.316 569.182 48.9113 568.677 47.2511L566.529 41.1212H554.276L552.255 46.7403ZM530.906 27.9675C530.527 25.0303 530.4 21.9654 530.526 19.0281C525.473 18.2619 523.326 16.3463 517.01 16.3463C505.893 16.3463 496.04 23.2424 496.04 35.2468C496.04 48.6558 505.135 55.1688 517.262 55.1688C522.189 55.1688 526.484 54.1472 529.642 52.7424C529.895 49.8052 530.274 46.9957 531.032 44.1861L529.516 43.9307C528.126 49.2944 524.21 52.8701 518.526 52.8701C508.293 52.8701 503.619 43.803 503.619 34.9913C503.619 25.6688 508.293 18.7727 517.136 18.7727C525.221 18.7727 527.747 22.987 529.263 28.2229L530.906 27.9675ZM466.858 52.7424H467.616C469.511 52.7424 471.532 52.487 471.532 49.6775V21.8377C471.532 19.0281 469.511 18.7727 467.616 18.7727H466.858V17.2403C469.006 17.2403 472.164 17.4957 474.817 17.4957C477.47 17.4957 480.754 17.2403 483.281 17.2403V18.7727H482.523C480.628 18.7727 478.48 19.0281 478.48 21.8377V49.8052C478.48 52.487 480.501 52.8701 482.523 52.8701H483.281V54.5303C480.628 54.5303 477.47 54.2749 474.69 54.2749C472.038 54.2749 468.879 54.5303 466.732 54.5303V52.7424H466.858ZM433.508 19.7944V48.2727C433.508 52.487 431.992 52.7424 429.087 52.7424H428.076V54.4026C430.224 54.4026 434.013 54.1472 437.172 54.1472C440.077 54.1472 443.867 54.4026 446.014 54.4026V52.7424H445.004C442.477 52.7424 440.582 52.2316 440.582 48.145V19.7944H449.425C453.089 19.7944 453.341 22.987 453.468 24.9026L455.11 24.2641C455.11 22.8593 455.11 21.3268 455.236 19.9221C455.363 18.5173 455.615 16.9848 455.868 15.5801L454.605 15.3247C454.478 16.9848 453.089 16.9848 451.699 16.9848H423.781C422.265 16.9848 421.002 16.9848 420.497 15.4524H419.233C419.233 16.9848 419.107 18.5173 418.854 20.0498C418.728 21.5823 418.475 23.1147 418.223 24.5195H419.865C420.623 20.6883 420.876 19.6667 424.918 19.6667H433.508V19.7944ZM371.861 22.6039C371.861 18.7727 369.84 18.7727 367.692 18.7727H367.061V17.2403C369.335 17.2403 372.24 17.4957 375.651 17.4957C378.935 17.4957 381.588 17.2403 383.736 17.2403V18.7727H383.104C380.957 18.7727 378.809 18.7727 378.809 22.6039V40.9935C378.809 47.7619 381.336 52.487 389.041 52.487C396.242 52.487 399.274 48.0173 399.274 40.8658V22.6039C399.274 18.7727 397.126 18.7727 395.358 18.7727H394.347V17.2403C396.495 17.2403 398.769 17.4957 400.916 17.4957C402.937 17.4957 405.085 17.2403 407.232 17.2403V18.7727H406.095C404.58 18.7727 402.685 18.7727 402.685 22.6039V39.5887C402.685 51.7208 396.242 55.1688 388.157 55.1688C377.798 55.1688 371.987 51.4654 371.987 41.8874V22.6039H371.861ZM324.363 54.4026C327.394 54.4026 333.837 54.1472 338.764 54.1472C343.69 54.1472 349.88 54.4026 353.291 54.4026C353.797 51.5931 354.428 48.7836 355.186 45.8463L353.67 45.4632C352.028 51.5931 349.122 51.9762 342.68 51.9762C339.269 51.9762 336.111 51.9762 336.111 48.5281V36.1407H342.554C346.343 36.1407 346.47 38.184 346.722 41.3766L348.365 40.9935C348.238 38.9502 348.238 36.9069 348.238 34.8636C348.238 32.8203 348.365 30.7771 348.365 28.6061H346.722C346.47 31.4156 345.712 33.3312 342.554 33.3312H336.111V19.539H343.69C349.375 19.539 350.007 22.3485 350.259 25.7965L351.902 25.4134C351.775 23.1147 351.649 19.539 351.775 17.2403C348.112 17.2403 342.427 17.4957 338.006 17.4957C333.458 17.4957 327.9 17.2403 324.615 17.2403V18.7727H325.373C327.268 18.7727 329.416 19.0281 329.416 21.8377V49.8052C329.416 52.487 327.394 52.8701 325.373 52.8701H324.615V54.4026H324.363ZM306.298 40.9935V41.3766C305.035 48.2727 299.476 52.9978 292.655 52.9978C281.412 52.9978 272.19 42.526 272.19 29.5C272.19 12.6429 284.317 8.04545 291.518 8.04545C299.855 8.04545 304.908 11.8766 306.045 19.0281V19.2836H308.446L307.688 8.93939H307.435C301.624 6.8961 296.445 5.23593 290.886 5.23593C276.232 5.23593 264.231 16.2186 264.231 29.6277C264.231 45.4632 274.843 55.6796 291.139 55.6796C295.813 55.6796 303.645 53.7641 306.677 51.9762C306.803 51.8485 308.446 41.7597 308.446 41.7597V41.5043L306.298 40.9935ZM115.672 41.5043C115.672 50.6991 107.082 55.6796 98.9971 55.6796C95.3336 55.6796 91.5439 54.7857 88.2594 53.2532H88.1331L86.6172 42.6537H88.891V42.9091C90.028 47.7619 93.6914 52.7424 99.3761 52.7424C104.682 52.7424 108.598 49.039 108.598 43.9307C108.598 38.0563 104.176 35.7576 99.5024 33.3312C94.1967 30.5216 88.1331 27.4567 88.1331 18.645C88.1331 10.0887 93.9441 4.85281 103.292 4.85281C105.44 4.85281 107.714 5.23593 109.861 5.61905L112.135 6.00216L113.272 15.4524H111.124L110.872 15.3247C110.114 10.5996 107.082 8.04545 102.282 8.04545C97.4812 8.04545 94.1967 11.3658 94.1967 16.474C94.1967 22.3485 98.8708 24.6472 103.924 27.0736C109.735 30.0108 115.672 32.9481 115.672 41.5043ZM241.745 43.9307L241.872 23.881C241.872 19.539 238.714 18.9004 237.198 18.9004H236.061V17.368C238.587 17.368 241.114 17.6234 243.64 17.6234C245.788 17.6234 248.062 17.368 250.209 17.368V18.9004H249.451C247.177 18.9004 244.651 19.2836 244.651 25.6688V49.9329C244.651 51.8485 244.651 53.6364 244.904 55.2965H242.756L214.964 24.6472V46.6126C214.964 51.21 215.849 52.8701 220.017 52.8701H220.902V54.5303C218.501 54.5303 216.228 54.2749 213.827 54.2749C211.427 54.2749 208.901 54.5303 206.5 54.5303V52.8701H207.258C210.922 52.8701 212.059 50.316 212.059 46.1017V23.4978C212.059 20.5606 209.532 18.7727 207.132 18.7727H206.374V17.2403C208.522 17.2403 210.543 17.4957 212.69 17.4957C214.333 17.4957 215.849 17.2403 217.491 17.2403L241.745 43.9307ZM178.835 54.4026C180.983 54.4026 184.141 54.1472 186.794 54.1472C189.446 54.1472 192.731 54.4026 195.257 54.4026V52.7424H194.5C192.605 52.7424 190.583 52.487 190.583 49.6775V21.8377C190.583 19.0281 192.605 18.7727 194.5 18.7727H195.257V17.2403C192.731 17.2403 189.446 17.4957 186.794 17.4957C184.141 17.4957 180.983 17.2403 178.835 17.2403V18.7727H179.593C181.488 18.7727 183.635 19.0281 183.635 21.8377V49.8052C183.635 52.487 181.614 52.8701 179.593 52.8701H178.835V54.4026ZM152.307 17.1126C154.581 17.1126 156.854 17.368 159.255 17.368C161.655 17.368 164.055 17.1126 166.455 17.1126V18.645H165.697C162.16 18.645 159.255 21.0714 156.981 23.3701L148.391 32.5649L162.286 49.8052C163.423 51.3377 165.192 52.7424 167.213 52.7424V54.4026C165.445 54.4026 163.55 54.2749 161.655 54.2749C159.886 54.2749 158.244 54.4026 156.475 54.4026C155.97 53.3809 154.454 51.21 153.696 50.4437L142.074 36.013L153.444 23.4978C154.075 22.8593 155.844 21.0714 155.844 19.9221C155.844 18.9004 153.444 18.7727 152.812 18.7727H152.18V17.1126H152.307ZM130.326 52.7424H131.084C132.979 52.7424 135.126 52.487 135.126 49.6775V21.8377C135.126 19.0281 133.105 18.7727 131.084 18.7727H130.326V17.2403C132.473 17.2403 135.758 17.4957 138.537 17.4957C141.443 17.4957 144.98 17.2403 147.127 17.2403V18.7727H146.496C144.853 18.7727 142.074 18.7727 142.074 21.8377V49.8052C142.074 52.7424 144.853 52.8701 146.496 52.8701H147.127V54.5303C144.853 54.5303 141.443 54.2749 138.537 54.2749C135.758 54.2749 132.473 54.5303 130.326 54.5303V52.7424Z" fill="white"/>
</g>
<defs>
<filter id="filter0_d" x="0" y="0" width="663" height="67" filterUnits="userSpaceOnUse" color-interpolation-filters="sRGB">
<feFlood flood-opacity="0" result="BackgroundImageFix"/>
<feColorMatrix in="SourceAlpha" type="matrix" values="0 0 0 0 0 0 0 0 0 0 0 0 0 0 0 0 0 0 127 0"/>
<feOffset dy="4"/>
<feGaussianBlur stdDeviation="2"/>
<feColorMatrix type="matrix" values="0 0 0 0 0 0 0 0 0 0 0 0 0 0 0 0 0 0 0.25 0"/>
<feBlend mode="normal" in2="BackgroundImageFix" result="effect1_dropShadow"/>
<feBlend mode="normal" in="SourceGraphic" in2="effect1_dropShadow" result="shape"/>
</filter>
</defs>
</svg>
