<svg viewBox="0 0 60 60" xmlns="http://www.w3.org/2000/svg" xmlns:xlink="http://www.w3.org/1999/xlink" width="60.000000" height="60.000000" fill="none" customFrame="url(#clipPath_2)">
	<defs>
		<linearGradient id="paint_linear_1" x1="11.5384636" x2="50.192318" y1="7.5" y2="54.8076973" gradientUnits="userSpaceOnUse">
			<stop stop-color="rgb(66,57,100)" offset="0" stop-opacity="1" />
			<stop stop-color="rgb(20,11,40)" offset="0.771709144" stop-opacity="1" />
		</linearGradient>
		<clipPath id="clipPath_2">
			<rect width="60.000000" height="60.000000" x="0.000000" y="0.000000" rx="30.000000" fill="rgb(255,255,255)" />
		</clipPath>
		<clipPath id="clipPath_3">
			<rect width="28.000000" height="28.000000" x="16.000000" y="16.000000" fill="rgb(255,255,255)" />
		</clipPath>
	</defs>
	<rect id="icon" width="60.000000" height="60.000000" x="0.000000" y="0.000000" rx="30.000000" fill="url(#paint_linear_1)" />
	<g id="dashboard" clip-path="url(#clipPath_3)" customFrame="url(#clipPath_3)">
		<rect id="dashboard" width="28.000000" height="28.000000" x="16.000000" y="16.000000" />
		<path id="Vector" d="M26.7916 25.3334L18.0416 25.3334C16.9158 25.3334 16 24.4176 16 23.2916L16 18.0416C16 16.9158 16.9158 16 18.0416 16L26.7916 16C27.9176 16 28.8334 16.9158 28.8334 18.0416L28.8334 23.2916C28.8334 24.4176 27.9176 25.3334 26.7916 25.3334ZM18.0416 17.75C17.8807 17.75 17.75 17.8807 17.75 18.0416L17.75 23.2916C17.75 23.4527 17.8807 23.5834 18.0416 23.5834L26.7916 23.5834C26.9527 23.5834 27.0834 23.4527 27.0834 23.2916L27.0834 18.0416C27.0834 17.8807 26.9527 17.75 26.7916 17.75L18.0416 17.75Z" fill="rgb(255,255,255)" fill-rule="nonzero" />
		<path id="Vector" d="M26.7916 43.9999L18.0416 43.9999C16.9158 43.9999 16 43.0841 16 41.9583L16 29.7083C16 28.5823 16.9158 27.6665 18.0416 27.6665L26.7916 27.6665C27.9176 27.6665 28.8334 28.5823 28.8334 29.7083L28.8334 41.9583C28.8334 43.0841 27.9176 43.9999 26.7916 43.9999ZM18.0416 29.4165C17.8807 29.4165 17.75 29.5472 17.75 29.7083L17.75 41.9583C17.75 42.1192 17.8807 42.2499 18.0416 42.2499L26.7916 42.2499C26.9527 42.2499 27.0834 42.1192 27.0834 41.9583L27.0834 29.7083C27.0834 29.5472 26.9527 29.4165 26.7916 29.4165L18.0416 29.4165Z" fill="rgb(255,255,255)" fill-rule="nonzero" />
		<path id="Vector" d="M41.9583 43.9999L33.2083 43.9999C32.0823 43.9999 31.1665 43.0841 31.1665 41.9583L31.1665 36.7083C31.1665 35.5823 32.0823 34.6665 33.2083 34.6665L41.9583 34.6665C43.0841 34.6665 43.9999 35.5823 43.9999 36.7083L43.9999 41.9583C43.9999 43.0841 43.0841 43.9999 41.9583 43.9999ZM33.2083 36.4165C33.0472 36.4165 32.9165 36.5472 32.9165 36.7083L32.9165 41.9583C32.9165 42.1192 33.0472 42.2499 33.2083 42.2499L41.9583 42.2499C42.1192 42.2499 42.2499 42.1192 42.2499 41.9583L42.2499 36.7083C42.2499 36.5472 42.1192 36.4165 41.9583 36.4165L33.2083 36.4165Z" fill="rgb(255,255,255)" fill-rule="nonzero" />
		<path id="Vector" d="M41.9583 32.3334L33.2083 32.3334C32.0823 32.3334 31.1665 31.4176 31.1665 30.2916L31.1665 18.0416C31.1665 16.9158 32.0823 16 33.2083 16L41.9583 16C43.0841 16 43.9999 16.9158 43.9999 18.0416L43.9999 30.2916C43.9999 31.4176 43.0841 32.3334 41.9583 32.3334ZM33.2083 17.75C33.0472 17.75 32.9165 17.8807 32.9165 18.0416L32.9165 30.2916C32.9165 30.4527 33.0472 30.5834 33.2083 30.5834L41.9583 30.5834C42.1192 30.5834 42.2499 30.4527 42.2499 30.2916L42.2499 18.0416C42.2499 17.8807 42.1192 17.75 41.9583 17.75L33.2083 17.75Z" fill="rgb(255,255,255)" fill-rule="nonzero" />
	</g>
</svg>
