<svg viewBox="0 0 60 60" xmlns="http://www.w3.org/2000/svg" xmlns:xlink="http://www.w3.org/1999/xlink" width="60.000000" height="60.000000" fill="none" customFrame="url(#clipPath_0)">
	<defs>
		<linearGradient id="paint_linear_0" x1="11.5384636" x2="50.192318" y1="7.5" y2="54.8076973" gradientUnits="userSpaceOnUse">
			<stop stop-color="rgb(66,57,100)" offset="0" stop-opacity="1" />
			<stop stop-color="rgb(20,11,40)" offset="0.771709144" stop-opacity="1" />
		</linearGradient>
		<clipPath id="clipPath_0">
			<rect width="60.000000" height="60.000000" x="0.000000" y="0.000000" rx="30.000000" fill="rgb(255,255,255)" />
		</clipPath>
		<clipPath id="clipPath_1">
			<rect width="28.000000" height="28.000000" x="16.000000" y="16.000000" fill="rgb(255,255,255)" />
		</clipPath>
	</defs>
	<rect id="icon" width="60.000000" height="60.000000" x="0.000000" y="0.000000" rx="30.000000" fill="url(#paint_linear_0)" />
	<g id="candlestick-chart (1) 1" clip-path="url(#clipPath_1)" customFrame="url(#clipPath_1)">
		<rect id="candlestick-chart (1) 1" width="28.000000" height="28.000000" x="16.000000" y="16.000000" fill="rgb(255,255,255)" fill-opacity="0" />
		<path id="Vector" d="M40.7188 20.3023L40.6794 20.3023L40.6794 18.1875C40.6794 17.8102 40.3731 17.5039 39.9958 17.5039C39.6184 17.5039 39.3122 17.8102 39.3122 18.1875L39.3122 20.3023L39.2728 20.3023C38.2928 20.3023 37.4955 21.0996 37.4955 22.0796L37.4955 35.8297C37.4955 36.8097 38.2928 37.607 39.2728 37.607L39.3122 37.607L39.3122 39.7218C39.3122 40.0991 39.6184 40.4054 39.9958 40.4054C40.3731 40.4054 40.6794 40.0991 40.6794 39.7218L40.6794 37.607L40.7188 37.607C41.6987 37.607 42.4961 36.8097 42.4961 35.8297L42.4961 22.0796C42.4961 21.0996 41.6987 20.3023 40.7188 20.3023ZM41.1289 35.8297C41.1289 36.0561 40.9452 36.2398 40.7188 36.2398L39.2728 36.2398C39.0464 36.2398 38.8627 36.0561 38.8627 35.8297L38.8627 22.0796C38.8627 21.8532 39.0464 21.6695 39.2728 21.6695L40.7188 21.6695C40.9452 21.6695 41.1289 21.8532 41.1289 22.0796L41.1289 35.8297ZM34.0551 26.932L34.0157 26.932L34.0157 25.8837C34.0157 25.5063 33.7095 25.2001 33.3321 25.2001C32.9548 25.2001 32.6485 25.5063 32.6485 25.8837L32.6485 26.932L32.6091 26.932C31.6291 26.932 30.8318 27.7294 30.8318 28.7094L30.8318 38.9863C30.8318 39.9662 31.6291 40.7636 32.6091 40.7636L32.6485 40.7636L32.6485 41.812C32.6485 42.1893 32.9548 42.4955 33.3321 42.4955C33.7095 42.4955 34.0157 42.1893 34.0157 41.812L34.0157 40.7636L34.0551 40.7636C35.0351 40.7636 35.8324 39.9662 35.8324 38.9863L35.8324 28.7094C35.8324 27.7294 35.0351 26.932 34.0551 26.932ZM34.4652 38.9863C34.4652 39.2127 34.2815 39.3964 34.0551 39.3964L32.6091 39.3964C32.3827 39.3964 32.199 39.2127 32.199 38.9863L32.199 28.7094C32.199 28.483 32.3827 28.2992 32.6091 28.2992L34.0551 28.2992C34.2815 28.2992 34.4652 28.483 34.4652 28.7094L34.4652 38.9863ZM27.3914 24.6795L27.352 24.6795L27.352 23.2614C27.352 22.8841 27.0458 22.5778 26.6684 22.5778C26.2911 22.5778 25.9848 22.8841 25.9848 23.2614L25.9848 24.6795L25.9455 24.6795C24.9655 24.6795 24.1681 25.4768 24.1681 26.4568L24.1681 32.7541C24.1681 33.7341 24.9655 34.5314 25.9455 34.5314L25.9848 34.5314L25.9848 35.9495C25.9848 36.3268 26.2911 36.633 26.6684 36.633C27.0458 36.633 27.352 36.3268 27.352 35.9495L27.352 34.5314L27.3914 34.5314C28.3714 34.5314 29.1688 33.7341 29.1688 32.7541L29.1688 26.4568C29.1688 25.4768 28.3714 24.6795 27.3914 24.6795ZM27.8016 32.7541C27.8016 32.9805 27.6178 33.1642 27.3914 33.1642L25.9455 33.1642C25.7191 33.1642 25.5353 32.9805 25.5353 32.7541L25.5353 26.4568C25.5353 26.2304 25.7191 26.0466 25.9455 26.0466L27.3914 26.0466C27.6178 26.0466 27.8016 26.2304 27.8016 26.4568L27.8016 32.7541ZM20.7272 20.6233L20.6878 20.6233L20.6878 18.1875C20.6878 17.8102 20.3816 17.5039 20.0042 17.5039C19.6269 17.5039 19.3206 17.8102 19.3206 18.1875L19.3206 20.6233L19.2812 20.6233C18.3013 20.6233 17.5039 21.4206 17.5039 22.4006L17.5039 35.0947C17.5039 36.0747 18.3013 36.872 19.2812 36.872L19.3206 36.872L19.3206 39.3078C19.3206 39.6852 19.6269 39.9914 20.0042 39.9914C20.3816 39.9914 20.6878 39.6852 20.6878 39.3078L20.6878 36.872L20.7272 36.872C21.7072 36.872 22.5045 36.0747 22.5045 35.0947L22.5045 22.4006C22.5045 21.4206 21.7072 20.6233 20.7272 20.6233ZM21.1373 35.0947C21.1373 35.3211 20.9536 35.5048 20.7272 35.5048L19.2812 35.5048C19.0548 35.5048 18.8711 35.3211 18.8711 35.0947L18.8711 22.4006C18.8711 22.1742 19.0548 21.9905 19.2812 21.9905L20.7272 21.9905C20.9536 21.9905 21.1373 22.1742 21.1373 22.4006L21.1373 35.0947Z" fill="rgb(255,255,255)" fill-rule="nonzero" />
	</g>
</svg>
