<svg viewBox="0 0 60 60" xmlns="http://www.w3.org/2000/svg" xmlns:xlink="http://www.w3.org/1999/xlink" width="60.000000" height="60.000000" fill="none" customFrame="url(#clipPath_16)">
	<defs>
		<linearGradient id="paint_linear_8" x1="11.5384636" x2="50.192318" y1="7.5" y2="54.8076973" gradientUnits="userSpaceOnUse">
			<stop stop-color="rgb(66,57,100)" offset="0" stop-opacity="1" />
			<stop stop-color="rgb(20,11,40)" offset="0.771709144" stop-opacity="1" />
		</linearGradient>
		<clipPath id="clipPath_16">
			<rect width="60.000000" height="60.000000" x="0.000000" y="0.000000" rx="30.000000" fill="rgb(255,255,255)" />
		</clipPath>
		<clipPath id="clipPath_17">
			<rect width="28.000000" height="28.000000" x="16.000000" y="16.000000" fill="rgb(255,255,255)" />
		</clipPath>
	</defs>
	<rect id="icon" width="60.000000" height="60.000000" x="0.000000" y="0.000000" rx="30.000000" fill="url(#paint_linear_8)" />
	<g id="security 1" clip-path="url(#clipPath_17)" customFrame="url(#clipPath_17)">
		<rect id="security 1" width="28.000000" height="28.000000" x="16.000000" y="16.000000" fill="rgb(255,255,255)" fill-opacity="0" />
		<path id="Vector" d="M19.1113 22.4763L19.1113 28.1988C19.1105 34.2665 22.9155 39.8079 28.5808 41.9869C29.038 42.1629 29.519 42.2501 30.0001 42.2501C30.4812 42.2501 30.9623 42.162 31.4203 41.9869L32.2697 41.6596C37.506 39.6456 40.8898 34.5801 40.8889 28.7559L40.8889 22.4763C40.8889 22.0063 40.5172 21.6201 40.0481 21.6021C36.9027 21.4799 33.6958 20.2401 30.5162 17.9184C30.2086 17.6945 29.7916 17.6945 29.484 17.9184C26.3036 20.2401 23.0967 21.4799 19.9521 21.6021C19.483 21.6201 19.1113 22.0063 19.1113 22.4763ZM20.8613 23.2949C23.9102 23.0069 26.9778 21.8004 30.0001 19.6992C33.0216 21.8004 36.0901 23.0069 39.1389 23.2949L39.1389 28.7559C39.1398 33.8504 36.1969 38.2741 31.6407 40.0258L30.7922 40.3531C30.2812 40.5496 29.7181 40.5496 29.2089 40.3531C24.2152 38.4322 20.8605 33.5479 20.8613 28.1988L20.8613 23.2949Z" fill="rgb(255,255,255)" fill-rule="nonzero" />
		<path id="Vector" d="M28.2081 33.6146C28.3722 33.7787 28.5944 33.871 28.8268 33.871C29.0592 33.871 29.2814 33.7787 29.4454 33.6146L34.8877 28.1724C35.2295 27.8306 35.2295 27.2769 34.8877 26.9351C34.5459 26.5933 33.9922 26.5933 33.6504 26.9351L28.8268 31.7587L26.3496 29.2806C26.0078 28.9388 25.4541 28.9388 25.1123 29.2806C24.7705 29.6224 24.7705 30.1761 25.1123 30.5179L28.2081 33.6146Z" fill="rgb(255,255,255)" fill-rule="nonzero" />
	</g>
</svg>
