<svg viewBox="0 0 60 60" xmlns="http://www.w3.org/2000/svg" xmlns:xlink="http://www.w3.org/1999/xlink" width="60.000000" height="60.000000" fill="none" customFrame="url(#clipPath_10)">
	<defs>
		<linearGradient id="paint_linear_5" x1="11.5384636" x2="50.192318" y1="7.5" y2="54.8076973" gradientUnits="userSpaceOnUse">
			<stop stop-color="rgb(66,57,100)" offset="0" stop-opacity="1" />
			<stop stop-color="rgb(20,11,40)" offset="0.771709144" stop-opacity="1" />
		</linearGradient>
		<clipPath id="clipPath_10">
			<rect width="60.000000" height="60.000000" x="0.000000" y="0.000000" rx="30.000000" fill="rgb(255,255,255)" />
		</clipPath>
		<clipPath id="clipPath_11">
			<rect width="28.000000" height="28.000000" x="16.000000" y="16.000000" fill="rgb(255,255,255)" />
		</clipPath>
	</defs>
	<rect id="icon" width="60.000000" height="60.000000" x="0.000000" y="0.000000" rx="30.000000" fill="url(#paint_linear_5)" />
	<g id="form" clip-path="url(#clipPath_11)" customFrame="url(#clipPath_11)">
		<rect id="form" width="28.000000" height="28.000000" x="16.000000" y="16.000000" fill="rgb(255,255,255)" fill-opacity="0" />
		<path id="Vector" d="M18.9177 21.2321L18.9177 36.9017C18.919 38.0569 19.3784 39.1644 20.1953 39.9813C21.0121 40.7981 22.1196 41.2575 23.2748 41.2588L28.5872 41.2588C28.8193 41.2588 29.0418 41.1666 29.2059 41.0025C29.37 40.8384 29.4622 40.6159 29.4622 40.3838C29.4622 40.1517 29.37 39.9292 29.2059 39.7651C29.0418 39.601 28.8193 39.5088 28.5872 39.5088L23.2748 39.5088C22.5836 39.508 21.921 39.2331 21.4322 38.7443C20.9435 38.2556 20.6685 37.5929 20.6677 36.9017L20.6677 21.2321C20.6685 20.5408 20.9434 19.8781 21.4321 19.3894C21.9209 18.9006 22.5836 18.6257 23.2748 18.625L34.3661 18.625C35.0573 18.6257 35.72 18.9006 36.2088 19.3894C36.6975 19.8782 36.9724 20.5408 36.9731 21.2321L36.9731 28.0565C36.9731 28.2885 37.0653 28.5111 37.2294 28.6752C37.3935 28.8393 37.6161 28.9315 37.8481 28.9315C38.0802 28.9315 38.3028 28.8393 38.4669 28.6752C38.631 28.5111 38.7231 28.2885 38.7231 28.0565L38.7231 21.2321C38.7218 20.0769 38.2623 18.9694 37.4455 18.1526C36.6287 17.3358 35.5212 16.8763 34.3661 16.875L23.2748 16.875C22.1197 16.8763 21.0122 17.3358 20.1954 18.1526C19.3785 18.9694 18.9191 20.0769 18.9177 21.2321Z" fill="rgb(255,255,255)" fill-rule="nonzero" />
		<path id="Vector" d="M24.2012 22.9678L33.4391 22.9678C33.6712 22.9678 33.8937 22.8756 34.0578 22.7115C34.2219 22.5474 34.3141 22.3248 34.3141 22.0928C34.3141 21.8607 34.2219 21.6381 34.0578 21.4741C33.8937 21.31 33.6712 21.2178 33.4391 21.2178L24.2012 21.2178C23.9691 21.2178 23.7465 21.31 23.5825 21.4741C23.4184 21.6381 23.3262 21.8607 23.3262 22.0928C23.3262 22.3248 23.4184 22.5474 23.5825 22.7115C23.7465 22.8756 23.9691 22.9678 24.2012 22.9678Z" fill="rgb(255,255,255)" fill-rule="nonzero" />
		<path id="Vector" d="M34.3141 26.7417C34.3141 26.5096 34.2219 26.2871 34.0578 26.123C33.8937 25.9589 33.6712 25.8667 33.4391 25.8667L24.2012 25.8667C23.9691 25.8667 23.7465 25.9589 23.5825 26.123C23.4184 26.2871 23.3262 26.5096 23.3262 26.7417C23.3262 26.9738 23.4184 27.1963 23.5825 27.3604C23.7465 27.5245 23.9691 27.6167 24.2012 27.6167L33.4391 27.6167C33.6712 27.6167 33.8937 27.5245 34.0578 27.3604C34.2219 27.1963 34.3141 26.9738 34.3141 26.7417Z" fill="rgb(255,255,255)" fill-rule="nonzero" />
		<path id="Vector" d="M24.2012 30.5171C23.9691 30.5171 23.7465 30.6093 23.5825 30.7734C23.4184 30.9375 23.3262 31.16 23.3262 31.3921C23.3262 31.6242 23.4184 31.8467 23.5825 32.0108C23.7465 32.1749 23.9691 32.2671 24.2012 32.2671L28.4006 32.2671C28.6326 32.2671 28.8552 32.1749 29.0193 32.0108C29.1834 31.8467 29.2756 31.6242 29.2756 31.3921C29.2756 31.16 29.1834 30.9375 29.0193 30.7734C28.8552 30.6093 28.6326 30.5171 28.4006 30.5171L24.2012 30.5171Z" fill="rgb(255,255,255)" fill-rule="nonzero" />
		<path id="Vector" d="M35.7416 29.5298C35.1445 29.5298 34.5608 29.7069 34.0643 30.0387C33.5679 30.3705 33.1809 30.842 32.9524 31.3936C32.7239 31.9453 32.6642 32.5523 32.7807 33.138C32.8972 33.7236 33.1847 34.2616 33.6069 34.6838C34.0292 35.106 34.5671 35.3935 35.1527 35.51C35.7384 35.6265 36.3454 35.5668 36.8971 35.3383C37.4487 35.1098 37.9203 34.7229 38.252 34.2264C38.5838 33.7299 38.7609 33.1462 38.7609 32.5491C38.76 31.7486 38.4416 30.9812 37.8755 30.4152C37.3095 29.8491 36.5421 29.5307 35.7416 29.5298ZM35.7416 33.8181C35.4906 33.818 35.2453 33.7435 35.0367 33.604C34.8281 33.4645 34.6655 33.2663 34.5695 33.0344C34.4736 32.8026 34.4485 32.5474 34.4975 32.3013C34.5465 32.0552 34.6674 31.8291 34.8449 31.6517C35.0224 31.4743 35.2485 31.3535 35.4946 31.3046C35.7407 31.2556 35.9959 31.2808 36.2277 31.3768C36.4595 31.4729 36.6577 31.6355 36.7971 31.8442C36.9365 32.0529 37.0109 32.2982 37.0109 32.5491C37.0105 32.8856 36.8766 33.2082 36.6387 33.4461C36.4007 33.684 36.0781 33.8177 35.7416 33.8181Z" fill="rgb(255,255,255)" fill-rule="nonzero" />
		<path id="Vector" d="M31.2759 43.125C31.3908 43.125 31.5046 43.1024 31.6108 43.0584C31.7169 43.0145 31.8134 42.95 31.8947 42.8688C31.9759 42.7875 32.0404 42.691 32.0843 42.5849C32.1283 42.4787 32.1509 42.3649 32.1509 42.25C32.1509 41.2976 32.5292 40.3843 33.2026 39.7109C33.876 39.0375 34.7893 38.6592 35.7417 38.6592C36.694 38.6592 37.6073 39.0375 38.2807 39.7109C38.9541 40.3843 39.3325 41.2976 39.3325 42.25C39.3325 42.482 39.4246 42.7046 39.5887 42.8687C39.7528 43.0328 39.9754 43.125 40.2075 43.125C40.4395 43.125 40.6621 43.0328 40.8262 42.8687C40.9903 42.7046 41.0825 42.482 41.0825 42.25C41.0825 40.8335 40.5198 39.4751 39.5182 38.4735C38.5166 37.4719 37.1581 36.9092 35.7417 36.9092C34.3252 36.9092 32.9668 37.4719 31.9652 38.4735C30.9636 39.4751 30.4009 40.8335 30.4009 42.25C30.4008 42.3649 30.4235 42.4787 30.4674 42.5849C30.5114 42.691 30.5758 42.7875 30.6571 42.8688C30.7383 42.95 30.8348 43.0145 30.941 43.0584C31.0472 43.1024 31.161 43.125 31.2759 43.125Z" fill="rgb(255,255,255)" fill-rule="nonzero" />
	</g>
</svg>
