<svg width="14" height="14" viewBox="0 0 14 14" fill="none" xmlns="http://www.w3.org/2000/svg">
<g clip-path="url(#clip0_2498_5371)">
<path d="M9.55914 8.20232C9.55914 5.81134 9.55914 3.41968 9.55914 1.02732C9.55914 0.457029 9.75061 0.2635 10.3188 0.259382L13.0344 0.259383C13.5883 0.2635 13.7941 0.479676 13.7941 1.02938L13.7941 5.80174C13.7941 6.60056 13.7941 7.40213 13.7941 8.20644C13.7941 8.76644 13.5883 8.97438 13.0344 8.97438H10.3209C9.75884 8.97438 9.55914 8.77262 9.55914 8.20232Z" fill="#909090"/>
<path d="M0.205917 5.16762C0.229569 4.95518 0.310692 4.75321 0.440562 4.58344C0.570431 4.41366 0.744132 4.28251 0.942977 4.20409L0.881211 4.14026C0.771349 4.01906 0.688039 3.87623 0.636629 3.72094C0.585218 3.56564 0.566844 3.40131 0.582683 3.2385C0.613862 2.98444 0.725992 2.74716 0.902485 2.56177C1.07898 2.37637 1.31046 2.25272 1.56268 2.20909C1.45538 2.09018 1.37397 1.95026 1.32364 1.79821C1.27331 1.64616 1.25516 1.4853 1.27033 1.32585C1.30406 1.02892 1.44716 0.7552 1.67173 0.558036C1.8963 0.360873 2.18624 0.254403 2.48504 0.259383L4.08268 0.259384C4.78886 0.259384 5.52386 0.259384 6.23621 0.259384L6.30621 0.259384C7.28147 0.287474 8.2452 0.478132 9.15768 0.823501C9.14981 0.891835 9.14637 0.960606 9.14739 1.02938C9.14739 3.42311 9.14739 5.81478 9.14739 8.20438C9.14669 8.31126 9.15496 8.41801 9.17209 8.5235L8.90239 8.75821C8.81592 8.83027 8.72945 8.90438 8.64503 8.98056C8.07886 9.47674 7.51062 10.0244 7.31298 10.7841C7.24285 11.0963 7.20695 11.4153 7.20592 11.7353C7.20592 11.9 7.19356 12.0647 7.18121 12.2273C7.18121 12.3035 7.16886 12.3776 7.16268 12.4538C7.15419 12.6852 7.12106 12.915 7.06386 13.1394C6.94856 13.5264 6.60268 13.7467 6.1168 13.7467C5.90367 13.7568 5.69276 13.6996 5.51393 13.5832C5.3351 13.4669 5.1974 13.2972 5.12033 13.0982C4.75445 12.1702 4.66786 11.1554 4.87121 10.1788C4.95974 9.76703 5.07709 9.35527 5.21298 8.96409C5.27268 8.77056 5.33445 8.57497 5.39209 8.37938H1.91268C1.61687 8.38259 1.33027 8.27663 1.10768 8.08177C0.885096 7.88691 0.742159 7.61684 0.706211 7.32321C0.690903 7.16026 0.709727 6.99591 0.761482 6.84065C0.813236 6.68538 0.896786 6.54261 1.0068 6.42144L1.02739 6.39879C0.827372 6.33659 0.647564 6.22217 0.506505 6.06732C0.396223 5.94675 0.312484 5.80436 0.260705 5.64938C0.208926 5.4944 0.19026 5.33027 0.205917 5.16762Z" fill="#909090"/>
</g>
<defs>
<clipPath id="clip0_2498_5371">
<rect width="14" height="14" fill="white" transform="translate(14 14) rotate(-180)"/>
</clipPath>
</defs>
</svg>
