<svg width="59" height="60" viewBox="0 0 59 60" fill="none" xmlns="http://www.w3.org/2000/svg">
<path fill-rule="evenodd" clip-rule="evenodd" d="M29.4915 0C13.2088 0 0 13.4252 0 30C0 46.5748 13.1977 60 29.4915 60C45.7742 60 58.9831 46.5748 58.9831 30C58.9831 13.4252 45.7742 0 29.4915 0ZM27.1527 38.803H11.6162V37.6021H14.2V22.3755H11.6162V21.1633H21.985V22.3755H19.1338V37.5908H19.7464C23.1544 37.5908 25.8719 36.5485 25.8719 32.5379V31.7788H27.1527V38.803ZM47.7567 22.3755H48.0685V21.1633H41.6646V22.3755H42.1323C43.4243 22.3755 44.1259 22.8513 44.1259 23.803V31.269L36.1182 21.1746H28.6339V22.3868H28.7565C29.7365 22.3868 30.7277 23.1572 30.7277 24.3581V35.7894C30.7277 37.3189 29.8813 37.5908 28.9792 37.5908H28.5448V38.7917L35.0045 38.8143L34.9376 37.5908H34.7483C33.1223 37.5908 32.4763 37.3528 32.4763 35.9254V24.9246L43.4465 38.7917H45.8967V23.7237C45.8967 23.0893 46.4425 22.3755 47.7567 22.3755Z" fill="#d9d9d9"/>
</svg>
