<svg width="14" height="14" viewBox="0 0 14 14" fill="none" xmlns="http://www.w3.org/2000/svg">
<g clip-path="url(#clip0_2498_5387)">
<path d="M4.44074 5.79764C4.44074 8.18862 4.44074 10.5803 4.44074 12.9726C4.44074 13.5429 4.24927 13.7365 3.68104 13.7406H0.965448C0.411624 13.7365 0.205742 13.5203 0.205742 12.9706V8.19823C0.205742 7.39941 0.205742 6.59784 0.205742 5.79352C0.205742 5.23352 0.411624 5.02558 0.965448 5.02558H3.67898C4.24104 5.02558 4.44074 5.22735 4.44074 5.79764Z" fill="#909090"/>
<path d="M13.794 8.83235C13.7703 9.04479 13.6892 9.24676 13.5593 9.41653C13.4294 9.5863 13.2557 9.71745 13.0569 9.79588L13.1187 9.8597C13.2285 9.9809 13.3118 10.1237 13.3632 10.279C13.4147 10.4343 13.433 10.5987 13.4172 10.7615C13.386 11.0155 13.2739 11.2528 13.0974 11.4382C12.9209 11.6236 12.6894 11.7472 12.4372 11.7909C12.5445 11.9098 12.6259 12.0497 12.6762 12.2018C12.7266 12.3538 12.7447 12.5147 12.7295 12.6741C12.6958 12.971 12.5527 13.2448 12.3282 13.4419C12.1036 13.6391 11.8136 13.7456 11.5148 13.7406H9.9172C9.21102 13.7406 8.47602 13.7406 7.76367 13.7406H7.69367C6.71841 13.7125 5.75468 13.5218 4.8422 13.1765C4.85007 13.1081 4.85351 13.0394 4.85249 12.9706C4.85249 10.5769 4.85249 8.18519 4.85249 5.79558C4.85319 5.68871 4.84492 5.58196 4.82778 5.47647L5.09749 5.24176C5.18396 5.1697 5.27043 5.09558 5.35484 5.01941C5.92102 4.52323 6.48925 3.97558 6.6869 3.21588C6.75703 2.90365 6.79292 2.58471 6.79396 2.2647C6.79396 2.1 6.80631 1.93529 6.81867 1.77264C6.81867 1.69647 6.83102 1.62235 6.8372 1.54617C6.84569 1.31478 6.87882 1.08495 6.93602 0.860585C7.05131 0.473526 7.3972 0.253232 7.88308 0.253232C8.09621 0.243144 8.30712 0.300341 8.48595 0.416729C8.66478 0.533117 8.80247 0.702799 8.87955 0.901761C9.24543 1.8298 9.33202 2.84456 9.12867 3.82117C9.04014 4.23294 8.92278 4.6447 8.7869 5.03588C8.7272 5.22941 8.66543 5.425 8.60779 5.62058H12.0872C12.383 5.61738 12.6696 5.72334 12.8922 5.91819C13.1148 6.11305 13.2577 6.38313 13.2937 6.67676C13.309 6.83971 13.2902 7.00405 13.2384 7.15932C13.1866 7.31458 13.1031 7.45735 12.9931 7.57853L12.9725 7.60117C13.1725 7.66337 13.3523 7.77779 13.4934 7.93264C13.6037 8.05322 13.6874 8.1956 13.7392 8.35059C13.791 8.50557 13.8096 8.6697 13.794 8.83235Z" fill="#909090"/>
</g>
<defs>
<clipPath id="clip0_2498_5387">
<rect width="14" height="14" fill="white"/>
</clipPath>
</defs>
</svg>
