<svg width="80" height="80" viewBox="0 0 80 80" fill="none" xmlns="http://www.w3.org/2000/svg">
<rect width="80" height="80" rx="40" fill="#FFBE3D"/>
<path d="M40.03 15.9123L39.4062 17.0371L51.9692 24.0037L52.5929 22.8789L40.03 15.9123Z" fill="white"/>
<path d="M40.03 15.9123L39.4062 17.0371L51.9692 24.0037L52.5929 22.8789L40.03 15.9123Z" stroke="white" stroke-miterlimit="10"/>
<path d="M27.3034 39.2346L26.6797 40.3594L39.2426 47.326L39.8663 46.2012L27.3034 39.2346Z" fill="white"/>
<path d="M27.3034 39.2346L26.6797 40.3594L39.2426 47.326L39.8663 46.2012L27.3034 39.2346Z" stroke="white" stroke-miterlimit="10"/>
<path d="M44.5417 13.0451L43.918 14.1699L51.8698 18.5795L52.4936 17.4547L44.5417 13.0451Z" fill="white"/>
<path d="M44.5417 13.0451L43.918 14.1699L51.8698 18.5795L52.4936 17.4547L44.5417 13.0451Z" stroke="white" stroke-miterlimit="10"/>
<path d="M27.9753 43.6115L27.3516 44.7363L35.3034 49.1459L35.9272 48.0211L27.9753 43.6115Z" fill="white"/>
<path d="M27.9753 43.6115L27.3516 44.7363L35.3034 49.1459L35.9272 48.0211L27.9753 43.6115Z" stroke="white" stroke-miterlimit="10"/>
<path d="M19.6237 48.0217L19 49.1465L36.728 58.9773L37.3517 57.8525L19.6237 48.0217Z" fill="white"/>
<path d="M19.6237 48.0217L19 49.1465L36.728 58.9773L37.3517 57.8525L19.6237 48.0217Z" stroke="white" stroke-miterlimit="10"/>
<path d="M47.8746 21.5681C47.7674 21.5687 47.6618 21.5423 47.5674 21.4913L43.7282 19.3606C43.6532 19.3204 43.5871 19.2657 43.5335 19.1996C43.48 19.1336 43.4401 19.0576 43.4163 18.9759C43.3924 18.8943 43.3851 18.8088 43.3947 18.7243C43.4043 18.6398 43.4307 18.5581 43.4722 18.4839L45.7246 14.4207C45.8079 14.2737 45.9459 14.1656 46.1085 14.12C46.271 14.072 46.4459 14.0904 46.5948 14.1711L50.4341 16.3019C50.5085 16.3427 50.574 16.3978 50.627 16.464C50.6799 16.5303 50.7191 16.6065 50.7423 16.688C50.7655 16.7696 50.7723 16.855 50.7622 16.9392C50.7521 17.0234 50.7254 17.1048 50.6836 17.1786L48.4313 21.2418C48.348 21.3888 48.21 21.4969 48.0474 21.5425C47.988 21.5523 47.9275 21.5523 47.8682 21.5425M44.9119 18.5607L47.625 20.0644L49.2759 17.1274L46.5372 15.6237L44.9119 18.5607Z" fill="white"/>
<path d="M47.8746 21.5681C47.7674 21.5687 47.6618 21.5423 47.5674 21.4913L43.7282 19.3606C43.6532 19.3204 43.5871 19.2657 43.5335 19.1996C43.48 19.1336 43.4401 19.0576 43.4163 18.9759C43.3924 18.8943 43.3851 18.8088 43.3947 18.7243C43.4043 18.6398 43.4307 18.5581 43.4722 18.4839L45.7246 14.4207C45.8079 14.2737 45.9459 14.1656 46.1085 14.12C46.271 14.072 46.4459 14.0904 46.5948 14.1711L50.4341 16.3019C50.5085 16.3427 50.574 16.3978 50.627 16.464C50.6799 16.5303 50.7191 16.6065 50.7423 16.688C50.7655 16.7696 50.7723 16.855 50.7622 16.9392C50.7521 17.0234 50.7254 17.1048 50.6836 17.1786L48.4313 21.2418C48.348 21.3888 48.21 21.4969 48.0474 21.5425C47.9915 21.5602 47.9332 21.5689 47.8746 21.5681V21.5681ZM44.9119 18.5607L47.625 20.0644L49.2759 17.1274L46.5372 15.6237L44.9119 18.5607Z" stroke="white" stroke-miterlimit="10"/>
<path d="M33.5218 48.0719C33.412 48.0702 33.3044 48.0417 33.2082 47.9888L29.369 45.858C29.2954 45.8172 29.2306 45.7624 29.1783 45.6966C29.1259 45.6308 29.087 45.5554 29.0639 45.4746C29.0407 45.3937 29.0337 45.3091 29.0432 45.2256C29.0527 45.1421 29.0786 45.0612 29.1194 44.9877L30.8151 41.9227C30.8553 41.8486 30.9097 41.7832 30.9752 41.7302C31.0408 41.6772 31.1162 41.6377 31.197 41.6139C31.2779 41.5901 31.3626 41.5825 31.4464 41.5916C31.5302 41.6007 31.6114 41.6262 31.6853 41.6668L35.5246 43.7976C35.599 43.8383 35.6645 43.8934 35.7175 43.9597C35.7704 44.0259 35.8096 44.1021 35.8328 44.1837C35.856 44.2652 35.8628 44.3506 35.8527 44.4348C35.8426 44.519 35.8159 44.6004 35.7741 44.6742L34.0849 47.7392C33.9998 47.886 33.8628 47.9956 33.7009 48.0463C33.6414 48.0521 33.5814 48.0521 33.5218 48.0463M30.5527 45.0197L33.2786 46.5234L34.3472 44.6038L31.6341 43.1001L30.5527 45.0197Z" fill="white"/>
<path d="M33.5218 48.0719C33.412 48.0702 33.3044 48.0417 33.2082 47.9888L29.369 45.858C29.2954 45.8172 29.2306 45.7624 29.1783 45.6966C29.1259 45.6308 29.087 45.5554 29.0639 45.4746C29.0407 45.3937 29.0337 45.3091 29.0432 45.2256C29.0527 45.1421 29.0786 45.0612 29.1194 44.9877L30.8151 41.9227C30.8553 41.8486 30.9097 41.7832 30.9752 41.7302C31.0408 41.6772 31.1162 41.6377 31.197 41.6139C31.2779 41.5901 31.3626 41.5825 31.4464 41.5916C31.5302 41.6007 31.6114 41.6262 31.6853 41.6668L35.5246 43.7976C35.599 43.8383 35.6645 43.8934 35.7175 43.9597C35.7704 44.0259 35.8096 44.1021 35.8328 44.1837C35.856 44.2652 35.8628 44.3506 35.8527 44.4348C35.8426 44.519 35.8159 44.6004 35.7741 44.6742L34.0849 47.7392C33.9998 47.886 33.8628 47.9956 33.7009 48.0463C33.6422 48.0607 33.5822 48.0693 33.5218 48.0719ZM30.5527 45.0453L33.2786 46.5234L34.3472 44.6038L31.6341 43.1001L30.5527 45.0453Z" stroke="white" stroke-miterlimit="10"/>
<path d="M48.725 63.0004H35.3259C35.2178 63.0013 35.1112 62.9748 35.0161 62.9233C34.9209 62.8718 34.8404 62.7971 34.782 62.706C34.7199 62.6122 34.6837 62.5036 34.6769 62.3913C34.6702 62.2789 34.6932 62.1668 34.7436 62.0662L37.5463 56.1217C37.586 55.7319 37.769 55.3708 38.0598 55.1083C38.3507 54.8458 38.7286 54.7007 39.1204 54.7012H44.9241C45.3162 54.702 45.6942 54.8474 45.9858 55.1095C46.2773 55.3715 46.4621 55.7319 46.5046 56.1217L49.3073 62.0854C49.3539 62.1832 49.3749 62.2914 49.3682 62.3996C49.3616 62.5078 49.3276 62.6126 49.2694 62.7041C49.2112 62.7955 49.1307 62.8707 49.0355 62.9225C48.9402 62.9744 48.8334 63.0012 48.725 63.0004ZM36.3369 61.7206H47.714L45.2824 56.5632C45.244 56.4789 45.2243 56.3872 45.2248 56.2945C45.2257 56.2547 45.2185 56.2152 45.2037 56.1784C45.1889 56.1415 45.1668 56.108 45.1387 56.0799C45.1106 56.0518 45.0771 56.0296 45.0402 56.0148C45.0033 56 44.9638 55.9929 44.9241 55.9937H39.1204C39.0406 55.9937 38.9641 56.0254 38.9077 56.0818C38.8513 56.1382 38.8197 56.2147 38.8197 56.2945C38.8202 56.3872 38.8005 56.4789 38.7621 56.5632L36.3369 61.7206Z" fill="white"/>
<path d="M48.725 63.0004H35.3259C35.2178 63.0013 35.1112 62.9748 35.0161 62.9233C34.9209 62.8718 34.8404 62.7971 34.782 62.706C34.7199 62.6122 34.6837 62.5036 34.6769 62.3913C34.6702 62.2789 34.6932 62.1668 34.7436 62.0662L37.5463 56.1217C37.586 55.7319 37.769 55.3708 38.0598 55.1083C38.3507 54.8458 38.7286 54.7007 39.1204 54.7012H44.9241C45.3162 54.702 45.6942 54.8474 45.9857 55.1095C46.2773 55.3715 46.4621 55.7319 46.5046 56.1217L49.3073 62.0854C49.3539 62.1832 49.3749 62.2914 49.3682 62.3996C49.3616 62.5078 49.3276 62.6126 49.2694 62.7041C49.2112 62.7955 49.1307 62.8707 49.0355 62.9225C48.9402 62.9744 48.8334 63.0012 48.725 63.0004V63.0004ZM36.3369 61.7206H47.714L45.2824 56.5632C45.244 56.4789 45.2243 56.3872 45.2248 56.2945C45.2257 56.2547 45.2185 56.2152 45.2037 56.1784C45.1889 56.1415 45.1668 56.108 45.1387 56.0799C45.1106 56.0518 45.0771 56.0296 45.0402 56.0148C45.0033 56 44.9638 55.9929 44.9241 55.9937H39.1204C39.0406 55.9937 38.9641 56.0254 38.9077 56.0818C38.8513 56.1382 38.8197 56.2147 38.8197 56.2945C38.8202 56.3872 38.8005 56.4789 38.7621 56.5632L36.3369 61.7206Z" stroke="white" stroke-miterlimit="10"/>
<path d="M44.1595 36.4714C43.547 36.4714 42.9482 36.2897 42.4389 35.9494C41.9296 35.6091 41.5327 35.1254 41.2982 34.5595C41.0638 33.9936 41.0025 33.3709 41.122 32.7702C41.2415 32.1694 41.5365 31.6176 41.9696 31.1844C42.4027 30.7513 42.9546 30.4564 43.5553 30.3369C44.1561 30.2174 44.7788 30.2787 45.3447 30.5131C45.9106 30.7475 46.3943 31.1444 46.7346 31.6537C47.0749 32.163 47.2565 32.7618 47.2565 33.3744C47.2548 34.1952 46.928 34.982 46.3476 35.5624C45.7671 36.1428 44.9804 36.4697 44.1595 36.4714ZM44.1595 31.5571C43.7998 31.5558 43.4478 31.6613 43.1482 31.8602C42.8485 32.0592 42.6146 32.3425 42.476 32.6745C42.3375 33.0064 42.3006 33.372 42.37 33.7249C42.4394 34.0779 42.612 34.4023 42.8659 34.6571C43.1197 34.9119 43.4435 35.0856 43.7962 35.1562C44.1489 35.2268 44.5146 35.1912 44.8471 35.0539C45.1795 34.9165 45.4637 34.6836 45.6636 34.3846C45.8636 34.0856 45.9704 33.734 45.9704 33.3744C45.9687 32.894 45.7776 32.4337 45.4385 32.0935C45.0995 31.7532 44.6398 31.5605 44.1595 31.5571Z" fill="white"/>
<path d="M44.1595 36.4714C43.547 36.4714 42.9482 36.2897 42.4389 35.9494C41.9296 35.6091 41.5327 35.1254 41.2982 34.5595C41.0638 33.9936 41.0025 33.3709 41.122 32.7702C41.2415 32.1694 41.5365 31.6176 41.9696 31.1844C42.4027 30.7513 42.9546 30.4564 43.5553 30.3369C44.1561 30.2174 44.7788 30.2787 45.3447 30.5131C45.9106 30.7475 46.3943 31.1444 46.7346 31.6537C47.0749 32.163 47.2565 32.7618 47.2565 33.3744C47.2548 34.1952 46.928 34.982 46.3476 35.5624C45.7671 36.1428 44.9804 36.4697 44.1595 36.4714V36.4714ZM44.1595 31.5571C43.7998 31.5558 43.4478 31.6613 43.1482 31.8602C42.8485 32.0592 42.6146 32.3425 42.476 32.6745C42.3375 33.0064 42.3006 33.372 42.37 33.7249C42.4394 34.0779 42.612 34.4023 42.8659 34.6571C43.1197 34.9119 43.4435 35.0856 43.7962 35.1562C44.1489 35.2268 44.5146 35.1912 44.8471 35.0539C45.1795 34.9165 45.4637 34.6836 45.6636 34.3846C45.8636 34.0856 45.9704 33.734 45.9704 33.3744C45.9687 32.894 45.7776 32.4337 45.4385 32.0935C45.0995 31.7532 44.6398 31.5605 44.1595 31.5571V31.5571Z" stroke="white" stroke-miterlimit="10"/>
<path d="M37.2668 46.1474C37.1596 46.148 37.054 46.1216 36.9596 46.0706L28.6412 41.4571C28.5668 41.4164 28.5013 41.3613 28.4484 41.295C28.3955 41.2287 28.3563 41.1526 28.333 41.071C28.3098 40.9895 28.3031 40.9041 28.3131 40.8199C28.3232 40.7357 28.3499 40.6543 28.3917 40.5805L41.2788 17.3465C41.319 17.2724 41.3734 17.207 41.439 17.154C41.5045 17.101 41.5799 17.0615 41.6607 17.0377C41.7416 17.0139 41.8264 17.0064 41.9102 17.0154C41.994 17.0245 42.0752 17.05 42.1491 17.0906L50.4675 21.7041C50.5419 21.7448 50.6074 21.7999 50.6603 21.8662C50.7132 21.9325 50.7524 22.0086 50.7757 22.0902C50.7989 22.1718 50.8057 22.2571 50.7956 22.3414C50.7855 22.4256 50.7588 22.5069 50.717 22.5807L45.79 31.4686C45.7112 31.6122 45.5803 31.7201 45.4244 31.7701C45.2685 31.82 45.0993 31.8084 44.9517 31.7374C44.712 31.623 44.4495 31.5639 44.1839 31.5646C43.7922 31.5634 43.4107 31.6892 43.0966 31.9231C42.7825 32.1571 42.5527 32.4866 42.4416 32.8622C42.3306 33.2378 42.3444 33.6392 42.4808 34.0064C42.6173 34.3735 42.8691 34.6865 43.1985 34.8984C43.3365 34.9857 43.4359 35.1224 43.4763 35.2807C43.5168 35.4389 43.4952 35.6066 43.416 35.7494L37.8299 45.8211C37.7466 45.9681 37.6086 46.0762 37.446 46.1218C37.3866 46.1316 37.3261 46.1316 37.2668 46.1218M29.825 40.6445L37.0172 44.6053L42.0275 35.5767C41.5939 35.1477 41.2967 34.6003 41.173 34.003C41.0494 33.4058 41.1048 32.7854 41.3324 32.2195C41.5599 31.6537 41.9495 31.1676 42.4522 30.8223C42.955 30.477 43.5484 30.2878 44.1583 30.2785C44.4106 30.2759 44.6623 30.306 44.9069 30.368L49.2773 22.5167L42.0915 18.5303L29.825 40.6445Z" fill="white"/>
<path d="M37.2668 46.1474C37.1596 46.148 37.054 46.1216 36.9596 46.0706L28.6412 41.4571C28.5668 41.4164 28.5013 41.3613 28.4484 41.295C28.3955 41.2287 28.3563 41.1526 28.333 41.071C28.3098 40.9895 28.3031 40.9041 28.3131 40.8199C28.3232 40.7357 28.3499 40.6543 28.3917 40.5805L41.2788 17.3465C41.319 17.2724 41.3734 17.207 41.439 17.154C41.5045 17.101 41.5799 17.0615 41.6607 17.0377C41.7416 17.0139 41.8264 17.0064 41.9102 17.0154C41.994 17.0245 42.0752 17.05 42.1491 17.0906L50.4675 21.7041C50.5419 21.7448 50.6074 21.7999 50.6603 21.8662C50.7132 21.9325 50.7524 22.0086 50.7757 22.0902C50.7989 22.1718 50.8057 22.2571 50.7956 22.3414C50.7855 22.4256 50.7588 22.5069 50.717 22.5807L45.79 31.4686C45.7112 31.6122 45.5803 31.7201 45.4244 31.77C45.2685 31.82 45.0993 31.8084 44.9517 31.7374C44.712 31.623 44.4495 31.5639 44.1839 31.5646C43.7922 31.5634 43.4107 31.6892 43.0966 31.9231C42.7825 32.1571 42.5526 32.4866 42.4416 32.8622C42.3306 33.2378 42.3444 33.6392 42.4808 34.0064C42.6173 34.3735 42.8691 34.6865 43.1985 34.8984C43.3365 34.9857 43.4359 35.1224 43.4763 35.2807C43.5168 35.4389 43.4952 35.6066 43.416 35.7494L37.8299 45.8211C37.7466 45.9681 37.6086 46.0762 37.446 46.1218C37.3881 46.1402 37.3275 46.1488 37.2668 46.1474ZM29.825 40.6445L37.0172 44.6053L42.0275 35.5766C41.5939 35.1477 41.2967 34.6003 41.173 34.003C41.0494 33.4058 41.1048 32.7854 41.3324 32.2195C41.5599 31.6537 41.9495 31.1676 42.4522 30.8223C42.955 30.477 43.5484 30.2878 44.1583 30.2785C44.4106 30.2759 44.6623 30.306 44.9069 30.368L49.2773 22.5167L42.0915 18.5303L29.825 40.6445Z" stroke="white" stroke-miterlimit="10"/>
<path d="M47.9465 61.343C47.8786 61.3527 47.8096 61.3527 47.7417 61.343C47.659 61.3152 47.5828 61.2708 47.5179 61.2125C47.453 61.1541 47.4007 61.0832 47.3642 61.0039L45.2846 56.5887C45.2461 56.5044 45.2265 56.4127 45.227 56.32C45.2291 56.2944 45.2291 56.2687 45.227 56.2432C45.1978 56.1133 45.2098 55.9775 45.2615 55.8548C45.3131 55.7321 45.4017 55.6285 45.5149 55.5585C46.6906 54.8291 47.6604 53.8114 48.3324 52.6019C49.0043 51.3925 49.356 50.0314 49.3542 48.6478C49.3339 46.4585 48.4474 44.3663 46.8884 42.829C45.3295 41.2917 43.2252 40.4344 41.0358 40.4446C40.8886 40.4446 40.7479 40.4446 40.6071 40.4446H40.4727C40.3575 40.4516 40.2426 40.4274 40.1401 40.3744C40.0376 40.3215 39.9513 40.2418 39.8904 40.1439C39.8343 40.0466 39.8047 39.9362 39.8047 39.8239C39.8047 39.7116 39.8343 39.6013 39.8904 39.504L42.3092 35.1336C42.3526 35.057 42.4114 34.9902 42.4819 34.9373C42.5523 34.8845 42.6329 34.8467 42.7187 34.8265C42.8032 34.8057 42.891 34.8023 42.9768 34.8166C43.0626 34.8309 43.1446 34.8626 43.2178 34.9097C43.4262 35.0429 43.6596 35.132 43.9037 35.1715C44.1479 35.211 44.3975 35.2001 44.6373 35.1394C44.877 35.0788 45.1018 34.9696 45.2978 34.8188C45.4937 34.6679 45.6567 34.4785 45.7767 34.2622C45.8966 34.046 45.971 33.8074 45.9952 33.5613C46.0195 33.3152 45.993 33.0667 45.9175 32.8312C45.8421 32.5957 45.7191 32.3781 45.5563 32.192C45.3936 32.0058 45.1944 31.8549 44.971 31.7487C44.8923 31.7108 44.8222 31.6572 44.7649 31.5911C44.7077 31.5251 44.6646 31.4481 44.6383 31.3647C44.61 31.281 44.5993 31.1922 44.6071 31.1041C44.6148 31.016 44.6407 30.9304 44.6831 30.8528L46.8011 27.0456C46.8772 26.9076 47.0016 26.8026 47.1504 26.7506C47.2991 26.6987 47.4619 26.7034 47.6073 26.764C52.9311 29.0036 56.6424 36.1638 56.6424 44.1751C56.6424 51.8536 53.2767 58.7323 48.26 61.2854C48.1684 61.3305 48.0678 61.3546 47.9657 61.3558M46.6283 56.352L48.2536 59.8201C52.528 57.2606 55.3563 51.0794 55.3563 44.1751C55.3563 36.9381 52.2081 30.4817 47.6329 28.1782L46.078 30.9296C46.5886 31.3268 46.9619 31.8739 47.1457 32.4941C47.3295 33.1144 47.3145 33.7765 47.1027 34.3878C46.891 34.999 46.4932 35.5286 45.9651 35.9022C45.437 36.2758 44.8053 36.4747 44.1584 36.471C43.8049 36.4676 43.4545 36.4049 43.1218 36.2854L41.5349 39.1393C43.9798 39.2506 46.2889 40.2954 47.9865 42.0584C49.6841 43.8215 50.6408 46.1685 50.6596 48.6158C50.6581 50.1345 50.2889 51.6303 49.5835 52.9753C48.8781 54.3202 47.8576 55.4744 46.6091 56.3392" fill="white"/>
<path d="M47.9465 61.343C47.8786 61.3527 47.8096 61.3527 47.7417 61.343C47.659 61.3152 47.5828 61.2708 47.5179 61.2125C47.453 61.1541 47.4007 61.0832 47.3642 61.0039L45.2846 56.5887C45.2461 56.5044 45.2265 56.4127 45.227 56.32C45.2291 56.2944 45.2291 56.2687 45.227 56.2432C45.1978 56.1133 45.2098 55.9775 45.2615 55.8548C45.3131 55.7321 45.4017 55.6285 45.5149 55.5585C46.6906 54.8291 47.6604 53.8114 48.3324 52.6019C49.0043 51.3925 49.356 50.0314 49.3542 48.6478C49.3339 46.4585 48.4474 44.3663 46.8884 42.829C45.3295 41.2917 43.2252 40.4344 41.0358 40.4446C40.8886 40.4446 40.7479 40.4446 40.6071 40.4446H40.4727C40.3575 40.4516 40.2426 40.4274 40.1401 40.3744C40.0376 40.3215 39.9513 40.2418 39.8904 40.1439C39.8343 40.0466 39.8047 39.9362 39.8047 39.8239C39.8047 39.7116 39.8343 39.6013 39.8904 39.504L42.3092 35.1336C42.3526 35.057 42.4114 34.9902 42.4819 34.9373C42.5523 34.8845 42.6329 34.8467 42.7187 34.8265C42.8032 34.8057 42.891 34.8023 42.9768 34.8166C43.0626 34.8309 43.1446 34.8626 43.2178 34.9097C43.4262 35.0429 43.6596 35.132 43.9037 35.1715C44.1479 35.211 44.3975 35.2001 44.6373 35.1394C44.877 35.0788 45.1018 34.9696 45.2978 34.8188C45.4937 34.6679 45.6567 34.4785 45.7767 34.2622C45.8966 34.046 45.971 33.8074 45.9952 33.5613C46.0195 33.3152 45.993 33.0667 45.9175 32.8312C45.8421 32.5957 45.7191 32.3781 45.5563 32.192C45.3936 32.0058 45.1944 31.8549 44.971 31.7487C44.8923 31.7108 44.8222 31.6572 44.7649 31.5911C44.7077 31.5251 44.6646 31.4481 44.6383 31.3647C44.61 31.281 44.5994 31.1922 44.6071 31.1041C44.6148 31.016 44.6407 30.9304 44.6831 30.8528L46.8011 27.0456C46.8772 26.9076 47.0016 26.8026 47.1504 26.7506C47.2991 26.6987 47.4619 26.7034 47.6073 26.764C52.9311 29.0036 56.6424 36.1638 56.6424 44.1751C56.6424 51.8536 53.2767 58.7323 48.26 61.2854C48.1615 61.329 48.0541 61.3487 47.9465 61.343V61.343ZM46.6091 56.3392L48.2344 59.8073C52.5088 57.2478 55.3371 51.0666 55.3371 44.1623C55.3371 36.9253 52.1889 30.4689 47.6137 28.1654L46.078 30.9296C46.5886 31.3268 46.9619 31.8739 47.1457 32.4941C47.3295 33.1144 47.3145 33.7765 47.1027 34.3878C46.891 34.999 46.4932 35.5286 45.9651 35.9022C45.437 36.2758 44.8053 36.4747 44.1584 36.471C43.8049 36.4676 43.4545 36.4049 43.1218 36.2854L41.5349 39.1393C43.9798 39.2506 46.2889 40.2954 47.9865 42.0584C49.6841 43.8215 50.6408 46.1685 50.6596 48.6158C50.6581 50.1345 50.2889 51.6303 49.5835 52.9753C48.8781 54.3203 47.8576 55.4744 46.6091 56.3392V56.3392Z" stroke="white" stroke-miterlimit="10"/>
<path d="M55.9817 61.7148H27.4688V63.001H55.9817V61.7148Z" fill="white"/>
<path d="M55.9817 61.7148H27.4688V63.001H55.9817V61.7148Z" stroke="white" stroke-miterlimit="10"/>
</svg>
