<svg width="80" height="80" viewBox="0 0 80 80" fill="none" xmlns="http://www.w3.org/2000/svg">
<rect width="80" height="80" rx="40" fill="#C92C99"/>
<path d="M40.4119 23.2331C37.6023 23.2155 34.8277 23.857 32.311 25.1062C29.7943 26.3554 27.6056 28.1775 25.9208 30.426C25.7871 30.6048 25.7148 30.8222 25.7148 31.0455C25.7148 31.2689 25.7871 31.4862 25.9208 31.6651C27.8328 34.5453 28.8527 37.9255 28.8527 41.3826C28.8527 44.8396 27.8328 48.2199 25.9208 51.1001C25.7871 51.279 25.7148 51.4963 25.7148 51.7196C25.7148 51.943 25.7871 52.1603 25.9208 52.3392C27.7858 54.8099 30.251 56.7632 33.0826 58.0139C35.9143 59.2646 39.0185 59.7711 42.1008 59.4855C45.1832 59.1999 48.1415 58.1316 50.6951 56.3819C53.2487 54.6322 55.313 52.2591 56.6922 49.4878C58.0714 46.7164 58.7197 43.6387 58.5757 40.5465C58.4317 37.4543 57.5001 34.4502 55.8693 31.819C54.2385 29.1879 51.9626 27.0169 49.2574 25.5122C46.5522 24.0074 43.5075 23.2186 40.4119 23.2207M40.4119 57.4876C38.0452 57.5005 35.7052 56.9862 33.562 55.9821C31.4187 54.978 29.5259 53.5092 28.0211 51.6825C29.929 48.5891 30.9394 45.0263 30.9394 41.3919C30.9394 37.7575 29.929 34.1946 28.0211 31.1013C29.5259 29.2745 31.4187 27.8057 33.562 26.8016C35.7052 25.7975 38.0452 25.2832 40.4119 25.2962C43.7748 25.2965 47.0533 26.3493 49.7876 28.307C52.5219 30.2647 54.575 33.0291 55.6589 36.2125H47.6791L44.8726 32.4952C44.7975 32.3709 44.6972 32.2637 44.5782 32.1805C44.4592 32.0973 44.324 32.0399 44.1815 32.012C44.039 31.9841 43.8922 31.9864 43.7506 32.0187C43.609 32.0509 43.4757 32.1125 43.3593 32.1994C43.2429 32.2862 43.146 32.3965 43.0747 32.523C43.0035 32.6496 42.9595 32.7897 42.9457 32.9343C42.9318 33.0788 42.9484 33.2247 42.9943 33.3625C43.0402 33.5003 43.1145 33.627 43.2123 33.7343L45.8577 37.2595L43.522 40.3572H40.9261C40.6648 40.3774 40.4206 40.4955 40.2426 40.6879C40.0645 40.8803 39.9656 41.1328 39.9656 41.395C39.9656 41.6571 40.0645 41.9096 40.2426 42.102C40.4206 42.2944 40.6648 42.4125 40.9261 42.4327H44.0239C44.19 42.4353 44.3543 42.3972 44.5023 42.3216C44.6502 42.246 44.7774 42.1352 44.8726 41.999L47.6791 38.2818H56.1917C56.3956 39.3018 56.4993 40.3393 56.5014 41.3795H52.3505C52.2075 41.3684 52.0637 41.387 51.9282 41.4342C51.7928 41.4813 51.6685 41.5559 51.5632 41.6534C51.4579 41.7508 51.374 41.869 51.3165 42.0004C51.2591 42.1319 51.2294 42.2738 51.2294 42.4172C51.2294 42.5607 51.2591 42.7026 51.3165 42.834C51.374 42.9654 51.4579 43.0836 51.5632 43.181C51.6685 43.2785 51.7928 43.3531 51.9282 43.4002C52.0637 43.4474 52.2075 43.466 52.3505 43.4549H56.3527C56.2159 44.5093 55.973 45.5471 55.6279 46.5527H49.544L46.6941 44.6507C46.5227 44.5387 46.3226 44.4785 46.1179 44.4772H41.967C41.824 44.4661 41.6802 44.4848 41.5447 44.5319C41.4092 44.579 41.285 44.6537 41.1797 44.7511C41.0744 44.8485 40.9904 44.9667 40.933 45.0981C40.8756 45.2296 40.8459 45.3715 40.8459 45.5149C40.8459 45.6584 40.8756 45.8003 40.933 45.9317C40.9904 46.0631 41.0744 46.1813 41.1797 46.2787C41.285 46.3762 41.4092 46.4508 41.5447 46.4979C41.6802 46.5451 41.824 46.5637 41.967 46.5527H45.8081L47.6048 47.7917L45.6904 49.7123H41.9732C41.8302 49.7013 41.6864 49.7199 41.5509 49.767C41.4154 49.8142 41.2912 49.8888 41.1859 49.9862C41.0806 50.0837 40.9966 50.2018 40.9392 50.3333C40.8817 50.4647 40.8521 50.6066 40.8521 50.75C40.8521 50.8935 40.8817 51.0354 40.9392 51.1668C40.9966 51.2983 41.0806 51.4164 41.1859 51.5139C41.2912 51.6113 41.4154 51.6859 41.5509 51.7331C41.6864 51.7802 41.8302 51.7988 41.9732 51.7878H46.1241C46.4 51.7865 46.6645 51.6775 46.8614 51.4842L49.6679 48.6715H54.7605C53.415 51.3217 51.3625 53.548 48.8301 55.104C46.2977 56.6599 43.3841 57.4849 40.4119 57.4876Z" fill="white"/>
<path d="M64.8097 36.2129H62.951C62.7282 36.214 62.5111 36.1427 62.3324 36.0097C62.1536 35.8767 62.0228 35.6893 61.9598 35.4756C60.7472 30.9965 58.1678 27.0071 54.5809 24.0631C50.9939 21.1192 46.5781 19.3674 41.9485 19.0517C37.3188 18.736 32.706 19.8722 28.7527 22.302C24.7993 24.7317 21.7022 28.3341 19.8929 32.6072C18.7359 33.6601 17.7978 34.9307 17.1321 36.3463C16.4663 37.7619 16.0861 39.2949 16.013 40.8575C15.9399 42.4202 16.1755 43.9819 16.7062 45.4535C17.2369 46.925 18.0524 48.2776 19.1061 49.4339C19.3477 49.7003 19.6079 49.9605 19.8805 50.2083C21.6959 54.4701 24.7932 58.0608 28.7424 60.482C32.6916 62.9032 37.2967 64.0346 41.9183 63.7193C46.5398 63.4039 50.9485 61.6574 54.5322 58.7222C58.1159 55.7869 60.6967 51.8087 61.9164 47.3399C61.9786 47.1257 62.1091 46.9377 62.2881 46.8046C62.467 46.6715 62.6846 46.6005 62.9077 46.6026H64.7663C65.1731 46.6026 65.5759 46.5225 65.9517 46.3668C66.3276 46.2111 66.6691 45.983 66.9567 45.6953C67.2444 45.4077 67.4725 45.0662 67.6282 44.6903C67.7839 44.3145 67.864 43.9117 67.864 43.5049V39.354C67.864 38.5324 67.5376 37.7445 66.9567 37.1636C66.3758 36.5826 65.5879 36.2563 64.7663 36.2563M65.8071 43.5235C65.8071 43.7995 65.6975 44.0643 65.5023 44.2595C65.3071 44.4547 65.0423 44.5643 64.7663 44.5643H62.9077C62.2302 44.5622 61.5708 44.7822 61.0303 45.1906C60.4899 45.599 60.0982 46.1734 59.9153 46.8257C58.7891 50.8842 56.4249 54.4903 53.1521 57.1415C49.8793 59.7926 45.8609 61.3568 41.657 61.6159C37.4531 61.875 33.2731 60.8162 29.6994 58.5871C26.1258 56.3579 23.3366 53.0694 21.7205 49.1799C21.6564 49.0402 21.5635 48.9156 21.4479 48.8144C20.4756 47.9649 19.6801 46.9322 19.1071 45.7751C18.5341 44.6181 18.1947 43.3595 18.1084 42.0712C18.0221 40.7829 18.1906 39.4903 18.6041 38.2672C19.0177 37.044 19.6682 35.9144 20.5186 34.9428C20.808 34.6153 21.1184 34.3069 21.4479 34.0197C21.5665 33.9138 21.6596 33.7825 21.7205 33.6356C23.3385 29.7425 26.1318 26.4518 29.7104 24.223C33.289 21.9941 37.4743 20.9384 41.6819 21.2031C45.8895 21.4678 49.9095 23.0398 53.1805 25.6996C56.4515 28.3594 58.8104 31.9742 59.9277 36.0394C60.114 36.6882 60.5071 37.2584 61.0473 37.6633C61.5874 38.0681 62.245 38.2854 62.9201 38.2822H64.7787C64.9154 38.2822 65.0507 38.3091 65.177 38.3614C65.3033 38.4137 65.418 38.4904 65.5147 38.587C65.6113 38.6837 65.688 38.7984 65.7403 38.9247C65.7926 39.051 65.8195 39.1863 65.8195 39.323L65.8071 43.5235Z" fill="white"/>
</svg>
