<svg width="80" height="80" viewBox="0 0 80 80" fill="none" xmlns="http://www.w3.org/2000/svg">
<rect width="80" height="80" rx="40" fill="#C92C99"/>
<g clip-path="url(#clip0_205_657)">
<path d="M61.36 54.37H26V18H26.99V53.38H61.36V54.37Z" fill="white"/>
<path d="M47 37.5492C46.1565 37.5393 45.3197 37.3976 44.52 37.1292C43.691 36.8614 42.885 36.527 42.11 36.1292L41.3 35.7392C41.15 35.6692 40.94 35.5992 40.73 35.5192C40.2624 35.3855 39.8199 35.1761 39.42 34.8992C39.2244 34.7236 39.0852 34.4939 39.02 34.2392C38.8771 34.1565 38.743 34.0593 38.62 33.9492C38.4081 33.8173 38.1837 33.7068 37.95 33.6192C37.3995 33.4806 36.8213 33.4979 36.28 33.6692C35.7019 33.8726 35.1403 34.12 34.6 34.4092L33.92 34.7492C33.6 34.8992 33.31 35.0492 33.01 35.2092C32.4687 35.5038 31.9111 35.7676 31.34 35.9992C31.14 36.0892 30.9 36.1592 30.67 36.2392C30.435 36.3039 30.2045 36.3841 29.98 36.4792L29.72 36.6192C29.3686 36.8274 28.9763 36.957 28.57 36.9992C27.9976 37.0855 27.4185 37.119 26.84 37.0992C26.6163 37.0966 26.4027 37.0058 26.2454 36.8467C26.0882 36.6876 26 36.4729 26 36.2492C26.0011 36.138 26.0249 36.0282 26.0698 35.9265C26.1147 35.8248 26.1798 35.7333 26.2612 35.6575C26.3426 35.5817 26.4385 35.5233 26.5432 35.4858C26.6478 35.4483 26.759 35.4324 26.87 35.4392C27.3312 35.4652 27.7938 35.4417 28.25 35.3692C28.4475 35.3511 28.637 35.2822 28.8 35.1692C28.948 35.0735 29.1017 34.9867 29.26 34.9092C29.51 34.7992 29.82 34.6992 30.13 34.5992C30.44 34.4992 30.53 34.4792 30.7 34.4092C31.213 34.1973 31.7138 33.957 32.2 33.6892C32.51 33.5292 32.83 33.3592 33.2 33.1992C33.57 33.0392 33.62 32.9992 33.83 32.8892C34.4487 32.5628 35.0904 32.2821 35.75 32.0492C36.6067 31.7778 37.5237 31.7604 38.39 31.9992C38.7643 32.1209 39.1233 32.2854 39.46 32.4892L39.76 32.7192C39.8295 32.7741 39.9071 32.818 39.99 32.8492L40.21 32.9992C40.4022 33.18 40.5378 33.4128 40.6 33.6692C40.77 33.7492 41.08 33.8592 41.29 33.9392C41.5 34.0192 41.8 34.1292 41.99 34.2092L42.84 34.6192C43.5399 34.9884 44.2691 35.2995 45.02 35.5492C46.5152 36.0642 48.1512 35.9855 49.59 35.3292C49.7339 35.2662 49.8713 35.1892 50 35.0992C50.2249 34.9721 50.4588 34.8618 50.7 34.7692H50.86C51.0423 34.7471 51.2206 34.7 51.39 34.6292C51.5788 34.5663 51.7626 34.4894 51.94 34.3992C52.3144 34.1926 52.7196 34.0475 53.14 33.9692C53.9584 33.8466 54.783 33.7698 55.61 33.7392C56.13 33.7392 56.68 33.7392 57.23 33.7392C58.083 33.8245 58.9444 33.7499 59.77 33.5192C59.8697 33.4723 59.9776 33.4457 60.0877 33.441C60.1977 33.4363 60.3076 33.4535 60.4109 33.4917C60.5142 33.5298 60.6089 33.5882 60.6894 33.6633C60.77 33.7384 60.8347 33.8288 60.88 33.9292C60.9628 34.1216 60.9708 34.3379 60.9023 34.5359C60.8339 34.7338 60.694 34.8991 60.51 34.9992C59.4571 35.362 58.3372 35.4883 57.23 35.3692C56.72 35.3692 56.23 35.3692 55.74 35.3692C54.9871 35.3978 54.2361 35.4645 53.49 35.5692C53.2192 35.623 52.959 35.721 52.72 35.8592C52.4926 35.9724 52.2588 36.0726 52.02 36.1592C51.7626 36.2606 51.494 36.3311 51.22 36.3692C51.0927 36.4244 50.9691 36.4879 50.85 36.5592C50.625 36.6831 50.391 36.7901 50.15 36.8792C49.1476 37.286 48.0812 37.5128 47 37.5492Z" fill="white"/>
</g>
<defs>
<clipPath id="clip0_205_657">
<rect width="35.36" height="36.37" fill="white" transform="translate(26 18)"/>
</clipPath>
</defs>
</svg>
