<svg width="80" height="80" viewBox="0 0 80 80" fill="none" xmlns="http://www.w3.org/2000/svg">
<rect width="80" height="80" rx="40" fill="#C92C99"/>
<g clip-path="url(#clip0_205_646)">
<path d="M61.678 37.6243C58.3513 34.4596 54.4416 31.9184 50.1486 30.1308C46.8231 28.7188 43.2271 27.9929 39.5924 28.0001C37.3632 28.0348 35.1511 28.3816 33.0256 29.0294C29.0208 30.2047 25.273 32.0745 21.9667 34.5466C20.7047 35.4833 19.5282 36.523 18.3304 37.5317C17.8063 37.9846 17.8277 38.0052 18.3304 38.4787C21.7359 41.6589 25.725 44.2032 30.0951 45.9826C35.9183 48.4826 42.5295 48.6786 48.5015 46.5281C53.4377 44.748 57.9252 41.9798 61.6673 38.4066C62.0523 38.0464 62.0523 38.0361 61.6673 37.6655M19.7421 37.9949C23.8063 34.3095 28.711 31.5915 34.063 30.0587C32.778 30.937 31.7227 32.0906 30.9803 33.4285C30.2378 34.7665 29.8286 36.2522 29.7849 37.7685C29.7187 39.2871 30.0227 40.7995 30.6727 42.1848C31.3228 43.57 32.3007 44.7895 33.5282 45.7458C28.3905 44.1824 23.6805 41.5343 19.7421 37.9949ZM40.1272 46.6516C38.3692 46.6823 36.6416 46.2086 35.1643 45.2909C33.6871 44.3732 32.5271 43.0531 31.8322 41.4987C31.1372 39.9443 30.9388 38.226 31.2622 36.5627C31.5855 34.8993 32.4161 33.3663 33.6479 32.1589C34.8798 30.9514 36.4572 30.1242 38.1792 29.7826C39.9013 29.4411 41.69 29.6006 43.3175 30.2409C44.9451 30.8812 46.3377 31.9733 47.3181 33.378C48.2984 34.7827 48.8221 36.4365 48.8224 38.1287C48.8173 40.361 47.9045 42.5028 46.2795 44.0956C44.6544 45.6885 42.4461 46.6059 40.1272 46.6516ZM46.3625 45.7561C47.5922 44.7993 48.5715 43.5782 49.2216 42.1909C49.8717 40.8036 50.1746 39.2889 50.1058 37.7685C50.0531 36.2583 49.6398 34.7801 48.8979 33.4485C48.156 32.1169 47.1055 30.9675 45.8277 30.0896C51.1768 31.6028 56.082 34.3035 60.1486 37.9743C57.4213 40.8565 49.9988 45.0562 46.3946 45.7561M39.9454 34.3099C38.8992 34.3259 37.9007 34.7337 37.1618 35.4467C36.4229 36.1597 36.0019 37.1218 35.9881 38.1287C36.041 39.1086 36.4826 40.0316 37.222 40.7071C37.9613 41.3827 38.9419 41.7594 39.9614 41.7594C40.9809 41.7594 41.9615 41.3827 42.7008 40.7071C43.4402 40.0316 43.8818 39.1086 43.9347 38.1287C43.9234 37.1157 43.4989 36.1475 42.7525 35.4331C42.0062 34.7186 40.998 34.3152 39.9454 34.3099ZM39.9454 40.6609C39.4241 40.6609 38.9146 40.5118 38.4814 40.2327C38.0483 39.9535 37.7111 39.5568 37.5126 39.0929C37.3141 38.629 37.2633 38.1188 37.3666 37.6271C37.4698 37.1354 37.7225 36.6842 38.0926 36.3309C38.4627 35.9776 38.9335 35.7381 39.4453 35.6427C39.9571 35.5474 40.4867 35.6004 40.9671 35.7953C41.4475 35.9901 41.8569 36.3178 42.1434 36.7369C42.4299 37.1561 42.5806 37.6476 42.5764 38.1493C42.5793 38.4816 42.513 38.8112 42.3816 39.1185C42.2501 39.4259 42.0561 39.7048 41.8109 39.9388C41.5657 40.1729 41.2744 40.3573 40.954 40.4813C40.6336 40.6053 40.2906 40.6664 39.9454 40.6609Z" fill="white"/>
<path d="M11.6772 47.1665C11.5611 47.1683 11.4477 47.1328 11.3547 47.0657C11.2618 46.9986 11.1947 46.9038 11.1639 46.796C9.62246 41.2772 9.62246 35.4645 11.1639 29.9457C11.1834 29.881 11.2162 29.8207 11.2604 29.7684C11.3045 29.7161 11.3591 29.6728 11.4209 29.6412C11.4827 29.6095 11.5505 29.5901 11.6203 29.5841C11.69 29.578 11.7603 29.5855 11.827 29.6061C11.9631 29.6443 12.0779 29.733 12.1461 29.8527C12.2143 29.9724 12.2303 30.1132 12.1906 30.2442C10.7327 35.5816 10.7327 41.191 12.1906 46.5283C12.2267 46.6594 12.2076 46.7988 12.1375 46.9163C12.0674 47.0339 11.952 47.1201 11.8163 47.1562C11.7713 47.1694 11.7238 47.173 11.6772 47.1665Z" fill="white"/>
<path d="M15.0476 45.4978C14.9323 45.4962 14.8205 45.4594 14.7283 45.3929C14.6361 45.3263 14.5681 45.2333 14.5342 45.1272C13.3167 40.7437 13.3167 36.1294 14.5342 31.7459C14.5762 31.6167 14.6693 31.5087 14.7934 31.4451C14.9175 31.3815 15.0626 31.3676 15.1973 31.4062C15.3323 31.4488 15.4447 31.5404 15.5106 31.6615C15.5765 31.7826 15.5908 31.9236 15.5503 32.0547C14.4052 36.2553 14.4052 40.6692 15.5503 44.8699C15.5714 44.9348 15.5788 45.0031 15.5718 45.0707C15.5649 45.1384 15.5438 45.204 15.5098 45.2636C15.4758 45.3232 15.4297 45.3756 15.3742 45.4176C15.3186 45.4596 15.2548 45.4904 15.1866 45.5081L15.0476 45.4978Z" fill="white"/>
<path d="M68.3325 47.166C68.2795 47.1759 68.2251 47.1759 68.1721 47.166C68.0379 47.1256 67.9256 47.036 67.8596 46.9165C67.7935 46.7971 67.779 46.6574 67.8191 46.5278C69.269 41.1929 69.269 35.5888 67.8191 30.254C67.7995 30.1891 67.7933 30.1211 67.8009 30.0539C67.8085 29.9867 67.8299 29.9216 67.8636 29.8624C67.8974 29.8031 67.943 29.7508 67.9977 29.7085C68.0525 29.6662 68.1154 29.6347 68.1828 29.6158C68.3145 29.5857 68.4531 29.6038 68.5717 29.6665C68.6903 29.7293 68.7804 29.8323 68.8245 29.9555C70.3629 35.4746 70.3629 41.2865 68.8245 46.8057C68.7943 46.909 68.7299 47.0001 68.6412 47.0651C68.5524 47.1301 68.444 47.1655 68.3325 47.166Z" fill="white"/>
<path d="M64.9501 45.4978H64.7896C64.6546 45.4552 64.5422 45.3636 64.4763 45.2425C64.4104 45.1214 64.3962 44.9803 64.4367 44.8493C65.5818 40.6486 65.5818 36.2347 64.4367 32.034C64.397 31.8975 64.4152 31.7515 64.4874 31.6279C64.5596 31.5044 64.6799 31.4135 64.8217 31.3753C64.9635 31.337 65.1153 31.3546 65.2437 31.4241C65.3721 31.4936 65.4665 31.6093 65.5062 31.7458C66.7237 36.1293 66.7237 40.7437 65.5062 45.1272C65.4704 45.2402 65.3959 45.3382 65.295 45.4055C65.1941 45.4727 65.0726 45.5052 64.9501 45.4978Z" fill="white"/>
</g>
<defs>
<clipPath id="clip0_205_646">
<rect width="60" height="20" fill="white" transform="translate(10 28)"/>
</clipPath>
</defs>
</svg>
