<svg width="80" height="80" viewBox="0 0 80 80" fill="none" xmlns="http://www.w3.org/2000/svg">
<rect width="80" height="80" rx="40" fill="#69229A"/>
<path fill-rule="evenodd" clip-rule="evenodd" d="M34.5263 17.9875V19.0077H30.7632H27V38.783V58.5583H28.3684H29.7368V40.1893V21.8202H32.1316H34.5263V41.9101V62L34.7615 61.948C34.8909 61.9194 38.9609 61.1654 43.8059 60.2723C48.651 59.3793 52.7017 58.6276 52.8076 58.6018L53 58.555V39.4861V20.4173L52.8076 20.3728C52.7017 20.3482 48.6317 19.5934 43.7632 18.6952C38.8946 17.7971 34.8246 17.0408 34.7188 17.0147C34.5276 16.9675 34.5263 16.974 34.5263 17.9875ZM38.536 38.2872C39.0489 38.7611 39.192 39.6213 38.8668 40.2754C38.6268 40.758 38.3144 40.9979 37.9256 40.9979C37.2792 40.9979 36.8345 40.3907 36.8369 39.5116C36.8402 38.324 37.8153 37.6212 38.536 38.2872Z" fill="white"/>
</svg>
