<svg width="24.000000" height="24.000000" viewBox="0 0 24 24" fill="none" xmlns="http://www.w3.org/2000/svg" xmlns:xlink="http://www.w3.org/1999/xlink">
	<desc>
			Created with Pixso.
	</desc>
	<defs>
		<clipPath id="clip2_121">
			<rect id="Base / 24 / Outline / Open link" rx="-0.500000" width="23.000000" height="23.000000" transform="translate(0.500000 0.500000)" fill="white" fill-opacity="0"/>
		</clipPath>
	</defs>
	<g clip-path="url(#clip2_121)">
		<path id="Vector" d="M15 4C14.44 4 14 3.55 14 3C14 2.44 14.44 2 15 2L21 2C21.55 2 22 2.44 22 3L22 9C22 9.55 21.55 10 21 10C20.44 10 20 9.55 20 9L20 5.41L12.2 13.2C11.81 13.59 11.18 13.59 10.79 13.2C10.4 12.81 10.4 12.18 10.79 11.79L18.58 4L15 4ZM6.93 5C6.95 5 6.97 5 7 5L12 5C12.55 5 13 5.44 13 6C13 6.55 12.55 7 12 7L7 7C6.02 7 5.4 7 4.93 7.06C4.5 7.12 4.36 7.21 4.29 7.29C4.21 7.36 4.12 7.5 4.06 7.93C4 8.4 4 9.02 4 10L4 17C4 17.97 4 18.59 4.06 19.06C4.12 19.49 4.21 19.63 4.29 19.7C4.36 19.78 4.5 19.87 4.93 19.93C5.4 19.99 6.02 20 7 20L14 20C14.97 20 15.59 19.99 16.06 19.93C16.49 19.87 16.63 19.78 16.7 19.7C16.78 19.63 16.87 19.49 16.93 19.06C16.99 18.59 17 17.97 17 17L17 12C17 11.44 17.44 11 18 11C18.55 11 19 11.44 19 12L19 17.06C19 17.95 19 18.71 18.91 19.32C18.83 19.98 18.63 20.61 18.12 21.12C17.61 21.63 16.98 21.82 16.32 21.91C15.71 22 14.95 22 14.06 22L6.93 22C6.04 22 5.28 22 4.67 21.91C4.01 21.82 3.38 21.63 2.87 21.12C2.36 20.61 2.16 19.98 2.08 19.32C2 18.71 2 17.95 2 17.06L2 9.93C2 9.04 2 8.28 2.08 7.67C2.16 7.01 2.36 6.38 2.87 5.87C3.38 5.36 4.01 5.17 4.67 5.08C5.28 4.99 6.04 4.99 6.93 5Z" fill="#2A2A2A" fill-opacity="1.000000" fill-rule="evenodd"/>
	</g>
</svg>
