<svg width="96.000000" height="32.000000" viewBox="0 0 96 32" fill="none" xmlns="http://www.w3.org/2000/svg" xmlns:xlink="http://www.w3.org/1999/xlink">
	<desc>
			Created with Pixso.
	</desc>
	<defs>
		<clipPath id="clip25_130">
			<rect id="logo_cryptopro 1" rx="-0.320000" width="95.360001" height="31.360001" transform="translate(0.320000 0.320000)" fill="white" fill-opacity="0"/>
		</clipPath>
	</defs>
	<rect id="logo_cryptopro 1" rx="-0.320000" width="95.360001" height="31.360001" transform="translate(0.320000 0.320000)" fill="#FFFFFF" fill-opacity="0"/>
	<g clip-path="url(#clip25_130)">
		<path id="Vector" d="M0 7.6L0 24.39L14.67 16L0 7.6Z" fill="#FF1635" fill-opacity="1.000000" fill-rule="nonzero"/>
		<path id="Vector" d="M21.93 15.49C22.2 15.21 22.48 14.9 22.79 14.57L23.89 13.4C24.27 12.99 24.64 12.59 25 12.19C25.36 11.8 25.7 11.43 26.01 11.1C26.06 11.06 26.09 11.01 26.11 10.96C26.12 10.9 26.13 10.84 26.11 10.78C26.09 10.65 25.97 10.52 25.77 10.52L25.12 10.52C25.06 10.52 24.99 10.54 24.94 10.56C24.88 10.59 24.83 10.63 24.8 10.68C24.5 10.99 24.19 11.33 23.86 11.69L21.84 13.89C21.51 14.25 21.22 14.57 20.96 14.85C20.91 14.89 20.88 14.91 20.88 14.91C20.83 14.92 20.79 14.92 20.74 14.92L20.35 14.92L20.35 10.89C20.35 10.68 20.2 10.52 20 10.52L19.44 10.52C19.4 10.52 19.35 10.53 19.31 10.55C19.26 10.56 19.22 10.59 19.19 10.62C19.16 10.65 19.13 10.69 19.11 10.74C19.09 10.78 19.09 10.83 19.09 10.88L19.09 20.27C19.09 20.49 19.24 20.65 19.46 20.65L20 20.65C20.2 20.65 20.35 20.49 20.35 20.28L20.35 16.12L20.71 16.12C20.77 16.12 20.81 16.12 20.82 16.12C20.83 16.13 20.85 16.15 20.9 16.19L25.07 20.47C25.14 20.56 25.22 20.62 25.31 20.64C25.36 20.64 25.4 20.65 25.45 20.65L26.18 20.65C26.25 20.65 26.33 20.63 26.39 20.58C26.45 20.53 26.49 20.46 26.51 20.39C26.52 20.33 26.52 20.27 26.5 20.22C26.48 20.16 26.45 20.11 26.41 20.07L21.93 15.49L21.93 15.49Z" fill="#0055A2" fill-opacity="1.000000" fill-rule="nonzero"/>
		<path id="Vector" d="M32.74 11.43C32.42 11.14 32.01 10.9 31.53 10.74C31.05 10.58 30.5 10.49 29.9 10.49C29.2 10.49 28.5 10.51 27.81 10.54C27.6 10.54 27.45 10.69 27.45 10.9L27.45 20.3C27.45 20.5 27.6 20.65 27.81 20.65L28.36 20.65C28.41 20.65 28.45 20.64 28.5 20.63C28.54 20.61 28.58 20.58 28.61 20.55C28.65 20.52 28.67 20.48 28.69 20.43C28.71 20.39 28.72 20.34 28.71 20.3L28.71 17.13C28.77 17.13 28.83 17.14 28.89 17.14C29.07 17.15 29.35 17.15 29.72 17.15C30.23 17.16 30.74 17.09 31.24 16.95C31.7 16.82 32.14 16.61 32.52 16.32C32.9 16.03 33.2 15.66 33.41 15.24C33.63 14.81 33.74 14.31 33.74 13.74C33.74 13.29 33.65 12.86 33.49 12.47C33.32 12.07 33.07 11.72 32.74 11.43ZM32.47 13.77C32.47 14.17 32.4 14.51 32.26 14.78C32.12 15.04 31.92 15.27 31.68 15.44C31.43 15.62 31.14 15.75 30.81 15.82C30.47 15.9 30.1 15.94 29.72 15.94C29.39 15.95 29.05 15.94 28.71 15.93L28.71 11.7C28.81 11.7 28.91 11.69 29.03 11.69C29.54 11.67 30.32 11.64 30.93 11.81C31.25 11.9 31.52 12.04 31.75 12.21C31.97 12.38 32.15 12.6 32.28 12.86C32.41 13.11 32.47 13.42 32.47 13.77Z" fill="#0055A2" fill-opacity="1.000000" fill-rule="nonzero"/>
		<path id="Vector" d="M42.21 10.52L41.61 10.52C41.46 10.52 41.32 10.6 41.28 10.7L37.44 16.37C37.25 16.66 37.05 16.95 36.86 17.24C36.67 17.54 36.48 17.82 36.31 18.09L36.07 18.46C36.07 18.27 36.08 18.07 36.08 17.87L36.08 10.88C36.08 10.83 36.07 10.78 36.05 10.74C36.03 10.69 36.01 10.65 35.97 10.62C35.94 10.59 35.9 10.56 35.86 10.55C35.81 10.53 35.77 10.52 35.72 10.52L35.17 10.52C35.12 10.52 35.08 10.53 35.03 10.55C34.99 10.57 34.95 10.59 34.92 10.63C34.89 10.66 34.86 10.7 34.85 10.74C34.83 10.78 34.82 10.83 34.83 10.88L34.83 20.28C34.83 20.49 34.98 20.65 35.18 20.65L35.82 20.65C35.95 20.65 36.07 20.59 36.16 20.47L39.93 14.91L41.08 13.17C41.16 13.05 41.24 12.92 41.32 12.8C41.31 13.37 41.3 13.94 41.3 14.51L41.3 20.29C41.3 20.5 41.45 20.65 41.66 20.65L42.21 20.65C42.25 20.65 42.3 20.64 42.34 20.62C42.38 20.6 42.42 20.58 42.45 20.54C42.49 20.51 42.51 20.47 42.53 20.43C42.54 20.39 42.55 20.34 42.55 20.29L42.55 10.88C42.55 10.68 42.4 10.52 42.21 10.52L42.21 10.52Z" fill="#0055A2" fill-opacity="1.000000" fill-rule="nonzero"/>
		<path id="Vector" d="M51.33 10.52L44.54 10.52C44.49 10.52 44.44 10.53 44.4 10.55C44.35 10.56 44.31 10.59 44.28 10.62C44.25 10.65 44.22 10.69 44.21 10.74C44.19 10.78 44.18 10.83 44.18 10.88L44.18 20.28C44.18 20.49 44.33 20.65 44.54 20.65L45.09 20.65C45.29 20.65 45.45 20.49 45.45 20.28L45.45 11.73L50.42 11.73L50.42 20.29C50.42 20.5 50.57 20.65 50.78 20.65L51.33 20.65C51.38 20.65 51.42 20.64 51.47 20.62C51.51 20.61 51.55 20.58 51.58 20.55C51.62 20.52 51.64 20.48 51.66 20.43C51.68 20.39 51.69 20.34 51.69 20.29L51.69 10.89C51.69 10.68 51.54 10.52 51.33 10.52ZM60.2 11.71L60.29 11.62C60.32 11.58 60.34 11.53 60.36 11.48C60.37 11.43 60.37 11.37 60.36 11.32L60.29 10.82C60.27 10.73 60.23 10.66 60.16 10.6C60.09 10.55 60.01 10.52 59.92 10.52L52.93 10.52C52.77 10.52 52.63 10.62 52.56 10.81L52.44 11.32C52.43 11.37 52.43 11.42 52.45 11.48C52.46 11.53 52.48 11.57 52.52 11.62L52.65 11.73L55.78 11.73L55.78 20.28C55.78 20.49 55.93 20.65 56.15 20.65L56.67 20.65C56.89 20.65 57.04 20.49 57.04 20.28L57.04 11.73L60.02 11.73L60.2 11.71ZM68.72 13.52C68.51 12.89 68.2 12.34 67.81 11.89C67.41 11.43 66.92 11.05 66.37 10.79C65.31 10.28 63.85 10.25 62.69 10.75C62.14 10.99 61.64 11.35 61.24 11.79C60.84 12.24 60.51 12.79 60.29 13.43C60.06 14.06 59.94 14.78 59.94 15.56C59.94 16.3 60.04 16.99 60.25 17.62C60.43 18.23 60.74 18.79 61.15 19.28C61.54 19.75 62.04 20.13 62.6 20.39C63.17 20.66 63.82 20.79 64.54 20.79C65.16 20.79 65.76 20.68 66.31 20.45C66.86 20.22 67.36 19.86 67.75 19.42C68.15 18.97 68.47 18.41 68.69 17.76C68.92 17.12 69.03 16.37 69.03 15.53C69.03 14.85 68.93 14.17 68.72 13.52ZM67.75 15.55C67.75 16.16 67.68 16.73 67.53 17.23C67.39 17.73 67.17 18.16 66.9 18.5C66.63 18.84 66.29 19.12 65.89 19.3C65.5 19.49 65.04 19.58 64.54 19.58C64 19.58 63.51 19.47 63.11 19.26C62.71 19.05 62.35 18.76 62.08 18.4C61.79 18.01 61.57 17.58 61.44 17.12C61.29 16.61 61.22 16.08 61.22 15.55C61.22 14.89 61.31 14.3 61.49 13.8C61.66 13.31 61.9 12.9 62.19 12.57C62.48 12.25 62.83 12 63.21 11.84C63.61 11.67 64.03 11.59 64.46 11.59C64.95 11.59 65.4 11.69 65.8 11.88C66.2 12.08 66.55 12.36 66.83 12.7C67.13 13.07 67.36 13.5 67.5 13.96C67.67 14.44 67.75 14.98 67.75 15.55Z" fill="#0055A2" fill-opacity="1.000000" fill-rule="nonzero"/>
		<path id="Vector" d="M77.54 10.52L70.75 10.52C70.7 10.52 70.65 10.53 70.61 10.54C70.56 10.56 70.52 10.59 70.49 10.62C70.46 10.65 70.43 10.69 70.41 10.74C70.4 10.78 70.39 10.83 70.39 10.87L70.39 20.28C70.39 20.49 70.54 20.65 70.75 20.65L71.3 20.65C71.5 20.65 71.65 20.49 71.65 20.28L71.65 11.73L76.63 11.73L76.63 20.29C76.63 20.5 76.78 20.65 76.99 20.65L77.54 20.65C77.58 20.65 77.63 20.64 77.68 20.62C77.72 20.61 77.76 20.58 77.79 20.55C77.83 20.52 77.85 20.48 77.87 20.43C77.89 20.39 77.9 20.34 77.9 20.29L77.9 10.89C77.9 10.68 77.75 10.52 77.54 10.52ZM85.19 11.43C84.86 11.14 84.45 10.9 83.97 10.74C83.5 10.58 82.95 10.49 82.34 10.49C81.9 10.49 81.48 10.5 81.1 10.51C80.71 10.52 80.42 10.53 80.25 10.54C80.05 10.54 79.9 10.69 79.9 10.9L79.9 20.3C79.9 20.5 80.05 20.65 80.25 20.65L80.8 20.65C80.85 20.65 80.9 20.64 80.94 20.63C80.99 20.61 81.03 20.58 81.06 20.55C81.09 20.52 81.12 20.48 81.14 20.43C81.15 20.39 81.16 20.34 81.16 20.3L81.16 17.13C81.22 17.13 81.27 17.14 81.33 17.14C81.52 17.15 81.79 17.15 82.17 17.15C82.68 17.16 83.19 17.09 83.68 16.95C84.15 16.82 84.58 16.61 84.97 16.32C85.34 16.03 85.65 15.66 85.85 15.24C86.07 14.81 86.18 14.31 86.18 13.74C86.18 13.29 86.1 12.86 85.94 12.47C85.77 12.07 85.51 11.72 85.19 11.43ZM84.92 13.77C84.92 14.17 84.85 14.51 84.7 14.78C84.56 15.05 84.37 15.27 84.12 15.44C83.87 15.62 83.58 15.75 83.26 15.82C82.92 15.9 82.55 15.94 82.17 15.94C81.83 15.95 81.5 15.94 81.16 15.93L81.16 11.7C81.25 11.7 81.36 11.69 81.48 11.69C81.99 11.67 82.77 11.64 83.38 11.81C83.69 11.9 83.97 12.04 84.19 12.21C84.42 12.38 84.59 12.6 84.72 12.86C84.85 13.11 84.92 13.42 84.92 13.77ZM95.68 13.52C95.47 12.89 95.17 12.34 94.77 11.89C94.37 11.43 93.88 11.05 93.34 10.79C92.78 10.53 92.14 10.39 91.44 10.39C90.83 10.39 90.22 10.51 89.65 10.75C89.1 10.99 88.61 11.35 88.21 11.79C87.8 12.24 87.48 12.79 87.25 13.43C87.02 14.06 86.91 14.78 86.91 15.56C86.91 16.3 87.01 16.99 87.21 17.62C87.41 18.26 87.72 18.82 88.11 19.28C88.51 19.75 89.01 20.13 89.56 20.39C90.13 20.66 90.79 20.79 91.5 20.79C92.13 20.79 92.72 20.68 93.27 20.45C93.83 20.22 94.32 19.86 94.72 19.42C95.12 18.97 95.43 18.41 95.66 17.76C95.88 17.11 95.99 16.37 95.99 15.53C96 14.85 95.89 14.17 95.68 13.52ZM94.71 15.55C94.71 16.16 94.64 16.73 94.49 17.23C94.35 17.73 94.14 18.16 93.86 18.5C93.59 18.84 93.25 19.12 92.86 19.3C92.46 19.49 92.01 19.58 91.5 19.58C90.96 19.58 90.48 19.47 90.07 19.26C89.67 19.05 89.32 18.76 89.04 18.4C88.75 18.01 88.54 17.58 88.41 17.12C88.26 16.61 88.18 16.08 88.18 15.55C88.18 14.88 88.27 14.3 88.45 13.8C88.63 13.31 88.86 12.9 89.16 12.57C89.44 12.26 89.79 12.01 90.18 11.84C90.57 11.67 91 11.58 91.43 11.59C91.91 11.59 92.36 11.69 92.76 11.88C93.16 12.08 93.51 12.35 93.79 12.7C94.08 13.05 94.31 13.47 94.47 13.96C94.63 14.44 94.71 14.98 94.71 15.55Z" fill="#FF1635" fill-opacity="1.000000" fill-rule="nonzero"/>
		<path id="Vector" d="M32.12 22.81L31.98 23.13C29.42 27.4 24.76 30.05 19.77 30.05C14.26 30.05 9.2 26.83 6.88 21.84L5.13 22.74C7.78 28.36 13.53 32 19.77 32C25.29 32 30.34 29.25 33.34 24.65L95.99 24.65L95.99 22.81L32.12 22.81ZM31.64 8.34L33.94 8.34C32.54 5.81 30.49 3.7 28 2.23C25.5 0.76 22.66 -0.01 19.77 0C13.53 0 7.78 3.63 5.13 9.25L6.88 10.15C9.2 5.16 14.26 1.94 19.77 1.94C24.55 1.94 29.03 4.38 31.64 8.34L31.64 8.34Z" fill="#0055A2" fill-opacity="1.000000" fill-rule="nonzero"/>
	</g>
</svg>
