<svg width="377.016602" height="72.843964" viewBox="0 0 377.017 72.844" fill="none" xmlns="http://www.w3.org/2000/svg" xmlns:xlink="http://www.w3.org/1999/xlink">
	<desc>
			Created with Pixso.
	</desc>
	<defs/>
	<path id="Vector" d="M201.26 72.82L201.26 27.12L230.54 27.12L230.54 37.73L213.47 37.73L213.47 72.82L201.26 72.82Z" fill="#ED0E00" fill-opacity="1.000000" fill-rule="nonzero"/>
	<path id="Vector" d="M267.4 72.82L267.4 54.92L249.27 54.92L249.27 72.82L237.06 72.82L237.06 27.12L249.27 27.12L249.27 44.17L267.4 44.17L267.4 27.12L279.61 27.12L279.61 72.82L267.4 72.82Z" fill="#ED0E00" fill-opacity="1.000000" fill-rule="nonzero"/>
	<path id="Vector" d="M336.19 27.12L336.19 37.73L350.46 37.73L350.46 72.82L362.67 72.82L362.67 37.73L377 37.73L377 27.12L336.19 27.12Z" fill="#ED0E00" fill-opacity="1.000000" fill-rule="nonzero"/>
	<path id="Vector" d="M318.24 72.84L318.24 46.79L298.81 72.84L288.6 72.84L288.6 27.14L300.81 27.14L300.81 52.91L319.91 27.14L330.46 27.14L330.46 72.84L318.24 72.84Z" fill="#ED0E00" fill-opacity="1.000000" fill-rule="nonzero"/>
	<path id="Vector" d="M131.11 72.82L131.11 45.66L118.92 60.01L106.73 45.66L106.73 72.82L94.52 72.82L94.52 27.12L106.57 27.12L118.92 42.83L131.27 27.12L143.32 27.12L143.32 72.82L131.11 72.82Z" fill="#ED0E00" fill-opacity="1.000000" fill-rule="nonzero"/>
	<path id="Vector" d="M184.21 72.82L181.67 66.41L162.67 66.41L160.14 72.82L147.84 72.82L166.62 27.12L177.91 27.12L196.69 72.82L184.21 72.82ZM166.51 56.74L177.84 56.74L172.17 42.42L166.51 56.74Z" fill="#ED0E00" fill-opacity="1.000000" fill-rule="nonzero"/>
	<path id="Vector" d="M0 24.88C0 19.34 2.2 14.11 6.2 10.17C8.15 8.23 10.48 6.69 13.04 5.64C15.61 4.59 18.35 4.05 21.13 4.06L69.92 4.06L69.92 14.64L21.13 14.64C19.76 14.64 18.41 14.91 17.16 15.42C15.9 15.94 14.75 16.7 13.8 17.65C12.83 18.6 12.06 19.73 11.53 20.97C11 22.21 10.73 23.54 10.73 24.88L10.67 42.65C10.17 47.37 6.56 51.18 1.9 51.88L0 52.16L0 24.88Z" fill="#ED0E00" fill-opacity="1.000000" fill-rule="nonzero"/>
	<path id="Vector" d="M0 72.83L0 62.25L48.79 62.25C51.55 62.25 54.15 61.17 56.12 59.23C57.09 58.29 57.86 57.16 58.39 55.92C58.91 54.68 59.18 53.35 59.18 52.01L59.19 35.14C59.19 30.12 62.99 25.76 68.02 25.01L69.92 24.73L69.92 52.01C69.92 54.74 69.38 57.45 68.31 59.97C67.25 62.5 65.69 64.79 63.72 66.72C61.76 68.66 59.44 70.2 56.87 71.25C54.31 72.3 51.56 72.83 48.79 72.83L0 72.83Z" fill="#ED0E00" fill-opacity="1.000000" fill-rule="nonzero"/>
	<path id="Vector" d="M41.33 52.18L41.33 38.5L34.97 45.99L28.61 38.5L28.61 52.18L20.19 52.18L20.19 25.26L28.17 25.26L34.97 33.92L41.78 25.26L49.75 25.26L49.75 52.18L41.33 52.18Z" fill="#ED0E00" fill-opacity="1.000000" fill-rule="nonzero"/>
	<path id="Vector" d="M95.75 17.2L95.75 14.25C96.33 14.56 96.99 14.67 97.54 14.67C98.51 14.67 99.01 14.33 99.59 13.26L94.49 4.06L98.35 4.06L101.32 9.87L103.92 4.06L107.63 4.06L102.64 14.5C101.3 17.31 99.26 17.72 98.18 17.72C97.32 17.72 96.45 17.58 95.75 17.2Z" fill="#ED0E00" fill-opacity="1.000000" fill-rule="nonzero"/>
	<path id="Vector" d="M107.08 14.43L108.39 14.43C109.43 12.76 109.93 10.43 109.93 6.47L109.93 4.06L120.06 4.06L120.06 14.43L121.85 14.43L121.85 20.05L118.55 20.05L118.55 17.44L110.36 17.44L110.36 20.05L107.08 20.05L107.08 14.43ZM116.57 14.43L116.57 7.08L113.41 7.08C113.37 10.39 112.77 12.88 112.19 14.43L116.57 14.43Z" fill="#ED0E00" fill-opacity="1.000000" fill-rule="nonzero"/>
	<path id="Vector" d="M122.93 10.76C122.93 6.93 125.92 3.79 130.09 3.79C134.26 3.79 137.25 6.93 137.25 10.76C137.25 14.56 134.26 17.71 130.09 17.71L122.93 10.76ZM133.66 10.76C133.66 8.57 132.15 6.97 130.09 6.97C128.03 6.97 126.52 8.57 126.52 10.76C126.52 12.93 128.03 14.54 130.09 14.54L133.66 10.76Z" fill="#ED0E00" fill-opacity="1.000000" fill-rule="nonzero"/>
	<path id="Vector" d="M138.97 10.76C138.97 6.64 142.19 3.79 146.52 3.79C147.8 3.79 149 4.06 150.03 4.56L150.03 7.94C149 7.28 147.79 6.94 146.56 6.97C144.29 6.97 142.56 8.56 142.56 10.76C142.56 12.99 144.33 14.54 146.69 14.54C147.99 14.54 149.2 14.28 150.27 13.47L150.27 16.88C149.22 17.41 147.88 17.72 146.54 17.72C142.23 17.72 138.97 14.87 138.97 10.76L138.97 10.76Z" fill="#ED0E00" fill-opacity="1.000000" fill-rule="nonzero"/>
	<path id="Vector" d="M155.77 7.08L151.69 7.08L151.69 4.06L163.35 4.06L163.35 7.08L159.26 7.08L159.26 17.45L155.77 17.45L155.77 7.08Z" fill="#ED0E00" fill-opacity="1.000000" fill-rule="nonzero"/>
	<path id="Vector" d="M164.48 10.76C164.48 6.93 167.47 3.79 171.64 3.79C175.81 3.79 178.8 6.93 178.8 10.76C178.8 14.56 175.81 17.71 171.64 17.71L164.48 10.76ZM175.21 10.76C175.21 8.57 173.69 6.97 171.64 6.97C169.58 6.97 168.07 8.57 168.07 10.76C168.07 12.93 169.58 14.54 171.64 14.54L175.21 10.76Z" fill="#ED0E00" fill-opacity="1.000000" fill-rule="nonzero"/>
	<path id="Vector" d="M180.91 4.06L187.53 4.06C189.89 4.06 191.76 5.15 191.76 7.44C191.76 8.9 190.83 9.74 190.17 10.05C191.29 10.31 192.75 11.5 192.75 13.6C192.75 15.9 190.83 17.45 187.89 17.45L180.91 17.45L180.91 4.06ZM187 9.19C187.86 9.19 188.4 8.74 188.4 8.04C188.4 7.29 187.86 6.85 187 6.85L184.4 6.85L184.4 9.19L187 9.19ZM187.2 14.58C188.24 14.58 188.9 14.06 188.9 13.16C188.9 12.28 188.24 11.73 187.2 11.73L184.4 11.73L184.4 14.58L187.2 14.58Z" fill="#ED0E00" fill-opacity="1.000000" fill-rule="nonzero"/>
	<path id="Vector" d="M194.79 4.06L205.12 4.06L205.12 7.08L198.29 7.08L198.29 8.9L203.72 8.9L203.72 11.81L198.29 11.81L198.29 14.43L205.27 14.43L205.27 17.45L194.79 17.45L194.79 4.06Z" fill="#ED0E00" fill-opacity="1.000000" fill-rule="nonzero"/>
	<path id="Vector" d="M207.49 4.06L213.54 4.06C216.61 4.06 218.49 5.82 218.49 8.25C218.49 10.68 216.61 12.46 213.54 12.46L210.98 12.46L210.98 17.45L207.49 17.45L207.49 4.06ZM213.28 9.65C214.28 9.65 214.93 9.15 214.93 8.3C214.93 7.45 214.28 6.97 213.28 6.97L210.98 6.97L210.98 9.65L213.28 9.65Z" fill="#ED0E00" fill-opacity="1.000000" fill-rule="nonzero"/>
	<path id="Vector" d="M223 11.96C221.33 11.31 220.36 9.91 220.36 8.19C220.36 5.8 222.22 4.06 225.25 4.06L231.64 4.06L231.64 17.45L228.15 17.45L228.15 12.34L226.71 12.34L222.85 17.45L218.83 17.45L223 11.96ZM228.15 9.55L228.15 6.97L225.45 6.97C224.5 6.97 223.9 7.47 223.9 8.28C223.9 9.09 224.5 9.55 225.45 9.55L228.15 9.55Z" fill="#ED0E00" fill-opacity="1.000000" fill-rule="nonzero"/>
	<path id="Vector" d="M239.5 12.29L237.94 12.29L237.94 17.45L234.39 17.45L234.39 4.06L237.94 4.06L237.94 9.22L239.5 9.22C240.12 6.12 242.66 3.79 246.04 3.79C249.94 3.79 252.71 6.95 252.71 10.75C252.71 14.56 249.94 17.71 246.04 17.71L239.5 12.29ZM249.14 10.76C249.14 8.44 247.9 6.93 246.04 6.93C244.17 6.93 242.91 8.44 242.91 10.76C242.91 13.05 244.17 14.6 246.04 14.6L249.14 10.76Z" fill="#ED0E00" fill-opacity="1.000000" fill-rule="nonzero"/>
	<path id="Vector" d="M270.91 17.45L254.85 17.45L254.85 4.06L258.34 4.06L258.34 14.43L261.91 14.43L261.91 4.06L265.4 4.06L265.4 14.43L268.95 14.43L268.95 4.06L272.43 4.06L272.43 14.43L274.21 14.43L274.21 20.05L270.91 20.05L270.91 17.45Z" fill="#ED0E00" fill-opacity="1.000000" fill-rule="nonzero"/>
	<path id="Vector" d="M276.17 4.06L279.66 4.06L279.66 11.61L285.27 4.06L288.3 4.06L288.3 17.45L284.8 17.45L284.8 9.82L279.1 17.45L276.17 17.45L276.17 4.06Z" fill="#ED0E00" fill-opacity="1.000000" fill-rule="nonzero"/>
	<path id="Vector" d="M291.05 4.05L294.54 4.05L294.54 11.6L300.15 4.05L303.18 4.05L303.18 17.44L299.68 17.44L299.68 9.8L293.98 17.43L291.05 17.43L291.05 4.05ZM295.78 0C295.8 0.74 296.29 1.2 297.08 1.2C297.88 1.2 298.36 0.74 298.38 0L300.77 0C300.73 2.14 299.12 3.36 297.1 3.36C295.08 3.36 293.47 2.14 293.43 0L295.78 0Z" fill="#ED0E00" fill-opacity="1.000000" fill-rule="nonzero"/>
	<path id="Vector" d="M320.8 17.45L310.67 17.45L310.67 4.06L314.16 4.06L314.16 14.43L318.82 14.43L318.82 4.06L322.31 4.06L322.31 14.43L324.1 14.43L324.1 20.05L320.8 20.05L320.8 17.45Z" fill="#ED0E00" fill-opacity="1.000000" fill-rule="nonzero"/>
	<path id="Vector" d="M326 4.06L336.33 4.06L336.33 7.08L329.5 7.08L329.5 8.9L334.93 8.9L334.93 11.81L329.5 11.81L329.5 14.43L336.48 14.43L336.48 17.45L326 17.45L326 4.06Z" fill="#ED0E00" fill-opacity="1.000000" fill-rule="nonzero"/>
	<path id="Vector" d="M338.7 4.06L342.19 4.06L342.19 8.82L347.31 8.82L347.31 4.06L350.8 4.06L350.8 17.45L347.31 17.45L347.31 11.88L342.19 11.88L342.19 17.45L338.7 17.45L338.7 4.06Z" fill="#ED0E00" fill-opacity="1.000000" fill-rule="nonzero"/>
	<path id="Vector" d="M356.65 7.08L352.57 7.08L352.57 4.06L364.24 4.06L364.24 7.08L360.14 7.08L360.14 17.45L356.65 17.45L356.65 7.08Z" fill="#ED0E00" fill-opacity="1.000000" fill-rule="nonzero"/>
	<path id="Vector" d="M366.01 4.06L372.06 4.06C375.13 4.06 377.01 5.82 377.01 8.25C377.01 10.68 375.13 12.46 372.06 12.46L369.5 12.46L369.5 17.45L366.01 17.45L366.01 4.06ZM371.8 9.65C372.8 9.65 373.45 9.15 373.45 8.3C373.45 7.45 372.8 6.97 371.8 6.97L369.5 6.97L369.5 9.65L371.8 9.65Z" fill="#ED0E00" fill-opacity="1.000000" fill-rule="nonzero"/>
</svg>
