<svg width="32.000000" height="32.000000" viewBox="0 0 32 32" fill="none" xmlns="http://www.w3.org/2000/svg" xmlns:xlink="http://www.w3.org/1999/xlink">
	<desc>
			Created with Pixso.
	</desc>
	<defs/>
	<path id="Vector" d="M31.99 17.57L31.85 16.19C31.81 15.83 31.63 15.5 31.34 15.27C31.04 15.04 30.68 14.94 30.3 14.97L29.58 15.04L29.26 11.91C29.22 11.52 29.03 11.17 28.71 10.92C28.39 10.67 27.99 10.55 27.59 10.59L18.08 11.49L18.3 10.6C18.37 10.33 18.19 10.05 17.9 9.98L16.87 9.75L18.59 2.76C18.65 2.48 18.48 2.2 18.19 2.14L8.85 0.01C8.56 -0.06 8.27 0.11 8.21 0.39L6.48 7.38L5.45 7.14C5.16 7.08 4.87 7.25 4.8 7.53L0.08 26.73C-0.3 28.26 0.68 29.79 2.27 30.15L10.01 31.92C11.6 32.28 13.19 31.33 13.57 29.81L14.7 25.22L28.95 23.87C29.36 23.83 29.72 23.64 29.98 23.34C30.24 23.03 30.37 22.65 30.32 22.25L30 19.13L30.72 19.06C31.1 19.02 31.44 18.85 31.67 18.57C31.91 18.29 32.03 17.94 31.99 17.57ZM9.12 1.13L17.42 3.02L15.83 9.51L7.52 7.62L9.12 1.13ZM11.99 2.83L9.91 2.36C9.63 2.3 9.34 2.47 9.27 2.74L8.9 4.24C8.83 4.52 9.01 4.79 9.3 4.86L11.37 5.33C11.66 5.4 11.95 5.23 12.02 4.95L12.38 3.45C12.45 3.18 12.28 2.9 11.99 2.83ZM14.07 3.31L16.14 3.78C16.43 3.85 16.61 4.12 16.54 4.4L16.17 5.9C16.1 6.17 15.81 6.34 15.53 6.28L13.45 5.8C13.16 5.74 12.99 5.46 13.05 5.19L13.42 3.69C13.49 3.41 13.78 3.24 14.07 3.31ZM11.1 4.21L10.06 3.98L10.19 3.48L11.22 3.71L11.1 4.21ZM14.22 4.92L15.25 5.16L15.38 4.66L14.34 4.42L14.22 4.92ZM12.53 29.57C12.29 30.55 11.27 31.15 10.26 30.92L2.52 29.15C1.5 28.92 0.87 27.94 1.11 26.97L5.72 8.26L17.14 10.86L16.96 11.6L10.53 12.21C8.69 12.39 7.03 13.24 5.85 14.62C4.68 16 4.13 17.73 4.32 19.5C4.5 21.28 5.39 22.88 6.82 24.01C7.65 24.66 8.6 25.11 9.61 25.34C10.35 25.51 11.12 25.56 11.9 25.49L13.58 25.33L12.53 29.57ZM29.26 22.36C29.28 22.47 29.24 22.59 29.16 22.68C29.08 22.78 28.97 22.83 28.84 22.85L11.79 24.47C10.23 24.61 8.71 24.17 7.49 23.21C6.28 22.26 5.53 20.9 5.38 19.4C5.06 16.31 7.42 13.54 10.64 13.23L27.69 11.61C27.74 11.61 27.8 11.61 27.84 11.62C27.91 11.64 27.98 11.67 28.03 11.71C28.13 11.79 28.19 11.89 28.2 12.01L29.26 22.36ZM25.7 13.86C26.58 13.78 27.37 14.4 27.46 15.26L27.88 19.32C27.92 19.73 27.79 20.13 27.52 20.45C27.25 20.77 26.86 20.97 26.43 21.01L15.84 22.02C15.66 22.04 15.48 22.02 15.31 21.99C14.66 21.84 14.15 21.3 14.08 20.63L13.66 16.57C13.57 15.71 14.22 14.95 15.11 14.87L25.7 13.86ZM26.33 19.99C26.47 19.98 26.6 19.91 26.7 19.8C26.79 19.69 26.83 19.56 26.82 19.42L26.4 15.36C26.38 15.13 26.2 14.95 25.98 14.9C25.92 14.88 25.86 14.88 25.8 14.88L15.21 15.89C14.91 15.92 14.69 16.18 14.72 16.47L15.14 20.53C15.17 20.81 15.44 21.03 15.74 21L26.33 19.99ZM30.85 17.92C30.79 17.99 30.71 18.03 30.62 18.04L29.9 18.11L29.69 16.06L30.41 15.99C30.5 15.99 30.59 16.01 30.66 16.07C30.73 16.12 30.78 16.2 30.78 16.29L30.93 17.68C30.94 17.76 30.91 17.85 30.85 17.92ZM9.71 16.55C8.28 16.23 6.84 17.08 6.5 18.46C6.16 19.84 7.05 21.22 8.48 21.55C9.91 21.87 11.35 21.02 11.69 19.64C12.03 18.27 11.14 16.88 9.71 16.55ZM8.72 20.55C7.86 20.35 7.33 19.52 7.54 18.7C7.74 17.87 8.6 17.36 9.46 17.55C10.32 17.75 10.85 18.58 10.65 19.41C10.45 20.23 9.58 20.74 8.72 20.55ZM4.78 25.45L9.97 26.63C10.83 26.83 11.36 27.66 11.15 28.49C10.95 29.31 10.09 29.83 9.23 29.63L4.04 28.45C3.18 28.25 2.65 27.42 2.85 26.59C3.05 25.77 3.92 25.25 4.78 25.45ZM4.28 27.45L9.47 28.63C9.76 28.7 10.05 28.53 10.12 28.25C10.18 27.97 10.01 27.7 9.72 27.63L4.53 26.45C4.24 26.38 3.96 26.55 3.89 26.83C3.82 27.11 4 27.38 4.28 27.45Z" fill="#ED0E00" fill-opacity="1.000000" fill-rule="evenodd"/>
</svg>
