<?xml version="1.0" encoding="UTF-8"?>
<svg id="Layer_2" data-name="Layer 2" xmlns="http://www.w3.org/2000/svg" viewBox="0 0 117.3 40">
  <defs>
    <style>
      .cls-1 {
        fill: #fff;
      }

      .cls-2 {
        fill: #ea2b26;
      }
    </style>
  </defs>
  <g id="Layer_1-2" data-name="Layer 1">
    <g>
      <rect class="cls-2" width="117.3" height="40"/>
      <g>
        <g>
          <path class="cls-2" d="M68.97,25.22l-.1.1c-2.64,2.61-5.58,3.88-8.04,3.49-.35-.06-.69-.15-1-.26-.14-.8-.06-1.56.28-2.26,1.12-2.37,4.85-3.9,10-4.09.25,0,.49-.17.48-.5,0-.3-.19-.49-.3-.61l-2.52-2.83h-.06c-2.14-.2-5.22-.75-6.46-1.28.05-.75.27-1.54.8-2.24,1.12-1.49,3.75-3.07,6.46-3.11-.41.79-1.39,1.43-2.21,1.91l-.27.16,3.25,3.04c2.34-1.32,3.18-2.37,3.18-3.43,0-1.41-2.84-4.72-6.73-4.72-1.69,0-3.69.7-5.24,1.82-1.78,1.3-2.76,2.96-2.76,4.7,0,1.51.88,2.98,2.54,4.26.17.13.36.26.55.39-1.46.68-2.62,1.57-3.41,2.64-.9,1.22-1.21,2.58-.88,3.83.27,1,1.28,2.79,2.91,4.22,1.45,1.28,3.31,1.98,5.59,1.79,3.63-.2,6.56-2.36,7.51-3.89l-3.55-3.1ZM67.61,18.55l2.35,2.64c-2.06.02-5.47.04-8.21-1.26-.1-.24-.54-1.34-.53-2.63,1.34.52,4.25,1.05,6.39,1.25ZM69.31,16.34l-2.78-2.6c.89-.52,1.92-1.22,2.31-2.12,0,0,0,0,0,0,1.84,0,3.3,1.37,3.3,1.76,0,1.18-1.82,2.44-2.83,2.97ZM60.43,19.11c-1.58-1.21-2.41-2.6-2.41-4.01,0-1.63.94-3.21,2.63-4.45,1.5-1.09,3.43-1.76,5.06-1.76,3.1,0,5.57,2.27,6.24,3.73-.55-.57-1.6-1.32-3.32-1.32-2.86,0-5.66,1.67-6.84,3.24-.73.98-1.02,2.25-.82,3.69.09.62.24,1.14.36,1.48-.32-.18-.62-.38-.9-.6ZM56.81,26.12c-.31-1.15-.01-2.42.83-3.56.79-1.07,1.98-1.96,3.48-2.63,0,0,0,0,0,0,.15.09.3.17.45.25l.4.2h0c2.76,1.19,6.09,1.13,8.09,1.11.16,0,.22.09.22.18,0,.14-.1.2-.21.2-5.27.2-9.09,1.8-10.26,4.27-.66,1.4-.45,2.99.61,4.65-1.66-1.16-3.2-3.13-3.62-4.68ZM64.87,31.91c-2.06.1-3.26-.42-3.85-.81-.55-.75-.93-1.49-1.11-2.2.28.09.57.16.87.21,2.53.4,5.52-.86,8.21-3.47l3.12,2.73c-.43.58-2.91,3.32-7.24,3.54Z"/>
          <path class="cls-2" d="M106.74,26.08l-.09.15c-.45.8-1.08,1.42-1.67,1.82.13-1.75.48-3.87.83-5.95.54-3.21,1.1-6.52,1-8.85h0c0-.79-.7-1.91-1.87-3.01-.84-.79-2.13-1.72-2.99-1.72-2.49,0-4.61,2.89-5.63,4.58,0,0,0,0,0,0-.09-.33-.2-.64-.31-.91h0s-.01-.02-.01-.02c0,0,0,0,0,0h0s-.25-.5-.25-.5c-.5-.84-2.51-3.27-4.25-3.27s-3.24,1.6-3.25,1.61l-.12.16.15.14c.07.07,1.67,1.64,2.99,2.81l.17.15.16-.16c.37-.39.75-.72,1.11-.97.32,3.48-.3,9.46-.97,14.88-.09.72-.2,1.66-.28,2.32v.09s.07.05.07.05c2.55,1.72,4.06,2.63,4.08,2.63l.21.13.02-.25c.1-1.03.19-2.03.28-3.02.58-4.7,2.25-13.52,6.71-16.56.11,1.71-.41,4.75-.92,7.7-.54,3.12-1.09,6.35-.92,8.1.19,1.88,2.26,3.84,4.59,3.94,1.81,0,3.79-1.83,4.43-3.54l.05-.11-3.3-2.43ZM91.41,12.83c-1.18-1.05-2.57-2.41-2.86-2.69.26-.27,1.47-1.44,2.95-1.44.84,0,1.76.67,2.38,1.24.51.47.97.99,1.28,1.41-.68-.24-1.4-.17-2.14.22-.52.28-1.06.7-1.6,1.26ZM95.54,31.72c-.49-.3-1.82-1.13-3.77-2.44.08-.65.18-1.53.27-2.22.68-5.52,1.32-11.63.96-15.11.06-.03.11-.07.17-.09.84-.44,1.6-.43,2.34.01.27.48.5,1.11.64,1.82.76,3.37,0,11.46-.61,18.04ZM96.71,23.55c-.09.39-.18.78-.25,1.16.37-4.92.49-8.9,0-11.1,0-.03-.01-.06-.02-.09,0,0,0,0,0,0,2.45-4.23,4.67-4.7,5.52-4.7,1.08,0,3.45,1.95,4.27,3.5-.22-.21-.49-.38-.79-.5-.71-.28-1.64-.34-2.56.19-2.74,1.71-4.81,5.59-6.15,11.54ZM101.29,28.19c-.17-1.71.38-4.91.92-8.02.55-3.2,1.07-6.22.91-7.93.76-.4,1.55-.38,2.2-.13.55.21.96.62,1.19,1.18.09,2.3-.46,5.58-.99,8.76-.75,4.44-1.4,8.33-.47,9.72-1.77-.27-3.6-1.96-3.76-3.58ZM105.57,31.89c-.58-.43-.71-1.72-.61-3.44.61-.4,1.34-1.03,1.88-1.91l2.82,2.08c-.65,1.53-2.58,3.26-4.09,3.28Z"/>
          <path class="cls-2" d="M55.88,29.12c-1.2-.93-4.55-3.66-7.31-5.91,3.45-2.99,6.63-6.25,6.45-8.99,0-.73-.44-1.51-.93-2.21-1.34-1.92-4.01-3.45-6.3-3.45-4.21,0-8.56,3.39-8.6,3.42l-.13.1,2.65,3.08.06-.04c-.28,3.43-.51,8.72-.05,15.05v.39s.1.04.1.04c0,0,2.62,1.25,4.07,1.95l.26.13-.04-.29s-.41-3.21-.52-6.6c2.95,2.61,7.45,6.7,7.49,6.74l.12.11,2.8-3.44-.13-.1ZM54.71,14.4c0,2.58-3.12,5.78-6.39,8.61-.2-.16-.39-.32-.57-.47-.84-.69-1.59-1.3-2.17-1.77v-.07c3.2-2.47,6.68-6.24,6.21-8.82.9.22,1.78.81,2.34,1.32.29.27.57.63.57,1.19ZM45.98,13.53s-.32-.12-.75-.26c1.71-.76,3.84-1.48,5.78-1.48.15,0,.3.01.45.03.53,2.58-3.31,6.46-5.87,8.48.07-2.47.24-4.81.49-6.61l.02-.12-.12-.04ZM39.51,12.14c.75-.55,4.57-3.25,8.28-3.25,2.49,0,5.19,1.91,6.3,3.84-.66-.57-1.74-1.24-3.07-1.24-2.23,0-4.65.91-6.3,1.68-1.47.68-2.59,1.38-2.94,1.6l-2.26-2.62ZM42.04,30.37v-.2c-.47-6.47-.23-11.84.06-15.24.45-.28,1.44-.87,2.7-1.46h0c.41.12.77.25.95.31-.25,1.88-.42,4.3-.48,6.85h0s0,4.83,0,4.83c0,0,0,0,0,0v.06s0,0,0,0c.07,2.92.38,5.75.49,6.63-1.32-.63-3.29-1.58-3.73-1.79ZM53.17,32.2c-.76-.69-4.91-4.46-7.59-6.82v-.86s0-3.35,0-3.35c.55.44,1.22,1,1.97,1.61,2.79,2.28,6.57,5.37,8.01,6.49l-2.39,2.93Z"/>
          <path class="cls-2" d="M35.28,25.06c-.26,1.68-1.54,3.25-3.39,3.98-.86.34-2.11.36-2.87.18-.7-1.19-1.09-2.74-1.09-4.53,0-4.55,1.52-10.61,5.82-12.69.37-.18,1.06-.41,1.81-.45.23,1.86-.68,4.22-1.68,5.64l-.12.17,3.35,3.18.16-.19c1.16-1.39,1.77-3.03,1.77-4.87,0-1.6-.35-2.92-1.2-4.16-.79-1.16-3-2.76-4.51-2.76-2.36,0-4.67,1.41-6.33,3.87-1.79,2.65-2.7,6.11-2.56,9.75.13,3.59,1.03,5.26,2.54,6.94,1.52,1.69,4.36,3.06,6.12,3.06h0c3.43,0,5.63-3.12,5.63-4.79v-.15s-3.4-2.58-3.4-2.58l-.06.4ZM38.3,12.85c.29.78.44,1.69.43,2.63-.02,1.74-.57,3.29-1.65,4.61l-2.92-2.76c1.02-1.46,1.92-3.85,1.7-5.76.88.02,1.82.33,2.43,1.29ZM27.22,28.91c-1.46-1.62-2.33-3.24-2.46-6.74-.13-3.57.76-6.97,2.51-9.57,1.6-2.37,3.81-3.74,6.07-3.74,1.41,0,3.46,1.56,4.26,2.64.09.12.17.25.26.39-1.29-.99-3.14-.7-4.24-.17-2.9,1.4-6,5.55-6,12.97,0,2.86.96,5.12,2.59,6.38-1.12-.55-2.22-1.32-2.98-2.17ZM38.42,27.39v.02c-.09,1.59-2.08,4.44-5.3,4.46-1.71,0-2.97-.95-3.88-2.28.81.12,1.94.07,2.76-.25,1.91-.76,3.25-2.36,3.57-4.11l2.85,2.16Z"/>
          <path class="cls-2" d="M21.34,21.37c-6.52-2.07-9.33-4.26-9.33-5.83,1.63-1.39,4.85-3.43,8.08-3.43.15,0,.29,0,.43.01-.33,2.13-2.48,4.36-2.48,4.36l3.48,2.84s2.52-2.46,2.52-5.38c-.06-1.82-1.85-5.18-5.57-5.18-3.94,0-7.93,2.78-8.63,4.45-.33,1.1-.28,3.4-.28,4.62,0,.18.18.53.18.53.36.74,1.22,1.72,2.14,2.47,2.12,1.7,4.94,2.85,7.91,3.78-2.39,2.2-6.28,4.55-9.12,4.84.94-2.31,2.99-3.92,3.03-3.92,0,0,0,0,0,0l.06-.05c-.73-.72-1.81-1.78-2.87-2.82l-.04-.03-.05.03c-1.54.97-3.28,2.87-3.28,5.1,0,.47.17.95.45,1.39,1.03,1.61,2.55,3,4.76,3.08,3.99.15,10.83-3.93,10.83-6.5,0-.49-.55-2.08-.92-3.24-.15-.45-.47-.86-1.29-1.12ZM21.49,18.89l-3-2.45c.58-.66,2.07-2.5,2.34-4.31,1.13.1,1.88.44,2.36.79.28.21.53.5.53,1.02,0,2.28-1.67,4.31-2.24,4.94ZM10.13,13.3c.65-1.5,4.5-4.24,8.34-4.24,2.06,0,3.31.99,4,1.82.5.6.83,1.27,1.02,1.87-.62-.49-1.66-.96-3.39-.96-3.06,0-5.82,1.66-7.19,2.65-1.3.94-2.44,2.05-3.04,2.93,0-1.19,0-3.13.27-4.07ZM10.78,23.01c.87.82,2.08,1.97,2.51,2.41-.08.06-.23.2-.35.31-.26.24-.66.62-1.08,1.13-.52.63-1.14,1.53-1.55,2.59-.07,0-.15,0-.22,0-.78,0-1.46-.19-1.97-.63-.19-.33-.3-.7-.3-1.08,0-2.04,1.53-3.79,2.96-4.74ZM23.2,26.11c-.14.48-.5,1.04-1.09,1.64-1.01,1.03-2.59,2.09-4.33,2.9-1.82.85-3.63,1.29-4.97,1.29-.13,0-.25,0-.37-.01h-.01s-.01,0-.01,0c-.83,0-2.63-.62-3.85-2.44.43.19.94.29,1.53.29,1.52,0,3.56-.69,5.74-1.94,1.57-.9,3.11-2.03,4.29-3.14.14.05,1.39.43,2.53.74.48.13.65.29.54.67ZM12.07,20.56c-1.16-.93-2.01-2.06-2.17-2.65.29-.55.94-1.32,1.83-2.13.28,1.9,3.64,4.01,9.52,5.88.76.21.95.6,1.06.9.33.9.62,1.96.8,2.67-4.24-1.17-8.25-2.43-11.04-4.67Z"/>
          <path class="cls-2" d="M85.04,25.27l-.1.1c-2.64,2.61-5.58,3.88-8.04,3.49-.35-.06-.69-.15-1-.26-.14-.8-.06-1.56.28-2.26,1.12-2.37,4.85-3.9,10-4.09.25,0,.49-.17.48-.5,0-.3-.19-.49-.3-.61l-2.52-2.83h-.06c-2.14-.2-5.22-.75-6.46-1.28.05-.75.27-1.54.8-2.24,1.12-1.49,3.75-3.07,6.46-3.11-.41.79-1.39,1.43-2.21,1.91l-.27.16,3.25,3.04c2.34-1.32,3.18-2.37,3.18-3.43,0-1.41-2.84-4.72-6.73-4.72-1.69,0-3.69.7-5.24,1.82-1.78,1.3-2.76,2.96-2.76,4.7,0,1.51.88,2.98,2.54,4.26.17.13.36.26.55.39-1.46.68-2.62,1.57-3.41,2.64-.9,1.22-1.21,2.58-.88,3.83.27,1,1.28,2.79,2.91,4.22,1.45,1.28,3.31,1.98,5.59,1.79,3.63-.2,6.56-2.36,7.51-3.89l-3.55-3.1ZM83.68,18.6l2.35,2.64c-2.06.02-5.47.04-8.21-1.26-.1-.24-.54-1.34-.53-2.63,1.34.52,4.25,1.05,6.39,1.25ZM85.39,16.39l-2.78-2.6c.89-.52,1.92-1.22,2.31-2.12,0,0,0,0,0,0,1.84,0,3.3,1.37,3.3,1.76,0,1.18-1.82,2.44-2.83,2.97ZM76.5,19.16c-1.58-1.21-2.41-2.6-2.41-4.01,0-1.63.94-3.21,2.63-4.45,1.5-1.09,3.43-1.76,5.06-1.76,3.1,0,5.57,2.27,6.24,3.73-.55-.57-1.6-1.32-3.32-1.32-2.86,0-5.66,1.67-6.84,3.24-.73.98-1.02,2.25-.82,3.69.09.62.24,1.14.36,1.48-.32-.18-.62-.38-.9-.6ZM72.88,26.17c-.31-1.15-.01-2.42.83-3.56.79-1.07,1.98-1.96,3.48-2.63,0,0,0,0,0,0,.15.09.3.17.45.25l.4.2h0c2.76,1.19,6.09,1.13,8.09,1.11.16,0,.22.09.22.18,0,.14-.1.2-.21.2-5.27.2-9.09,1.8-10.26,4.27-.66,1.4-.45,2.99.61,4.65-1.66-1.16-3.2-3.13-3.62-4.68ZM80.94,31.97c-2.06.1-3.26-.42-3.85-.81-.55-.75-.93-1.49-1.11-2.2.28.09.57.16.87.21,2.53.4,5.52-.86,8.21-3.47l3.12,2.73c-.43.58-2.91,3.32-7.24,3.54Z"/>
        </g>
        <g>
          <g>
            <path class="cls-1" d="M60.78,29.12c-.22-.04-.45-.09-.66-.15-.07-.02-.14-.04-.21-.06.02.09.05.18.08.27.09.27.2.54.34.82,0,.01.01.02.02.04.07.14.16.29.24.43.13.21.27.43.43.65.59.39,1.78.91,3.85.81,4.32-.22,6.8-2.95,7.24-3.54l-3.12-2.73c-2.69,2.61-5.67,3.87-8.21,3.47Z"/>
            <g>
              <path class="cls-1" d="M61.32,19.68s-.01,0-.02,0c0,0,.02.01.02.02,0,0,0-.02,0-.02Z"/>
              <path class="cls-1" d="M57.63,22.56c-.84,1.14-1.14,2.41-.83,3.56.41,1.55,1.96,3.52,3.62,4.68-1.06-1.66-1.27-3.25-.61-4.65,1.17-2.48,4.99-4.08,10.26-4.27.11,0,.21-.06.21-.2,0-.09-.07-.18-.22-.18-2,.02-5.34.08-8.09-1.11h0s-.4-.21-.4-.21c-.15-.08-.3-.16-.45-.25,0,0,0,0,0,0-1.5.67-2.69,1.55-3.48,2.63Z"/>
            </g>
            <path class="cls-1" d="M65.71,8.89c-1.62,0-3.56.68-5.06,1.76-1.7,1.23-2.63,2.81-2.63,4.45,0,1.41.83,2.8,2.41,4.01.28.21.58.41.9.6-.12-.34-.27-.86-.36-1.48-.2-1.44.09-2.71.82-3.69,1.18-1.57,3.98-3.24,6.84-3.24,1.72,0,2.77.76,3.32,1.32-.67-1.46-3.14-3.73-6.24-3.73Z"/>
            <path class="cls-1" d="M69.96,21.19l-2.35-2.64c-2.14-.2-5.05-.72-6.39-1.25-.01,1.29.43,2.39.53,2.63,2.73,1.3,6.15,1.28,8.21,1.26Z"/>
            <path class="cls-1" d="M68.85,11.61s0,0,0,0c-.39.9-1.42,1.6-2.31,2.12l2.78,2.6c1.01-.53,2.83-1.8,2.83-2.97,0,0,0,0,0,0-.01-.39-1.46-1.75-3.29-1.75Z"/>
          </g>
          <g>
            <path class="cls-1" d="M96.46,24.78s0,0,0,0c.04-.21.09-.43.13-.64,0,0,0,0,0,0,.04-.19.08-.38.13-.58,1.34-5.95,3.41-9.83,6.15-11.54.92-.53,1.85-.47,2.56-.19.3.12.57.29.79.5-.82-1.54-3.18-3.5-4.27-3.5-.03,0-.06,0-.09,0-.91.03-3.06.6-5.43,4.7h0c-.04.07-.08.13-.12.2l-.1.31c.54,3.05.09,9.19-.42,14.89.14-1.18.35-2.62.66-4.15Z"/>
            <g>
              <polygon class="cls-1" points="106.21 12.31 106.2 12.31 106.2 12.31 106.21 12.31"/>
              <path class="cls-1" d="M105.65,11.92s0,0,0,0c-.07-.03-.14-.07-.22-.1.07.03.15.06.22.1Z"/>
              <path class="cls-1" d="M105.05,31.77c-.94-1.39-.28-5.28.47-9.72.54-3.18,1.09-6.46.99-8.76-.23-.56-.64-.96-1.19-1.18-.66-.26-1.44-.27-2.2.13,0,0,0,0,0,0,.16,1.71-.36,4.73-.91,7.93-.53,3.1-1.09,6.31-.92,8.02.16,1.62,1.99,3.31,3.76,3.58Z"/>
            </g>
            <path class="cls-1" d="M88.55,10.14c.3.29,1.69,1.64,2.86,2.69.54-.56,1.08-.99,1.6-1.26.74-.39,1.46-.46,2.14-.22-.32-.42-.77-.94-1.28-1.41-.62-.57-1.54-1.24-2.38-1.24-1.49,0-2.69,1.16-2.95,1.44Z"/>
            <g>
              <path class="cls-1" d="M93.78,11.28s-.05.01-.07.02c.02,0,.05-.01.07-.02Z"/>
              <path class="cls-1" d="M96.15,13.68c-.15-.71-.38-1.34-.64-1.82-.74-.44-1.51-.45-2.34-.01-.06.03-.11.06-.17.09.36,3.48-.28,9.59-.96,15.11-.08.69-.19,1.57-.27,2.22,1.95,1.32,3.28,2.14,3.77,2.44.62-6.58,1.37-14.66.61-18.04Z"/>
              <path class="cls-1" d="M94.5,11.22s-.07,0-.1,0c.03,0,.07,0,.1,0Z"/>
              <path class="cls-1" d="M93.87,11.26c.17-.03.34-.05.51-.05-.17,0-.33.01-.51.05Z"/>
            </g>
            <g>
              <path class="cls-1" d="M105.05,31.77s-.05-.09-.08-.13c.03.05.05.09.08.13Z"/>
              <path class="cls-1" d="M105.05,31.77c-.07-.01-.15-.03-.22-.04.07.02.15.03.22.04Z"/>
              <path class="cls-1" d="M104.77,31.72c-.08-.02-.15-.04-.23-.06.07.02.15.04.23.06Z"/>
              <path class="cls-1" d="M104.32,31.58c.08.03.15.05.23.08-.08-.02-.15-.05-.23-.08Z"/>
              <path class="cls-1" d="M104.05,31.48s0,0,0,0c.07.03.15.06.23.09-.08-.03-.15-.06-.23-.09Z"/>
              <path class="cls-1" d="M105.11,28.35s-.1.07-.14.1c-.1,1.72.02,3.01.61,3.44,0,0,.02,0,.03,0,.03,0,.07,0,.1,0,.02,0,.05,0,.07,0,.02,0,.05,0,.07,0,.02,0,.03,0,.05,0,1.16-.18,2.48-1.24,3.27-2.38.2-.29.37-.58.49-.87l-2.82-2.08c-.49.82-1.16,1.41-1.73,1.81Z"/>
              <path class="cls-1" d="M104.61,30.22s0,.02,0,.03c0-.01,0-.02,0-.03Z"/>
              <path class="cls-1" d="M104.66,30.61s0,.06.01.08c0-.03,0-.05-.01-.08Z"/>
              <path class="cls-1" d="M104.69,30.8s.01.06.02.09c0-.03-.01-.06-.02-.09Z"/>
              <path class="cls-1" d="M104.9,31.5s.03.06.05.09c-.02-.03-.03-.06-.05-.09Z"/>
              <path class="cls-1" d="M104.63,30.41s0,.05,0,.07c0-.02,0-.05,0-.07Z"/>
              <path class="cls-1" d="M104.73,30.99s.01.06.02.09c0-.03-.02-.06-.02-.09Z"/>
              <path class="cls-1" d="M104.83,31.34s.02.06.04.09c-.01-.03-.02-.06-.04-.09Z"/>
              <path class="cls-1" d="M104.78,31.17s.02.06.03.09c0-.03-.02-.06-.03-.09Z"/>
            </g>
          </g>
          <g>
            <path class="cls-1" d="M42.04,30.37c.43.21,2.41,1.15,3.73,1.79-.11-.89-.42-3.71-.49-6.63h0s0-.06,0-.06c0,0,0,0,0,0v-4.83s0,0,0,0c.06-2.55.23-4.97.48-6.85-.18-.06-.54-.19-.95-.31h0c-1.26.59-2.25,1.17-2.7,1.46-.29,3.41-.54,8.78-.07,15.24v.2Z"/>
            <path class="cls-1" d="M44.71,13.16c1.64-.77,4.07-1.68,6.3-1.68,1.33,0,2.41.67,3.07,1.24-1.11-1.93-3.81-3.84-6.3-3.84-3.7,0-7.53,2.7-8.28,3.25l2.26,2.62c.35-.22,1.48-.92,2.94-1.6Z"/>
            <path class="cls-1" d="M47.75,22.54c.19.15.38.31.57.47,3.27-2.84,6.39-6.04,6.39-8.61,0-.56-.27-.92-.57-1.19-.56-.51-1.45-1.09-2.34-1.32.47,2.58-3.01,6.35-6.22,8.82v.07c.58.47,1.33,1.08,2.17,1.77Z"/>
            <path class="cls-1" d="M45.58,24.52v.86c2.68,2.36,6.83,6.13,7.59,6.82l2.39-2.93c-1.44-1.12-5.22-4.21-8.01-6.49-.75-.61-1.43-1.16-1.97-1.61v3.35Z"/>
          </g>
          <g>
            <path class="cls-1" d="M32,29.33c-.1.04-.2.07-.31.11,0,0,0,0-.01,0-.78.23-1.73.25-2.44.14.72,1.05,1.65,1.86,2.86,2.15.26.06.51.09.75.11.09,0,.18,0,.27,0,3.22-.01,5.3-2.89,5.3-4.46v-.02s-2.85-2.16-2.85-2.16c-.32,1.74-1.65,3.35-3.57,4.11Z"/>
            <path class="cls-1" d="M33.33,8.87c-2.26,0-4.47,1.36-6.07,3.74-1.75,2.6-2.64,5.99-2.51,9.57.13,3.49,1,5.12,2.46,6.74.76.85,1.87,1.62,2.98,2.17-1.63-1.26-2.59-3.52-2.59-6.38,0-7.42,3.1-11.57,6-12.97,1.1-.54,2.95-.82,4.24.17-.08-.14-.17-.27-.26-.39-.8-1.07-2.85-2.64-4.26-2.64Z"/>
            <path class="cls-1" d="M38.31,12.85h0c-.61-.96-1.55-1.28-2.43-1.3,0,.01,0,.03,0,.04.19,1.91-.68,4.25-1.7,5.72l2.92,2.76c1.08-1.32,1.63-2.89,1.65-4.62,0-.94-.14-1.83-.43-2.61Z"/>
          </g>
          <g>
            <path class="cls-1" d="M8.13,28.83c.51.43,1.18.63,1.97.63.07,0,.14,0,.22,0,.41-1.06,1.03-1.96,1.55-2.59.42-.51.82-.9,1.08-1.13.12-.11.27-.25.35-.31-.43-.44-1.65-1.59-2.51-2.41-1.43.94-2.96,2.7-2.96,4.74,0,.39.11.75.3,1.08Z"/>
            <path class="cls-1" d="M22.66,25.44c-1.14-.31-2.39-.69-2.53-.74-1.18,1.11-2.72,2.24-4.29,3.14-2.19,1.25-4.23,1.94-5.74,1.94-.58,0-1.09-.1-1.53-.29,1.22,1.82,3.01,2.44,3.85,2.44h.02c.12,0,.25.01.37.01,1.34,0,3.15-.44,4.97-1.29,1.74-.81,3.32-1.87,4.33-2.9.59-.6.95-1.16,1.09-1.64.11-.38-.06-.54-.54-.67Z"/>
            <path class="cls-1" d="M23.02,12.8s-.06-.04-.1-.06c-.03-.02-.07-.04-.1-.06-.02-.01-.05-.03-.08-.04-.05-.02-.09-.05-.14-.07-.03-.01-.06-.03-.08-.04-.03-.02-.07-.03-.11-.04-.04-.01-.07-.03-.11-.04-.05-.02-.1-.04-.16-.05-.03,0-.06-.02-.09-.03-.06-.02-.13-.04-.2-.06-.03,0-.07-.02-.1-.03-.05-.01-.09-.02-.14-.03-.06-.01-.13-.03-.19-.04-.05,0-.1-.02-.15-.02-.04,0-.09-.01-.13-.02-.07,0-.15-.02-.22-.03-.03,0-.06,0-.09,0-.27,1.81-1.76,3.65-2.34,4.31l3,2.45c.57-.63,2.23-2.66,2.24-4.94,0-.52-.25-.82-.53-1.02,0,0,0,0,0,0-.03-.03-.07-.05-.11-.08-.02-.01-.04-.03-.07-.04Z"/>
            <path class="cls-1" d="M12.07,20.56c2.79,2.24,6.8,3.5,11.04,4.67-.19-.71-.48-1.77-.8-2.67-.11-.3-.3-.69-1.06-.9-5.88-1.87-9.24-3.97-9.52-5.87-.03.03-.06.05-.09.08-.06.05-.11.1-.16.15-.05.05-.1.1-.16.15-.03.03-.05.05-.08.07-.09.08-.17.17-.25.25-.02.02-.05.05-.07.07-.07.08-.14.16-.21.23-.02.03-.05.05-.07.08-.04.04-.07.09-.11.13-.04.05-.08.09-.11.14-.03.04-.07.09-.1.13-.03.05-.07.09-.1.13-.02.02-.04.05-.05.07-.04.06-.08.12-.12.18-.01.02-.02.04-.04.06-.04.06-.07.12-.1.18,0,0,0,.01,0,.02.16.58,1.01,1.71,2.17,2.64Z"/>
            <path class="cls-1" d="M9.86,17.37c.6-.88,1.74-1.99,3.04-2.93,1.37-.99,4.13-2.65,7.19-2.65,1.73,0,2.77.47,3.39.96-.19-.6-.52-1.26-1.02-1.87-.68-.83-1.93-1.82-4-1.82-3.84,0-7.69,2.74-8.34,4.24-.28.93-.27,2.88-.27,4.07Z"/>
          </g>
          <g>
            <path class="cls-1" d="M76.85,29.17c-.22-.04-.45-.09-.66-.15-.07-.02-.14-.04-.21-.06.02.09.05.18.08.27.09.27.2.54.34.82,0,.01.01.02.02.04.07.14.16.29.24.43.13.21.27.43.43.65.59.39,1.78.91,3.85.81,4.32-.22,6.8-2.95,7.24-3.54l-3.12-2.73c-2.69,2.61-5.67,3.87-8.21,3.47Z"/>
            <g>
              <path class="cls-1" d="M77.39,19.73s-.01,0-.02,0c0,0,.02.01.02.02,0,0,0-.02,0-.02Z"/>
              <path class="cls-1" d="M73.71,22.61c-.84,1.14-1.14,2.41-.83,3.56.41,1.55,1.96,3.52,3.62,4.68-1.06-1.66-1.27-3.25-.61-4.65,1.17-2.48,4.99-4.08,10.26-4.27.11,0,.21-.06.21-.2,0-.09-.07-.18-.22-.18-2,.02-5.34.08-8.09-1.11h0s-.4-.21-.4-.21c-.15-.08-.3-.16-.45-.25,0,0,0,0,0,0-1.5.67-2.69,1.55-3.48,2.63Z"/>
            </g>
            <path class="cls-1" d="M81.78,8.94c-1.62,0-3.56.68-5.06,1.76-1.7,1.23-2.63,2.81-2.63,4.45,0,1.41.83,2.8,2.41,4.01.28.21.58.41.9.6-.12-.34-.27-.86-.36-1.48-.2-1.44.09-2.71.82-3.69,1.18-1.57,3.98-3.24,6.84-3.24,1.72,0,2.77.76,3.32,1.32-.67-1.46-3.14-3.73-6.24-3.73Z"/>
            <path class="cls-1" d="M86.03,21.24l-2.35-2.64c-2.14-.2-5.05-.72-6.39-1.25-.01,1.29.43,2.39.53,2.63,2.73,1.3,6.15,1.28,8.21,1.26Z"/>
            <path class="cls-1" d="M84.92,11.66s0,0,0,0c-.39.9-1.42,1.6-2.31,2.12l2.78,2.6c1.01-.53,2.83-1.8,2.83-2.97,0,0,0,0,0,0-.01-.39-1.46-1.75-3.29-1.75Z"/>
          </g>
        </g>
        <g>
          <path class="cls-2" d="M23.02,14.81l-1.89-1.27c-.16.4-.35.79-.55,1.14l1.98,1.45c.18-.39.35-.84.47-1.32Z"/>
          <path class="cls-2" d="M23.08,12.84c-.38-.25-.91-.49-1.63-.62-.02.18-.05.36-.09.55l1.79,1.19c.01-.2.02-.41,0-.61-.02-.19-.04-.36-.07-.5Z"/>
          <g>
            <path class="cls-2" d="M60.66,29.65c-.18-.03-.37-.08-.55-.13.09.23.21.46.34.7.4.26.85.49,1.36.66l-1.14-1.23Z"/>
            <g>
              <path class="cls-2" d="M64.39,31.27c.06,0,.12,0,.18,0l-1.65-1.56c-.32.04-.64.06-.96.06-.09,0-.18,0-.27,0l1.32,1.42c.37.06.77.09,1.18.09.06,0,.12,0,.18,0Z"/>
              <path class="cls-2" d="M66.99,30.79l-1.78-1.69c-.46.18-.92.33-1.38.43l1.77,1.61c.49-.08.96-.21,1.4-.36Z"/>
              <path class="cls-2" d="M69.13,29.78l-1.86-1.76c-.42.28-.85.52-1.29.74l1.81,1.72c.49-.21.94-.46,1.33-.7Z"/>
              <path class="cls-2" d="M70.96,28.41c-.42-.36-.82-.71-1.2-1.05-.25-.23-.51-.46-.78-.69-.34.32-.7.62-1.06.9l1.88,1.78c.53-.38.93-.72,1.16-.93Z"/>
              <g>
                <path class="cls-2" d="M61,14.31l-1.68-1.49c-.27.41-.47.83-.59,1.27l1.68,1.5c.13-.45.32-.88.58-1.28Z"/>
                <path class="cls-2" d="M62.61,12.65l-1.64-1.45c-.44.3-.83.64-1.16,1l1.67,1.48c.32-.36.69-.7,1.13-1.03Z"/>
                <path class="cls-2" d="M60.25,16.48l-1.65-1.47s0,.02,0,.03c-.01,1.21.6,2.34,1.74,3.25-.12-.65-.15-1.25-.09-1.81Z"/>
                <path class="cls-2" d="M70.17,11.03c-1.02-.9-2.21-1.28-3.19-1.43l1.13,1.05c.78.01,1.46.16,2.06.38Z"/>
                <path class="cls-2" d="M64.71,11.45l-1.57-1.38c-.48.19-.96.42-1.47.71l1.61,1.43c.48-.3.96-.55,1.43-.76Z"/>
                <path class="cls-2" d="M67.05,10.74l-1.32-1.22c-.56,0-1.14.1-1.74.26l1.54,1.35c.55-.19,1.06-.31,1.52-.39Z"/>
              </g>
              <path class="cls-2" d="M57.65,23.87l1.58,1.76c.08-.17.18-.34.29-.51.18-.27.38-.53.62-.77l-1.6-1.79c-.38.42-.68.86-.89,1.3Z"/>
              <path class="cls-2" d="M57.37,24.74c-.03.18-.02.45-.01.62.08,1.32.6,2.45,1.45,3.48-.16-.67-.11-1.8.07-2.38l-1.51-1.73Z"/>
              <path class="cls-2" d="M62.02,22.97l-1.68-1.88c-.52.32-.93.64-1.25.91l1.62,1.81c.38-.31.82-.59,1.31-.85Z"/>
              <path class="cls-2" d="M66.02,20.37l-1.27-1.6c-.64-.1-1.13-.19-1.53-.27l1.18,1.62c.5.1,1.04.19,1.62.26Z"/>
              <path class="cls-2" d="M68.59,20.56l-1.27-1.4c-.54-.08-1.02-.15-1.46-.21l1.21,1.53c.48.04.99.07,1.52.09Z"/>
              <path class="cls-2" d="M67.61,13.77l1.79,1.67c.33-.21.79-.54,1.2-.93l-1.88-1.67c-.38.39-.81.72-1.1.92Z"/>
              <path class="cls-2" d="M69.21,12.25l1.91,1.69c.3-.39.48-.81.44-1.2,0-.04-.02-.09-.04-.15-.48-.39-1.19-.78-2.03-.92-.02.08-.04.17-.08.25-.05.11-.12.22-.19.33Z"/>
              <path class="cls-2" d="M63.21,19.81l-1.08-1.58c-.32-.08-.74-.23-.9-.3.04.48.14.86.25,1.21.33.19,1.07.48,1.73.67Z"/>
              <path class="cls-2" d="M67.07,21.46c-.84-.05-1.72-.14-2.6-.31l.63.7c.62-.16,1.28-.29,1.97-.39Z"/>
              <path class="cls-2" d="M62.76,22.62c.23-.1.47-.2.72-.29.25-.09.51-.18.77-.26l-1.13-1.27c-.39-.12-.78-.26-1.16-.42h0s-.1-.05-.1-.05c-.29.12-.56.24-.81.37l1.71,1.91Z"/>
              <path class="cls-2" d="M103.95,27.42l-1.9-1.04c-.03.42-.06.84-.07,1.25l1.89,1.03c.01-.38.04-.8.08-1.24Z"/>
              <path class="cls-2" d="M104.51,23.35c.01-.08.03-.16.04-.24l-1.94-1.06c-.07.45-.15.89-.21,1.34l1.93,1.06c.06-.35.12-.71.18-1.09Z"/>
              <path class="cls-2" d="M104.21,25.26l-1.92-1.05c-.06.44-.11.89-.16,1.32l1.91,1.05c.05-.41.1-.85.17-1.31Z"/>
              <path class="cls-2" d="M102.05,28.56c.14.76.8,1.85,1.89,2.4-.06-.34-.1-.98-.11-1.42l-1.78-.98Z"/>
              <path class="cls-2" d="M105.84,14.27l-2.09-1.14c0,.47-.01.97-.05,1.48l2.01,1.1c.05-.49.1-.98.13-1.43Z"/>
              <path class="cls-2" d="M104.94,20.95l-1.96-1.07c-.03.18-.06.36-.09.54-.05.27-.09.54-.14.81l1.95,1.07c.08-.42.16-.87.24-1.34Z"/>
              <path class="cls-2" d="M105.62,16.54l-1.98-1.09c-.05.46-.11.93-.17,1.41l1.96,1.08c.07-.47.13-.94.19-1.4Z"/>
              <path class="cls-2" d="M105.3,18.77l-1.96-1.07c-.07.45-.14.91-.22,1.37l1.96,1.07c.08-.45.15-.91.22-1.37Z"/>
              <path class="cls-2" d="M104.65,10.88c-.86-.64-2.03-1.36-2.82-1.36-.35,0-.72.1-1.11.31l2.34,1.18c.33-.1,1.15-.21,1.59-.13Z"/>
              <path class="cls-2" d="M99.17,14.58l-1.88-.95c-.23.37-.45.76-.68,1.18l1.89.95c.22-.42.44-.81.68-1.18Z"/>
              <path class="cls-2" d="M102.16,11.43l-2.19-1.11c-.31.25-.64.56-.96.93l2.04,1.03c.36-.33.73-.61,1.12-.85Z"/>
              <path class="cls-2" d="M100.46,12.86l-1.97-1c-.26.33-.52.7-.78,1.09l1.9.96c.27-.39.56-.74.85-1.06Z"/>
              <g>
                <path class="cls-2" d="M90.55,9.55c-.4.18-.75.41-.97.57l1.83,1.72c.22-.22.53-.47.89-.69l-1.75-1.6Z"/>
                <path class="cls-2" d="M93.97,10.56c-1.2-1.03-2.02-1.44-2.74-1.26l1.73,1.5c.28-.11.71-.21,1.01-.24Z"/>
              </g>
              <g>
                <path class="cls-2" d="M92.69,28.12c-.04.3-.07.57-.09.8.89.56,1.8,1.09,2.32,1.39.04-.6.08-1.2.12-1.79l-2.25-1.22c-.03.27-.06.55-.1.82Z"/>
                <path class="cls-2" d="M93.39,21.56l2.06,1.12c.04-.57.07-1.14.1-1.69l-2.02-1.1c-.04.54-.09,1.1-.14,1.67Z"/>
                <path class="cls-2" d="M95.65,18.54l-1.95-1.11c-.03.52-.06,1.05-.1,1.6l2,1.09c.02-.54.04-1.07.05-1.58Z"/>
                <path class="cls-2" d="M95.63,15.92l-1.85-1c0,.51-.01,1.07-.04,1.65l1.92,1.09c0-.61,0-1.19-.03-1.73Z"/>
                <path class="cls-2" d="M93.71,12.86c.03.35.06.73.07,1.15l1.79.98c-.05-.5-.11-.96-.2-1.37l-1.66-.76Z"/>
                <path class="cls-2" d="M95.4,23.54l-2.08-1.13c-.05.55-.11,1.1-.17,1.66l2.13,1.16c.04-.57.08-1.13.12-1.68Z"/>
                <path class="cls-2" d="M95.21,26.08l-2.16-1.17c-.06.52-.11,1.04-.17,1.56l2.22,1.21c.04-.53.08-1.06.11-1.59Z"/>
                <path class="cls-2" d="M93.51,11.69c.02.08.04.16.06.25l1.56.71c-.15-.45-.35-.83-.6-1.12-.33-.03-.67.03-1.02.16Z"/>
              </g>
              <path class="cls-2" d="M96.73,15.74c.03.52.05,1.09.05,1.7l.77.4c.19-.48.39-.94.59-1.38l-1.42-.72Z"/>
              <path class="cls-2" d="M96.78,18.31c0,.6-.02,1.23-.05,1.9.09-.3.19-.6.25-.8.09-.29.19-.56.29-.84l-.49-.26Z"/>
              <path class="cls-2" d="M105.89,13.4c0-.34,0-.65,0-.95-.17-.14-.36-.25-.57-.33-.49-.19-1.05-.25-1.62-.11,0,.06.01.14.02.2l2.17,1.19Z"/>
              <path class="cls-2" d="M108.73,28.8l-1.7-1.25c-.15.21-.37.47-.62.72l1.69,1.3c.23-.25.42-.48.63-.77Z"/>
              <path class="cls-2" d="M107.56,30.14l-1.75-1.34c-.28.22-.58.41-.87.54l1.81,1.43c.29-.18.56-.4.81-.63Z"/>
              <path class="cls-2" d="M104.98,30.37c.04.35.1.66.19.91.31.01.68-.06.79-.13l-.98-.78Z"/>
              <path class="cls-2" d="M51.06,26.47c-.39-.32-.78-.64-1.18-.97l-1.38,1.62c.37.33.75.67,1.12,1.01l1.44-1.65Z"/>
              <path class="cls-2" d="M46.77,25.57c.35.31.74.66,1.15,1.03l1.36-1.59c-.41-.34-.81-.67-1.19-.99l-1.32,1.56Z"/>
              <path class="cls-2" d="M52.85,27.93c-.36-.3-.76-.62-1.18-.97l-1.47,1.68c.39.35.77.7,1.12,1.01l1.52-1.72Z"/>
              <path class="cls-2" d="M54.59,29.36c-.19-.16-.6-.49-1.13-.93l-1.55,1.75c.53.48.94.85,1.14,1.02l1.55-1.85Z"/>
              <path class="cls-2" d="M46.31,22.49l-.74.81v1.22c.12.11.45.37.61.5l1.3-1.54c-.42-.35-.82-.69-1.17-.99Z"/>
              <path class="cls-2" d="M42.51,20.87l2.03.79c.01-.48.02-.94.04-1.4l-2.04-.79c-.01.47-.02.94-.03,1.4Z"/>
              <path class="cls-2" d="M42.69,16.42l2.03.79c.03-.46.06-.89.1-1.28l-2.03-.62c-.04.37-.07.74-.1,1.12Z"/>
              <path class="cls-2" d="M42.57,18.65l2.04.79c.02-.49.04-.97.07-1.42l-2.04-.79c-.03.47-.05.94-.07,1.42Z"/>
              <path class="cls-2" d="M44.67,28.57c-.03-.49-.06-1-.08-1.51l-2.03-.84c.01.52.03,1,.05,1.43l2.07.92Z"/>
              <path class="cls-2" d="M42.63,28.51c.03.67.06,1.15.07,1.4.37.18,1.3.63,2.21,1.09-.07-.49-.12-1.01-.17-1.55l-2.1-.94Z"/>
              <path class="cls-2" d="M42.5,23.11l2.02.79c0-.47,0-.95,0-1.41l-2.03-.79c0,.49,0,.96,0,1.42Z"/>
              <path class="cls-2" d="M42.53,25.37l2.02.84c-.01-.49-.02-.98-.03-1.47l-2.02-.78c0,.17,0,.33,0,.49,0,.32.01.63.02.93Z"/>
              <g>
                <path class="cls-2" d="M40.58,12.17l1.38,1.73c.28-.16.78-.44,1.44-.76l-1.65-1.73c-.52.31-.93.58-1.17.75Z"/>
                <path class="cls-2" d="M45.58,12.16l-1.73-1.81c-.5.21-.97.44-1.39.67l1.69,1.77c.44-.2.92-.42,1.43-.62Z"/>
                <path class="cls-2" d="M47.75,11.42l-1.66-1.79c-.5.11-.99.25-1.45.41l1.73,1.82c.45-.16.91-.31,1.38-.44Z"/>
                <path class="cls-2" d="M49.86,10.99l-1.45-1.52c-.17-.02-.32-.04-.47-.04-.03,0-.07,0-.1,0-.27,0-.55.02-.82.05l1.59,1.72c.42-.09.84-.16,1.25-.21Z"/>
                <path class="cls-2" d="M52.11,11.13c-.68-.59-1.6-1.05-2.47-1.35l1.2,1.17c.46.02.9.09,1.27.18Z"/>
              </g>
              <path class="cls-2" d="M51.76,18.66l-1.55-1.28c-.27.32-.56.63-.86.94l1.56,1.29c.31-.32.59-.64.85-.94Z"/>
              <path class="cls-2" d="M50.36,20.17l-1.56-1.29c-.31.31-.63.61-.96.91l1.56,1.29c.32-.29.64-.6.96-.91Z"/>
              <path class="cls-2" d="M53.92,15.1l-1.55-1.3c-.12.43-.3.86-.53,1.29l1.54,1.28c.24-.44.42-.87.54-1.27Z"/>
              <path class="cls-2" d="M52.98,17.05l-1.54-1.27c-.22.34-.46.67-.72,1.01l1.54,1.28c.27-.35.51-.68.72-1.01Z"/>
              <path class="cls-2" d="M45.03,14.08c-.25-.08-.62-.19-.93-.27-.47.23-.88.46-1.22.65,0,0,0,.01,0,.02l2.02.6c.04-.42.09-.76.13-1Z"/>
              <path class="cls-2" d="M52.54,12.92l1.55,1.28c.02-.3,0-.59-.07-.85-.06-.16-.13-.3-.2-.42-.36-.29-.81-.57-1.28-.78.03.26.02.51,0,.77Z"/>
              <path class="cls-2" d="M47.26,20.32c-.3.27-.59.53-.88.79l-.18.16c.46.37.98.8,1.55,1.27,0,0,0,0,0,0,.24-.22.65-.58,1.06-.94l-1.56-1.29Z"/>
              <g>
                <path class="cls-2" d="M30.52,30.28s-.03,0-.05,0c.44.39,1.2.83,2.41.9l-1.35-1.02c-.34.08-.68.12-1.01.12Z"/>
                <path class="cls-2" d="M35.18,30.73l-1.81-1.34c-.33.2-.66.37-1.01.51l1.56,1.2c.45-.05.87-.19,1.25-.37Z"/>
                <path class="cls-2" d="M36.73,29.42l-1.83-1.35c-.26.31-.55.59-.86.85l1.82,1.35c.33-.25.63-.54.87-.84Z"/>
                <path class="cls-2" d="M37.68,27.69l-1.72-1.25c-.17.39-.35.72-.54,1.04l1.73,1.31c.25-.43.43-.77.53-1.1Z"/>
              </g>
              <g>
                <path class="cls-2" d="M25.36,21.64l1.61,1.17c.04-.5.1-1,.17-1.5.01-.09.03-.17.04-.26l-1.72-1.04c-.06.53-.09,1.07-.1,1.63Z"/>
                <path class="cls-2" d="M25.39,22.59c.02.6.09,1.17.2,1.73l1.34,1.07c-.04-.56-.04-1.13-.02-1.69l-1.52-1.11Z"/>
                <path class="cls-2" d="M26.95,26.25l-1.11-.89c.35,1.23.95,2.6,1.87,3.58-.36-.8-.63-1.87-.76-2.7Z"/>
                <path class="cls-2" d="M27.7,18.61l-1.78-1.07c-.13.52-.24,1.07-.32,1.63l1.72,1.06c.11-.58.24-1.12.39-1.63Z"/>
                <path class="cls-2" d="M29.86,14.13l-2.03-1.16c-.3.44-.58.95-.85,1.5l1.95,1.13c.3-.55.61-1.05.93-1.48Z"/>
                <path class="cls-2" d="M35.44,10.67c.21,0,.43.01.64.03-.74-.61-1.75-1.27-2.39-1.27-.37,0-.73.02-1.09.08l2.17,1.2c.22-.03.45-.04.68-.04Z"/>
                <path class="cls-2" d="M32.93,11.31c.21-.12.44-.22.67-.31l-2.05-1.19c-.44.17-.88.42-1.36.76l2.06,1.17c.26-.18.49-.33.69-.44Z"/>
                <path class="cls-2" d="M28.57,16.29l-1.91-1.08c-.2.49-.39,1.02-.55,1.58l1.86,1.04c.19-.55.39-1.06.61-1.54Z"/>
                <path class="cls-2" d="M31.56,12.26l-2.02-1.15c-.24.21-.49.44-.75.69-.16.16-.33.35-.49.55l2.03,1.16c.42-.5.84-.91,1.23-1.24Z"/>
              </g>
              <g>
                <path class="cls-2" d="M38.09,14.89l-1.56-1.31c-.09.54-.24,1.08-.41,1.58l1.82,1.6c.12-.49.18-1.35.15-1.87Z"/>
                <path class="cls-2" d="M35.81,15.93c-.23.52-.47.97-.69,1.3l1.85,1.75c.31-.41.55-.88.73-1.39l-1.9-1.66Z"/>
                <path class="cls-2" d="M36.62,12.62l1.34,1.17c-.14-.58-.51-1.46-.89-1.99-.23-.13-.31-.12-.52-.16.06.32.08.65.07.98Z"/>
              </g>
              <path class="cls-2" d="M20.15,15.35c-.29.43-.56.77-.74.99l2.04,1.57c.17-.22.45-.6.72-1.08l-2.03-1.48Z"/>
              <g>
                <path class="cls-2" d="M16,12.04c.42-.17.85-.31,1.29-.43l-.1-1.86c-.44.07-.87.18-1.29.31l.1,1.98Z"/>
                <path class="cls-2" d="M20.08,9.87l.1,1.36c.87.02,1.63.18,2.22.38-.58-.83-1.39-1.43-2.31-1.74Z"/>
                <path class="cls-2" d="M17.97,9.65l.11,1.77c.44-.09.88-.15,1.32-.18l-.1-1.56c-.23-.03-.46-.05-.7-.05-.21,0-.42,0-.63.03Z"/>
                <path class="cls-2" d="M14.05,12.98c.38-.22.77-.42,1.17-.61l-.1-2.05c-.41.16-.8.34-1.18.53l.11,2.12Z"/>
                <path class="cls-2" d="M11.34,12.7c-.27.27-.49.54-.65.79-.11.67-.2,1.61-.26,2.32.29-.31.63-.64,1.02-.98l-.11-2.13Z"/>
                <path class="cls-2" d="M12.23,14.2c.33-.25.68-.5,1.05-.74l-.11-2.16c-.38.23-.73.48-1.05.72l.11,2.18Z"/>
              </g>
              <g>
                <path class="cls-2" d="M10.23,30.39c.88.64,1.61.96,2.24.96.33,0,.67-.06.9-.09l-1.68-1.02s-1.02.13-1.47.15Z"/>
                <path class="cls-2" d="M20.36,28.31l-2.06-1.24c-.37.27-.74.52-1.13.77l2.04,1.23h0c.4-.24.79-.49,1.14-.76Z"/>
                <path class="cls-2" d="M16.07,30.55l-1.89-1.14c-.49.21-.98.38-1.46.53l1.8,1.08c.49-.12,1.02-.28,1.56-.47Z"/>
                <path class="cls-2" d="M21.86,26.93l-1.91-1.15c-.31.27-.66.54-.98.78l2.04,1.22c.19-.17.72-.65.85-.86Z"/>
                <path class="cls-2" d="M18.44,29.51l-2.02-1.21c-.45.26-.91.5-1.37.72l1.95,1.17c.48-.2.97-.43,1.44-.68Z"/>
                <path class="cls-2" d="M20.82,24.9c-.08.1-.18.22-.27.32l1.79,1.07c.18-.3.3-.59.33-.87l-1.85-.53Z"/>
              </g>
              <g>
                <path class="cls-2" d="M10.99,26.88l-1.62-1.5c-.28.41-.47.81-.6,1.19l1.5,1.39c.23-.4.48-.76.72-1.08Z"/>
                <path class="cls-2" d="M8.52,27.32c-.04.19-.06.34-.05.56.01.48.23,1.08.85,1.51.14.03.25.05.38.06.07-.24.15-.47.25-.7l-1.43-1.43Z"/>
                <path class="cls-2" d="M12.26,25.44s-.97-.96-1.54-1.51c-.38.29-.64.55-.9.85l1.65,1.51c.24-.28.73-.79.8-.85Z"/>
              </g>
              <g>
                <path class="cls-2" d="M16.5,22.32c.46.22.92.42,1.39.61l-.38-1.97c-.49-.21-.96-.41-1.39-.62l.37,1.98Z"/>
                <path class="cls-2" d="M18.76,23.27c.46.17.93.33,1.42.48l-.36-1.89c-.5-.18-.97-.36-1.43-.54l.37,1.95Z"/>
                <path class="cls-2" d="M21.42,22.41c-.29-.09-.47-.16-.75-.25l.35,1.83c.4.11.8.22,1.21.32-.13-.49-.28-1.02-.42-1.47-.05-.17-.18-.36-.39-.43Z"/>
                <path class="cls-2" d="M11.95,17.56l.26,2.19c.1.07.2.15.3.22.32.22.64.44.95.64l-.38-1.99c-.48-.39-.85-.72-1.13-1.07Z"/>
                <path class="cls-2" d="M14.36,21.17c.42.25.84.49,1.26.71l-.38-1.89c-.46-.24-.87-.48-1.24-.72l.36,1.91Z"/>
                <path class="cls-2" d="M10.34,17.25c.13.6.52,1.24,1.1,1.83l-.3-2.73s-.57.56-.8.9Z"/>
              </g>
              <path class="cls-2" d="M80.46,31.32c.06,0,.12,0,.18,0l-1.65-1.56c-.32.04-.64.06-.96.06-.09,0-.18,0-.27,0l1.32,1.42c.37.06.77.09,1.18.09.06,0,.12,0,.18,0Z"/>
              <path class="cls-2" d="M83.06,30.85l-1.78-1.69c-.46.18-.92.33-1.38.43l1.77,1.61c.49-.08.96-.21,1.4-.36Z"/>
              <path class="cls-2" d="M85.2,29.83l-1.86-1.76c-.42.28-.85.52-1.29.74l1.81,1.72c.49-.21.94-.46,1.33-.7Z"/>
              <path class="cls-2" d="M87.04,28.46c-.42-.36-.82-.71-1.2-1.05-.25-.23-.51-.46-.78-.69-.34.32-.7.62-1.06.9l1.88,1.78c.53-.38.93-.72,1.16-.93Z"/>
              <path class="cls-2" d="M76.73,29.7c-.18-.03-.37-.08-.55-.13.09.23.21.46.34.7.4.26.85.49,1.36.66l-1.14-1.23Z"/>
              <g>
                <path class="cls-2" d="M77.07,14.36l-1.68-1.49c-.27.41-.47.83-.59,1.27l1.68,1.5c.13-.45.32-.88.58-1.28Z"/>
                <path class="cls-2" d="M78.68,12.71l-1.64-1.45c-.44.3-.83.64-1.16,1l1.67,1.48c.32-.36.69-.7,1.13-1.03Z"/>
                <path class="cls-2" d="M76.32,16.54l-1.65-1.47s0,.02,0,.03c-.01,1.21.6,2.34,1.74,3.25-.12-.65-.15-1.25-.09-1.81Z"/>
                <path class="cls-2" d="M86.24,11.09c-1.02-.9-2.21-1.28-3.19-1.43l1.13,1.05c.78.01,1.46.16,2.06.38Z"/>
                <path class="cls-2" d="M80.78,11.5l-1.57-1.38c-.48.19-.96.42-1.47.71l1.61,1.43c.48-.3.96-.55,1.43-.76Z"/>
                <path class="cls-2" d="M83.12,10.79l-1.32-1.22c-.56,0-1.14.1-1.74.26l1.54,1.35c.55-.19,1.06-.31,1.52-.39Z"/>
              </g>
              <path class="cls-2" d="M73.72,23.92l1.58,1.76c.08-.17.18-.34.29-.51.18-.27.38-.53.62-.77l-1.6-1.79c-.38.42-.68.86-.89,1.3Z"/>
              <path class="cls-2" d="M73.44,24.8c-.03.18-.02.45-.01.62.08,1.32.6,2.45,1.45,3.48-.16-.67-.11-1.8.07-2.38l-1.51-1.73Z"/>
              <path class="cls-2" d="M78.1,23.03l-1.68-1.88c-.52.32-.93.64-1.25.91l1.62,1.81c.38-.31.82-.59,1.31-.85Z"/>
              <path class="cls-2" d="M82.09,20.42l-1.27-1.6c-.64-.1-1.13-.19-1.53-.27l1.18,1.62c.5.1,1.04.19,1.62.26Z"/>
              <path class="cls-2" d="M84.66,20.61l-1.27-1.4c-.54-.08-1.02-.15-1.46-.21l1.21,1.53c.48.04.99.07,1.52.09Z"/>
              <path class="cls-2" d="M83.68,13.83l1.79,1.67c.33-.21.79-.54,1.2-.93l-1.88-1.67c-.38.39-.81.72-1.1.92Z"/>
              <path class="cls-2" d="M85.28,12.31l1.91,1.69c.3-.39.48-.81.44-1.2,0-.04-.02-.09-.04-.15-.48-.39-1.19-.78-2.03-.92-.02.08-.04.17-.08.25-.05.11-.12.22-.19.33Z"/>
              <path class="cls-2" d="M79.28,19.87l-1.08-1.58c-.32-.08-.74-.23-.9-.3.04.48.14.86.25,1.21.33.19,1.07.48,1.73.67Z"/>
              <path class="cls-2" d="M83.14,21.51c-.84-.05-1.72-.14-2.6-.31l.63.7c.62-.16,1.28-.29,1.97-.39Z"/>
              <path class="cls-2" d="M78.83,22.67c.23-.1.47-.2.72-.29.25-.09.51-.18.77-.26l-1.13-1.27c-.39-.12-.78-.26-1.16-.42h0s-.1-.05-.1-.05c-.29.12-.56.24-.81.37l1.71,1.91Z"/>
            </g>
          </g>
        </g>
      </g>
    </g>
  </g>
</svg>