<svg width="80" height="80" viewBox="0 0 80 80" fill="none" xmlns="http://www.w3.org/2000/svg">
<rect width="80" height="80" rx="40" fill="#C92C99"/>
<path d="M73.3402 38.8496C72.7397 38.2446 58.4542 24 40.5 24C22.5458 24 8.26029 38.2446 7.65984 38.8496L7 39.5L7.65984 40.1504C8.26029 40.7554 22.5458 55 40.5 55C58.4542 55 72.7397 40.7554 73.3402 40.1504L74 39.5L73.3402 38.8496ZM26.9799 39.7082C26.9799 37.0722 27.7728 34.4955 29.2584 32.3038C30.744 30.1121 32.8557 28.4039 35.3262 27.3951C37.7966 26.3864 40.5149 26.1225 43.1376 26.6367C45.7602 27.1509 48.1693 28.4203 50.0601 30.2842C51.9509 32.1481 53.2386 34.5228 53.7602 37.1081C54.2819 39.6934 54.0143 42.3731 52.991 44.8084C51.9677 47.2437 50.2347 49.3251 48.0113 50.7896C45.7879 52.254 43.174 53.0357 40.5 53.0357C36.9153 53.0323 33.4785 51.627 30.9438 49.1283C28.409 46.6297 26.9834 43.2418 26.9799 39.7082ZM32.2586 26.8879C30.1516 28.1987 28.3991 29.9944 27.152 32.1206C25.9048 34.2468 25.2004 36.6397 25.0992 39.0937C24.9979 41.5477 25.5029 43.9892 26.5707 46.2082C27.6386 48.4272 29.2372 50.3572 31.2292 51.8324C20.4541 48.8598 12.0544 41.6855 9.67238 39.474C12.127 37.2104 20.9754 29.6458 32.2586 26.8684M49.7377 51.8194C51.7315 50.345 53.3318 48.415 54.4011 46.1956C55.4703 43.9762 55.9765 41.534 55.8759 39.079C55.7752 36.6241 55.071 34.2301 53.8235 32.103C52.5761 29.9759 50.8229 28.1795 48.715 26.8684C59.9916 29.6523 68.8466 37.2169 71.3012 39.474C68.9192 41.6725 60.5261 48.8468 49.7377 51.8324M40.5 33.8347C39.3255 33.8347 38.1774 34.178 37.2008 34.8212C36.2242 35.4645 35.463 36.3787 35.0135 37.4484C34.564 38.5181 34.4464 39.6951 34.6755 40.8307C34.9047 41.9662 35.4703 43.0093 36.3008 43.828C37.1313 44.6467 38.1895 45.2042 39.3414 45.4301C40.4934 45.656 41.6874 45.5401 42.7725 45.097C43.8577 44.654 44.7851 43.9036 45.4377 42.9409C46.0902 41.9783 46.4385 40.8465 46.4385 39.6887C46.4385 38.1361 45.8129 36.6471 44.6992 35.5492C43.5855 34.4514 42.075 33.8347 40.5 33.8347ZM40.5 43.7149C39.6948 43.7149 38.9078 43.4795 38.2383 43.0385C37.5687 42.5975 37.0469 41.9707 36.7388 41.2374C36.4307 40.5041 36.3499 39.6972 36.507 38.9187C36.6641 38.1402 37.0519 37.4251 37.6213 36.8639C38.1906 36.3026 38.9161 35.9204 39.7058 35.7655C40.4955 35.6107 41.314 35.6901 42.0579 35.9939C42.8018 36.2976 43.4377 36.8121 43.8851 37.4721C44.3324 38.132 44.5712 38.9079 44.5712 39.7017C44.5694 40.7655 44.1399 41.7853 43.3768 42.5375C42.6137 43.2898 41.5792 43.7131 40.5 43.7149Z" fill="white"/>
</svg>
