<svg width="80" height="80" viewBox="0 0 80 80" fill="none" xmlns="http://www.w3.org/2000/svg">
<rect width="80" height="80" rx="40" fill="#69229A"/>
<path d="M22.0744 14.9262C24.2673 14.926 26.372 15.7903 27.932 17.3315C29.4919 18.8728 30.3814 20.9668 30.4078 23.1595C30.4251 24.9654 29.8385 26.7253 28.7411 28.1595C28.446 27.3102 27.8932 26.5743 27.1597 26.0544C26.4261 25.5345 25.5486 25.2566 24.6495 25.2595H19.5079C18.6088 25.2566 17.7313 25.5345 16.9977 26.0544C16.2642 26.5743 15.7112 27.3102 15.4161 28.1595C14.3187 26.7253 13.7321 24.9654 13.7494 23.1595C13.7757 20.9668 14.6655 18.8728 16.2254 17.3315C17.7854 15.7903 19.8898 14.926 22.0828 14.9262M27.3912 29.5179C25.8895 30.7308 24.0174 31.3924 22.087 31.3924C20.1567 31.3924 18.2846 30.7308 16.7829 29.5179C16.7807 29.1583 16.8497 28.8019 16.9863 28.4693C17.1229 28.1367 17.3241 27.8345 17.5784 27.5802C17.8326 27.3259 18.1348 27.1247 18.4674 26.9881C18.8001 26.8515 19.1567 26.7823 19.5162 26.7846H24.6578C25.0174 26.7823 25.3738 26.8515 25.7064 26.9881C26.039 27.1247 26.3412 27.3259 26.5955 27.5802C26.8498 27.8345 27.051 28.1367 27.1875 28.4693C27.3241 28.8019 27.3934 29.1583 27.3912 29.5179ZM22.0828 32.9512C24.0123 32.92 25.8896 32.3193 27.4789 31.2246C29.0681 30.1299 30.2986 28.5899 31.0155 26.7982C31.7324 25.0065 31.9037 23.0429 31.5082 21.1541C31.1127 19.2652 30.168 17.5354 28.7926 16.1818C27.4171 14.8282 25.6723 13.9112 23.7773 13.546C21.8824 13.1809 19.9217 13.3838 18.1417 14.1294C16.3617 14.8749 14.8417 16.1298 13.7726 17.7364C12.7035 19.343 12.1331 21.2297 12.1328 23.1595C12.157 25.7764 13.2182 28.2769 15.0835 30.1125C16.9487 31.9481 19.4658 32.969 22.0828 32.9512Z" fill="white"/>
<path d="M62.9145 61.743C62.6195 60.8937 62.0666 60.1576 61.3331 59.6378C60.5996 59.1179 59.722 58.84 58.8229 58.8429H53.6813C52.7823 58.84 51.9047 59.1179 51.1712 59.6378C50.4376 60.1576 49.8846 60.8937 49.5895 61.743C48.4921 60.3087 47.9055 58.5488 47.9229 56.743C47.9229 54.524 48.8044 52.3959 50.3734 50.8268C51.9425 49.2578 54.0706 48.3763 56.2896 48.3763C58.5086 48.3763 60.6367 49.2578 62.2057 50.8268C63.7748 52.3959 64.6563 54.524 64.6563 56.743C64.6617 58.5537 64.0602 60.3141 62.9479 61.743M61.5897 63.1346C60.0866 64.3446 58.2151 65.0044 56.2855 65.0044C54.3559 65.0044 52.4844 64.3446 50.9813 63.1346C50.978 62.7747 51.0464 62.4178 51.1826 62.0847C51.3187 61.7515 51.5199 61.4489 51.7744 61.1944C52.0289 60.9399 52.3316 60.7387 52.6647 60.6025C52.9978 60.4663 53.3546 60.3979 53.7145 60.4012H58.8563C59.2159 60.399 59.5723 60.4682 59.9049 60.6048C60.2375 60.7414 60.5397 60.9426 60.794 61.1969C61.0482 61.4511 61.2494 61.7533 61.386 62.086C61.5226 62.4186 61.5919 62.775 61.5897 63.1346ZM56.2896 46.9846C54.36 47.0158 52.4827 47.6165 50.8935 48.7112C49.3042 49.8059 48.0738 51.3458 47.3569 53.1376C46.64 54.9293 46.4686 56.8929 46.8641 58.7817C47.2596 60.6706 48.2045 62.4005 49.58 63.7541C50.9555 65.1077 52.7003 66.0246 54.5952 66.3898C56.4902 66.7549 58.4506 66.552 60.2306 65.8065C62.0106 65.0609 63.5306 63.806 64.5997 62.1994C65.6688 60.5928 66.2393 58.7061 66.2395 56.7763C66.2153 54.1594 65.1542 51.6589 63.2889 49.8233C61.4236 47.9877 58.9065 46.9668 56.2896 46.9846Z" fill="white"/>
<path d="M20.4557 18.5339C20.8907 18.1138 21.4719 17.8791 22.0766 17.8791C22.6813 17.8791 23.2625 18.1138 23.6975 18.5339C23.9097 18.7411 24.0782 18.9887 24.1933 19.262C24.3084 19.5354 24.3677 19.829 24.3677 20.1256C24.3677 20.4222 24.3084 20.7157 24.1933 20.9891C24.0782 21.2624 23.9097 21.51 23.6975 21.7172C23.2645 22.1412 22.6826 22.3786 22.0766 22.3786C21.4706 22.3786 20.8887 22.1412 20.4557 21.7172C20.2436 21.51 20.075 21.2624 19.9599 20.9891C19.8448 20.7157 19.7856 20.4222 19.7856 20.1256C19.7856 19.829 19.8448 19.5354 19.9599 19.262C20.075 18.9887 20.2436 18.7411 20.4557 18.5339ZM24.814 22.8256C25.1736 22.4747 25.4594 22.0554 25.6545 21.5925C25.8496 21.1295 25.9501 20.6322 25.9501 20.1298C25.9501 19.6273 25.8496 19.13 25.6545 18.667C25.4594 18.204 25.1736 17.7848 24.814 17.4339C24.0823 16.7187 23.0998 16.3184 22.0766 16.3184C21.0534 16.3184 20.0708 16.7187 19.339 17.4339C18.9794 17.7848 18.6938 18.204 18.4987 18.667C18.3036 19.13 18.2031 19.6273 18.2031 20.1298C18.2031 20.6322 18.3036 21.1295 18.4987 21.5925C18.6938 22.0554 18.9794 22.4747 19.339 22.8256C20.0718 23.5387 21.0541 23.9378 22.0766 23.9378C23.0992 23.9378 24.0813 23.5387 24.814 22.8256Z" fill="white"/>
<path d="M20.4554 52.1497C20.8904 51.7297 21.4715 51.4949 22.0763 51.4949C22.681 51.4949 23.2621 51.7297 23.6971 52.1497C23.9093 52.357 24.0778 52.6045 24.193 52.8779C24.3081 53.1512 24.3673 53.4448 24.3673 53.7414C24.3673 54.0379 24.3081 54.3316 24.193 54.6049C24.0778 54.8782 23.9093 55.1258 23.6971 55.3331C23.2621 55.7531 22.681 55.9879 22.0763 55.9879C21.4715 55.9879 20.8904 55.7531 20.4554 55.3331C20.2432 55.1258 20.0747 54.8782 19.9596 54.6049C19.8444 54.3316 19.7852 54.0379 19.7852 53.7414C19.7852 53.4448 19.8444 53.1512 19.9596 52.8779C20.0747 52.6045 20.2432 52.357 20.4554 52.1497ZM19.3386 56.433C20.0714 57.1462 21.0537 57.5453 22.0763 57.5453C23.0988 57.5453 24.0809 57.1462 24.8137 56.433C25.172 56.0823 25.4567 55.6635 25.6511 55.2013C25.8454 54.7391 25.9455 54.2428 25.9455 53.7414C25.9455 53.24 25.8454 52.7436 25.6511 52.2814C25.4567 51.8192 25.172 51.4005 24.8137 51.0497C24.0809 50.3365 23.0988 49.9375 22.0763 49.9375C21.0537 49.9375 20.0714 50.3365 19.3386 51.0497C18.9803 51.4005 18.6958 51.8192 18.5014 52.2814C18.3071 52.7436 18.207 53.24 18.207 53.7414C18.207 54.2428 18.3071 54.7391 18.5014 55.2013C18.6958 55.6635 18.9803 56.0823 19.3386 56.433Z" fill="white"/>
<path d="M57.8735 21.7178C57.4406 22.1418 56.8588 22.3792 56.2528 22.3792C55.6469 22.3792 55.0649 22.1418 54.632 21.7178C54.4198 21.5106 54.2513 21.263 54.1361 20.9897C54.021 20.7163 53.9618 20.4228 53.9618 20.1262C53.9618 19.8296 54.021 19.536 54.1361 19.2626C54.2513 18.9893 54.4198 18.7417 54.632 18.5345C55.067 18.1144 55.6481 17.8797 56.2528 17.8797C56.8576 17.8797 57.4385 18.1144 57.8735 18.5345C58.0857 18.7417 58.2544 18.9893 58.3695 19.2626C58.4847 19.536 58.5439 19.8296 58.5439 20.1262C58.5439 20.4228 58.4847 20.7163 58.3695 20.9897C58.2544 21.263 58.0857 21.5106 57.8735 21.7178ZM53.5152 17.4345C53.1567 17.7859 52.8719 18.2054 52.6774 18.6683C52.483 19.1312 52.3828 19.6283 52.3828 20.1304C52.3828 20.6324 52.483 21.1294 52.6774 21.5923C52.8719 22.0552 53.1567 22.4747 53.5152 22.8262C54.248 23.5393 55.2303 23.9384 56.2528 23.9384C57.2754 23.9384 58.2575 23.5393 58.9903 22.8262C59.3499 22.4753 59.6356 22.056 59.8307 21.5931C60.0258 21.1301 60.1263 20.6328 60.1263 20.1304C60.1263 19.6279 60.0258 19.1306 59.8307 18.6676C59.6356 18.2046 59.3499 17.7854 58.9903 17.4345C58.2575 16.7213 57.2754 16.3223 56.2528 16.3223C55.2303 16.3223 54.248 16.7213 53.5152 17.4345Z" fill="white"/>
<path d="M57.8727 55.3331C57.4377 55.7531 56.8568 55.9879 56.252 55.9879C55.6473 55.9879 55.0662 55.7531 54.6311 55.3331C54.419 55.1258 54.2504 54.8782 54.1353 54.6049C54.0202 54.3316 53.961 54.0379 53.961 53.7414C53.961 53.4448 54.0202 53.1512 54.1353 52.8779C54.2504 52.6045 54.419 52.357 54.6311 52.1497C55.0662 51.7297 55.6473 51.4949 56.252 51.4949C56.8568 51.4949 57.4377 51.7297 57.8727 52.1497C58.0849 52.357 58.2536 52.6045 58.3687 52.8779C58.4838 53.1512 58.5431 53.4448 58.5431 53.7414C58.5431 54.0379 58.4838 54.3316 58.3687 54.6049C58.2536 54.8782 58.0849 55.1258 57.8727 55.3331ZM58.9895 51.0497C58.2567 50.3365 57.2746 49.9375 56.252 49.9375C55.2295 49.9375 54.2472 50.3365 53.5144 51.0497C53.1561 51.4005 52.8715 51.8192 52.6772 52.2814C52.4829 52.7436 52.3828 53.24 52.3828 53.7414C52.3828 54.2428 52.4829 54.7391 52.6772 55.2013C52.8715 55.6635 53.1561 56.0823 53.5144 56.433C54.2472 57.1462 55.2295 57.5453 56.252 57.5453C57.2746 57.5453 58.2567 57.1462 58.9895 56.433C59.3478 56.0823 59.6325 55.6635 59.8269 55.2013C60.0212 54.7391 60.1213 54.2428 60.1213 53.7414C60.1213 53.24 60.0212 52.7436 59.8269 52.2814C59.6325 51.8192 59.3478 51.4005 58.9895 51.0497Z" fill="white"/>
<path d="M44.1499 23.9348C44.3555 23.9348 44.5527 23.8531 44.698 23.7078C44.8434 23.5625 44.9251 23.3653 44.9251 23.1598C44.9251 22.9542 44.8434 22.7571 44.698 22.6118C44.5527 22.4664 44.3555 22.3848 44.1499 22.3848H34.1499C33.9444 22.3848 33.7474 22.4664 33.6021 22.6118C33.4567 22.7571 33.375 22.9542 33.375 23.1598C33.375 23.3653 33.4567 23.5625 33.6021 23.7078C33.7474 23.8531 33.9444 23.9348 34.1499 23.9348H44.1499Z" fill="white"/>
<path d="M34.1844 55.9925C34.0753 55.9812 33.9651 55.9929 33.8609 56.0269C33.7566 56.0609 33.6605 56.1165 33.5791 56.1899C33.4977 56.2633 33.4326 56.3531 33.3881 56.4533C33.3435 56.5535 33.3203 56.6619 33.3203 56.7716C33.3203 56.8813 33.3435 56.9898 33.3881 57.09C33.4326 57.1902 33.4977 57.2799 33.5791 57.3533C33.6605 57.4268 33.7566 57.4823 33.8609 57.5163C33.9651 57.5504 34.0753 57.5621 34.1844 57.5508H44.1844C44.2935 57.5621 44.4038 57.5504 44.5081 57.5163C44.6123 57.4823 44.7082 57.4268 44.7896 57.3533C44.8711 57.2799 44.9363 57.1902 44.9809 57.09C45.0254 56.9898 45.0484 56.8813 45.0484 56.7716C45.0484 56.6619 45.0254 56.5535 44.9809 56.4533C44.9363 56.3531 44.8711 56.2633 44.7896 56.1899C44.7082 56.1165 44.6123 56.0609 44.5081 56.0269C44.4038 55.9929 44.2935 55.9812 44.1844 55.9925H34.1844Z" fill="white"/>
<path d="M22.8647 44.8678V35.0594C22.8099 34.8927 22.7037 34.7475 22.5616 34.6446C22.4194 34.5417 22.2484 34.4863 22.0729 34.4863C21.8974 34.4863 21.7263 34.5417 21.5842 34.6446C21.442 34.7475 21.336 34.8927 21.2812 35.0594V44.8678C21.336 45.0345 21.442 45.1797 21.5842 45.2826C21.7263 45.3855 21.8974 45.4409 22.0729 45.4409C22.2484 45.4409 22.4194 45.3855 22.5616 45.2826C22.7037 45.1797 22.8099 45.0345 22.8647 44.8678Z" fill="white"/>
<path d="M57.0481 44.8678V35.0594C56.9933 34.8927 56.8873 34.7475 56.7452 34.6446C56.603 34.5417 56.432 34.4863 56.2565 34.4863C56.081 34.4863 55.9099 34.5417 55.7678 34.6446C55.6256 34.7475 55.5196 34.8927 55.4648 35.0594V44.8678C55.5196 45.0345 55.6256 45.1797 55.7678 45.2826C55.9099 45.3855 56.081 45.4409 56.2565 45.4409C56.432 45.4409 56.603 45.3855 56.7452 45.2826C56.8873 45.1797 56.9933 45.0345 57.0481 44.8678Z" fill="white"/>
<path d="M53.6823 26.7837H58.8239C59.543 26.7793 60.2345 27.0601 60.7469 27.5647C61.2593 28.0692 61.5506 28.7563 61.5573 29.4754C60.0568 30.6912 58.1843 31.3547 56.2531 31.3547C54.3219 31.3547 52.4493 30.6912 50.9489 29.4754C50.9467 29.1158 51.0158 28.7594 51.1524 28.4268C51.289 28.0941 51.4902 27.792 51.7444 27.5377C51.9987 27.2835 52.3009 27.0822 52.6335 26.9456C52.9661 26.8091 53.3227 26.7399 53.6823 26.7421M64.4656 21.5254C64.5503 21.6802 64.6821 21.8041 64.8418 21.8793C65.0014 21.9545 65.1807 21.977 65.354 21.9437C65.5274 21.9103 65.6857 21.8227 65.8061 21.6937C65.9265 21.5646 66.0026 21.4006 66.0238 21.2254C65.5346 18.8479 64.1807 16.7366 62.224 15.3003C60.2673 13.864 57.8472 13.205 55.4324 13.4508C53.0176 13.6967 50.78 14.8299 49.1529 16.631C47.5258 18.4322 46.625 20.7731 46.625 23.2004C46.625 25.6277 47.5258 27.9686 49.1529 29.7697C50.78 31.5709 53.0176 32.7042 55.4324 32.95C57.8472 33.1959 60.2673 32.5368 62.224 31.1005C64.1807 29.6642 65.5346 27.5529 66.0238 25.1754C66.0657 24.9721 66.0252 24.7605 65.9111 24.587C65.797 24.4136 65.6188 24.2925 65.4155 24.2504C65.2121 24.2161 65.0033 24.2585 64.8293 24.3693C64.6554 24.4802 64.5288 24.6516 64.4739 24.8504C64.2174 26.0283 63.699 27.1334 62.9572 28.0837C62.6621 27.2344 62.1093 26.4985 61.3758 25.9786C60.6422 25.4587 59.7647 25.1808 58.8656 25.1837H53.7238C52.8247 25.1808 51.9472 25.4587 51.2136 25.9786C50.4801 26.4985 49.9273 27.2344 49.6322 28.0837C48.5348 26.6495 47.9482 24.8896 47.9655 23.0837C48.01 21.0309 48.8063 19.0657 50.2035 17.561C51.6007 16.0563 53.5015 15.1167 55.5455 14.9204C57.5894 14.7242 59.6344 15.2848 61.2924 16.4962C62.9504 17.7075 64.1061 19.4852 64.5404 21.492" fill="white"/>
<path d="M19.508 60.4004H24.6496C25.0095 60.3971 25.3665 60.4655 25.6996 60.6017C26.0328 60.7379 26.3353 60.9391 26.5897 61.1936C26.8442 61.448 27.0456 61.7507 27.1818 62.0838C27.318 62.4169 27.3863 62.7739 27.383 63.1338C25.88 64.3438 24.0084 65.0035 22.0788 65.0035C20.1493 65.0035 18.2777 64.3438 16.7747 63.1338C16.7713 62.7739 16.8397 62.4169 16.9759 62.0838C17.1121 61.7507 17.3132 61.448 17.5677 61.1936C17.8222 60.9391 18.1249 60.7379 18.458 60.6017C18.7912 60.4655 19.1482 60.3971 19.508 60.4004ZM22.0746 66.5588C24.5224 66.6026 26.8976 65.7264 28.7304 64.1033C30.5633 62.4801 31.7202 60.2283 31.9726 57.7931C32.225 55.358 31.5545 52.9168 30.0936 50.9522C28.6326 48.9877 26.4878 47.6429 24.083 47.1838C23.8798 47.1521 23.672 47.1967 23.4997 47.309C23.3274 47.4213 23.2027 47.5934 23.1496 47.7921C23.1104 47.9953 23.1533 48.2059 23.2688 48.3777C23.3844 48.5494 23.5632 48.6685 23.7662 48.7088C25.6318 49.0894 27.3108 50.0975 28.5237 51.5651C29.7367 53.0328 30.4104 54.8716 30.4329 56.7754C30.4503 58.5813 29.8637 60.3412 28.7662 61.7754C28.4712 60.9261 27.9184 60.1902 27.1848 59.6703C26.4513 59.1504 25.5737 58.8725 24.6747 58.8754H19.5331C18.634 58.8725 17.7562 59.1504 17.0227 59.6703C16.2891 60.1902 15.7363 60.9261 15.4413 61.7754C14.3438 60.3412 13.7572 58.5813 13.7746 56.7754C13.7971 54.8716 14.4708 53.0328 15.6838 51.5651C16.8967 50.0975 18.5757 49.0894 20.4413 48.7088C20.6443 48.6685 20.8231 48.5494 20.9387 48.3777C21.0542 48.2059 21.0971 47.9953 21.0579 47.7921C21.0048 47.5934 20.8803 47.4213 20.708 47.309C20.5357 47.1967 20.3279 47.1521 20.1247 47.1838C17.7208 47.6429 15.5765 48.9871 14.1158 50.9507C12.655 52.9143 11.984 55.3545 12.2353 57.7889C12.4866 60.2233 13.6419 62.4749 15.473 64.0987C17.3041 65.7225 19.6776 66.6003 22.1246 66.5588" fill="white"/>
</svg>
