<svg width="80" height="80" viewBox="0 0 80 80" fill="none" xmlns="http://www.w3.org/2000/svg">
<rect width="80" height="80" rx="40" fill="#FFBE3D"/>
<path fill-rule="evenodd" clip-rule="evenodd" d="M51.0553 13.1597C50.4792 13.4767 50.3399 13.6731 49.6117 15.1945C48.5618 17.3884 48.0188 19.2683 47.7572 21.6154C47.5551 23.4284 47.7279 26.1506 48.154 27.8672L48.2263 28.1588L47.2439 27.9351C46.4278 27.7494 45.827 27.7105 43.6973 27.7057C40.8401 27.6992 40.0581 27.8163 37.7852 28.5908C32.4275 30.4165 28.0928 34.8308 26.3 40.287C25.5395 42.6016 25.4245 43.398 25.4309 46.3077C25.4356 48.4764 25.4738 49.0883 25.6562 49.9193L25.8758 50.9199L25.5895 50.8462C23.9038 50.4123 21.2308 50.2363 19.4504 50.4421C17.1388 50.7093 15.3 51.2612 13.1257 52.3406C11.4373 53.1788 11.0877 53.5189 11.0069 54.4013C10.9532 54.9895 11.2116 55.5075 11.768 55.927C12.3784 56.3873 12.798 56.3198 14.3684 55.5089C15.1601 55.1001 15.8627 54.7655 15.9296 54.7655C15.9965 54.7655 18.5291 57.2894 21.5576 60.374L27.0641 65.9824L26.8703 66.4761C26.7638 66.7476 26.4303 67.4479 26.1292 68.0325C25.8282 68.6169 25.5818 69.2189 25.5818 69.3701C25.5818 69.8107 25.8579 70.3621 26.2441 70.6931C26.5474 70.953 26.7061 71 27.2799 71C28.2879 71 28.5344 70.7603 29.4123 68.9263C30.472 66.7125 31.0138 64.8405 31.2767 62.4854C31.4768 60.6931 31.3014 57.9328 30.8797 56.2335L30.8074 55.942L31.7898 56.1657C32.6059 56.3514 33.2067 56.3903 35.3363 56.3951C37.5878 56.4002 38.0348 56.3703 39.0035 56.1501C42.6707 55.3159 45.783 53.6012 48.3212 51.0165C50.8593 48.4317 52.5431 45.2622 53.3622 41.5276C53.5785 40.5412 53.6078 40.0859 53.6028 37.7931C53.5981 35.6244 53.5599 35.0125 53.3775 34.1814L53.1579 33.1809L53.4442 33.2546C55.1299 33.6885 57.8029 33.8645 59.5833 33.6586C61.8949 33.3915 63.7337 32.8395 65.908 31.7602C67.6811 30.88 68 30.5518 68 29.6078C68 28.712 67.4039 28.0133 66.5411 27.898C66.1724 27.8487 65.9407 27.9275 65.0458 28.407C64.4633 28.7189 63.7686 29.063 63.502 29.1716L63.0172 29.3689L57.51 23.7613C54.4809 20.6771 52.0026 18.0979 52.0026 18.0298C52.0026 17.9617 52.3311 17.2463 52.7326 16.44C53.3549 15.1901 53.4548 14.9085 53.4096 14.5298C53.2766 13.4126 51.9736 12.6544 51.0553 13.1597ZM55.119 26.2081C58.3159 29.4647 59.0319 30.2483 58.8687 30.3121C58.61 30.4131 55.7994 30.2772 55.0683 30.1283C54.7617 30.0658 53.9511 29.8573 53.2667 29.6648L52.0225 29.3151L51.679 28.048C51.49 27.351 51.2845 26.5255 51.2223 26.2133C51.0658 25.4282 50.9405 22.183 51.0667 22.183C51.1223 22.183 52.9457 23.9944 55.119 26.2081ZM45.7941 31.1583C46.8111 31.3108 49.1202 31.9359 49.2845 32.1033C49.4489 32.2706 50.0627 34.6221 50.2125 35.6579C50.3469 36.5885 50.3728 39.2122 50.2474 39.2122C50.1381 39.2122 42.3039 31.2353 42.3039 31.1239C42.3039 30.9954 44.8758 31.0207 45.7941 31.1583ZM49.2464 43.6271C48.7618 44.8105 47.3248 47.2727 47.1187 47.2727C47.023 47.2727 34.3888 34.4139 34.3888 34.3166C34.3888 34.1541 36.1378 33.0313 37.2019 32.511L38.3463 31.9513L43.8803 37.5841L49.4144 43.2169L49.2464 43.6271ZM38.3181 43.2705C41.7978 46.8137 44.6449 49.748 44.6449 49.7911C44.6449 49.9452 42.7693 51.1366 41.7381 51.6374L40.6874 52.1477L35.1534 46.5158L29.6193 40.8839L29.7873 40.4737C30.301 39.2199 31.7014 36.8281 31.9219 36.8281C31.9601 36.8281 34.8383 39.7272 38.3181 43.2705ZM32.7996 48.8899C34.9612 51.0905 36.7298 52.9297 36.7298 52.9769C36.7298 53.1054 34.1579 53.0801 33.2396 52.9425C32.2226 52.79 29.9135 52.1649 29.7492 51.9975C29.5848 51.8301 28.971 49.4786 28.8212 48.4429C28.6868 47.5123 28.6609 44.8886 28.7863 44.8886C28.8319 44.8886 30.6379 46.6891 32.7996 48.8899ZM23.9654 53.9714C24.272 54.0344 25.0826 54.2435 25.767 54.4359L27.0112 54.7857L27.3547 56.0528C27.5437 56.7498 27.7485 57.5753 27.8098 57.8875C27.956 58.632 28.0895 61.4943 27.9903 61.7577C27.9276 61.9239 27.1595 61.1961 23.9667 57.9457C21.7963 55.7361 20.0503 53.8792 20.0865 53.8194C20.1667 53.6875 23.1544 53.8045 23.9654 53.9714Z" fill="white"/>
</svg>
