<svg width="311" height="30" viewBox="0 0 311 30" fill="none" xmlns="http://www.w3.org/2000/svg">
<path d="M0.839844 29V0.999998H27.1198V29H19.2798V5.52L21.0398 7.28H6.91984L8.63984 5.52V29H0.839844ZM46.8655 29.56C44.6255 29.56 42.5588 29.2 40.6655 28.48C38.7721 27.76 37.1188 26.7467 35.7055 25.44C34.3188 24.1067 33.2388 22.56 32.4655 20.8C31.6921 19.04 31.3055 17.1067 31.3055 15C31.3055 12.8933 31.6921 10.96 32.4655 9.2C33.2388 7.44 34.3188 5.90667 35.7055 4.6C37.1188 3.26667 38.7721 2.24 40.6655 1.52C42.5588 0.799998 44.6255 0.439998 46.8655 0.439998C49.1321 0.439998 51.1988 0.799998 53.0655 1.52C54.9588 2.24 56.5988 3.26667 57.9855 4.6C59.3721 5.90667 60.4521 7.44 61.2255 9.2C62.0255 10.96 62.4255 12.8933 62.4255 15C62.4255 17.1067 62.0255 19.0533 61.2255 20.84C60.4521 22.6 59.3721 24.1333 57.9855 25.44C56.5988 26.7467 54.9588 27.76 53.0655 28.48C51.1988 29.2 49.1321 29.56 46.8655 29.56ZM46.8655 23C47.9321 23 48.9188 22.8133 49.8255 22.44C50.7588 22.0667 51.5588 21.5333 52.2255 20.84C52.9188 20.12 53.4521 19.2667 53.8255 18.28C54.2255 17.2933 54.4255 16.2 54.4255 15C54.4255 13.7733 54.2255 12.68 53.8255 11.72C53.4521 10.7333 52.9188 9.89333 52.2255 9.2C51.5588 8.48 50.7588 7.93333 49.8255 7.56C48.9188 7.18667 47.9321 7 46.8655 7C45.7988 7 44.7988 7.18667 43.8655 7.56C42.9588 7.93333 42.1588 8.48 41.4655 9.2C40.7988 9.89333 40.2655 10.7333 39.8655 11.72C39.4921 12.68 39.3055 13.7733 39.3055 15C39.3055 16.2 39.4921 17.2933 39.8655 18.28C40.2655 19.2667 40.7988 20.12 41.4655 20.84C42.1588 21.5333 42.9588 22.0667 43.8655 22.44C44.7988 22.8133 45.7988 23 46.8655 23ZM66.6602 29V0.999998H74.4602V17.44L86.0202 0.999998H93.4602V29H85.6602V12.6L74.1402 29H66.6602ZM113.113 29.56C110.899 29.56 108.846 29.2133 106.953 28.52C105.086 27.8 103.459 26.7867 102.073 25.48C100.713 24.1733 99.646 22.64 98.8727 20.88C98.0993 19.0933 97.7127 17.1333 97.7127 15C97.7127 12.8667 98.0993 10.92 98.8727 9.16C99.646 7.37333 100.713 5.82667 102.073 4.52C103.459 3.21333 105.086 2.21333 106.953 1.52C108.846 0.799998 110.899 0.439998 113.113 0.439998C115.699 0.439998 118.006 0.893332 120.033 1.8C122.086 2.70667 123.793 4.01333 125.153 5.72L120.113 10.28C119.206 9.21333 118.206 8.4 117.113 7.84C116.046 7.28 114.846 7 113.513 7C112.366 7 111.313 7.18667 110.353 7.56C109.393 7.93333 108.566 8.48 107.873 9.2C107.206 9.89333 106.673 10.7333 106.273 11.72C105.899 12.7067 105.713 13.8 105.713 15C105.713 16.2 105.899 17.2933 106.273 18.28C106.673 19.2667 107.206 20.12 107.873 20.84C108.566 21.5333 109.393 22.0667 110.353 22.44C111.313 22.8133 112.366 23 113.513 23C114.846 23 116.046 22.72 117.113 22.16C118.206 21.6 119.206 20.7867 120.113 19.72L125.153 24.28C123.793 25.96 122.086 27.2667 120.033 28.2C118.006 29.1067 115.699 29.56 113.113 29.56ZM146.41 29L138.53 15.68L144.89 11.92L155.33 29H146.41ZM128.57 29V0.999998H136.45V29H128.57ZM134.17 18.28V11.88H144.33V18.28H134.17ZM145.65 15.84L138.33 15.04L146.93 0.999998H155.25L145.65 15.84Z" fill="#69229A"/>
<path d="M184.011 29.56C181.798 29.56 179.744 29.2133 177.851 28.52C175.984 27.8 174.358 26.7867 172.971 25.48C171.611 24.1733 170.544 22.64 169.771 20.88C168.998 19.0933 168.611 17.1333 168.611 15C168.611 12.8667 168.998 10.92 169.771 9.16C170.544 7.37333 171.611 5.82667 172.971 4.52C174.358 3.21333 175.984 2.21333 177.851 1.52C179.744 0.799998 181.798 0.439998 184.011 0.439998C186.598 0.439998 188.904 0.893332 190.931 1.8C192.984 2.70667 194.691 4.01333 196.051 5.72L191.011 10.28C190.104 9.21333 189.104 8.4 188.011 7.84C186.944 7.28 185.744 7 184.411 7C183.264 7 182.211 7.18667 181.251 7.56C180.291 7.93333 179.464 8.48 178.771 9.2C178.104 9.89333 177.571 10.7333 177.171 11.72C176.798 12.7067 176.611 13.8 176.611 15C176.611 16.2 176.798 17.2933 177.171 18.28C177.571 19.2667 178.104 20.12 178.771 20.84C179.464 21.5333 180.291 22.0667 181.251 22.44C182.211 22.8133 183.264 23 184.411 23C185.744 23 186.944 22.72 188.011 22.16C189.104 21.6 190.104 20.7867 191.011 19.72L196.051 24.28C194.691 25.96 192.984 27.2667 190.931 28.2C188.904 29.1067 186.598 29.56 184.011 29.56ZM199.629 29V0.999998H213.229C216.589 0.999998 219.189 1.64 221.029 2.92C222.896 4.17333 223.829 5.96 223.829 8.28C223.829 10.5467 222.962 12.3333 221.229 13.64C219.496 14.92 217.176 15.56 214.269 15.56L215.069 13.68C218.216 13.68 220.669 14.3067 222.429 15.56C224.216 16.7867 225.109 18.6 225.109 21C225.109 23.4533 224.149 25.4 222.229 26.84C220.336 28.28 217.589 29 213.989 29H199.629ZM207.429 23.32H213.669C214.816 23.32 215.669 23.08 216.229 22.6C216.816 22.0933 217.109 21.36 217.109 20.4C217.109 19.44 216.816 18.7333 216.229 18.28C215.669 17.8 214.816 17.56 213.669 17.56H207.429V23.32ZM207.429 12.2H212.469C213.589 12.2 214.429 11.9733 214.989 11.52C215.549 11.04 215.829 10.3467 215.829 9.44C215.829 8.53333 215.549 7.85333 214.989 7.4C214.429 6.92 213.589 6.68 212.469 6.68H207.429V12.2ZM236.675 11.84H249.675V17.76H236.675V11.84ZM237.235 22.88H251.875V29H229.395V0.999998H251.355V7.12H237.235V22.88ZM262.587 29V5.52L264.347 7.28H253.987V0.999998H278.947V7.28H268.627L270.387 5.52V29H262.587ZM278.391 29L290.751 0.999998H298.551L310.951 29H302.711L293.031 4.88H296.151L286.471 29H278.391ZM285.151 23.56L287.191 17.72H300.871L302.911 23.56H285.151Z" fill="#C92C99"/>
</svg>
